<svg xmlns="http://www.w3.org/2000/svg" viewBox="0 0 168.25 259.48"><defs><style>.cls-1,.cls-5,.cls-6,.cls-7,.cls-8{fill:#231f20;}.cls-2{fill:#fff;}.cls-3,.cls-4{fill:none;}.cls-3,.cls-4,.cls-5,.cls-6,.cls-7,.cls-8{stroke:#231f20;stroke-linecap:round;}.cls-3,.cls-4,.cls-5{stroke-miterlimit:10;}.cls-3{stroke-width:0.25px;}.cls-4,.cls-7{stroke-width:3px;}.cls-5,.cls-8{stroke-width:2px;}.cls-6,.cls-7,.cls-8{stroke-linejoin:round;}</style></defs><g id="Layer_2" data-name="Layer 2"><g id="Layer_1-2" data-name="Layer 1"><circle class="cls-1" cx="57.4" cy="56.88" r="20.23"/><path class="cls-1" d="M61.22,30.56A288.69,288.69,0,0,0,29.08,55.87a1.35,1.35,0,0,1-1.9-.08A296.82,296.82,0,0,0,.46,30.35a1.26,1.26,0,0,1-.06-1.9A316.9,316.9,0,0,1,33.07.34a1.79,1.79,0,0,1,2.25.12A322.48,322.48,0,0,1,61.5,28.69,1.26,1.26,0,0,1,61.22,30.56Z"/><path class="cls-2" d="M69.65,20.7A440,440,0,0,1,18.7,67.23a1.39,1.39,0,0,1-1.91-.36L14,63.35a.66.66,0,0,1,.05-1A432.49,432.49,0,0,0,66,16.15a.69.69,0,0,1,1-.08l2.78,2.69A1.39,1.39,0,0,1,69.65,20.7Z"/><path class="cls-1" d="M71.24,22.55a440.91,440.91,0,0,1-51,46.53,1.39,1.39,0,0,1-1.91-.36c-.93-1.16-1.86-2.34-2.78-3.52a.66.66,0,0,1,.05-1A433.2,433.2,0,0,0,67.59,18a.69.69,0,0,1,1-.08c.93.91,1.86,1.8,2.79,2.69A1.4,1.4,0,0,1,71.24,22.55Z"/><path class="cls-3" d="M59.11,24.44a1.83,1.83,0,0,0,.18-1,1,1,0,0,0-.6-.76,1.13,1.13,0,0,0-.92.05,1.07,1.07,0,0,0-.37.27l0,0a1.6,1.6,0,0,0-.17,1.4"/><path class="cls-3" d="M59.11,24.44c1.48-1,2.84,1,1.33,1.73"/><path class="cls-1" d="M129.62,110.11,92.55,81a8.26,8.26,0,0,1,10.18-13L139.8,97.15a8.25,8.25,0,0,1-10.18,13Z"/><path class="cls-1" d="M63.35,191.23h97a12.1,12.1,0,0,1,12.1,12.1v0a12.1,12.1,0,0,1-12.1,12.1h-97a3.19,3.19,0,0,1-3.19-3.19V194.42a3.19,3.19,0,0,1,3.19-3.19Z" transform="translate(319.64 87.01) rotate(90)"/><rect class="cls-1" x="107.39" y="106.36" width="41.7" height="16.02" rx="8.01" transform="translate(291.4 60.49) rotate(120)"/><rect class="cls-1" x="-2.37" y="83.65" width="55.85" height="16.84" rx="8.42" transform="translate(110.09 47.53) rotate(77.73)"/><path class="cls-1" d="M64.28,103.61,33.36,118.72a8.33,8.33,0,0,1-11.1-4h0A8.34,8.34,0,0,1,26,103.59l28.67-14"/><path class="cls-4" d="M55.43,90.89q15,20.55,30,41c9.42,12.8,21.1,27.7,20.92,44.35"/><path class="cls-5" d="M167.25,190.6C118.94,106.5,95.08,77.17,91.05,75.38s27.35,68.42,32.89,76.52c3.56,5.2,40,37.69,43.31,38.7"/><path class="cls-1" d="M94.9,147.17c9-4.86,14.95-7.82,24-12.68l2.68,4.36s-1.17,22.78-1.28,23.21-2.43,9.48-4,11.39S94.9,147.17,94.9,147.17Z"/><polygon class="cls-6" points="69.25 91.03 64.59 89.05 58.97 86.87 65.62 85.98 71.24 84.58 69.98 88.2 69.25 91.03"/><polygon class="cls-6" points="79.35 84.89 80.51 80.37 82.35 72.89 77.08 79.33 72.74 83.7 76.4 84.34 79.35 84.89"/><polygon class="cls-7" points="72.65 85.15 97.03 129.97 101.04 130.81 101.97 127.28 72.65 85.15"/><polygon class="cls-8" points="72.06 86.19 73.37 86.02 73.76 84.93 73.22 84.1 71.31 85.19 72.06 86.19"/></g></g></svg>