<svg xmlns="http://www.w3.org/2000/svg" xmlns:xlink="http://www.w3.org/1999/xlink" viewBox="0 0 595.28 841.89"><defs><style>.cls-1,.cls-23{fill:#d1ad8f;}.cls-1,.cls-10,.cls-11,.cls-12,.cls-13,.cls-14,.cls-15,.cls-17,.cls-18,.cls-19,.cls-20,.cls-21,.cls-22,.cls-25,.cls-4,.cls-5,.cls-6,.cls-7,.cls-8,.cls-9{stroke:#231f20;}.cls-1,.cls-15,.cls-17,.cls-18,.cls-21,.cls-25,.cls-8,.cls-9{stroke-linecap:round;}.cls-1,.cls-10,.cls-11,.cls-12,.cls-13,.cls-15,.cls-17,.cls-18,.cls-20,.cls-21,.cls-22,.cls-25,.cls-4,.cls-5,.cls-6,.cls-7,.cls-8,.cls-9{stroke-linejoin:round;}.cls-1,.cls-25{stroke-width:0.8px;}.cls-2,.cls-3{fill:#231f20;}.cls-3{stroke:#77463d;stroke-width:0.5px;}.cls-14,.cls-16,.cls-19,.cls-3{stroke-miterlimit:10;}.cls-17,.cls-21,.cls-4,.cls-8,.cls-9{fill:#fff;}.cls-10,.cls-13,.cls-4,.cls-5,.cls-7{stroke-width:1.24px;}.cls-22,.cls-5{fill:#ededee;}.cls-6,.cls-7{fill:#563029;}.cls-6{stroke-width:1.19px;}.cls-8{stroke-width:1.2px;}.cls-9{stroke-width:1.37px;}.cls-10,.cls-20{fill:#b99470;}.cls-11,.cls-12,.cls-13,.cls-16{fill:#76463c;}.cls-11{stroke-width:0.66px;}.cls-12{stroke-width:1.15px;}.cls-14,.cls-19{fill:#f9efef;}.cls-15,.cls-25{fill:none;}.cls-15{stroke-width:1.24px;}.cls-16{stroke:#000;stroke-width:0.1px;}.cls-17,.cls-18{stroke-width:2px;}.cls-18{fill:#fcf5f5;}.cls-19{stroke-width:3px;}.cls-20{stroke-width:1.32px;}.cls-21{stroke-width:1.45px;}.cls-22{stroke-width:0.94px;}.cls-24{clip-path:url(#clip-path);}</style><clipPath id="clip-path"><polygon class="cls-1" points="207.3 379.5 196.93 393.61 217.68 393.61 207.3 379.5 196.93 393.61 217.68 393.61 207.3 379.5"/></clipPath></defs><g id="Leg"><path class="cls-2" d="M214.81,575.74q-1.91,100,0,203,.23,12,.51,24l11.3,2.08c-1.1-.2,11.91-75.73,13.07-82.62,2.34-13.91,4.64-27.82,6.71-41.77,2.66-17.89,5.9-34.62,18.08-48.57,10.62-12.15,25.62-19.53,41.7-19.56,50.23-.09,59.43,63.92,61.88,102,.29,4.42.56,8.85.89,13.28.51,6.83,5,80.29,6,80.39,3.42.35,6.89-1.16,10.31-.81,1.92-78.08,3.79-154.3,5.71-232.38Z"/><path class="cls-3" d="M374.57,808c-3.48-16.29,12.12-23.1,21.16-23.09,4.43,0,10.38,2.19,13,7,2.69,5.06,1.06,11.74-4.32,16.44Z"/><path class="cls-3" d="M226.35,808c3.49-16.29-12.11-23.1-21.16-23.09-4.43,0-10.38,2.19-13,7-2.69,5.06-1.06,11.74,4.32,16.44Z"/></g><g id="Shirt"><path class="cls-4" d="M224.74,379A226.56,226.56,0,0,1,387,385.3c-3.58,24.31-6.52,50.64-8.35,78.79-1.7,26.17-2.25,50.88-2,73.92l-141,2.77Q230.21,459.92,224.74,379Z"/><g id="Tie"><path class="cls-5" d="M227,361.3c-.33,7,2.25,13.5,8.21,21.92,10.68,15,24.83,26,33.66,32.08A51.06,51.06,0,0,1,277,400c9.93-12.63,23.17-17,28.57-18.39a154.7,154.7,0,0,1-61.83-20.35,146.49,146.49,0,0,1-14.48-9.78A27.51,27.51,0,0,0,227,361.3Z"/><path class="cls-6" d="M297.49,402.56a101.3,101.3,0,0,0-6.23,14.84c-2.46,7.48-3.68,14.17-5.67,25-.81,4.43-1.22,6.64-1.37,7.91-.66,5.51-.07,18.39,20,39.06a55.28,55.28,0,0,0,11.58-19.45,59.16,59.16,0,0,0,3.06-16.43c1.34-22.43-9.74-45.69-12.8-51.81Z"/><path class="cls-7" d="M289.53,384.29c-.71.4-1.38,2.12-1.73,2.8a15.19,15.19,0,0,0-1.73,5.73,14.46,14.46,0,0,0,2.84,9c1.29,1.91,4.11,6,6.91,4.94a16.36,16.36,0,0,1,5.24-1,18.52,18.52,0,0,1,8,1.26c.47.24,3-1.69,3.35-2,5.43-4.45,7.9-14.51,3.72-20.51C312.4,379.05,301,377.84,289.53,384.29Z"/><path class="cls-4" d="M228.64,362c-.33,7,2.25,13.5,8.21,21.91C247.53,399,261.68,410,270.51,416a51.06,51.06,0,0,1,8.21-15.26c9.93-12.64,23.17-17,28.57-18.39A154.7,154.7,0,0,1,245.46,362,146.86,146.86,0,0,1,231,352.24,27.22,27.22,0,0,0,228.64,362Z"/><path class="cls-4" d="M374.72,362c.33,7-2.25,13.5-8.21,21.91C355.84,399,341.68,410,332.86,416a51.36,51.36,0,0,0-8.22-15.26c-9.93-12.64-23.17-17-28.57-18.39A154.7,154.7,0,0,0,357.9,362a148.25,148.25,0,0,0,14.48-9.78A27.46,27.46,0,0,1,374.72,362Z"/></g><path class="cls-8" d="M401.93,472.63c-8.13,5.47-12.6,15.08-19.94,21.67a17.4,17.4,0,0,0-4.39,5.19c-1.23,2.58-1.23,5.6-1.21,8.5l.27,30c12.13-4.36,23-12,32.63-20.87a218.9,218.9,0,0,0,19.6-20.32c5.7-6.76,12.22-14.26,13.66-23.59,1-6.48-.34-13-2-19.23-3.58-13.55-9.52-26.81-15.72-39.19a173.08,173.08,0,0,0-22.21-34.31q-2.62-3.11-5.41-6.05c-12.16,12.5-18,31.18-17,49.17a120.3,120.3,0,0,0,1.56,13.91,90,90,0,0,0,3.44,13.58,130.47,130.47,0,0,0,6.26,14.68c2.25,4.61,3.76,5.43,7.28,9.12"/><path class="cls-9" d="M213.54,489.26c-1.24-.4-4.69-1.18-4.77-18.78-.07-14.84-3.8-35.87,3.72-57.91,2.68-2,6.77-4.22,11.22-3.53,11.07,1.72,15.26,20.12,15.78,22.44C246,460,220.92,491.68,213.54,489.26Z"/><path class="cls-10" d="M403.83,380.84a1.23,1.23,0,0,0-.29-.69c-5.66-8-13.3-14.33-21.65-19.34l-.88-.52-.54-.32c-.67-.39-8.82-4.58-8.72-4.82-.88,2.12-.63,4.62-1,6.84-1.39,8.18-6,15.86-11.56,21.87a62.84,62.84,0,0,1-13.29,10.75c-.85.52-1.7,1-2.55,1.52-13.71,8.22-22.65,46.84-41.19,126.63-.27,17.48-9,23.76-9.29,41.24l41.48,38,59.48-22.7c.65-41,1-63.26,1.66-104.21-2.81-5.26-6.79-42.39-2.84-64.05,1.46-8,3.41-16.1,7-23.41a38.25,38.25,0,0,1,2-3.59c.58-.92,1.35-1.7,1.93-2.63A1.1,1.1,0,0,0,403.83,380.84Z"/><path class="cls-10" d="M233.48,355.16a228.48,228.48,0,0,0-23,19.08,86.45,86.45,0,0,1,13.23,41.63c2.18,41-11.67,55.33-16,61.39,1.45,30.94,2.91,71.29,4.36,102.23l63.16,29.2,34.48-29.6a314.48,314.48,0,0,0,0-54c-.3-3.51-1.25-14.29-3.27-25.6-3.43-19.26-16.63-71.07-47.15-100-5.38-5.1-15.21-16.84-23.63-38C234.66,358.78,233.92,356.54,233.48,355.16Z"/><ellipse class="cls-2" cx="299.61" cy="528.13" rx="4.7" ry="6.39"/><ellipse class="cls-2" cx="299.61" cy="558.36" rx="4.7" ry="6.39"/><path class="cls-11" d="M358.55,384.58a18,18,0,0,1,6.82,1.91c6.11,3.07,11.13,9.64,11.23,9.52l-.12-.19c-.23-.32.35-2.91.4-3.37.14-1.3.25-2.61.33-3.92q.29-4.45.2-9c-.18-8.87-.91-18.68-3.56-27.41,0-.08-.34-.24-.41-.29a18.42,18.42,0,0,0-5.37-2.73,13,13,0,0,0-4.11-.52l-1.07,0c.27,0,.73,2.38.78,2.63a22.73,22.73,0,0,1,.25,2.95,24.58,24.58,0,0,1-.05,2.58c-.33,4.57-3.48,11.64-3.5,11.68h0a74.49,74.49,0,0,1-4.75,10.45c-2.71,5.17-3.29,5.95-2.94,6.54S354.36,386.33,358.55,384.58Z"/><path class="cls-12" d="M356.29,378.38a92.38,92.38,0,0,1,11.14,13.78c7.44,11.56,9.7,23.32,11.07,31a96.43,96.43,0,0,0-43.78,28c-20.58,23.11-27,49.24-27.77,58.07-2.05-12.66-1.22-35.31,6.33-61.81C323.82,410.41,346.49,386.88,356.29,378.38Z"/><path class="cls-11" d="M250.92,391.19a17.71,17.71,0,0,0-6.81,1.9c-6.11,3.07-11.13,9.64-11.23,9.53l.12-.2c.23-.31-.35-2.91-.4-3.37-.14-1.3-.25-2.6-.33-3.92-.2-3-.26-6-.2-9,.18-8.87.91-18.68,3.56-27.4,0-.08.34-.25.4-.3a18.82,18.82,0,0,1,5.38-2.72,12.69,12.69,0,0,1,4.11-.52l1.06,0c-.26,0-.72,2.37-.77,2.63a21,21,0,0,0-.25,2.95,24.68,24.68,0,0,0,.05,2.58c.33,4.56,3.48,11.64,3.5,11.67h0a75.07,75.07,0,0,0,4.75,10.46c2.71,5.16,3.28,5.94,2.94,6.53S255.12,392.93,250.92,391.19Z"/><path class="cls-13" d="M253.28,384.17a101.58,101.58,0,0,0-11.76,15.23c-7.82,12.77-10.14,25.74-11.54,34.18a102.43,102.43,0,0,1,46.77,30.72c22.06,25.37,32.15,54.27,33.1,64,2.08-14-2.1-39.06-10.32-68.22C288.05,419.33,263.76,393.49,253.28,384.17Z"/><g id="Hand"><ellipse class="cls-14" cx="324.22" cy="434.24" rx="5.6" ry="4.39" transform="matrix(0.56, -0.83, 0.83, 0.56, -216.99, 461.98)"/><ellipse class="cls-14" cx="334.33" cy="439.54" rx="17.09" ry="11.32" transform="translate(-189.91 265.92) rotate(-34.42)"/></g><path class="cls-9" d="M259,463.52c-2.9-11.21-10.73-30.18-10.73-30.18-2-5-4.38-11.16-8.2-19.16-3.6-7.54-7.15-15.15-11.63-22.22-2.17-3.42-4.45-7.31-7.18-10.31s-5.87-5.76-10-6.06c-4.49-.32-9.36,3.64-11.88,6.1a26.69,26.69,0,0,0-5,6.71c-4.7,8.94-4.56,20.16-3,30,0,.2.07.39.1.59,2.11,12.8,7.09,24.68,11.92,36.67,6.08,15.08,15.5,28.28,25.75,40.76,2.73,3.32,5.63,7.05,9.13,9.61.65.48,2.2,1.94,3.13,1.71A138.79,138.79,0,0,0,267,499c22.84-9.73,44.09-26.27,62.67-42.55,1.67-1.47-.3-4-1.16-5.23-3.53-4.38-6.51-9.67-7.43-15.26-.24-1.42-.63-3.25-2.39-2.25-9.83,5.55-20.44,10.47-30.81,15.28-5.39,2.5-10.78,5-16.12,7.62-4.19,2.05-14.25,7.11-17.45,10.81"/><path class="cls-15" d="M339.46,521.54a49.6,49.6,0,0,0,44.8-1.17"/><path class="cls-16" d="M341.43,528.69a.67.67,0,0,1-.69-.58,6.75,6.75,0,0,1,0-.71v-.15a.66.66,0,0,1,.68-.64h0a.67.67,0,0,1,.69.62v.16a4.89,4.89,0,0,0,0,.61.65.65,0,0,1-.63.68Z"/><path class="cls-16" d="M341.72,530.75a.68.68,0,0,1-.69-.53,5.48,5.48,0,0,1-.08-.66l0-.19a.65.65,0,0,1,.61-.69.69.69,0,0,1,.76.56l0,.21c0,.16,0,.32.08.57a.64.64,0,0,1-.57.72Z"/><path class="cls-16" d="M342.18,532.79a.68.68,0,0,1-.67-.48,6.23,6.23,0,0,1-.14-.62l0-.21a.64.64,0,0,1,.54-.74.68.68,0,0,1,.81.49l.05.26c0,.14.06.29.12.51a.64.64,0,0,1-.5.77Z"/><path class="cls-16" d="M342.82,534.78a.7.7,0,0,1-.66-.43c-.09-.26-.14-.44-.19-.61l-.06-.2a.63.63,0,0,1,.48-.78.7.7,0,0,1,.85.44l.07.22a4.45,4.45,0,0,0,.17.54.63.63,0,0,1-.45.79Z"/><path class="cls-16" d="M343.62,536.73a.7.7,0,0,1-.64-.4c-.11-.25-.17-.42-.23-.58l-.08-.21a.61.61,0,0,1,.42-.8.7.7,0,0,1,.88.38l.09.23.2.52a.66.66,0,0,1-.64.86Z"/><path class="cls-16" d="M344.55,538.63a.68.68,0,0,1-.62-.36c-.18-.34-.26-.53-.36-.76a.63.63,0,0,1,.39-.83.69.69,0,0,1,.88.34l0,0c.09.2.16.38.32.68a.61.61,0,0,1-.34.84A.72.72,0,0,1,344.55,538.63Z"/><path class="cls-16" d="M345.59,540.48a.73.73,0,0,1-.62-.33c-.14-.25-.22-.41-.3-.57l-.09-.19a.6.6,0,0,1,.32-.84.71.71,0,0,1,.92.3l.11.21a5.44,5.44,0,0,0,.27.5.61.61,0,0,1-.3.85A.7.7,0,0,1,345.59,540.48Z"/><path class="cls-16" d="M346.74,542.28a.71.71,0,0,1-.57-.28,3.88,3.88,0,0,1-.36-.58l-.11-.18a.6.6,0,0,1,.27-.85.72.72,0,0,1,.94.24l.13.23a3.51,3.51,0,0,0,.27.43.6.6,0,0,1-.18.88A.77.77,0,0,1,346.74,542.28Z"/><path class="cls-16" d="M348,544a.75.75,0,0,1-.56-.25c-.26-.33-.39-.51-.54-.74a.6.6,0,0,1,.26-.86.73.73,0,0,1,.94.23,5.09,5.09,0,0,0,.46.62.6.6,0,0,1-.15.88A.75.75,0,0,1,348,544Z"/><path class="cls-16" d="M349.46,545.62a.71.71,0,0,1-.52-.22c-.2-.21-.33-.35-.44-.49l-.14-.16a.6.6,0,0,1,.1-.89.73.73,0,0,1,1,.1l.16.18c.1.12.21.25.39.43a.59.59,0,0,1-.07.89A.75.75,0,0,1,349.46,545.62Z"/><path class="cls-16" d="M351,547.11a.72.72,0,0,1-.48-.17c-.21-.19-.34-.32-.47-.45l-.16-.16a.58.58,0,0,1,0-.89.73.73,0,0,1,1,0l.19.18c.11.11.23.23.41.39a.58.58,0,0,1,0,.89A.71.71,0,0,1,351,547.11Z"/><path class="cls-16" d="M352.78,548.45a.75.75,0,0,1-.43-.13l-.52-.4-.18-.15a.58.58,0,0,1-.08-.88.74.74,0,0,1,1-.08l.2.16c.13.1.26.21.47.36a.58.58,0,0,1,.11.88A.7.7,0,0,1,352.78,548.45Z"/><path class="cls-16" d="M354.69,549.58a.73.73,0,0,1-.35-.09c-.26-.14-.42-.25-.57-.34l-.2-.13a.59.59,0,0,1-.2-.87.74.74,0,0,1,1-.18l.22.14c.14.08.28.18.5.3a.6.6,0,0,1,.23.87A.69.69,0,0,1,354.69,549.58Z"/><path class="cls-16" d="M356.77,550.43a.63.63,0,0,1-.26,0,6.5,6.5,0,0,1-.63-.26l-.21-.1a.62.62,0,0,1-.33-.84.73.73,0,0,1,.92-.3l.25.11a5.1,5.1,0,0,0,.53.23.61.61,0,0,1,.37.82A.69.69,0,0,1,356.77,550.43Z"/><path class="cls-16" d="M359,550.94h-.07a3,3,0,0,1-.77-.17l-.19-.06a.63.63,0,0,1-.51-.76.7.7,0,0,1,.84-.46c.11,0,.21.06.32.09a1.49,1.49,0,0,0,.44.1.64.64,0,0,1,.62.68A.67.67,0,0,1,359,550.94Z"/><path class="cls-16" d="M361,551.11a3.58,3.58,0,0,1-.55-.05l-.18,0a.66.66,0,0,1-.63-.68.67.67,0,0,1,.75-.57,1.54,1.54,0,0,1,.3,0,1.66,1.66,0,0,0,.45,0,.67.67,0,0,1,.76.56.64.64,0,0,1-.61.69Z"/><path class="cls-16" d="M362.72,551h-.11a.65.65,0,0,1-.66-.65.66.66,0,0,1,.71-.61,2.61,2.61,0,0,0,.72-.09.7.7,0,0,1,.82.49.64.64,0,0,1-.54.75A5.55,5.55,0,0,1,362.72,551Z"/><path class="cls-16" d="M364.87,550.59a.7.7,0,0,1-.66-.44.61.61,0,0,1,.45-.79l.26-.07.56-.17a.72.72,0,0,1,.89.37.62.62,0,0,1-.42.81l-.64.19-.23.07A.76.76,0,0,1,364.87,550.59Z"/><path class="cls-16" d="M367,549.83a.68.68,0,0,1-.62-.37.6.6,0,0,1,.34-.83l.23-.1c.16-.06.32-.12.55-.23a.72.72,0,0,1,.93.27.61.61,0,0,1-.3.85c-.27.12-.45.2-.62.26l-.22.09A.72.72,0,0,1,367,549.83Z"/><path class="cls-16" d="M369,548.81a.71.71,0,0,1-.6-.31.6.6,0,0,1,.24-.86l.22-.12c.15-.07.3-.16.52-.29a.73.73,0,0,1,1,.19.59.59,0,0,1-.2.87c-.25.15-.43.24-.59.32l-.2.11A.73.73,0,0,1,369,548.81Z"/><path class="cls-16" d="M370.8,547.58a.75.75,0,0,1-.56-.25.6.6,0,0,1,.15-.88l.16-.11A3.3,3.3,0,0,0,371,546a.73.73,0,0,1,1,0,.59.59,0,0,1,0,.89,4.4,4.4,0,0,1-.64.47l-.13.09A.78.78,0,0,1,370.8,547.58Z"/><path class="cls-16" d="M372.49,546.19a.73.73,0,0,1-.5-.19.59.59,0,0,1,0-.89l.15-.14c.13-.11.27-.23.46-.41a.72.72,0,0,1,1,0,.59.59,0,0,1,0,.89c-.22.21-.37.34-.51.46L373,546A.72.72,0,0,1,372.49,546.19Z"/><path class="cls-16" d="M374,544.66a.78.78,0,0,1-.46-.16.6.6,0,0,1-.05-.89l.18-.18.4-.41a.73.73,0,0,1,1-.09.6.6,0,0,1,.09.89c-.19.21-.33.34-.45.47l-.16.16A.73.73,0,0,1,374,544.66Z"/><path class="cls-16" d="M375.44,543a.74.74,0,0,1-.43-.14.6.6,0,0,1-.11-.89l.16-.17a5.19,5.19,0,0,0,.35-.43.75.75,0,0,1,1-.17.59.59,0,0,1,.19.87,5.07,5.07,0,0,1-.45.54l-.13.15A.75.75,0,0,1,375.44,543Z"/><path class="cls-16" d="M376.73,541.32a.79.79,0,0,1-.39-.11.61.61,0,0,1-.18-.88l.15-.2c.1-.12.2-.25.34-.45a.73.73,0,0,1,1-.2.6.6,0,0,1,.22.87c-.16.23-.27.37-.38.51l-.14.18A.71.71,0,0,1,376.73,541.32Z"/><path class="cls-16" d="M377.91,539.54a.73.73,0,0,1-.35-.09.59.59,0,0,1-.24-.86l.13-.21.31-.48a.73.73,0,0,1,.94-.24.6.6,0,0,1,.27.85l-.34.54-.13.18A.69.69,0,0,1,377.91,539.54Z"/><path class="cls-16" d="M379,537.69a.8.8,0,0,1-.3-.06.6.6,0,0,1-.32-.84l.12-.22c.07-.14.15-.28.25-.5a.72.72,0,0,1,.91-.32.61.61,0,0,1,.36.83l-.29.56-.11.19A.69.69,0,0,1,379,537.69Z"/><path class="cls-16" d="M379.81,535.77a.75.75,0,0,1-.26,0,.62.62,0,0,1-.38-.83l.08-.17a4.06,4.06,0,0,0,.22-.52.7.7,0,0,1,.86-.43.63.63,0,0,1,.46.79,3.69,3.69,0,0,1-.27.66l-.07.16A.7.7,0,0,1,379.81,535.77Z"/><path class="cls-16" d="M380.5,533.78a.65.65,0,0,1-.2,0,.63.63,0,0,1-.47-.79l.08-.22c0-.15.11-.3.17-.53a.7.7,0,0,1,.84-.46.64.64,0,0,1,.5.77l-.19.6-.07.2A.68.68,0,0,1,380.5,533.78Z"/><path class="cls-16" d="M381,531.76h-.13a.64.64,0,0,1-.55-.74l.06-.24c0-.15.07-.31.11-.54a.68.68,0,0,1,.79-.52.63.63,0,0,1,.57.72c0,.26-.08.44-.12.61l-.05.21A.68.68,0,0,1,381,531.76Z"/><path class="cls-16" d="M381.32,529.7h-.12a.64.64,0,0,1-.57-.73,5.08,5.08,0,0,0,.1-.75.67.67,0,0,1,.75-.58.65.65,0,0,1,.63.68c0,.4-.07.61-.11.87A.69.69,0,0,1,381.32,529.7Z"/><path class="cls-16" d="M381.45,527.63h-.06a.63.63,0,0,1-.62-.68c0-.23,0-.41,0-.76a.66.66,0,0,1,.69-.63h0a.66.66,0,0,1,.68.64,6.78,6.78,0,0,1,0,.86A.67.67,0,0,1,381.45,527.63Z"/><path class="cls-16" d="M381.42,525.55a.67.67,0,0,1-.69-.61v-.24c0-.16,0-.32,0-.55a.69.69,0,0,1,1.38-.09c0,.27,0,.45,0,.62v.22a.66.66,0,0,1-.67.65Z"/><path class="cls-16" d="M381.2,523.43a.62.62,0,0,1-.67-.53v-.1c0-.19,0-.37-.08-.67a.64.64,0,0,1,.58-.72.68.68,0,0,1,.78.53,5.7,5.7,0,0,1,.09.77.69.69,0,0,1-.63.72Z"/></g><g id="Layer_1" data-name="Layer 1"><g id="Head"><path class="cls-14" d="M197.12,307.08c-2-5.44-6.17-10.38-11.8-12.21-6.48-2.1-12.45,2-15.38,7.68-7.78,15,7.95,29.67,21.33,33.36,4.84,1.33,16.47,3.47,19.26-2.51,1.58-3.36-1.52-8.06-3.28-10.38"/><path class="cls-14" d="M406.06,307.08c2-5.44,6.17-10.38,11.8-12.21,6.49-2.1,12.46,2,15.39,7.68,7.78,15-8,29.67-21.34,33.36-4.84,1.33-16.46,3.47-19.26-2.51-1.57-3.36,1.53-8.06,3.29-10.38"/><path class="cls-14" d="M417.13,267.5A116.63,116.63,0,0,1,300.5,384.13c-50.73,0-93-35.42-109-75a102.87,102.87,0,0,1-7.64-41.61c2-49.08,44.17-116.63,116.63-116.63A116.63,116.63,0,0,1,417.13,267.5Z"/></g><path class="cls-2" d="M184.27,266.61c.78-13.77,5.78-18.44,8.32-20.86,4.7-4.49,12.77-8.15,20.64-6.39,3.73.83,9.08,3.26,9.39,6.37.37,3.65-6.39,6.61-8.33,7.59-7.88,4-18.66,16.9-23.14,54A91.18,91.18,0,0,1,184.27,266.61Z"/><path class="cls-2" d="M416.37,259.89c-1.77-13.68-7.09-18-9.8-20.21-5-4.13-13.33-7.2-21.05-4.87-3.66,1.1-8.82,3.9-8.91,7-.1,3.67,6.85,6.13,8.87,7,8.14,3.4,19.83,15.51,27,52.19A91.14,91.14,0,0,0,416.37,259.89Z"/><g id="Hat"><ellipse class="cls-17" cx="304.3" cy="241.91" rx="171.78" ry="43.87"/><path class="cls-6" d="M407.52,205a39.38,39.38,0,0,1,4.39-5.77c2.86-3.1,6.91-5.39,11.13-5.14a10.75,10.75,0,0,1,1.14,21.33c5-1.14,10.53,2.1,12.45,6.89s.4,10.6-3.24,14.26a17.26,17.26,0,0,1-14.24,4.57,20.13,20.13,0,0,1-15.62-11.61C400.15,221.86,402.91,212.36,407.52,205Z"/><path class="cls-6" d="M408.69,231.59a6.68,6.68,0,0,1-4,5.65A262.43,262.43,0,0,1,301.76,258.3a262.37,262.37,0,0,1-102.9-21.06,6.73,6.73,0,0,1-4.06-5.61L180.65,61.47H421.3L411.16,198.21Z"/><path class="cls-17" d="M411.16,198.21c-20.49,9.14-60.75,22.53-109.4,22.53-22.44,0-65.32-2.89-109.75-22.7L180.65,61.47H421.3Z"/><ellipse class="cls-18" cx="300.98" cy="61.47" rx="120.33" ry="21.91"/></g><path class="cls-19" d="M327.19,295a33.36,33.36,0,1,0,60.15,0,3.76,3.76,0,0,0-3.38-2.1H330.57A3.76,3.76,0,0,0,327.19,295Z"/><g id="Mustage"><path d="M310.5,358.46c.58-.36,1.15-.79,1.68-1.12a5.65,5.65,0,0,1,6.22.19c2.21,1.43,4.19,3.13,6.71,4.11a17,17,0,0,0,7.93,1.05,12,12,0,0,0,7-3.06,7.26,7.26,0,0,0,2-3.34,5.25,5.25,0,0,0-3.26-6.46,4.27,4.27,0,0,0-2.1-.19,4.58,4.58,0,0,0-1.88.74,3.71,3.71,0,0,0-1.35,1.48,2.73,2.73,0,0,0-.18,2,2.82,2.82,0,0,0,3.15,2,.41.41,0,0,0,.35-.47.41.41,0,0,0-.46-.33,1.8,1.8,0,0,1-1.92-1.43,1.94,1.94,0,0,1,1.18-2,2.78,2.78,0,0,1,2.53-.17,3.5,3.5,0,0,1,1.75,1.86,4.26,4.26,0,0,1-1.6,4.61,9.06,9.06,0,0,1-5.41,1.82,13.95,13.95,0,0,1-5.82-1.18,10.74,10.74,0,0,1-1.26-.66,12.72,12.72,0,0,1-1.23-.84c-.79-.57-1.58-1.25-2.47-2a13.42,13.42,0,0,0-4.67-2.79,11,11,0,0,0-8.78.91c-1.41.83-3.53,2.31-2.92,4.13a3.09,3.09,0,0,0,1.22,1.57C308.15,359.65,309.37,359.16,310.5,358.46Z"/><path d="M294.62,358.46c-.59-.36-1.15-.79-1.68-1.12a5.65,5.65,0,0,0-6.22.19c-2.22,1.43-4.19,3.13-6.71,4.11a17,17,0,0,1-7.94,1.05,12,12,0,0,1-7-3.06,7.24,7.24,0,0,1-2-3.34,5.25,5.25,0,0,1,3.26-6.46,4.26,4.26,0,0,1,2.1-.19,4.64,4.64,0,0,1,1.88.74,3.86,3.86,0,0,1,1.35,1.48,2.73,2.73,0,0,1,.17,2,2.79,2.79,0,0,1-1.18,1.56,2.82,2.82,0,0,1-2,.4.43.43,0,0,1-.36-.47.42.42,0,0,1,.47-.33,1.81,1.81,0,0,0,1.92-1.43,2,2,0,0,0-1.19-2,2.78,2.78,0,0,0-2.53-.17,3.51,3.51,0,0,0-1.74,1.86c-.63,1.53.21,3.52,1.59,4.61a9.08,9.08,0,0,0,5.42,1.82,13.33,13.33,0,0,0,3-.28,13.08,13.08,0,0,0,2.82-.9,10.88,10.88,0,0,0,1.27-.66c.41-.25.83-.54,1.23-.84.79-.57,1.58-1.25,2.47-2a13.47,13.47,0,0,1,4.66-2.79,11,11,0,0,1,8.79.91c1.41.83,3.53,2.31,2.92,4.13a3.2,3.2,0,0,1-1.22,1.57C297,359.65,295.75,359.16,294.62,358.46Z"/></g><g id="Glass"><polygon class="cls-20" points="207.3 311.14 207.3 320.02 207.3 327.21 222.35 341.22 219.86 300.8 207.3 311.14"/><circle class="cls-21" cx="245.63" cy="320.02" r="31.49"/><path class="cls-22" d="M207.3,380v0Z"/><polygon class="cls-23" points="207.3 379.5 196.93 393.61 217.68 393.61 207.3 379.5 196.93 393.61 217.68 393.61 207.3 379.5"/><g class="cls-24"><polyline class="cls-1" points="202.66 393.61 203.39 384.82 211.13 393.61 211.18 384.77"/></g><polygon class="cls-25" points="207.3 379.5 196.93 393.61 217.68 393.61 207.3 379.5 196.93 393.61 217.68 393.61 207.3 379.5"/></g></g></svg>