<svg xmlns="http://www.w3.org/2000/svg" viewBox="0 0 250 250"><defs><style>.cls-1,.cls-10,.cls-11{fill:#fff;}.cls-2{fill:#231f20;}.cls-3{fill:#090a09;}.cls-4{fill:#010201;}.cls-5{fill:#060706;}.cls-6,.cls-9{fill:none;}.cls-6{stroke:#010201;stroke-width:0.2px;}.cls-10,.cls-11,.cls-6{stroke-miterlimit:10;}.cls-7{font-size:4.37px;fill:#070707;font-family:Castellar;}.cls-8{fill:#0e0e0e;}.cls-10,.cls-11,.cls-12,.cls-9{stroke:#231f20;}.cls-12,.cls-9{stroke-linecap:round;stroke-linejoin:round;}.cls-9{stroke-width:0.5px;}.cls-10{stroke-width:0.5px;}.cls-11{stroke-width:0.25px;}.cls-12{stroke-width:0.51px;}</style></defs><g id="Layer_3" data-name="Layer 3"><path class="cls-1" d="M97.56,159.47l-3.32,13.29L85.9,206.38,77,235c-.43,1.36-5.87,20.77-5.87,20.77l11.4-7.83,12.77-10,1.78-1.79"/><path class="cls-2" d="M97.56,159.47l-5.73,24.31c-2,8.08-3.79,16.22-6,24.25C83.39,216,81,224,78.44,231.88l-.94,3-.86,3-1.72,6-3.44,12-.61-.43,6.23-4.2,3.12-2.1c1-.71,2.1-1.37,3.06-2.17l11.93-9.14h0l1.84-1.73-1.72,1.86h0l-11.71,9.45c-1,.82-2,1.49-3,2.22l-3.08,2.15-6.17,4.32a.4.4,0,0,1-.55-.1.42.42,0,0,1-.06-.34l3.35-12,1.69-6,.85-3,.92-3c2.44-8,5-15.88,7.47-23.81l.47-1.49.38-1.51.76-3,1.53-6,3.1-12.09C93.28,175.56,95.41,167.51,97.56,159.47Z"/><path class="cls-1" d="M158.79,158.21l3.32,13.28,8.34,33.62,8.94,28.59c.42,1.37,5.87,20.77,5.87,20.77l-11.41-7.83-12.76-10-1.79-1.8"/><path class="cls-2" d="M158.79,158.21q3.24,12.06,6.34,24.15l3.1,12.08,1.52,6.05.76,3,.38,1.51.47,1.49c2.49,7.94,5,15.86,7.48,23.81l.92,3,.85,3,1.68,6,3.35,12a.4.4,0,0,1-.27.49.41.41,0,0,1-.34,0l-6.17-4.31-3.08-2.16c-1-.72-2.08-1.4-3-2.21L161,236.67h0l-1.73-1.86,1.85,1.74h0l11.93,9.15c1,.79,2,1.45,3.07,2.16l3.11,2.1,6.23,4.2-.61.44-3.44-12-1.71-6-.87-3-.94-3c-2.52-7.93-4.94-15.9-7.42-23.85-2.18-8-4-16.16-6-24.25Z"/><g id="leg"><path class="cls-1" d="M94.38,170c-.61,9.41-1.54,18.72-1.36,28.17a182.62,182.62,0,0,0,2.72,28,254.14,254.14,0,0,0,6.6,29.57c8.76,0,17.78,0,26.54,0l.34-50.24.6,50.24,24.34,0,.42-1.58c5.14-19.4,9.85-38.58,11.26-58.71a38,38,0,0,0,.13-4.53c-.17-3.91-1.37-7.73-2.19-11.54l-1.62-7.48"/><path class="cls-3" d="M94.38,170c-.44,7.21-1.07,14.41-1.25,21.63a167.82,167.82,0,0,0,1,21.61c.73,7.18,2.05,14.28,3.43,21.37a210.09,210.09,0,0,0,5.1,21l-.29-.22,26.54-.09h0l-.39.4.31-25.12L129,218l.08-6.28,0-3.14a22.07,22.07,0,0,1,.14-3.14h0l1,50.23h0l-.39-.38,24.34.07-.3.23c1.86-6.88,3.68-13.76,5.33-20.69s3.12-13.89,4.3-20.91a196.18,196.18,0,0,0,2.41-21.2,38,38,0,0,0-1.47-10.53c-.84-3.46-1.51-7-2.27-10.44.78,3.48,1.48,7,2.34,10.43a38,38,0,0,1,1.56,10.54A199.08,199.08,0,0,1,163.79,214c-1.13,7-2.55,14-4.16,21s-3.37,13.84-5.17,20.73a.31.31,0,0,1-.3.23l-24.34.1a.38.38,0,0,1-.39-.39h0l-.21-50.24h0a22,22,0,0,1,.1,3.14v22l0,25.12a.4.4,0,0,1-.4.4h0l-26.54-.1a.31.31,0,0,1-.29-.21,210,210,0,0,1-5-21.11c-1.33-7.1-2.6-14.22-3.28-21.42A166.48,166.48,0,0,1,93,191.58C93.2,184.36,93.89,177.17,94.38,170Z"/></g><path class="cls-1" d="M144.27,68.47c9.84,0,19.49,1.9,29.19,3.37a3.3,3.3,0,0,1,1.57.53,3.09,3.09,0,0,1,.84,1.51c6.27,18.72,7.81,39.83,7.17,59.46-.14,4.19-.74,8.4-.82,12.56,0,.83-4.58,3.78-5.37,4.28a39.49,39.49,0,0,1-7.25,3.95,39.67,39.67,0,0,1-4.79,1.37c-6.24,1.52-12.51,2.95-18.72,4.59"/><path class="cls-3" d="M144.27,68.47a119.05,119.05,0,0,1,18.08,1.38l9,1.34,2.24.33a5,5,0,0,1,1.19.29,2.15,2.15,0,0,1,1,.87,11.2,11.2,0,0,1,.83,2.19l.71,2.17a153.44,153.44,0,0,1,6,35.78c.33,6.05.4,12.12.23,18.17,0,3-.27,6.08-.55,9.08-.13,1.5-.25,3-.32,4.5l0,1.13v.21l0,.14a1,1,0,0,1-.19.4,2.92,2.92,0,0,1-.43.48,19,19,0,0,1-1.81,1.46c-1.23.89-2.51,1.71-3.79,2.51s-2.59,1.6-3.95,2.3a24.51,24.51,0,0,1-4.25,1.71c-1.46.43-2.94.75-4.41,1.1l-17.68,4.08,17.56-4.55c1.47-.38,2.94-.72,4.37-1.17a23.63,23.63,0,0,0,4.12-1.73c1.32-.71,2.59-1.51,3.86-2.33s2.52-1.65,3.72-2.54a18.17,18.17,0,0,0,1.7-1.41,2.55,2.55,0,0,0,.32-.37c0-.06.08-.12.06-.1h0v-.21l0-1.14c.05-1.52.17-3,.29-4.54.27-3,.49-6,.5-9q.21-9-.32-18.09a156.11,156.11,0,0,0-5.78-35.62l-.66-2.16a12.56,12.56,0,0,0-.73-2,2.05,2.05,0,0,0-1.69-.87l-2.24-.37-8.94-1.48A126.53,126.53,0,0,0,144.27,68.47Z"/><path class="cls-1" d="M171.69,83c-4.69,15.93-5.32,32.1-8,48.14-1.26,6.7-2.85,13.43-3.42,20.23-.17,1.92-.23,3.85-.22,5.78a72.07,72.07,0,0,0,1.64,14.71c.11.53.32.92,0,1.32s-1.27.62-1.65.81l-3.39,1.6q-3.28,1.53-6.64,2.93c-4.16,1.74-8.51,2.61-12.86,3.67a61.68,61.68,0,0,1-6.63-7.55q-5.15,3.56-10.16,7.31c-.69.52-1.5,1.47-2.3,1.28a13.28,13.28,0,0,1-2.2-1.33c-1.52-.82-3.11-1.51-4.66-2.28q-4-2-8.12-3.81c-2.51-1.1-5-2.24-7.62-3.17-1.06-.37-1.22-.52-1-1.63.19-.74.54-1.43.73-2.16.58-2.27,1.15-4.54,1.73-6.81.29-1.1.57-2.2.85-3.29a15,15,0,0,0,.79-3.1,30.21,30.21,0,0,0,.67-3.11,28.9,28.9,0,0,0,.16-4.06s0-.55,0-1.05c0-2.69-2.66-52.36-4.7-65.9-.86-5.64,11.34-7.28,19.34-9.38,7.69-2,17.38-4.62,36.51-3.19,10.53.79,17.41,5,20,10A9,9,0,0,1,171.69,83Z"/><path class="cls-1" d="M115.08,70.13c-10.67,3.9-18.73,6.93-22,8.26l-5.1,2.06L83.8,82.13,79.18,84c-1,.4-3.28.85-3.76,2a4.4,4.4,0,0,0-.11,1.3l-.09,3a122.51,122.51,0,0,1,.28,13.78,171.37,171.37,0,0,0,.71,22c1.28,11,4.65,21.52,7.48,32.11.09.32,8.19-.85,8.94-1q5.25-.74,10.43-1.92a29.84,29.84,0,0,0,3.51-1,39.17,39.17,0,0,0,4.07-1.83c8.1-3.95,16.53-6.8,25-9.72v-2l-.3-3.28-1.15-3.83-1.4-3a6.93,6.93,0,0,0-2.29-2.46c-.37-.13-.77.09-3,.67l-4.3,1.49-10.42,3c-3,.87-6.15,1.6-9.23,2.36a3.62,3.62,0,0,1-1.53.15c-1.93-.37-1.68-2.54-1.92-4.27a60,60,0,0,1-.43-14.3"/><path class="cls-4" d="M161.58,141.36l2.43-3.68h0l0,.14.25-9.64.25,9.64a.23.23,0,0,1,0,.14h0Z"/><path class="cls-1" d="M97.48,104.45c1,11.66,1.91,23.23,2,34.94v1.05a28.9,28.9,0,0,1-.16,4.06,30.21,30.21,0,0,1-.67,3.11,14.77,14.77,0,0,1-.79,3.09c-.28,1.1-.56,2.2-.85,3.3-.58,2.27-1.15,4.54-1.73,6.81-.19.73-.54,1.42-.73,2.16-.27,1.11-.11,1.26,1,1.63,2.58.93,5.11,2.07,7.62,3.17q4.11,1.81,8.12,3.81c1.55.77,3.14,1.46,4.66,2.27a12.7,12.7,0,0,0,2.2,1.34c.8.19,1.61-.76,2.3-1.28q4.72-3.54,9.57-6.9"/><path class="cls-2" d="M97.48,104.45c.4,3.59.74,7.18,1.08,10.78s.6,7.19.84,10.8.41,7.21.48,10.83c0,1.81.07,3.6.05,5.43a14.14,14.14,0,0,1-.25,2.75l-.57,2.69v-.12a20.37,20.37,0,0,1-.89,3.6l-.88,3.5-.9,3.49L96,159.94a16,16,0,0,1-.51,1.78,12.05,12.05,0,0,0-.54,1.64.81.81,0,0,0,0,.47,1.93,1.93,0,0,0,.6.29c1.13.41,2.26.86,3.37,1.33,2.22,1,4.41,1.92,6.59,3l6.5,3.15,3.23,1.62.8.4a8.12,8.12,0,0,1,.78.52,4.52,4.52,0,0,0,1.44.84c.43.06.93-.33,1.37-.7s1-.74,1.46-1.08l3-2.06L130,167l-5.76,4.33-2.88,2.16a15.26,15.26,0,0,0-1.4,1.12,5.47,5.47,0,0,1-.75.57,1.54,1.54,0,0,1-1,.27,4.43,4.43,0,0,1-1.7-.89,6.71,6.71,0,0,0-.73-.46l-.81-.39-3.25-1.54-6.54-3c-2.17-1-4.38-2-6.58-2.9-1.11-.46-2.22-.89-3.35-1.29a2.54,2.54,0,0,1-1-.55,1.13,1.13,0,0,1-.26-.71,2.26,2.26,0,0,1,.06-.55,10.93,10.93,0,0,1,.56-1.78c.2-.53.31-1.1.47-1.69L95.5,158l.88-3.5.91-3.49a20.48,20.48,0,0,0,.88-3.36s0-.07,0-.1h0a24.07,24.07,0,0,0,.84-5.23c0-1.78,0-3.6,0-5.4-.06-3.6-.15-7.2-.3-10.81s-.37-7.2-.57-10.8Z"/><path class="cls-1" d="M127.22,132.47c-.62,2-1.23,4-1.91,6a24.09,24.09,0,0,0-.94,9.18,47.08,47.08,0,0,0,.82,6.9,31.23,31.23,0,0,0,3.82,9.7,53.33,53.33,0,0,0,8.18,9.89c4.35-1.06,8.7-1.93,12.86-3.67,2.24-.93,4.45-1.92,6.64-2.93l3.39-1.6c.38-.19,1.41-.47,1.65-.81s.08-.79,0-1.32a72.07,72.07,0,0,1-1.64-14.71c0-1.93.05-3.86.22-5.78.57-6.8,2.16-13.53,3.42-20.23L167.18,97"/><path class="cls-2" d="M127.22,132.47l-1.65,5.5a20.08,20.08,0,0,0-1,5.58,41.71,41.71,0,0,0,.18,5.7,40.67,40.67,0,0,0,.85,5.63,30.78,30.78,0,0,0,4.51,10.35,60.1,60.1,0,0,0,7.43,8.61l-.42-.11a100.48,100.48,0,0,0,11.41-3.14c.92-.33,1.81-.73,2.72-1.14l2.7-1.2,2.71-1.21,2.68-1.28a10.66,10.66,0,0,1,1.4-.59,4.41,4.41,0,0,0,.57-.27c.1-.07.1-.1.12-.22a3.57,3.57,0,0,0-.14-.6l-.16-.75-.28-1.47c-.37-2-.65-3.94-.84-5.92s-.32-4-.35-6,.13-4,.19-6a91.64,91.64,0,0,1,1.71-11.8l1.2-5.83.59-2.9c.18-1,.29-2,.44-2.94,1.1-7.84,2.26-15.68,3.43-23.52-.92,7.88-1.85,15.75-2.85,23.62-.13,1-.22,2-.39,2.95l-.55,2.92-1.1,5.84a101.22,101.22,0,0,0-1.6,11.72c-.05,2-.18,3.93-.16,5.9s.17,3.94.37,5.89.5,3.91.86,5.84l.62,3a1.26,1.26,0,0,1-.55,1,4.2,4.2,0,0,1-.77.38,11.28,11.28,0,0,0-1.33.56l-2.7,1.27-2.72,1.2-2.73,1.2c-.91.4-1.82.8-2.77,1.14a100.59,100.59,0,0,1-11.52,3.1.43.43,0,0,1-.41-.11,56.06,56.06,0,0,1-7.44-8.81A31.62,31.62,0,0,1,125,155a38.14,38.14,0,0,1-.76-5.72,42.57,42.57,0,0,1,0-5.76,20.74,20.74,0,0,1,1.21-5.62Z"/><path class="cls-2" d="M123.77,130.83l-1.56-4.18L120,119.12c-.77-3.22-3.28-13.41-4.08-16.63.35,1.42,1.76,2.47,2.77,3.43,1.21,1.15,2.41,2.33,3.58,3.53q2,2.05,4,4.18c.67.74,1.33,1.48,2,2.23.44.5.88,1.6,1.72,1.2a2.1,2.1,0,0,0,.81-.86q2.22-3.4,4.7-6.65a31.49,31.49,0,0,1,5.09-5.72l-2.49,13.6-3.89,11.84"/><g id="L_arm"><path class="cls-1" d="M115.08,70.13c-5.77,2.09-15.66,5.69-22,8.26-4.5,1.81-5.75,2.32-9.23,3.74L79.18,84c-1,.4-3.28.85-3.76,2a2.08,2.08,0,0,0-.1.86l.21,8.77c.07,2.84,0,5.64,0,8.47a171.37,171.37,0,0,0,.71,22c1.28,11,4.65,21.52,7.48,32.11.09.32,8.19-.85,8.94-1q5.25-.74,10.43-1.92a29.84,29.84,0,0,0,3.51-1,39.17,39.17,0,0,0,4.07-1.83c8.1-3.95,16.53-6.8,25-9.72.58-.2,0-2.34,0-2.74a23,23,0,0,0-3-9.29,20.19,20.19,0,0,0-2.28-2.78l-2.85.89-4.3,1.49-10.42,3-7.21,1.8-6.44,1.8-4.65,1.7-3.74,2.9L89.05,144"/><path class="cls-2" d="M115.08,70.13l-21.8,8.38L82.49,83l-2.7,1.11c-.9.41-1.88.63-2.73,1a3.73,3.73,0,0,0-1.13.7,1.33,1.33,0,0,0-.29,1.14l.08,2.92.16,5.83v5.85c0,3.9,0,7.78,0,11.67s.22,7.76.62,11.61a105.93,105.93,0,0,0,1.91,11.47c.83,3.78,1.81,7.54,2.85,11.29l1.56,5.62.78,2.82L84,157.4l.1.35.05.18,0,.09c0,.06-.09-.28-.24-.29l-.05,0h.58c1.9-.14,3.84-.41,5.76-.66s3.85-.52,5.76-.84,3.82-.69,5.72-1.1a32.73,32.73,0,0,0,5.53-1.54c1.76-.73,3.49-1.66,5.27-2.46s3.57-1.6,5.38-2.33c3.61-1.48,7.27-2.82,11-4.1l5.53-1.9.69-.23c.2-.06.57-.22.41-.12a3,3,0,0,0,0-1.2l-.46-2.87c-.64-3.79-2-7.49-4.86-10.18l.34.09c-2.6.75-5.14,1.7-7.73,2.51l-7.83,2.2c-2.6.77-5.25,1.32-7.88,2s-5.23,1.39-7.85,2.08h0l-4.67,1.66h0l-3.77,2.87h0L89.05,144l1.69-2.48h0l3.72-2.93h0l4.63-1.74h0c2.61-.74,5.2-1.55,7.82-2.22s5.26-1.29,7.84-2.11l7.79-2.28c2.58-.83,5.1-1.8,7.71-2.58a.33.33,0,0,1,.33.09,26.09,26.09,0,0,1,1.93,2.24,14.77,14.77,0,0,1,1.49,2.58,24.7,24.7,0,0,1,1.71,5.67l.49,2.89a6.27,6.27,0,0,1,.08.77,1.87,1.87,0,0,1-.14.91.7.7,0,0,1-.28.29.68.68,0,0,1-.24.1l-.34.12-.69.24-5.51,1.93c-3.66,1.3-7.31,2.64-10.9,4.12q-2.68,1.09-5.33,2.33c-1.76.8-3.46,1.73-5.3,2.5a33.44,33.44,0,0,1-5.68,1.6q-2.87.63-5.75,1.13c-1.93.33-3.86.6-5.79.86s-3.86.54-5.84.69h-.38a1.8,1.8,0,0,1-.49,0,.38.38,0,0,1-.14,0c-.17,0-.33-.39-.3-.36l0-.08,0-.18-.1-.35-.38-1.41-.77-2.81-1.54-5.63c-1-3.76-2-7.54-2.83-11.36a104.65,104.65,0,0,1-1.88-11.56c-.4-3.9-.55-7.8-.6-11.7-.08-7.81.31-15.56,0-23.35l0-2.92a3.22,3.22,0,0,1,0-.8,1.63,1.63,0,0,1,.43-.77,4.08,4.08,0,0,1,1.34-.83c.94-.4,1.88-.59,2.75-1l2.71-1.09,10.86-4.31Z"/></g><path class="cls-1" d="M120.19,70.07a17.18,17.18,0,0,1-2.49,2.16,93.13,93.13,0,0,0-13.83,14c-.57.72-1.14,1.45-1.69,2.19a.55.55,0,0,0-.13.25.63.63,0,0,0,.12.31l4.09,6.23c2.23-1.31,4.78-1.49,7-2.81"/><path class="cls-2" d="M120.19,70.07a2.83,2.83,0,0,1-.68.79c-.26.25-.53.48-.79.71-.54.47-1.07.92-1.59,1.39-1,1-2.09,1.89-3.1,2.87q-3,2.94-5.85,6.06c-1.87,2.09-3.67,4.25-5.38,6.47l-.29.37s0-.11,0-.13,0,0,.07.12l.57.9,1.13,1.78,2.23,3.6-.42-.1a14.78,14.78,0,0,1,3.61-1.31,17.85,17.85,0,0,0,3.56-1.23A15,15,0,0,1,109.82,94a17.6,17.6,0,0,0-3.4,1.49.31.31,0,0,1-.42-.08v0l-2.41-3.47-1.18-1.76-.59-.87a1.28,1.28,0,0,1-.19-.35.8.8,0,0,1,.06-.63c.16-.25.23-.31.35-.48a80.91,80.91,0,0,1,5.44-6.54,77.36,77.36,0,0,1,6.11-5.9c1.08-.92,2.16-1.84,3.29-2.69A32.65,32.65,0,0,0,120.19,70.07Z"/><path class="cls-1" d="M135.05,70a16.73,16.73,0,0,0,2.5,2.17,92.66,92.66,0,0,1,13.83,14c.57.72,1.14,1.45,1.69,2.19a.39.39,0,0,1,.12.25.48.48,0,0,1-.11.3L149,95.11l-6.7-4"/><path class="cls-2" d="M135.05,70a34.36,34.36,0,0,0,3.33,2.59c1.13.85,2.21,1.77,3.28,2.69a74.07,74.07,0,0,1,6.12,5.9,78.76,78.76,0,0,1,5.43,6.54,4.35,4.35,0,0,1,.35.48.8.8,0,0,1,.07.63,1.76,1.76,0,0,1-.19.34l-.59.88-1.18,1.75-2.42,3.48h0a.32.32,0,0,1-.42.09c-1.1-.69-2.2-1.37-3.28-2.08s-2.18-1.41-3.26-2.14c1.16.59,2.3,1.2,3.45,1.81s2.28,1.24,3.41,1.87l-.42.09L151,91.34l1.13-1.79.57-.89.07-.12s0,.15,0,.12l-.28-.36c-1.71-2.23-3.51-4.38-5.38-6.47s-3.83-4.1-5.85-6.06c-1-1-2.06-1.91-3.1-2.87-.52-.48-1.05-.93-1.59-1.39-.27-.23-.53-.46-.79-.71A3.11,3.11,0,0,1,135.05,70Z"/><path class="cls-1" d="M142.4,87.36A26.36,26.36,0,0,0,146,92.91a3.89,3.89,0,0,0,1.15.87,5.12,5.12,0,0,0,2,.33c2.81.1,5.62.24,8.42.21,1.94,0,1.16,2.56,1,3.83a44.07,44.07,0,0,1-1.33,6.44c-2.43,8.46-7.61,15.78-13.13,22.51-1,1.15-1.91,2.3-3,3.36"/><path class="cls-2" d="M142.4,87.36c.64,1.08,1.22,2.2,1.89,3.27a10.19,10.19,0,0,0,2.44,2.82c1,.71,2.39.49,3.62.57l3.78.08H158a1.32,1.32,0,0,1,.93.65,2.35,2.35,0,0,1,.24,1,10.14,10.14,0,0,1-.18,1.94c-.14,1.22-.3,2.51-.53,3.75s-.55,2.49-.92,3.7a42.9,42.9,0,0,1-2.79,7.1,62.17,62.17,0,0,1-3.88,6.54c-1.41,2.11-3,4.09-4.59,6-.8,1-1.63,1.92-2.47,2.86a35.58,35.58,0,0,1-2.63,2.72c1.66-1.89,3.13-3.93,4.66-5.94s2.93-4.08,4.3-6.17a54.7,54.7,0,0,0,6.54-13.42,52.34,52.34,0,0,0,1.65-7.31,10.67,10.67,0,0,0,.26-1.81c0-.59-.16-1.12-.69-1.21a4.15,4.15,0,0,0-.89,0h-1l-1.89-.07-3.78-.18-1.89-.1a3.35,3.35,0,0,1-1.81-.6C144.64,91.93,143.64,89.53,142.4,87.36Z"/><path class="cls-1" d="M115.31,86.89c-1.1,1.9-2,4-3.58,5.56a4.11,4.11,0,0,1-1.16.87,5.06,5.06,0,0,1-2,.33c-2.8.1-5.62.24-8.42.21-1.94,0-1.16,2.56-1,3.83a43.08,43.08,0,0,0,1.34,6.44c2.43,8.46,7.6,15.77,13.12,22.51,1,1.15,3,3.26,4,4.32"/><path class="cls-2" d="M115.31,86.89c-1.27,2.22-2.28,4.7-4.38,6.34a3.72,3.72,0,0,1-1.89.51l-1.94.1-3.86.18-1.94.06c-.62,0-1.37-.09-1.75.19s-.41.94-.35,1.53.22,1.23.32,1.89a48.38,48.38,0,0,0,1.78,7.45,56.75,56.75,0,0,0,6.9,13.63c1.41,2.14,2.91,4.23,4.47,6.28a71.48,71.48,0,0,0,5,5.91,77.5,77.5,0,0,1-10.13-11.71,49.76,49.76,0,0,1-7.07-13.84,37.51,37.51,0,0,1-1.59-7.63c-.07-.61-.21-1.26-.24-1.93a4.1,4.1,0,0,1,.05-1,1.49,1.49,0,0,1,.61-1,1.81,1.81,0,0,1,1.08-.21l1,0h1.93l3.86-.07,1.93,0a3.71,3.71,0,0,0,1.81-.45,9.1,9.1,0,0,0,2.54-2.83C114.07,89.15,114.65,88,115.31,86.89Z"/><path class="cls-5" d="M134.81,126.7c.61-2,1.26-3.92,1.82-5.9s1.16-3.94,1.65-5.93a89.92,89.92,0,0,0,2.22-12.05c.24-2,.5-4.09.69-6.12l.22-3q.06-.75.06-1.53l0-1.55a49.33,49.33,0,0,0-1.35-12.17,60.67,60.67,0,0,1,1.64,6,36.81,36.81,0,0,1,.62,6.2,59,59,0,0,1-.11,6.22c-.16,2.06-.4,4.09-.63,6.15s-.56,4.1-1,6.14-.93,4-1.54,6-1.26,3.94-2,5.88S135.67,124.82,134.81,126.7Z"/><path class="cls-5" d="M123.28,128.64c-.92-1.9-1.74-3.84-2.55-5.79s-1.49-3.95-2.14-6-1.22-4-1.71-6.12-.81-4.16-1.12-6.25-.57-4.17-.78-6.28a61.79,61.79,0,0,1-.24-6.35,37.42,37.42,0,0,1,.5-6.35,62.65,62.65,0,0,1,1.55-6.14,50.47,50.47,0,0,0-1.12,12.46l.07,1.58c0,.53,0,1,.1,1.57l.28,3.09c.24,2.08.55,4.18.84,6.25a91.43,91.43,0,0,0,2.52,12.27c.54,2,1.16,4,1.81,6S122.61,126.64,123.28,128.64Z"/><g id="hand"><path class="cls-1" d="M138.85,138.88h3.27l1.79-.94c3.9-1.17,7.69-2.52,11.47-4.06l3.35-1.37a2.64,2.64,0,0,0,.69-.35,3.07,3.07,0,0,0,.54-.54l3.92-4.62a5.78,5.78,0,0,0,.62-.85,7.29,7.29,0,0,0,.47-1.92,8.06,8.06,0,0,1,1.53-3.07c.78-1.09,1.55-2.19,2.39-3.23a1.85,1.85,0,0,0,.23-.34,1.91,1.91,0,0,0,.12-.47c.06-.33.14-.66.23-1a3.48,3.48,0,0,1,.31-1,4.06,4.06,0,0,1,.76-.67c.27-.23.53-.47.79-.71a4.7,4.7,0,0,0,1.32-1.42.58.58,0,0,0,.06-.29,1,1,0,0,0-.2-.38,1,1,0,0,0-.24-.32.56.56,0,0,0-.29-.06,1.7,1.7,0,0,0-.67.13c-.22.08-.39.25-.61.33s-.29-.05-.45-.11l-.53-.22a1.08,1.08,0,0,0-.28-.11,15.54,15.54,0,0,0-2.88.36,11.23,11.23,0,0,0-2.07.53,24.42,24.42,0,0,0-2.45,1.35c-.82.45-1.7.8-2.51,1.28-1.6.93-3.53,1.44-5.2,2.24a18.56,18.56,0,0,1-5.74,1.68c-1.86.25-3.29,1.38-5.07,1.93L139.18,122l-1.1.43"/><path class="cls-1" d="M138.85,138.88h3.27l1.79-.94c3.9-1.17,7.69-2.52,11.47-4.06l3.35-1.37a2.64,2.64,0,0,0,.69-.35,3.07,3.07,0,0,0,.54-.54l3.92-4.62a5.78,5.78,0,0,0,.62-.85,37.92,37.92,0,0,0,1-4.27"/><path class="cls-2" d="M138.85,138.88l3.27-.1h-.05l1.77-1h0q3.44-1.11,6.81-2.35c2.25-.84,4.47-1.74,6.7-2.63.55-.23,1.14-.44,1.65-.67s.81-.75,1.23-1.18l2.38-2.71,1.2-1.35a4.5,4.5,0,0,0,.55-.69,3.3,3.3,0,0,0,.31-.83c.32-1.16.57-2.33.83-3.51-.23,1.18-.44,2.37-.73,3.54a4,4,0,0,1-.29.86,5.05,5.05,0,0,1-.53.75l-1.13,1.41-2.28,2.79-.58.69a2.31,2.31,0,0,1-.76.62c-.58.26-1.12.46-1.68.7-2.21.93-4.44,1.85-6.71,2.64s-4.56,1.55-6.88,2.2h0l-1.81.9h0Z"/><path class="cls-5" d="M152.12,123.81c-.43.21-.86.39-1.3.57s-.88.3-1.3.49c-.8.44-1.61.88-2.41,1.36a23.57,23.57,0,0,1-2.48,1.34,20.54,20.54,0,0,1-2.69.87c.42-.22.84-.41,1.26-.62s.86-.36,1.26-.59c.8-.45,1.59-.94,2.39-1.43a25,25,0,0,1,2.53-1.29C150.3,124.22,151.21,124.05,152.12,123.81Z"/><path class="cls-5" d="M155,126.4c-1,.57-2,1.08-3,1.57s-2,1-3.06,1.41a35.48,35.48,0,0,1-6.4,2.17c2.08-.86,4.14-1.73,6.2-2.63S152.89,127.17,155,126.4Z"/><path class="cls-5" d="M154.82,131.27c-1.85.71-3.74,1.28-5.62,1.87s-3.77,1.13-5.69,1.63a37.83,37.83,0,0,1,5.54-2.11A47.51,47.51,0,0,1,154.82,131.27Z"/><path class="cls-1" d="M144.4,121.21c.73-.35,1.39-.85,2.11-1.22a18.49,18.49,0,0,1,3.58-1.37c.83-.23,1.67-.41,2.5-.7a5.16,5.16,0,0,0,1.62-.82l.23-.21a1.56,1.56,0,0,0-.05-2.11.7.7,0,0,0-.49-.26c-1.12,0-2,.7-3.15.73-1.63,0-3.25-.24-4.78.3a7,7,0,0,0-1.62,1,23.7,23.7,0,0,1-4.3,2.37,3.19,3.19,0,0,0-.64.32,3.27,3.27,0,0,0-.6.63c-1.47,1.87-2.94,3.74-4.24,5.73a2.07,2.07,0,0,1-1.29,1c-.54.08-1.09.14-1.63.23h-.77l2.22,2.47,1.66,1.88.38,1.82.85,3.45.68,3,.21,1.43,1.2-1.58.77-.42"/><path class="cls-2" d="M144.4,121.21c.76-.39,1.42-.94,2.18-1.34a20.41,20.41,0,0,1,2.35-1c1.6-.62,3.35-.83,4.77-1.65a1.93,1.93,0,0,0,.78-.8,1.3,1.3,0,0,0,0-1,1.33,1.33,0,0,0-.3-.43.39.39,0,0,0-.39-.12,3.82,3.82,0,0,0-1.16.27,10.18,10.18,0,0,1-1.25.41,5.63,5.63,0,0,1-1.34.09c-.86,0-1.7-.06-2.52,0a4.54,4.54,0,0,0-2.25.72c-.67.45-1.39,1-2.13,1.41a22.77,22.77,0,0,1-2.29,1.21c-.38.19-.83.35-1.12.52a3.51,3.51,0,0,0-.78.83c-1.06,1.33-2.11,2.66-3.09,4l-.73,1a7.18,7.18,0,0,1-.81,1.07,1.78,1.78,0,0,1-.64.42,3.66,3.66,0,0,1-.69.14l-1.26.18h-.83l.24-.54c1.3,1.44,2.56,2.92,3.83,4.38h0a.37.37,0,0,1,0,.11c.25,1.39.57,2.77.89,4.15s.59,2.77.88,4.15h0l.18,1.44-.14,0,1.23-1.54h0l.79-.4-.76.45h0L137,140.93a.08.08,0,0,1-.11,0,.1.1,0,0,1,0-.05l-.24-1.43h0l-1.05-4.11c-.36-1.37-.71-2.74-1-4.13l.06.12-3.92-4.3a.32.32,0,0,1,0-.45.33.33,0,0,1,.22-.09h.71l1.27-.19a1.31,1.31,0,0,0,1-.39,5.54,5.54,0,0,0,.71-1l.73-1.06c1-1.4,2-2.75,3.08-4.09a3.64,3.64,0,0,1,1-1c.45-.25.82-.36,1.2-.55a23.73,23.73,0,0,0,2.24-1.16c.73-.42,1.39-.89,2.13-1.38a5.24,5.24,0,0,1,2.56-.8c.88-.07,1.74,0,2.58,0a5.94,5.94,0,0,0,1.21-.05,8.72,8.72,0,0,0,1.18-.36,4.76,4.76,0,0,1,1.33-.27,1.06,1.06,0,0,1,.41,0,.93.93,0,0,1,.36.23,2,2,0,0,1,.42.62,1.87,1.87,0,0,1,0,1.43,2.42,2.42,0,0,1-1,1c-1.59.86-3.32,1-4.92,1.51a18.3,18.3,0,0,0-2.36.92C145.88,120.36,145.18,120.86,144.4,121.21Z"/><path class="cls-1" d="M144.36,121.23a17.41,17.41,0,0,1,2.92-1.63c1.16-.37,2.34-.63,3.49-1a51,51,0,0,0,8-3.81c1.62-.91,3.15-2,4.82-2.79a14.83,14.83,0,0,1,5.56-1.38,1.3,1.3,0,0,1,.78.1c.57.33.63,1,0,1.26-3.76,1.3-6.33,3.93-9.29,6.42-1.05.88-1.92,1.5-3,2.35"/><path class="cls-2" d="M144.36,121.23c.81-.48,1.53-1.07,2.39-1.48a26.11,26.11,0,0,1,2.67-.89,32,32,0,0,0,5.16-2.09q2.5-1.24,4.91-2.67a41.33,41.33,0,0,1,4.92-2.75,12.65,12.65,0,0,1,2.76-.74c.46-.08.93-.14,1.4-.19l.7-.07a1.46,1.46,0,0,1,.82.14,1.12,1.12,0,0,1,.53.67.78.78,0,0,1-.29.86,3.86,3.86,0,0,1-.7.3,5.73,5.73,0,0,0-.64.26,18.46,18.46,0,0,0-2.44,1.3,42.21,42.21,0,0,0-4.41,3.41c-1.42,1.22-2.94,2.33-4.44,3.43,3-2.24,5.51-5,8.64-7.17a15.34,15.34,0,0,1,2.48-1.37c.22-.1.43-.19.66-.27a3.82,3.82,0,0,0,.58-.25c.26-.17.14-.6-.2-.78s-.79,0-1.24,0-.92.11-1.37.19a13.33,13.33,0,0,0-2.65.73,40.15,40.15,0,0,0-4.88,2.68c-1.62.94-3.27,1.84-5,2.63a31.81,31.81,0,0,1-5.27,2,25.86,25.86,0,0,0-2.68.77C145.94,120.22,145.19,120.79,144.36,121.23Z"/><path class="cls-1" d="M159.28,124.14c1.94-1.78,4.21-3.42,6.16-5.18,1.17-1,2.49-2,3.58-3.12.24-.24.62-.81,1-.53s.19,1.45.06,1.87a6.41,6.41,0,0,1-1.51,2.27l-2.67,3c-.83.92-1.64,1.89-2.54,2.75a25.13,25.13,0,0,1-2.78,2.15"/><path class="cls-2" d="M159.28,124.14c1.79-1.76,3.78-3.3,5.63-5,.9-.87,1.91-1.65,2.84-2.46a13.42,13.42,0,0,0,1.32-1.29,1.75,1.75,0,0,1,.43-.36.66.66,0,0,1,.69,0,1.22,1.22,0,0,1,.35,1.08,4.21,4.21,0,0,1-.57,1.89,9.43,9.43,0,0,1-1.19,1.51c-.85.92-1.68,1.86-2.54,2.76s-1.68,1.87-2.59,2.73a23.48,23.48,0,0,1-3,2.23,23.7,23.7,0,0,0,2.87-2.4c.86-.89,1.64-1.87,2.47-2.81s1.66-1.88,2.49-2.82a9.46,9.46,0,0,0,1.12-1.44,3.76,3.76,0,0,0,.49-1.67c.11-1.69-1.11.28-2,.89-1,.82-1.94,1.58-2.89,2.4C163.25,121.09,161.19,122.52,159.28,124.14Z"/><path class="cls-1" d="M157.7,120.72c2.93-2.16,3.15-2.9,6-5.2.39-.32,3.29-2.09,3.72-2.34a31.61,31.61,0,0,1,3.51-1.83,2.27,2.27,0,0,1,1.93-.13,1.68,1.68,0,0,1,.41.82c0,.22-.21.59-.56.94a11.15,11.15,0,0,1-2.18,1.75c-.92.58-4,3.38-4.83,4-3,2.33-3.42,3-6.39,5.37"/><path class="cls-2" d="M157.7,120.72c2.56-1.85,4.38-4.52,7.14-6.2,1.32-.86,2.66-1.69,4-2.45.71-.37,1.4-.72,2.15-1a2.84,2.84,0,0,1,1.27-.21,1.63,1.63,0,0,1,.67.21,1.89,1.89,0,0,1,.5.94.82.82,0,0,1-.06.43,2.54,2.54,0,0,1-.38.55c-.29.31-.57.57-.87.84a18.71,18.71,0,0,1-1.92,1.4c-1.23,1-2.4,2-3.61,3s-2.5,1.91-3.69,3-2.42,2-3.67,3c1.21-1,2.36-2.09,3.51-3.16s2.44-2,3.6-3.06,2.33-2.1,3.58-3.09a16.4,16.4,0,0,0,1.88-1.4c.28-.25.59-.54.83-.8a2.1,2.1,0,0,0,.28-.43.22.22,0,0,0,0-.14,1.53,1.53,0,0,0-.07-.24,1.45,1.45,0,0,0-.22-.38,1.09,1.09,0,0,0-.44-.13,2.3,2.3,0,0,0-1,.17c-.7.29-1.42.63-2.1,1-1.39.73-2.72,1.57-4.07,2.37a19.7,19.7,0,0,0-3.68,2.89A30.81,30.81,0,0,1,157.7,120.72Z"/></g><path class="cls-4" d="M125.51,82.74l-1,.28a2.31,2.31,0,0,0-.45.88,7.86,7.86,0,0,0,.55,3.06A13.14,13.14,0,0,0,126.46,90a.88.88,0,0,0,.22.21,3.19,3.19,0,0,0,1.54.09c.44,0,.85.14,1.18-.22a11.73,11.73,0,0,0,2.54-5.66.65.65,0,0,0,0-.31.72.72,0,0,0-.16-.28l-.64-.8"/><path class="cls-2" d="M126.82,89.81l-.53,2.79-.4,3.42-.45,3.28-.34,2.56-.33,3-.19,1.87c-.07.62-.16,1.24-.26,1.86l-.44,2.59-1,5,5.5,5.17,5-3.13,1.88-1.69L134,110.06l-1.55-6.54-1.28-5.11-1.13-4.92-.51-2.68-.19-1Z"/><path class="cls-1" d="M110.82,57.79c-1.13,2.09-.49,5.1,0,7.38a26,26,0,0,0,5.43,10.58,40.91,40.91,0,0,0,9.22,8.67,5.08,5.08,0,0,0,2.63,1,4.59,4.59,0,0,0,2.16-.66,28.27,28.27,0,0,0,6.53-5.47,40.06,40.06,0,0,0,5.56-7l.44-.73a23.79,23.79,0,0,0,1.91-3.36c.27-.7,2.26-9.92-1.94-10.95"/><path class="cls-2" d="M110.82,57.79a7.67,7.67,0,0,0-.4,4.37,31.6,31.6,0,0,0,1,4.33,25.67,25.67,0,0,0,4.17,7.76,50.19,50.19,0,0,0,6,6.54A33.93,33.93,0,0,0,125,83.54c1.21.83,2.45,1.67,3.71,1.31a7,7,0,0,0,1.89-.85,16.79,16.79,0,0,0,1.79-1.24,35.19,35.19,0,0,0,3.26-3A45.1,45.1,0,0,0,141.43,73c.42-.6.8-1.23,1.2-1.87s.83-1.25,1.2-1.88a7.3,7.3,0,0,0,.5-1,5.07,5.07,0,0,0,.31-1c.16-.71.28-1.44.38-2.18a15.9,15.9,0,0,0,.09-4.41,5.7,5.7,0,0,0-.67-2.09,2.77,2.77,0,0,0-1.68-1.35,2.9,2.9,0,0,1,1.81,1.27,6,6,0,0,1,.8,2.12,16.3,16.3,0,0,1,.14,4.52c-.07.75-.18,1.5-.32,2.24a5.71,5.71,0,0,1-.31,1.14,9.78,9.78,0,0,1-.5,1c-.37.67-.78,1.3-1.15,1.94s-.75,1.3-1.16,1.93a40.88,40.88,0,0,1-5.74,7,37.66,37.66,0,0,1-3.32,3.1,16.74,16.74,0,0,1-1.88,1.33,7.83,7.83,0,0,1-2.17,1,3.86,3.86,0,0,1-2.49-.29,12.58,12.58,0,0,1-2-1.22A35.75,35.75,0,0,1,121,81.47a46.36,46.36,0,0,1-6-6.76,26.36,26.36,0,0,1-4-8.08,33.57,33.57,0,0,1-.79-4.44A7.55,7.55,0,0,1,110.82,57.79Z"/><g id="glass"><line class="cls-6" x1="144.83" y1="67.63" x2="144.66" y2="81.04"/><polyline class="cls-4" points="142.62 66.88 144.93 67.49 144.93 69.08 142.75 69.88"/><path class="cls-4" d="M143.31,79.69H146a0,0,0,0,1,0,0V82a0,0,0,0,1,0,0h-2.73a1.17,1.17,0,0,1-1.17-1.17v0a1.17,1.17,0,0,1,1.17-1.17Z" transform="translate(107 -80.15) rotate(47.72)"/><path class="cls-4" d="M144.43,79.75h2.69a0,0,0,0,1,0,0V82.1a0,0,0,0,1,0,0h-2.69a1.17,1.17,0,0,1-1.17-1.17v0a1.17,1.17,0,0,1,1.17-1.17Z" transform="translate(307.05 43.14) rotate(137.72)"/><path class="cls-4" d="M137.66,64a6,6,0,0,1,3.54,1.13,4.34,4.34,0,0,1,1.86,3.29A4.51,4.51,0,0,1,141.43,72a6,6,0,0,1-3.77,1.34A5.87,5.87,0,0,1,133.89,72a4.52,4.52,0,0,1-1.64-3.58,4.37,4.37,0,0,1,1.87-3.29A6,6,0,0,1,137.66,64Zm0,0a5.43,5.43,0,0,0-3.46,1.24,4,4,0,0,0-1.44,3.18,3.83,3.83,0,0,0,1.67,2.9,5.62,5.62,0,0,0,6.46,0,3.83,3.83,0,0,0,1.67-2.9,4,4,0,0,0-1.45-3.18A5.38,5.38,0,0,0,137.66,64Z"/></g><g id="DN"><text class="cls-7" transform="translate(146.87 103.45)">D</text><text class="cls-7" transform="translate(147.08 103.45)">n</text></g><path class="cls-2" d="M140.14,75.5c-.21,3.69.18,7.92-2.18,11-.18-.42-.32-.88-.52-1.3a4.43,4.43,0,0,0-.77-1.25,2.92,2.92,0,0,0-1.58-.75,8,8,0,0,0-1.77,0"/><path class="cls-2" d="M140.14,75.5l.05,2.86c0,1,0,1.92-.11,2.88a14.21,14.21,0,0,1-.57,2.86,8.83,8.83,0,0,1-1.37,2.59h0a.23.23,0,0,1-.31,0,.28.28,0,0,1-.07-.09c-.2-.5-.38-1-.59-1.5a3,3,0,0,0-.85-1.24,4.78,4.78,0,0,0-3-.71,7.93,7.93,0,0,1,1.62-.07,3.14,3.14,0,0,1,1.57.53,3.47,3.47,0,0,1,1,1.32c.24.48.42,1,.63,1.48l-.38,0a11.21,11.21,0,0,0,1.86-5.23c.11-.93.2-1.88.25-2.83S140,76.45,140.14,75.5Z"/><path class="cls-2" d="M116.9,76.08c.21,3.7-.18,7.93,2.18,11.06.19-.42.32-.88.52-1.31a4.33,4.33,0,0,1,.78-1.24,2.94,2.94,0,0,1,1.57-.76,8.74,8.74,0,0,1,1.77,0"/><path class="cls-2" d="M116.9,76.08c.12,1,.18,1.91.24,2.86s.14,1.9.26,2.84A11,11,0,0,0,119.26,87l-.39,0c.21-.49.39-1,.63-1.48a3.4,3.4,0,0,1,1-1.32,3.1,3.1,0,0,1,1.56-.53,7.94,7.94,0,0,1,1.62.06,4.91,4.91,0,0,0-3,.71,3.06,3.06,0,0,0-.85,1.25c-.21.49-.39,1-.59,1.49a.21.21,0,0,1-.28.13l-.1-.07h0a8.62,8.62,0,0,1-1.36-2.6,14.71,14.71,0,0,1-.58-2.85,27.72,27.72,0,0,1-.1-2.88Z"/><path id="gojo" class="cls-8" d="M115,73.48c-2.22-2.5-3.31-5.78-4.27-9l17.48,4.79a28.86,28.86,0,0,0-7.88.36,10,10,0,0,0-3,1.07,5,5,0,0,0-2.23,2.38"/><path class="cls-1" d="M162.53,52.9c1.41,5.11-13.71,17-35.1,16.94S91,58,92.4,52.9c1.27-5.27,16.86-6,35.07-6.12C145.68,46.86,161.26,47.63,162.53,52.9Z"/><path class="cls-9" d="M162.53,52.9c1.41,5.11-13.71,17-35.1,16.94S91,58,92.4,52.9c1.27-5.27,16.86-6,35.07-6.12C145.68,46.86,161.26,47.63,162.53,52.9Z"/><path class="cls-10" d="M148.63,21c0-3.39-9.45-6.14-21.11-6.14s-21.1,2.75-21.1,6.14c0,.05,0,.1,0,.14h0V52.76h0c.25,3.34,9.56,6.29,21.06,6.29s20.85-2.95,21.1-6.29h0V21.1h0A.58.58,0,0,0,148.63,21Z"/><path class="cls-11" d="M148.63,21c0,3.4-9.47,6.43-21.13,6.43s-21.08-3-21.08-6.43,9.45-6.14,21.1-6.14S148.63,17.57,148.63,21Z"/><polygon class="cls-12" points="148.75 45.38 148.75 45.38 148.75 45.38 148.75 45.38"/><path class="cls-12" d="M148.75,45.38v6.75c0,4-9.55,7.51-21.31,7.51a46.14,46.14,0,0,1-15-2.27c-3.84-1.38-6.22-3.26-6.22-5.24V45.38c0,1.34,1.11,2.64,3,3.76,3.71,2.2,10.49,3.75,18.27,3.75s14.57-1.55,18.29-3.75C147.64,48,148.75,46.73,148.75,45.38Z"/><rect class="cls-2" x="148.63" y="44.79" width="1.43" height="6.33" rx="0.67"/></g></svg>