<svg id="Layer_1" data-name="Layer 1" xmlns="http://www.w3.org/2000/svg" viewBox="0 0 281.89 288"><defs><style>.cls-1,.cls-4,.cls-5,.cls-6,.cls-7{fill:#dce0df;}.cls-2,.cls-3{fill:none;}.cls-2,.cls-3,.cls-4,.cls-5,.cls-6,.cls-7{stroke:#dce0df;stroke-linecap:round;}.cls-2,.cls-3,.cls-4{stroke-miterlimit:10;}.cls-2{stroke-width:0.25px;}.cls-3,.cls-6{stroke-width:3px;}.cls-4,.cls-7{stroke-width:2px;}.cls-5,.cls-6,.cls-7{stroke-linejoin:round;}</style></defs><circle class="cls-1" cx="114.3" cy="71.3" r="20.23"/><path class="cls-1" d="M114.08,38.51c.09-.09-.13-.06.07-.45A313.18,313.18,0,0,0,92.21,14.87,1.79,1.79,0,0,0,90,14.75,316.05,316.05,0,0,0,57.29,42.87a1.26,1.26,0,0,0,.07,1.89A298.63,298.63,0,0,1,82.07,68.08,375.24,375.24,0,0,0,114.08,38.51Z"/><path class="cls-1" d="M128.13,37A441.06,441.06,0,0,1,77.18,83.5a1.39,1.39,0,0,1-1.91-.36c-.93-1.17-1.86-2.34-2.79-3.53a.66.66,0,0,1,0-1,432.37,432.37,0,0,0,52-46.24.69.69,0,0,1,1-.09c.92.91,1.85,1.81,2.78,2.7A1.38,1.38,0,0,1,128.13,37Z"/><path class="cls-2" d="M116,38.85a1.87,1.87,0,0,0,.18-1,1,1,0,0,0-.6-.76,1.17,1.17,0,0,0-.92,0,1.26,1.26,0,0,0-.37.27l0,0a1.59,1.59,0,0,0-.18,1.41"/><path class="cls-2" d="M116,38.85c1.48-1,2.83,1,1.33,1.74"/><path class="cls-1" d="M186.52,124.52,149.45,95.41a8.25,8.25,0,0,1,10.17-13l37.08,29.11a8.25,8.25,0,0,1-10.18,13Z"/><path class="cls-1" d="M120.25,205.65h97a12.1,12.1,0,0,1,12.1,12.1v0a12.1,12.1,0,0,1-12.1,12.1h-97a3.19,3.19,0,0,1-3.19-3.19V208.84a3.19,3.19,0,0,1,3.19-3.19Z" transform="translate(390.95 44.53) rotate(90)"/><rect class="cls-1" x="164.28" y="120.77" width="41.7" height="16.02" rx="8.01" transform="translate(389.23 32.84) rotate(120)"/><rect class="cls-1" x="54.52" y="98.06" width="55.85" height="16.84" rx="8.42" transform="translate(168.98 3.29) rotate(77.73)"/><path class="cls-1" d="M121.17,118,90.26,133.14a8.33,8.33,0,0,1-11.1-3.95h0A8.32,8.32,0,0,1,82.88,118l28.66-14"/><path class="cls-3" d="M112.33,105.3q14.94,20.55,30,41c9.41,12.79,21.09,27.7,20.92,44.35"/><path class="cls-4" d="M224.14,205C175.84,120.91,152,91.59,147.94,89.8s27.36,68.42,32.89,76.51c3.57,5.21,40,37.69,43.31,38.71"/><path class="cls-1" d="M151.8,161.58c9-4.86,14.95-7.81,24-12.68l2.67,4.36s-1.17,22.79-1.28,23.22-2.42,9.47-4,11.39S151.8,161.58,151.8,161.58Z"/><polygon class="cls-5" points="126.15 105.44 121.49 103.47 115.86 101.29 122.51 100.39 128.13 98.99 126.88 102.62 126.15 105.44"/><polygon class="cls-5" points="136.25 99.31 137.41 94.78 139.24 87.3 133.97 93.75 129.63 98.12 133.29 98.75 136.25 99.31"/><polygon class="cls-6" points="129.55 99.56 153.92 144.38 157.94 145.22 158.86 141.7 129.55 99.56"/><polygon class="cls-7" points="128.96 100.6 130.26 100.43 130.65 99.34 130.11 98.52 128.21 99.6 128.96 100.6"/></svg>