<svg xmlns="http://www.w3.org/2000/svg" viewBox="0 0 104.88 104.88"><defs><style>.cls-1,.cls-5{fill:#fff;}.cls-2{fill:#231f20;}.cls-3,.cls-4,.cls-6,.cls-7,.cls-8,.cls-9{fill:none;}.cls-3{stroke:#fff;}.cls-3,.cls-4,.cls-5,.cls-6,.cls-7,.cls-8,.cls-9{stroke-linecap:round;}.cls-3,.cls-4,.cls-5,.cls-6,.cls-7{stroke-linejoin:round;}.cls-4,.cls-5,.cls-6,.cls-7,.cls-8,.cls-9{stroke:#231f20;}.cls-4{stroke-width:0.75px;}.cls-5,.cls-8{stroke-width:0.5px;}.cls-6{stroke-width:0.25px;}.cls-7{stroke-width:0.15px;}.cls-8,.cls-9{stroke-miterlimit:10;}.cls-9{stroke-width:0.3px;}</style></defs><g id="Layer_2" data-name="Layer 2"><rect class="cls-1" x="0.07" y="0.13" width="104.88" height="104.88"/><path class="cls-2" d="M76,56.34a268.17,268.17,0,0,0-47.92,0,1.34,1.34,0,0,1-1.46-1.21q-2-21.63-4.09-43.25a1.48,1.48,0,0,1,1.44-1.48,315.17,315.17,0,0,1,56.14,0,1.47,1.47,0,0,1,1.44,1.48q-2,21.63-4.09,43.25A1.34,1.34,0,0,1,76,56.34Z"/><path class="cls-3" d="M76,56.34a268.17,268.17,0,0,0-47.92,0,1.34,1.34,0,0,1-1.46-1.21q-2-21.63-4.09-43.25a1.48,1.48,0,0,1,1.44-1.48,315.17,315.17,0,0,1,56.14,0,1.47,1.47,0,0,1,1.44,1.48q-2,21.63-4.09,43.25A1.34,1.34,0,0,1,76,56.34Z"/><path class="cls-1" d="M91.06,57a270.36,270.36,0,0,1-77.17,0,4.55,4.55,0,0,1-3.77-4.36V51A1.59,1.59,0,0,1,12,49.36a270.46,270.46,0,0,0,80.94,0A1.58,1.58,0,0,1,94.83,51v1.7A4.54,4.54,0,0,1,91.06,57Z"/><path class="cls-2" d="M91,59.93a271.09,271.09,0,0,1-77.17,0,4.54,4.54,0,0,1-3.77-4.37v-1.7a1.58,1.58,0,0,1,1.89-1.6,271.05,271.05,0,0,0,80.93,0,1.58,1.58,0,0,1,1.89,1.6v1.7A4.55,4.55,0,0,1,91,59.93Z"/><path class="cls-2" d="M44.72,73.58c0,.21,0,.42.05.63s0,.31,0,.47,0,.3,0,.45a7.93,7.93,0,0,1-.33,1.68,8.15,8.15,0,0,1-.67,1.58,8.65,8.65,0,0,1-1,1.41c-.2.23-.41.43-.62.64a8.14,8.14,0,0,1-13.62-5.07A7.87,7.87,0,0,1,28.64,73a8.29,8.29,0,0,1,.8-2.27,8.13,8.13,0,0,1,1.07-1.58.7.7,0,0,1,.16-.14A.47.47,0,0,1,31,69l.58.21.68.2,1.49.45,6,1.83c.34.09.68.21,1,.31l1,.31,2,.62.48.14a.59.59,0,0,1,.26.1.41.41,0,0,1,.11.28C44.71,73.47,44.72,73.52,44.72,73.58Z"/><line class="cls-4" x1="48.46" y1="70.98" x2="26.5" y2="64.26"/><circle class="cls-5" cx="69.53" cy="74.04" r="8.52"/><path class="cls-6" d="M81,76,78,75.6a13.63,13.63,0,0,0,0-3.72L81,71.44A16.87,16.87,0,0,1,81,76Z"/><line class="cls-7" x1="81.07" y1="75.99" x2="81.07" y2="85.02"/><path class="cls-8" d="M53.58,89.06a5.61,5.61,0,0,1-7.45,2.69,4.48,4.48,0,0,1-2.14-6,3.58,3.58,0,0,1,4.76-1.72"/><path class="cls-8" d="M53.75,89.06a5.61,5.61,0,0,0,7.45,2.69,4.49,4.49,0,0,0,2.14-6,3.58,3.58,0,0,0-4.76-1.72"/><path class="cls-6" d="M47.12,94.54l-.56-1.35L46,91.85l1.45.18,1.45.18L48,93.37Z"/><path class="cls-9" d="M79.22,51.48a3.12,3.12,0,0,0,1.39-.92A1.63,1.63,0,0,0,80.82,49a1.94,1.94,0,0,0-1.12-1,1.89,1.89,0,0,0-.74-.12h-.09A2.62,2.62,0,0,0,77,49.24"/><path class="cls-9" d="M79.22,51.48c2.91.58,2.12,4.46-.53,3.56"/><path class="cls-2" d="M79.44,83.79h1.74a.76.76,0,0,1,.76.76v0a.76.76,0,0,1-.76.76H79.44a0,0,0,0,1,0,0V83.79A0,0,0,0,1,79.44,83.79Z" transform="translate(73.89 201.22) rotate(-133)"/><path class="cls-2" d="M80.13,83.8h1.79a.76.76,0,0,1,.76.76v0a.76.76,0,0,1-.76.76H80.13a0,0,0,0,1,0,0V83.8a0,0,0,0,1,0,0Z" transform="translate(-35.8 78.24) rotate(-43)"/></g></svg>