<?xml version="1.0" encoding="UTF-8"?>
<svg version="1.1" xmlns="http://www.w3.org/2000/svg" width="360" height="360">
<path d="M0 0 C3.35989558 3.10471364 5.7214523 6.58319884 7 11 C7 12.32 7 13.64 7 15 C7.69335449 14.83846436 8.38670898 14.67692871 9.10107422 14.51049805 C14.7132366 13.52220164 20.44132222 13.80901821 26.125 13.8125 C26.8008313 13.81243958 27.4766626 13.81237915 28.17297363 13.81231689 C37.60178065 13.82431567 46.84948505 14.24695555 56.20703125 15.44140625 C60.84574236 16.02456412 65.48598455 16.31129608 70.15087891 16.6015625 C80.84290295 17.28778362 91.32134751 18.51292203 101.875 20.375 C103.0086499 20.57198486 104.1422998 20.76896973 105.31030273 20.97192383 C115.90774047 22.93962821 127.08603778 25.08603778 134.9375 32.9375 C136 35 136 35 135.8671875 37.359375 C134.72752552 40.82969707 133.02055902 42.04356401 130.1875 44.3125 C125.67210628 48.19019903 123.04542253 51.44644 121 57 C120.38125 58.423125 120.38125 58.423125 119.75 59.875 C117.7427818 68.23840915 118.96329767 74.53821691 123 82 C123.52851563 82.99257812 124.05703125 83.98515625 124.6015625 85.0078125 C126.04608285 87.68462509 127.51233018 90.34698883 129 93 C129.928125 92.76216797 129.928125 92.76216797 130.875 92.51953125 C143.83984684 90.36412546 158.87287822 90.54762774 170.38671875 97.42578125 C172.38056422 98.85206257 174.1916221 100.34736756 176 102 C176.86625 102.763125 177.7325 103.52625 178.625 104.3125 C188.9761367 116.02562837 191.06233048 127.41739852 190.21582031 142.67285156 C188.89167894 156.9508103 181.47617853 170.73074051 170.61328125 180.046875 C160.50733844 187.47164931 151.58488674 190.21470287 139 189 C135.2371345 188.23731908 131.64533076 187.19245566 128 186 C126.6696358 185.65500725 125.33722532 185.31735993 124 185 C123.34 186.32 122.68 187.64 122 189 C122.61875 189.28875 123.2375 189.5775 123.875 189.875 C126 191 126 191 128 193 C128.0625 195.4375 128.0625 195.4375 127 198 C123.8807438 199.68959711 120.96343039 200.71964485 117.5703125 201.70703125 C116.35988281 202.06861328 116.35988281 202.06861328 115.125 202.4375 C114.36445313 202.64246094 113.60390625 202.84742188 112.8203125 203.05859375 C110.8195768 203.85370391 110.8195768 203.85370391 110.1171875 205.97265625 C110.07851563 206.64167969 110.03984375 207.31070313 110 208 C110.66 208.66 111.32 209.32 112 210 C112 211.32 112 212.64 112 214 C114.475 213.01 114.475 213.01 117 212 C116.57645708 220.29358902 114.55888379 227.86465209 112.25 235.8125 C108.8460715 247.80813382 105.7640422 259.84087206 103 272 C101.35 272.33 99.7 272.66 98 273 C96.33034492 269.66068984 96.74173577 265.86825044 96.625 262.1875 C96.21919981 251.60562464 95.17177923 241.12386536 94.01611328 230.6003418 C93.88575684 229.41093994 93.75540039 228.22153809 93.62109375 226.99609375 C93.44211548 225.40559204 93.44211548 225.40559204 93.25952148 223.78295898 C93 221 93 221 93 217 C92.01 217.33 91.02 217.66 90 218 C83.80174494 218.3443475 83.80174494 218.3443475 80.58984375 216.96484375 C77.64564617 215.86798583 76.02922305 215.96519871 72.9375 216.375 C67.12826748 217.0217384 61.40158326 217.0731756 55.56640625 217.0390625 C54.64380005 217.03624268 53.72119385 217.03342285 52.77062988 217.03051758 C50.51372624 217.02321132 48.256877 217.01296998 46 217 C46.00444122 217.64479813 46.00888245 218.28959625 46.01345825 218.95393372 C46.05763884 225.6532673 46.08784447 232.35255962 46.10986328 239.05200195 C46.11993288 241.55364665 46.13358934 244.05527955 46.15087891 246.55688477 C46.17508492 250.14862986 46.18647346 253.7402196 46.1953125 257.33203125 C46.20563507 258.45398392 46.21595764 259.57593658 46.22659302 260.73188782 C46.22674408 261.77274033 46.22689514 262.81359283 46.22705078 263.88598633 C46.231492 264.80309891 46.23593323 265.72021149 46.24050903 266.66511536 C46 269 46 269 44 272 C41.08285199 272.27570606 38.4113174 272.3722561 35.5 272.3125 C34.32244141 272.31733398 34.32244141 272.31733398 33.12109375 272.32226562 C27.26703869 272.26703869 27.26703869 272.26703869 25 270 C25.33 268.35 25.66 266.7 26 265 C29.63 264.67 33.26 264.34 37 264 C36.67 248.82 36.34 233.64 36 218 C30.06 217.67 24.12 217.34 18 217 C18.01571045 218.62534668 18.0314209 220.25069336 18.04760742 221.92529297 C18.1017774 227.93728712 18.13630304 233.94925957 18.16479492 239.96142578 C18.17991108 242.56693139 18.20040432 245.17241144 18.22631836 247.77783203 C18.26257688 251.51601456 18.27969798 255.25386165 18.29296875 258.9921875 C18.30845261 260.16304901 18.32393646 261.33391052 18.33988953 262.54025269 C18.34011612 263.62122223 18.34034271 264.70219177 18.34057617 265.81591797 C18.35056892 267.24821243 18.35056892 267.24821243 18.36076355 268.70944214 C18.24171158 269.46532623 18.12265961 270.22121033 18 271 C14.18894923 273.54070051 11.31435307 273.15363256 6.9375 272.875 C5.83825195 272.84019531 5.83825195 272.84019531 4.71679688 272.8046875 C2.58984375 272.6796875 2.58984375 272.6796875 -1 272 C-2.49609375 269.9453125 -2.49609375 269.9453125 -3 268 C-2.34 267.01 -1.68 266.02 -1 265 C2.63 264.67 6.26 264.34 10 264 C9.67 248.49 9.34 232.98 9 217 C5.9616222 216.24040555 3.46861824 215.80093934 0.39453125 215.5703125 C-0.4982251 215.49901123 -1.39098145 215.42770996 -2.31079102 215.35424805 C-3.26010498 215.27859619 -4.20941895 215.20294434 -5.1875 215.125 C-36.40152694 212.40995651 -36.40152694 212.40995651 -47 206 C-49.38539773 202.12785853 -49.00792939 199.33409637 -48 195 C-48.81082031 194.55011719 -49.62164062 194.10023438 -50.45703125 193.63671875 C-64.80746001 185.30043941 -76.69100848 173.95105919 -81.34375 157.609375 C-85.80000198 140.14298119 -86.97375183 122.80964663 -78.875 106.125 C-77 103 -77 103 -75 101 C-75.27475149 95.66532518 -77.51179701 91.40160625 -79.8515625 86.71484375 C-80.62792812 85.11669379 -81.40395984 83.51838159 -82.1796875 81.91992188 C-83.40380533 79.42022994 -84.63225955 76.92283679 -85.8671875 74.4284668 C-87.06147671 72.00874747 -88.23863814 69.58126999 -89.4140625 67.15234375 C-89.78794098 66.40951645 -90.16181946 65.66668915 -90.54702759 64.90135193 C-92.05715265 61.76196686 -93.02007566 59.6733424 -92.91503906 56.15039062 C-90.44495129 50.34555256 -82.30561931 47.49882234 -76.875 44.9375 C-72.16034224 42.71235779 -67.85318911 40.60580537 -64 37 C-64 36.34 -64 35.68 -64 35 C-64.825 34.566875 -65.65 34.13375 -66.5 33.6875 C-69 32 -69 32 -69.6875 29.625 C-68.65946754 25.69978513 -66.35746443 23.98454778 -63 22 C-54.46702657 18.08208246 -44.41536349 15 -35 15 C-34.82984375 14.40832031 -34.6596875 13.81664063 -34.484375 13.20703125 C-32.51990407 6.8016021 -30.44831659 2.33766694 -24.5625 -1.25 C-16.13393199 -5.3903492 -7.77122532 -5.40824032 0 0 Z M-82 58 C-81.37143878 61.91834435 -80.16760882 65.14548449 -78.49609375 68.73828125 C-78.00302734 69.80498047 -77.50996094 70.87167969 -77.00195312 71.97070312 C-76.48568359 73.07349609 -75.96941406 74.17628906 -75.4375 75.3125 C-74.91736328 76.43462891 -74.39722656 77.55675781 -73.86132812 78.71289062 C-72.57900626 81.47752951 -71.29175153 84.23975766 -70 87 C-69.01 87 -68.02 87 -67 87 C-65.69719091 84.17166394 -64.40988132 81.33652 -63.125 78.5 C-62.76019531 77.70851563 -62.39539063 76.91703125 -62.01953125 76.1015625 C-58.94386557 69.2791768 -56.6917155 62.848443 -56.8125 55.25 C-56.81894531 54.34765625 -56.82539062 53.4453125 -56.83203125 52.515625 C-56.98578384 50.21291179 -57.35475551 48.20931715 -58 46 C-65.79842808 46 -75.50715299 53.94915297 -82 58 Z M143 105 C141.74325702 107.11243695 141.74325702 107.11243695 142.125 110.25 C142 114 142 114 140.4375 117 C138.59362206 120.84809308 139.32925698 122.82745575 140 127 C140.58355755 138.69829319 140.25386717 151.65543609 137 163 C137.63808594 163.20753906 138.27617187 163.41507813 138.93359375 163.62890625 C141.48558503 164.58042874 143.7184428 165.50622576 146 167 C147.0625 170.75 147.0625 170.75 147 174 C154.55094906 173.86271002 158.60324566 171.16338118 164 166 C171.80830923 157.81614082 176.2398903 148.62697202 176.5 137.25 C176.28131802 131.59879728 175.80098495 126.93857874 173 122 C172.36191406 120.86111328 172.36191406 120.86111328 171.7109375 119.69921875 C166.80908304 111.69110893 161.46627167 107.94743327 152.4453125 105.4921875 C149.18917846 104.8367995 146.30858625 104.78422264 143 105 Z " fill="#EAD8C6" transform="translate(149,78)"/>
<path d="M0 0 C2.1875 -0.25 2.1875 -0.25 5 0 C5.78375 0.639375 6.5675 1.27875 7.375 1.9375 C10.65335017 4.51334656 12.86906293 4.84978411 17 5 C19.06669397 4.09166275 19.06669397 4.09166275 21 3 C26.16612636 2.42598596 29.44973161 3.76947628 34 6 C34.495 6.495 34.495 6.495 35 7 C36.51928038 7.07179964 38.04167482 7.08392007 39.5625 7.0625 C40.38878906 7.05347656 41.21507812 7.04445312 42.06640625 7.03515625 C43.02353516 7.01775391 43.02353516 7.01775391 44 7 C44 6.34 44 5.68 44 5 C51.75 4.875 51.75 4.875 54 6 C54 6.66 54 7.32 54 8 C59.84036219 9.08888109 61.93901062 9.24422396 67 6 C70.83009075 5.58963313 73.07932296 5.41851977 76.375 7.5 C80.11554588 9.63745479 83.77195821 9.60966146 88 9 C88.99 8.34 89.98 7.68 91 7 C96.59119943 6.62725337 100.59955667 7.45701619 106 9 C109.86713117 9.3919899 113.27841994 9.24052669 117 8 C121.52084787 6.49305071 125.92270747 6.14777743 130.4375 8 C134.18038917 9.46063968 138.02436076 9.53112666 142 9 C142.66 8.34 143.32 7.68 144 7 C149.79932128 4.76949181 155.49924621 5.68389314 161 8 C165.99660784 8.66621438 169.08707958 7.22080206 173.36328125 4.875 C175 4 175 4 176 4 C175.95359375 4.97839844 175.9071875 5.95679688 175.859375 6.96484375 C175.63998686 14.93333453 175.91087908 20.99892933 180 28 C180.52851563 28.98613281 181.05703125 29.97226563 181.6015625 30.98828125 C183.04182936 33.67427656 184.50937777 36.34172368 186 39 C186.928125 38.76216797 186.928125 38.76216797 187.875 38.51953125 C200.83984684 36.36412546 215.87287822 36.54762774 227.38671875 43.42578125 C229.38056422 44.85206257 231.1916221 46.34736756 233 48 C233.86625 48.763125 234.7325 49.52625 235.625 50.3125 C245.9761367 62.02562837 248.06233048 73.41739852 247.21582031 88.67285156 C245.89167894 102.9508103 238.47617853 116.73074051 227.61328125 126.046875 C217.50733844 133.47164931 208.58488674 136.21470287 196 135 C192.2371345 134.23731908 188.64533076 133.19245566 185 132 C183.6696358 131.65500725 182.33722532 131.31735993 181 131 C180.34 132.32 179.68 133.64 179 135 C179.61875 135.28875 180.2375 135.5775 180.875 135.875 C183 137 183 137 185 139 C185.0625 141.4375 185.0625 141.4375 184 144 C180.8807438 145.68959711 177.96343039 146.71964485 174.5703125 147.70703125 C173.35988281 148.06861328 173.35988281 148.06861328 172.125 148.4375 C171.36445313 148.64246094 170.60390625 148.84742188 169.8203125 149.05859375 C167.8195768 149.85370391 167.8195768 149.85370391 167.1171875 151.97265625 C167.07851563 152.64167969 167.03984375 153.31070313 167 154 C167.66 154.66 168.32 155.32 169 156 C169 157.32 169 158.64 169 160 C171.475 159.01 171.475 159.01 174 158 C173.57645708 166.29358902 171.55888379 173.86465209 169.25 181.8125 C165.8460715 193.80813382 162.7640422 205.84087206 160 218 C158.35 218.33 156.7 218.66 155 219 C153.33034492 215.66068984 153.74173577 211.86825044 153.625 208.1875 C153.21919981 197.60562464 152.17177923 187.12386536 151.01611328 176.6003418 C150.88575684 175.41093994 150.75540039 174.22153809 150.62109375 172.99609375 C150.44211548 171.40559204 150.44211548 171.40559204 150.25952148 169.78295898 C150 167 150 167 150 163 C149.01 163.33 148.02 163.66 147 164 C140.80174494 164.3443475 140.80174494 164.3443475 137.58984375 162.96484375 C134.64564617 161.86798583 133.02922305 161.96519871 129.9375 162.375 C124.12826748 163.0217384 118.40158326 163.0731756 112.56640625 163.0390625 C111.64380005 163.03624268 110.72119385 163.03342285 109.77062988 163.03051758 C107.51372624 163.02321132 105.256877 163.01296998 103 163 C103.00444122 163.64479813 103.00888245 164.28959625 103.01345825 164.95393372 C103.05763884 171.6532673 103.08784447 178.35255962 103.10986328 185.05200195 C103.11993288 187.55364665 103.13358934 190.05527955 103.15087891 192.55688477 C103.17508492 196.14862986 103.18647346 199.7402196 103.1953125 203.33203125 C103.20563507 204.45398392 103.21595764 205.57593658 103.22659302 206.73188782 C103.22674408 207.77274033 103.22689514 208.81359283 103.22705078 209.88598633 C103.231492 210.80309891 103.23593323 211.72021149 103.24050903 212.66511536 C103 215 103 215 101 218 C98.08285199 218.27570606 95.4113174 218.3722561 92.5 218.3125 C91.71496094 218.31572266 90.92992187 218.31894531 90.12109375 218.32226562 C84.26703869 218.26703869 84.26703869 218.26703869 82 216 C82.33 214.35 82.66 212.7 83 211 C86.63 210.67 90.26 210.34 94 210 C93.67 194.82 93.34 179.64 93 164 C87.06 163.67 81.12 163.34 75 163 C75.01571045 164.62534668 75.0314209 166.25069336 75.04760742 167.92529297 C75.1017774 173.93728712 75.13630304 179.94925957 75.16479492 185.96142578 C75.17991108 188.56693139 75.20040432 191.17241144 75.22631836 193.77783203 C75.26257688 197.51601456 75.27969798 201.25386165 75.29296875 204.9921875 C75.30845261 206.16304901 75.32393646 207.33391052 75.33988953 208.54025269 C75.34011612 209.62122223 75.34034271 210.70219177 75.34057617 211.81591797 C75.35056892 213.24821243 75.35056892 213.24821243 75.36076355 214.70944214 C75.24171158 215.46532623 75.12265961 216.22121033 75 217 C71.18894923 219.54070051 68.31435307 219.15363256 63.9375 218.875 C63.20466797 218.85179687 62.47183594 218.82859375 61.71679688 218.8046875 C59.58984375 218.6796875 59.58984375 218.6796875 56 218 C54.50390625 215.9453125 54.50390625 215.9453125 54 214 C54.66 213.01 55.32 212.02 56 211 C59.63 210.67 63.26 210.34 67 210 C66.67 194.49 66.34 178.98 66 163 C62.9616222 162.24040555 60.46861824 161.80093934 57.39453125 161.5703125 C56.50145264 161.4988501 55.60837402 161.4273877 54.68823242 161.35375977 C53.73924072 161.27826904 52.79024902 161.20277832 51.8125 161.125 C20.68318069 158.45545379 20.68318069 158.45545379 11.375 152.25 C10 150 10 150 10 146.375 C11 143 11 143 12.77864075 141.78129578 C15.28879982 140.89842342 16.90055416 140.88034489 19.54174805 141.12426758 C20.44609589 141.2012941 21.35044373 141.27832062 22.28219604 141.35768127 C23.26543854 141.45234177 24.24868103 141.54700226 25.26171875 141.64453125 C27.41312727 141.82891833 29.56457783 142.01281549 31.71606445 142.19628906 C32.8529068 142.29719849 33.98974915 142.39810791 35.16104126 142.5020752 C55.37530434 144.28148313 75.52188928 145.43762057 95.8125 145.75 C97.43011734 145.77497055 97.43011734 145.77497055 99.08041382 145.80044556 C105.05350011 145.88769115 111.02646138 145.95373987 117 146 C117.66 144.68 118.32 143.36 119 142 C119.66 142 120.32 142 121 142 C120.690625 141.071875 120.690625 141.071875 120.375 140.125 C120.25125 139.42375 120.1275 138.7225 120 138 C120.66 137.34 121.32 136.68 122 136 C122.99 136 123.98 136 125 136 C124.7215625 137.1446875 124.7215625 137.1446875 124.4375 138.3125 C123.77180827 141.08967375 123.77180827 141.08967375 125 144 C124.67 144.66 124.34 145.32 124 146 C124.99 146 125.98 146 127 146 C127 144.02 127 142.04 127 140 C127.66 140 128.32 140 129 140 C129 139.01 129 138.02 129 137 C128.01 136.67 127.02 136.34 126 136 C126.495 132.04 126.495 132.04 127 128 C127.99 128.33 128.98 128.66 130 129 C130 127.68 130 126.36 130 125 C127.69 124.67 125.38 124.34 123 124 C123 123.01 123 122.02 123 121 C125.31 121.33 127.62 121.66 130 122 C130.33 123.32 130.66 124.64 131 126 C131.99 125.67 132.98 125.34 134 125 C134 124.34 134 123.68 134 123 C134.66 123 135.32 123 136 123 C133.47043472 119.9083091 130.77545388 119.09068668 127 118 C127.66 116.02 128.32 114.04 129 112 C129.33 112 129.66 112 130 112 C130.40749675 107.74268432 130.40749675 107.74268432 128.5 104.125 C128.005 103.75375 127.51 103.3825 127 103 C127.99 103 128.98 103 130 103 C130.33 102.34 130.66 101.68 131 101 C130.34 101 129.68 101 129 101 C129 100.34 129 99.68 129 99 C129.99 98.67 130.98 98.34 132 98 C132.33 96.35 132.66 94.7 133 93 C131.68 92.34 130.36 91.68 129 91 C128.61718841 85.76824163 129.78145293 82.62197306 132 78 C131.11957031 77.93941406 130.23914063 77.87882812 129.33203125 77.81640625 C127.58986328 77.69072266 127.58986328 77.69072266 125.8125 77.5625 C124.08966797 77.44068359 124.08966797 77.44068359 122.33203125 77.31640625 C119.48401829 77.04596188 116.78789518 76.62478253 114 76 C113.938125 76.7425 113.87625 77.485 113.8125 78.25 C112.71789372 81.95482127 111.21830362 82.91268775 108 85 C102.52279629 85.99703235 96.52268612 86.38109082 91.53125 83.6484375 C89.625 82 89.625 82 87 79 C84.76139611 80.07490375 82.89766826 81.080625 80.9375 82.625 C75.84593507 85.00828571 70.23483949 84.74119768 64.80078125 83.49609375 C62.00970832 82.47211521 60.26712376 81.38326453 58.5625 78.9375 C57.73585891 74.62059651 57.84690066 70.38034228 58 66 C59.65 66 61.3 66 63 66 C64.32 68.64 65.64 71.28 67 74 C72.73236598 74.45858928 75.55296547 73.65645061 80 70 C80.680625 69.0925 81.36125 68.185 82.0625 67.25 C84 65 84 65 86.42578125 64.6171875 C89 65 89 65 90.6953125 66.6796875 C91.16710937 67.40414062 91.63890625 68.12859375 92.125 68.875 C94.2972958 72.15105691 95.94377308 74.58325038 100.04296875 75.4140625 C101.10451172 75.51847656 101.10451172 75.51847656 102.1875 75.625 C103.445625 75.74875 104.70375 75.8725 106 76 C105.00652685 72.83894907 104.12157692 71.1150052 101.6875 68.8125 C96.08644341 62.95092915 93.68498038 57.12265955 93.4375 49 C93.79179614 39.94576536 96.34156522 32.36250434 103 26 C108.93156619 21.77493599 114.84201614 20.00122112 122 19 C121.34 18.67 120.68 18.34 120 18 C119.505 16.515 119.505 16.515 119 15 C118.28714844 15.10699219 117.57429688 15.21398437 116.83984375 15.32421875 C110.51662308 16.11568513 106.60196539 16.11220299 101 13 C101 12.34 101 11.68 101 11 C98.36 11 95.72 11 93 11 C93 11.66 93 12.32 93 13 C88.45591656 15.63409918 84.13452758 15.57889282 79 15 C77.30280873 14.05273046 75.63064764 13.05771739 74 12 C69.29666807 11.58005965 66.29238232 12.23902264 62 14 C58.41688738 14.3732409 56.66574161 14.4379879 53.625 12.4375 C49.73935564 10.30964714 47.30271804 11.15356366 43 12 C42.34 12.33 41.68 12.66 41 13 C36.04312447 13.37410381 32.96549128 13.12432647 29 10 C29 9.34 29 8.68 29 8 C28.31035156 8.144375 27.62070313 8.28875 26.91015625 8.4375 C11.56 11.46962963 11.56 11.46962963 5.625 8.0625 C4.75875 7.381875 3.8925 6.70125 3 6 C2.01 5.67 1.02 5.34 0 5 C0 3.35 0 1.7 0 0 Z M200 51 C198.74325702 53.11243695 198.74325702 53.11243695 199.125 56.25 C199 60 199 60 197.4375 63 C195.59362206 66.84809308 196.32925698 68.82745575 197 73 C197.58355755 84.69829319 197.25386717 97.65543609 194 109 C194.63808594 109.20753906 195.27617187 109.41507813 195.93359375 109.62890625 C198.48558503 110.58042874 200.7184428 111.50622576 203 113 C204.0625 116.75 204.0625 116.75 204 120 C211.55094906 119.86271002 215.60324566 117.16338118 221 112 C228.80830923 103.81614082 233.2398903 94.62697202 233.5 83.25 C233.28131802 77.59879728 232.80098495 72.93857874 230 68 C229.36191406 66.86111328 229.36191406 66.86111328 228.7109375 65.69921875 C223.80908304 57.69110893 218.46627167 53.94743327 209.4453125 51.4921875 C206.18917846 50.8367995 203.30858625 50.78422264 200 51 Z " fill="#DCC6B2" transform="translate(92,132)"/>
<path d="M0 0 C0.67832886 -0.00006042 1.35665771 -0.00012085 2.05554199 -0.00018311 C11.50282515 0.01180371 20.76863701 0.43224339 30.14453125 1.62890625 C34.78324236 2.21206412 39.42348455 2.49879608 44.08837891 2.7890625 C54.78040295 3.47528362 65.25884751 4.70042203 75.8125 6.5625 C76.9461499 6.75948486 78.0797998 6.95646973 79.24780273 7.15942383 C89.84524047 9.12712821 101.02353778 11.27353778 108.875 19.125 C109.9375 21.1875 109.9375 21.1875 109.8046875 23.546875 C108.66502552 27.01719707 106.95805902 28.23106401 104.125 30.5 C99.49477207 34.45650004 97.24931389 37.60061644 94.9375 43.1875 C94.2775 44.1775 93.6175 45.1675 92.9375 46.1875 C91.6175 46.1875 90.2975 46.1875 88.9375 46.1875 C88.15375 46.6825 87.37 47.1775 86.5625 47.6875 C83.36696333 49.51352095 81.57104015 49.56599377 77.9375 49.1875 C77.15375 48.8575 76.37 48.5275 75.5625 48.1875 C70.98919991 46.44529044 66.62923603 46.64758425 62 48.125 C60.00139179 49.0220163 60.00139179 49.0220163 58.9375 50.1875 C53.70572987 50.65230602 49.78316847 50.17546655 44.9375 48.1875 C40.76089427 47.92231868 37.89409266 47.86863578 33.9375 49.1875 C27.3960248 51.36799173 22.34594076 50.01848308 15.9375 48.1875 C11.61525996 47.77128429 8.67125197 47.69833202 4.9375 50.1875 C-0.72566409 51.00409857 -4.25250144 50.22539383 -9.0625 47.1875 C-13.00554232 46.76503118 -15.20792716 46.666419 -18.625 48.75 C-21.0625 50.1875 -21.0625 50.1875 -24.25 49.9375 C-27.0625 49.1875 -27.0625 49.1875 -29.0625 48.1875 C-29.0625 47.5275 -29.0625 46.8675 -29.0625 46.1875 C-32.3625 45.8575 -35.6625 45.5275 -39.0625 45.1875 C-39.0625 45.8475 -39.0625 46.5075 -39.0625 47.1875 C-42.07574195 48.69412097 -44.74536377 48.36520373 -48.0625 48.1875 C-48.7225 47.5275 -49.3825 46.8675 -50.0625 46.1875 C-55.19143845 43.81067486 -59.64785379 44.05897374 -65.0625 45.1875 C-65.3925 45.5175 -65.7225 45.8475 -66.0625 46.1875 C-71.49146332 45.87429058 -73.97358716 44.63079502 -78.0625 41.1875 C-80.74757329 40.39803391 -80.74757329 40.39803391 -83.0625 40.1875 C-83.3925 37.2175 -83.7225 34.2475 -84.0625 31.1875 C-76.61946203 26.51735853 -76.61946203 26.51735853 -72.0625 27.1875 C-71.7325 27.5175 -71.4025 27.8475 -71.0625 28.1875 C-65.22751714 28.5377439 -65.22751714 28.5377439 -60.0625 26.1875 C-59.4025 25.1975 -58.7425 24.2075 -58.0625 23.1875 C-55.58032227 22.92285156 -55.58032227 22.92285156 -52.37890625 23.078125 C-50.55951538 23.15268921 -50.55951538 23.15268921 -48.70336914 23.22875977 C-48.04402374 23.26268829 -47.38467834 23.29661682 -46.70535278 23.33157349 C-44.56754616 23.44042541 -42.42970547 23.52937804 -40.29077148 23.61303711 C-37.16759782 23.73534932 -34.04470431 23.86285166 -30.921875 23.99365234 C-4.351125 25.07902835 22.24382399 25.3080009 48.83360672 25.36872482 C50.9744511 25.374926 53.11524818 25.38481409 55.256073 25.39578247 C70.2606128 25.46808901 85.07223537 25.43518201 99.9375 23.1875 C74.53904725 6.25519817 27.89214489 9.01869398 -1.61767578 8.65356445 C-6.12220144 8.54423131 -8.62888503 8.37409231 -12.0625 5.1875 C-15.21368325 4.46704633 -15.21368325 4.46704633 -18.0625 4.1875 C-18.0625 3.1975 -18.0625 2.2075 -18.0625 1.1875 C-12.24673439 -0.58382159 -6.02052585 -0.00815495 0 0 Z " fill="#E6D5C3" transform="translate(175.0625,91.8125)"/>
<path d="M0 0 C4.5453566 4.34334075 6.58865675 8.97597393 8 15 C8 15.99 8 16.98 8 18 C8.9075 17.938125 9.815 17.87625 10.75 17.8125 C14 18 14 18 15.73217773 19.47045898 C18.87464162 21.58990524 21.86197647 21.54572706 25.53515625 21.66015625 C26.27746994 21.69474442 27.01978363 21.72933258 27.78459167 21.76496887 C29.37969156 21.83796137 30.97508415 21.90476977 32.57067871 21.96600342 C35.9357022 22.09631504 39.29885734 22.25998874 42.6625061 22.42144775 C45.19625234 22.54245397 47.7301834 22.65883669 50.26416016 22.77490234 C105.07286404 25.33420794 105.07286404 25.33420794 127 36 C126.67 36.66 126.34 37.32 126 38 C123.5928204 38.51142348 121.31136853 38.85407268 118.87109375 39.11328125 C118.0852037 39.19757889 117.29931366 39.28187653 116.48960876 39.36872864 C104.10151569 40.52893575 91.63108542 40.26111797 79.20179367 40.19743729 C77.03883467 40.18739007 74.87589751 40.18117867 72.71292114 40.17623901 C54.95177215 40.13535573 37.19406394 39.99213458 19.4375 39.5625 C18.58712158 39.54203613 17.73674316 39.52157227 16.8605957 39.50048828 C8.82876549 39.30087243 0.8016453 39.05042268 -7.22419739 38.67915344 C-10.25458732 38.53949773 -13.28546082 38.41230971 -16.31637573 38.28463745 C-18.36719455 38.19071966 -20.41564042 38.07309326 -22.46508789 37.95336914 C-23.67156982 37.90043701 -24.87805176 37.84750488 -26.12109375 37.79296875 C-27.1670874 37.7364917 -28.21308105 37.68001465 -29.29077148 37.62182617 C-32.74829914 38.10445304 -33.7713449 39.4010891 -36 42 C-38.98212913 43.49106457 -41.71609658 43.11941467 -45 43 C-45.33 42.67 -45.66 42.34 -46 42 C-52.08160881 42.30923435 -54.98497801 43.43161897 -60 47 C-61.92426588 48.00492508 -63.86347975 48.98146984 -65.8125 49.9375 C-70.97121881 52.46855679 -76.01000945 55.15217711 -81 58 C-80.35218746 62.52707926 -78.59772856 66.36882942 -76.65625 70.4609375 C-75.98027131 71.916575 -75.30449639 73.37230713 -74.62890625 74.828125 C-73.56564998 77.1028163 -72.49949448 79.37607283 -71.42919922 81.64746094 C-70.39269805 83.85247727 -69.36768589 86.06256429 -68.34375 88.2734375 C-67.86403748 89.27846817 -67.86403748 89.27846817 -67.37463379 90.30380249 C-65.43019484 94.52002812 -64.34818707 98.3076585 -64 103 C-65 104 -65 104 -67.9375 104.25 C-68.948125 104.1675 -69.95875 104.085 -71 104 C-73 101 -73 101 -73 98 C-73.66 98 -74.32 98 -75 98 C-75.43868408 97.03175293 -75.87736816 96.06350586 -76.3293457 95.06591797 C-77.96636283 91.45357194 -79.60490572 87.84191968 -81.24389648 84.23046875 C-81.9513405 82.67108563 -82.65837763 81.11151785 -83.36499023 79.55175781 C-84.38416825 77.30224017 -85.40483617 75.05340361 -86.42578125 72.8046875 C-86.8947155 71.76838699 -86.8947155 71.76838699 -87.37312317 70.71115112 C-88.76089494 67.65784364 -90.17780387 64.6551207 -91.71557617 61.67236328 C-93 59 -93 59 -93.125 56.4375 C-90.39786591 50.52870948 -82.52409972 47.60186745 -76.875 44.9375 C-72.16034224 42.71235779 -67.85318911 40.60580537 -64 37 C-64 36.34 -64 35.68 -64 35 C-64.825 34.566875 -65.65 34.13375 -66.5 33.6875 C-69 32 -69 32 -69.6875 29.625 C-68.65946754 25.69978513 -66.35746443 23.98454778 -63 22 C-54.46702657 18.08208246 -44.41536349 15 -35 15 C-34.82984375 14.40832031 -34.6596875 13.81664063 -34.484375 13.20703125 C-32.51990407 6.8016021 -30.44831659 2.33766694 -24.5625 -1.25 C-16.10244559 -5.4058162 -7.80615733 -5.37720279 0 0 Z " fill="#82786E" transform="translate(149,78)"/>
<path d="M0 0 C0.8670607 0.07248459 1.7341214 0.14496918 2.62745667 0.21965027 C3.61667618 0.29668182 4.60589569 0.37371338 5.62509155 0.45307922 C6.70683151 0.54773468 7.78857147 0.64239014 8.90309143 0.73991394 C10.58932869 0.87343765 10.58932869 0.87343765 12.30963135 1.00965881 C14.72956408 1.20136317 17.14915911 1.39736845 19.56843567 1.59718323 C38.74197604 3.17480793 57.87016165 4.52747742 77.10792542 4.85441589 C82.97901598 4.95494698 88.7897489 5.1282449 94.64137268 5.63444519 C100.48528159 6.12359672 106.18066831 6.09604035 112.03199768 5.78288269 C112.94981018 5.74743347 113.86762268 5.71198425 114.81324768 5.67546082 C116.13195862 5.61068542 116.13195862 5.61068542 117.47731018 5.54460144 C118.25864319 5.5068158 119.0399762 5.46903015 119.84498596 5.43009949 C122.21046655 5.19222584 122.21046655 5.19222584 124.90699768 3.09538269 C127.82496643 2.90007019 127.82496643 2.90007019 131.09449768 2.97038269 C132.18117737 2.98842957 133.26785706 3.00647644 134.38746643 3.02507019 C135.6346344 3.05987488 135.6346344 3.05987488 136.90699768 3.09538269 C136.90699768 3.75538269 136.90699768 4.41538269 136.90699768 5.09538269 C139.54699768 4.43538269 142.18699768 3.77538269 144.90699768 3.09538269 C145.53199768 5.97038269 145.53199768 5.97038269 145.90699768 9.09538269 C145.24699768 9.75538269 144.58699768 10.41538269 143.90699768 11.09538269 C143.66445955 13.30611246 143.66445955 13.30611246 143.78199768 15.72038269 C143.80004456 16.53764832 143.81809143 17.35491394 143.83668518 18.19694519 C143.85988831 18.82342957 143.88309143 19.44991394 143.90699768 20.09538269 C146.85427303 19.99369108 146.85427303 19.99369108 149.90699768 19.09538269 C151.35991041 16.63282584 151.35991041 16.63282584 151.90699768 14.09538269 C152.89699768 14.59038269 152.89699768 14.59038269 153.90699768 15.09538269 C153.90699768 16.41538269 153.90699768 17.73538269 153.90699768 19.09538269 C156.38199768 18.10538269 156.38199768 18.10538269 158.90699768 17.09538269 C158.48345476 25.38897171 156.46588147 32.96003478 154.15699768 40.90788269 C150.75306918 52.90351651 147.67103988 64.93625475 144.90699768 77.09538269 C142.43199768 77.59038269 142.43199768 77.59038269 139.90699768 78.09538269 C138.2373426 74.75607253 138.64873346 70.96363313 138.53199768 67.28288269 C138.1261975 56.70100733 137.07877691 46.21924805 135.92311096 35.69572449 C135.79275452 34.50632263 135.66239807 33.31692078 135.52809143 32.09147644 C135.34911316 30.50097473 135.34911316 30.50097473 135.16651917 28.87834167 C134.90699768 26.09538269 134.90699768 26.09538269 134.90699768 22.09538269 C133.91699768 22.42538269 132.92699768 22.75538269 131.90699768 23.09538269 C125.70874262 23.43973019 125.70874262 23.43973019 122.49684143 22.06022644 C119.55264385 20.96336852 117.93622073 21.0605814 114.84449768 21.47038269 C109.03526516 22.11712109 103.30858094 22.16855829 97.47340393 22.13444519 C96.55079773 22.13162537 95.62819153 22.12880554 94.67762756 22.12590027 C92.42072392 22.11859401 90.16387468 22.10835267 87.90699768 22.09538269 C87.9114389 22.74018082 87.91588013 23.38497894 87.92045593 24.04931641 C87.96463652 30.74864999 87.99484215 37.44794231 88.01686096 44.14738464 C88.02693056 46.64902934 88.04058702 49.15066224 88.05787659 51.65226746 C88.0820826 55.24401255 88.09347114 58.83560229 88.10231018 62.42741394 C88.11263275 63.54936661 88.12295532 64.67131927 88.1335907 65.82727051 C88.13374176 66.86812302 88.13389282 67.90897552 88.13404846 68.98136902 C88.13848969 69.8984816 88.14293091 70.81559418 88.14750671 71.76049805 C87.90699768 74.09538269 87.90699768 74.09538269 85.90699768 77.09538269 C82.98984967 77.37108875 80.31831508 77.46763879 77.40699768 77.40788269 C76.22943909 77.41271667 76.22943909 77.41271667 75.02809143 77.41764832 C69.17403637 77.36242138 69.17403637 77.36242138 66.90699768 75.09538269 C67.23699768 73.44538269 67.56699768 71.79538269 67.90699768 70.09538269 C71.53699768 69.76538269 75.16699768 69.43538269 78.90699768 69.09538269 C78.57699768 53.91538269 78.24699768 38.73538269 77.90699768 23.09538269 C71.96699768 22.76538269 66.02699768 22.43538269 59.90699768 22.09538269 C59.92270813 23.72072937 59.93841858 25.34607605 59.9546051 27.02067566 C60.00877508 33.03266981 60.04330072 39.04464226 60.0717926 45.05680847 C60.08690876 47.66231408 60.107402 50.26779413 60.13331604 52.87321472 C60.16957456 56.61139725 60.18669567 60.34924434 60.19996643 64.08757019 C60.21545029 65.2584317 60.23093414 66.42929321 60.24688721 67.63563538 C60.2471138 68.71660492 60.24734039 69.79757446 60.24757385 70.91130066 C60.2575666 72.34359512 60.2575666 72.34359512 60.26776123 73.80482483 C60.14870926 74.56070892 60.02965729 75.31659302 59.90699768 76.09538269 C56.09594691 78.6360832 53.22135075 78.24901525 48.84449768 77.97038269 C48.11166565 77.94717957 47.37883362 77.92397644 46.62379456 77.90007019 C44.49684143 77.77507019 44.49684143 77.77507019 40.90699768 77.09538269 C39.41090393 75.04069519 39.41090393 75.04069519 38.90699768 73.09538269 C39.89699768 71.61038269 39.89699768 71.61038269 40.90699768 70.09538269 C44.53699768 69.76538269 48.16699768 69.43538269 51.90699768 69.09538269 C51.57699768 53.58538269 51.24699768 38.07538269 50.90699768 22.09538269 C47.86861989 21.33578824 45.37561592 20.89632203 42.30152893 20.66569519 C41.40845032 20.59423279 40.5153717 20.52277039 39.5952301 20.44914246 C38.6462384 20.37365173 37.6972467 20.29816101 36.71949768 20.22038269 C5.59017837 17.55083648 5.59017837 17.55083648 -3.71800232 11.34538269 C-5.09300232 9.09538269 -5.09300232 9.09538269 -4.96800232 5.47038269 C-3.5921968 0.16370426 -3.5921968 0.16370426 0 0 Z " fill="#E8D7C7" transform="translate(107.09300231933594,272.9046173095703)"/>
<path d="M0 0 C0.70189453 0.00451172 1.40378906 0.00902344 2.12695312 0.01367188 C3.85550538 0.02543073 5.58401365 0.04336546 7.3125 0.0625 C7.3125 0.7225 7.3125 1.3825 7.3125 2.0625 C8.22 2.18625 9.1275 2.31 10.0625 2.4375 C12.90220323 2.98359677 14.83840591 3.63513803 17.3125 5.0625 C17.3125 5.7225 17.3125 6.3825 17.3125 7.0625 C18.17875 7.4646875 18.17875 7.4646875 19.0625 7.875 C24.90029661 10.95605932 24.90029661 10.95605932 26.5 15.25 C27.34221987 19.20195476 27.8897586 23.04645671 28.3125 27.0625 C29.9625 27.3925 31.6125 27.7225 33.3125 28.0625 C33.3125 29.7125 33.3125 31.3625 33.3125 33.0625 C31.6625 33.7225 30.0125 34.3825 28.3125 35.0625 C28.3125 35.7225 28.3125 36.3825 28.3125 37.0625 C27.3225 37.5575 27.3225 37.5575 26.3125 38.0625 C25.94125 39.609375 25.94125 39.609375 25.5625 41.1875 C23.98218501 47.15349534 19.91130132 51.32568717 14.6875 54.4375 C10.19224279 56.6018831 6.85257591 57.20130742 1.875 57.1875 C0.48474609 57.19136719 0.48474609 57.19136719 -0.93359375 57.1953125 C-3.61615981 57.06594052 -6.07318718 56.66032834 -8.6875 56.0625 C-8.7803125 57.17625 -8.7803125 57.17625 -8.875 58.3125 C-9.96960628 62.01732127 -11.46919638 62.97518775 -14.6875 65.0625 C-20.16470371 66.05953235 -26.16481388 66.44359082 -31.15625 63.7109375 C-33.0625 62.0625 -33.0625 62.0625 -35.6875 59.0625 C-37.92610389 60.13740375 -39.78983174 61.143125 -41.75 62.6875 C-46.84156493 65.07078571 -52.45266051 64.80369768 -57.88671875 63.55859375 C-60.67779168 62.53461521 -62.42037624 61.44576453 -64.125 59 C-64.95164109 54.68309651 -64.84059934 50.44284228 -64.6875 46.0625 C-63.0375 46.0625 -61.3875 46.0625 -59.6875 46.0625 C-58.3675 48.7025 -57.0475 51.3425 -55.6875 54.0625 C-49.95513402 54.52108928 -47.13453453 53.71895061 -42.6875 50.0625 C-42.006875 49.155 -41.32625 48.2475 -40.625 47.3125 C-38.6875 45.0625 -38.6875 45.0625 -36.26171875 44.6796875 C-33.6875 45.0625 -33.6875 45.0625 -31.9921875 46.7421875 C-31.52039063 47.46664062 -31.04859375 48.19109375 -30.5625 48.9375 C-28.3902042 52.21355691 -26.74372692 54.64575038 -22.64453125 55.4765625 C-21.93683594 55.54617187 -21.22914063 55.61578125 -20.5 55.6875 C-18.6128125 55.873125 -18.6128125 55.873125 -16.6875 56.0625 C-17.68097315 52.90144907 -18.56592308 51.1775052 -21 48.875 C-26.60105659 43.01342915 -29.00251962 37.18515955 -29.25 29.0625 C-28.89570386 20.00826536 -26.34593478 12.42500434 -19.6875 6.0625 C-13.08395004 1.77659808 -7.89842876 -0.09587262 0 0 Z " fill="#ECB627" transform="translate(214.6875,151.9375)"/>
<path d="M0 0 C4.04783625 1.92612999 7.36692511 4.25278802 10.66796875 7.26953125 C11.53421875 8.03265625 12.40046875 8.79578125 13.29296875 9.58203125 C23.64410545 21.29515962 25.73029923 32.68692977 24.88378906 47.94238281 C23.55964769 62.22034155 16.14414728 76.00027176 5.28125 85.31640625 C-4.82600889 92.74214747 -13.74630125 95.48159483 -26.33203125 94.26953125 C-30.82343228 93.37876354 -35.22175215 92.3246708 -39.33203125 90.26953125 C-38.81371803 86.4340134 -38.07576112 84.90351193 -35.33203125 82.26953125 C-34.14175141 79.67037587 -34.14175141 79.67037587 -33.33203125 77.26953125 C-32.67203125 77.26953125 -32.01203125 77.26953125 -31.33203125 77.26953125 C-31.22890625 76.32078125 -31.12578125 75.37203125 -31.01953125 74.39453125 C-30.33203125 71.26953125 -30.33203125 71.26953125 -27.33203125 69.26953125 C-20.87920106 69.72236144 -20.87920106 69.72236144 -18.33203125 72.26953125 C-18.20703125 75.89453125 -18.20703125 75.89453125 -18.33203125 79.26953125 C-6.89310385 76.25092541 -0.3087246 70.4223445 5.66796875 60.26953125 C10.48210282 51.76314096 11.05898683 42.39706189 9.1953125 32.84765625 C8.52289538 30.83443134 7.70876754 29.11852608 6.66796875 27.26953125 C6.26578125 26.51027344 5.86359375 25.75101563 5.44921875 24.96875 C1.14430552 17.66235561 -4.14965726 14.78383908 -11.95703125 11.95703125 C-15.50497435 11.2343021 -18.72088635 11.12213758 -22.33203125 11.26953125 C-22.29078125 12.52765625 -22.24953125 13.78578125 -22.20703125 15.08203125 C-22.09299385 18.56017198 -22.27277444 19.18064603 -24.33203125 22.26953125 C-25.32203125 22.26953125 -26.31203125 22.26953125 -27.33203125 22.26953125 C-27.574375 21.40070313 -27.81671875 20.531875 -28.06640625 19.63671875 C-30.02200185 12.31256078 -30.02200185 12.31256078 -33.58203125 5.70703125 C-35.33203125 3.26953125 -35.33203125 3.26953125 -35.33203125 -0.73046875 C-25.91184474 -6.10156898 -9.79195727 -3.58489509 0 0 Z " fill="#979494" transform="translate(314.33203125,172.73046875)"/>
<path d="M0 0 C0.67832886 -0.00006042 1.35665771 -0.00012085 2.05554199 -0.00018311 C11.50282515 0.01180371 20.76863701 0.43224339 30.14453125 1.62890625 C34.78324236 2.21206412 39.42348455 2.49879608 44.08837891 2.7890625 C54.78040295 3.47528362 65.25884751 4.70042203 75.8125 6.5625 C76.9461499 6.75948486 78.0797998 6.95646973 79.24780273 7.15942383 C89.84524047 9.12712821 101.02353778 11.27353778 108.875 19.125 C109.9375 21.1875 109.9375 21.1875 110 23.625 C108.52955852 27.17135885 106.14763362 29.21533965 102.9375 31.1875 C99.40283203 31.92285156 99.40283203 31.92285156 95.4453125 32.078125 C94.71935883 32.11284409 93.99340515 32.14756317 93.24545288 32.18333435 C90.85146571 32.29146304 88.45781468 32.36513981 86.0625 32.4375 C84.36907574 32.50464949 82.67571609 32.57344643 80.98242188 32.64379883 C76.53029771 32.82139936 72.07770805 32.96667452 67.62414551 33.10284424 C64.98966657 33.18585624 62.35571147 33.27842309 59.72167969 33.37451172 C9.9091798 35.17846976 9.9091798 35.17846976 -8.95825195 32.66943359 C-12.87776368 32.16101006 -16.71232487 32.08877662 -20.66796875 32.125 C-21.35506424 32.12878662 -22.04215973 32.13257324 -22.75007629 32.13647461 C-24.9167859 32.14855065 -27.08335305 32.16718088 -29.25 32.1875 C-32.11848613 32.21420429 -34.98690453 32.23412487 -37.85546875 32.25 C-39.75075317 32.26740234 -39.75075317 32.26740234 -41.68432617 32.28515625 C-44.63664306 32.19981067 -47.18749272 31.78471021 -50.0625 31.1875 C-53.28361592 31.57083662 -53.28361592 31.57083662 -56.0625 32.1875 C-56.0625 31.5275 -56.0625 30.8675 -56.0625 30.1875 C-57.7125 30.1875 -59.3625 30.1875 -61.0625 30.1875 C-59.1875 24.3125 -59.1875 24.3125 -58.0625 23.1875 C-56.20053504 23.157945 -54.33739075 23.20198667 -52.4765625 23.2734375 C-50.65233765 23.33833374 -50.65233765 23.33833374 -48.79125977 23.40454102 C-48.12780548 23.43025177 -47.4643512 23.45596252 -46.78079224 23.48245239 C-43.10563371 23.62299065 -39.42971214 23.7410853 -35.75390625 23.86328125 C-34.57093208 23.90324471 -34.57093208 23.90324471 -33.36405945 23.9440155 C-5.96729525 24.86846998 21.42188678 25.30612382 48.83360672 25.36872482 C50.9744511 25.374926 53.11524818 25.38481409 55.256073 25.39578247 C70.2606128 25.46808901 85.07223537 25.43518201 99.9375 23.1875 C74.53904725 6.25519817 27.89214489 9.01869398 -1.61767578 8.65356445 C-6.12220144 8.54423131 -8.62888503 8.37409231 -12.0625 5.1875 C-15.21368325 4.46704633 -15.21368325 4.46704633 -18.0625 4.1875 C-18.0625 3.1975 -18.0625 2.2075 -18.0625 1.1875 C-12.24673439 -0.58382159 -6.02052585 -0.00815495 0 0 Z " fill="#EFE4D7" transform="translate(175.0625,91.8125)"/>
<path d="M0 0 C6.0546875 -0.1953125 6.0546875 -0.1953125 8 0 C8.66 0.66 9.32 1.32 10 2 C12.47515387 2.29353089 14.85541276 2.46824621 17.33984375 2.5625 C18.45755913 2.61650467 18.45755913 2.61650467 19.59785461 2.67160034 C21.20498587 2.74852936 22.8123173 2.82136189 24.4197998 2.89056396 C27.80663081 3.03777822 31.19211413 3.20882097 34.57785034 3.37911987 C36.28721663 3.46508867 37.99662891 3.5501477 39.70608521 3.63430786 C97.36408334 6.47586276 97.36408334 6.47586276 119 17 C118.67 17.66 118.34 18.32 118 19 C115.5928204 19.51142348 113.31136853 19.85407268 110.87109375 20.11328125 C110.0852037 20.19757889 109.29931366 20.28187653 108.48960876 20.36872864 C96.10154275 21.52893322 83.63088306 21.26174793 71.20159149 21.19763947 C69.03903694 21.18738878 66.8764998 21.18072754 64.71392822 21.17523193 C30.09021616 21.08606854 -4.46594847 20.67745101 -39 18 C-39 15.36 -39 12.72 -39 10 C-35.06283264 9.20667324 -31.12520561 8.41565042 -27.1875 7.625 C-25.53717773 7.29242188 -25.53717773 7.29242188 -23.85351562 6.953125 C-17.65882326 5.71053184 -11.46096614 4.52217438 -5.2355957 3.44287109 C-2.8433484 3.01769845 -2.8433484 3.01769845 0 2 C0 1.34 0 0.68 0 0 Z " fill="#A3968A" transform="translate(157,97)"/>
<path d="M0 0 C0.61132278 0.04789169 1.22264557 0.09578339 1.85249329 0.14512634 C40.48440867 3.23872851 40.48440867 3.23872851 79.20043945 4.75952148 C85.07173951 4.85929029 90.88256749 5.03284631 96.734375 5.5390625 C102.57828391 6.02821403 108.27367063 6.00065766 114.125 5.6875 C115.0428125 5.65205078 115.960625 5.61660156 116.90625 5.58007812 C118.22496094 5.51530273 118.22496094 5.51530273 119.5703125 5.44921875 C120.35164551 5.41143311 121.13297852 5.37364746 121.93798828 5.3347168 C124.30346887 5.09684315 124.30346887 5.09684315 127 3 C129.91796875 2.8046875 129.91796875 2.8046875 133.1875 2.875 C134.27417969 2.89304687 135.36085937 2.91109375 136.48046875 2.9296875 C137.72763672 2.96449219 137.72763672 2.96449219 139 3 C139 3.66 139 4.32 139 5 C141.64 4.34 144.28 3.68 147 3 C147.625 5.875 147.625 5.875 148 9 C147.34 9.66 146.68 10.32 146 11 C145.75746187 13.21072977 145.75746187 13.21072977 145.875 15.625 C145.89304688 16.44226563 145.91109375 17.25953125 145.9296875 18.1015625 C145.95289063 18.72804688 145.97609375 19.35453125 146 20 C148.94727535 19.89830839 148.94727535 19.89830839 152 19 C153.45291273 16.53744315 153.45291273 16.53744315 154 14 C154.99 14.495 154.99 14.495 156 15 C156 16.32 156 17.64 156 19 C158.475 18.01 158.475 18.01 161 17 C160.57645708 25.29358902 158.55888379 32.86465209 156.25 40.8125 C152.8460715 52.80813382 149.7640422 64.84087206 147 77 C144.525 77.495 144.525 77.495 142 78 C140.33034492 74.66068984 140.74173577 70.86825044 140.625 67.1875 C140.21919981 56.60562464 139.17177923 46.12386536 138.01611328 35.6003418 C137.88575684 34.41093994 137.75540039 33.22153809 137.62109375 31.99609375 C137.44211548 30.40559204 137.44211548 30.40559204 137.25952148 28.78295898 C137 26 137 26 137 22 C136.01 22.33 135.02 22.66 134 23 C129.75325612 23.23164058 126.64397537 23.33214424 123 21 C123 20.34 123 19.68 123 19 C122.34 19 121.68 19 121 19 C119.5216774 16.04335481 119.93967217 13.25770263 120 10 C118.07897461 10.00652588 118.07897461 10.00652588 116.11914062 10.01318359 C102.37824894 10.04504662 88.6435563 9.9236136 74.90478516 9.68261719 C72.63498614 9.64420671 70.36512373 9.60937572 68.09521484 9.578125 C29.12046741 9.0401558 29.12046741 9.0401558 20 6 C18.3022542 5.78626703 16.59928184 5.61265449 14.89453125 5.46484375 C13.91162109 5.37783203 12.92871094 5.29082031 11.91601562 5.20117188 C10.89185547 5.11416016 9.86769531 5.02714844 8.8125 4.9375 C7.77673828 4.84662109 6.74097656 4.75574219 5.67382812 4.66210938 C3.11614956 4.43816517 0.55822541 4.21759327 -2 4 C-1.34 2.68 -0.68 1.36 0 0 Z " fill="#D5C4B2" transform="translate(105,273)"/>
<path d="M0 0 C2.1875 -0.25 2.1875 -0.25 5 0 C5.78375 0.639375 6.5675 1.27875 7.375 1.9375 C10.65335017 4.51334656 12.86906293 4.84978411 17 5 C19.06669397 4.09166275 19.06669397 4.09166275 21 3 C26.16612636 2.42598596 29.44973161 3.76947628 34 6 C34.495 6.495 34.495 6.495 35 7 C36.51928038 7.07179964 38.04167482 7.08392007 39.5625 7.0625 C40.38878906 7.05347656 41.21507812 7.04445312 42.06640625 7.03515625 C43.02353516 7.01775391 43.02353516 7.01775391 44 7 C44 6.34 44 5.68 44 5 C51.75 4.875 51.75 4.875 54 6 C54 6.66 54 7.32 54 8 C59.84036219 9.08888109 61.93901062 9.24422396 67 6 C70.83009075 5.58963313 73.07932296 5.41851977 76.375 7.5 C80.11554588 9.63745479 83.77195821 9.60966146 88 9 C88.99 8.34 89.98 7.68 91 7 C96.59119943 6.62725337 100.59955667 7.45701619 106 9 C109.86713117 9.3919899 113.27841994 9.24052669 117 8 C121.52084787 6.49305071 125.92270747 6.14777743 130.4375 8 C134.18038917 9.46063968 138.02436076 9.53112666 142 9 C142.66 8.34 143.32 7.68 144 7 C149.79932128 4.76949181 155.49924621 5.68389314 161 8 C165.99660784 8.66621438 169.08707958 7.22080206 173.36328125 4.875 C175 4 175 4 176 4 C176.375 6.25 176.375 6.25 176 9 C172.413775 12.2276025 168.97131722 13.68732904 164.14453125 14.12109375 C160.89523802 13.93761818 158.12598098 12.78258563 155.1015625 11.64453125 C151.27717941 10.47162566 148.26463657 11.40281051 144.75 13.0625 C139.86845425 14.72666332 134.23371435 14.92617424 129.4375 12.9375 C125.58730809 11.45665696 121.96913068 12.10465436 118 13 C116.96875 13.53625 115.9375 14.0725 114.875 14.625 C111.12528368 16.41834259 108.98818635 15.96011894 105 15 C102.5625 13.9375 102.5625 13.9375 101 13 C101 12.34 101 11.68 101 11 C98.36 11 95.72 11 93 11 C93 11.66 93 12.32 93 13 C88.45591656 15.63409918 84.13452758 15.57889282 79 15 C77.30280873 14.05273046 75.63064764 13.05771739 74 12 C69.29666807 11.58005965 66.29238232 12.23902264 62 14 C58.41688738 14.3732409 56.66574161 14.4379879 53.625 12.4375 C49.73935564 10.30964714 47.30271804 11.15356366 43 12 C42.34 12.33 41.68 12.66 41 13 C36.04312447 13.37410381 32.96549128 13.12432647 29 10 C29 9.34 29 8.68 29 8 C28.31035156 8.144375 27.62070313 8.28875 26.91015625 8.4375 C11.56 11.46962963 11.56 11.46962963 5.625 8.0625 C4.75875 7.381875 3.8925 6.70125 3 6 C2.01 5.67 1.02 5.34 0 5 C0 3.35 0 1.7 0 0 Z " fill="#B3AEAB" transform="translate(92,132)"/>
<path d="M0 0 C1.32 0.33 2.64 0.66 4 1 C4 2.65 4 4.3 4 6 C6.94727535 5.89830839 6.94727535 5.89830839 10 5 C11.45291273 2.53744315 11.45291273 2.53744315 12 0 C12.66 0.33 13.32 0.66 14 1 C14 2.32 14 3.64 14 5 C15.65 4.34 17.3 3.68 19 3 C18.57645708 11.29358902 16.55888379 18.86465209 14.25 26.8125 C10.8460715 38.80813382 7.7640422 50.84087206 5 63 C2.525 63.495 2.525 63.495 0 64 C-1.12456376 61.75087249 -1.16551598 60.41278733 -1.24609375 57.9140625 C-1.27775635 57.07576904 -1.30941895 56.23747559 -1.34204102 55.3737793 C-1.37354248 54.46668213 -1.40504395 53.55958496 -1.4375 52.625 C-1.73006523 45.2729559 -2.24600435 37.99946538 -3.0625 30.6875 C-4.01186961 22.08452846 -4.21752582 13.65269376 -4 5 C-2.68 5 -1.36 5 0 5 C0 3.35 0 1.7 0 0 Z " fill="#100D0E" transform="translate(247,287)"/>
<path d="M0 0 C0.495 2.97 0.495 2.97 1 6 C1.66 6 2.32 6 3 6 C3.22281874 7.91503674 3.42771076 9.83216506 3.625 11.75 C3.74101562 12.81734375 3.85703125 13.8846875 3.9765625 14.984375 C4.00064428 18.08289735 3.831824 19.5270376 2 22 C-1.625 23.25 -1.625 23.25 -5 24 C-5 26.31 -5 28.62 -5 31 C-6.134375 31.474375 -7.26875 31.94875 -8.4375 32.4375 C-11.75740166 33.63622083 -11.75740166 33.63622083 -13 35 C-14.80927281 35.12487758 -16.62396107 35.17570846 -18.4375 35.1875 C-19.42621094 35.20167969 -20.41492188 35.21585938 -21.43359375 35.23046875 C-24 35 -24 35 -26 33 C-26.94875 32.71125 -27.8975 32.4225 -28.875 32.125 C-32.31497697 30.88660829 -33.81672667 29.91103111 -36 27 C-36.75 23.75 -36.75 23.75 -37 21 C-35.02 21 -33.04 21 -31 21 C-30.99742187 20.35933594 -30.99484375 19.71867187 -30.9921875 19.05859375 C-30.72149398 13.00408206 -29.68256935 9.67344466 -25.47265625 5.27734375 C-22.1241677 2.37295182 -18.74613778 2.61599053 -14.484375 2.640625 C-12 3 -12 3 -8.9375 5.375 C-6.24728251 9.01981079 -5.80204106 11.14635268 -5.4375 15.625 C-5.31181641 17.12933594 -5.31181641 17.12933594 -5.18359375 18.6640625 C-5.12300781 19.43492187 -5.06242187 20.20578125 -5 21 C-3.68 21 -2.36 21 -1 21 C-0.4388866 11.552322 -0.4388866 11.552322 -4 3 C-4.66 2.01 -5.32 1.02 -6 0 C-3.50907189 -1.24546405 -2.58919267 -0.7767578 0 0 Z " fill="#EEE4D6" transform="translate(232,167)"/>
<path d="M0 0 C3.48547368 2.91606461 5.22281991 5.86474415 5.8125 10.375 C5.874375 11.57125 5.93625 12.7675 6 14 C-5.10130979 20.47576404 -20.3456284 22.45587177 -33 22 C-34.61253453 20.38746547 -34.24791423 18.66400957 -34.3125 16.4375 C-34.22184571 11.14177881 -33.36069643 7.17405648 -30 3 C-21.01970885 -4.69021201 -10.09267461 -6.94410518 0 0 Z " fill="#0C090A" transform="translate(149,78)"/>
<path d="M0 0 C4.82441569 4.82441569 7.05768414 11.32184849 8 18 C7.05429591 26.0451447 2.95547735 31.73340249 -3 37 C-9.00424082 40.8103836 -15.11919302 40.30506041 -22 40 C-22 39.67 -22 39.34 -22 39 C-21.22914063 38.95101562 -20.45828125 38.90203125 -19.6640625 38.8515625 C-18.66117188 38.77679688 -17.65828125 38.70203125 -16.625 38.625 C-15.62726563 38.55539063 -14.62953125 38.48578125 -13.6015625 38.4140625 C-10.84491121 38.23636036 -10.84491121 38.23636036 -9 36 C-6.375 35.375 -6.375 35.375 -4 35 C-3.979375 33.906875 -3.95875 32.81375 -3.9375 31.6875 C-3 28 -3 28 -1.375 26.8671875 C0.5625 26.0625 0.5625 26.0625 4 25 C4.62529897 19.9752761 5.13012092 15.07471573 5 10 C4.34 10 3.68 10 3 10 C2.34 8.02 1.68 6.04 1 4 C-0.32 4.33 -1.64 4.66 -3 5 C-2.360625 5.763125 -1.72125 6.52625 -1.0625 7.3125 C2.03645114 11.35052724 2.11576096 14.23423091 2.0625 19.1875 C2.05347656 20.27417969 2.04445312 21.36085937 2.03515625 22.48046875 C2.02355469 23.31191406 2.01195312 24.14335937 2 25 C0.34385343 25.38218767 -1.32457024 25.71395102 -3 26 C-5.09173082 23.90826918 -4.44335641 19.59417121 -4.62109375 16.76171875 C-4.99869788 14.00949074 -5.49215272 12.31544007 -7 10 C-11.28029937 7.14646708 -14.98122856 7.28861651 -20 8 C-24.32206421 10.2003236 -25.46671565 11.4407009 -27.02734375 16.00390625 C-27.79287737 18.99195685 -28.44833163 21.96582395 -29 25 C-30.65 25.33 -32.3 25.66 -34 26 C-34.33 26.99 -34.66 27.98 -35 29 C-38.77398982 23.33901526 -38.66747646 17.64733405 -38 11 C-36.34117467 6.1981372 -33.69961324 3.42214225 -30 0 C-29.505 -0.556875 -29.01 -1.11375 -28.5 -1.6875 C-20.06626571 -9.0670175 -8.21959109 -5.64089585 0 0 Z " fill="#F3E5CF" transform="translate(230,163)"/>
<path d="M0 0 C0.66 0.33 1.32 0.66 2 1 C1.566875 2.051875 1.566875 2.051875 1.125 3.125 C-0.10012215 5.96449962 -0.10012215 5.96449962 -0.5 9 C-2.53069041 13.06138082 -4.9307899 13.8184615 -8.98046875 15.6328125 C-12.45525729 17.20613202 -15.77926658 18.98492128 -19.125 20.8125 C-20.24132812 21.41707031 -21.35765625 22.02164063 -22.5078125 22.64453125 C-23.33023438 23.09183594 -24.15265625 23.53914063 -25 24 C-24.35218746 28.52707926 -22.59772856 32.36882942 -20.65625 36.4609375 C-19.98027131 37.916575 -19.30449639 39.37230713 -18.62890625 40.828125 C-17.56564998 43.1028163 -16.49949448 45.37607283 -15.42919922 47.64746094 C-14.39269805 49.85247727 -13.36768589 52.06256429 -12.34375 54.2734375 C-11.86403748 55.27846817 -11.86403748 55.27846817 -11.37463379 56.30380249 C-9.43019484 60.52002812 -8.34818707 64.3076585 -8 69 C-9 70 -9 70 -11.9375 70.25 C-12.948125 70.1675 -13.95875 70.085 -15 70 C-17 67 -17 67 -17 64 C-17.66 64 -18.32 64 -19 64 C-19.43868408 63.03175293 -19.87736816 62.06350586 -20.3293457 61.06591797 C-21.96636283 57.45357194 -23.60490572 53.84191968 -25.24389648 50.23046875 C-25.9513405 48.67108563 -26.65837763 47.11151785 -27.36499023 45.55175781 C-28.38416825 43.30224017 -29.40483617 41.05340361 -30.42578125 38.8046875 C-30.73840408 38.1138205 -31.05102692 37.42295349 -31.37312317 36.71115112 C-32.76089494 33.65784364 -34.17780387 30.6551207 -35.71557617 27.67236328 C-37 25 -37 25 -37.125 22.4375 C-34.43688502 16.61325088 -26.63160877 13.61733151 -21.0625 10.9375 C-20.39798828 10.61201172 -19.73347656 10.28652344 -19.04882812 9.95117188 C-17.71214944 9.29644565 -16.37458953 8.64351531 -15.03613281 7.99243164 C-12.91261464 6.9574075 -10.79246939 5.91611226 -8.67578125 4.8671875 C-7.72119019 4.39514893 -7.72119019 4.39514893 -6.74731445 3.91357422 C-5.16213775 3.08477288 -3.63816604 2.1414525 -2.125 1.1875 C-1.073125 0.5996875 -1.073125 0.5996875 0 0 Z " fill="#887F75" transform="translate(93,112)"/>
<path d="M0 0 C2.57421875 0.3828125 2.57421875 0.3828125 4.26953125 2.0625 C4.74132812 2.78695312 5.213125 3.51140625 5.69921875 4.2578125 C7.60515912 7.13217662 8.62418054 8.41612036 11.57421875 10.3828125 C13.63131471 10.62336718 13.63131471 10.62336718 15.76171875 10.5078125 C17.01984375 10.4665625 18.27796875 10.4253125 19.57421875 10.3828125 C20.89421875 8.0728125 22.21421875 5.7628125 23.57421875 3.3828125 C25.22421875 3.3828125 26.87421875 3.3828125 28.57421875 3.3828125 C28.86393053 8.98390698 28.73398181 12.53031923 25.57421875 17.3828125 C22.1903963 20.6645707 19.39251731 20.87005575 14.76171875 20.9453125 C9.90733877 20.86938372 6.91172573 20.60743355 3.19921875 17.3828125 C2.33296875 16.3928125 1.46671875 15.4028125 0.57421875 14.3828125 C-1.66438514 15.45771625 -3.52811299 16.4634375 -5.48828125 18.0078125 C-10.57984618 20.39109821 -16.19094176 20.12401018 -21.625 18.87890625 C-24.41607293 17.85492771 -26.15865749 16.76607703 -27.86328125 14.3203125 C-28.68992234 10.00340901 -28.57888059 5.76315478 -28.42578125 1.3828125 C-26.77578125 1.3828125 -25.12578125 1.3828125 -23.42578125 1.3828125 C-22.10578125 4.0228125 -20.78578125 6.6628125 -19.42578125 9.3828125 C-13.69341527 9.84140178 -10.87281578 9.03926311 -6.42578125 5.3828125 C-5.40484375 4.0215625 -5.40484375 4.0215625 -4.36328125 2.6328125 C-2.42578125 0.3828125 -2.42578125 0.3828125 0 0 Z " fill="#120F0F" transform="translate(178.42578125,196.6171875)"/>
<path d="M0 0 C1.0617041 0.0407666 2.1234082 0.0815332 3.21728516 0.12353516 C4.43867187 0.16679932 5.66005859 0.21006348 6.91845703 0.25463867 C7.91462036 0.2932048 7.91462036 0.2932048 8.9309082 0.33255005 C12.51555665 0.47080633 16.10079348 0.59164586 19.68603516 0.71337891 C20.84888031 0.75334236 20.84888031 0.75334236 22.03521729 0.79411316 C32.39850885 1.14252185 42.76494335 1.36708409 53.13134766 1.60009766 C55.07454449 1.64419624 57.01774111 1.68830411 58.9609375 1.73242188 C63.51771212 1.83547009 68.07451824 1.93700325 72.63134766 2.03759766 C72.63134766 2.69759766 72.63134766 3.35759766 72.63134766 4.03759766 C70.32134766 4.69759766 68.01134766 5.35759766 65.63134766 6.03759766 C66.62134766 7.02759766 66.62134766 7.02759766 67.63134766 8.03759766 C67.30134766 8.69759766 66.97134766 9.35759766 66.63134766 10.03759766 C64.13127184 10.06490431 61.63150275 10.08458251 59.13134766 10.10009766 C58.43525391 10.10847656 57.73916016 10.11685547 57.02197266 10.12548828 C56.32587891 10.12871094 55.62978516 10.13193359 54.91259766 10.13525391 C54.28417969 10.14049072 53.65576172 10.14572754 53.00830078 10.15112305 C50.94404059 10.05253215 48.88783829 9.80670866 46.83911133 9.53540039 C42.88325546 9.02025556 39.01879013 8.938533 35.02587891 8.97509766 C34.33878342 8.97888428 33.65168793 8.9826709 32.94377136 8.98657227 C30.77706176 8.99864831 28.6104946 9.01727854 26.44384766 9.03759766 C23.57536153 9.06430195 20.70694312 9.08422253 17.83837891 9.10009766 C15.94309448 9.1175 15.94309448 9.1175 14.00952148 9.13525391 C11.05720459 9.04990833 8.50635493 8.63480787 5.63134766 8.03759766 C2.41023174 8.42093427 2.41023174 8.42093427 -0.36865234 9.03759766 C-0.36865234 8.37759766 -0.36865234 7.71759766 -0.36865234 7.03759766 C-2.01865234 7.03759766 -3.66865234 7.03759766 -5.36865234 7.03759766 C-3.13850978 0.04981762 -3.13850978 0.04981762 0 0 Z " fill="#F0E1CA" transform="translate(119.36865234375,114.96240234375)"/>
<path d="M0 0 C17.03383426 -0.79432388 33.57951246 1.35244114 49 9 C48.67 9.66 48.34 10.32 48 11 C40.79252265 12.40107358 33.1794557 12.13742882 25.86328125 12.09765625 C24.85782761 12.0962413 23.85237396 12.09482635 22.81645203 12.09336853 C19.64843596 12.0878326 16.48049421 12.07529266 13.3125 12.0625 C11.14648541 12.0574767 8.98046969 12.05291526 6.81445312 12.04882812 C1.54294398 12.03788428 -3.7285227 12.02121154 -9 12 C-9.33 10.02 -9.66 8.04 -10 6 C-9.34 6 -8.68 6 -8 6 C-8 5.34 -8 4.68 -8 4 C-7.38125 3.87625 -6.7625 3.7525 -6.125 3.625 C-3.80879168 3.12802644 -3.80879168 3.12802644 -2 1 C-1.67 1.33 -1.34 1.66 -1 2 C-0.67 1.34 -0.34 0.68 0 0 Z " fill="#8D8178" transform="translate(227,105)"/>
<path d="M0 0 C2.31 0 4.62 0 7 0 C7.14334058 6.44122323 7.28564815 12.8824687 7.42724609 19.32373047 C7.47551208 21.51383986 7.52401235 23.70394411 7.57275391 25.89404297 C7.64287291 29.04653614 7.71214243 32.19904702 7.78125 35.3515625 C7.80312378 36.32678864 7.82499756 37.30201477 7.84753418 38.30679321 C7.88655869 40.10103734 7.92212039 41.89536191 7.95336914 43.6897583 C7.99232542 45.61977665 8.06176585 47.54914843 8.13867188 49.47802734 C8 52 8 52 6 55 C3.08285199 55.27570606 0.4113174 55.3722561 -2.5 55.3125 C-3.67755859 55.31733398 -3.67755859 55.31733398 -4.87890625 55.32226562 C-10.73296131 55.26703869 -10.73296131 55.26703869 -13 53 C-12.67 51.35 -12.34 49.7 -12 48 C-6.555 47.505 -6.555 47.505 -1 47 C-1.00785522 45.23740845 -1.00785522 45.23740845 -1.01586914 43.43920898 C-1.03404118 39.05770639 -1.04547646 34.67620709 -1.05493164 30.29467773 C-1.05994403 28.40241942 -1.06675567 26.51016495 -1.07543945 24.61791992 C-1.08764098 21.88980152 -1.09325938 19.16173457 -1.09765625 16.43359375 C-1.10281754 15.59477158 -1.10797882 14.7559494 -1.11329651 13.89170837 C-1.11374383 9.1519999 -0.79326968 4.67452688 0 0 Z " fill="#887F76" transform="translate(187,295)"/>
<path d="M0 0 C2.31 0 4.62 0 7 0 C7.69311832 12.92038912 8.13766764 25.8444779 8.23217773 38.78317261 C8.2440604 40.17785967 8.26115156 41.57251207 8.28344727 42.96707153 C8.31320821 44.93360806 8.3211432 46.90043819 8.328125 48.8671875 C8.34214355 50.57044189 8.34214355 50.57044189 8.35644531 52.30810547 C8.23881836 53.19643066 8.12119141 54.08475586 8 55 C4.18894923 57.54070051 1.31435307 57.15363256 -3.0625 56.875 C-4.16174805 56.84019531 -4.16174805 56.84019531 -5.28320312 56.8046875 C-7.41015625 56.6796875 -7.41015625 56.6796875 -11 56 C-12.49609375 53.9453125 -12.49609375 53.9453125 -13 52 C-12.34 51.01 -11.68 50.02 -11 49 C-5.555 48.505 -5.555 48.505 0 48 C0 32.16 0 16.32 0 0 Z " fill="#857C73" transform="translate(159,294)"/>
<path d="M0 0 C0 0.66 0 1.32 0 2 C1.09054688 2.37898437 1.09054688 2.37898437 2.203125 2.765625 C5.1994418 4.0880218 7.25135866 5.6433024 9.75 7.75 C12.95392302 10.38349163 16.15381466 12.85491685 19.625 15.125 C31.66202126 23.02831111 31.66202126 23.02831111 33 26.875 C33 27.57625 33 28.2775 33 29 C29.96332761 31.55682086 27.33051924 32.69303827 23.5 33.6875 C22.5615625 33.93886719 21.623125 34.19023437 20.65625 34.44921875 C18 35 18 35 14 35 C13.67 32.03 13.34 29.06 13 26 C14.32 26 15.64 26 17 26 C12.16982807 20.86794233 6.74937189 16.81458545 0.875 12.9375 C-2.36919844 10.75119236 -5.19421154 8.73898398 -8 6 C-8.375 3.1875 -8.375 3.1875 -8 1 C-5.29120665 -0.35439668 -2.99066732 -0.06501451 0 0 Z " fill="#887D73" transform="translate(244,246)"/>
<path d="M0 0 C1.09570312 0.00902344 2.19140625 0.01804687 3.3203125 0.02734375 C4.16335937 0.03894531 5.00640625 0.05054688 5.875 0.0625 C5.875 0.7225 5.875 1.3825 5.875 2.0625 C8.515 1.4025 11.155 0.7425 13.875 0.0625 C14.79393304 3.65469279 15.12645386 5.48415612 13.625 8.9375 C12.75875 9.989375 12.75875 9.989375 11.875 11.0625 C10.885 11.0625 9.895 11.0625 8.875 11.0625 C8.875 12.7125 8.875 14.3625 8.875 16.0625 C7.555 16.0625 6.235 16.0625 4.875 16.0625 C4.875 18.3725 4.875 20.6825 4.875 23.0625 C4.545 21.7425 4.215 20.4225 3.875 19.0625 C2.885 19.3925 1.895 19.7225 0.875 20.0625 C-3.37174388 20.29414058 -6.48102463 20.39464424 -10.125 18.0625 C-10.125 17.4025 -10.125 16.7425 -10.125 16.0625 C-10.785 16.0625 -11.445 16.0625 -12.125 16.0625 C-12.75317259 5.94194162 -12.75317259 5.94194162 -10.25 2.4375 C-6.56815977 0.05513279 -4.39457738 -0.04675082 0 0 Z " fill="#847A6F" transform="translate(238.125,275.9375)"/>
<path d="M0 0 C6.15234375 -0.09765625 6.15234375 -0.09765625 8 0 C9 1 9 1 9.0625 3.5625 C9.041875 4.366875 9.02125 5.17125 9 6 C-0.38287149 11.42362514 -9.46815383 13.90202268 -20 16 C-21.0725 16.226875 -22.145 16.45375 -23.25 16.6875 C-28.59543532 17.75658706 -33.55127162 18.20561239 -39 18 C-39 15.36 -39 12.72 -39 10 C-35.06283264 9.20667324 -31.12520561 8.41565042 -27.1875 7.625 C-25.53717773 7.29242188 -25.53717773 7.29242188 -23.85351562 6.953125 C-17.65882326 5.71053184 -11.46096614 4.52217438 -5.2355957 3.44287109 C-2.8433484 3.01769845 -2.8433484 3.01769845 0 2 C0 1.34 0 0.68 0 0 Z " fill="#0D0A0B" transform="translate(157,97)"/>
<path d="M0 0 C3.58028617 1.58926895 6.95296731 2.47399449 10.8125 3.125 C11.78832031 3.29257813 12.76414063 3.46015625 13.76953125 3.6328125 C14.50558594 3.75398438 15.24164063 3.87515625 16 4 C16 4.66 16 5.32 16 6 C18.475 6.495 18.475 6.495 21 7 C21 7.33 21 7.66 21 8 C-21.07056743 8.18954647 -21.07056743 8.18954647 -34 7.625 C-34.82072998 7.59414307 -35.64145996 7.56328613 -36.48706055 7.53149414 C-41.7493398 7.2506602 -41.7493398 7.2506602 -44 5 C-42.98164062 4.84144531 -41.96328125 4.68289062 -40.9140625 4.51953125 C-39.48397313 4.28630512 -38.05431785 4.05040865 -36.625 3.8125 C-35.86638672 3.68665527 -35.10777344 3.56081055 -34.32617188 3.43115234 C-29.36203255 2.55662493 -24.63058048 1.34598547 -19.82055664 -0.15332031 C-12.35003238 -2.47661013 -7.179973 -4.0435394 0 0 Z " fill="#EC6518" transform="translate(170,109)"/>
<path d="M0 0 C3.96176021 2.89884894 6.02265582 6.25546747 7.5625 10.875 C7.631491 12.93645107 7.64717727 15.00001401 7.625 17.0625 C7.61597656 18.14917969 7.60695312 19.23585937 7.59765625 20.35546875 C7.58605469 21.18691406 7.57445312 22.01835937 7.5625 22.875 C5.90635343 23.25718767 4.23792976 23.58895102 2.5625 23.875 C0.80937316 22.12187316 1.351682 19.50726406 1.25 17.125 C0.94582869 13.42204495 0.63090985 11.02322135 -0.9375 7.625 C-4.69929948 4.99174037 -7.99154393 5.16488202 -12.4375 5.875 C-16.56541884 7.40385883 -19.44167983 8.88335965 -21.4375 12.875 C-21.96541172 15.86649977 -22.24971382 18.84451951 -22.4375 21.875 C-24.4175 21.875 -26.3975 21.875 -28.4375 21.875 C-28.81086527 14.78105989 -27.57004397 10.22614052 -23.6875 4.125 C-17.29736044 -2.26513956 -8.30665096 -2.71854031 0 0 Z " fill="#272423" transform="translate(158.4375,163.125)"/>
<path d="M0 0 C4.746731 2.87093563 7.82301818 5.67608579 9.60546875 11.0234375 C9.67445975 13.08488857 9.69014602 15.14845151 9.66796875 17.2109375 C9.65894531 18.29761719 9.64992187 19.38429687 9.640625 20.50390625 C9.62902344 21.33535156 9.61742187 22.16679687 9.60546875 23.0234375 C7.94932218 23.40562517 6.28089851 23.73738852 4.60546875 24.0234375 C2.51373793 21.93170668 3.16211234 17.61760871 2.984375 14.78515625 C2.60677087 12.03292824 2.11331603 10.33887757 0.60546875 8.0234375 C-3.67081866 5.17257923 -7.37955261 5.30478012 -12.39453125 6.0234375 C-16.54493278 8.21183103 -17.80965016 9.44003317 -19.421875 13.8046875 C-20.18473399 16.53269936 -20.84006774 19.24625624 -21.39453125 22.0234375 C-22.71453125 22.0234375 -24.03453125 22.0234375 -25.39453125 22.0234375 C-25.86693615 14.76677329 -25.85268123 9.92747396 -21.39453125 4.0234375 C-15.50623362 -1.43400909 -7.61848985 -3.10705133 0 0 Z " fill="#171414" transform="translate(222.39453125,164.9765625)"/>
<path d="M0 0 C0.33 0 0.66 0 1 0 C1.495 4.95 1.495 4.95 2 10 C0.63746094 10.26554687 -0.72507813 10.53109375 -2.12890625 10.8046875 C-3.94013486 11.16130246 -5.75133108 11.51808201 -7.5625 11.875 C-8.45775391 12.04902344 -9.35300781 12.22304687 -10.27539062 12.40234375 C-17.72278401 13.87364613 -17.72278401 13.87364613 -25 16 C-25.33 16.66 -25.66 17.32 -26 18 C-23.69 18.66 -21.38 19.32 -19 20 C-20.79616598 21.79616598 -22.26734579 22.86491046 -24.4375 24.125 C-25.03433594 24.47820312 -25.63117188 24.83140625 -26.24609375 25.1953125 C-28 26 -28 26 -31 26 C-30.34 24.68 -29.68 23.36 -29 22 C-29.825 21.608125 -30.65 21.21625 -31.5 20.8125 C-34 19 -34 19 -34.6875 16.625 C-33.65946754 12.69978513 -31.35746443 10.98454778 -28 9 C-19.46702657 5.08208246 -9.41536349 2 0 2 C0 1.34 0 0.68 0 0 Z " fill="#EFE3D4" transform="translate(114,91)"/>
<path d="M0 0 C5.7510492 0.34184558 11.33371064 -0.01455837 17 -1 C16 2 16 2 14 3 C14 3.66 14 4.32 14 5 C15.32 4.67 16.64 4.34 18 4 C18 4.99 18 5.98 18 7 C16.68 6.67 15.36 6.34 14 6 C14.7734375 7.1446875 14.7734375 7.1446875 15.5625 8.3125 C16.036875 9.199375 16.51125 10.08625 17 11 C16.67 11.99 16.34 12.98 16 14 C15.01 14.33 14.02 14.66 13 15 C13 14.34 13 13.68 13 13 C12.01 12.896875 11.02 12.79375 10 12.6875 C5.71702837 12.09191294 2.00003629 10.61404973 -2 9 C-2 8.01 -2 7.02 -2 6 C-3.27875 6.020625 -4.5575 6.04125 -5.875 6.0625 C-9.75 6.125 -9.75 6.125 -12 5 C-12.33 4.01 -12.66 3.02 -13 2 C-13.99 1.34 -14.98 0.68 -16 0 C-9.88530818 -2.07899522 -6.05857519 -2.01952506 0 0 Z " fill="#E0CEB9" transform="translate(224,145)"/>
<path d="M0 0 C1.4606285 2.64738916 2 3.89448334 2 7 C3.98 7 5.96 7 8 7 C8 7.33 8 7.66 8 8 C6.02 8 4.04 8 2 8 C2 8.66 2 9.32 2 10 C-0.98044269 11.98696179 -2.32366254 12.39240086 -5.75 12.9375 C-10.38865612 13.70548942 -14.96649273 14.63315649 -19.5625 15.625 C-25.47303966 16.82765582 -30.98287211 17.3822646 -37 17 C-37.33 15.35 -37.66 13.7 -38 12 C-32.99157637 10.11580204 -28.13849103 9.34709009 -22.875 8.625 C-11.59549008 7.00347759 -11.59549008 7.00347759 -1 3 C-0.67 2.01 -0.34 1.02 0 0 Z " fill="#9D9A99" transform="translate(155,89)"/>
<path d="M0 0 C0.33 0 0.66 0 1 0 C1.33 10.89 1.66 21.78 2 33 C2.66 28.38 3.32 23.76 4 19 C4.99 19.33 5.98 19.66 7 20 C10.77246234 31.31738702 5.89612891 43.93771187 3 55 C0.525 55.495 0.525 55.495 -2 56 C-3.53266582 52.93466836 -3.10276471 49.73245728 -3.0625 46.375 C-3.05798828 45.66859375 -3.05347656 44.9621875 -3.04882812 44.234375 C-3.03703875 42.48954725 -3.01910324 40.744763 -3 39 C-2.67 39.99 -2.34 40.98 -2 42 C-1.34 42 -0.68 42 0 42 C0 28.14 0 14.28 0 0 Z " fill="#292828" transform="translate(249,295)"/>
<path d="M0 0 C23.1 0 46.2 0 70 0 C69.67 3.63 69.34 7.26 69 11 C68.67 11 68.34 11 68 11 C68 8.69 68 6.38 68 4 C66.80632812 4.01160156 65.61265625 4.02320313 64.3828125 4.03515625 C52.39310574 4.11191494 40.42124936 3.90683427 28.4375 3.5625 C27.35943085 3.5330278 27.35943085 3.5330278 26.25958252 3.50296021 C17.1499449 3.2502828 8.08116289 2.79745154 -1 2 C-0.67 1.34 -0.34 0.68 0 0 Z " fill="#CBBBAB" transform="translate(157,279)"/>
<path d="M0 0 C0.66 0.33 1.32 0.66 2 1 C2 2.32 2 3.64 2 5 C3.65 4.34 5.3 3.68 7 3 C6.56368207 11.05422399 4.70341791 18.40741822 2.4375 26.125 C1.9434668 27.84589844 1.9434668 27.84589844 1.43945312 29.6015625 C0.63393963 32.40334858 -0.17932967 35.20262355 -1 38 C-1.33 38 -1.66 38 -2 38 C-2.12375 36.865625 -2.2475 35.73125 -2.375 34.5625 C-2.58125 33.386875 -2.7875 32.21125 -3 31 C-3.66 30.67 -4.32 30.34 -5 30 C-4.90912109 29.12601562 -4.90912109 29.12601562 -4.81640625 28.234375 C-4.12772567 21.49590043 -3.54522381 14.75149484 -3 8 C-3.99 7.34 -4.98 6.68 -6 6 C-5.38125 5.938125 -4.7625 5.87625 -4.125 5.8125 C-1.72238859 5.171081 -1.72238859 5.171081 -0.75 2.4375 C-0.5025 1.633125 -0.255 0.82875 0 0 Z " fill="#090606" transform="translate(259,287)"/>
<path d="M0 0 C6.6 0 13.2 0 20 0 C20.33 2.97 20.66 5.94 21 9 C21.66 9.33 22.32 9.66 23 10 C22 11 22 11 19.40795898 11.11352539 C18.28204346 11.10828857 17.15612793 11.10305176 15.99609375 11.09765625 C14.78115234 11.09443359 13.56621094 11.09121094 12.31445312 11.08789062 C11.03505859 11.07951172 9.75566406 11.07113281 8.4375 11.0625 C7.15423828 11.05798828 5.87097656 11.05347656 4.54882812 11.04882812 C1.36583978 11.03699545 -1.81705762 11.02051068 -5 11 C-5 10.67 -5 10.34 -5 10 C-1.535 9.505 -1.535 9.505 2 9 C1.67 8.2575 1.34 7.515 1 6.75 C0 4 0 4 0 0 Z " fill="#DECBB7" transform="translate(205,283)"/>
<path d="M0 0 C0.375 2.25 0.375 2.25 0 5 C-3.586225 8.2276025 -7.02868278 9.68732904 -11.85546875 10.12109375 C-15.10476198 9.93761818 -17.87401902 8.78258563 -20.8984375 7.64453125 C-24.74585764 6.46456039 -27.76437871 7.43228211 -31.3125 9.0625 C-35.19648431 10.41737825 -38.92587303 10.15976969 -43 10 C-43.33 8.68 -43.66 7.36 -44 6 C-42.95199219 5.92652344 -42.95199219 5.92652344 -41.8828125 5.8515625 C-40.97273437 5.77679688 -40.06265625 5.70203125 -39.125 5.625 C-37.76761719 5.52058594 -37.76761719 5.52058594 -36.3828125 5.4140625 C-33.82058097 5.20431868 -33.82058097 5.20431868 -32 3 C-26.20067872 0.76949181 -20.50075379 1.68389314 -15 4 C-10.00339216 4.66621438 -6.91292042 3.22080206 -2.63671875 0.875 C-1 0 -1 0 0 0 Z " fill="#979595" transform="translate(268,136)"/>
<path d="M0 0 C3.5625 0.25 3.5625 0.25 6.5625 2.25 C7.00390625 4.37890625 7.00390625 4.37890625 7.125 6.8125 C7.20940135 9.18738847 7.20940135 9.18738847 7.5625 11.25 C8.2225 11.58 8.8825 11.91 9.5625 12.25 C9.25467504 13.89671412 8.94110766 15.54235576 8.625 17.1875 C8.45097656 18.10402344 8.27695312 19.02054687 8.09765625 19.96484375 C7.5625 22.25 7.5625 22.25 6.5625 23.25 C4.56291636 23.29080783 2.56204746 23.29254356 0.5625 23.25 C0.34075067 21.79364629 0.13551302 20.33477044 -0.0625 18.875 C-0.17851562 18.06289063 -0.29453125 17.25078125 -0.4140625 16.4140625 C-0.42179688 15.69992187 -0.42953125 14.98578125 -0.4375 14.25 C0.2225 13.59 0.8825 12.93 1.5625 12.25 C1.72931109 9.16652174 1.72931109 9.16652174 1.5625 6.25 C0.5725 6.91 -0.4175 7.57 -1.4375 8.25 C-4.125 8.375 -4.125 8.375 -6.4375 8.25 C-5.41275938 0.39365523 -5.41275938 0.39365523 0 0 Z " fill="#E9B63A" transform="translate(250.4375,269.75)"/>
<path d="M0 0 C-0.5625 1.875 -0.5625 1.875 -2 4 C-4.32315031 4.7013284 -6.65789079 5.36485174 -9 6 C-12.13972092 8.16291886 -13.87819503 9.81729255 -16 13 C-16.45394552 15.27912938 -16.45394552 15.27912938 -16.625 17.6875 C-16.69976562 18.49574219 -16.77453125 19.30398437 -16.8515625 20.13671875 C-16.90054688 20.75160156 -16.94953125 21.36648437 -17 22 C-18.98 22 -20.96 22 -23 22 C-23.37509455 14.8732036 -22.03499648 10.3916608 -18.3125 4.1875 C-13.27842517 -0.57446267 -6.53415469 -0.23336267 0 0 Z " fill="#120E0E" transform="translate(153,163)"/>
<path d="M0 0 C5.61 0 11.22 0 17 0 C13 2 13 2 10.875 2.4375 C8.60539429 2.90121021 8.60539429 2.90121021 7 6 C6.34 6 5.68 6 5 6 C4.34 7.98 3.68 9.96 3 12 C-0.96 12 -4.92 12 -9 12 C-9.33 10.02 -9.66 8.04 -10 6 C-9.34 6 -8.68 6 -8 6 C-8 5.34 -8 4.68 -8 4 C-7.38125 3.87625 -6.7625 3.7525 -6.125 3.625 C-3.80879168 3.12802644 -3.80879168 3.12802644 -2 1 C-1.67 1.33 -1.34 1.66 -1 2 C-0.67 1.34 -0.34 0.68 0 0 Z " fill="#938981" transform="translate(227,105)"/>
<path d="M0 0 C2.64 0.33 5.28 0.66 8 1 C7.71536919 3.83419612 7.42249381 6.66714854 7.125 9.5 C7.04636719 10.29148437 6.96773437 11.08296875 6.88671875 11.8984375 C6.33219121 17.10246522 5.31714526 21.93722289 4 27 C3.59359154 29.32806821 3.21603689 31.66146129 2.875 34 C2.70742187 35.134375 2.53984375 36.26875 2.3671875 37.4375 C2.18542969 38.7059375 2.18542969 38.7059375 2 40 C1.67 40 1.34 40 1 40 C0.67 26.8 0.34 13.6 0 0 Z " fill="#0A0708" transform="translate(249,293)"/>
<path d="M0 0 C1.9375 0.1875 1.9375 0.1875 4 1 C5.25 3.0625 5.25 3.0625 6 5 C7.98 5 9.96 5 12 5 C12.33 3.68 12.66 2.36 13 1 C14.98 1 16.96 1 19 1 C18.72671902 4.55265269 18.38829012 7.31166751 16.625 10.4375 C12.31278574 13.0042942 7.87105228 12.85003189 3 12 C0.3125 9.875 0.3125 9.875 -1 7 C-1.3125 3.75 -1.3125 3.75 -1 1 C-0.67 0.67 -0.34 0.34 0 0 Z " fill="#8A7F74" transform="translate(169,219)"/>
<path d="M0 0 C0.99 0.33 1.98 0.66 3 1 C4.7015625 0.87625 4.7015625 0.87625 6.4375 0.75 C12.44625473 0.61522419 17.66532964 3.51048717 23 6 C22.67 6.66 22.34 7.32 22 8 C12.76 8 3.52 8 -6 8 C-4.21844267 4.43688534 -2.83236991 2.64354525 0 0 Z " fill="#877C72" transform="translate(253,108)"/>
<path d="M0 0 C5.92023539 5.61663358 5.92023539 5.61663358 6.09765625 10.91796875 C6.08605469 11.99691406 6.07445312 13.07585937 6.0625 14.1875 C6.05347656 15.27417969 6.04445312 16.36085937 6.03515625 17.48046875 C6.02355469 18.31191406 6.01195312 19.14335937 6 20 C4.34385343 20.38218767 2.67542976 20.71395102 1 21 C-0.68045607 19.31954393 -0.28516903 17.11611727 -0.4375 14.8125 C-0.77827159 10.59132939 -1.39620542 6.95602664 -3 3 C-2.01 2.01 -1.02 1.02 0 0 Z " fill="#2E2B2A" transform="translate(226,168)"/>
<path d="M0 0 C4.35504806 0.27934824 8.70878344 0.57566803 13.0625 0.875 C14.29162109 0.95363281 15.52074219 1.03226562 16.78710938 1.11328125 C22.78282072 1.53346587 28.31749682 1.99043721 34 4 C33.67 4.66 33.34 5.32 33 6 C21.24855547 6.39910566 9.67755012 5.1823775 -2 4 C-1.34 2.68 -0.68 1.36 0 0 Z " fill="#D1C0B0" transform="translate(105,273)"/>
<path d="M0 0 C3.78114111 1.21536679 5.31356906 3.4978284 7.10546875 6.953125 C9.94675232 13.45457736 10.63486321 18.71760037 8.2421875 25.50390625 C5.35525895 31.30499852 1.18929692 35.61063849 -4.25 39.0625 C-9.5254298 40.38135745 -14.59255561 40.23973891 -20 40 C-20 39.67 -20 39.34 -20 39 C-19.22914063 38.95101562 -18.45828125 38.90203125 -17.6640625 38.8515625 C-16.66117188 38.77679688 -15.65828125 38.70203125 -14.625 38.625 C-13.62726563 38.55539063 -12.62953125 38.48578125 -11.6015625 38.4140625 C-8.84491121 38.23636036 -8.84491121 38.23636036 -7 36 C-4.375 35.375 -4.375 35.375 -2 35 C-1.979375 33.906875 -1.95875 32.81375 -1.9375 31.6875 C-1 28 -1 28 0.625 26.8671875 C2.5625 26.0625 2.5625 26.0625 6 25 C6.62529897 19.9752761 7.13012092 15.07471573 7 10 C6.34 10 5.68 10 5 10 C4.28385417 8.27473958 3.56770833 6.54947917 2.8515625 4.82421875 C1.93193308 2.73466068 1.93193308 2.73466068 0 0 Z " fill="#F5E1BB" transform="translate(228,163)"/>
<path d="M0 0 C0.66 0.33 1.32 0.66 2 1 C2 2.65 2 4.3 2 6 C1.195625 5.649375 0.39125 5.29875 -0.4375 4.9375 C-5.33069064 3.64981825 -10.44458097 3.63777274 -15.0078125 6.0703125 C-18.40928697 7.65766725 -21.37339499 6.60443417 -25 6 C-24.67 5.01 -24.34 4.02 -24 3 C-20.7 2.67 -17.4 2.34 -14 2 C-14 1.34 -14 0.68 -14 0 C-9.20863728 -1.59712091 -4.74150731 -1.58050244 0 0 Z " fill="#ACA9A8" transform="translate(223,140)"/>
<path d="M0 0 C2.6875 1.75 2.6875 1.75 3.5625 4.4375 C3.60375 5.200625 3.645 5.96375 3.6875 6.75 C3.048125 6.585 2.40875 6.42 1.75 6.25 C-1.66733709 5.69206741 -4.87179727 5.71966178 -8.32421875 5.8125 C-10.3125 5.75 -10.3125 5.75 -12.3125 4.75 C-12.6425 3.76 -12.9725 2.77 -13.3125 1.75 C-14.3025 1.09 -15.2925 0.43 -16.3125 -0.25 C-9.94552992 -2.41476983 -6.23696071 -2.35357008 0 0 Z " fill="#E1D1BE" transform="translate(224.3125,145.25)"/>
<path d="M0 0 C0.5775 0.226875 1.155 0.45375 1.75 0.6875 C0.48046875 2.15234375 -0.7890625 3.6171875 -2.05859375 5.08203125 C-4.40089652 8.23838023 -4.49987305 11.5788156 -4.8125 15.375 C-4.89628906 16.36886719 -4.98007813 17.36273438 -5.06640625 18.38671875 C-5.12699219 19.14597656 -5.18757812 19.90523437 -5.25 20.6875 C-3.93 21.0175 -2.61 21.3475 -1.25 21.6875 C-2.9 22.0175 -4.55 22.3475 -6.25 22.6875 C-6.58 23.6775 -6.91 24.6675 -7.25 25.6875 C-11.06636773 19.96294841 -10.54282789 14.39000505 -10.25 7.6875 C-9.92 7.6875 -9.59 7.6875 -9.25 7.6875 C-8.92 11.3175 -8.59 14.9475 -8.25 18.6875 C-8.29125 16.975625 -8.3325 15.26375 -8.375 13.5 C-8.47464919 9.36455865 -8.08673217 6.41917063 -6.25 2.6875 C-3.12804878 -0.43445122 -3.12804878 -0.43445122 0 0 Z " fill="#D9CCB8" transform="translate(202.25,166.3125)"/>
<path d="M0 0 C0.33 0 0.66 0 1 0 C1 3.96 1 7.92 1 12 C1.66 12.33 2.32 12.66 3 13 C3.33 11.68 3.66 10.36 4 9 C4.66 9.33 5.32 9.66 6 10 C4.35 16.27 2.7 22.54 1 29 C0.67 29 0.34 29 0 29 C-0.12375 27.865625 -0.2475 26.73125 -0.375 25.5625 C-0.58125 24.386875 -0.7875 23.21125 -1 22 C-1.66 21.67 -2.32 21.34 -3 21 C-2.41523944 13.90593106 -1.36766005 6.98436101 0 0 Z " fill="#292626" transform="translate(257,296)"/>
<path d="M0 0 C0.33 0.99 0.66 1.98 1 3 C2.32 3 3.64 3 5 3 C6.9078584 6.1749094 7.1609041 8.10585211 6.625 11.75 C6.51414063 12.54921875 6.40328125 13.3484375 6.2890625 14.171875 C6.19367188 14.77515625 6.09828125 15.3784375 6 16 C4.35 16.33 2.7 16.66 1 17 C-0.53266582 13.93466836 -0.10276471 10.73245728 -0.0625 7.375 C-0.05798828 6.66859375 -0.05347656 5.9621875 -0.04882812 5.234375 C-0.03703875 3.48954725 -0.01910324 1.744763 0 0 Z " fill="#5E5A56" transform="translate(246,334)"/>
<path d="M0 0 C-0.54226981 3.79588866 -2.20127563 5.47211993 -5 8 C-7.97 7.01 -10.94 6.02 -14 5 C-13.67 4.01 -13.34 3.02 -13 2 C-8.56971812 0.34950283 -4.70949382 -0.22973141 0 0 Z " fill="#DE6B2B" transform="translate(102,104)"/>
<path d="M0 0 C3.3 0.33 6.6 0.66 10 1 C10 1.66 10 2.32 10 3 C11.32 3.33 12.64 3.66 14 4 C10.16412785 6.70767446 7.68470335 7.48798993 3 7 C0.125 6 0.125 6 -2 5 C-1.34 4.34 -0.68 3.68 0 3 C0 2.01 0 1.02 0 0 Z " fill="#D8C6B5" transform="translate(250,134)"/>
<path d="M0 0 C7.42857143 -0.14285714 7.42857143 -0.14285714 11 1 C11 1.66 11 2.32 11 3 C13.475 3.495 13.475 3.495 16 4 C16 4.33 16 4.66 16 5 C4.45 5 -7.1 5 -19 5 C-19 4.67 -19 4.34 -19 4 C-10.75 4 -2.5 4 6 4 C6 3.34 6 2.68 6 2 C3.03 1.505 3.03 1.505 0 1 C0 0.67 0 0.34 0 0 Z " fill="#E06827" transform="translate(175,112)"/>
<path d="M0 0 C6.93 0 13.86 0 21 0 C20.67 0.99 20.34 1.98 20 3 C13.4 3 6.8 3 0 3 C0 2.01 0 1.02 0 0 Z " fill="#A9A39F" transform="translate(206,279)"/>
<path d="M0 0 C0.91893304 3.59219279 1.25145386 5.42165612 -0.25 8.875 C-0.8275 9.57625 -1.405 10.2775 -2 11 C-2.99 11 -3.98 11 -5 11 C-5 12.65 -5 14.3 -5 16 C-5.66 16 -6.32 16 -7 16 C-7 13.36 -7 10.72 -7 8 C-6.34 8 -5.68 8 -5 8 C-4.34 6.68 -3.68 5.36 -3 4 C-4.65 3.67 -6.3 3.34 -8 3 C-8 2.67 -8 2.34 -8 2 C-2.25 0 -2.25 0 0 0 Z " fill="#AB9382" transform="translate(252,276)"/>
<path d="M0 0 C0.474375 0.66 0.94875 1.32 1.4375 2 C2.2109375 2.99 2.2109375 2.99 3 4 C3.33 4 3.66 4 4 4 C4 7.3 4 10.6 4 14 C2.02 14 0.04 14 -2 14 C-2.1799928 8.78020872 -1.97094808 4.92737019 0 0 Z M0 4 C1 6 1 6 1 6 Z " fill="#292524" transform="translate(132,171)"/>
<path d="M0 0 C2.4375 0.75 2.4375 0.75 4.4375 1.75 C4.4375 2.41 4.4375 3.07 4.4375 3.75 C3.7775 3.75 3.1175 3.75 2.4375 3.75 C2.4375 6.06 2.4375 8.37 2.4375 10.75 C2.1075 9.43 1.7775 8.11 1.4375 6.75 C-1.5325 6.75 -4.5025 6.75 -7.5625 6.75 C-3.99273256 -0.38953488 -3.99273256 -0.38953488 0 0 Z " fill="#7C746B" transform="translate(240.5625,288.25)"/>
<path d="M0 0 C1.27812912 3.83438735 0.27257847 5.2233155 -1 9 C-2.05080386 18.33556269 -0.9132886 25.04940572 4 33 C4.67940342 34.32688855 5.35038674 35.65827542 6 37 C1.7090066 35.56966887 0.47389306 33.26187214 -1.7578125 29.42578125 C-3.37008448 24.97935821 -3.56114116 21.01135649 -3.5625 16.3125 C-3.56467529 15.50506348 -3.56685059 14.69762695 -3.5690918 13.86572266 C-3.42378977 8.56628015 -2.37784459 4.73666642 0 0 Z " fill="#F7DEAA" transform="translate(188,165)"/>
<path d="M0 0 C7.75 -0.125 7.75 -0.125 10 1 C10 1.66 10 2.32 10 3 C10.66 3 11.32 3 12 3 C12.12375 3.804375 12.2475 4.60875 12.375 5.4375 C12.58125 6.283125 12.7875 7.12875 13 8 C13.66 8.33 14.32 8.66 15 9 C11.62537285 8.45276317 9.91765 7.9451 7 6 C4.66800612 5.92094936 2.33167378 5.91201231 0 6 C1 4 1 4 4 3 C4.33 2.34 4.66 1.68 5 1 C3.35 1 1.7 1 0 1 C0 0.67 0 0.34 0 0 Z " fill="#B8B3AE" transform="translate(136,137)"/>
<path d="M0 0 C5.2484121 3.39397316 10.39854212 6.75250041 15 11 C15 11.66 15 12.32 15 13 C13.0625 12.625 13.0625 12.625 11 12 C10.67 11.34 10.34 10.68 10 10 C7.97536745 9.34786708 7.97536745 9.34786708 6 9 C6 8.67 6 8.34 6 8 C3.36 7.34 0.72 6.68 -2 6 C-0.68 5.67 0.64 5.34 2 5 C1.34 3.35 0.68 1.7 0 0 Z " fill="#D3C0AC" transform="translate(246,259)"/>
<path d="M0 0 C2.00720923 0.28674418 4.0085944 0.61866701 6 1 C6 1.99 6 2.98 6 4 C5.360625 4.268125 4.72125 4.53625 4.0625 4.8125 C1.66868314 5.88667752 1.66868314 5.88667752 1 9 C1.66 9 2.32 9 3 9 C3 9.66 3 10.32 3 11 C1.68 11.33 0.36 11.66 -1 12 C-2.08718377 7.92306087 -1.95306309 5.12994007 -1 1 C-0.67 0.67 -0.34 0.34 0 0 Z " fill="#E1CEBA" transform="translate(239,199)"/>
<path d="M0 0 C0.66 0.33 1.32 0.66 2 1 C2 4.96 2 8.92 2 13 C0.68 13 -0.64 13 -2 13 C-2.05391993 11.20866022 -2.09275571 9.41686101 -2.125 7.625 C-2.14820313 6.62726563 -2.17140625 5.62953125 -2.1953125 4.6015625 C-2 2 -2 2 0 0 Z " fill="#0F0C0C" transform="translate(229,176)"/>
<path d="M0 0 C4.92127034 -0.16682272 8.50343896 -0.24828052 13 2 C13 3.65 13 5.3 13 7 C11.02 6.34 9.04 5.68 7 5 C7 4.34 7 3.68 7 3 C4.69 3 2.38 3 0 3 C0 2.01 0 1.02 0 0 Z " fill="#A5A2A2" transform="translate(212,139)"/>
<path d="M0 0 C3.4375 1.1875 3.4375 1.1875 7 3 C7.9375 5.6875 7.9375 5.6875 8 8 C5.36 8 2.72 8 0 8 C-0.33 7.34 -0.66 6.68 -1 6 C-0.34 5.67 0.32 5.34 1 5 C0.34 3.68 -0.32 2.36 -1 1 C-0.67 0.67 -0.34 0.34 0 0 Z " fill="#E0CFB9" transform="translate(190,200)"/>
<path d="M0 0 C0 3.96 0 7.92 0 12 C-1.32 12 -2.64 12 -4 12 C-4 8.37 -4 4.74 -4 1 C-2 0 -2 0 0 0 Z " fill="#110E0E" transform="translate(165,175)"/>
<path d="M0 0 C2.04159095 -0.0272616 4.08328963 -0.04651345 6.125 -0.0625 C7.26195313 -0.07410156 8.39890625 -0.08570313 9.5703125 -0.09765625 C12.8129156 -0.005327 15.81932612 0.38610094 19 1 C18.67 1.66 18.34 2.32 18 3 C15.9377952 3.054348 13.87517184 3.09294961 11.8125 3.125 C10.66394531 3.14820313 9.51539063 3.17140625 8.33203125 3.1953125 C5.08259628 3.00484152 2.91339479 2.39360127 0 1 C0 0.67 0 0.34 0 0 Z " fill="#CABBAB" transform="translate(120,276)"/>
<path d="M0 0 C0.99 0.33 1.98 0.66 3 1 C3 4.3 3 7.6 3 11 C4.65 11 6.3 11 8 11 C9.42944945 13.35438733 10.08661261 14.48032433 9.625 17.25 C9.41875 17.8275 9.2125 18.405 9 19 C8.67 19 8.34 19 8 19 C8 17.35 8 15.7 8 14 C7.195625 14.020625 6.39125 14.04125 5.5625 14.0625 C3 14 3 14 2 13 C1.60333773 10.81980521 1.25684763 8.6303537 0.9375 6.4375 C0.76089844 5.23996094 0.58429688 4.04242188 0.40234375 2.80859375 C0.26957031 1.88175781 0.13679687 0.95492187 0 0 Z " fill="#E4C57F" transform="translate(240,166)"/>
<path d="M0 0 C1.98 0.66 3.96 1.32 6 2 C6 3.65 6 5.3 6 7 C4.35 7.33 2.7 7.66 1 8 C-0.35439668 5.29120665 -0.06501451 2.99066732 0 0 Z " fill="#ECCB76" transform="translate(246,343)"/>
<path d="M0 0 C-3.106467 3.106467 -6.83467488 3.69089782 -11 5 C-11 8.63 -11 12.26 -11 16 C-11.66 16 -12.32 16 -13 16 C-13.62817259 5.87944162 -13.62817259 5.87944162 -11.125 2.375 C-7.23165996 -0.14422002 -4.64140831 -0.08595201 0 0 Z " fill="#91857C" transform="translate(239,276)"/>
<path d="M0 0 C0.66 0.33 1.32 0.66 2 1 C0.71520959 2.50589388 -0.57804082 4.00457375 -1.875 5.5 C-2.95394531 6.75296875 -2.95394531 6.75296875 -4.0546875 8.03125 C-4.69664062 8.6809375 -5.33859375 9.330625 -6 10 C-6.66 10 -7.32 10 -8 10 C-8.33 11.32 -8.66 12.64 -9 14 C-9.33 13.34 -9.66 12.68 -10 12 C-7.45827007 6.61153256 -4.74326601 3.55744951 0 0 Z " fill="#E9BD44" transform="translate(198,156)"/>
<path d="M0 0 C5.75 1.625 5.75 1.625 8 5 C3.47907032 6.45606519 0.48351204 5.27032841 -4 4 C-2.68 2.68 -1.36 1.36 0 0 Z " fill="#A8A6A7" transform="translate(117,135)"/>
<path d="M0 0 C2.64 0 5.28 0 8 0 C7.67 1.65 7.34 3.3 7 5 C5.02 5 3.04 5 1 5 C0.67 3.35 0.34 1.7 0 0 Z " fill="#A6A3A2" transform="translate(117,101)"/>
<path d="M0 0 C1.4606285 2.64738916 2 3.89448334 2 7 C3.98 7 5.96 7 8 7 C8 7.33 8 7.66 8 8 C6.02 8 4.04 8 2 8 C2 8.66 2 9.32 2 10 C-1 12 -1 12 -3.1875 11.625 C-3.785625 11.41875 -4.38375 11.2125 -5 11 C-4.01 11 -3.02 11 -2 11 C-2 10.34 -2 9.68 -2 9 C-1.34 8.67 -0.68 8.34 0 8 C0 7.34 0 6.68 0 6 C-1.32 5.34 -2.64 4.68 -4 4 C-3.01 3.67 -2.02 3.34 -1 3 C-0.67 2.01 -0.34 1.02 0 0 Z " fill="#85807C" transform="translate(155,89)"/>
<path d="M0 0 C1.0828125 0.9590625 1.0828125 0.9590625 2.1875 1.9375 C4.98191184 3.98673535 6.61663274 4.61332946 10 5 C9.1028125 5.309375 9.1028125 5.309375 8.1875 5.625 C5.18981233 7.50926082 4.38638224 9.81132084 3 13 C2.01 11.68 1.02 10.36 0 9 C0.99 8.67 1.98 8.34 3 8 C2.690625 7.236875 2.38125 6.47375 2.0625 5.6875 C1.32106407 3.81210323 0.63771783 1.91315348 0 0 Z " fill="#D4AC53" transform="translate(196,194)"/>
<path d="M0 0 C0 0.66 0 1.32 0 2 C-0.515625 1.835 -1.03125 1.67 -1.5625 1.5 C-4.88318754 0.81883332 -7.61683631 0.63751818 -11 1 C-13.47208796 3.35832772 -13.47208796 3.35832772 -15 6 C-15 4.02 -15 2.04 -15 0 C-13.25360243 -0.39143394 -11.50264082 -0.76254287 -9.75 -1.125 C-8.77546875 -1.33382813 -7.8009375 -1.54265625 -6.796875 -1.7578125 C-3.76557234 -2.0202996 -2.51982654 -1.61988849 0 0 Z " fill="#E0C6A4" transform="translate(258,270)"/>
<path d="M0 0 C1.3921875 0.0928125 1.3921875 0.0928125 2.8125 0.1875 C3.1425 1.8375 3.4725 3.4875 3.8125 5.1875 C1.8125 6.1875 1.8125 6.1875 -0.1328125 5.62890625 C-0.85210937 5.33886719 -1.57140625 5.04882812 -2.3125 4.75 C-3.03695312 4.46253906 -3.76140625 4.17507812 -4.5078125 3.87890625 C-5.33925781 3.53666016 -5.33925781 3.53666016 -6.1875 3.1875 C-3.95423267 0.63232026 -3.57835327 0.21049137 0 0 Z " fill="#E1D5C8" transform="translate(222.1875,160.8125)"/>
<path d="M0 0 C-2.64 0.99 -5.28 1.98 -8 3 C-8 4.32 -8 5.64 -8 7 C-8.99 7.33 -9.98 7.66 -11 8 C-11.66 5.69 -12.32 3.38 -13 1 C-11.20994059 0.63779734 -9.41787943 0.28547531 -7.625 -0.0625 C-6.12839844 -0.35833984 -6.12839844 -0.35833984 -4.6015625 -0.66015625 C-2 -1 -2 -1 0 0 Z " fill="#D0C2B3" transform="translate(239,145)"/>
<path d="M0 0 C-0.11487748 1.58409994 -0.24234508 3.16728963 -0.375 4.75 C-0.44460938 5.63171875 -0.51421875 6.5134375 -0.5859375 7.421875 C-1 10 -1 10 -3 14 C-2.67 10.7 -2.34 7.4 -2 4 C-3.32 4 -4.64 4 -6 4 C-5.67 3.01 -5.34 2.02 -5 1 C-2 0 -2 0 0 0 Z " fill="#4B4847" transform="translate(266,290)"/>
<path d="M0 0 C1.3921875 0.3403125 1.3921875 0.3403125 2.8125 0.6875 C2.8125 1.0175 2.8125 1.3475 2.8125 1.6875 C1.1625 1.6875 -0.4875 1.6875 -2.1875 1.6875 C-2.1875 2.6775 -2.1875 3.6675 -2.1875 4.6875 C0.4525 5.0175 3.0925 5.3475 5.8125 5.6875 C5.8125 6.0175 5.8125 6.3475 5.8125 6.6875 C2.1825 6.6875 -1.4475 6.6875 -5.1875 6.6875 C-6.1875 2.6875 -6.1875 2.6875 -5.125 0.875 C-3.1875 -0.3125 -3.1875 -0.3125 0 0 Z " fill="#938981" transform="translate(177.1875,224.3125)"/>
<path d="M0 0 C3.95677402 1.67401978 6.84464213 4.13149285 10 7 C10 7.66 10 8.32 10 9 C11.2065625 9.433125 11.2065625 9.433125 12.4375 9.875 C15 11 15 11 16 13 C9.23536425 11.09744619 3.96792551 5.59452852 0 0 Z " fill="#F0E5D9" transform="translate(80,256)"/>
<path d="M0 0 C2.13586678 3.20380017 2.23132175 4.01939967 2.125 7.6875 C2.10695313 8.49574219 2.08890625 9.30398438 2.0703125 10.13671875 C2.04710937 10.75160156 2.02390625 11.36648438 2 12 C1.01 12.33 0.02 12.66 -1 13 C-0.67 8.71 -0.34 4.42 0 0 Z " fill="#0A0607" transform="translate(255,315)"/>
<path d="M0 0 C-6.79219135 4.17981006 -12.11397658 4.4731614 -20 4 C-20 3.67 -20 3.34 -20 3 C-19.22914063 2.95101562 -18.45828125 2.90203125 -17.6640625 2.8515625 C-16.66117188 2.77679688 -15.65828125 2.70203125 -14.625 2.625 C-13.62726563 2.55539063 -12.62953125 2.48578125 -11.6015625 2.4140625 C-8.84491121 2.23636036 -8.84491121 2.23636036 -7 0 C-2.48387097 -1.24193548 -2.48387097 -1.24193548 0 0 Z " fill="#F7E0B4" transform="translate(228,199)"/>
<path d="M0 0 C8.19256018 -0.63019694 8.19256018 -0.63019694 11.5625 2 C12.036875 2.66 12.51125 3.32 13 4 C12.67 4.66 12.34 5.32 12 6 C9.9375 6.625 9.9375 6.625 8 7 C7 4 7 4 8 1 C5.36 1 2.72 1 0 1 C0 0.67 0 0.34 0 0 Z " fill="#CCBFB2" transform="translate(146,168)"/>
<path d="M0 0 C0.33 0 0.66 0 1 0 C1.13277344 0.73605469 1.26554687 1.47210938 1.40234375 2.23046875 C1.57894531 3.20628906 1.75554687 4.18210938 1.9375 5.1875 C2.19853516 6.63189453 2.19853516 6.63189453 2.46484375 8.10546875 C2.9523735 10.74239972 3.46671105 13.3719905 4 16 C2.0625 15.25 2.0625 15.25 0 14 C-1.19614053 10.81029193 -0.95841601 8.09329077 -0.5625 4.75 C-0.46066406 3.85796875 -0.35882813 2.9659375 -0.25390625 2.046875 C-0.17011719 1.37140625 -0.08632813 0.6959375 0 0 Z " fill="#E3D4C4" transform="translate(266,143)"/>
<path d="M0 0 C4.24822374 0.47202486 6.19989709 2.96655518 9 6 C7 7 7 7 5.0546875 6.44140625 C4.33539063 6.15136719 3.61609375 5.86132812 2.875 5.5625 C2.15054688 5.27503906 1.42609375 4.98757812 0.6796875 4.69140625 C0.12539062 4.46324219 -0.42890625 4.23507813 -1 4 C-0.67 2.68 -0.34 1.36 0 0 Z " fill="#E5C78F" transform="translate(223,150)"/>
<path d="M0 0 C7.42857143 -0.14285714 7.42857143 -0.14285714 11 1 C11 1.66 11 2.32 11 3 C12.65 3.33 14.3 3.66 16 4 C16 4.33 16 4.66 16 5 C10.34979382 4.39891424 5.33835539 2.92471317 0 1 C0 0.67 0 0.34 0 0 Z " fill="#C87A4F" transform="translate(175,112)"/>
<path d="M0 0 C1.98567708 0.09765625 3.97135417 0.1953125 5.95703125 0.29296875 C5.62703125 1.28296875 5.29703125 2.27296875 4.95703125 3.29296875 C1.65703125 3.29296875 -1.64296875 3.29296875 -5.04296875 3.29296875 C-2.04296875 0.29296875 -2.04296875 0.29296875 0 0 Z " fill="#A3988E" transform="translate(221.04296875,278.70703125)"/>
<path d="M0 0 C0 0.99 0 1.98 0 3 C0.66 3.33 1.32 3.66 2 4 C1.01 5.485 1.01 5.485 0 7 C-0.99 6.67 -1.98 6.34 -3 6 C-3.33 5.34 -3.66 4.68 -4 4 C-4.66 3.34 -5.32 2.68 -6 2 C-2.25 0 -2.25 0 0 0 Z " fill="#DCC8B4" transform="translate(267,130)"/>
<path d="M0 0 C1.41623216 -0.05447047 2.83308191 -0.09300508 4.25 -0.125 C5.03890625 -0.14820312 5.8278125 -0.17140625 6.640625 -0.1953125 C9.20731941 0.0171622 10.7916067 0.71345895 13 2 C9.71303767 2.79953138 8.28976808 3.09658936 5 2 C4.67 2.99 4.34 3.98 4 5 C2.68 3.35 1.36 1.7 0 0 Z " fill="#ACA299" transform="translate(222,103)"/>
<path d="M0 0 C-0.33 1.98 -0.66 3.96 -1 6 C-2.32 6 -3.64 6 -5 6 C-5.66 5.34 -6.32 4.68 -7 4 C-3.375 0 -3.375 0 0 0 Z " fill="#80766B" transform="translate(249,251)"/>
<path d="M0 0 C1.32 0.66 2.64 1.32 4 2 C3.67 2.66 3.34 3.32 3 4 C2.01 4 1.02 4 0 4 C0.33 5.65 0.66 7.3 1 9 C0.01 9 -0.98 9 -2 9 C-2.25 3.375 -2.25 3.375 0 0 Z " fill="#E1CEBA" transform="translate(223,214)"/>
<path d="M0 0 C0.99 0.33 1.98 0.66 3 1 C3.0713905 3.57005801 3.10866051 5.66414024 2.3125 8.125 C2.209375 8.74375 2.10625 9.3625 2 10 C3.35444301 11.77190909 3.35444301 11.77190909 5 13 C2.5625 12.25 2.5625 12.25 0 11 C-1.8154121 7.49884809 -0.6473938 3.74049749 0 0 Z " fill="#EFE3D6" transform="translate(101,272)"/>
<path d="M0 0 C-1.6875 2.5 -1.6875 2.5 -4 5 C-6.75 5.3125 -6.75 5.3125 -9 5 C-8.875 3.125 -8.875 3.125 -8 1 C-2.71910112 -1.35955056 -2.71910112 -1.35955056 0 0 Z " fill="#82786D" transform="translate(183,225)"/>
<path d="M0 0 C2.36574234 3.5486135 2.10865265 4.5764525 1.625 8.6875 C1.51414063 9.68136719 1.40328125 10.67523438 1.2890625 11.69921875 C1.19367188 12.45847656 1.09828125 13.21773438 1 14 C-1.36574234 10.4513865 -1.10865265 9.4235475 -0.625 5.3125 C-0.51414063 4.31863281 -0.40328125 3.32476562 -0.2890625 2.30078125 C-0.19367188 1.54152344 -0.09828125 0.78226562 0 0 Z " fill="#201E1F" transform="translate(253,314)"/>
<path d="M0 0 C1.98 0.495 1.98 0.495 4 1 C4 2.65 4 4.3 4 6 C2.35 6 0.7 6 -1 6 C-0.67 4.02 -0.34 2.04 0 0 Z " fill="#353231" transform="translate(247,287)"/>
<path d="M0 0 C3 1 3 1 4 2 C4.36162029 3.32594105 4.69728039 4.65938457 5 6 C3.02 6 1.04 6 -1 6 C-0.67 4.02 -0.34 2.04 0 0 Z " fill="#83786E" transform="translate(79,176)"/>
<path d="M0 0 C0 2 0 2 -1.1875 3.6875 C-3 5 -3 5 -5.6875 4.6875 C-6.450625 4.460625 -7.21375 4.23375 -8 4 C-7.67 3.01 -7.34 2.02 -7 1 C-2.25 0 -2.25 0 0 0 Z " fill="#BD896B" transform="translate(96,105)"/>
<path d="M0 0 C2.02434654 0.51952256 4.02413655 1.13238987 6.01953125 1.75390625 C6.01953125 2.08390625 6.01953125 2.41390625 6.01953125 2.75390625 C4.03953125 2.75390625 2.05953125 2.75390625 0.01953125 2.75390625 C-0.31046875 3.41390625 -0.64046875 4.07390625 -0.98046875 4.75390625 C-2.30046875 4.09390625 -3.62046875 3.43390625 -4.98046875 2.75390625 C-3.57594973 0.47156284 -2.72095665 -0.33810704 0 0 Z " fill="#6A635D" transform="translate(117.98046875,104.24609375)"/>
<path d="M0 0 C0 0.33 0 0.66 0 1 C-1.65 1 -3.3 1 -5 1 C-5.33 2.32 -5.66 3.64 -6 5 C-6.99 4.67 -7.98 4.34 -9 4 C-9.33 3.01 -9.66 2.02 -10 1 C-6.61981469 -0.04005702 -3.5219721 -0.08004482 0 0 Z " fill="#B07959" transform="translate(122,100)"/>
<path d="M0 0 C-2.3129482 2.3129482 -3.47904875 2.49580975 -6.625 3.125 C-7.44226563 3.29257813 -8.25953125 3.46015625 -9.1015625 3.6328125 C-10.04128906 3.81457031 -10.04128906 3.81457031 -11 4 C-8.14317358 -0.28523962 -4.97227354 -1.84158279 0 0 Z " fill="#F7E2BA" transform="translate(212,159)"/>
<path d="M0 0 C-1.4375 1.5625 -1.4375 1.5625 -4 3 C-7.05380927 2.96846324 -9.99653222 2.53266629 -13 2 C-13 1.67 -13 1.34 -13 1 C-8.59085217 -0.10228696 -4.51617599 -0.07654536 0 0 Z " fill="#555251" transform="translate(141,74)"/>
<path d="M0 0 C0.66 0.33 1.32 0.66 2 1 C1.42655063 3.86724686 1.1385485 4.8614515 -1 7 C-3.625 7.125 -3.625 7.125 -6 7 C-5.071875 6.6596875 -5.071875 6.6596875 -4.125 6.3125 C-1.38589791 4.62070165 -0.94975528 3.00755839 0 0 Z " fill="#1E1B1B" transform="translate(259,287)"/>
<path d="M0 0 C2.64 0.99 5.28 1.98 8 3 C5.8614515 5.1385485 4.86724686 5.42655063 2 6 C2 4.68 2 3.36 2 2 C1.34 2 0.68 2 0 2 C0 1.34 0 0.68 0 0 Z " fill="#E7D2AE" transform="translate(87,108)"/>
<path d="M0 0 C1.60031344 3.20062687 0.03173691 5.72271806 -1 9 C-1.33 9 -1.66 9 -2 9 C-2.33 6.69 -2.66 4.38 -3 2 C-2.01 1.34 -1.02 0.68 0 0 Z " fill="#3A3634" transform="translate(256,327)"/>
<path d="M0 0 C0.66 0 1.32 0 2 0 C2.33 1.65 2.66 3.3 3 5 C1.02 5.66 -0.96 6.32 -3 7 C-3 6.34 -3 5.68 -3 5 C-2.01 4.34 -1.02 3.68 0 3 C0 2.01 0 1.02 0 0 Z " fill="#A09D9C" transform="translate(236,139)"/>
<path d="M0 0 C0.33 0.99 0.66 1.98 1 3 C-1.72842061 4.36421031 -3.60953318 3.87807211 -6.625 3.5625 C-7.62789063 3.46066406 -8.63078125 3.35882813 -9.6640625 3.25390625 C-10.43492187 3.17011719 -11.20578125 3.08632812 -12 3 C-12 2.67 -12 2.34 -12 2 C-11.21753906 1.93941406 -10.43507813 1.87882812 -9.62890625 1.81640625 C-8.61699219 1.73261719 -7.60507812 1.64882812 -6.5625 1.5625 C-5.55316406 1.48128906 -4.54382813 1.40007812 -3.50390625 1.31640625 C-1.06359221 1.26788532 -1.06359221 1.26788532 0 0 Z " fill="#E1D4C7" transform="translate(276,114)"/>
</svg>
