<?xml version="1.0" encoding="UTF-8"?>
<svg version="1.1" xmlns="http://www.w3.org/2000/svg" width="360" height="360">
<path d="M0 0 C1.30274872 -0.00701431 2.60549744 -0.01402863 3.94772339 -0.02125549 C8.1279144 -0.04063487 12.30804983 -0.04568903 16.48828125 -0.046875 C17.55608385 -0.04753778 17.55608385 -0.04753778 18.64545822 -0.04821396 C104.30118447 -0.07609016 104.30118447 -0.07609016 122.17578125 14.140625 C122.80226563 14.62402344 123.42875 15.10742188 124.07421875 15.60546875 C126.05787258 17.44102173 127.50893718 18.8069626 128.80078125 21.203125 C128.76976082 27.48476189 126.00937059 32.22530151 123.05078125 37.578125 C122.40496094 38.77695313 122.40496094 38.77695313 121.74609375 40 C119.99364953 43.2425465 118.22155808 46.47041422 116.38598633 49.66674805 C115.93634521 50.453479 115.4867041 51.24020996 115.0234375 52.05078125 C114.41254272 53.1027771 114.41254272 53.1027771 113.78930664 54.17602539 C112.31715184 57.19486987 112.01354093 59.86989004 111.80078125 63.203125 C115.0250443 62.18079769 118.04962931 61.08574384 121.11328125 59.640625 C132.18737772 55.32360434 146.89550842 55.84142491 157.953125 60.015625 C169.60312123 65.38222595 175.70028185 74.32772434 180.56640625 85.765625 C185.78013538 100.28487067 183.40765565 117.48103278 177.30078125 131.265625 C172.62660885 140.08176205 165.09093405 148.15137282 155.94140625 152.38671875 C152.35806693 153.3182087 149.00537183 153.49746815 145.31958008 153.68774414 C136.97108645 153.79981743 136.97108645 153.79981743 130.0234375 157.765625 C128.36057703 160.52182502 127.08925623 163.26225462 125.80078125 166.203125 C125.14078125 166.203125 124.48078125 166.203125 123.80078125 166.203125 C123.47078125 167.193125 123.14078125 168.183125 122.80078125 169.203125 C119.08414263 173.54036556 115.14011252 175.86102837 110.11328125 178.328125 C104.75470128 180.86677802 104.75470128 180.86677802 100.80078125 185.203125 C101.46078125 186.523125 102.12078125 187.843125 102.80078125 189.203125 C103.13078125 188.543125 103.46078125 187.883125 103.80078125 187.203125 C104.79078125 187.533125 105.78078125 187.863125 106.80078125 188.203125 C106.8694205 194.66093479 106.61715309 201.02186385 106.14453125 207.4609375 C106.07794312 208.40822723 106.01135498 209.35551697 105.94274902 210.33151245 C105.73172701 213.33060252 105.5166676 216.32938144 105.30078125 219.328125 C105.08514376 222.3340248 104.87047847 225.33997861 104.65881348 228.34616089 C104.52764482 230.20841068 104.39422432 232.07050371 104.25817871 233.93240356 C103.99171193 237.70936016 103.80190729 241.41274822 103.82226562 245.20263672 C103.80078125 248.203125 103.80078125 248.203125 102.80078125 250.203125 C101.15078125 249.873125 99.50078125 249.543125 97.80078125 249.203125 C97.5898584 248.39383545 97.37893555 247.5845459 97.16162109 246.75073242 C96.17129377 242.96271699 95.17544414 239.17618523 94.17578125 235.390625 C93.9960376 234.70928497 93.81629395 234.02794495 93.63110352 233.32595825 C91.18773018 224.09093924 88.61442439 214.92277499 85.52880859 205.87768555 C84.30139433 202.20533433 83.49789186 199.08768143 83.80078125 195.203125 C83.1665625 195.31269531 82.53234375 195.42226563 81.87890625 195.53515625 C79.21327959 195.98801824 76.54612048 196.4302455 73.87744141 196.86474609 C72.40025651 197.10544422 70.92340172 197.34817198 69.44677734 197.59228516 C50.04216212 200.77541235 50.04216212 200.77541235 40.80078125 200.203125 C37.49029356 215.33678301 36.59830366 226.43290919 43.77734375 240.625 C44.86951482 243.37627063 45.0775234 245.27170812 44.80078125 248.203125 C42.6994674 250.30443885 38.25931803 249.38827241 35.36328125 249.390625 C34.57373047 249.40287109 33.78417969 249.41511719 32.97070312 249.42773438 C30.9127069 249.43299779 28.85516116 249.32518785 26.80078125 249.203125 C26.14078125 248.543125 25.48078125 247.883125 24.80078125 247.203125 C25.17578125 244.578125 25.17578125 244.578125 25.80078125 242.203125 C28.11078125 241.873125 30.42078125 241.543125 32.80078125 241.203125 C32.33671605 238.03201282 31.76160661 235.07825582 30.80078125 232.015625 C28.31615815 222.54299943 27.28970646 210.22527458 31.80078125 201.203125 C25.53078125 201.203125 19.26078125 201.203125 12.80078125 201.203125 C9.12512885 215.75870849 8.89061424 226.64111499 15.80078125 240.203125 C16.46078125 241.193125 17.12078125 242.183125 17.80078125 243.203125 C17.92578125 245.890625 17.92578125 245.890625 17.80078125 248.203125 C13.31841256 249.95532367 9.8449469 250.4205654 5.05078125 250.078125 C3.9215625 250.01367188 2.79234375 249.94921875 1.62890625 249.8828125 C-1.19921875 249.203125 -1.19921875 249.203125 -2.58984375 247.1484375 C-2.7909375 246.50648438 -2.99203125 245.86453125 -3.19921875 245.203125 C-1.19921875 242.203125 -1.19921875 242.203125 0.74609375 241.69140625 C1.82503906 241.60439453 1.82503906 241.60439453 2.92578125 241.515625 C4.20453125 241.4125 5.48328125 241.309375 6.80078125 241.203125 C6.52363281 240.59984375 6.24648437 239.9965625 5.9609375 239.375 C5.59871094 238.57578125 5.23648438 237.7765625 4.86328125 236.953125 C4.50363281 236.16421875 4.14398438 235.3753125 3.7734375 234.5625 C1.62013847 229.33923649 1.61757946 224.53220794 1.61328125 218.953125 C1.60103516 218.13199219 1.58878906 217.31085938 1.57617188 216.46484375 C1.56327613 211.04003311 2.28215938 206.41325853 3.80078125 201.203125 C2.54265625 201.16574219 1.28453125 201.12835938 -0.01171875 201.08984375 C-34.70161981 199.84678329 -34.70161981 199.84678329 -43.9140625 191.68359375 C-47.19921875 187.94342971 -47.19921875 187.94342971 -47.19921875 185.203125 C-48.47539063 184.81833984 -48.47539063 184.81833984 -49.77734375 184.42578125 C-64.43863703 179.18721413 -77.18630197 169.21030719 -84.19921875 155.203125 C-91.03671442 139.04745688 -90.68758637 121.36742754 -84.26171875 105.203125 C-82.85400165 101.80444228 -81.50051505 98.67072573 -79.5078125 95.578125 C-77.9792261 92.80385476 -77.75835693 91.32422628 -78.19921875 88.203125 C-79.20009332 86.1719799 -79.20009332 86.1719799 -80.69921875 84.265625 C-83.73250628 79.96374292 -86.358221 75.52280248 -88.9440918 70.93994141 C-91.74950078 65.97657654 -94.6168599 61.05234156 -97.51171875 56.140625 C-97.93227539 55.42648438 -98.35283203 54.71234375 -98.78613281 53.9765625 C-99.38699707 52.95755859 -99.38699707 52.95755859 -100 51.91796875 C-100.37680908 51.27545166 -100.75361816 50.63293457 -101.1418457 49.97094727 C-102.06328723 48.43038894 -103.03355981 46.91924672 -104.01171875 45.4140625 C-105.63849691 42.38525842 -105.03039125 40.45225386 -104.19921875 37.203125 C-99.6599651 35.52374168 -95.37465754 34.71302201 -90.57421875 34.140625 C-84.82850684 33.47550525 -84.82850684 33.47550525 -79.19921875 32.203125 C-79.52921875 31.543125 -79.85921875 30.883125 -80.19921875 30.203125 C-80.96185439 25.90248898 -81.34003486 21.90944595 -78.8359375 18.1640625 C-59.90740432 0.3720251 -24.29329173 0.08837937 0 0 Z M-85.63671875 42.140625 C-87.49103516 42.43259766 -87.49103516 42.43259766 -89.3828125 42.73046875 C-90.31222656 42.88644531 -91.24164063 43.04242188 -92.19921875 43.203125 C-93.58476255 46.2085621 -93.58476255 46.2085621 -91.8984375 48.9609375 C-91.23457031 50.07210937 -90.57070312 51.18328125 -89.88671875 52.328125 C-89.53005127 52.93124512 -89.17338379 53.53436523 -88.8059082 54.15576172 C-88.02824601 55.46949527 -87.24639145 56.78075383 -86.4609375 58.08984375 C-85.13804852 60.30558041 -83.83832259 62.53368879 -82.54296875 64.765625 C-81.65784278 66.28662754 -80.77243091 67.80746374 -79.88671875 69.328125 C-79.46672607 70.05016113 -79.0467334 70.77219727 -78.61401367 71.51611328 C-76.6327319 74.88974391 -74.65046671 78.14104826 -72.19921875 81.203125 C-69.07000451 80.54125854 -69.07000451 80.54125854 -68.06640625 78.09375 C-67.73898438 77.22234375 -67.4115625 76.3509375 -67.07421875 75.453125 C-66.74164063 74.59203125 -66.4090625 73.7309375 -66.06640625 72.84375 C-62.72538381 62.67018618 -64.79200585 55.67195515 -69.19921875 46.203125 C-69.43898438 45.44386719 -69.67875 44.68460938 -69.92578125 43.90234375 C-71.18239452 41.85580468 -71.18239452 41.85580468 -74.359375 41.39453125 C-78.29489401 41.19835584 -81.75135571 41.51156622 -85.63671875 42.140625 Z M130.80078125 71.203125 C129.81078125 72.688125 129.81078125 72.688125 128.80078125 74.203125 C129.13078125 74.863125 129.46078125 75.523125 129.80078125 76.203125 C130.23742059 80.13287905 130.19088981 81.68172265 127.78125 84.90234375 C126.80091797 86.04123047 126.80091797 86.04123047 125.80078125 87.203125 C126.27128906 87.9765625 126.74179687 88.75 127.2265625 89.546875 C135.03950304 102.61697015 137.68664394 114.04499367 138.80078125 129.203125 C140.50234375 129.7290625 140.50234375 129.7290625 142.23828125 130.265625 C144.17578125 131.0703125 144.17578125 131.0703125 145.80078125 132.203125 C146.73828125 135.890625 146.73828125 135.890625 146.80078125 139.203125 C153.40392755 137.91184306 158.24841754 133.3910478 162.05078125 128.015625 C167.9548229 118.37932814 171.38673497 107.30035453 169.171875 95.9921875 C166.39686963 86.77313199 161.62489285 79.79177614 153.80078125 74.203125 C148.50692383 71.51055959 144.39136533 70.72964908 138.48828125 70.828125 C137.77349609 70.81652344 137.05871094 70.80492187 136.32226562 70.79296875 C134.01441828 70.7683265 134.01441828 70.7683265 130.80078125 71.203125 Z " fill="#E6D3C1" transform="translate(149.19921875,100.796875)"/>
<path d="M0 0 C0.77859375 -0.03738281 1.5571875 -0.07476562 2.359375 -0.11328125 C5.20606842 0.306029 6.80487976 1.02772449 9.33959961 2.30761719 C14.24627941 4.52570574 18.37799553 4.87019672 23.70703125 4.81640625 C24.59586502 4.8246492 25.48469879 4.83289215 26.40046692 4.84138489 C28.30210085 4.85848645 30.2038199 4.86768034 32.10552979 4.86956787 C37.14786256 4.87883093 42.1888953 4.95942061 47.23046875 5.04296875 C48.24612915 5.05926331 49.26178955 5.07555786 50.30822754 5.09234619 C65.34666512 5.37625503 80.30271027 6.69141912 95.25 8.3125 C96.2723877 8.42319824 97.29477539 8.53389648 98.34814453 8.64794922 C109.9561932 9.985833 120.39969676 13.01309728 131.25 17.3125 C132.21164062 17.62058594 133.17328125 17.92867187 134.1640625 18.24609375 C134.85242188 18.59800781 135.54078125 18.94992188 136.25 19.3125 C136.88037109 21.37915039 136.88037109 21.37915039 137.25 23.3125 C131.91432777 26.94104524 126.77285066 29.50094717 120.625 31.4375 C119.43463135 31.81914307 119.43463135 31.81914307 118.22021484 32.20849609 C111.2972303 34.38038546 104.39641754 36.05985736 97.25 37.3125 C96.3705069 37.47077271 95.49101379 37.62904541 94.58486938 37.79211426 C74.85568041 41.25157523 55.72160513 41.88057129 35.75238037 41.70373535 C32.63882693 41.68189853 29.52544682 41.68280538 26.41182995 41.68401146 C23.35304513 41.68346259 20.29436877 41.67241977 17.2356205 41.65800858 C15.80503461 41.65176397 14.37443684 41.64773164 12.94383812 41.64622116 C4.32680725 41.62709439 -3.95957833 41.05236289 -12.46054077 39.75039673 C-17.18279159 39.12176508 -21.81107926 39.1629667 -26.5625 39.3125 C-28.27709629 39.36334051 -29.99198048 39.40546792 -31.70703125 39.4375 C-32.43897705 39.46070313 -33.17092285 39.48390625 -33.92504883 39.5078125 C-35.75 39.3125 -35.75 39.3125 -37.75 37.3125 C-42.91635595 36.96333452 -47.76039958 37.70769517 -52.8125 38.6875 C-60.43620608 40.1036553 -68.06402462 41.27714674 -75.75 42.3125 C-74.38994392 46.95351612 -72.41471021 50.85682313 -69.875 54.9375 C-69.4929541 55.5663208 -69.1109082 56.1951416 -68.71728516 56.84301758 C-66.8759998 59.87184084 -65.01500045 62.88777656 -63.13867188 65.89501953 C-61.45749819 68.59064419 -59.79118402 71.295092 -58.125 74 C-57.30733154 75.29188232 -57.30733154 75.29188232 -56.47314453 76.60986328 C-55.97411621 77.42310059 -55.47508789 78.23633789 -54.9609375 79.07421875 C-54.51024902 79.79569092 -54.05956055 80.51716309 -53.59521484 81.26049805 C-52.75 83.3125 -52.75 83.3125 -52.95166016 85.49926758 C-53.75 87.3125 -53.75 87.3125 -56.3125 88.5625 C-57.116875 88.81 -57.92125 89.0575 -58.75 89.3125 C-63.28672545 84.54893828 -66.53482528 79.43864775 -69.71240234 73.71704102 C-71.81537706 69.93298775 -74.01420772 66.257389 -76.375 62.625 C-79.27926759 58.13598366 -81.88240314 53.54084241 -84.390625 48.8203125 C-85.73891585 46.25550451 -85.73891585 46.25550451 -87.44140625 43.69921875 C-89.16968629 40.54704232 -88.62062977 38.71587092 -87.75 35.3125 C-82.36200882 33.25053998 -76.99278009 32.46769264 -71.3125 31.6875 C-70.39662109 31.5534375 -69.48074219 31.419375 -68.53710938 31.28125 C-63.55484867 30.58022839 -58.78031008 30.16027604 -53.75 30.3125 C-53.75 29.3225 -53.75 28.3325 -53.75 27.3125 C-54.74 26.9825 -55.73 26.6525 -56.75 26.3125 C-56.67311083 23.62137907 -56.33834392 21.88417695 -54.37109375 19.97265625 C-46.41891787 14.11971248 -37.79325798 12.24802776 -28.3125 10.20703125 C-23.6138403 9.1501694 -19.71640767 8.18472624 -15.75 5.3125 C-10.25915375 1.42315057 -6.60911113 0.31617661 0 0 Z " fill="#F85304" transform="translate(132.75,102.6875)"/>
<path d="M0 0 C1.30274872 -0.00701431 2.60549744 -0.01402863 3.94772339 -0.02125549 C8.1279144 -0.04063487 12.30804983 -0.04568903 16.48828125 -0.046875 C17.55608385 -0.04753778 17.55608385 -0.04753778 18.64545822 -0.04821396 C104.30118447 -0.07609016 104.30118447 -0.07609016 122.17578125 14.140625 C122.80226563 14.62402344 123.42875 15.10742188 124.07421875 15.60546875 C126.05787258 17.44102173 127.50893718 18.8069626 128.80078125 21.203125 C128.76959898 27.5019428 125.99445849 32.31772705 123.05078125 37.703125 C122.62023437 38.51910156 122.1896875 39.33507812 121.74609375 40.17578125 C114.1425805 54.35838231 114.1425805 54.35838231 108.23828125 56.453125 C105.64537355 57.4517159 103.78927323 58.21175602 101.55078125 59.890625 C99.34802293 61.54269374 97.51501335 61.9096945 94.80078125 62.203125 C94.47078125 61.873125 94.14078125 61.543125 93.80078125 61.203125 C87.88671163 61.07064984 82.53748533 61.23425751 77.67578125 64.828125 C73.71406818 67.69072927 71.02436477 67.35370862 66.31640625 66.6171875 C65.07117188 66.41222656 65.07117188 66.41222656 63.80078125 66.203125 C58.97623621 65.74589688 55.38012925 65.54812292 51.23828125 68.265625 C46.66104156 70.84552373 44.85364025 70.2799638 39.80078125 69.203125 C38.81078125 68.9246875 38.81078125 68.9246875 37.80078125 68.640625 C32.96517669 67.5828365 29.10211547 67.53917897 24.73828125 69.765625 C20.94392525 71.62243751 18.85292285 71.17864057 14.80078125 70.203125 C13.84558594 69.69072266 13.84558594 69.69072266 12.87109375 69.16796875 C10.51248148 68.06876643 8.89021341 67.93538916 6.30078125 67.953125 C5.1715625 67.94539063 5.1715625 67.94539063 4.01953125 67.9375 C1.56179032 68.23173659 -0.00480532 69.10149406 -2.19921875 70.203125 C-8.37148152 69.87246807 -8.37148152 69.87246807 -11.09765625 67.66796875 C-13.70253957 65.85229729 -15.18406059 65.85938894 -18.32421875 65.953125 C-19.62746094 65.97632813 -19.62746094 65.97632813 -20.95703125 66 C-23.23476247 66.0689419 -23.23476247 66.0689419 -25.19921875 67.203125 C-27.88671875 67.578125 -27.88671875 67.578125 -31.19921875 67.203125 C-32.59140625 65.965625 -32.59140625 65.965625 -34.01171875 64.703125 C-38.45797947 61.08991087 -43.65750507 61.94144158 -49.06958008 62.38867188 C-53.24522553 62.63310907 -54.83097704 62.51640526 -58.078125 59.75390625 C-58.77808594 58.91214844 -59.47804688 58.07039063 -60.19921875 57.203125 C-62.37268443 56.34193366 -62.37268443 56.34193366 -64.19921875 56.203125 C-64.52921875 56.863125 -64.85921875 57.523125 -65.19921875 58.203125 C-66.01526874 56.2879671 -66.82692507 54.37093666 -67.63671875 52.453125 C-68.08917969 51.38578125 -68.54164062 50.3184375 -69.0078125 49.21875 C-69.93901428 46.8617409 -70.67762595 44.67319665 -71.19921875 42.203125 C-71.85921875 42.203125 -72.51921875 42.203125 -73.19921875 42.203125 C-73.19921875 41.543125 -73.19921875 40.883125 -73.19921875 40.203125 C-59.71582392 37.7234202 -59.71582392 37.7234202 -54.19921875 38.203125 C-53.53921875 38.863125 -52.87921875 39.523125 -52.19921875 40.203125 C-50.31225432 40.44748811 -50.31225432 40.44748811 -48.15625 40.328125 C-46.91391602 40.30492187 -46.91391602 40.30492187 -45.64648438 40.28125 C-43.94070994 40.23067107 -42.23497654 40.17867993 -40.52929688 40.125 C-35.34332683 40.03006233 -30.4565762 40.40411879 -25.32568359 41.18994141 C-17.35482155 42.32273671 -9.45378177 42.53056562 -1.40625 42.5390625 C0.07465224 42.54552674 1.55555334 42.55225741 3.03645325 42.55923462 C6.12483663 42.5711053 9.21310915 42.57492678 12.30151367 42.57373047 C15.402991 42.57356912 18.50387005 42.58728229 21.60522461 42.61474609 C41.73809446 42.79032228 60.93490421 41.82139247 80.80078125 38.203125 C81.71036591 38.03798904 82.61995056 37.87285309 83.55709839 37.70271301 C96.47779466 35.31204719 109.14049751 31.3690342 120.80078125 25.203125 C120.47078125 23.883125 120.14078125 22.563125 119.80078125 21.203125 C119.12273437 21.09613281 118.4446875 20.98914063 117.74609375 20.87890625 C114.91894094 20.23023591 112.3753413 19.27045155 109.69213867 18.18457031 C85.46218525 8.64397114 57.09397611 8.37122168 31.34375 8.00390625 C30.33892578 7.98807999 29.33410156 7.97225372 28.29882812 7.95594788 C23.25570504 7.87854341 18.21410888 7.82361602 13.17041016 7.80786133 C11.2932871 7.78659417 9.41617069 7.7647287 7.5390625 7.7421875 C6.69006882 7.74732864 5.84107513 7.75246979 4.96635437 7.75776672 C-0.46742126 7.66825146 -4.44100723 6.55738177 -9.29740906 4.10418701 C-14.20307198 1.7799237 -19.80072425 2.94673434 -24.94921875 3.890625 C-28.31977045 5.02827088 -28.31977045 5.02827088 -30.80859375 7.6171875 C-34.65459092 10.91179791 -38.84548677 11.79230773 -43.69921875 12.890625 C-45.35587303 13.28868579 -47.01213358 13.68838928 -48.66796875 14.08984375 C-49.44994629 14.27716064 -50.23192383 14.46447754 -51.03759766 14.6574707 C-57.84703947 16.37636639 -67.20232475 18.98897474 -72.19921875 24.203125 C-72.19921875 25.523125 -72.19921875 26.843125 -72.19921875 28.203125 C-71.53921875 28.533125 -70.87921875 28.863125 -70.19921875 29.203125 C-70.19921875 30.193125 -70.19921875 31.183125 -70.19921875 32.203125 C-75.64421875 32.698125 -75.64421875 32.698125 -81.19921875 33.203125 C-80.20921875 32.708125 -80.20921875 32.708125 -79.19921875 32.203125 C-79.52921875 31.543125 -79.85921875 30.883125 -80.19921875 30.203125 C-80.96185439 25.90248898 -81.34003486 21.90944595 -78.8359375 18.1640625 C-59.90740432 0.3720251 -24.29329173 0.08837937 0 0 Z " fill="#E6D4C3" transform="translate(149.19921875,100.796875)"/>
<path d="M0 0 C5.92907324 4.64356621 9.03732505 10.3808259 11.01171875 17.49609375 C11.70649488 19.7009588 11.70649488 19.7009588 14.453125 21.4453125 C15.21625 21.7546875 15.979375 22.0640625 16.765625 22.3828125 C16.515625 24.7578125 16.515625 24.7578125 15.765625 27.3828125 C15.15847656 27.62773437 14.55132812 27.87265625 13.92578125 28.125 C10.74040911 29.97977365 9.86976369 32.88410468 8.453125 36.1328125 C4.9197525 43.65255398 1.51667581 47.37332099 -5.734375 51.2578125 C-11.88113706 53.34332105 -18.82413455 52.60817252 -25.234375 52.3828125 C-25.34007812 53.16011719 -25.44578125 53.93742187 -25.5546875 54.73828125 C-26.234375 57.3828125 -26.234375 57.3828125 -29.109375 59.6953125 C-33.94471323 62.12293087 -38.96004492 62.330483 -44.234375 61.3828125 C-46.83684306 59.95457036 -48.8974674 58.24280018 -51.234375 56.3828125 C-54.20199249 56.53705457 -55.27757012 57.42169554 -57.50390625 59.42578125 C-61.13299262 62.02688608 -63.50558975 61.82075057 -67.921875 61.6953125 C-68.59798828 61.68564453 -69.27410156 61.67597656 -69.97070312 61.66601562 C-74.89328076 61.55335962 -74.89328076 61.55335962 -77.234375 60.3828125 C-77.234375 59.7228125 -77.234375 59.0628125 -77.234375 58.3828125 C-77.894375 58.3828125 -78.554375 58.3828125 -79.234375 58.3828125 C-81.48265552 53.88625146 -81.40119772 50.30408284 -81.234375 45.3828125 C-79.254375 44.8878125 -79.254375 44.8878125 -77.234375 44.3828125 C-75.22301224 46.94272874 -73.60592004 49.42871549 -72.234375 52.3828125 C-68.91159253 52.78968382 -66.30470186 53.05487821 -63.38671875 51.22265625 C-61.5870746 49.67614886 -59.90015916 48.07233705 -58.234375 46.3828125 C-57.72261719 45.88394531 -57.21085937 45.38507813 -56.68359375 44.87109375 C-55.51751321 43.72472161 -54.37325875 42.55620788 -53.234375 41.3828125 C-49.82279244 42.52000669 -49.11582899 43.42624194 -47.234375 46.3828125 C-47.234375 47.0428125 -47.234375 47.7028125 -47.234375 48.3828125 C-46.615625 48.6921875 -45.996875 49.0015625 -45.359375 49.3203125 C-43.984375 50.0078125 -42.609375 50.6953125 -41.234375 51.3828125 C-39.86094669 51.4517597 -38.48435398 51.46748958 -37.109375 51.4453125 C-35.19125 51.414375 -35.19125 51.414375 -33.234375 51.3828125 C-32.739375 50.3928125 -32.739375 50.3928125 -32.234375 49.3828125 C-32.75386719 49.0425 -33.27335937 48.7021875 -33.80859375 48.3515625 C-39.55121753 44.3603859 -44.02387075 39.99979986 -45.84375 33.05859375 C-47.49044933 21.77870331 -46.27940615 13.56933073 -40.109375 4.1328125 C-29.28411676 -6.22178233 -12.81015394 -7.78995848 0 0 Z " fill="#EDB52B" transform="translate(227.234375,177.6171875)"/>
<path d="M0 0 C1.30274872 -0.00701431 2.60549744 -0.01402863 3.94772339 -0.02125549 C8.1279144 -0.04063487 12.30804983 -0.04568903 16.48828125 -0.046875 C17.55608385 -0.04753778 17.55608385 -0.04753778 18.64545822 -0.04821396 C104.30118447 -0.07609016 104.30118447 -0.07609016 122.17578125 14.140625 C122.80226563 14.62402344 123.42875 15.10742188 124.07421875 15.60546875 C125.96514813 17.35522015 127.43128196 19.01784373 128.80078125 21.203125 C128.61536599 26.20933696 127.23613816 29.86183659 124.80078125 34.203125 C124.14078125 33.543125 123.48078125 32.883125 122.80078125 32.203125 C122.47078125 32.863125 122.14078125 33.523125 121.80078125 34.203125 C119.41500571 35.28569639 117.05593034 36.26774089 114.61328125 37.203125 C113.62231445 37.59371094 113.62231445 37.59371094 112.61132812 37.9921875 C107.13718533 40.13212881 101.72386094 42.13855955 95.92578125 43.203125 C92.9830555 43.74699511 90.14544696 44.38139325 87.25390625 45.16796875 C81.72116136 46.56966674 76.08784738 47.12712232 70.42578125 47.765625 C69.35328125 47.89130859 68.28078125 48.01699219 67.17578125 48.14648438 C60.72360676 48.89609832 54.26882024 49.60501715 47.80078125 50.203125 C46.86387451 50.2944873 45.92696777 50.38584961 44.96166992 50.47998047 C35.22168974 51.34217043 25.50849345 51.40410608 15.73828125 51.390625 C14.86016785 51.38968842 13.98205444 51.38875183 13.07733154 51.38778687 C-48.15697048 51.24692424 -48.15697048 51.24692424 -65.19921875 41.203125 C-63.21921875 40.708125 -63.21921875 40.708125 -61.19921875 40.203125 C-61.19921875 39.543125 -61.19921875 38.883125 -61.19921875 38.203125 C-57.82421875 38.078125 -57.82421875 38.078125 -54.19921875 38.203125 C-53.53921875 38.863125 -52.87921875 39.523125 -52.19921875 40.203125 C-50.31225432 40.44748811 -50.31225432 40.44748811 -48.15625 40.328125 C-46.91391602 40.30492187 -46.91391602 40.30492187 -45.64648438 40.28125 C-43.94070994 40.23067107 -42.23497654 40.17867993 -40.52929688 40.125 C-35.34332683 40.03006233 -30.4565762 40.40411879 -25.32568359 41.18994141 C-17.35482155 42.32273671 -9.45378177 42.53056562 -1.40625 42.5390625 C0.07465224 42.54552674 1.55555334 42.55225741 3.03645325 42.55923462 C6.12483663 42.5711053 9.21310915 42.57492678 12.30151367 42.57373047 C15.402991 42.57356912 18.50387005 42.58728229 21.60522461 42.61474609 C41.73809446 42.79032228 60.93490421 41.82139247 80.80078125 38.203125 C81.71036591 38.03798904 82.61995056 37.87285309 83.55709839 37.70271301 C96.47779466 35.31204719 109.14049751 31.3690342 120.80078125 25.203125 C120.47078125 23.883125 120.14078125 22.563125 119.80078125 21.203125 C119.12273437 21.09613281 118.4446875 20.98914063 117.74609375 20.87890625 C114.91894094 20.23023591 112.3753413 19.27045155 109.69213867 18.18457031 C85.46218525 8.64397114 57.09397611 8.37122168 31.34375 8.00390625 C30.33892578 7.98807999 29.33410156 7.97225372 28.29882812 7.95594788 C23.25570504 7.87854341 18.21410888 7.82361602 13.17041016 7.80786133 C11.2932871 7.78659417 9.41617069 7.7647287 7.5390625 7.7421875 C6.69006882 7.74732864 5.84107513 7.75246979 4.96635437 7.75776672 C-0.46742126 7.66825146 -4.44100723 6.55738177 -9.29740906 4.10418701 C-14.20307198 1.7799237 -19.80072425 2.94673434 -24.94921875 3.890625 C-28.31977045 5.02827088 -28.31977045 5.02827088 -30.80859375 7.6171875 C-34.65459092 10.91179791 -38.84548677 11.79230773 -43.69921875 12.890625 C-45.35587303 13.28868579 -47.01213358 13.68838928 -48.66796875 14.08984375 C-49.44994629 14.27716064 -50.23192383 14.46447754 -51.03759766 14.6574707 C-57.84703947 16.37636639 -67.20232475 18.98897474 -72.19921875 24.203125 C-72.19921875 25.523125 -72.19921875 26.843125 -72.19921875 28.203125 C-71.53921875 28.533125 -70.87921875 28.863125 -70.19921875 29.203125 C-70.19921875 30.193125 -70.19921875 31.183125 -70.19921875 32.203125 C-75.64421875 32.698125 -75.64421875 32.698125 -81.19921875 33.203125 C-80.20921875 32.708125 -80.20921875 32.708125 -79.19921875 32.203125 C-79.52921875 31.543125 -79.85921875 30.883125 -80.19921875 30.203125 C-80.96185439 25.90248898 -81.34003486 21.90944595 -78.8359375 18.1640625 C-59.90740432 0.3720251 -24.29329173 0.08837937 0 0 Z " fill="#ECE5D9" transform="translate(149.19921875,100.796875)"/>
<path d="M0 0 C4.1687475 0.77558093 5.29125819 3.07679741 7.6875 6.5 C7.6875 7.16 7.6875 7.82 7.6875 8.5 C9.3375 9.16 10.9875 9.82 12.6875 10.5 C12.6875 11.16 12.6875 11.82 12.6875 12.5 C13.3475 12.5 14.0075 12.5 14.6875 12.5 C16.26761037 14.44127845 17.6410663 16.48976439 19.0546875 18.5546875 C20.80481808 20.63977131 22.25376176 21.36968643 24.6875 22.5 C26.04189668 25.20879335 25.75251451 27.50933268 25.6875 30.5 C24.62789062 31.04269531 23.56828125 31.58539063 22.4765625 32.14453125 C21.08833268 32.86678595 19.70032324 33.58946435 18.3125 34.3125 C17.61382812 34.66892578 16.91515625 35.02535156 16.1953125 35.39257812 C15.18984375 35.91948242 15.18984375 35.91948242 14.1640625 36.45703125 C13.54611816 36.77647705 12.92817383 37.09592285 12.29150391 37.42504883 C10.36681917 38.56677549 10.36681917 38.56677549 8.6875 41.5 C9.6775 43.48 9.6775 43.48 10.6875 45.5 C11.0175 44.84 11.3475 44.18 11.6875 43.5 C12.6775 43.83 13.6675 44.16 14.6875 44.5 C14.75613925 50.95780979 14.50387184 57.31873885 14.03125 63.7578125 C13.96466187 64.70510223 13.89807373 65.65239197 13.82946777 66.62838745 C13.61844576 69.62747752 13.40338635 72.62625644 13.1875 75.625 C12.97186251 78.6308998 12.75719722 81.63685361 12.54553223 84.64303589 C12.41436357 86.50528568 12.28094307 88.36737871 12.14489746 90.22927856 C11.87843068 94.00623516 11.68862604 97.70962322 11.70898438 101.49951172 C11.6875 104.5 11.6875 104.5 10.6875 106.5 C9.0375 106.17 7.3875 105.84 5.6875 105.5 C5.47657715 104.69071045 5.2656543 103.8814209 5.04833984 103.04760742 C4.05801252 99.25959199 3.06216289 95.47306023 2.0625 91.6875 C1.79288452 90.66548996 1.79288452 90.66548996 1.51782227 89.62283325 C-0.92555107 80.38781424 -3.49885686 71.21964999 -6.58447266 62.17456055 C-7.88159014 58.29366138 -8.3125 55.6962652 -8.3125 51.5 C-11.6125 50.84 -14.9125 50.18 -18.3125 49.5 C-18.3125 48.84 -18.3125 48.18 -18.3125 47.5 C-18.9725 47.5 -19.6325 47.5 -20.3125 47.5 C-20.7765625 48.4590625 -20.7765625 48.4590625 -21.25 49.4375 C-22.3125 51.5 -22.3125 51.5 -23.3125 52.5 C-25.122785 52.59879565 -26.93702727 52.62971514 -28.75 52.625 C-29.73871094 52.62757813 -30.72742188 52.63015625 -31.74609375 52.6328125 C-34.3125 52.5 -34.3125 52.5 -36.3125 51.5 C-36.3125 50.84 -36.3125 50.18 -36.3125 49.5 C-36.86208878 49.66200394 -37.41167755 49.82400787 -37.97792053 49.99092102 C-40.6032869 50.56340906 -42.97826351 50.63436991 -45.66577148 50.64526367 C-46.7388707 50.65164352 -47.81196991 50.65802338 -48.91758728 50.66459656 C-50.65801048 50.66626579 -50.65801048 50.66626579 -52.43359375 50.66796875 C-53.64330338 50.67129715 -54.853013 50.67462555 -56.09938049 50.67805481 C-58.67082337 50.68312331 -61.24227284 50.68546316 -63.8137207 50.68530273 C-67.67606134 50.68745873 -71.53810172 50.70552961 -75.40039062 50.72460938 C-89.82186158 50.75718699 -103.99643797 50.28460485 -118.3125 48.5 C-119.56764404 48.344104 -120.82278809 48.18820801 -122.1159668 48.02758789 C-128.25923917 47.20566041 -132.94124411 45.59880147 -138.3125 42.5 C-138.3125 41.84 -138.3125 41.18 -138.3125 40.5 C-139.6325 39.84 -140.9525 39.18 -142.3125 38.5 C-137.8207622 39.16620576 -133.56146755 40.22758205 -129.1875 41.4375 C-120.34661876 43.77841526 -111.44789689 44.59078115 -102.34863281 45.26635742 C-100.3125 45.5 -100.3125 45.5 -98.45593262 46.00552368 C-96.22544665 46.52008266 -94.26801196 46.63352154 -91.98144531 46.64526367 C-91.13245667 46.65164352 -90.28346802 46.65802338 -89.40875244 46.66459656 C-88.03852936 46.66626579 -88.03852936 46.66626579 -86.640625 46.66796875 C-85.68540955 46.67129715 -84.73019409 46.67462555 -83.74603271 46.67805481 C-81.71855143 46.68311825 -79.69106182 46.68546331 -77.66357422 46.68530273 C-74.61541206 46.68746251 -71.56762809 46.70554949 -68.51953125 46.72460938 C-58.40648198 46.75293898 -48.58808914 46.45781271 -38.58105469 44.94311523 C-34.14211473 44.34133184 -29.78107433 44.30664823 -25.3125 44.5 C-25.63605469 43.9328125 -25.95960938 43.365625 -26.29296875 42.78125 C-28.25641389 38.38794747 -28.05008198 33.46688529 -26.375 29 C-22.98705032 26.5360366 -19.43483188 26.29558685 -15.3125 26.5 C-12.72484634 27.24471635 -10.70956857 28.22496353 -8.3125 29.5 C-8.3125 28.84 -8.3125 28.18 -8.3125 27.5 C-3.57572741 26.72664937 0.89726341 26.5 5.6875 26.5 C8.02574592 26.20307988 10.36127689 25.87979153 12.6875 25.5 C9.50795603 20.06827905 5.47318761 16.52755888 0.6875 12.5 C-4.19385593 8.22881356 -4.19385593 8.22881356 -4.75 4.8125 C-4.14468545 1.61298022 -3.17378525 0.68622384 0 0 Z " fill="#CDBDAC" transform="translate(241.3125,244.5)"/>
<path d="M0 0 C12.57433745 -0.28869652 23.1077992 1.91501889 32.5390625 10.578125 C41.84464001 19.60866081 46.14243894 31.55002828 46.36669922 44.43505859 C46.42328605 60.16286784 43.27098762 74.44167103 31.875 86.0546875 C21.77058214 95.40262487 14.347945 96.73675804 0.9296875 96.29296875 C-0.32585937 96.23496094 -1.58140625 96.17695313 -2.875 96.1171875 C-2.34578991 92.77654882 -1.73448851 89.58148744 -0.875 86.3046875 C0.25353429 81.9505664 0.73152121 77.59042007 1.125 73.1171875 C6.75 72.8671875 6.75 72.8671875 10.125 75.1171875 C10.3125 78.7421875 10.3125 78.7421875 10.125 82.1171875 C19.8357853 77.73522316 24.87547872 71.62462643 29 61.8671875 C32.91817315 50.68542427 33.29288746 40.93261665 28.125 30.1171875 C23.80408118 22.90385035 18.29135246 17.6571435 10.125 15.1171875 C7.29525443 14.78740135 4.53113223 14.82822212 1.6875 14.9296875 C0.59018555 14.94999023 0.59018555 14.94999023 -0.52929688 14.97070312 C-2.31152422 15.00564876 -4.09336573 15.05943945 -5.875 15.1171875 C-6.205 15.7771875 -6.535 16.4371875 -6.875 17.1171875 C-6.545 17.7771875 -6.215 18.4371875 -5.875 19.1171875 C-5.61639865 23.16860869 -5.57058446 24.66056419 -7.875 28.1171875 C-10.31640625 28.55078125 -10.31640625 28.55078125 -12.875 28.1171875 C-14.46484375 26.46484375 -14.46484375 26.46484375 -15.8125 24.1796875 C-16.30878906 23.36757812 -16.80507813 22.55546875 -17.31640625 21.71875 C-17.83074219 20.86023438 -18.34507812 20.00171875 -18.875 19.1171875 C-19.99118353 17.42384301 -21.11577886 15.73600355 -22.25 14.0546875 C-23.125 12.7421875 -24 11.4296875 -24.875 10.1171875 C-23.85151086 7.37423661 -23.09673203 6.2578073 -20.58984375 4.66796875 C-13.44377436 1.48188718 -7.72685438 0.3149533 0 0 Z " fill="#979493" transform="translate(285.875,157.8828125)"/>
<path d="M0 0 C-0.4640625 1.0209375 -0.4640625 1.0209375 -0.9375 2.0625 C-2.13370649 5.36965912 -2.59005397 8.51545878 -3 12 C5.7208706 12.9267844 14.42431095 13.29562305 23.1875 13.5625 C24.53451468 13.60582646 25.88152001 13.64944448 27.22851562 13.69335938 C30.48559727 13.79842652 33.74274197 13.90057834 37 14 C37.625 15.8125 37.625 15.8125 38 18 C37.01 19.485 37.01 19.485 36 21 C33.80786133 21.37231445 33.80786133 21.37231445 31.08203125 21.36328125 C29.5805957 21.36424805 29.5805957 21.36424805 28.04882812 21.36523438 C26.98083984 21.34783203 25.91285156 21.33042969 24.8125 21.3125 C23.73291016 21.30412109 22.65332031 21.29574219 21.54101562 21.28710938 C13.22908704 21.16305074 5.18180395 20.46852891 -3 19 C-3.99 22.3 -4.98 25.6 -6 29 C-10.26582143 29.85316429 -13.69298294 30.24379342 -18 30 C-18.66 29.34 -19.32 28.68 -20 28 C-25.16635595 27.65083452 -30.01039958 28.39519517 -35.0625 29.375 C-42.68620608 30.7911553 -50.31402462 31.96464674 -58 33 C-56.63994392 37.64101612 -54.66471021 41.54432313 -52.125 45.625 C-51.7429541 46.2538208 -51.3609082 46.8826416 -50.96728516 47.53051758 C-49.1259998 50.55934084 -47.26500045 53.57527656 -45.38867188 56.58251953 C-43.70749819 59.27814419 -42.04118402 61.982592 -40.375 64.6875 C-39.55733154 65.97938232 -39.55733154 65.97938232 -38.72314453 67.29736328 C-38.22411621 68.11060059 -37.72508789 68.92383789 -37.2109375 69.76171875 C-36.76024902 70.48319092 -36.30956055 71.20466309 -35.84521484 71.94799805 C-35 74 -35 74 -35.20166016 76.18676758 C-36 78 -36 78 -38.5625 79.25 C-39.366875 79.4975 -40.17125 79.745 -41 80 C-45.53672545 75.23643828 -48.78482528 70.12614775 -51.96240234 64.40454102 C-54.06537706 60.62048775 -56.26420772 56.944889 -58.625 53.3125 C-61.52926759 48.82348366 -64.13240314 44.22834241 -66.640625 39.5078125 C-67.98891585 36.94300451 -67.98891585 36.94300451 -69.69140625 34.38671875 C-71.41968629 31.23454232 -70.87062977 29.40337092 -70 26 C-64.61200882 23.93803998 -59.24278009 23.15519264 -53.5625 22.375 C-52.64662109 22.2409375 -51.73074219 22.106875 -50.78710938 21.96875 C-45.80484867 21.26772839 -41.03031008 20.84777604 -36 21 C-36 20.01 -36 19.02 -36 18 C-36.99 17.67 -37.98 17.34 -39 17 C-38.92311083 14.30887907 -38.58834392 12.57167695 -36.62109375 10.66015625 C-29.49026716 5.41174026 -21.75658665 3.2439156 -13.25 1.25 C-12.30511719 1.01667969 -11.36023438 0.78335938 -10.38671875 0.54296875 C-9.48050781 0.32769531 -8.57429688 0.11242187 -7.640625 -0.109375 C-6.41134277 -0.40279785 -6.41134277 -0.40279785 -5.15722656 -0.70214844 C-3 -1 -3 -1 0 0 Z " fill="#82776D" transform="translate(115,112)"/>
<path d="M0 0 C3.83551785 0.51831322 5.36601932 1.25627013 8 4 C12.74308312 6.41397471 17.85564013 6.86207543 23.0625 7.5625 C23.94099609 7.68818359 24.81949219 7.81386719 25.72460938 7.94335938 C37.33782543 9.55654066 48.79399971 10.14520444 60.515625 10.09765625 C61.86610867 10.09578536 63.21659304 10.09436464 64.56707764 10.09336853 C68.07849078 10.08959606 71.58986089 10.07981248 75.10125732 10.06866455 C78.70161355 10.05833545 82.3019769 10.05384657 85.90234375 10.04882812 C92.93491317 10.03818407 99.96745374 10.02117311 107 10 C107 10.66 107 11.32 107 12 C109.10304477 12.1080023 111.20766909 12.18558987 113.3125 12.25 C114.48425781 12.29640625 115.65601563 12.3428125 116.86328125 12.390625 C120.09602179 12.33806485 120.09602179 12.33806485 121.79296875 9.984375 C122.19128906 9.32953125 122.58960938 8.6746875 123 8 C123.66 8 124.32 8 125 8 C125 8.66 125 9.32 125 10 C127.31 10.33 129.62 10.66 132 11 C127.29463183 14.13691211 122.02654058 14.29968697 116.5 15.125 C114.7984375 15.39763672 114.7984375 15.39763672 113.0625 15.67578125 C105.98382196 16.75544201 99.15777289 17.24426171 92 17 C88.68951231 32.13365801 87.79752241 43.22978419 94.9765625 57.421875 C96.06873357 60.17314563 96.27674215 62.06858312 96 65 C93.89868615 67.10131385 89.45853678 66.18514741 86.5625 66.1875 C85.77294922 66.19974609 84.98339844 66.21199219 84.16992188 66.22460938 C82.11192565 66.22987279 80.05437991 66.12206285 78 66 C77.34 65.34 76.68 64.68 76 64 C76.375 61.375 76.375 61.375 77 59 C80.465 58.505 80.465 58.505 84 58 C83.5359348 54.82888782 82.96082536 51.87513082 82 48.8125 C79.5153769 39.33987443 78.48892521 27.02214958 83 18 C76.73 18 70.46 18 64 18 C60.3243476 32.55558349 60.08983299 43.43798999 67 57 C67.66 57.99 68.32 58.98 69 60 C69.125 62.6875 69.125 62.6875 69 65 C64.51763131 66.75219867 61.04416565 67.2174404 56.25 66.875 C55.12078125 66.81054688 53.9915625 66.74609375 52.828125 66.6796875 C50 66 50 66 48.609375 63.9453125 C48.30773437 62.98238281 48.30773437 62.98238281 48 62 C50 59 50 59 51.9453125 58.48828125 C52.66460937 58.43027344 53.38390625 58.37226563 54.125 58.3125 C56.043125 58.1578125 56.043125 58.1578125 58 58 C57.72285156 57.39671875 57.44570312 56.7934375 57.16015625 56.171875 C56.61681641 54.97304688 56.61681641 54.97304688 56.0625 53.75 C55.70285156 52.96109375 55.34320313 52.1721875 54.97265625 51.359375 C52.81935722 46.13611149 52.81679821 41.32908294 52.8125 35.75 C52.80025391 34.92886719 52.78800781 34.10773438 52.77539062 33.26171875 C52.76249488 27.83690811 53.48137813 23.21013353 55 18 C53.1128125 17.94392578 53.1128125 17.94392578 51.1875 17.88671875 C16.49759894 16.64365829 16.49759894 16.64365829 7.28515625 8.48046875 C4 4.74030471 4 4.74030471 4 2 C2.68 1.34 1.36 0.68 0 0 Z " fill="#E9D9C9" transform="translate(98,284)"/>
<path d="M0 0 C0.99 0.33 1.98 0.66 3 1 C5.96323954 1.11982803 8.90685188 1.18606592 11.87109375 1.2109375 C13.72673521 1.23676193 15.58236652 1.26332374 17.43798828 1.29052734 C18.41640686 1.30380066 19.39482544 1.31707397 20.40289307 1.33074951 C41.70532002 1.64138045 62.81885948 2.70283827 84 5 C85.0223877 5.11069824 86.04477539 5.22139648 87.09814453 5.33544922 C98.7061932 6.673333 109.14969676 9.70059728 120 14 C120.96164062 14.30808594 121.92328125 14.61617187 122.9140625 14.93359375 C125 16 125 16 125.8125 18.125 C125.874375 18.74375 125.93625 19.3625 126 20 C120.81862686 23.6104249 116.32206552 26.17087665 110 27 C108.3139666 26.03301026 106.64876686 25.02924518 105 24 C74.67539431 14.09718972 40.49067287 15.79855391 9 16 C8.35309078 14.3962669 7.70751236 12.79199694 7.0625 11.1875 C6.52302734 9.84751953 6.52302734 9.84751953 5.97265625 8.48046875 C5.26386514 6.6729091 4.6139753 4.84192591 4 3 C1.99983534 1.79117904 1.99983534 1.79117904 0 1 C0 0.67 0 0.34 0 0 Z " fill="#80756C" transform="translate(144,106)"/>
<path d="M0 0 C4.69775246 3.55800239 9.58940095 8.51225652 10.8515625 14.40234375 C11.60539028 22.55485156 10.26587301 28.52838718 5.1640625 35.08984375 C1.09080802 39.52250304 -3.02441977 42.15060652 -9.10546875 42.640625 C-11.8000744 42.65100217 -14.46024529 42.58023882 -17.1484375 42.40234375 C-17.1484375 42.07234375 -17.1484375 41.74234375 -17.1484375 41.40234375 C-15.90126953 41.20318359 -15.90126953 41.20318359 -14.62890625 41 C-13.54222656 40.82339844 -12.45554688 40.64679688 -11.3359375 40.46484375 C-10.25699219 40.29082031 -9.17804688 40.11679688 -8.06640625 39.9375 C-3.91529605 39.22511776 -3.91529605 39.22511776 -0.5859375 36.83984375 C-0.1115625 36.36546875 0.3628125 35.89109375 0.8515625 35.40234375 C1.5115625 35.40234375 2.1715625 35.40234375 2.8515625 35.40234375 C3.8415625 32.43234375 3.8415625 32.43234375 4.8515625 29.40234375 C4.2121875 29.27859375 3.5728125 29.15484375 2.9140625 29.02734375 C2.2334375 28.82109375 1.5528125 28.61484375 0.8515625 28.40234375 C-0.34101136 26.01719604 -0.35615408 24.24646385 -0.5234375 21.58984375 C-0.90196526 17.49701234 -1.43196796 14.64121128 -4.1484375 11.40234375 C-8.25059391 10.03495828 -11.8634582 9.80903892 -16.1484375 10.40234375 C-19.86496896 12.2471242 -19.86496896 12.2471242 -22.1484375 15.40234375 C-23.51611647 19.68152112 -24.40941529 23.97469315 -25.1484375 28.40234375 C-26.7984375 28.40234375 -28.4484375 28.40234375 -30.1484375 28.40234375 C-27.35554333 32.48274233 -25.04613535 35.82646211 -20.8359375 38.52734375 C-18.1484375 40.40234375 -18.1484375 40.40234375 -17.0234375 43.15234375 C-17.19596482 47.63805399 -18.52408817 50.77786129 -21.1484375 54.40234375 C-25.50913682 57.80581639 -30.09549114 57.95310013 -35.4609375 57.84375 C-39.64606744 57.15636674 -41.86813797 55.0131944 -45.1484375 52.40234375 C-48.11605499 52.55658582 -49.19163262 53.44122679 -51.41796875 55.4453125 C-55.04705512 58.04641733 -57.41965225 57.84028182 -61.8359375 57.71484375 C-62.51205078 57.70517578 -63.18816406 57.69550781 -63.88476562 57.68554688 C-68.80734326 57.57289087 -68.80734326 57.57289087 -71.1484375 56.40234375 C-71.1484375 55.74234375 -71.1484375 55.08234375 -71.1484375 54.40234375 C-71.8084375 54.40234375 -72.4684375 54.40234375 -73.1484375 54.40234375 C-75.39671802 49.90578271 -75.31526022 46.32361409 -75.1484375 41.40234375 C-73.1684375 40.90734375 -73.1684375 40.90734375 -71.1484375 40.40234375 C-69.13707474 42.96225999 -67.51998254 45.44824674 -66.1484375 48.40234375 C-62.82565503 48.80921507 -60.21876436 49.07440946 -57.30078125 47.2421875 C-55.5011371 45.69568011 -53.81422166 44.0918683 -52.1484375 42.40234375 C-51.63667969 41.90347656 -51.12492187 41.40460938 -50.59765625 40.890625 C-49.43157571 39.74425286 -48.28732125 38.57573913 -47.1484375 37.40234375 C-43.73685494 38.53953794 -43.02989149 39.44577319 -41.1484375 42.40234375 C-41.1484375 43.06234375 -41.1484375 43.72234375 -41.1484375 44.40234375 C-40.5296875 44.71171875 -39.9109375 45.02109375 -39.2734375 45.33984375 C-37.8984375 46.02734375 -36.5234375 46.71484375 -35.1484375 47.40234375 C-33.77500919 47.47129095 -32.39841648 47.48702083 -31.0234375 47.46484375 C-29.1053125 47.43390625 -29.1053125 47.43390625 -27.1484375 47.40234375 C-25.8284375 45.09234375 -24.5084375 42.78234375 -23.1484375 40.40234375 C-24.0353125 39.76296875 -24.9221875 39.12359375 -25.8359375 38.46484375 C-30.7391789 34.35169812 -33.97796945 28.70776843 -35.1484375 22.40234375 C-35.1484375 14.70815462 -32.37910777 8.05910795 -27.1484375 2.40234375 C-19.35846849 -3.6388567 -8.79051133 -5.0825796 0 0 Z " fill="#E6DCCF" transform="translate(221.1484375,181.59765625)"/>
<path d="M0 0 C0.99 0.33 1.98 0.66 3 1 C2.814375 1.7425 2.62875 2.485 2.4375 3.25 C2.00158134 5.99006016 2.28005547 7.39020109 3 10 C1.39089587 13.21820826 -1.97989557 13.77168513 -5.1875 15 C-5.84814453 15.26039063 -6.50878906 15.52078125 -7.18945312 15.7890625 C-12.66359592 17.92900381 -18.07692031 19.93543455 -23.875 21 C-26.81772575 21.54387011 -29.65533429 22.17826825 -32.546875 22.96484375 C-38.07961989 24.36654174 -43.71293387 24.92399732 -49.375 25.5625 C-50.4475 25.68818359 -51.52 25.81386719 -52.625 25.94335938 C-59.07717449 26.69297332 -65.53196101 27.40189215 -72 28 C-73.40536011 28.13704346 -73.40536011 28.13704346 -74.83911133 28.27685547 C-84.57909151 29.13904543 -94.2922878 29.20098108 -104.0625 29.1875 C-104.9406134 29.18656342 -105.81872681 29.18562683 -106.72344971 29.18466187 C-167.95775173 29.04379924 -167.95775173 29.04379924 -185 19 C-183.68 18.67 -182.36 18.34 -181 18 C-181 17.34 -181 16.68 -181 16 C-177.625 15.875 -177.625 15.875 -174 16 C-173.34 16.66 -172.68 17.32 -172 18 C-170.11303557 18.24436311 -170.11303557 18.24436311 -167.95703125 18.125 C-167.12880859 18.10953125 -166.30058594 18.0940625 -165.44726562 18.078125 C-163.74149119 18.02754607 -162.03575779 17.97555493 -160.33007812 17.921875 C-155.14410808 17.82693733 -150.25735745 18.20099379 -145.12646484 18.98681641 C-137.1556028 20.11961171 -129.25456302 20.32744062 -121.20703125 20.3359375 C-119.72612901 20.34240174 -118.24522791 20.34913241 -116.764328 20.35610962 C-113.67594462 20.3679803 -110.5876721 20.37180178 -107.49926758 20.37060547 C-104.39779025 20.37044412 -101.2969112 20.38415729 -98.19555664 20.41162109 C-78.06268679 20.58719728 -58.86587704 19.61826747 -39 16 C-38.09041534 15.83486404 -37.18083069 15.66972809 -36.24368286 15.49958801 C-23.32298659 13.10892219 -10.66028374 9.1659092 1 3 C0.67 2.01 0.34 1.02 0 0 Z " fill="#EFE3D3" transform="translate(269,123)"/>
<path d="M0 0 C-1.49132948 4.72254335 -1.49132948 4.72254335 -4.0625 6.125 C-5.0215625 6.558125 -5.0215625 6.558125 -6 7 C-6.33 7.99 -6.66 8.98 -7 10 C-11.41674508 13.73258261 -15.66382135 13.29479733 -21.125 13.0625 C-22.73145231 13.00248151 -24.33826673 12.9513285 -25.9453125 12.91015625 C-26.65187988 12.88058838 -27.35844727 12.85102051 -28.08642578 12.82055664 C-30.33177118 12.87841884 -30.33177118 12.87841884 -33 15 C-33.99 15 -34.98 15 -36 15 C-36 15.66 -36 16.32 -36 17 C-37.41543415 17.19658808 -38.83244031 17.38187546 -40.25 17.5625 C-41.03890625 17.66691406 -41.8278125 17.77132812 -42.640625 17.87890625 C-45.03555228 18.0018247 -46.70609253 17.62979023 -49 17 C-53.54115473 16.85583636 -57.57013341 16.89253335 -62 18 C-62 18.66 -62 19.32 -62 20 C-66.63622125 20.91068632 -69.67828993 21.39610651 -74.0625 19.5 C-78.04189754 17.79119988 -80.73889568 17.95482347 -85 19 C-86.2375 19.5259375 -86.2375 19.5259375 -87.5 20.0625 C-92.24447049 21.84167643 -95.91453669 21.48458183 -100.5 19.4375 C-104.57817765 17.76253418 -106.76273021 18.00299534 -111 19 C-111.66 19.33 -112.32 19.66 -113 20 C-117.7275594 20.58733426 -121.57316915 20.60196926 -125.625 17.9375 C-129.78511239 15.54928733 -131.41347583 15.93527117 -136 17 C-137.0725 17.309375 -138.145 17.61875 -139.25 17.9375 C-143.51774564 18.00862909 -144.59861002 17.21293748 -148.125 15 C-153.7676841 11.59412576 -157.66997954 11.75733061 -164.0546875 12.86328125 C-168.90402185 13.08838298 -171.31456804 10.60927285 -174.8125 7.5 C-177 5 -177 5 -177 2 C-172.39330544 2.51185495 -172.39330544 2.51185495 -170.34765625 5.05078125 C-166.96389086 7.86026366 -163.84199042 7.23051642 -159.6875 6.9375 C-152.62438278 6.65251135 -149.40470339 7.19581921 -144 12 C-140.74728105 12.36823233 -138.91774779 12.45887389 -136 11 C-129.11747009 10.24490229 -125.75025269 11.12482971 -120 15 C-117.11416744 15.10708099 -114.85950538 14.63006051 -112 14 C-111.67 13.67 -111.34 13.34 -111 13 C-106.4777424 12.4953704 -102.4376523 12.54145223 -98.3125 14.5625 C-94.52646935 16.20549443 -92.908748 16.12919387 -89 15 C-88.38125 14.649375 -87.7625 14.29875 -87.125 13.9375 C-82.61801291 11.94912334 -78.04931657 12.68145747 -73.5 14.0625 C-69.05690144 15.25261568 -66.49450223 14.95784474 -62 14 C-61.0409375 13.2265625 -61.0409375 13.2265625 -60.0625 12.4375 C-56.1552696 9.71427881 -51.00419677 10.67474396 -46.47265625 11.41015625 C-41.62987829 12.29918185 -41.62987829 12.29918185 -37.046875 10.98828125 C-35.79221094 10.06836999 -34.54097271 9.14377041 -33.29296875 8.21484375 C-28.64861043 5.75420416 -23.15967527 6.08651895 -18 6 C-18 6.66 -18 7.32 -18 8 C-13.98078758 6.02565004 -10.03049399 4.04922718 -6.1875 1.75 C-3 0 -3 0 0 0 Z " fill="#B3ABA4" transform="translate(262,155)"/>
<path d="M0 0 C0.99 0 1.98 0 3 0 C3.66 0.99 4.32 1.98 5 3 C5.33 2.34 5.66 1.68 6 1 C6.99 1.33 7.98 1.66 9 2 C9.06863925 8.45780979 8.81637184 14.81873885 8.34375 21.2578125 C8.27716187 22.20510223 8.21057373 23.15239197 8.14196777 24.12838745 C7.93094576 27.12747752 7.71588635 30.12625644 7.5 33.125 C7.28436251 36.1308998 7.06969722 39.13685361 6.85803223 42.14303589 C6.72686357 44.00528568 6.59344307 45.86737871 6.45739746 47.72927856 C6.19093068 51.50623516 6.00112604 55.20962322 6.02148438 58.99951172 C6 62 6 62 5 64 C3.35 63.67 1.7 63.34 0 63 C-0.21092285 62.19071045 -0.4218457 61.3814209 -0.63916016 60.54760742 C-1.62948753 56.7595918 -2.62501868 52.97297655 -3.625 49.1875 C-3.80540833 48.50449829 -3.98581665 47.82149658 -4.17169189 47.11779785 C-6.58961129 37.99238798 -9.1804408 28.95335462 -12.11816406 19.97998047 C-13.83071837 14.70141119 -15.10079078 9.48517625 -16 4 C-13 4 -13 4 -11.3125 5.5 C-10.879375 5.995 -10.44625 6.49 -10 7 C-10 5.02 -10 3.04 -10 1 C-9.01 1.33 -8.02 1.66 -7 2 C-7 3.32 -7 4.64 -7 6 C-4.69 6 -2.38 6 0 6 C0 4.02 0 2.04 0 0 Z " fill="#1E1311" transform="translate(247,287)"/>
<path d="M0 0 C0 0.66 0 1.32 0 2 C1.65 2 3.3 2 5 2 C5.2475 2.61875 5.495 3.2375 5.75 3.875 C7.22047178 6.37480203 8.41403076 6.83316022 11 8 C-14.76376337 12.36275707 -14.76376337 12.36275707 -27 14 C-25.63994392 18.64101612 -23.66471021 22.54432313 -21.125 26.625 C-20.7429541 27.2538208 -20.3609082 27.8826416 -19.96728516 28.53051758 C-18.1259998 31.55934084 -16.26500045 34.57527656 -14.38867188 37.58251953 C-12.70749819 40.27814419 -11.04118402 42.982592 -9.375 45.6875 C-8.8298877 46.54875488 -8.28477539 47.41000977 -7.72314453 48.29736328 C-7.22411621 49.11060059 -6.72508789 49.92383789 -6.2109375 50.76171875 C-5.76024902 51.48319092 -5.30956055 52.20466309 -4.84521484 52.94799805 C-4 55 -4 55 -4.20166016 57.18676758 C-5 59 -5 59 -7.5625 60.25 C-8.366875 60.4975 -9.17125 60.745 -10 61 C-14.53672545 56.23643828 -17.78482528 51.12614775 -20.96240234 45.40454102 C-23.06537706 41.62048775 -25.26420772 37.944889 -27.625 34.3125 C-30.52926759 29.82348366 -33.13240314 25.22834241 -35.640625 20.5078125 C-36.98891585 17.94300451 -36.98891585 17.94300451 -38.69140625 15.38671875 C-40.41968629 12.23454232 -39.87062977 10.40337092 -39 7 C-34.70907308 5.43918144 -30.66552047 4.5474256 -26.140625 3.96484375 C-24.86058594 3.79533203 -23.58054687 3.62582031 -22.26171875 3.45117188 C-20.92453883 3.27948256 -19.58729843 3.10826372 -18.25 2.9375 C-15.60875928 2.59682739 -12.96837479 2.25072858 -10.328125 1.90234375 C-8.57870605 1.67792603 -8.57870605 1.67792603 -6.79394531 1.44897461 C-4.28835827 1.04633789 -2.48623861 0 0 0 Z " fill="#867D75" transform="translate(84,131)"/>
<path d="M0 0 C0.99 0.33 1.98 0.66 3 1 C5.9632391 1.11982801 8.90685312 1.18601632 11.87109375 1.2109375 C13.72828105 1.23703978 15.58545858 1.26384405 17.44262695 1.29125977 C18.42123688 1.30456329 19.3998468 1.31786682 20.40811157 1.33157349 C41.71544692 1.63701576 62.80057524 2.87626157 84 5 C84 5.33 84 5.66 84 6 C83.31292969 6.04898438 82.62585938 6.09796875 81.91796875 6.1484375 C81.01691406 6.22320312 80.11585938 6.29796875 79.1875 6.375 C78.29417969 6.44460937 77.40085937 6.51421875 76.48046875 6.5859375 C73.75601501 6.86645036 73.75601501 6.86645036 71 9 C71 8.01 71 7.02 71 6 C68.03171571 9.35128872 66.70204908 11.60295579 66 16 C65.17749756 15.9285376 64.35499512 15.8570752 63.50756836 15.78344727 C51.85410652 14.87986402 40.24538315 14.88598217 28.5625 14.9375 C26.55924592 14.94252882 24.55599061 14.94708926 22.55273438 14.95117188 C17.70179181 14.96205928 12.85090997 14.97924642 8 15 C6.66666667 11 5.33333333 7 4 3 C1.99983534 1.79117904 1.99983534 1.79117904 0 1 C0 0.67 0 0.34 0 0 Z " fill="#A09789" transform="translate(144,106)"/>
<path d="M0 0 C7.28435101 -0.52193169 12.21582567 1.64536075 17.8203125 6.2578125 C21.28061652 9.92323763 21.99516505 13.56144396 21.90625 18.4921875 C21.88763916 19.83361816 21.88763916 19.83361816 21.86865234 21.20214844 C21.8527002 21.88051758 21.83674805 22.55888672 21.8203125 23.2578125 C17.89172331 23.30793681 13.96326266 23.34386752 10.03442383 23.36767578 C8.05478354 23.38246167 6.07523187 23.40789842 4.09570312 23.43359375 C-3.56696761 23.47239208 -10.70556708 22.98673278 -18.1796875 21.2578125 C-18.67251244 15.34391317 -17.6738904 11.13130602 -14.1796875 6.2578125 C-9.7822795 2.03755127 -5.94235469 0.70285916 0 0 Z " fill="#0C0607" transform="translate(130.1796875,102.7421875)"/>
<path d="M0 0 C2.88927778 1.22947991 4.41220604 2.07301312 6.08984375 4.71875 C7.23735631 7.59491883 7.42379039 10.16478602 7.625 13.25 C7.69976562 14.32765625 7.77453125 15.4053125 7.8515625 16.515625 C7.92503906 17.74539062 7.92503906 17.74539062 8 19 C9.65 19 11.3 19 13 19 C12.45912682 22.78611227 10.88277668 24.55400767 8 27 C7.34 27 6.68 27 6 27 C5.67 27.99 5.34 28.98 5 30 C0.22943078 32.26602038 -4.81805364 32.98013788 -10 32 C-15.30529104 29.45788138 -19.80766426 25.99669942 -23 21 C-23 20.34 -23 19.68 -23 19 C-21.35 19 -19.7 19 -18 19 C-17.99742187 18.28714844 -17.99484375 17.57429688 -17.9921875 16.83984375 C-17.73636417 10.50395269 -16.93962363 6.82988373 -12.47265625 2.2421875 C-8.78579156 -0.86768775 -4.59746365 -0.445429 0 0 Z " fill="#EBE3D8" transform="translate(214,191)"/>
<path d="M0 0 C3.41158256 1.13719419 4.11854601 2.04342944 6 5 C6 5.66 6 6.32 6 7 C6.928125 7.4640625 6.928125 7.4640625 7.875 7.9375 C9.25 8.625 10.625 9.3125 12 10 C16.08368089 10.64801816 16.08368089 10.64801816 20 10 C22.21069413 7.58881332 23.62768879 4.95574722 25 2 C26.32 2.33 27.64 2.66 29 3 C30.18695974 6.95653245 30.1010763 9.48381778 28.4375 13.1875 C26.23317067 17.08231161 24.40934641 18.71728105 20 20 C15.44447377 20.60556844 11.01645088 21.10089322 6.875 18.83984375 C5.23896457 17.57403186 3.61848221 16.28817972 2 15 C-0.96761749 15.15424207 -2.04319512 16.03888304 -4.26953125 18.04296875 C-7.89861762 20.64407358 -10.27121475 20.43793807 -14.6875 20.3125 C-15.36361328 20.30283203 -16.03972656 20.29316406 -16.73632812 20.28320312 C-21.65890576 20.17054712 -21.65890576 20.17054712 -24 19 C-24 18.34 -24 17.68 -24 17 C-24.66 17 -25.32 17 -26 17 C-28.24828052 12.50343896 -28.16682272 8.92127034 -28 4 C-26.68 3.67 -25.36 3.34 -24 3 C-21.98863724 5.55991624 -20.37154504 8.04590299 -19 11 C-15.67721753 11.40687132 -13.07032686 11.67206571 -10.15234375 9.83984375 C-8.3526996 8.29333636 -6.66578416 6.68952455 -5 5 C-4.23236328 4.25169922 -4.23236328 4.25169922 -3.44921875 3.48828125 C-2.28313821 2.34190911 -1.13888375 1.17339538 0 0 Z " fill="#120908" transform="translate(174,219)"/>
<path d="M0 0 C3.375 -0.125 3.375 -0.125 7 0 C7.66 0.66 8.32 1.32 9 2 C11.73040512 2.25836091 14.38884851 2.42089358 17.125 2.5 C22.29632608 2.65423253 26.80541304 3.1661866 31.82910156 4.53662109 C36.260025 5.482403 40.79757066 5.44102371 45.3125 5.5625 C47.4479505 5.63441889 49.58336719 5.70734845 51.71875 5.78125 C52.77578125 5.81605469 53.8328125 5.85085937 54.921875 5.88671875 C59.38912073 6.05112246 63.8498456 6.30474246 68.3125 6.5625 C74.88073219 6.93068369 81.41945233 7.13308973 88 7 C86.125 11.875 86.125 11.875 85 13 C58.72318647 14.63731323 19.14198845 16.6386633 -4 3 C-2.68 2.67 -1.36 2.34 0 2 C0 1.34 0 0.68 0 0 Z " fill="#F0E6D7" transform="translate(88,139)"/>
<path d="M0 0 C3.625 -0.1875 3.625 -0.1875 7 0 C6.13909559 8.24270177 6.13909559 8.24270177 5.4375 12.0625 C3.86530532 22.61866427 6.22327783 31.0252082 10.9765625 40.421875 C12.06873357 43.17314563 12.27674215 45.06858312 12 48 C9.89868615 50.10131385 5.45853678 49.18514741 2.5625 49.1875 C1.77294922 49.19974609 0.98339844 49.21199219 0.16992188 49.22460938 C-1.88807435 49.22987279 -3.94562009 49.12206285 -6 49 C-6.66 48.34 -7.32 47.68 -8 47 C-7.625 44.375 -7.625 44.375 -7 42 C-3.535 41.505 -3.535 41.505 0 41 C-0.4640652 37.82888782 -1.03917464 34.87513082 -2 31.8125 C-4.55229345 22.08188121 -4.2074022 12.81067645 -2 3 C-1.34 2.01 -0.68 1.02 0 0 Z " fill="#877E77" transform="translate(182,301)"/>
<path d="M0 0 C2.31 0 4.62 0 7 0 C6.7834375 1.3303125 6.7834375 1.3303125 6.5625 2.6875 C4.58456143 17.02755462 4.6930139 29.53952085 13 42 C13.125 44.6875 13.125 44.6875 13 47 C8.51763131 48.75219867 5.04416565 49.2174404 0.25 48.875 C-0.87921875 48.81054688 -2.0084375 48.74609375 -3.171875 48.6796875 C-6 48 -6 48 -7.390625 45.9453125 C-7.59171875 45.30335938 -7.7928125 44.66140625 -8 44 C-6 41 -6 41 -4.0546875 40.48828125 C-3.33539063 40.43027344 -2.61609375 40.37226563 -1.875 40.3125 C0.043125 40.1578125 0.043125 40.1578125 2 40 C1.72285156 39.39671875 1.44570312 38.7934375 1.16015625 38.171875 C0.79792969 37.37265625 0.43570313 36.5734375 0.0625 35.75 C-0.29714844 34.96109375 -0.65679687 34.1721875 -1.02734375 33.359375 C-3.17441556 28.15121688 -3.21569951 23.31525386 -3.25 17.75 C-3.270625 16.92886719 -3.29125 16.10773438 -3.3125 15.26171875 C-3.34906526 9.49354857 -2.31455885 5.28693969 0 0 Z " fill="#857C74" transform="translate(154,302)"/>
<path d="M0 0 C4.1687475 0.77558093 5.29125819 3.07679741 7.6875 6.5 C7.6875 7.16 7.6875 7.82 7.6875 8.5 C10.1625 9.49 10.1625 9.49 12.6875 10.5 C12.6875 11.16 12.6875 11.82 12.6875 12.5 C13.3475 12.5 14.0075 12.5 14.6875 12.5 C16.26761037 14.44127845 17.6410663 16.48976439 19.0546875 18.5546875 C20.80481808 20.63977131 22.25376176 21.36968643 24.6875 22.5 C26.08181504 25.28863007 25.94410094 27.42078868 25.6875 30.5 C22.84168139 32.39721241 21.68496788 32.84791281 18.45703125 33.3515625 C17.65458984 33.48046875 16.85214844 33.609375 16.02539062 33.7421875 C15.19201172 33.86851562 14.35863281 33.99484375 13.5 34.125 C12.2325293 34.32609375 12.2325293 34.32609375 10.93945312 34.53125 C8.85650055 34.86075662 6.77212573 35.18124989 4.6875 35.5 C3.6975 32.86 2.7075 30.22 1.6875 27.5 C7.1325 26.51 7.1325 26.51 12.6875 25.5 C9.50795603 20.06827905 5.47318761 16.52755888 0.6875 12.5 C-4.19385593 8.22881356 -4.19385593 8.22881356 -4.75 4.8125 C-4.14468545 1.61298022 -3.17378525 0.68622384 0 0 Z " fill="#857B71" transform="translate(241.3125,244.5)"/>
<path d="M0 0 C0.8765625 0.144375 1.753125 0.28875 2.65625 0.4375 C15.11341099 2.26049917 27.43019852 2.20466861 40 2 C40.33 1.34 40.66 0.68 41 0 C44.40312738 1.05875074 47.01353231 2.00902154 50 4 C49.875 5.8125 49.875 5.8125 49 8 C44.74524729 10.58697417 41.54416795 11.37683334 36.59765625 11.36328125 C34.77657349 11.36424805 34.77657349 11.36424805 32.91870117 11.36523438 C31.64615479 11.34783203 30.3736084 11.33042969 29.0625 11.3125 C27.76610596 11.30412109 26.46971191 11.29574219 25.1340332 11.28710938 C16.28659702 11.1761071 7.69398134 10.68173732 -1 9 C-0.67 6.03 -0.34 3.06 0 0 Z " fill="#0A0404" transform="translate(111,130)"/>
<path d="M0 0 C-0.474375 0.86625 -0.94875 1.7325 -1.4375 2.625 C-2.93234895 5.85387374 -3.58218313 8.49033826 -4 12 C-10.51243781 12.12769486 -10.51243781 12.12769486 -13.625 11.3125 C-16.94034695 10.87627014 -18.33045611 12.10321882 -21 14 C-24.02593352 16.01728902 -26.5705014 16.8568338 -30 18 C-32.01470098 18.97004121 -34.01922047 19.96244882 -36 21 C-36 20.01 -36 19.02 -36 18 C-36.99 17.67 -37.98 17.34 -39 17 C-38.92311083 14.30887907 -38.58834392 12.57167695 -36.62109375 10.66015625 C-29.49026716 5.41174026 -21.75658665 3.2439156 -13.25 1.25 C-11.83267578 0.90001953 -11.83267578 0.90001953 -10.38671875 0.54296875 C-9.48050781 0.32769531 -8.57429688 0.11242187 -7.640625 -0.109375 C-6.82110352 -0.30499023 -6.00158203 -0.50060547 -5.15722656 -0.70214844 C-3 -1 -3 -1 0 0 Z " fill="#A2998B" transform="translate(115,112)"/>
<path d="M0 0 C0.721875 0.886875 1.44375 1.77375 2.1875 2.6875 C2.785625 3.38875 3.38375 4.09 4 4.8125 C5.86515568 9.32814007 5.4154773 13.86620222 5.1875 18.6875 C1.4375 19.8125 1.4375 19.8125 -0.8125 18.6875 C-1.12109375 16.578125 -1.12109375 16.578125 -1.25 13.9375 C-1.58747677 9.79896905 -2.06442196 6.96405459 -4.8125 3.6875 C-8.91150053 2.32116649 -12.53070928 2.08731737 -16.8125 2.6875 C-21.07174726 4.89599858 -22.29040745 6.16670769 -23.84375 10.69140625 C-24.60577067 13.67951509 -25.26096982 16.65408401 -25.8125 19.6875 C-27.4625 19.6875 -29.1125 19.6875 -30.8125 19.6875 C-31.54657536 12.41471633 -31.08760699 7.41768759 -26.5859375 1.5 C-19.60106349 -5.63872586 -7.57702431 -6.22999777 0 0 Z " fill="#1D1312" transform="translate(221.8125,189.3125)"/>
<path d="M0 0 C3.0359395 1.33848008 3.93287357 2.30647162 6 5 C6 5.99 6 6.98 6 8 C6.66 8 7.32 8 8 8 C9.09506492 11.28519475 9.09960608 13.73663415 9.0625 17.1875 C9.05347656 18.27417969 9.04445312 19.36085937 9.03515625 20.48046875 C9.02355469 21.31191406 9.01195312 22.14335937 9 23 C7.02 22.67 5.04 22.34 3 22 C2.96261719 21.33613281 2.92523438 20.67226562 2.88671875 19.98828125 C2.39055034 13.01433671 2.39055034 13.01433671 -1 7 C-4.47182303 5.26408848 -8.20408964 5.53428327 -12 6 C-16.1079441 8.091317 -18.27382136 9.7651084 -20 14 C-20.44811137 16.35564596 -20.44811137 16.35564596 -20.625 18.75 C-20.73714844 19.94882813 -20.73714844 19.94882813 -20.8515625 21.171875 C-20.90054688 21.77515625 -20.94953125 22.3784375 -21 23 C-22.65 23 -24.3 23 -26 23 C-26.05449838 21.27119018 -26.09301688 19.54187288 -26.125 17.8125 C-26.14820312 16.84957031 -26.17140625 15.88664063 -26.1953125 14.89453125 C-25.9913544 11.87187222 -25.26874632 9.73230015 -24 7 C-23.34 7 -22.68 7 -22 7 C-21.773125 6.401875 -21.54625 5.80375 -21.3125 5.1875 C-16.91196641 -2.14672265 -7.41728272 -0.88649541 0 0 Z " fill="#160C0A" transform="translate(152,187)"/>
<path d="M0 0 C0.1875 3.125 0.1875 3.125 0 6 C2.31 6 4.62 6 7 6 C7 6.66 7 7.32 7 8 C5.02 8.33 3.04 8.66 1 9 C0.896875 9.639375 0.79375 10.27875 0.6875 10.9375 C0.460625 11.618125 0.23375 12.29875 0 13 C-0.99 13.33 -1.98 13.66 -3 14 C-3 14.66 -3 15.32 -3 16 C-4.62490954 16.02698189 -6.24994633 16.04638757 -7.875 16.0625 C-8.77992188 16.07410156 -9.68484375 16.08570313 -10.6171875 16.09765625 C-13 16 -13 16 -15 15 C-15 14.01 -15 13.02 -15 12 C-15.99 11.67 -16.98 11.34 -18 11 C-18.46551724 2.93103448 -18.46551724 2.93103448 -16.75 -0.5 C-11.98048951 -4.58815185 -4.92297282 -3.28198188 0 0 Z " fill="#84786E" transform="translate(232,274)"/>
<path d="M0 0 C4.60669456 0.51185495 4.60669456 0.51185495 6.65234375 3.05078125 C10.03610914 5.86026366 13.15800958 5.23051642 17.3125 4.9375 C24.37561722 4.65251135 27.59529661 5.19581921 33 10 C36.25271895 10.36823233 38.08225221 10.45887389 41 9 C47.79593861 8.25440242 51.37686608 9.00132699 57 13 C60.75129837 13.33524876 60.75129837 13.33524876 64 13 C64 13.99 64 14.98 64 16 C64.66 16.33 65.32 16.66 66 17 C62.53366599 18.733167 58.79001999 18.48702069 55 18 C53.09765625 17.0703125 53.09765625 17.0703125 51.375 15.9375 C47.21488761 13.54928733 45.58652417 13.93527117 41 15 C39.9275 15.309375 38.855 15.61875 37.75 15.9375 C33.48225436 16.00862909 32.40138998 15.21293748 28.875 13 C23.2323159 9.59412576 19.33002046 9.75733061 12.9453125 10.86328125 C8.09597815 11.08838298 5.68543196 8.60927285 2.1875 5.5 C0 3 0 3 0 0 Z " fill="#B3ABA4" transform="translate(85,157)"/>
<path d="M0 0 C1.57526421 2.28879852 2.16570194 4.3008004 3 7 C3.74765625 6.84402344 4.4953125 6.68804687 5.265625 6.52734375 C6.25046875 6.33269531 7.2353125 6.13804687 8.25 5.9375 C9.71179688 5.64166016 9.71179688 5.64166016 11.203125 5.33984375 C13.868119 5.01602465 15.48871723 5.14496801 18 6 C17.37351562 6.31453125 16.74703125 6.6290625 16.1015625 6.953125 C15.28429687 7.38109375 14.46703125 7.8090625 13.625 8.25 C12.81289062 8.66765625 12.00078125 9.0853125 11.1640625 9.515625 C8.79198795 11.14267975 8.02905196 12.35386639 7 15 C6.01 15 5.02 15 4 15 C4 16.98 4 18.96 4 21 C1.69 21 -0.62 21 -3 21 C-3.12375 20.360625 -3.2475 19.72125 -3.375 19.0625 C-3.58125 18.381875 -3.7875 17.70125 -4 17 C-4.66 16.67 -5.32 16.34 -6 16 C-6 17.98 -6 19.96 -6 22 C-6.99 21.67 -7.98 21.34 -9 21 C-9.33 20.01 -9.66 19.02 -10 18 C-9.01 18 -8.02 18 -7 18 C-7 17.34 -7 16.68 -7 16 C-9.31 16.33 -11.62 16.66 -14 17 C-13.525625 16.566875 -13.05125 16.13375 -12.5625 15.6875 C-10.76313043 13.97690387 -10.76313043 13.97690387 -10 11 C-8.02 10.67 -6.04 10.34 -4 10 C-4 9.34 -4 8.68 -4 8 C-6.31 8 -8.62 8 -11 8 C-11.125 2.25 -11.125 2.25 -10 0 C-6.11844023 -1.29385326 -3.93257325 -1.12359236 0 0 Z " fill="#CFA440" transform="translate(243,272)"/>
<path d="M0 0 C0.66 0.33 1.32 0.66 2 1 C2.3721042 2.32303717 2.70630173 3.65737935 3 5 C3.33 5.33 3.66 5.66 4 6 C4.04063832 7.66617115 4.042721 9.33388095 4 11 C4.99 11 5.98 11 7 11 C7.10957031 11.97582031 7.21914062 12.95164062 7.33203125 13.95703125 C7.49058594 15.22933594 7.64914063 16.50164062 7.8125 17.8125 C7.96332031 19.07707031 8.11414063 20.34164063 8.26953125 21.64453125 C9.02088636 25.09594324 9.50148681 25.77306433 12 28 C12.1875 31.6875 12.1875 31.6875 12 35 C12.66 35 13.32 35 14 35 C14 29.06 14 23.12 14 17 C14.66 17 15.32 17 16 17 C15.86087529 21.39607256 15.71253197 25.79178723 15.5625 30.1875 C15.52318359 31.43337891 15.48386719 32.67925781 15.44335938 33.96289062 C15.40146484 35.16494141 15.35957031 36.36699219 15.31640625 37.60546875 C15.27974854 38.71043701 15.24309082 39.81540527 15.20532227 40.95385742 C15.01847344 43.72592972 14.61837634 46.29542873 14 49 C12.35 48.67 10.7 48.34 9 48 C8.7733667 47.13834229 8.5467334 46.27668457 8.31323242 45.38891602 C7.46009303 42.15098781 6.60431792 38.91377909 5.74682617 35.67700195 C5.37827674 34.283721 5.01073884 32.89017203 4.64428711 31.49633789 C2.17881101 22.05058657 2.17881101 22.05058657 -0.7421875 12.73828125 C-1.94364611 9.16748657 -2.44317186 6.72264363 -2 3 C-1.34 2.01 -0.68 1.02 0 0 Z " fill="#180D0C" transform="translate(238,302)"/>
<path d="M0 0 C19.8 0.495 19.8 0.495 40 1 C40.495 2.98 40.495 2.98 41 5 C40.34 5.99 39.68 6.98 39 8 C36.80786133 8.37231445 36.80786133 8.37231445 34.08203125 8.36328125 C32.5805957 8.36424805 32.5805957 8.36424805 31.04882812 8.36523438 C29.98083984 8.34783203 28.91285156 8.33042969 27.8125 8.3125 C26.73291016 8.30412109 25.65332031 8.29574219 24.54101562 8.28710938 C16.22908704 8.16305074 8.18180395 7.46852891 0 6 C0 4.02 0 2.04 0 0 Z " fill="#A09891" transform="translate(112,125)"/>
<path d="M0 0 C1.66666667 0 3.33333333 0 5 0 C5.59731934 -0.01047363 6.19463867 -0.02094727 6.81005859 -0.03173828 C9.33165853 -0.07333494 11.85319058 -0.09926725 14.375 -0.125 C15.68984375 -0.15013672 15.68984375 -0.15013672 17.03125 -0.17578125 C17.87429687 -0.18222656 18.71734375 -0.18867187 19.5859375 -0.1953125 C20.3598584 -0.20578613 21.1337793 -0.21625977 21.93115234 -0.22705078 C24 0 24 0 27 2 C27 2.66 27 3.32 27 4 C26.01 4 25.02 4 24 4 C24 3.34 24 2.68 24 2 C23.34 2.33 22.68 2.66 22 3 C22 3.99 22 4.98 22 6 C21.01 6 20.02 6 19 6 C18.67 6.66 18.34 7.32 18 8 C17.01 7.67 16.02 7.34 15 7 C15.33 5.68 15.66 4.36 16 3 C14.35 3.33 12.7 3.66 11 4 C11 4.99 11 5.98 11 7 C8.66666667 7 6.33333333 7 4 7 C3.67 7.66 3.34 8.32 3 9 C4.27061279 9.21148682 4.27061279 9.21148682 5.56689453 9.42724609 C8.73210569 9.9564427 11.89654895 10.4899683 15.06054688 11.02636719 C16.42581778 11.25692618 17.79137518 11.48579568 19.15722656 11.71289062 C21.12901458 12.04104221 23.0996778 12.3759296 25.0703125 12.7109375 C26.84559326 13.00943604 26.84559326 13.00943604 28.65673828 13.31396484 C31.88885791 13.97719371 34.89666455 14.88841913 38 16 C34.83387466 17.05537511 33.89227977 16.96495323 30.74609375 16.29296875 C29.90127441 16.11934814 29.05645508 15.94572754 28.18603516 15.7668457 C27.27901855 15.57566162 26.37200195 15.38447754 25.4375 15.1875 C-2.14636408 9.69004956 -29.98420632 9.82078274 -58 10 C-58 9.34 -58 8.68 -58 8 C-52.25659491 7.97502366 -46.5132224 7.95701098 -40.76977539 7.94506836 C-38.82152759 7.94008234 -36.87328345 7.93329112 -34.92504883 7.92456055 C-5.40853271 7.79573365 -5.40853271 7.79573365 -1 10 C-1 7.36 -1 4.72 -1 2 C-0.01 2 0.98 2 2 2 C1.34 1.34 0.68 0.68 0 0 Z " fill="#8B837B" transform="translate(211,112)"/>
<path d="M0 0 C1.65 0.33 3.3 0.66 5 1 C5 9.25 5 17.5 5 26 C4.34 26 3.68 26 3 26 C3 31.94 3 37.88 3 44 C2.34 44 1.68 44 1 44 C0.67 41.69 0.34 39.38 0 37 C-0.66 37.66 -1.32 38.32 -2 39 C-3.73955334 32.56986533 -4.24991456 26.65050424 -4 20 C-4.66 20 -5.32 20 -6 20 C-6.33 16.37 -6.66 12.74 -7 9 C-5.68 9 -4.36 9 -3 9 C-3 9.66 -3 10.32 -3 11 C-2.34 11 -1.68 11 -1 11 C-0.67 18.59 -0.34 26.18 0 34 C0 22.78 0 11.56 0 0 Z " fill="#0C0506" transform="translate(249,293)"/>
<path d="M0 0 C-1.49132948 4.72254335 -1.49132948 4.72254335 -4.0625 6.125 C-5.0215625 6.558125 -5.0215625 6.558125 -6 7 C-6.33 7.99 -6.66 8.98 -7 10 C-11.95368443 14.17152373 -17.24989488 13.1815064 -23.31835938 12.8828125 C-28.44626294 12.72833172 -31.44016429 13.40095945 -36 16 C-38.69050391 16.58939133 -41.24371432 16.76238917 -44 17 C-44 16.34 -44 15.68 -44 15 C-44.66 14.67 -45.32 14.34 -46 14 C-43.69 14 -41.38 14 -39 14 C-39 13.34 -39 12.68 -39 12 C-33.06705554 6.24629858 -25.85772536 6.13176064 -18 6 C-18 6.66 -18 7.32 -18 8 C-13.98078758 6.02565004 -10.03049399 4.04922718 -6.1875 1.75 C-3 0 -3 0 0 0 Z " fill="#ACA49D" transform="translate(262,155)"/>
<path d="M0 0 C-3.8103085 2.39641256 -7.88854609 2.63471138 -12.26171875 3.0703125 C-13.07685944 3.15649338 -13.89200012 3.24267426 -14.73184204 3.33146667 C-17.38276997 3.60665304 -20.03480862 3.86739956 -22.6875 4.125 C-23.58794037 4.21437836 -24.48838074 4.30375671 -25.41610718 4.39584351 C-42.73879475 6.09686352 -59.80077749 6.93434541 -77.16333008 5.23852539 C-83.19414353 4.73141594 -89.25420231 4.63790138 -95.30273438 4.48242188 C-101.1975724 4.28253293 -106.3243723 3.58032104 -112 2 C-113.82744355 1.74511972 -115.66124105 1.52822991 -117.5 1.375 C-118.3559375 1.30023438 -119.211875 1.22546875 -120.09375 1.1484375 C-120.7228125 1.09945312 -121.351875 1.05046875 -122 1 C-122 0.67 -122 0.34 -122 0 C-115.23385194 -0.20538055 -108.7366381 -0.05781197 -102.03979492 0.98901367 C-94.00771617 2.14575745 -86.02913336 2.30979056 -77.92578125 2.30078125 C-76.42571397 2.30468766 -74.92564776 2.30902615 -73.42558289 2.31376648 C-70.30362339 2.32115818 -67.1817771 2.32099028 -64.05981445 2.31567383 C-60.90374482 2.31104747 -57.74806094 2.31795104 -54.59204102 2.33618164 C-30.94810454 2.50654183 -30.94810454 2.50654183 -7.52416992 -0.45239258 C-4.47180407 -0.92668815 -2.82243647 -1.10955394 0 0 Z " fill="#F1CF99" transform="translate(226,141)"/>
<path d="M0 0 C0.66 0 1.32 0 2 0 C2 0.66 2 1.32 2 2 C4.31 2.33 6.62 2.66 9 3 C4.29463183 6.13691211 -0.97345942 6.29968697 -6.5 7.125 C-8.2015625 7.39763672 -8.2015625 7.39763672 -9.9375 7.67578125 C-17.01617804 8.75544201 -23.84222711 9.24426171 -31 9 C-31.33 9.66 -31.66 10.32 -32 11 C-32 10.34 -32 9.68 -32 9 C-34.31 9 -36.62 9 -39 9 C-39 8.67 -39 8.34 -39 8 C-37.02 8 -35.04 8 -33 8 C-33.495 6.515 -33.495 6.515 -34 5 C-52.315 4.505 -52.315 4.505 -71 4 C-71 3.67 -71 3.34 -71 3 C-43.775 2.505 -43.775 2.505 -16 2 C-16 2.66 -16 3.32 -16 4 C-13.89695523 4.1080023 -11.79233091 4.18558987 -9.6875 4.25 C-8.51574219 4.29640625 -7.34398437 4.3428125 -6.13671875 4.390625 C-2.90397821 4.33806485 -2.90397821 4.33806485 -1.20703125 1.984375 C-0.80871094 1.32953125 -0.41039062 0.6746875 0 0 Z " fill="#E0CFBF" transform="translate(221,292)"/>
<path d="M0 0 C1.98 0.66 3.96 1.32 6 2 C6 2.66 6 3.32 6 4 C-5.6857637 12.90450708 -27.81181189 9.29152069 -41.375 7.5 C-44.91889701 7.01486113 -48.46046428 6.51597264 -52 6 C-52 5.34 -52 4.68 -52 4 C-50.4584364 3.97258088 -48.91672526 3.95341752 -47.375 3.9375 C-46.51648438 3.92589844 -45.65796875 3.91429687 -44.7734375 3.90234375 C-42 4 -42 4 -39.24658203 4.4934082 C-33.36716572 5.41082352 -27.43916471 5.22654821 -21.5 5.25 C-20.19417969 5.270625 -18.88835937 5.29125 -17.54296875 5.3125 C-15.64998047 5.32023438 -15.64998047 5.32023438 -13.71875 5.328125 C-12.00075195 5.34214355 -12.00075195 5.34214355 -10.24804688 5.35644531 C-6.56186508 4.95191845 -4.15691226 3.91678006 -1 2 C-0.67 1.34 -0.34 0.68 0 0 Z " fill="#EB590E" transform="translate(161,135)"/>
<path d="M0 0 C2.97 0.33 5.94 0.66 9 1 C10.125 6.75 10.125 6.75 9 9 C13.41665288 9.02902168 17.83328123 9.04680608 22.25 9.0625 C23.50425781 9.07087891 24.75851563 9.07925781 26.05078125 9.08789062 C27.25605469 9.09111328 28.46132812 9.09433594 29.703125 9.09765625 C30.81333008 9.10289307 31.92353516 9.10812988 33.06738281 9.11352539 C35.59615722 9.01563327 37.58284831 8.65828812 40 8 C42.59373914 7.93101758 45.15810197 7.90565248 47.75 7.9375 C48.44738281 7.94201172 49.14476562 7.94652344 49.86328125 7.95117188 C51.57555803 7.9628998 53.28779033 7.98083347 55 8 C55 8.33 55 8.66 55 9 C45.72468527 10.54590405 36.77960205 11.27946383 27.3828125 11.1953125 C25.54805862 11.19106766 25.54805862 11.19106766 23.67623901 11.18673706 C19.82572019 11.17567333 15.97544677 11.15059559 12.125 11.125 C9.49088881 11.11495233 6.85677392 11.10582963 4.22265625 11.09765625 C-2.18497749 11.07577946 -8.5924712 11.04244289 -15 11 C-15 10.67 -15 10.34 -15 10 C-13.90300781 9.87882813 -12.80601562 9.75765625 -11.67578125 9.6328125 C-10.22131177 9.46390637 -8.76688696 9.29461519 -7.3125 9.125 C-6.59126953 9.04636719 -5.87003906 8.96773437 -5.12695312 8.88671875 C-1.11484068 8.4103949 2.29975512 7.73699858 6 6 C6 5.34 6 4.68 6 4 C3.525 3.505 3.525 3.505 1 3 C0.67 2.01 0.34 1.02 0 0 Z " fill="#F56E12" transform="translate(161,133)"/>
<path d="M0 0 C0.66 0 1.32 0 2 0 C1.86087529 4.39607256 1.71253197 8.79178723 1.5625 13.1875 C1.50352539 15.05631836 1.50352539 15.05631836 1.44335938 16.96289062 C1.40146484 18.16494141 1.35957031 19.36699219 1.31640625 20.60546875 C1.26141968 22.26292114 1.26141968 22.26292114 1.20532227 23.95385742 C1.01847344 26.72592972 0.61837634 29.29542873 0 32 C-1.65 31.67 -3.3 31.34 -5 31 C-5.53341184 29.42085985 -6.05125763 27.83645613 -6.5625 26.25 C-6.99755859 24.92742187 -6.99755859 24.92742187 -7.44140625 23.578125 C-8.01697435 20.92165684 -7.89248371 19.52968894 -7 17 C-6.34 17.33 -5.68 17.66 -5 18 C-5.33 17.01 -5.66 16.02 -6 15 C-6.03954234 12.66700175 -6.04401732 10.33291811 -6 8 C-4 9.0625 -4 9.0625 -2 11 C-1.75 14.6875 -1.75 14.6875 -2 18 C-1.34 18 -0.68 18 0 18 C0 12.06 0 6.12 0 0 Z " fill="#564036" transform="translate(252,319)"/>
<path d="M0 0 C4.69775246 3.55800239 9.58940095 8.51225652 10.8515625 14.40234375 C11.60539028 22.55485156 10.26587301 28.52838718 5.1640625 35.08984375 C1.09080802 39.52250304 -3.02441977 42.15060652 -9.10546875 42.640625 C-11.8000744 42.65100217 -14.46024529 42.58023882 -17.1484375 42.40234375 C-17.1484375 42.07234375 -17.1484375 41.74234375 -17.1484375 41.40234375 C-15.90126953 41.20318359 -15.90126953 41.20318359 -14.62890625 41 C-13.54222656 40.82339844 -12.45554688 40.64679688 -11.3359375 40.46484375 C-10.25699219 40.29082031 -9.17804688 40.11679688 -8.06640625 39.9375 C-3.91529605 39.22511776 -3.91529605 39.22511776 -0.5859375 36.83984375 C-0.1115625 36.36546875 0.3628125 35.89109375 0.8515625 35.40234375 C1.5115625 35.40234375 2.1715625 35.40234375 2.8515625 35.40234375 C3.5115625 33.42234375 4.1715625 31.44234375 4.8515625 29.40234375 C3.5315625 29.07234375 2.2115625 28.74234375 0.8515625 28.40234375 C1.1815625 27.74234375 1.5115625 27.08234375 1.8515625 26.40234375 C2.8415625 26.40234375 3.8315625 26.40234375 4.8515625 26.40234375 C5.5115625 25.08234375 6.1715625 23.76234375 6.8515625 22.40234375 C7.1815625 23.06234375 7.5115625 23.72234375 7.8515625 24.40234375 C9.33407523 21.43731829 9.20926552 19.7409053 8.8515625 16.40234375 C6.4619885 9.96491379 3.66950719 5.12582835 -2.1484375 1.40234375 C-8.66551929 -1.52369297 -15.24305685 -0.36607455 -22.1484375 0.40234375 C-21.1484375 -1.59765625 -21.1484375 -1.59765625 -19.4140625 -2.203125 C-12.66331542 -3.37868613 -6.04701047 -3.49631675 0 0 Z " fill="#F8E3C3" transform="translate(221.1484375,181.59765625)"/>
<path d="M0 0 C2.475 0.495 2.475 0.495 5 1 C5.33 1.99 5.66 2.98 6 4 C8.97 4.495 8.97 4.495 12 5 C12.33 3.35 12.66 1.7 13 0 C14.98 0 16.96 0 19 0 C18.7716978 3.95723818 18.54977482 6.32996194 16 9.4375 C11.93188582 11.55630947 8.49624643 11.96467974 4 11 C1.4375 8.875 1.4375 8.875 0 6 C-0.25 2.6875 -0.25 2.6875 0 0 Z " fill="#877D72" transform="translate(166,243)"/>
<path d="M0 0 C3.75216628 6.50375489 4.28383384 11.72494155 3 19 C1.68 19 0.36 19 -1 19 C-1.06058594 18.40832031 -1.12117187 17.81664062 -1.18359375 17.20703125 C-1.62012371 13.09021792 -2.08671346 9.04455467 -3 5 C-4.98 5.66 -6.96 6.32 -9 7 C-9.33 4.69 -9.66 2.38 -10 0 C-6.11844023 -1.29385326 -3.93257325 -1.12359236 0 0 Z " fill="#E9B022" transform="translate(243,272)"/>
<path d="M0 0 C0 0.66 0 1.32 0 2 C-1.32 2.33 -2.64 2.66 -4 3 C-3.67 4.65 -3.34 6.3 -3 8 C-6.3 7.34 -9.6 6.68 -13 6 C-13 5.34 -13 4.68 -13 4 C-13.66 4 -14.32 4 -15 4 C-15.309375 4.639375 -15.61875 5.27875 -15.9375 5.9375 C-17 8 -17 8 -18 9 C-19.810285 9.09879565 -21.62452727 9.12971514 -23.4375 9.125 C-24.42621094 9.12757813 -25.41492188 9.13015625 -26.43359375 9.1328125 C-29 9 -29 9 -31 8 C-31 7.34 -31 6.68 -31 6 C-32.32 5.67 -33.64 5.34 -35 5 C-34.24380371 4.91959473 -33.48760742 4.83918945 -32.70849609 4.75634766 C-29.26321958 4.38609795 -25.8191424 4.00564911 -22.375 3.625 C-20.59029297 3.43550781 -20.59029297 3.43550781 -18.76953125 3.2421875 C-17.61582031 3.11328125 -16.46210938 2.984375 -15.2734375 2.8515625 C-14.21560059 2.73635254 -13.15776367 2.62114258 -12.06787109 2.50244141 C-7.88052945 1.81665841 -4.25097937 0 0 0 Z " fill="#DAC5B3" transform="translate(236,288)"/>
<path d="M0 0 C3.40312738 1.05875074 6.01353231 2.00902154 9 4 C8.875 5.8125 8.875 5.8125 8 8 C3.56387424 10.73859915 0.23981956 11.36159053 -4.9296875 11.29296875 C-6.21875 11.28330078 -7.5078125 11.27363281 -8.8359375 11.26367188 C-10.18229786 11.23861188 -11.52865203 11.21321712 -12.875 11.1875 C-14.24477705 11.17243504 -15.61457002 11.15874982 -16.984375 11.14648438 C-20.32332358 11.11121379 -23.66145675 11.06191896 -27 11 C-27 10.67 -27 10.34 -27 10 C-17.76 10 -8.52 10 1 10 C1 9.34 1 8.68 1 8 C0.34 8 -0.32 8 -1 8 C-1.33 6.68 -1.66 5.36 -2 4 C-8.93 4 -15.86 4 -23 4 C-23 3.67 -23 3.34 -23 3 C-15.74 2.67 -8.48 2.34 -1 2 C-0.67 1.34 -0.34 0.68 0 0 Z " fill="#260F08" transform="translate(152,130)"/>
<path d="M0 0 C5.6335418 -0.02515492 11.26704927 -0.04306946 16.90063477 -0.05493164 C18.80786714 -0.05988881 20.71509586 -0.06665654 22.62231445 -0.07543945 C40.74225589 -0.15665195 58.45152104 0.13846081 76.3125 3.4375 C77.55966797 3.65470703 78.80683594 3.87191406 80.09179688 4.09570312 C85.56802128 5.07244802 90.7451135 6.14345376 96 8 C92.83387466 9.05537511 91.89227977 8.96495323 88.74609375 8.29296875 C87.90127441 8.11934814 87.05645508 7.94572754 86.18603516 7.7668457 C85.27901855 7.57566162 84.37200195 7.38447754 83.4375 7.1875 C55.85363592 1.69004956 28.01579368 1.82078274 0 2 C0 1.34 0 0.68 0 0 Z " fill="#B58C3E" transform="translate(153,120)"/>
<path d="M0 0 C0.99 0.33 1.98 0.66 3 1 C3 2.32 3 3.64 3 5 C4.98 5 6.96 5 9 5 C9 5.33 9 5.66 9 6 C7.35 6 5.7 6 4 6 C4 8.31 4 10.62 4 13 C2.02 13.66 0.04 14.32 -2 15 C-4.42130331 12.57869669 -4.52840504 11.19888623 -5.125 7.875 C-5.29257813 6.96492188 -5.46015625 6.05484375 -5.6328125 5.1171875 C-5.75398437 4.41851562 -5.87515625 3.71984375 -6 3 C-3 3 -3 3 -1.3125 4.5 C-0.879375 4.995 -0.44625 5.49 0 6 C0 4.02 0 2.04 0 0 Z " fill="#080305" transform="translate(237,288)"/>
<path d="M0 0 C2.475 0.495 2.475 0.495 5 1 C6.09506492 4.28519475 6.09960608 6.73663415 6.0625 10.1875 C6.05347656 11.27417969 6.04445312 12.36085937 6.03515625 13.48046875 C6.02355469 14.31191406 6.01195312 15.14335937 6 16 C3.03 15.505 3.03 15.505 0 15 C0 10.05 0 5.1 0 0 Z " fill="#231714" transform="translate(155,194)"/>
<path d="M0 0 C0.495 1.98 0.495 1.98 1 4 C0.01 4.33 -0.98 4.66 -2 5 C-2.66 4.67 -3.32 4.34 -4 4 C-4.33 4.99 -4.66 5.98 -5 7 C-4.34 7.66 -3.68 8.32 -3 9 C-3.33 9.66 -3.66 10.32 -4 11 C-4.845625 10.71125 -5.69125 10.4225 -6.5625 10.125 C-8.2640625 9.568125 -8.2640625 9.568125 -10 9 C-11.0621875 8.649375 -12.124375 8.29875 -13.21875 7.9375 C-17.27816994 6.93103225 -20.76359964 6.80112566 -24.9375 6.875 C-25.62134766 6.88402344 -26.30519531 6.89304688 -27.00976562 6.90234375 C-28.67333287 6.92561042 -30.33671631 6.96146833 -32 7 C-29.19344387 4.19344387 -27.38002679 4.01333427 -23.4375 3.875 C-19.32826213 3.9206582 -15.28039472 4.31995539 -11.19921875 4.78125 C-8.87080042 5.04948936 -8.87080042 5.04948936 -6 5 C-6 4.34 -6 3.68 -6 3 C-4.02 2.01 -2.04 1.02 0 0 Z " fill="#DECAB8" transform="translate(232,167)"/>
<path d="M0 0 C0.33 0.99 0.66 1.98 1 3 C0.01 4.485 0.01 4.485 -1 6 C-2.11404521 10.01056276 -2.08124784 13.85636019 -2 18 C-1.34 17.34 -0.68 16.68 0 16 C0 17.65 0 19.3 0 21 C1.65 21 3.3 21 5 21 C5 21.33 5 21.66 5 22 C3.35 22 1.7 22 0 22 C0.90933009 23.27609323 1.82782853 24.54565553 2.75 25.8125 C3.26046875 26.52019531 3.7709375 27.22789062 4.296875 27.95703125 C6.02482358 30.02977691 7.78526476 31.47375854 10 33 C5.11929436 32.5816538 3.11889244 30.67869365 0 27 C-3.32632848 22.42768894 -5.29743698 17.76815295 -5 12 C-3.9809829 7.52360345 -2.54859786 3.82289679 0 0 Z " fill="#F1DEC2" transform="translate(191,188)"/>
<path d="M0 0 C1.11375 0.2475 1.11375 0.2475 2.25 0.5 C2.25 0.83 2.25 1.16 2.25 1.5 C0.6 1.83 -1.05 2.16 -2.75 2.5 C0.29913228 3.51111093 0.29913228 3.51111093 3.25 2.5 C3.91 3.16 4.57 3.82 5.25 4.5 C-2.58618541 5.85106645 -9.99436499 5.32172196 -17.75 3.5 C-18.08 2.84 -18.41 2.18 -18.75 1.5 C-13.36771562 -2.08818958 -6.2331019 -0.83108025 0 0 Z " fill="#AFA7A0" transform="translate(220.75,167.5)"/>
<path d="M0 0 C0.99 0 1.98 0 3 0 C3 10.56 3 21.12 3 32 C2.01 32.495 2.01 32.495 1 33 C0.67 22.11 0.34 11.22 0 0 Z " fill="#2F1811" transform="translate(247,295)"/>
<path d="M0 0 C0.66 0 1.32 0 2 0 C2 0.99 2 1.98 2 3 C5.3 3.33 8.6 3.66 12 4 C12 4.33 12 4.66 12 5 C2.43 5.99 -7.14 6.98 -17 8 C-16.67 7.01 -16.34 6.02 -16 5 C-13.69 5 -11.38 5 -9 5 C-9 4.34 -9 3.68 -9 3 C-5.7 3 -2.4 3 1 3 C0.67 2.01 0.34 1.02 0 0 Z " fill="#B2AAA2" transform="translate(215,286)"/>
<path d="M0 0 C-0.66 0.66 -1.32 1.32 -2 2 C0.64 2.33 3.28 2.66 6 3 C6 3.33 6 3.66 6 4 C5.34773438 4.12117187 4.69546875 4.24234375 4.0234375 4.3671875 C-0.80125223 5.2922755 -5.34494987 6.41305109 -10 8 C-11.99369031 8.36920191 -13.99279077 8.71325582 -16 9 C-16 8.34 -16 7.68 -16 7 C-16.66 6.67 -17.32 6.34 -18 6 C-15.69 6 -13.38 6 -11 6 C-11 5.34 -11 4.68 -11 4 C-9.35546875 2.67578125 -9.35546875 2.67578125 -7.1875 1.3125 C-6.47980469 0.85488281 -5.77210938 0.39726562 -5.04296875 -0.07421875 C-3 -1 -3 -1 0 0 Z " fill="#A29C98" transform="translate(234,163)"/>
<path d="M0 0 C2.76276177 0.52268466 5.3260876 1.10869587 8 2 C8.6875 4.0625 8.6875 4.0625 9 6 C6.69 7.32 4.38 8.64 2 10 C2 9.01 2 8.02 2 7 C1.01 7 0.02 7 -1 7 C-1 6.34 -1 5.68 -1 5 C-1.66 5 -2.32 5 -3 5 C-2.67 4.01 -2.34 3.02 -2 2 C-1.34 2 -0.68 2 0 2 C0 1.34 0 0.68 0 0 Z " fill="#7D746D" transform="translate(261,120)"/>
<path d="M0 0 C2.10544013 0.28232721 4.20933589 0.5761898 6.3125 0.875 C7.48425781 1.03742188 8.65601563 1.19984375 9.86328125 1.3671875 C13 2 13 2 16 4 C15.67 4.66 15.34 5.32 15 6 C14.43539062 5.66613281 13.87078125 5.33226562 13.2890625 4.98828125 C10.66997491 3.85751477 9.18617087 3.86313413 6.375 4.1875 C5.59898437 4.26355469 4.82296875 4.33960938 4.0234375 4.41796875 C1.61714343 4.87413934 1.61714343 4.87413934 0 8 C-0.45139459 10.0492094 -0.45139459 10.0492094 -0.625 12.1875 C-0.74875 13.445625 -0.8725 14.70375 -1 16 C-1.33 16 -1.66 16 -2 16 C-2.33 14.35 -2.66 12.7 -3 11 C-4.32 11 -5.64 11 -7 11 C-7 10.34 -7 9.68 -7 9 C-6.34 9 -5.68 9 -5 9 C-4.67 8.01 -4.34 7.02 -4 6 C-3.01 5.34 -2.02 4.68 -1 4 C-0.27617533 1.94074861 -0.27617533 1.94074861 0 0 Z " fill="#D3C1B0" transform="translate(215,268)"/>
<path d="M0 0 C0 2.31 0 4.62 0 7 C-0.99 6.67 -1.98 6.34 -3 6 C-3 7.98 -3 9.96 -3 12 C-3.99 11.67 -4.98 11.34 -6 11 C-6.33 10.01 -6.66 9.02 -7 8 C-6.01 8 -5.02 8 -4 8 C-4 7.34 -4 6.68 -4 6 C-6.31 6.33 -8.62 6.66 -11 7 C-10.525625 6.566875 -10.05125 6.13375 -9.5625 5.6875 C-7.76313043 3.97690387 -7.76313043 3.97690387 -7 1 C-4.53721199 -0.231394 -2.7204945 -0.07159196 0 0 Z " fill="#A59A8D" transform="translate(240,282)"/>
<path d="M0 0 C1.5415636 -0.02741912 3.08327474 -0.04658248 4.625 -0.0625 C5.48351562 -0.07410156 6.34203125 -0.08570313 7.2265625 -0.09765625 C10 0 10 0 12.625 0.46875 C17.5238435 1.23986426 22.42413094 1.36765935 27.375 1.5625 C28.39722656 1.60568359 29.41945312 1.64886719 30.47265625 1.69335938 C32.98165288 1.79887792 35.49073943 1.90099213 38 2 C38 2.33 38 2.66 38 3 C25.08496192 3.85168894 12.76666757 4.44038985 0 2 C0 1.34 0 0.68 0 0 Z " fill="#BE5820" transform="translate(109,139)"/>
<path d="M0 0 C4.74527548 -0.09874213 9.14168368 0.2167332 13.81640625 1.0234375 C15.07517578 1.24 16.33394531 1.4565625 17.63085938 1.6796875 C18.92830078 1.90914063 20.22574219 2.13859375 21.5625 2.375 C22.87688009 2.59938658 24.19133278 2.82334829 25.50585938 3.046875 C31.18069396 4.03582618 36.5614993 5.06359141 42 7 C38.83387466 8.05537511 37.89227977 7.96495323 34.74609375 7.29296875 C33.47608521 7.03241699 33.47608521 7.03241699 32.18041992 6.76660156 C31.27525635 6.57549805 30.37009277 6.38439453 29.4375 6.1875 C19.65907078 4.21123515 9.92815978 2.92129444 0 2 C0 1.34 0 0.68 0 0 Z " fill="#9F754B" transform="translate(207,121)"/>
<path d="M0 0 C-0.62648438 0.31453125 -1.25296875 0.6290625 -1.8984375 0.953125 C-2.71570313 1.38109375 -3.53296875 1.8090625 -4.375 2.25 C-5.59316406 2.87648438 -5.59316406 2.87648438 -6.8359375 3.515625 C-9.20801205 5.14267975 -9.97094804 6.35386639 -11 9 C-12.32 9 -13.64 9 -15 9 C-15 6.69 -15 4.38 -15 2 C-13.25364835 1.46706165 -11.50272348 0.94909337 -9.75 0.4375 C-8.77546875 0.14746094 -7.8009375 -0.14257812 -6.796875 -0.44140625 C-4.03756068 -0.99249836 -2.6087176 -0.93789609 0 0 Z " fill="#B3AAA1" transform="translate(261,278)"/>
<path d="M0 0 C1.37310488 0.11940042 2.74443526 0.26083429 4.11328125 0.421875 C4.81517578 0.48761719 5.51707031 0.55335938 6.24023438 0.62109375 C7.97064289 0.78589456 9.69856649 0.97642142 11.42578125 1.171875 C11.42578125 2.491875 11.42578125 3.811875 11.42578125 5.171875 C5.31093098 5.26893612 -0.50725176 4.94228351 -6.57421875 4.171875 C-4.77817574 0.62107732 -4.0754105 0.19597602 0 0 Z " fill="#908D8D" transform="translate(237.57421875,161.828125)"/>
<path d="M0 0 C0.99 0.33 1.98 0.66 3 1 C3.33 1.99 3.66 2.98 4 4 C4.66 3.67 5.32 3.34 6 3 C6.33 7.62 6.66 12.24 7 17 C6.01 16.67 5.02 16.34 4 16 C2.83203125 13.41796875 2.83203125 13.41796875 1.8125 10.1875 C1.46832031 9.12917969 1.12414062 8.07085937 0.76953125 6.98046875 C0 4 0 4 0 0 Z " fill="#281A17" transform="translate(240,320)"/>
<path d="M0 0 C2.31 0 4.62 0 7 0 C7.66 1.32 8.32 2.64 9 4 C6 6 6 6 2.5 5.8125 C-0.84354588 5.03631971 -2.01559292 4.68478605 -4 2 C-2.68 2 -1.36 2 0 2 C0 1.34 0 0.68 0 0 Z " fill="#E8DED1" transform="translate(88,139)"/>
<path d="M0 0 C19.47113249 2.23353072 19.47113249 2.23353072 26 5 C26.99 6.485 26.99 6.485 28 8 C27.01 8.33 26.02 8.66 25 9 C24.67 8.34 24.34 7.68 24 7 C21.68566476 6.43617598 19.3461301 5.97446927 17 5.5625 C11.12306194 4.48449006 5.6089316 3.06644849 0 1 C0 0.67 0 0.34 0 0 Z " fill="#DC4F11" transform="translate(226,125)"/>
<path d="M0 0 C0.33 0.66 0.66 1.32 1 2 C0.360625 2.763125 -0.27875 3.52625 -0.9375 4.3125 C-3.14232781 6.88246713 -3.14232781 6.88246713 -4 10 C-4.99 10 -5.98 10 -7 10 C-6.67 12.64 -6.34 15.28 -6 18 C-6.66 17.67 -7.32 17.34 -8 17 C-8 14.03 -8 11.06 -8 8 C-10.97 7.67 -13.94 7.34 -17 7 C-17 6.67 -17 6.34 -17 6 C-15.91332031 5.97873047 -15.91332031 5.97873047 -14.8046875 5.95703125 C-8.10959038 5.62673979 -4.65109657 4.90250719 0 0 Z " fill="#B6ABA0" transform="translate(173,233)"/>
<path d="M0 0 C2.38564077 0.57584432 4.66682784 1.22227595 7 2 C7.33 5.63 7.66 9.26 8 13 C5.20557081 10.20557081 3.98752868 8.2983705 2.3125 4.8125 C1.65701172 3.46091797 1.65701172 3.46091797 0.98828125 2.08203125 C0.66214844 1.39496094 0.33601563 0.70789063 0 0 Z M8 0 C8.66 0 9.32 0 10 0 C9.67 0.99 9.34 1.98 9 3 C8.34 2.34 7.68 1.68 7 1 C7.33 0.67 7.66 0.34 8 0 Z " fill="#90877F" transform="translate(50,153)"/>
<path d="M0 0 C-0.92984118 4.06805518 -2.59663126 5.65456692 -6 7.8125 C-9.66153846 10 -9.66153846 10 -12 10 C-10.46990911 6.55729549 -8.5068778 3.81074178 -6 1 C-3 0 -3 0 0 0 Z " fill="#8E8B8A" transform="translate(262,155)"/>
<path d="M0 0 C2.8125 -0.3125 2.8125 -0.3125 6 0 C7.9375 2.3125 7.9375 2.3125 9 5 C8.67 5.99 8.34 6.98 8 8 C8.66 8 9.32 8 10 8 C10.66 9.65 11.32 11.3 12 13 C11.01 12.34 10.02 11.68 9 11 C9 10.34 9 9.68 9 9 C8.34 9 7.68 9 7 9 C7 8.34 7 7.68 7 7 C6.21625 6.773125 5.4325 6.54625 4.625 6.3125 C2 5 2 5 0.6875 2.375 C0.460625 1.59125 0.23375 0.8075 0 0 Z " fill="#D0BEAE" transform="translate(247,248)"/>
<path d="M0 0 C3.0434766 3.0434766 3.88705495 5.87054947 4.3125 10.125 C3.95695854 13.39598147 3.35506927 13.89970076 1 16 C0.63705686 13.8973294 0.28493028 11.79278943 -0.0625 9.6875 C-0.35833984 7.92986328 -0.35833984 7.92986328 -0.66015625 6.13671875 C-1 3 -1 3 0 0 Z " fill="#ECE2D5" transform="translate(227,191)"/>
<path d="M0 0 C2.97 0.495 2.97 0.495 6 1 C7.125 5.75 7.125 5.75 6 8 C4.35 7.67 2.7 7.34 1 7 C0.67 4.69 0.34 2.38 0 0 Z " fill="#E9C06E" transform="translate(246,343)"/>
<path d="M0 0 C1.134375 0.020625 2.26875 0.04125 3.4375 0.0625 C2.5625 3.9375 2.5625 3.9375 1.4375 5.0625 C-0.89547433 5.10342937 -3.22955225 5.10491723 -5.5625 5.0625 C-4.43693182 0.07784091 -4.43693182 0.07784091 0 0 Z " fill="#AD6C3C" transform="translate(89.5625,127.9375)"/>
<path d="M0 0 C2 2 2 2 2.125 4.625 C2.08375 5.40875 2.0425 6.1925 2 7 C-1.37898381 5.55186408 -3.49631932 3.67059273 -6 1 C-6.66 0.34 -7.32 -0.32 -8 -1 C-4.59407832 -2.2164006 -3.04320125 -1.92736079 0 0 Z " fill="#DCD5CB" transform="translate(225,187)"/>
<path d="M0 0 C0.69738281 0.00451172 1.39476562 0.00902344 2.11328125 0.01367188 C3.82555803 0.0253998 5.53779033 0.04333347 7.25 0.0625 C7.25 0.3925 7.25 0.7225 7.25 1.0625 C-0.47720775 2.29357719 -7.9183819 3.3325558 -15.75 3.0625 C-10.43678638 0.21613556 -5.980975 -0.07349024 0 0 Z " fill="#F0862D" transform="translate(208.75,140.9375)"/>
<path d="M0 0 C3.78527521 0.51152368 5.44108688 1.20845842 8 4 C8.99 4.33 9.98 4.66 11 5 C10.67 6.32 10.34 7.64 10 9 C11.98 9.66 13.96 10.32 16 11 C15.01 11.33 14.02 11.66 13 12 C9.20259133 9.86395763 6.25932608 7.76554346 4 4 C4 3.34 4 2.68 4 2 C2.68 1.34 1.36 0.68 0 0 Z " fill="#EBE0D5" transform="translate(98,284)"/>
<path d="M0 0 C0.99 0.33 1.98 0.66 3 1 C3 1.66 3 2.32 3 3 C0.65147472 4.17426264 -0.73774065 4.11508173 -3.3515625 4.09765625 C-4.20234375 4.09443359 -5.053125 4.09121094 -5.9296875 4.08789062 C-6.81914062 4.07951172 -7.70859375 4.07113281 -8.625 4.0625 C-9.5221875 4.05798828 -10.419375 4.05347656 -11.34375 4.04882812 C-13.56256648 4.03702591 -15.78125018 4.02056155 -18 4 C-18 3.67 -18 3.34 -18 3 C-16.86820313 2.86722656 -15.73640625 2.73445312 -14.5703125 2.59765625 C-13.08851821 2.4194658 -11.60674864 2.24106971 -10.125 2.0625 C-9.00544922 1.93198242 -9.00544922 1.93198242 -7.86328125 1.79882812 C-3.8046769 1.36673937 -3.8046769 1.36673937 0 0 Z " fill="#F77A15" transform="translate(164,140)"/>
<path d="M0 0 C0 0.66 0 1.32 0 2 C-1.32 2.33 -2.64 2.66 -4 3 C-3.67 4.65 -3.34 6.3 -3 8 C-5.31 7.67 -7.62 7.34 -10 7 C-9.67 5.35 -9.34 3.7 -9 2 C-3.375 0 -3.375 0 0 0 Z " fill="#CDBDAE" transform="translate(236,288)"/>
<path d="M0 0 C2.97 0 5.94 0 9 0 C9 0.99 9 1.98 9 3 C8.01 3 7.02 3 6 3 C6 2.34 6 1.68 6 1 C5.01 1.495 5.01 1.495 4 2 C4 2.99 4 3.98 4 5 C3.01 5 2.02 5 1 5 C0.67 5.66 0.34 6.32 0 7 C-0.99 6.67 -1.98 6.34 -3 6 C-2.67 4.68 -2.34 3.36 -2 2 C-1.34 2 -0.68 2 0 2 C0 1.34 0 0.68 0 0 Z " fill="#887F76" transform="translate(229,113)"/>
<path d="M0 0 C2.475 0.495 2.475 0.495 5 1 C5.12375 1.969375 5.2475 2.93875 5.375 3.9375 C5.58125 4.948125 5.7875 5.95875 6 7 C6.66 7.33 7.32 7.66 8 8 C5.6875 8.25 5.6875 8.25 3 8 C1.1875 6.25 1.1875 6.25 0 4 C0 2.68 0 1.36 0 0 Z " fill="#725E52" transform="translate(244,336)"/>
<path d="M0 0 C0.99 0.33 1.98 0.66 3 1 C3 2.32 3 3.64 3 5 C4.98 5 6.96 5 9 5 C9 5.33 9 5.66 9 6 C7.35 6 5.7 6 4 6 C4 8.31 4 10.62 4 13 C0.87312592 8.30968888 -0.2610462 5.74301634 0 0 Z " fill="#26110B" transform="translate(237,288)"/>
<path d="M0 0 C3.35620271 1.38877354 5.07298728 2.91677965 7 6 C7 6.66 7 7.32 7 8 C4.03 8.66 1.06 9.32 -2 10 C-0.68 8.68 0.64 7.36 2 6 C1.67 5.01 1.34 4.02 1 3 C0.34 2.67 -0.32 2.34 -1 2 C-0.67 1.34 -0.34 0.68 0 0 Z " fill="#C9B9A9" transform="translate(247,262)"/>
<path d="M0 0 C-0.11429397 1.77155654 -0.24183037 3.54226229 -0.375 5.3125 C-0.47941406 6.79169922 -0.47941406 6.79169922 -0.5859375 8.30078125 C-1 11 -1 11 -3 14 C-4 13 -4 13 -4.125 9.75 C-4.0215708 6.6471241 -3.8733253 3.96930601 -3 1 C-1 0 -1 0 0 0 Z " fill="#EFE6D9" transform="translate(192,193)"/>
<path d="M0 0 C0.66 0 1.32 0 2 0 C2 0.66 2 1.32 2 2 C4.31 2.33 6.62 2.66 9 3 C5.71508627 5.18994248 4.16904361 5.35277339 0.3125 5.625 C-1.17830078 5.73714844 -1.17830078 5.73714844 -2.69921875 5.8515625 C-3.45847656 5.90054687 -4.21773437 5.94953125 -5 6 C-3.38405168 3.95880212 -1.7143618 1.95927063 0 0 Z " fill="#E3D4C5" transform="translate(221,292)"/>
<path d="M0 0 C1.65 0 3.3 0 5 0 C5.103125 0.78375 5.20625 1.5675 5.3125 2.375 C5.77595022 5.33045181 5.77595022 5.33045181 9 7 C7.02 7.33 5.04 7.66 3 8 C2.01 5.36 1.02 2.72 0 0 Z " fill="#8F765F" transform="translate(243,272)"/>
<path d="M0 0 C5.77759884 -0.12036664 11.27959989 0.1679418 17 1 C17 1.33 17 1.66 17 2 C15.96939453 2.07347656 15.96939453 2.07347656 14.91796875 2.1484375 C13.56638672 2.26058594 13.56638672 2.26058594 12.1875 2.375 C11.29417969 2.44460937 10.40085938 2.51421875 9.48046875 2.5859375 C6.75601501 2.86645036 6.75601501 2.86645036 4 5 C4 4.01 4 3.02 4 2 C2.35 2 0.7 2 -1 2 C-0.67 1.34 -0.34 0.68 0 0 Z " fill="#A8A096" transform="translate(211,110)"/>
<path d="M0 0 C1.8871875 0.061875 1.8871875 0.061875 3.8125 0.125 C3.8125 1.115 3.8125 2.105 3.8125 3.125 C0.5125 3.455 -2.7875 3.785 -6.1875 4.125 C-6.5175 3.465 -6.8475 2.805 -7.1875 2.125 C-4.09861478 0.06574319 -3.47814073 -0.1140374 0 0 Z " fill="#A39C95" transform="translate(209.1875,166.875)"/>
<path d="M0 0 C0.33 1.32 0.66 2.64 1 4 C-1.31 5.32 -3.62 6.64 -6 8 C-6.25 5.6875 -6.25 5.6875 -6 3 C-3.95575462 1.02389614 -2.8823175 0 0 0 Z " fill="#867D73" transform="translate(269,122)"/>
<path d="M0 0 C1.67542976 0.28604898 3.34385343 0.61781233 5 1 C2.37806586 3.60845375 1.13352517 3.99469341 -2.63671875 4.14453125 C-3.98825634 4.05072952 -5.33868197 3.93955327 -6.6875 3.8125 C-7.72100586 3.74579102 -7.72100586 3.74579102 -8.77539062 3.67773438 C-10.5259749 3.53830731 -12.26604558 3.27818569 -14 3 C-14.33 2.34 -14.66 1.68 -15 1 C-14.00097656 1.01160156 -13.00195312 1.02320313 -11.97265625 1.03515625 C-10.68230469 1.04417969 -9.39195312 1.05320312 -8.0625 1.0625 C-6.13083984 1.07990234 -6.13083984 1.07990234 -4.16015625 1.09765625 C-1.13701597 1.36532549 -1.13701597 1.36532549 0 0 Z " fill="#9A9086" transform="translate(162,347)"/>
<path d="M0 0 C0.66 0.66 1.32 1.32 2 2 C1.8125 4.5 1.8125 4.5 1 7 C0.01 7.66 -0.98 8.32 -2 9 C-3.35439668 6.29120665 -3.06501451 3.99066732 -3 1 C-2.01 0.67 -1.02 0.34 0 0 Z " fill="#81786F" transform="translate(60,154)"/>
<path d="M0 0 C0.33 0 0.66 0 1 0 C1 1.98 1 3.96 1 6 C2.32 6.33 3.64 6.66 5 7 C3.68 7 2.36 7 1 7 C1 7.99 1 8.98 1 10 C-0.65 9.67 -2.3 9.34 -4 9 C-4 8.01 -4 7.02 -4 6 C-2.68 6 -1.36 6 0 6 C0 4.02 0 2.04 0 0 Z " fill="#947757" transform="translate(111,118)"/>
<path d="M0 0 C0.33 0 0.66 0 1 0 C1 1.65 1 3.3 1 5 C1.99 5.33 2.98 5.66 4 6 C3.01 6 2.02 6 1 6 C1 8.97 1 11.94 1 15 C-1.36684031 10.26631938 -2.51993831 7.83711535 -1.0625 2.6875 C-0.711875 1.800625 -0.36125 0.91375 0 0 Z " fill="#D7C6B7" transform="translate(286,225)"/>
<path d="M0 0 C-8.42857143 3.42857143 -8.42857143 3.42857143 -13 3 C-13 2.34 -13 1.68 -13 1 C-11.58622218 0.63447197 -10.16879424 0.28304505 -8.75 -0.0625 C-7.96109375 -0.25972656 -7.1721875 -0.45695313 -6.359375 -0.66015625 C-3.89605178 -1.01497267 -2.34395868 -0.76877544 0 0 Z " fill="#DCCABA" transform="translate(242,146)"/>
<path d="M0 0 C0.66 0 1.32 0 2 0 C2 0.99 2 1.98 2 3 C5.3 3.33 8.6 3.66 12 4 C12 4.33 12 4.66 12 5 C7.05 5 2.1 5 -3 5 C-3 4.34 -3 3.68 -3 3 C-1.68 3 -0.36 3 1 3 C0.67 2.01 0.34 1.02 0 0 Z " fill="#A89E93" transform="translate(215,286)"/>
<path d="M0 0 C0.99 1.32 1.98 2.64 3 4 C4.65 3.67 6.3 3.34 8 3 C8 4.65 8 6.3 8 8 C7.67 7.34 7.34 6.68 7 6 C4.69 6 2.38 6 0 6 C0 4.02 0 2.04 0 0 Z " fill="#B38A40" transform="translate(232,274)"/>
<path d="M0 0 C-0.33 0.66 -0.66 1.32 -1 2 C-3.64860427 2.59355614 -6.29197322 2.74209269 -9 3 C-9 2.34 -9 1.68 -9 1 C-9.66 0.67 -10.32 0.34 -11 0 C-3.57142857 -1.28571429 -3.57142857 -1.28571429 0 0 Z " fill="#99958F" transform="translate(227,169)"/>
<path d="M0 0 C1.61328125 1.671875 1.61328125 1.671875 3 4 C2.41796875 6.578125 2.41796875 6.578125 1.1875 9.25 C0.78917969 10.14203125 0.39085938 11.0340625 -0.01953125 11.953125 C-0.34308594 12.62859375 -0.66664062 13.3040625 -1 14 C-2.15837573 10.52487282 -1.77265943 8.86329714 -1.0625 5.3125 C-0.86785156 4.31863281 -0.67320313 3.32476562 -0.47265625 2.30078125 C-0.31667969 1.54152344 -0.16070312 0.78226563 0 0 Z " fill="#ECE4D9" transform="translate(85,160)"/>
<path d="M0 0 C0.66 0.33 1.32 0.66 2 1 C0.11192137 3.69725519 -1.19824644 5.13216429 -4 7 C-4.66 5.68 -5.32 4.36 -6 3 C-4.03533587 1.93224776 -2.03144641 0.93446535 0 0 Z " fill="#DFCABA" transform="translate(250,142)"/>
<path d="M0 0 C1.65 1.65 3.3 3.3 5 5 C4.34 5 3.68 5 3 5 C2.67 6.98 2.34 8.96 2 11 C1.67 11 1.34 11 1 11 C0.63890458 9.35567294 0.28629924 7.7094792 -0.0625 6.0625 C-0.25972656 5.14597656 -0.45695313 4.22945313 -0.66015625 3.28515625 C-0.77230469 2.53105469 -0.88445312 1.77695312 -1 1 C-0.67 0.67 -0.34 0.34 0 0 Z " fill="#2C1C18" transform="translate(232,290)"/>
<path d="M0 0 C3.96 0 7.92 0 12 0 C12 0.33 12 0.66 12 1 C10.02 1 8.04 1 6 1 C6 1.66 6 2.32 6 3 C4.35 3 2.7 3 1 3 C0.67 2.01 0.34 1.02 0 0 Z " fill="#91897F" transform="translate(223,112)"/>
<path d="M0 0 C0.66 0 1.32 0 2 0 C2.66 2.97 3.32 5.94 4 9 C3.01 8.67 2.02 8.34 1 8 C-0.35439668 5.29120665 -0.06501451 2.99066732 0 0 Z " fill="#130B0B" transform="translate(243,328)"/>
<path d="M0 0 C0.33 0 0.66 0 1 0 C1 1.98 1 3.96 1 6 C1.66 6 2.32 6 3 6 C3.66 7.98 4.32 9.96 5 12 C4.34 12 3.68 12 3 12 C3 11.34 3 10.68 3 10 C2.01 9.67 1.02 9.34 0 9 C0 6.03 0 3.06 0 0 Z " fill="#8C7F73" transform="translate(214,276)"/>
<path d="M0 0 C0.66 0.33 1.32 0.66 2 1 C0.625 2.5 0.625 2.5 -1 4 C-1.66 4 -2.32 4 -3 4 C-3 4.66 -3 5.32 -3 6 C-4.32 5.67 -5.64 5.34 -7 5 C-4.63707344 2.47411298 -3.33537489 1.11179163 0 0 Z " fill="#34231E" transform="translate(137,187)"/>
<path d="M0 0 C0.66 0.33 1.32 0.66 2 1 C1.67 1.33 1.34 1.66 1 2 C2.32 2.66 3.64 3.32 5 4 C2.75 5.1875 2.75 5.1875 0 6 C-2.3125 4.625 -2.3125 4.625 -4 3 C-2.68 2.01 -1.36 1.02 0 0 Z " fill="#AAA39C" transform="translate(227,164)"/>
<path d="M0 0 C-0.8125 2.4375 -0.8125 2.4375 -2 5 C-2.99 5.33 -3.98 5.66 -5 6 C-5 5.01 -5 4.02 -5 3 C-5.66 2.67 -6.32 2.34 -7 2 C-4.35261084 0.5393715 -3.10551666 0 0 0 Z " fill="#9C9793" transform="translate(262,155)"/>
<path d="M0 0 C0.33 0.66 0.66 1.32 1 2 C1.66 2 2.32 2 3 2 C3.33 3.65 3.66 5.3 4 7 C3.01 7.33 2.02 7.66 1 8 C0.67 5.36 0.34 2.72 0 0 Z " fill="#59392C" transform="translate(249,335)"/>
<path d="M0 0 C0.99 0.33 1.98 0.66 3 1 C3 3.97 3 6.94 3 10 C2.67 10 2.34 10 2 10 C2 7.69 2 5.38 2 3 C0.35 3.33 -1.3 3.66 -3 4 C-2 2 -2 2 0 0 Z " fill="#786A62" transform="translate(253,288)"/>
<path d="M0 0 C3.75376152 1.25125384 4.24073289 2.5652404 6 6 C6 6.66 6 7.32 6 8 C5.01 8 4.02 8 3 8 C0.36193116 5.16651865 0 3.85542049 0 0 Z " fill="#CBBCAE" transform="translate(260,168)"/>
<path d="M0 0 C0.99 0.99 1.98 1.98 3 3 C-2.41538462 6.07692308 -2.41538462 6.07692308 -5.375 5.6875 C-5.91125 5.460625 -6.4475 5.23375 -7 5 C-6.030625 4.54625 -5.06125 4.0925 -4.0625 3.625 C-0.92920418 2.34213779 -0.92920418 2.34213779 0 0 Z " fill="#D65013" transform="translate(161,135)"/>
<path d="M0 0 C0.99 0.33 1.98 0.66 3 1 C2.1875 2.9375 2.1875 2.9375 1 5 C0.01 5.33 -0.98 5.66 -2 6 C-2.99 5.34 -3.98 4.68 -5 4 C-2.6875 1.9375 -2.6875 1.9375 0 0 Z " fill="#867D74" transform="translate(96,123)"/>
<path d="M0 0 C1.32 0.33 2.64 0.66 4 1 C4 2.65 4 4.3 4 6 C2.68 6 1.36 6 0 6 C0 4.02 0 2.04 0 0 Z " fill="#AA9F92" transform="translate(246,281)"/>
<path d="M0 0 C2 3 2 3 1.625 5.6875 C1.41875 6.450625 1.2125 7.21375 1 8 C-0.98 7.34 -2.96 6.68 -5 6 C-4.67 5.34 -4.34 4.68 -4 4 C-3.01 4 -2.02 4 -1 4 C-0.67 2.68 -0.34 1.36 0 0 Z " fill="#CFC2B5" transform="translate(227,204)"/>
<path d="M0 0 C-2.8125 1.5625 -2.8125 1.5625 -6 3 C-6.99 2.67 -7.98 2.34 -9 2 C-9 1.34 -9 0.68 -9 0 C-5.62182575 -0.84454356 -3.32534757 -1.10844919 0 0 Z " fill="#ADA49B" transform="translate(261,278)"/>
<path d="M0 0 C1.98 0 3.96 0 6 0 C6 1.65 6 3.3 6 5 C5.67 4.34 5.34 3.68 5 3 C4.34 3 3.68 3 3 3 C3 2.34 3 1.68 3 1 C2.34 1 1.68 1 1 1 C1 1.99 1 2.98 1 4 C0.34 3.67 -0.32 3.34 -1 3 C-0.67 2.01 -0.34 1.02 0 0 Z " fill="#958B81" transform="translate(179,243)"/>
<path d="M0 0 C3.875 1.75 3.875 1.75 5 4 C4.34 4.66 3.68 5.32 3 6 C1.68 5.01 0.36 4.02 -1 3 C-0.67 2.01 -0.34 1.02 0 0 Z " fill="#1E110E" transform="translate(175,230)"/>
<path d="M0 0 C1.32 0.33 2.64 0.66 4 1 C3.01 1.33 2.02 1.66 1 2 C0.67 1.34 0.34 0.68 0 0 Z M2 3 C2 3.66 2 4.32 2 5 C-1.3 4.67 -4.6 4.34 -8 4 C-8 3.67 -8 3.34 -8 3 C-0.25 1.875 -0.25 1.875 2 3 Z " fill="#B7AEA6" transform="translate(213,167)"/>
<path d="M0 0 C0.33 0 0.66 0 1 0 C1 2.31 1 4.62 1 7 C1.99 7 2.98 7 4 7 C4 7.66 4 8.32 4 9 C2.35 9 0.7 9 -1 9 C-0.67 6.03 -0.34 3.06 0 0 Z " fill="#3C190D" transform="translate(111,130)"/>
<path d="M0 0 C0.66 0 1.32 0 2 0 C2.33 0.99 2.66 1.98 3 3 C5.01508358 3.73323796 5.01508358 3.73323796 7 4 C6.67 4.99 6.34 5.98 6 7 C1.2 4.53846154 1.2 4.53846154 0.1875 1.8125 C0.125625 1.214375 0.06375 0.61625 0 0 Z " fill="#837163" transform="translate(105,124)"/>
</svg>
