<?xml version="1.0" encoding="UTF-8"?>
<svg version="1.1" xmlns="http://www.w3.org/2000/svg" width="360" height="360">
<path d="M0 0 C3.64695464 1.58782856 6.79315425 1.90560321 10.79368591 1.97216797 C11.45841415 1.98729431 12.1231424 2.00242065 12.80801392 2.01800537 C14.2422688 2.04880466 15.6766754 2.07310492 17.11114311 2.0914917 C19.40807998 2.12122347 21.70407257 2.1688438 24.00061035 2.22070312 C28.90282721 2.3281491 33.80530265 2.41305113 38.70799255 2.49560547 C115.81283599 3.81156507 115.81283599 3.81156507 133.39549255 16.37060547 C135.32920104 19.35906403 135.41203555 21.00276029 134.77049255 24.49560547 C132.64549255 26.87060547 132.64549255 26.87060547 129.77049255 29.49560547 C121.64470129 38.36955143 119.10193485 48.46230139 119.4306488 60.33544922 C119.85858625 64.31477555 120.79533626 67.03908196 122.77049255 70.49560547 C123.6625238 70.14626953 124.55455505 69.79693359 125.47361755 69.43701172 C126.6440863 68.98197266 127.81455505 68.52693359 129.02049255 68.05810547 C130.1806488 67.60564453 131.34080505 67.15318359 132.53611755 66.68701172 C144.34270259 62.33796772 158.03788009 63.6939078 169.48924255 68.67919922 C180.50004643 74.67736861 186.91234313 83.74891838 190.77049255 95.49560547 C195.06229161 110.36258376 191.73225989 126.84789446 185.02049255 140.30810547 C179.67817346 149.55287428 171.2538034 157.24379859 161.15184021 160.93530273 C156.54935228 162.01821331 151.88698274 161.35520214 147.20799255 161.05810547 C139.54015848 160.62357075 139.54015848 160.62357075 132.7509613 163.60498047 C130.96086509 166.21286801 129.76132606 168.49951367 128.77049255 171.49560547 C128.44049255 172.48560547 128.11049255 173.47560547 127.77049255 174.49560547 C129.09049255 175.15560547 130.41049255 175.81560547 131.77049255 176.49560547 C131.95799255 178.87060547 131.95799255 178.87060547 131.77049255 181.49560547 C128.23989154 183.84933948 125.18453499 184.15338962 121.08299255 184.62060547 C120.38109802 184.70697266 119.67920349 184.79333984 118.95603943 184.88232422 C117.2283811 185.09387422 115.49953596 185.29569147 113.77049255 185.49560547 C113.44049255 187.14560547 113.11049255 188.79560547 112.77049255 190.49560547 C113.76049255 189.50560547 114.75049255 188.51560547 115.77049255 187.49560547 C116.43049255 187.82560547 117.09049255 188.15560547 117.77049255 188.49560547 C117.04417947 198.23616042 115.15061672 207.72569415 113.33299255 217.30810547 C112.70657468 220.62660959 112.08283523 223.94560258 111.4618988 227.26513672 C111.31322357 228.05937042 111.16454834 228.85360413 111.0113678 229.67190552 C109.78964151 236.26025941 108.7252837 242.8628304 107.77049255 249.49560547 C106.12049255 249.82560547 104.47049255 250.15560547 102.77049255 250.49560547 C101.67435202 248.30332439 101.45621215 246.68874198 101.1572113 244.26123047 C101.04554626 243.38708496 100.93388123 242.51293945 100.8188324 241.61230469 C100.64021667 240.19328857 100.64021667 240.19328857 100.45799255 238.74560547 C99.39090264 230.5790457 98.1335933 222.47120325 96.64549255 214.37060547 C96.47493347 213.44151367 96.30437439 212.51242187 96.12864685 211.55517578 C95.43475105 207.83829585 94.71783055 204.1573314 93.77049255 200.49560547 C90.14539572 200.8069885 86.52043418 201.11992117 82.89549255 201.43310547 C81.88228943 201.52011719 80.8690863 201.60712891 79.82518005 201.69677734 C75.0207658 202.11254396 70.2221313 202.5481599 65.42674255 203.05810547 C61.65229915 203.44190231 57.94291946 203.6022616 54.14549255 203.55810547 C53.12197693 203.54908203 52.0984613 203.54005859 51.04393005 203.53076172 C50.29369568 203.51916016 49.5434613 203.50755859 48.77049255 203.49560547 C48.84268005 204.56552734 48.91486755 205.63544922 48.98924255 206.73779297 C49.61181955 216.70124042 49.87896154 226.63725372 49.89549255 236.62060547 C49.90226013 238.35479736 49.90226013 238.35479736 49.90916443 240.12402344 C49.90723083 241.19797363 49.90529724 242.27192383 49.90330505 243.37841797 C49.90217712 244.34150879 49.90104919 245.30459961 49.89988708 246.296875 C49.77049255 248.49560547 49.77049255 248.49560547 48.77049255 249.49560547 C45.94632873 249.62223638 43.15754462 249.68081095 40.33299255 249.68310547 C39.54344177 249.69535156 38.75389099 249.70759766 37.94041443 249.72021484 C35.88241821 249.72547826 33.82487246 249.61766832 31.77049255 249.49560547 C31.11049255 248.83560547 30.45049255 248.17560547 29.77049255 247.49560547 C30.10049255 245.84560547 30.43049255 244.19560547 30.77049255 242.49560547 C36.21549255 241.50560547 36.21549255 241.50560547 41.77049255 240.49560547 C41.44049255 228.28560547 41.11049255 216.07560547 40.77049255 203.49560547 C34.83049255 203.82560547 28.89049255 204.15560547 22.77049255 204.49560547 C22.786203 205.81802246 22.80191345 207.14043945 22.81809998 208.50292969 C22.87229037 213.39674823 22.9068029 218.29054014 22.93528748 223.18457031 C22.950399 225.30505834 22.97088896 227.425515 22.99681091 229.54589844 C23.03309042 232.58910857 23.05019498 235.6319065 23.0634613 238.67529297 C23.07894516 239.62741669 23.09442902 240.57954041 23.11038208 241.56051636 C23.11060867 242.44127838 23.11083527 243.32204041 23.11106873 244.22949219 C23.12106148 245.39531326 23.12106148 245.39531326 23.1312561 246.58468628 C23.01220413 247.21528961 22.89315216 247.84589294 22.77049255 248.49560547 C18.95944179 251.03630598 16.08484562 250.64923802 11.70799255 250.37060547 C10.97516052 250.34740234 10.24232849 250.32419922 9.48728943 250.30029297 C7.3603363 250.17529297 7.3603363 250.17529297 3.77049255 249.49560547 C2.2743988 247.44091797 2.2743988 247.44091797 1.77049255 245.49560547 C3.77049255 242.49560547 3.77049255 242.49560547 5.6103363 241.94873047 C6.30256287 241.88169922 6.99478943 241.81466797 7.70799255 241.74560547 C8.39764099 241.66826172 9.08728943 241.59091797 9.7978363 241.51123047 C11.77049255 241.49560547 11.77049255 241.49560547 14.77049255 242.49560547 C14.11049255 229.95560547 13.45049255 217.41560547 12.77049255 204.49560547 C9.70504382 203.47378922 7.24459449 203.23576316 4.02830505 203.03076172 C2.8784613 202.95277344 1.72861755 202.87478516 0.54393005 202.79443359 C-1.84921075 202.63941751 -4.2424378 202.48572605 -6.63575745 202.33349609 C-34.14456156 200.45789581 -34.14456156 200.45789581 -42.91700745 194.74560547 C-44.8373372 191.4536116 -44.061757 189.10202021 -43.22950745 185.49560547 C-44.09575745 185.23392578 -44.96200745 184.97224609 -45.85450745 184.70263672 C-59.89118333 179.68257555 -71.58576606 169.57759053 -78.04200745 156.12060547 C-85.81105235 137.44350762 -85.66923397 119.00307775 -78.16700745 100.30810547 C-75.49791058 93.93079768 -75.49791058 93.93079768 -74.03004456 91.55078125 C-72.99933765 89.52993286 -72.99933765 89.52993286 -73.8217926 87.53881836 C-74.21672913 86.85553467 -74.61166565 86.17225098 -75.01856995 85.46826172 C-75.46031555 84.68596191 -75.90206116 83.90366211 -76.35719299 83.09765625 C-76.85130676 82.25960449 -77.34542053 81.42155273 -77.85450745 80.55810547 C-78.5966449 79.25075439 -78.5966449 79.25075439 -79.35377502 77.91699219 C-82.06609886 73.15481911 -84.85304765 68.43720859 -87.6396637 63.71826172 C-88.18735413 62.78167725 -88.73504456 61.84509277 -89.29933167 60.88012695 C-90.3597186 59.07125983 -91.43257322 57.26963123 -92.51905823 55.47631836 C-95.14675383 51.00662122 -96.9721594 47.8601737 -96.22950745 42.49560547 C-90.16764448 39.68918743 -84.01017926 37.18075835 -77.79200745 34.74560547 C-76.98650452 34.427771 -76.18100159 34.10993652 -75.35108948 33.7824707 C-74.21002747 33.33883179 -74.21002747 33.33883179 -73.0459137 32.88623047 C-72.35956848 32.61842773 -71.67322327 32.350625 -70.96607971 32.07470703 C-69.22950745 31.49560547 -69.22950745 31.49560547 -67.22950745 31.49560547 C-67.72450745 30.50560547 -68.21950745 29.51560547 -68.72950745 28.49560547 C-70.53011884 24.22781018 -70.83474985 21.11057883 -70.22950745 16.49560547 C-64.13782323 9.18558441 -51.88455843 7.55384623 -43.04200745 5.87060547 C-31.76859059 3.88583489 -31.76859059 3.88583489 -21.10450745 -0.06689453 C-14.3504435 -3.44392651 -6.82592085 -3.17970408 0 0 Z M-70.54200745 41.30810547 C-71.18073792 41.56914062 -71.81946838 41.83017578 -72.47755432 42.09912109 C-76.74807493 43.85146238 -80.99017258 45.66934608 -85.22950745 47.49560547 C-84.66450614 51.94192012 -82.97038584 54.82534097 -80.54200745 58.55810547 C-76.64523952 64.66004165 -73.34109917 70.95419105 -70.22950745 77.49560547 C-68.90950745 77.49560547 -67.58950745 77.49560547 -66.22950745 77.49560547 C-61.18300063 68.30375376 -57.13421791 57.53730912 -57.04200745 46.93310547 C-57.02073792 45.81742188 -57.02073792 45.81742188 -56.9990387 44.67919922 C-57.25735636 42.23174883 -58.0127321 40.61654589 -59.22950745 38.49560547 C-63.58518973 38.49560547 -66.61449512 39.66158643 -70.54200745 41.30810547 Z M141.77049255 78.49560547 C141.04204884 81.07574199 140.78732194 82.76487566 140.95799255 85.49560547 C140.77049255 88.49560547 140.77049255 88.49560547 138.77049255 90.87060547 C138.11049255 91.40685547 137.45049255 91.94310547 136.77049255 92.49560547 C137.63653502 95.23807328 138.48771179 97.9205434 139.7587738 100.50537109 C143.37745508 108.15723713 143.23560139 115.28100153 143.02049255 123.62060547 C143.00037848 124.97214123 142.98213645 126.32370621 142.96580505 127.67529297 C142.91903078 130.94949238 142.85349395 134.22215795 142.77049255 137.49560547 C146.07049255 137.82560547 149.37049255 138.15560547 152.77049255 138.49560547 C153.10049255 141.13560547 153.43049255 143.77560547 153.77049255 146.49560547 C160.17514123 146.33548925 163.53252448 142.86918852 167.77049255 138.49560547 C175.57033131 129.83706887 179.17654298 119.53060558 178.98143005 107.92138672 C178.05929675 97.3168537 172.65144952 89.39144282 164.77049255 82.49560547 C158.97813925 79.11673271 154.09601324 78.36016019 147.45799255 78.43310547 C146.38935974 78.44212891 145.32072693 78.45115234 144.2197113 78.46044922 C143.41146912 78.47205078 142.60322693 78.48365234 141.77049255 78.49560547 Z " fill="#E6D4C1" transform="translate(144.22950744628906,100.50439453125)"/>
<path d="M0 0 C0.99 0.33 1.98 0.66 3 1 C5.18734097 1.13126663 7.37826325 1.20522024 9.5690918 1.24951172 C10.23323593 1.26434601 10.89738007 1.2791803 11.58164978 1.29446411 C13.02696873 1.32637705 14.47233309 1.35628135 15.91773033 1.38442612 C18.23085592 1.43031514 20.54371934 1.48329486 22.85664368 1.5383606 C29.43505435 1.69425661 36.01359073 1.84224964 42.5925293 1.97412109 C115.22874132 3.44910095 115.22874132 3.44910095 132.625 15.875 C134.55870848 18.86345856 134.64154299 20.50715482 134 24 C131.875 26.375 131.875 26.375 129 29 C124.38955075 34.23285989 121.77741279 39.26454103 120 46 C119.34 45.34 118.68 44.68 118 44 C117.35933594 44.44472656 116.71867188 44.88945312 116.05859375 45.34765625 C108.89771256 50.03264409 108.89771256 50.03264409 104.5625 49.875 C102.7990625 49.441875 102.7990625 49.441875 101 49 C99.17072579 48.83963272 97.33554118 48.73994403 95.5 48.6875 C94.6234375 48.65011719 93.746875 48.61273438 92.84375 48.57421875 C89.77789252 48.83454209 89.77789252 48.83454209 86.80859375 51.05078125 C81.49169524 54.31786975 75.75653215 52.85109276 69.82617188 52.19921875 C64.15417669 51.71457325 60.63871566 52.06273118 55.76928711 55.13183594 C52.68727477 56.64413563 50.23742864 55.80935716 47 55 C47 54.34 47 53.68 47 53 C41.38136304 52.56963632 37.04294613 52.7336212 31.875 55.125 C26.81774643 57.41356728 24.1407921 56.90399707 19 55 C19 54.34 19 53.68 19 53 C17.20767663 53.30871122 15.41615679 53.62209064 13.625 53.9375 C12.62726563 54.11152344 11.62953125 54.28554687 10.6015625 54.46484375 C8.03090344 54.87712062 8.03090344 54.87712062 6 56 C3.6670134 56.04022391 1.33293334 56.04320247 -1 56 C-1 55.34 -1 54.68 -1 54 C-8.61814834 51.96810007 -8.61814834 51.96810007 -16 54 C-21.27050976 54.47913725 -24.44344746 53.66725027 -29 51 C-29 50.34 -29 49.68 -29 49 C-31.64 49 -34.28 49 -37 49 C-37 49.66 -37 50.32 -37 51 C-45.72809805 51.77621425 -45.72809805 51.77621425 -48.82421875 49.88671875 C-49.31535156 49.42910156 -49.80648437 48.97148437 -50.3125 48.5 C-52.74473612 45.73782083 -52.74473612 45.73782083 -55.875 45.6875 C-56.926875 45.8421875 -56.926875 45.8421875 -58 46 C-58.28875 44.88625 -58.5775 43.7725 -58.875 42.625 C-59.69241329 38.99708908 -59.69241329 38.99708908 -62 37 C-52.32612313 33.45923461 -52.32612313 33.45923461 -48 34 C-47.67 34.33 -47.34 34.66 -47 35 C-44.96618256 35.19965405 -44.96618256 35.19965405 -42.625 35.1875 C-41.83351563 35.20167969 -41.04203125 35.21585938 -40.2265625 35.23046875 C-37.71268667 35.14507509 -37.71268667 35.14507509 -35 33 C-33.0546875 32.98828125 -33.0546875 32.98828125 -30.875 33.3125 C-30.17117187 33.41175781 -29.46734375 33.51101562 -28.7421875 33.61328125 C-27.38480469 33.80470703 -27.38480469 33.80470703 -26 34 C-18.96953192 34.97031554 -12.03002129 35.18307547 -4.9375 35.1875 C-3.90044922 35.19974609 -2.86339844 35.21199219 -1.79492188 35.22460938 C5.38537326 35.23826878 11.85389321 35.09740453 18 31 C20.48382568 30.69702148 20.48382568 30.69702148 23.48339844 30.62109375 C25.17357086 30.57094116 25.17357086 30.57094116 26.89788818 30.51977539 C28.12267883 30.49262451 29.34746948 30.46547363 30.609375 30.4375 C32.55653416 30.38118116 34.50369312 30.32485431 36.45084 30.26811218 C39.19344672 30.19040422 41.93623975 30.1211333 44.67907715 30.05212402 C69.6933765 29.42252745 94.35057813 28.53590834 119 24 C120.9993319 23.66268255 122.99907972 23.32776385 125 23 C125 22.34 125 21.68 125 21 C116.5041449 18.12039527 107.83458285 16.43488104 99 15 C98.21625 14.87093262 97.4325 14.74186523 96.625 14.60888672 C83.82086728 12.56518911 70.99760219 11.56777695 58.0625 10.875 C57.27970673 10.83282349 56.49691345 10.79064697 55.69039917 10.74719238 C46.99872196 10.28951831 38.31625376 9.95745042 29.61328125 9.83203125 C28.12556771 9.80561075 26.63785608 9.77908309 25.15014648 9.75244141 C22.35335958 9.70351018 19.55911904 9.68840259 16.76196289 9.69287109 C15.51793701 9.67434082 14.27391113 9.65581055 12.9921875 9.63671875 C11.90276855 9.63373779 10.81334961 9.63075684 9.69091797 9.62768555 C7 9 7 9 5.26220703 6.54223633 C4.84567871 5.70329834 4.42915039 4.86436035 4 4 C1.93299345 2.67206394 1.93299345 2.67206394 0 2 C0 1.34 0 0.68 0 0 Z " fill="#E8D7C6" transform="translate(145,101)"/>
<path d="M0 0 C0.99 0.804375 1.98 1.60875 3 2.4375 C3 3.0975 3 3.7575 3 4.4375 C3.99 4.7675 4.98 5.0975 6 5.4375 C7.38671875 7.546875 7.38671875 7.546875 8.6875 10.1875 C9.12449219 11.04859375 9.56148438 11.9096875 10.01171875 12.796875 C11.04127438 15.54778252 11.19360389 17.52820905 11 20.4375 C12.65 20.7675 14.3 21.0975 16 21.4375 C16.495 23.9125 16.495 23.9125 17 26.4375 C15.02 26.7675 13.04 27.0975 11 27.4375 C10.814375 28.79875 10.814375 28.79875 10.625 30.1875 C9.61824137 35.4226449 7.77336518 37.76895052 4 41.4375 C2.47166353 43.29476977 0.95820884 45.16135303 -0.53515625 47.046875 C-2 48.4375 -2 48.4375 -5 48.4375 C-5 49.0975 -5 49.7575 -5 50.4375 C-18.72268908 53.52993697 -18.72268908 53.52993697 -25 51.4375 C-25.20625 52.18 -25.4125 52.9225 -25.625 53.6875 C-27.42308332 57.28366664 -29.24752236 59.12865808 -33 60.4375 C-38.09741824 61.13701864 -43.43815069 61.68392938 -48.17578125 59.37890625 C-49.8125 58.0625 -49.8125 58.0625 -52 55.4375 C-52 54.7775 -52 54.1175 -52 53.4375 C-52.72316406 53.97890625 -52.72316406 53.97890625 -53.4609375 54.53125 C-54.09257812 54.9953125 -54.72421875 55.459375 -55.375 55.9375 C-56.00148437 56.4015625 -56.62796875 56.865625 -57.2734375 57.34375 C-59 58.4375 -59 58.4375 -61 58.4375 C-61 59.0975 -61 59.7575 -61 60.4375 C-74.49745331 61.35430815 -74.49745331 61.35430815 -78.07421875 59.171875 C-81.05246615 55.48707642 -82.12829839 52.41838718 -82.0625 47.8125 C-82.05347656 46.99523437 -82.04445312 46.17796875 -82.03515625 45.3359375 C-82.02355469 44.70945313 -82.01195312 44.08296875 -82 43.4375 C-79.625 42.8125 -79.625 42.8125 -77 42.4375 C-74.3144406 45.1230594 -73.93950026 47.81371328 -73 51.4375 C-65.81659414 50.24809075 -61.4601364 48.71768186 -56.9375 42.6875 C-56.298125 41.945 -55.65875 41.2025 -55 40.4375 C-53.68 40.4375 -52.36 40.4375 -51 40.4375 C-49.4375 42.1171875 -49.4375 42.1171875 -48 44.3125 C-45.96313086 47.40101354 -44.51952137 49.14790438 -41 50.4375 C-38.66796188 50.5152346 -36.33160941 50.52717728 -34 50.4375 C-33.505 49.4475 -33.505 49.4475 -33 48.4375 C-33.66 48.4375 -34.32 48.4375 -35 48.4375 C-40.555088 43.80826 -44.71818545 37.28294364 -47 30.4375 C-47.60219844 22.11531496 -48.07747573 14.44925219 -43 7.4375 C-41.948125 5.9525 -41.948125 5.9525 -40.875 4.4375 C-40.25625 3.7775 -39.6375 3.1175 -39 2.4375 C-38.34 2.4375 -37.68 2.4375 -37 2.4375 C-37 1.7775 -37 1.1175 -37 0.4375 C-35.390625 -0.81640625 -35.390625 -0.81640625 -33.25 -2.125 C-32.55390625 -2.55941406 -31.8578125 -2.99382812 -31.140625 -3.44140625 C-21.16018184 -8.66839017 -8.89769905 -5.99088103 0 0 Z " fill="#E9B72F" transform="translate(229,167.5625)"/>
<path d="M0 0 C0 0.66 0 1.32 0 2 C0.78375 2.226875 1.5675 2.45375 2.375 2.6875 C5.65858937 4.32929468 5.83731147 5.63689626 7 9 C8.16341919 8.98428955 8.16341919 8.98428955 9.3503418 8.96826172 C38.07731337 8.63736856 66.65130816 9.36198771 95.125 13.4375 C95.85248444 13.54073578 96.57996887 13.64397156 97.32949829 13.75033569 C118.76758482 16.84505655 118.76758482 16.84505655 125 21 C125 21.66 125 22.32 125 23 C122.66967896 23.63835922 120.33659649 24.26033562 118 24.875 C117.05640625 25.13603516 117.05640625 25.13603516 116.09375 25.40234375 C102.45520951 28.94311868 88.19602143 29.42214262 74.1875 30.0625 C72.45010016 30.14758716 70.71271429 30.23295995 68.9753418 30.31860352 C60.24805691 30.73734106 51.52461861 31.06251962 42.7890625 31.2421875 C41.98219498 31.25988693 41.17532745 31.27758636 40.3440094 31.29582214 C36.51400654 31.37830505 32.68495424 31.44482676 28.85424805 31.48266602 C27.48225053 31.50750546 26.11026096 31.53278934 24.73828125 31.55859375 C23.55274658 31.57204834 22.36721191 31.58550293 21.14575195 31.59936523 C17.69273352 32.03913266 15.85334093 33.07103333 13 35 C7.27831844 36.49524307 1.25200921 36.19157246 -4.625 36.1875 C-5.69717773 36.18741943 -6.76935547 36.18733887 -7.87402344 36.18725586 C-16.60391431 36.12421697 -24.54054946 35.15366745 -33 33 C-32.67 30.69 -32.34 28.38 -32 26 C-30.0000797 25.97256207 -28.00004523 25.95340945 -26 25.9375 C-24.329375 25.92009766 -24.329375 25.92009766 -22.625 25.90234375 C-19.4192485 25.98870559 -16.33852705 26.31223365 -13.1640625 26.74389648 C-9.12373338 27.22204464 -5.06229222 27.37217755 -1 27.5625 C0.30517578 27.62727539 0.30517578 27.62727539 1.63671875 27.69335938 C3.75768219 27.79824218 5.87882433 27.89950075 8 28 C8 25.69 8 23.38 8 21 C7.26475098 21.01047363 6.52950195 21.02094727 5.77197266 21.03173828 C2.38968424 21.07371798 -0.99254907 21.0994583 -4.375 21.125 C-5.53128906 21.14175781 -6.68757813 21.15851563 -7.87890625 21.17578125 C-15.9523479 21.22139391 -23.32080926 20.55973025 -31 18 C-31.90206724 9.69764043 -31.90206724 9.69764043 -29.875 5.8828125 C-26.20465058 1.42869055 -22.22205808 -0.92598064 -16.75 -2.75 C-10.93236189 -3.27887619 -5.14011268 -2.90837784 0 0 Z " fill="#F55506" transform="translate(145,101)"/>
<path d="M0 0 C0.95261719 -0.00515625 1.90523438 -0.0103125 2.88671875 -0.015625 C5.3125 0.25 5.3125 0.25 7.3125 2.25 C7.3125 3.24 7.3125 4.23 7.3125 5.25 C8.055 5.229375 8.7975 5.20875 9.5625 5.1875 C12.3125 5.25 12.3125 5.25 14.375 5.875 C16.9422635 6.37188971 18.12719177 5.57679428 20.3125 4.25 C22.45586161 7.7266338 22.52527626 10.46229195 22.4375 14.5 C22.41945312 15.57765625 22.40140625 16.6553125 22.3828125 17.765625 C22.35960937 18.58546875 22.33640625 19.4053125 22.3125 20.25 C23.6325 20.25 24.9525 20.25 26.3125 20.25 C26.6425 18.6 26.9725 16.95 27.3125 15.25 C28.3025 15.25 29.2925 15.25 30.3125 15.25 C30.6425 16.57 30.9725 17.89 31.3125 19.25 C32.3025 18.26 33.2925 17.27 34.3125 16.25 C34.9725 16.58 35.6325 16.91 36.3125 17.25 C35.58618691 26.99055495 33.69262417 36.48008868 31.875 46.0625 C31.24858213 49.38100413 30.62484267 52.69999711 30.00390625 56.01953125 C29.7808934 57.21088181 29.7808934 57.21088181 29.55337524 58.42630005 C28.33164896 65.01465394 27.26729114 71.61722493 26.3125 78.25 C23.8375 78.745 23.8375 78.745 21.3125 79.25 C20.21635946 77.05771892 19.99821959 75.44313651 19.69921875 73.015625 C19.58755371 72.14147949 19.47588867 71.26733398 19.36083984 70.36669922 C19.18222412 68.94768311 19.18222412 68.94768311 19 67.5 C17.93291009 59.33344023 16.67560075 51.22559778 15.1875 43.125 C14.93166138 41.7313623 14.93166138 41.7313623 14.6706543 40.30957031 C13.9767585 36.59269038 13.25983799 32.91172593 12.3125 29.25 C8.68740317 29.56138304 5.06244162 29.87431571 1.4375 30.1875 C0.42429687 30.27451172 -0.58890625 30.36152344 -1.6328125 30.45117188 C-6.43722676 30.86693849 -11.23586125 31.30255443 -16.03125 31.8125 C-19.80569341 32.19629684 -23.51507309 32.35665613 -27.3125 32.3125 C-28.84777344 32.29896484 -28.84777344 32.29896484 -30.4140625 32.28515625 C-31.16429687 32.27355469 -31.91453125 32.26195312 -32.6875 32.25 C-32.57921875 33.85488281 -32.57921875 33.85488281 -32.46875 35.4921875 C-31.84617301 45.45563495 -31.57903101 55.39164826 -31.5625 65.375 C-31.55798828 66.53112793 -31.55347656 67.68725586 -31.54882812 68.87841797 C-31.55076172 69.95236816 -31.55269531 71.02631836 -31.5546875 72.1328125 C-31.55581543 73.09590332 -31.55694336 74.05899414 -31.55810547 75.05126953 C-31.6875 77.25 -31.6875 77.25 -32.6875 78.25 C-35.51166382 78.37663091 -38.30044793 78.43520548 -41.125 78.4375 C-41.91455078 78.44974609 -42.70410156 78.46199219 -43.51757812 78.47460938 C-45.57557435 78.47987279 -47.63312009 78.37206285 -49.6875 78.25 C-50.3475 77.59 -51.0075 76.93 -51.6875 76.25 C-51.3575 74.6 -51.0275 72.95 -50.6875 71.25 C-45.2425 70.26 -45.2425 70.26 -39.6875 69.25 C-39.7282666 68.3120459 -39.7690332 67.3740918 -39.81103516 66.40771484 C-39.95781429 62.90796341 -40.09454493 59.40811207 -40.22460938 55.90771484 C-40.28279564 54.39648831 -40.34491433 52.88540761 -40.41113281 51.37451172 C-40.50594546 49.19525736 -40.58632544 47.01585986 -40.6640625 44.8359375 C-40.71643066 43.5267334 -40.76879883 42.2175293 -40.82275391 40.86865234 C-40.68798182 37.26289098 -40.01063737 34.58719629 -38.6875 31.25 C-37.0375 30.92 -35.3875 30.59 -33.6875 30.25 C-33.6875 28.6 -33.6875 26.95 -33.6875 25.25 C-29.7275 24.92 -25.7675 24.59 -21.6875 24.25 C-21.6875 23.59 -21.6875 22.93 -21.6875 22.25 C-22.67204666 22.25666183 -22.67204666 22.25666183 -23.67648315 22.26345825 C-30.65506762 22.30852215 -37.63360932 22.33820108 -44.61230469 22.35986328 C-47.19923589 22.36977612 -49.78615634 22.38331033 -52.37304688 22.40087891 C-76.4012475 22.55969672 -100.01146276 21.52880191 -123.6875 17.25 C-123.1925 15.765 -123.1925 15.765 -122.6875 14.25 C-115.66656947 14.14479125 -108.90753778 14.65599738 -101.93945312 15.45117188 C-83.66887803 17.42914111 -65.41823743 17.37552501 -47.0625 17.3125 C-44.49479254 17.30747228 -41.92708413 17.30291163 -39.359375 17.29882812 C-33.13539537 17.28792956 -26.91145231 17.27129341 -20.6875 17.25 C-20.38972656 16.61964844 -20.09195313 15.98929687 -19.78515625 15.33984375 C-18.6875 13.25 -18.6875 13.25 -17.125 11.8125 C-15.23486879 9.75800956 -15.0550753 7.97005723 -14.6875 5.25 C-13.6975 4.92 -12.7075 4.59 -11.6875 4.25 C-11.3575 3.59 -11.0275 2.93 -10.6875 2.25 C-7.05459886 0.42390456 -4.03999983 -0.02204638 0 0 Z " fill="#CFC0B0" transform="translate(225.6875,271.75)"/>
<path d="M0 0 C9.26603681 7.2925714 14.85506022 16.31030858 17.34765625 27.84765625 C18.71018175 45.30113804 17.13328344 62.1886096 5.4296875 76.1328125 C-1.86469141 83.68115431 -9.84191484 89.82311062 -20.703125 90.2109375 C-22.45711244 90.20962758 -24.21115428 90.19251214 -25.96484375 90.16015625 C-26.85751953 90.16337891 -27.75019531 90.16660156 -28.66992188 90.16992188 C-35.25064732 90.11545387 -35.25064732 90.11545387 -38.65234375 87.84765625 C-37.94047113 85.47474751 -37.2279298 83.10207327 -36.51171875 80.73046875 C-35.9461918 78.83338291 -35.39372443 76.9323467 -34.85546875 75.02734375 C-34.6028125 74.14304687 -34.35015625 73.25875 -34.08984375 72.34765625 C-33.86167969 71.53296875 -33.63351562 70.71828125 -33.3984375 69.87890625 C-32.65234375 67.84765625 -32.65234375 67.84765625 -30.65234375 65.84765625 C-24.599942 65.29743791 -24.599942 65.29743791 -21.71484375 66.97265625 C-20.20749512 69.63268325 -20.45248122 71.8497183 -20.65234375 74.84765625 C-12.41260527 72.49344526 -7.38456006 68.29657485 -2.88671875 60.97265625 C2.57499951 50.57948363 5.21150623 40.35147511 2.22265625 28.78515625 C0.54501306 23.67271752 -2.13471118 19.8691407 -5.65234375 15.84765625 C-6.31234375 15.08453125 -6.97234375 14.32140625 -7.65234375 13.53515625 C-13.5032676 8.59843925 -19.55192145 7.70369557 -26.96484375 7.78515625 C-28.03347656 7.79417969 -29.10210937 7.80320313 -30.203125 7.8125 C-31.01136719 7.82410156 -31.81960938 7.83570313 -32.65234375 7.84765625 C-32.62914062 8.46253906 -32.6059375 9.07742187 -32.58203125 9.7109375 C-32.55496094 10.92330078 -32.55496094 10.92330078 -32.52734375 12.16015625 C-32.50414062 12.96066406 -32.4809375 13.76117188 -32.45703125 14.5859375 C-32.65234375 16.84765625 -32.65234375 16.84765625 -34.65234375 19.84765625 C-37.0078125 20.3984375 -37.0078125 20.3984375 -39.65234375 19.84765625 C-41.890625 17.328125 -41.890625 17.328125 -43.96484375 14.03515625 C-44.66222656 12.95621094 -45.35960937 11.87726563 -46.078125 10.765625 C-47.65234375 7.84765625 -47.65234375 7.84765625 -47.65234375 4.84765625 C-48.31234375 4.84765625 -48.97234375 4.84765625 -49.65234375 4.84765625 C-49.98234375 2.86765625 -50.31234375 0.88765625 -50.65234375 -1.15234375 C-34.90302953 -9.58947637 -15.33312412 -10.14728702 0 0 Z " fill="#969393" transform="translate(318.65234375,172.15234375)"/>
<path d="M0 0 C-0.9590625 0.928125 -0.9590625 0.928125 -1.9375 1.875 C-4.74799713 6.13332898 -4.80559267 9.99401138 -5 15 C7.83511537 17.67614754 20.94252182 17.64033819 34 18 C34.93423645 21.01031744 35.04449911 21.86650268 34 25 C20.52522226 25.27719543 7.39215908 24.49245952 -6 23 C-6.185625 24.67255859 -6.185625 24.67255859 -6.375 26.37890625 C-7 30 -7 30 -9 31.9375 C-13.01793677 33.36051927 -16.77303926 33.45413628 -21 33 C-21.33 32.67 -21.66 32.34 -22 32 C-27.95437716 32.46530894 -33.22267813 34.28927103 -38.8125 36.3125 C-39.69454102 36.62646729 -40.57658203 36.94043457 -41.48535156 37.26391602 C-47.37755105 39.37472519 -53.23580781 41.55780278 -59 44 C-58.43499869 48.44631465 -56.74087839 51.3297355 -54.3125 55.0625 C-50.96172335 60.31062294 -48.10056542 65.65915544 -45.37890625 71.265625 C-42.94842583 76.08527456 -39.98948489 80.51577267 -37 85 C-37.375 87.6875 -37.375 87.6875 -38 90 C-40.875 90.625 -40.875 90.625 -44 91 C-44.66 90.34 -45.32 89.68 -46 89 C-46 88.01 -46 87.02 -46 86 C-46.66 86 -47.32 86 -48 86 C-48.27038086 85.50411377 -48.54076172 85.00822754 -48.81933594 84.49731445 C-50.12744489 82.1012163 -51.43863602 79.70681824 -52.75 77.3125 C-53.23573486 76.42288574 -53.72146973 75.53327148 -54.22192383 74.61669922 C-56.88040469 69.77084995 -59.58918762 64.96496599 -62.40234375 60.20703125 C-62.95116211 59.27270264 -63.49998047 58.33837402 -64.06542969 57.37573242 C-65.12948218 55.57129543 -66.20403496 53.77300061 -67.29003906 51.98168945 C-69.91640801 47.51102393 -71.74269969 44.36491304 -71 39 C-64.93813704 36.19358196 -58.78067181 33.68515288 -52.5625 31.25 C-51.75699707 30.93216553 -50.95149414 30.61433105 -50.12158203 30.28686523 C-49.36087402 29.99110596 -48.60016602 29.69534668 -47.81640625 29.390625 C-47.13006104 29.12282227 -46.44371582 28.85501953 -45.73657227 28.57910156 C-44 28 -44 28 -42 28 C-42.495 27.01 -42.99 26.02 -43.5 25 C-45.3006114 20.73220471 -45.60524241 17.61497336 -45 13 C-38.92245125 5.70694151 -26.5716127 3.99892322 -17.75 2.25 C-16.17605469 1.91935547 -16.17605469 1.91935547 -14.5703125 1.58203125 C-9.65828978 0.58097345 -5.04199684 -0.31295153 0 0 Z " fill="#877F76" transform="translate(119,104)"/>
<path d="M0 0 C0.99 0.33 1.98 0.66 3 1 C5.18734097 1.13126663 7.37826325 1.20522024 9.5690918 1.24951172 C10.23323593 1.26434601 10.89738007 1.2791803 11.58164978 1.29446411 C13.02696873 1.32637705 14.47233309 1.35628135 15.91773033 1.38442612 C18.23085592 1.43031514 20.54371934 1.48329486 22.85664368 1.5383606 C29.43505435 1.69425661 36.01359073 1.84224964 42.5925293 1.97412109 C115.22874132 3.44910095 115.22874132 3.44910095 132.625 15.875 C134.55870848 18.86345856 134.64154299 20.50715482 134 24 C131.75 26.625 131.75 26.625 129 29 C128.236875 29.763125 127.47375 30.52625 126.6875 31.3125 C126.130625 31.869375 125.57375 32.42625 125 33 C125 32.01 125 31.02 125 30 C124.29359375 30.2990625 123.5871875 30.598125 122.859375 30.90625 C110.73718444 35.54315349 97.49623147 35.91823358 84.68896484 36.75732422 C81.482241 36.96827614 78.27678197 37.19302958 75.07128906 37.42176819 C54.36071457 38.88175403 33.75774706 39.25520211 13 39 C12.67 38.34 12.34 37.68 12 37 C19.48287967 32.12319366 26.49394618 32.55983482 35.1875 32.8125 C37.86842034 32.86880983 40.54928879 32.9132081 43.23046875 32.95703125 C45.00006958 33.00307495 45.00006958 33.00307495 46.80541992 33.05004883 C49.72130291 33.00436629 52.15970846 32.58797953 55 32 C57.32485891 31.86611573 59.65247795 31.77665332 61.98046875 31.71875 C62.96156364 31.69113586 62.96156364 31.69113586 63.96247864 31.66296387 C66.74362786 31.58470997 69.52499431 31.51633555 72.30639648 31.44775391 C74.34371005 31.39606831 76.38081494 31.33884095 78.41796875 31.28125 C79.63250732 31.25095703 80.8470459 31.22066406 82.09838867 31.18945312 C84.93841845 31.19245251 84.93841845 31.19245251 87 30 C88.99960012 29.960008 91.00047242 29.95653201 93 30 C93 29.34 93 28.68 93 28 C94.30453125 27.80664062 95.6090625 27.61328125 96.953125 27.4140625 C106.31622467 26.02106403 115.6715847 24.61161646 125 23 C125 22.34 125 21.68 125 21 C116.5041449 18.12039527 107.83458285 16.43488104 99 15 C98.21625 14.87093262 97.4325 14.74186523 96.625 14.60888672 C83.82086728 12.56518911 70.99760219 11.56777695 58.0625 10.875 C57.27970673 10.83282349 56.49691345 10.79064697 55.69039917 10.74719238 C46.99872196 10.28951831 38.31625376 9.95745042 29.61328125 9.83203125 C28.12556771 9.80561075 26.63785608 9.77908309 25.15014648 9.75244141 C22.35335958 9.70351018 19.55911904 9.68840259 16.76196289 9.69287109 C14.89592407 9.66507568 14.89592407 9.66507568 12.9921875 9.63671875 C11.90276855 9.63373779 10.81334961 9.63075684 9.69091797 9.62768555 C7 9 7 9 5.26220703 6.54223633 C4.84567871 5.70329834 4.42915039 4.86436035 4 4 C1.93299345 2.67206394 1.93299345 2.67206394 0 2 C0 1.34 0 0.68 0 0 Z " fill="#EFE5D8" transform="translate(145,101)"/>
<path d="M0 0 C0.66 0.66 1.32 1.32 2 2 C27.28386764 8.13686108 54.12792879 7.23821717 79.92431641 6.88354492 C83.69953927 6.83566474 87.47458746 6.80560614 91.25 6.77734375 C92.40491943 6.75558578 93.55983887 6.73382782 94.74975586 6.71141052 C95.80686768 6.70472855 96.86397949 6.69804657 97.953125 6.69116211 C98.88286133 6.67846786 99.81259766 6.66577362 100.77050781 6.6526947 C101.87410645 6.82461082 101.87410645 6.82461082 103 7 C103.99 8.485 103.99 8.485 105 10 C103.58461283 10.33872513 102.16762037 10.67074624 100.75 11 C99.96109375 11.185625 99.1721875 11.37125 98.359375 11.5625 C96 12 96 12 92 12 C91.67 13.65 91.34 15.3 91 17 C90.21625 17.103125 89.4325 17.20625 88.625 17.3125 C85.66954819 17.77595022 85.66954819 17.77595022 84 21 C84 20.01 84 19.02 84 18 C78.06 18.33 72.12 18.66 66 19 C66.01571045 20.32241699 66.0314209 21.64483398 66.04760742 23.00732422 C66.10179782 27.90114277 66.13631034 32.79493467 66.16479492 37.68896484 C66.17990645 39.80945288 66.2003964 41.92990954 66.22631836 44.05029297 C66.26259786 47.09350311 66.27970242 50.13630103 66.29296875 53.1796875 C66.30845261 54.13181122 66.32393646 55.08393494 66.33988953 56.06491089 C66.34011612 56.94567291 66.34034271 57.82643494 66.34057617 58.73388672 C66.35056892 59.89970779 66.35056892 59.89970779 66.36076355 61.08908081 C66.24171158 61.71968414 66.12265961 62.35028748 66 63 C62.18894923 65.54070051 59.31435307 65.15363256 54.9375 64.875 C54.20466797 64.85179687 53.47183594 64.82859375 52.71679688 64.8046875 C50.58984375 64.6796875 50.58984375 64.6796875 47 64 C45.50390625 61.9453125 45.50390625 61.9453125 45 60 C47 57 47 57 48.83984375 56.453125 C49.53207031 56.38609375 50.22429687 56.3190625 50.9375 56.25 C51.62714844 56.17265625 52.31679687 56.0953125 53.02734375 56.015625 C55 56 55 56 58 57 C57.01 38.19 57.01 38.19 56 19 C52.93455127 17.97818376 50.47410193 17.74015769 47.2578125 17.53515625 C46.10796875 17.45716797 44.958125 17.37917969 43.7734375 17.29882812 C41.3802967 17.14381205 38.98706965 16.99012058 36.59375 16.83789062 C9.08494589 14.96229034 9.08494589 14.96229034 0.3125 9.25 C-1.60782975 5.95800614 -0.83224955 3.60641474 0 0 Z " fill="#EAD9C8" transform="translate(101,286)"/>
<path d="M0 0 C29.17712029 -0.37433226 58.20210908 0.29586289 87.125 4.4375 C87.8523938 4.54073578 88.5797876 4.64397156 89.32922363 4.75033569 C110.76757626 7.84505084 110.76757626 7.84505084 117 12 C117 12.66 117 13.32 117 14 C115.0424015 14.50286934 113.08389623 15.0022099 111.125 15.5 C110.03445313 15.7784375 108.94390625 16.056875 107.8203125 16.34375 C105 17 105 17 103 17 C102.505 16.01 102.505 16.01 102 15 C99.79227376 14.12232004 99.79227376 14.12232004 97.1875 13.4375 C95.87845703 13.06431641 95.87845703 13.06431641 94.54296875 12.68359375 C93.70378906 12.45800781 92.86460937 12.23242188 92 12 C91.36559368 11.82338113 90.73118736 11.64676226 90.07755661 11.4647913 C86.61336098 10.6897809 83.09248132 10.87058015 79.55957031 10.88647461 C78.71042557 10.88632858 77.86128082 10.88618256 76.98640442 10.8860321 C74.1836185 10.88672799 71.38089929 10.89450524 68.578125 10.90234375 C66.63328081 10.90420908 64.68843614 10.90563244 62.74359131 10.90663147 C57.62752991 10.91044758 52.51149695 10.92027016 47.39544678 10.93133545 C42.17379135 10.94156902 36.95213132 10.94613326 31.73046875 10.95117188 C21.48696668 10.96189322 11.24348571 10.9789588 1 11 C0.67 7.37 0.34 3.74 0 0 Z " fill="#A3978C" transform="translate(153,110)"/>
<path d="M0 0 C-0.9590625 0.928125 -0.9590625 0.928125 -1.9375 1.875 C-4.74799713 6.13332898 -4.80559267 9.99401138 -5 15 C7.83511537 17.67614754 20.94252182 17.64033819 34 18 C34.93423645 21.01031744 35.04449911 21.86650268 34 25 C20.35692583 25.42098629 7.45662509 24.24946569 -6 22 C-6.29519531 21.20207031 -6.59039062 20.40414062 -6.89453125 19.58203125 C-7.77072326 16.95985154 -7.77072326 16.95985154 -9.6875 15.6875 C-14.05737718 14.38834732 -17.66589148 14.37741603 -21.8125 16.3125 C-24.22038518 17.98392208 -24.22038518 17.98392208 -26 21 C-26.66 21 -27.32 21 -28 21 C-28 21.99 -28 22.98 -28 24 C-32.62 25.32 -37.24 26.64 -42 28 C-44.6487551 22.70248979 -45.77938473 18.9428086 -45 13 C-38.92245125 5.70694151 -26.5716127 3.99892322 -17.75 2.25 C-16.17605469 1.91935547 -16.17605469 1.91935547 -14.5703125 1.58203125 C-9.65828978 0.58097345 -5.04199684 -0.31295153 0 0 Z " fill="#9F9790" transform="translate(119,104)"/>
<path d="M0 0 C0.66 0 1.32 0 2 0 C2.33 1.65 2.66 3.3 3 5 C5.31 5.33 7.62 5.66 10 6 C10 4.02 10 2.04 10 0 C10.99 0 11.98 0 13 0 C13.33 1.32 13.66 2.64 14 4 C14.99 3.01 15.98 2.02 17 1 C17.66 1.33 18.32 1.66 19 2 C18.27368691 11.74055495 16.38012417 21.23008868 14.5625 30.8125 C13.93608213 34.13100413 13.31234267 37.44999711 12.69140625 40.76953125 C12.54273102 41.56376495 12.39405579 42.35799866 12.24087524 43.17630005 C11.01914896 49.76465394 9.95479114 56.36722493 9 63 C6.525 63.495 6.525 63.495 4 64 C2.90385946 61.80771892 2.68571959 60.19313651 2.38671875 57.765625 C2.27513428 56.89244629 2.1635498 56.01926758 2.04858398 55.11962891 C1.86984741 53.6991626 1.86984741 53.6991626 1.6875 52.25 C0.65551804 44.32662114 -0.57873882 36.47613724 -2.0625 28.625 C-3.73256222 19.77626864 -5.02520942 10.95268187 -6 2 C-5.01 2 -4.02 2 -3 2 C-2.67 2.99 -2.34 3.98 -2 5 C-1.34 5.33 -0.68 5.66 0 6 C0 4.02 0 2.04 0 0 Z " fill="#080304" transform="translate(243,287)"/>
<path d="M0 0 C0 1.98 0 3.96 0 6 C-1.79036458 7.00911458 -3.58072917 8.01822917 -5.37109375 9.02734375 C-6.97878146 9.8972513 -6.97878146 9.8972513 -8 11 C-13.01215375 11.29483257 -17.91951728 11.17427141 -22.875 10.375 C-27.35257138 9.83769143 -29.72870598 11.13016725 -33.375 13.625 C-36.80856615 15.42353465 -39.16643053 15.34228299 -43 15 C-44.672233 14.34742127 -46.33927151 13.68132451 -48 13 C-52.2617322 12.40533969 -55.12671921 13.36242101 -59 15 C-64.40103222 17.27666829 -67.81652629 17.66284023 -73.5 15.9375 C-78.69061272 14.54715731 -82.17723942 15.63915741 -87 17.625 C-90.65642972 19.08054029 -93.14332834 19.06058471 -97 18 C-97 17.34 -97 16.68 -97 16 C-102.23471686 15.24387423 -106.77254141 14.7936634 -112 16 C-112 16.66 -112 17.32 -112 18 C-116.20805935 18.33664475 -118.34518743 18.45552179 -121.875 16 C-126.02018636 13.34708073 -129.2163602 13.61730882 -134 14 C-134 14.66 -134 15.32 -134 16 C-143.73995772 16.57293869 -143.73995772 16.57293869 -148 13 C-148 12.34 -148 11.68 -148 11 C-148.6290625 11.144375 -149.258125 11.28875 -149.90625 11.4375 C-155.38225465 12.62506727 -160.40138175 13.57916741 -166 13 C-168.3125 11.0625 -168.3125 11.0625 -170 9 C-170.99 8.67 -171.98 8.34 -173 8 C-173 7.34 -173 6.68 -173 6 C-174.32 5.67 -175.64 5.34 -177 5 C-176.67 4.01 -176.34 3.02 -176 2 C-172.7651705 2.3696948 -171.25473664 2.76709793 -168.8125 5 C-164.7778557 7.86908039 -160.84724107 7.81175763 -156 8 C-156 7.34 -156 6.68 -156 6 C-153.36 6 -150.72 6 -148 6 C-148 6.66 -148 7.32 -148 8 C-147.38125 8.144375 -146.7625 8.28875 -146.125 8.4375 C-144 9 -144 9 -142 10 C-138.45108417 10.20088203 -135.74675858 10.30963161 -132.4375 8.9375 C-129.2327661 7.70491004 -127.29301813 8.15922941 -124 9 C-121.625 10.0625 -121.625 10.0625 -120 11 C-120 11.66 -120 12.32 -120 13 C-118.56206608 12.68950274 -117.1246682 12.3765224 -115.6875 12.0625 C-114.88699219 11.88847656 -114.08648437 11.71445313 -113.26171875 11.53515625 C-110.854599 11.00113841 -110.854599 11.00113841 -108 10 C-106.60560336 9.93334624 -105.20830125 9.91461801 -103.8125 9.9375 C-101.9253125 9.9684375 -101.9253125 9.9684375 -100 10 C-100 10.66 -100 11.32 -100 12 C-94.84329234 13.14593504 -91.9567416 13.23238694 -87.125 11 C-81.81173924 8.59088177 -77.63683563 8.89661941 -72 10 C-72 10.66 -72 11.32 -72 12 C-67.59390955 12.3671742 -64.99202224 12.20528979 -61.125 10 C-55.73692537 7.07887908 -50.95276829 7.62608548 -45.0078125 8.37890625 C-39.05443834 9.08410643 -35.75815841 9.41700107 -30.83984375 5.9296875 C-26.00522993 3.48671916 -19.4982319 4.63201322 -14.4375 5.875 C-9.63319897 6.04970186 -6.96576472 3.95161739 -3.0390625 1.34765625 C-1 0 -1 0 0 0 Z " fill="#B3ACA4" transform="translate(264,144)"/>
<path d="M0 0 C3.06068478 1.75826573 4.51069452 3.1437154 6.25 6.1875 C7.28953684 10.08576314 7.66771177 13.98630791 8 18 C9.32 18.33 10.64 18.66 12 19 C12 15.04 12 11.08 12 7 C12.33 7 12.66 7 13 7 C13 9.64 13 12.28 13 15 C13.66 15 14.32 15 15 15 C15.43998855 19.39988547 15.36533691 21.45199463 12.875 25.1875 C8.10207222 30.20107961 2.86962793 33.16611453 -4 34 C-10.4137931 33.5862069 -10.4137931 33.5862069 -13 31 C-13.94875 30.71125 -14.8975 30.4225 -15.875 30.125 C-19.33870582 28.8780659 -20.88628604 28.00797756 -23 25 C-23.25 21.25 -23.25 21.25 -23 18 C-21.35 18 -19.7 18 -18 18 C-18.0928125 16.453125 -18.0928125 16.453125 -18.1875 14.875 C-17.9117388 9.17593527 -16.18538463 6.2982784 -12.375 2.125 C-8.08134034 -0.57841534 -4.94933385 -0.98621413 0 0 Z " fill="#EBE1D5" transform="translate(216,180)"/>
<path d="M0 0 C0 0.66 0 1.32 0 2 C1.11375 2.2475 1.11375 2.2475 2.25 2.5 C6.28085258 4.69864686 7.6199975 7.70249222 9 12 C9.34919804 14.81783417 9.25076407 17.14128962 9 20 C6.40840663 22.59159337 -0.9562229 21.18560903 -4.4375 21.1875 C-5.58927734 21.19974609 -6.74105469 21.21199219 -7.92773438 21.22460938 C-15.96742352 21.23829007 -23.35305371 20.5489821 -31 18 C-31.90206724 9.69764043 -31.90206724 9.69764043 -29.875 5.8828125 C-26.20465058 1.42869055 -22.22205808 -0.92598064 -16.75 -2.75 C-10.93236189 -3.27887619 -5.14011268 -2.90837784 0 0 Z " fill="#0C0709" transform="translate(145,101)"/>
<path d="M0 0 C5.8066115 4.87440888 8.86615578 10.51418975 10 18 C9.79157923 22.3768361 9.42753291 24.35870063 7 28 C7 26.35 7 24.7 7 23 C6.34 23 5.68 23 5 23 C4.67 24.32 4.34 25.64 4 27 C2.35 26.67 0.7 26.34 -1 26 C-1.04898438 25.40832031 -1.09796875 24.81664062 -1.1484375 24.20703125 C-1.81169981 16.63647185 -1.81169981 16.63647185 -5.5625 10.1875 C-9.35954828 8.33765597 -12.86675992 8.23352394 -17 9 C-20.3566872 10.72447144 -22.47903534 13.05730205 -24.3125 16.375 C-25.14760761 19.5635927 -25.61512893 22.72859591 -26 26 C-27.65 26 -29.3 26 -31 26 C-31 27.65 -31 29.3 -31 31 C-34.15380946 28.41961044 -35.13718893 25.95455076 -36 22 C-36.2279689 14.83697714 -34.59512266 9.50469707 -30 4 C-21.41149791 -5.00891828 -10.63023781 -6.75602188 0 0 Z " fill="#EBE1D5" transform="translate(224,172)"/>
<path d="M0 0 C1.32 0 2.64 0 4 0 C5.5625 1.6796875 5.5625 1.6796875 7 3.875 C9.04320727 6.97312406 10.49055975 8.67301395 14 10 C17.54230809 10.58342353 17.54230809 10.58342353 21 10 C22.91666667 7.75 22.91666667 7.75 24 5 C24.66 4.01 25.32 3.02 26 2 C29.875 2.875 29.875 2.875 31 4 C31.40764103 8.15793846 31.25450592 10.50984045 29.3125 14.25 C26.21046145 17.93891071 23.69666018 19.74518245 18.87890625 20.46875 C8.82152668 20.56351918 8.82152668 20.56351918 5.1875 17.625 C3 15 3 15 3 13 C2.51789063 13.3609375 2.03578125 13.721875 1.5390625 14.09375 C0.90742188 14.5578125 0.27578125 15.021875 -0.375 15.5 C-1.00148437 15.9640625 -1.62796875 16.428125 -2.2734375 16.90625 C-4 18 -4 18 -6 18 C-6 18.66 -6 19.32 -6 20 C-19.49745331 20.91680815 -19.49745331 20.91680815 -23.07421875 18.734375 C-26.05246615 15.04957642 -27.12829839 11.98088718 -27.0625 7.375 C-27.05347656 6.55773437 -27.04445312 5.74046875 -27.03515625 4.8984375 C-27.02355469 4.27195313 -27.01195312 3.64546875 -27 3 C-24.625 2.375 -24.625 2.375 -22 2 C-19.3144406 4.6855594 -18.93950026 7.37621328 -18 11 C-10.81659414 9.81059075 -6.4601364 8.28018186 -1.9375 2.25 C-1.298125 1.5075 -0.65875 0.765 0 0 Z " fill="#140F0F" transform="translate(174,208)"/>
<path d="M0 0 C4.61840455 0.34855883 7.88659074 1.77492145 11.125 5.125 C13.8120883 7.73531435 16.70551086 9.19821665 19.99609375 10.94921875 C22.18465047 12.17820591 24.16854236 13.51257261 26.1875 15 C29.13136221 17.35500432 29.13136221 17.35500432 32.3125 18.25 C32.3125 19.24 32.3125 20.23 32.3125 21.25 C33.2715625 21.4665625 33.2715625 21.4665625 34.25 21.6875 C36.3125 22.25 36.3125 22.25 37.3125 23.25 C37.5625 25.6875 37.5625 25.6875 37.3125 28.25 C34.12829155 30.37280563 33.10712745 30.53019537 29.42578125 30.6640625 C28.48798828 30.70273437 27.55019531 30.74140625 26.58398438 30.78125 C25.11928711 30.82765625 25.11928711 30.82765625 23.625 30.875 C22.63693359 30.91367187 21.64886719 30.95234375 20.63085938 30.9921875 C18.1917139 31.08645399 15.75213253 31.1693159 13.3125 31.25 C13.3125 28.28 13.3125 25.31 13.3125 22.25 C15.2925 22.25 17.2725 22.25 19.3125 22.25 C19.3125 21.59 19.3125 20.93 19.3125 20.25 C18.24515625 19.86134766 18.24515625 19.86134766 17.15625 19.46484375 C14.13399266 18.17374206 11.56253711 16.60852143 8.8125 14.8125 C6.0944506 13.04500439 3.38926454 11.2951102 0.59375 9.65234375 C-1.6875 8.25 -1.6875 8.25 -3.6875 6.25 C-3.875 3.6875 -3.875 3.6875 -3.6875 1.25 C-2.6875 0.25 -2.6875 0.25 0 0 Z " fill="#857A6F" transform="translate(238.6875,253.75)"/>
<path d="M0 0 C0.9796875 -0.01417969 1.959375 -0.02835937 2.96875 -0.04296875 C5.5 0.1875 5.5 0.1875 7.5 2.1875 C7.5 3.1775 7.5 4.1675 7.5 5.1875 C8.2425 5.166875 8.985 5.14625 9.75 5.125 C12.5 5.1875 12.5 5.1875 14.5625 5.8125 C17.1297635 6.30938971 18.31469177 5.51429428 20.5 4.1875 C22.64336161 7.6641338 22.71277626 10.39979195 22.625 14.4375 C22.60695312 15.51515625 22.58890625 16.5928125 22.5703125 17.703125 C22.54710937 18.52296875 22.52390625 19.3428125 22.5 20.1875 C23.82 20.1875 25.14 20.1875 26.5 20.1875 C26.995 18.7025 26.995 18.7025 27.5 17.1875 C27.5 18.5075 27.5 19.8275 27.5 21.1875 C25.16705225 21.22991723 22.83297433 21.22842937 20.5 21.1875 C19.5 20.1875 19.5 20.1875 19.4375 17.625 C19.458125 16.820625 19.47875 16.01625 19.5 15.1875 C18.84 15.1875 18.18 15.1875 17.5 15.1875 C17.5 17.1675 17.5 19.1475 17.5 21.1875 C16.51 20.8575 15.52 20.5275 14.5 20.1875 C14.5 19.1975 14.5 18.2075 14.5 17.1875 C13.51 17.1875 12.52 17.1875 11.5 17.1875 C11.5 17.8475 11.5 18.5075 11.5 19.1875 C9.06242587 19.21448422 6.62515085 19.23433099 4.1875 19.25 C3.49720703 19.25837891 2.80691406 19.26675781 2.09570312 19.27539062 C-1.0483025 19.29057906 -3.49420019 19.18943327 -6.5 18.1875 C-7.1875 16.125 -7.1875 16.125 -7.5 14.1875 C-8.16 14.1875 -8.82 14.1875 -9.5 14.1875 C-9.55447047 12.77126784 -9.59300508 11.35441809 -9.625 9.9375 C-9.64820313 9.14859375 -9.67140625 8.3596875 -9.6953125 7.546875 C-9.47962391 4.94135683 -8.8921178 3.38763023 -7.5 1.1875 C-4.89820337 -0.11339831 -2.9030812 0.01909922 0 0 Z " fill="#81786E" transform="translate(225.5,271.8125)"/>
<path d="M0 0 C-0.60636233 5.76044212 -2.75658279 10.72014369 -5 16 C-5.66 15.34 -6.32 14.68 -7 14 C-7.96099609 14.66708984 -7.96099609 14.66708984 -8.94140625 15.34765625 C-16.10228744 20.03264409 -16.10228744 20.03264409 -20.4375 19.875 C-21.613125 19.58625 -22.78875 19.2975 -24 19 C-31.46593301 18.34548284 -35.71293354 19.02246815 -42 23 C-44.4375 22.75 -44.4375 22.75 -46 22 C-45.38125 21.938125 -44.7625 21.87625 -44.125 21.8125 C-41.72238859 21.171081 -41.72238859 21.171081 -40.75 18.4375 C-40.5025 17.633125 -40.255 16.82875 -40 16 C-39.34 16 -38.68 16 -38 16 C-37.87625 15.360625 -37.7525 14.72125 -37.625 14.0625 C-37.41875 13.381875 -37.2125 12.70125 -37 12 C-36.34 11.67 -35.68 11.34 -35 11 C-35 10.34 -35 9.68 -35 9 C-34.34 9 -33.68 9 -33 9 C-33 8.01 -33 7.02 -33 6 C-31.93523437 5.81824219 -30.87046875 5.63648438 -29.7734375 5.44921875 C-21.35503928 3.99629228 -12.99811147 2.41748764 -4.66015625 0.55078125 C-2 0 -2 0 0 0 Z " fill="#DECAB6" transform="translate(270,131)"/>
<path d="M0 0 C2.64 0 5.28 0 8 0 C8.70099887 11.2034641 9.13955408 22.39930911 9.25 33.625 C9.27126953 34.72126709 9.29253906 35.81753418 9.31445312 36.94702148 C9.31896484 37.96739502 9.32347656 38.98776855 9.328125 40.0390625 C9.34214355 41.40345459 9.34214355 41.40345459 9.35644531 42.79541016 C9.18000488 43.88668213 9.18000488 43.88668213 9 45 C5.18894923 47.54070051 2.31435307 47.15363256 -2.0625 46.875 C-3.16174805 46.84019531 -3.16174805 46.84019531 -4.28320312 46.8046875 C-6.41015625 46.6796875 -6.41015625 46.6796875 -10 46 C-11.49609375 43.9453125 -11.49609375 43.9453125 -12 42 C-10 39 -10 39 -8.16015625 38.453125 C-7.46792969 38.38609375 -6.77570313 38.3190625 -6.0625 38.25 C-5.37285156 38.17265625 -4.68320313 38.0953125 -3.97265625 38.015625 C-2 38 -2 38 1 39 C0.96970703 38.31599121 0.93941406 37.63198242 0.90820312 36.92724609 C-0.19008061 11.80611778 -0.19008061 11.80611778 0 0 Z " fill="#867E75" transform="translate(158,304)"/>
<path d="M0 0 C1.98 0 3.96 0 6 0 C6.72044327 11.39844172 7.10604398 22.76491814 7.125 34.1875 C7.12951172 35.33976074 7.13402344 36.49202148 7.13867188 37.67919922 C7.13673828 38.74799316 7.13480469 39.81678711 7.1328125 40.91796875 C7.13168457 41.87469482 7.13055664 42.8314209 7.12939453 43.81713867 C7 46 7 46 6 47 C3.17583618 47.12663091 0.38705207 47.18520548 -2.4375 47.1875 C-3.22705078 47.19974609 -4.01660156 47.21199219 -4.83007812 47.22460938 C-6.88807435 47.22987279 -8.94562009 47.12206285 -11 47 C-11.66 46.34 -12.32 45.68 -13 45 C-12.67 43.35 -12.34 41.7 -12 40 C-8.37 39.34 -4.74 38.68 -1 38 C-1.0407666 37.0620459 -1.0815332 36.1240918 -1.12353516 35.15771484 C-1.27031429 31.65796341 -1.40704493 28.15811207 -1.53710938 24.65771484 C-1.59529564 23.14648831 -1.65741433 21.63540761 -1.72363281 20.12451172 C-1.81844546 17.94525736 -1.89882544 15.76585986 -1.9765625 13.5859375 C-2.02893066 12.2767334 -2.08129883 10.9675293 -2.13525391 9.61865234 C-2.00048182 6.01289098 -1.32313737 3.33719629 0 0 Z " fill="#867E76" transform="translate(187,303)"/>
<path d="M0 0 C0.99 0 1.98 0 3 0 C3.33 1.32 3.66 2.64 4 4 C4.99 3.01 5.98 2.02 7 1 C7.66 1.33 8.32 1.66 9 2 C8.27368691 11.74055495 6.38012417 21.23008868 4.5625 30.8125 C3.93608213 34.13100413 3.31234267 37.44999711 2.69140625 40.76953125 C2.54273102 41.56376495 2.39405579 42.35799866 2.24087524 43.17630005 C1.01914896 49.76465394 -0.04520886 56.36722493 -1 63 C-3.475 63.495 -3.475 63.495 -6 64 C-7.35091528 61.29816945 -7.33858058 58.88191794 -7.5625 55.875 C-7.64628906 54.77929688 -7.73007813 53.68359375 -7.81640625 52.5546875 C-7.87699219 51.71164062 -7.93757812 50.86859375 -8 50 C-7.01 50 -6.02 50 -5 50 C-5 48.35 -5 46.7 -5 45 C-4.67 45 -4.34 45 -4 45 C-3.9498877 44.06728271 -3.89977539 43.13456543 -3.84814453 42.17358398 C-3.6569416 38.68619001 -3.45853905 35.19935607 -3.25537109 31.71264648 C-3.16918439 30.2085755 -3.08580219 28.70434092 -3.00537109 27.19995117 C-2.88871074 25.0273322 -2.76170162 22.85551756 -2.6328125 20.68359375 C-2.55949707 19.37962646 -2.48618164 18.07565918 -2.41064453 16.73217773 C-1.99601333 12.96376685 -1.08512759 9.62362003 0 6 C0 5.01 0 4.02 0 3 C0 2.01 0 1.02 0 0 Z " fill="#191313" transform="translate(253,287)"/>
<path d="M0 0 C-0.9590625 1.11375 -0.9590625 1.11375 -1.9375 2.25 C-3.84096596 4.78795462 -4.39464941 6.01785181 -5 9 C-5.87140625 9.10957031 -6.7428125 9.21914062 -7.640625 9.33203125 C-22.89660941 11.2437518 -22.89660941 11.2437518 -37 17 C-37 17.99 -37 18.98 -37 20 C-36.236875 20.144375 -35.47375 20.28875 -34.6875 20.4375 C-32 21 -32 21 -29 22 C-29 22.66 -29 23.32 -29 24 C-35.435 25.98 -35.435 25.98 -42 28 C-44.6487551 22.70248979 -45.77938473 18.9428086 -45 13 C-38.92245125 5.70694151 -26.5716127 3.99892322 -17.75 2.25 C-16.17605469 1.91935547 -16.17605469 1.91935547 -14.5703125 1.58203125 C-9.65828978 0.58097345 -5.04199684 -0.31295153 0 0 Z " fill="#EDE3D7" transform="translate(119,104)"/>
<path d="M0 0 C1.4783226 2.95664519 1.06032783 5.74229737 1 9 C-13.81214374 11.54076918 -28.94898861 13.55064676 -44 13 C-45 11 -45 11 -45 6 C-39.06 5.505 -39.06 5.505 -33 5 C-33 4.01 -33 3.02 -33 2 C-27.87373026 1.19944082 -22.8041505 0.72131302 -17.625 0.4375 C-16.8812915 0.3950415 -16.13758301 0.35258301 -15.37133789 0.30883789 C-10.24014323 0.03021845 -5.13944387 -0.09344443 0 0 Z " fill="#DAC6B3" transform="translate(237,291)"/>
<path d="M0 0 C3.4375 1.75 3.4375 1.75 6 4 C6 5.32 6 6.64 6 8 C7.32 8.33 8.64 8.66 10 9 C8.68 9 7.36 9 6 9 C5.9071875 10.6396875 5.9071875 10.6396875 5.8125 12.3125 C5 16 5 16 3 17.9375 C-1.01793677 19.36051927 -4.77303926 19.45413628 -9 19 C-9.33 18.67 -9.66 18.34 -10 18 C-12.02408755 18.09002398 -14.04544287 18.24641038 -16.0625 18.4375 C-17.16722656 18.53933594 -18.27195312 18.64117187 -19.41015625 18.74609375 C-20.69212891 18.87177734 -20.69212891 18.87177734 -22 19 C-22.625 16.1875 -22.625 16.1875 -23 13 C-22.34 12.01 -21.68 11.02 -21 10 C-18.375 9.8125 -18.375 9.8125 -16 10 C-16 9.01 -16 8.02 -16 7 C-15.34 7 -14.68 7 -14 7 C-13.6596875 6.1028125 -13.6596875 6.1028125 -13.3125 5.1875 C-10.2013263 0.0022105 -5.70252605 -0.70031022 0 0 Z " fill="#80766C" transform="translate(107,118)"/>
<path d="M0 0 C1.9999203 -0.02743793 3.99995477 -0.04659055 6 -0.0625 C7.670625 -0.07990234 7.670625 -0.07990234 9.375 -0.09765625 C12.59094413 -0.01101982 15.66978833 0.33901458 18.85351562 0.77075195 C22.81222737 1.19354885 26.77296644 1.14373014 30.75 1.125 C31.58660156 1.12886719 32.42320312 1.13273438 33.28515625 1.13671875 C34.49751953 1.13478516 34.49751953 1.13478516 35.734375 1.1328125 C36.45850586 1.13168457 37.18263672 1.13055664 37.92871094 1.12939453 C40.02842168 1.07007755 40.02842168 1.07007755 42.09472656 0.41748047 C44 0 44 0 46.75 1.1875 C47.4925 1.785625 48.235 2.38375 49 3 C49 4.32 49 5.64 49 7 C42.3900436 10.81343639 34.76922031 10.19262381 27.375 10.1875 C26.30282227 10.18741943 25.23064453 10.18733887 24.12597656 10.18725586 C15.39608569 10.12421697 7.45945054 9.15366745 -1 7 C-0.67 4.69 -0.34 2.38 0 0 Z " fill="#100A0C" transform="translate(113,127)"/>
<path d="M0 0 C10.15956985 -0.41373814 19.81582594 -0.20623858 29.8125 1.8125 C30.64104492 1.97782227 31.46958984 2.14314453 32.32324219 2.31347656 C36.93691784 3.31710695 40.84635476 4.66566475 45 7 C45 7.66 45 8.32 45 9 C43.0424015 9.50286934 41.08389623 10.0022099 39.125 10.5 C38.03445313 10.7784375 36.94390625 11.056875 35.8203125 11.34375 C33 12 33 12 31 12 C30.505 11.01 30.505 11.01 30 10 C27.79227376 9.12232004 27.79227376 9.12232004 25.1875 8.4375 C23.87845703 8.06431641 23.87845703 8.06431641 22.54296875 7.68359375 C21.70378906 7.45800781 20.86460937 7.23242188 20 7 C19.36481068 6.82338113 18.72962135 6.64676226 18.07518387 6.4647913 C14.6405416 5.695514 11.15414243 5.87052915 7.65136719 5.88647461 C6.81197601 5.88632858 5.97258484 5.88618256 5.10775757 5.8860321 C2.33743696 5.88672793 -0.43281615 5.89450493 -3.203125 5.90234375 C-5.12554894 5.9042091 -7.04797336 5.90563245 -8.97039795 5.90663147 C-14.02727575 5.91044743 -19.08412477 5.92026988 -24.14099121 5.93133545 C-29.30232351 5.94156935 -34.46366047 5.94613333 -39.625 5.95117188 C-49.75001263 5.96189295 -59.87500392 5.97895835 -70 6 C-66.43752399 3.62501599 -64.74582922 3.70064092 -60.5090332 3.58935547 C-59.52814224 3.55965668 -59.52814224 3.55965668 -58.5274353 3.52935791 C-56.36869727 3.46624755 -54.20987124 3.41666288 -52.05078125 3.3671875 C-50.5528893 3.3260379 -49.0550203 3.28404466 -47.55717468 3.24124146 C-43.61675618 3.1309078 -39.67612997 3.03204271 -35.73535156 2.93554688 C-31.71335385 2.83503746 -27.69165738 2.72370693 -23.66992188 2.61328125 C-15.7802027 2.39825029 -7.89023134 2.19533181 0 2 C0 1.34 0 0.68 0 0 Z " fill="#A6795B" transform="translate(225,115)"/>
<path d="M0 0 C3.95545667 3.8540347 6.28172984 6.12386988 6.6796875 11.875 C6.68676312 15.38450929 6.61034519 18.87008369 6.4375 22.375 C4.7875 22.045 3.1375 21.715 1.4375 21.375 C1.41171875 20.72273438 1.3859375 20.07046875 1.359375 19.3984375 C0.99517434 13.78643636 0.64725076 9.47950699 -3.5625 5.375 C-7.35676435 4.01728452 -10.81093563 3.7470807 -14.6328125 5.1171875 C-17.79673153 6.82490949 -19.56135068 8.37327602 -21.5625 11.375 C-21.99988696 13.08944889 -22.37098688 14.82167784 -22.6875 16.5625 C-22.85507813 17.46355469 -23.02265625 18.36460937 -23.1953125 19.29296875 C-23.31648437 19.98003906 -23.43765625 20.66710937 -23.5625 21.375 C-25.2125 21.375 -26.8625 21.375 -28.5625 21.375 C-29.06676583 14.53939657 -28.89632924 8.94353842 -24.5625 3.375 C-18.06107426 -3.19032182 -8.16877116 -3.72610615 0 0 Z " fill="#191313" transform="translate(155.5625,176.625)"/>
<path d="M0 0 C4.10822237 2.90581582 6.67261632 5.83089626 7.5625 10.8125 C7.62993348 12.89484592 7.64764472 14.97918557 7.625 17.0625 C7.61597656 18.14015625 7.60695312 19.2178125 7.59765625 20.328125 C7.58605469 21.14796875 7.57445312 21.9678125 7.5625 22.8125 C5.9125 22.4825 4.2625 22.1525 2.5625 21.8125 C2.51351562 21.22082031 2.46453125 20.62914062 2.4140625 20.01953125 C1.75080019 12.44897185 1.75080019 12.44897185 -2 6 C-5.79704828 4.15015597 -9.30425992 4.04602394 -13.4375 4.8125 C-16.7941872 6.53697144 -18.91653534 8.86980205 -20.75 12.1875 C-21.58510761 15.3760927 -22.05262893 18.54109591 -22.4375 21.8125 C-24.0875 21.8125 -25.7375 21.8125 -27.4375 21.8125 C-27.94240446 14.96823949 -27.68739161 9.44003231 -23.4375 3.8125 C-16.45185195 -1.74750559 -8.4615549 -2.9230826 0 0 Z " fill="#140E0F" transform="translate(220.4375,176.1875)"/>
<path d="M0 0 C0 1.98 0 3.96 0 6 C-1.79036458 7.00911458 -3.58072917 8.01822917 -5.37109375 9.02734375 C-6.97878146 9.8972513 -6.97878146 9.8972513 -8 11 C-13.01215375 11.29483257 -17.91951728 11.17427141 -22.875 10.375 C-27.35257138 9.83769143 -29.72870598 11.13016725 -33.375 13.625 C-36.79638316 15.41715308 -39.1840504 15.34690451 -43 15 C-45.4375 14 -45.4375 14 -47 13 C-47 12.34 -47 11.68 -47 11 C-44.53640019 10.24196929 -42.84950054 10.01368177 -40.25 10.25 C-36.7656554 9.98197349 -36.02390718 9.47394879 -33.3125 7.5 C-28.3828577 4.15690925 -23.77683303 4.40839662 -18 5 C-16.824375 5.28875 -15.64875 5.5775 -14.4375 5.875 C-9.63319897 6.04970186 -6.96576472 3.95161739 -3.0390625 1.34765625 C-1 0 -1 0 0 0 Z " fill="#999694" transform="translate(264,144)"/>
<path d="M0 0 C-0.95712891 0.74443359 -0.95712891 0.74443359 -1.93359375 1.50390625 C-7.53974176 5.76249636 -7.53974176 5.76249636 -10.0625 12 C-10.041875 12.99 -10.02125 13.98 -10 15 C-13 15 -13 15 -15.25 13.125 C-21.26003389 8.48088291 -28.68207657 8.50285911 -36 8 C-36 7.34 -36 6.68 -36 6 C-36.66 5.67 -37.32 5.34 -38 5 C-32.75470658 1.63763242 -28.87685297 1.73059976 -23 3 C-22.34 3.33 -21.68 3.66 -21 4 C-15.20264535 4.55743795 -12.6303758 3.39560892 -8 0 C-4.89338414 -1.18782371 -3.1546906 -0.85739516 0 0 Z " fill="#E1CDB6" transform="translate(242,154)"/>
<path d="M0 0 C0.33 0 0.66 0 1 0 C0.67 9.24 0.34 18.48 0 28 C0.66 28.33 1.32 28.66 2 29 C2.33 28.01 2.66 27.02 3 26 C2.33556363 32.39278104 1.46606595 38.71885644 0.4375 45.0625 C0.22963867 46.3609082 0.22963867 46.3609082 0.01757812 47.68554688 C-0.31970697 49.79067111 -0.65957836 51.8953807 -1 54 C-3.475 54.495 -3.475 54.495 -6 55 C-7.35091528 52.29816945 -7.33858058 49.88191794 -7.5625 46.875 C-7.64628906 45.77929688 -7.73007813 44.68359375 -7.81640625 43.5546875 C-7.87699219 42.71164062 -7.93757812 41.86859375 -8 41 C-7.01 41 -6.02 41 -5 41 C-5 39.35 -5 37.7 -5 36 C-4.67 36 -4.34 36 -4 36 C-3.91435791 35.08710205 -3.82871582 34.1742041 -3.74047852 33.23364258 C-3.42012975 29.83223519 -3.09744395 26.43106609 -2.77319336 23.0300293 C-2.63359004 21.56071646 -2.49490657 20.09131591 -2.35717773 18.62182617 C-2.15853396 16.50415446 -1.95653509 14.38682492 -1.75390625 12.26953125 C-1.63345947 10.99698486 -1.5130127 9.72443848 -1.38891602 8.41333008 C-1.06326166 5.55521735 -0.62121035 2.80599542 0 0 Z " fill="#2B2626" transform="translate(253,296)"/>
<path d="M0 0 C2.1796875 1.12890625 2.1796875 1.12890625 4 3 C4.390625 5.91796875 4.390625 5.91796875 4.25 9.1875 C4.21390625 10.27417969 4.1778125 11.36085938 4.140625 12.48046875 C4.07101563 13.72763672 4.07101563 13.72763672 4 15 C4.70511719 14.83628906 5.41023438 14.67257812 6.13671875 14.50390625 C9.09658688 13.98300176 11.81061273 13.90133268 14.8125 13.9375 C16.27623047 13.95103516 16.27623047 13.95103516 17.76953125 13.96484375 C18.87361328 13.98224609 18.87361328 13.98224609 20 14 C20 14.33 20 14.66 20 15 C19.30132812 15.02578125 18.60265625 15.0515625 17.8828125 15.078125 C16.97273438 15.13484375 16.06265625 15.1915625 15.125 15.25 C14.22007812 15.29640625 13.31515625 15.3428125 12.3828125 15.390625 C9.82889456 15.75611148 9.82889456 15.75611148 8.6796875 18.046875 C8.34324219 19.01367188 8.34324219 19.01367188 8 20 C8 19.01 8 18.02 8 17 C7.01 17 6.02 17 5 17 C4.67 18.65 4.34 20.3 4 22 C2.68 22 1.36 22 0 22 C-0.04898438 21.00097656 -0.09796875 20.00195312 -0.1484375 18.97265625 C-0.22320312 17.68230469 -0.29796875 16.39195312 -0.375 15.0625 C-0.44460937 13.77472656 -0.51421875 12.48695313 -0.5859375 11.16015625 C-0.72257813 10.11730469 -0.85921875 9.07445312 -1 8 C-1.66 7.67 -2.32 7.34 -3 7 C-3.99 7.66 -4.98 8.32 -6 9 C-8.96076291 8.64111965 -9.84658021 8.15341979 -12 6 C-8.12205182 0.95866737 -6.49159834 -0.51932787 0 0 Z " fill="#E7BB40" transform="translate(248,270)"/>
<path d="M0 0 C6.75 0.875 6.75 0.875 9 2 C9 2.66 9 3.32 9 4 C9.66 4.33 10.32 4.66 11 5 C10.01 6.485 10.01 6.485 9 8 C12.96 8 16.92 8 21 8 C21 8.33 21 8.66 21 9 C-0.53191489 11.38297872 -0.53191489 11.38297872 -11 11 C-12 9 -12 9 -12 4 C-6.06 3.505 -6.06 3.505 0 3 C0 2.01 0 1.02 0 0 Z " fill="#E3D1BE" transform="translate(204,293)"/>
<path d="M0 0 C0 0.33 0 0.66 0 1 C-8.31125838 2.80969243 -16.38506087 3.37124313 -24.875 3.5625 C-27.24749303 3.6225793 -29.61989873 3.6862403 -31.9921875 3.75390625 C-33.02714355 3.77783447 -34.06209961 3.8017627 -35.12841797 3.82641602 C-37.94653419 3.92658336 -37.94653419 3.92658336 -40.44580078 4.51367188 C-43.63708761 5.12130362 -46.62719961 5.0760171 -49.875 5.02734375 C-51.84726563 5.00897461 -51.84726563 5.00897461 -53.859375 4.99023438 C-55.93303031 4.96541931 -58.00654175 4.93739481 -60.08007812 4.90405273 C-62.09493766 4.87373435 -64.10998234 4.85663556 -66.125 4.83984375 C-67.32382813 4.82300537 -68.52265625 4.80616699 -69.7578125 4.78881836 C-72.94966125 4.99672116 -75.13361702 5.62934163 -78 7 C-78.66 6.34 -79.32 5.68 -80 5 C-76.26255476 2.43170498 -73.67967244 1.60499557 -69.16259766 1.47583008 C-67.43391953 1.41610771 -67.43391953 1.41610771 -65.6703186 1.35517883 C-64.43075409 1.32691513 -63.19118958 1.29865143 -61.9140625 1.26953125 C-60.62494965 1.229384 -59.33583679 1.18923676 -58.00765991 1.14787292 C-54.57780699 1.04151153 -51.14770873 0.95254296 -47.71728516 0.86688232 C-44.95858821 0.79517874 -42.20032429 0.71141922 -39.44199562 0.62686634 C-26.2909481 0.22444514 -13.1571202 -0.05535499 0 0 Z " fill="#EFD5A7" transform="translate(238,130)"/>
<path d="M0 0 C4.78745777 2.48947804 7.78649181 5.06217403 10 10 C10.32428683 14.68646773 10.23125266 19.31071004 10 24 C8.35 23.67 6.7 23.34 5 23 C4.96132812 22.02160156 4.96132812 22.02160156 4.921875 21.0234375 C4.54110432 15.15610754 3.90341724 11.47744918 0 7 C-0.99 6.67 -1.98 6.34 -3 6 C-3 5.34 -3 4.68 -3 4 C-4.98 4 -6.96 4 -9 4 C-8.67 3.01 -8.34 2.02 -8 1 C-5.13391871 -0.43304064 -3.18699217 -0.30644155 0 0 Z " fill="#120C0D" transform="translate(152,175)"/>
<path d="M0 0 C2.475 0.495 2.475 0.495 5 1 C5.33 2.32 5.66 3.64 6 5 C7.98 5 9.96 5 12 5 C12.66 3.68 13.32 2.36 14 1 C15.98 1 17.96 1 20 1 C19.73991338 4.72790821 19.15299098 6.78007546 17 9.875 C13.45810092 12.38384518 11.41708976 12.7434179 7.16015625 12.48046875 C3.49753176 11.66581629 2.02822207 10.07504636 0 7 C-0.3125 3.1875 -0.3125 3.1875 0 0 Z " fill="#897F74" transform="translate(166,231)"/>
<path d="M0 0 C0.66 0 1.32 0 2 0 C2.62164966 5.33690419 3.22751214 10.67527681 3.81884766 16.015625 C4.02220223 17.83186998 4.22985383 19.64763922 4.44189453 21.46289062 C4.74603636 24.07308432 5.03465499 26.68460193 5.3203125 29.296875 C5.41813019 30.10743347 5.51594788 30.91799194 5.61672974 31.75311279 C6.35132424 38.71585532 6.35132424 38.71585532 4 42 C3.01 42 2.02 42 1 42 C0.29852167 38.58604938 -0.38372236 35.16853031 -1.0625 31.75 C-1.26166016 30.78191406 -1.46082031 29.81382812 -1.66601562 28.81640625 C-1.84970703 27.88183594 -2.03339844 26.94726562 -2.22265625 25.984375 C-2.48187866 24.69611816 -2.48187866 24.69611816 -2.74633789 23.38183594 C-3.00554788 20.94790649 -2.75084609 19.31101537 -2 17 C-1.34 18.65 -0.68 20.3 0 22 C0.33 22 0.66 22 1 22 C1.12515181 14.61604326 0.63661781 7.35520932 0 0 Z " fill="#221D1D" transform="translate(244,295)"/>
<path d="M0 0 C0.99 0 1.98 0 3 0 C3.33 0.99 3.66 1.98 4 3 C4.66 3.66 5.32 4.32 6 5 C6.75770024 7.67423615 7.4208089 10.28856557 8 13 C8.20625 13.928125 8.4125 14.85625 8.625 15.8125 C9.18111196 20.53945165 9.07612661 25.24631585 9 30 C8.01 29.67 7.02 29.34 6 29 C4.95500486 26.37543127 4.12565897 23.89710406 3.375 21.1875 C3.15626221 20.42445557 2.93752441 19.66141113 2.7121582 18.87524414 C0.99846082 12.62054381 0.13762031 6.49317638 0 0 Z " fill="#0C0708" transform="translate(237,289)"/>
<path d="M0 0 C5.84546872 0 8.97648821 3.00313336 13.01171875 6.828125 C17.95683053 12.22985811 19.04814612 18.87437447 19 26 C18.0625 29.125 18.0625 29.125 17 31 C16.67 31 16.34 31 16 31 C16 29.35 16 27.7 16 26 C15.34 26 14.68 26 14 26 C13.34 20.06 12.68 14.12 12 8 C11.34 8 10.68 8 10 8 C9.67 7.34 9.34 6.68 9 6 C7.35636866 5.27840576 5.68949614 4.60648579 4 4 C4 3.34 4 2.68 4 2 C2.68 1.34 1.36 0.68 0 0 Z " fill="#F1E4CE" transform="translate(215,169)"/>
<path d="M0 0 C8.93684906 -0.06983357 17.87360266 -0.12297929 26.81066608 -0.15543652 C30.96152266 -0.1710226 35.11219111 -0.19213005 39.26293945 -0.22631836 C43.27651478 -0.25916598 47.28991036 -0.27690593 51.30360985 -0.28463173 C52.82685356 -0.29013005 54.35008862 -0.30086553 55.87325478 -0.31719017 C64.66195731 -0.40754754 72.63520525 0.04765796 81 3 C77.48102093 4.17299302 75.06119164 3.92741483 71.375 3.625 C70.20710938 3.53476563 69.03921875 3.44453125 67.8359375 3.3515625 C65 3 65 3 64 2 C62.0064857 1.87630675 60.0086353 1.8220361 58.01147461 1.79467773 C56.73022202 1.77473251 55.44896942 1.75478729 54.12889099 1.73423767 C52.72004316 1.71725203 51.31119405 1.70037327 49.90234375 1.68359375 C48.46887095 1.66303085 47.03540431 1.64203456 45.60194397 1.62062073 C41.8224688 1.56533141 38.0429383 1.51595255 34.2633667 1.46777344 C30.40925145 1.41760835 26.55521691 1.36189629 22.70117188 1.30664062 C15.13418286 1.19897521 7.5671269 1.09754903 0 1 C0 0.67 0 0.34 0 0 Z " fill="#E45D17" transform="translate(171,120)"/>
<path d="M0 0 C0.66 0 1.32 0 2 0 C2 4.95 2 9.9 2 15 C-1.96 15 -5.92 15 -10 15 C-8 11 -8 11 -6.4375 9.5625 C-4.54736879 7.50800956 -4.3675753 5.72005723 -4 3 C-3.01 2.67 -2.02 2.34 -1 2 C-0.67 1.34 -0.34 0.68 0 0 Z " fill="#DFCCB8" transform="translate(215,274)"/>
<path d="M0 0 C3.02089478 -0.02716089 6.04154129 -0.04691657 9.0625 -0.0625 C9.91005859 -0.07087891 10.75761719 -0.07925781 11.63085938 -0.08789062 C16.5361722 -0.10683006 21.16444755 0.16673655 26 1 C26 1.33 26 1.66 26 2 C24.02 2 22.04 2 20 2 C20 2.99 20 3.98 20 5 C12.41 4.34 4.82 3.68 -3 3 C-2.01 2.67 -1.02 2.34 0 2 C0 1.34 0 0.68 0 0 Z " fill="#8F8782" transform="translate(225,115)"/>
<path d="M0 0 C0.76978683 0.00424484 1.53957367 0.00848969 2.33268738 0.01286316 C4.77814521 0.02958278 7.22276232 0.06722105 9.66796875 0.10546875 C11.33136826 0.12052434 12.99478076 0.13421121 14.65820312 0.14648438 C18.72427957 0.1794641 22.78973188 0.23119869 26.85546875 0.29296875 C26.85546875 0.62296875 26.85546875 0.95296875 26.85546875 1.29296875 C22.71612851 2.06296129 18.74642696 2.4447896 14.5390625 2.5390625 C12.7746582 2.58836914 12.7746582 2.58836914 10.97460938 2.63867188 C8.51637255 2.69996478 6.05803243 2.75724421 3.59960938 2.81054688 C2.42462891 2.84470703 1.24964844 2.87886719 0.0390625 2.9140625 C-1.02771729 2.93911865 -2.09449707 2.9641748 -3.19360352 2.98999023 C-6.18776058 3.2974072 -8.42450426 4.03648406 -11.14453125 5.29296875 C-11.80453125 4.63296875 -12.46453125 3.97296875 -13.14453125 3.29296875 C-8.85712997 0.10225896 -5.16306022 -0.10806528 0 0 Z " fill="#EBCB9A" transform="translate(171.14453125,131.70703125)"/>
<path d="M0 0 C4.29 0 8.58 0 13 0 C12.01 0.33 11.02 0.66 10 1 C10 3.31 10 5.62 10 8 C9.01 7.67 8.02 7.34 7 7 C7 6.01 7 5.02 7 4 C6.01 4 5.02 4 4 4 C4 4.66 4 5.32 4 6 C1.03 6 -1.94 6 -5 6 C-4.360625 5.566875 -3.72125 5.13375 -3.0625 4.6875 C-0.73253997 3.08760823 -0.73253997 3.08760823 0 0 Z " fill="#A79C90" transform="translate(233,285)"/>
<path d="M0 0 C0.99 0.495 0.99 0.495 2 1 C2 1.66 2 2.32 2 3 C2.66 3.33 3.32 3.66 4 4 C6.20731737 7.31097606 6.17754126 10.09409237 6 14 C7.65 14.33 9.3 14.66 11 15 C11.66 16.98 12.32 18.96 13 21 C12.50628906 21.48210937 12.01257813 21.96421875 11.50390625 22.4609375 C10.86324219 23.09257812 10.22257813 23.72421875 9.5625 24.375 C8.92441406 25.00148437 8.28632813 25.62796875 7.62890625 26.2734375 C5.92117824 27.91723061 5.92117824 27.91723061 5 30 C4.34 30 3.68 30 3 30 C3.66 27.36 4.32 24.72 5 22 C6.98 21.67 8.96 21.34 11 21 C10.29660434 18.49034386 10.29660434 18.49034386 9 16 C8.34773437 15.86851562 7.69546875 15.73703125 7.0234375 15.6015625 C6.35570312 15.40304688 5.68796875 15.20453125 5 15 C4.0234375 13.14453125 4.0234375 13.14453125 3.375 10.8125 C3.13910156 10.00554687 2.90320313 9.19859375 2.66015625 8.3671875 C2.44230469 7.58601562 2.22445312 6.80484375 2 6 C1.608125 4.824375 1.21625 3.64875 0.8125 2.4375 C0.544375 1.633125 0.27625 0.82875 0 0 Z " fill="#DFC49B" transform="translate(235,173)"/>
<path d="M0 0 C0.99 0.33 1.98 0.66 3 1 C3 1.66 3 2.32 3 3 C4.98 3.66 6.96 4.32 9 5 C9 5.66 9 6.32 9 7 C9.66 7 10.32 7 11 7 C12.1577506 10.47325181 12.06866652 13.36067448 12 17 C11.7525 16.443125 11.505 15.88625 11.25 15.3125 C8.61619852 10.43996727 6.29212127 7.72865852 1 6 C-0.92903132 5.7240522 -2.8689032 5.51550097 -4.8125 5.375 C-5.78832031 5.30023438 -6.76414063 5.22546875 -7.76953125 5.1484375 C-8.50558594 5.09945312 -9.24164063 5.05046875 -10 5 C-10 4.67 -10 4.34 -10 4 C-6.7 4 -3.4 4 0 4 C0 2.68 0 1.36 0 0 Z " fill="#D8CEC4" transform="translate(216,170)"/>
<path d="M0 0 C0.99 0.66 1.98 1.32 3 2 C3.29296875 5.2578125 3.29296875 5.2578125 3.1875 9.125 C3.16042969 10.40632813 3.13335937 11.68765625 3.10546875 13.0078125 C3.07066406 13.99523437 3.03585938 14.98265625 3 16 C4.32 16 5.64 16 7 16 C7.33 15.01 7.66 14.02 8 13 C8 14.32 8 15.64 8 17 C5.66705225 17.04241723 3.33297433 17.04092937 1 17 C0 16 0 16 -0.0625 13.4375 C-0.041875 12.633125 -0.02125 11.82875 0 11 C-0.66 10.67 -1.32 10.34 -2 10 C-1.01 10 -0.02 10 1 10 C0.67 9.01 0.34 8.02 0 7 C0.4375 4.3125 0.4375 4.3125 1 2 C0.34 2 -0.32 2 -1 2 C-1 2.66 -1 3.32 -1 4 C-3.64 4 -6.28 4 -9 4 C-9 3.01 -9 2.02 -9 1 C-8.071875 1.20625 -7.14375 1.4125 -6.1875 1.625 C-2.84826598 2.36692966 -2.84826598 2.36692966 0 0 Z " fill="#A27E48" transform="translate(245,276)"/>
<path d="M0 0 C0.66 0 1.32 0 2 0 C2.33 1.32 2.66 2.64 3 4 C5.97 4.33 8.94 4.66 12 5 C12 5.33 12 5.66 12 6 C8.9378174 6.19533059 5.87553679 6.38153284 2.8125 6.5625 C1.51602539 6.64661133 1.51602539 6.64661133 0.19335938 6.73242188 C-4.04749079 6.9761489 -7.85797819 7.15770796 -12 6 C-12 5.34 -12 4.68 -12 4 C-7.59085217 2.89771304 -3.51617599 2.92345464 1 3 C0.67 2.01 0.34 1.02 0 0 Z " fill="#A69C91" transform="translate(216,286)"/>
<path d="M0 0 C-0.60636233 5.76044212 -2.75658279 10.72014369 -5 16 C-5.33 16 -5.66 16 -6 16 C-6 13.03 -6 10.06 -6 7 C-5.34 7 -4.68 7 -4 7 C-4 6.01 -4 5.02 -4 4 C-7.96 4 -11.92 4 -16 4 C-16 3.67 -16 3.34 -16 3 C-13.70887834 2.49750857 -11.41708499 1.99807883 -9.125 1.5 C-7.84882813 1.2215625 -6.57265625 0.943125 -5.2578125 0.65625 C-2 0 -2 0 0 0 Z " fill="#E6D4C3" transform="translate(270,131)"/>
<path d="M0 0 C2.44819157 4.89638314 -1.44497669 13.20330398 -2.98828125 18.19921875 C-5.74451446 26.16994723 -5.74451446 26.16994723 -9 29 C-9.66 28.67 -10.32 28.34 -11 28 C-10.33677734 27.19949219 -10.33677734 27.19949219 -9.66015625 26.3828125 C-4.92594341 19.58782466 -2.66505049 10.92331303 -1.359375 2.828125 C-1 1 -1 1 0 0 Z " fill="#EEE5DC" transform="translate(87,151)"/>
<path d="M0 0 C0.33 0 0.66 0 1 0 C0.67 3.63 0.34 7.26 0 11 C-1.65 11.33 -3.3 11.66 -5 12 C-5.33 9.69 -5.66 7.38 -6 5 C-4.35 4.67 -2.7 4.34 -1 4 C-0.67 2.68 -0.34 1.36 0 0 Z " fill="#DDBC75" transform="translate(252,339)"/>
<path d="M0 0 C3.36720387 1.39332574 4.9859524 2.9789286 7 6 C5.74821404 8.50357192 4.00018842 10.06433379 2 12 C0.00214565 7.8794254 -0.17835515 4.54805635 0 0 Z " fill="#1B1414" transform="translate(220,177)"/>
<path d="M0 0 C0.66 0 1.32 0 2 0 C1.67 3.63 1.34 7.26 1 11 C-1.31 10.67 -3.62 10.34 -6 10 C-5.1875 6.5625 -5.1875 6.5625 -4 3 C-3.01 2.67 -2.02 2.34 -1 2 C-0.67 1.34 -0.34 0.68 0 0 Z " fill="#D1BFAD" transform="translate(215,274)"/>
<path d="M0 0 C3.16417672 1.53773074 6.2132349 3.22411398 9.25 5 C10.14203125 5.515625 11.0340625 6.03125 11.953125 6.5625 C12.96632813 7.2740625 12.96632813 7.2740625 14 8 C14 8.66 14 9.32 14 10 C12.02 10 10.04 10 8 10 C7.71125 9.360625 7.4225 8.72125 7.125 8.0625 C6.17176549 5.84793921 6.17176549 5.84793921 4 5 C2.62657169 4.9310528 1.24997898 4.91532292 -0.125 4.9375 C-2.043125 4.9684375 -2.043125 4.9684375 -4 5 C-3.67 4.34 -3.34 3.68 -3 3 C-0.9375 2.375 -0.9375 2.375 1 2 C0.67 1.34 0.34 0.68 0 0 Z " fill="#D3BF9D" transform="translate(244,266)"/>
<path d="M0 0 C0.33 0 0.66 0 1 0 C1 5.61 1 11.22 1 17 C1.66 17 2.32 17 3 17 C2.67 18.32 2.34 19.64 2 21 C-1.70607863 14.41495042 -2.64144051 9.42155579 -1 2 C-0.67 1.34 -0.34 0.68 0 0 Z " fill="#F8E7C6" transform="translate(190,182)"/>
<path d="M0 0 C0 0.33 0 0.66 0 1 C-1.010625 1.103125 -2.02125 1.20625 -3.0625 1.3125 C-12.20877594 2.90946881 -17.70270078 7.6268297 -24 14 C-22.63763567 8.38024715 -18.48562268 5.27146917 -14 2 C-9.27093351 -0.26601103 -5.14382996 -0.17737345 0 0 Z " fill="#F8E7C4" transform="translate(215,168)"/>
<path d="M0 0 C2 1 2 1 3 2 C3.66 1.34 4.32 0.68 5 0 C5 0.66 5 1.32 5 2 C5.66 2 6.32 2 7 2 C7.33 1.34 7.66 0.68 8 0 C9.32 0.33 10.64 0.66 12 1 C11.67 1.99 11.34 2.98 11 4 C5.06 4.495 5.06 4.495 -1 5 C-0.67 3.35 -0.34 1.7 0 0 Z " fill="#DCC8B4" transform="translate(200,298)"/>
<path d="M0 0 C5.83588819 0 9.00941119 3.00435092 13.07421875 6.7890625 C15.71805707 9.82438195 16.42511618 12.05793949 17 16 C13.71245925 14.35622962 13.12314476 11.36943428 12 8 C11.34 8 10.68 8 10 8 C9.67 7.34 9.34 6.68 9 6 C7.35636866 5.27840576 5.68949614 4.60648579 4 4 C4 3.34 4 2.68 4 2 C2.68 1.34 1.36 0.68 0 0 Z " fill="#F8E7C6" transform="translate(215,169)"/>
<path d="M0 0 C1.98 0 3.96 0 6 0 C6.38133299 1.9914056 6.71325582 3.99279077 7 6 C6 7 6 7 3.4375 7.0625 C2.2309375 7.0315625 2.2309375 7.0315625 1 7 C0.67 4.69 0.34 2.38 0 0 Z " fill="#594F47" transform="translate(245,337)"/>
<path d="M0 0 C0.99 0 1.98 0 3 0 C3.125 7.625 3.125 7.625 2 11 C1.01 10.67 0.02 10.34 -1 10 C-1.125 2.25 -1.125 2.25 0 0 Z " fill="#0B0607" transform="translate(253,314)"/>
<path d="M0 0 C0 0.66 0 1.32 0 2 C-0.66 2 -1.32 2 -2 2 C-1.67 3.65 -1.34 5.3 -1 7 C-4 7 -4 7 -7 6 C-8.1875 3.4375 -8.1875 3.4375 -9 1 C-5.94152152 0.45627049 -3.11227195 0 0 0 Z " fill="#E2CDB1" transform="translate(223,218)"/>
<path d="M0 0 C1.13566406 -0.01417969 2.27132812 -0.02835938 3.44140625 -0.04296875 C6.4375 0.1875 6.4375 0.1875 9.4375 2.1875 C7.91769531 2.17009766 7.91769531 2.17009766 6.3671875 2.15234375 C5.01562686 2.14295791 3.6640642 2.13385857 2.3125 2.125 C1.64734375 2.11662109 0.9821875 2.10824219 0.296875 2.09960938 C-3.76931354 2.07967708 -7.5745092 2.39859839 -11.5625 3.1875 C-11.8925 4.1775 -12.2225 5.1675 -12.5625 6.1875 C-13.8825 5.8575 -15.2025 5.5275 -16.5625 5.1875 C-10.65212321 1.0233709 -7.17729357 0.04082647 0 0 Z " fill="#E8BB63" transform="translate(210.5625,161.8125)"/>
<path d="M0 0 C2.97 0 5.94 0 9 0 C9.33 0.66 9.66 1.32 10 2 C10.99 2.66 11.98 3.32 13 4 C7.72 3.67 2.44 3.34 -3 3 C-2.01 2.67 -1.02 2.34 0 2 C0 1.34 0 0.68 0 0 Z " fill="#8C8078" transform="translate(225,115)"/>
<path d="M0 0 C0.33 0.66 0.66 1.32 1 2 C0.67 2.99 0.34 3.98 0 5 C-0.66 5 -1.32 5 -2 5 C-2 5.7425 -2 6.485 -2 7.25 C-3.20665714 10.56830714 -3.98992519 10.80059811 -7.0625 12.3125 C-8.36728944 12.89266121 -9.67773548 13.46085342 -11 14 C-11 13.01 -11 12.02 -11 11 C-10.01 10.67 -9.02 10.34 -8 10 C-6.99357052 8.67151309 -5.99307821 7.33849671 -5 6 C-4.34 6 -3.68 6 -3 6 C-2.690625 5.195625 -2.38125 4.39125 -2.0625 3.5625 C-1 1 -1 1 0 0 Z " fill="#E3C185" transform="translate(235,205)"/>
<path d="M0 0 C-3.96 3.465 -3.96 3.465 -8 7 C-8.66 5.68 -9.32 4.36 -10 3 C-8 0 -8 0 -6.125 -0.75 C-4 -1 -4 -1 0 0 Z " fill="#DECAB7" transform="translate(242,154)"/>
<path d="M0 0 C2.54194161 0.14188985 5.08347993 0.28839155 7.625 0.4375 C8.69427734 0.49647461 8.69427734 0.49647461 9.78515625 0.55664062 C13.91803682 0.80309681 17.92269024 1.23470053 22 2 C22 2.33 22 2.66 22 3 C16.06 3.495 16.06 3.495 10 4 C10 3.34 10 2.68 10 2 C6.7 1.67 3.4 1.34 0 1 C0 0.67 0 0.34 0 0 Z " fill="#B7ABA0" transform="translate(213,112)"/>
<path d="M0 0 C0.99 0.66 1.98 1.32 3 2 C3.1875 5.125 3.1875 5.125 3 8 C2.01 8 1.02 8 0 8 C0.33 6.02 0.66 4.04 1 2 C0.34 2 -0.32 2 -1 2 C-1 2.66 -1 3.32 -1 4 C-3.64 4 -6.28 4 -9 4 C-9 3.01 -9 2.02 -9 1 C-8.071875 1.20625 -7.14375 1.4125 -6.1875 1.625 C-2.84826598 2.36692966 -2.84826598 2.36692966 0 0 Z " fill="#A66F4F" transform="translate(245,276)"/>
<path d="M0 0 C3 1 3 1 4.1875 3.1875 C5.07334979 6.25390311 5.14770318 8.82438155 5 12 C2.26629955 9.63907689 1.08902355 7.43461272 0 4 C0 2.68 0 1.36 0 0 Z " fill="#EBE1D6" transform="translate(64,247)"/>
<path d="M0 0 C-0.33 0.99 -0.66 1.98 -1 3 C-5.455 3.495 -5.455 3.495 -10 4 C-10.33 3.01 -10.66 2.02 -11 1 C-7.26562152 0.12132271 -3.83225427 -0.08912219 0 0 Z " fill="#B6AC99" transform="translate(215,289)"/>
<path d="M0 0 C0.33 0 0.66 0 1 0 C0.22095672 11.52164009 0.22095672 11.52164009 -2 17 C-2.33 17 -2.66 17 -3 17 C-3.04241723 14.66705225 -3.04092937 12.33297433 -3 10 C-2.67 9.67 -2.34 9.34 -2 9 C-2.020625 7.865625 -2.04125 6.73125 -2.0625 5.5625 C-2 2 -2 2 0 0 Z " fill="#B5AEA7" transform="translate(335,216)"/>
<path d="M0 0 C0.99 0 1.98 0 3 0 C3.33 0.99 3.66 1.98 4 3 C4.66 3.66 5.32 4.32 6 5 C5.34 5 4.68 5 4 5 C4 5.66 4 6.32 4 7 C3.34 7 2.68 7 2 7 C2 8.65 2 10.3 2 12 C1.67 12 1.34 12 1 12 C0.67 8.04 0.34 4.08 0 0 Z " fill="#251F1E" transform="translate(237,289)"/>
<path d="M0 0 C0.66 0 1.32 0 2 0 C2 4.29 2 8.58 2 13 C1.34 13 0.68 13 0 13 C-0.83796731 8.34462607 -1.0161692 4.62921525 0 0 Z " fill="#DED5CB" transform="translate(191,186)"/>
<path d="M0 0 C1.89666526 0.08772455 3.79238993 0.19591301 5.6875 0.3125 C7.27111328 0.39951172 7.27111328 0.39951172 8.88671875 0.48828125 C12.27899086 1.04585672 14.29656368 1.88841059 17 4 C17 4.99 17 5.98 17 7 C16.34 7 15.68 7 15 7 C14.67 6.34 14.34 5.68 14 5 C11.79007734 4.16007109 11.79007734 4.16007109 9.1875 3.5 C5.90525516 2.60792755 2.99596938 1.62019789 0 0 Z " fill="#9C7258" transform="translate(241,120)"/>
<path d="M0 0 C0.66 0 1.32 0 2 0 C1.67 1.32 1.34 2.64 1 4 C-1.64680904 3.88660796 -4.29177518 3.75987127 -6.9375 3.625 C-7.69224609 3.5940625 -8.44699219 3.563125 -9.22460938 3.53125 C-11.15507395 3.4273685 -13.07942081 3.22104386 -15 3 C-15.33 2.34 -15.66 1.68 -16 1 C-14.92878906 1.01160156 -13.85757813 1.02320313 -12.75390625 1.03515625 C-11.35677257 1.04453299 -9.95963701 1.05363331 -8.5625 1.0625 C-7.85544922 1.07087891 -7.14839844 1.07925781 -6.41992188 1.08789062 C-4.61306441 1.09653588 -2.80612397 1.05220011 -1 1 C-0.67 0.67 -0.34 0.34 0 0 Z " fill="#9D948D" transform="translate(163,347)"/>
<path d="M0 0 C0.969375 0.185625 1.93875 0.37125 2.9375 0.5625 C3.948125 0.706875 4.95875 0.85125 6 1 C6.33 0.67 6.66 0.34 7 0 C8.51928038 -0.07179964 10.04167482 -0.08392007 11.5625 -0.0625 C12.38878906 -0.05347656 13.21507812 -0.04445312 14.06640625 -0.03515625 C14.70449219 -0.02355469 15.34257812 -0.01195312 16 0 C13.07248407 1.95167729 11.9152711 2.36553384 8.5625 2.75 C7.80066406 2.84796875 7.03882813 2.9459375 6.25390625 3.046875 C3.66902511 2.99311664 2.20359151 2.30508837 0 1 C0 0.67 0 0.34 0 0 Z " fill="#F6E6C5" transform="translate(204,211)"/>
<path d="M0 0 C1.38232443 1.62626404 2.71937515 3.2925002 4 5 C2.02 5.33 0.04 5.66 -2 6 C-2.33 5.34 -2.66 4.68 -3 4 C-3.66 3.67 -4.32 3.34 -5 3 C-2.25 0 -2.25 0 0 0 Z " fill="#C6BAAE" transform="translate(177,221)"/>
<path d="M0 0 C0.66 0.33 1.32 0.66 2 1 C2 2.65 2 4.3 2 6 C0.68 6 -0.64 6 -2 6 C-2.33 4.35 -2.66 2.7 -3 1 C-2.01 0.67 -1.02 0.34 0 0 Z " fill="#8B847D" transform="translate(274,276)"/>
<path d="M0 0 C0.66 1.32 1.32 2.64 2 4 C0.26043342 5.73956658 -2.1936622 5.37190386 -4.5625 5.5625 C-6.08037109 5.68818359 -6.08037109 5.68818359 -7.62890625 5.81640625 C-8.41136719 5.87699219 -9.19382813 5.93757813 -10 6 C-10 5.34 -10 4.68 -10 4 C-6.7 3.67 -3.4 3.34 0 3 C0 2.01 0 1.02 0 0 Z " fill="#CEBDAB" transform="translate(228,267)"/>
<path d="M0 0 C0.99 0.33 1.98 0.66 3 1 C2.34 3.64 1.68 6.28 1 9 C-0.32 7.68 -1.64 6.36 -3 5 C-2.01 3.35 -1.02 1.7 0 0 Z " fill="#E0CCB7" transform="translate(217,265)"/>
<path d="M0 0 C2.475 0.495 2.475 0.495 5 1 C5.33 2.32 5.66 3.64 6 5 C5.67 4.34 5.34 3.68 5 3 C4.01 3 3.02 3 2 3 C1.34 4.32 0.68 5.64 0 7 C0 4.69 0 2.38 0 0 Z " fill="#91877D" transform="translate(166,231)"/>
<path d="M0 0 C0.99 0.33 1.98 0.66 3 1 C2.67 4.3 2.34 7.6 2 11 C1.67 11 1.34 11 1 11 C0.67 8.69 0.34 6.38 0 4 C-0.99 4 -1.98 4 -3 4 C-2.01 2.68 -1.02 1.36 0 0 Z " fill="#665F5C" transform="translate(259,288)"/>
<path d="M0 0 C0.99 0.495 0.99 0.495 2 1 C2 1.66 2 2.32 2 3 C2.66 3.33 3.32 3.66 4 4 C5.96808719 7.06146896 6.19990835 9.40164967 6 13 C4.43926745 10.65890118 3.13626133 8.43666597 1.875 5.9375 C1.34519531 4.89916016 1.34519531 4.89916016 0.8046875 3.83984375 C0 2 0 2 0 0 Z " fill="#DDC59E" transform="translate(235,173)"/>
<path d="M0 0 C0 0.33 0 0.66 0 1 C-1.65 1 -3.3 1 -5 1 C-5 1.66 -5 2.32 -5 3 C-6.375 4.625 -6.375 4.625 -8 6 C-8.66 6 -9.32 6 -10 6 C-10 5.34 -10 4.68 -10 4 C-10.66 3.67 -11.32 3.34 -12 3 C-7.77050005 0.58314288 -4.87664009 -0.34833144 0 0 Z " fill="#D6C5B3" transform="translate(216,156)"/>
<path d="M0 0 C0.66 1.32 1.32 2.64 2 4 C0.02 4.33 -1.96 4.66 -4 5 C-4 3.68 -4 2.36 -4 1 C-2.68 0.67 -1.36 0.34 0 0 Z " fill="#877464" transform="translate(95,124)"/>
<path d="M0 0 C0.33 0 0.66 0 1 0 C1.25028811 1.58013217 1.47440946 3.16442306 1.6875 4.75 C1.87892578 6.07257813 1.87892578 6.07257813 2.07421875 7.421875 C1.98397191 10.55676517 1.07384637 11.71823587 -1 14 C-1.18451025 4.58997722 -1.18451025 4.58997722 0 0 Z " fill="#231E1F" transform="translate(248,323)"/>
<path d="M0 0 C2.625 -0.1875 2.625 -0.1875 5 0 C5.33 0.99 5.66 1.98 6 3 C3.36 3 0.72 3 -2 3 C-1.34 2.01 -0.68 1.02 0 0 Z " fill="#EFE6DA" transform="translate(111,135)"/>
<path d="M0 0 C3.63 0 7.26 0 11 0 C11 0.33 11 0.66 11 1 C8.36 1.33 5.72 1.66 3 2 C3 2.99 3 3.98 3 5 C2.01 4.67 1.02 4.34 0 4 C0 2.68 0 1.36 0 0 Z " fill="#ED5A0F" transform="translate(155,121)"/>
<path d="M0 0 C0.66 0.33 1.32 0.66 2 1 C2 1.66 2 2.32 2 3 C0.68 2.67 -0.64 2.34 -2 2 C-1.34 1.34 -0.68 0.68 0 0 Z M-4 2 C-3.01 2.99 -2.02 3.98 -1 5 C-1.99 5.33 -2.98 5.66 -4 6 C-4.66 5.34 -5.32 4.68 -6 4 C-5.34 3.34 -4.68 2.68 -4 2 Z " fill="#EAD9CA" transform="translate(174,225)"/>
<path d="M0 0 C1.32 0 2.64 0 4 0 C4 1.98 4 3.96 4 6 C3.01 5.67 2.02 5.34 1 5 C0.67 3.35 0.34 1.7 0 0 Z " fill="#8D8278" transform="translate(239,287)"/>
<path d="M0 0 C0.66 0.33 1.32 0.66 2 1 C0.1875 3.5 0.1875 3.5 -2 6 C-2.99 6 -3.98 6 -5 6 C-4.67 4.68 -4.34 3.36 -4 2 C-3.01 2 -2.02 2 -1 2 C-0.67 1.34 -0.34 0.68 0 0 Z " fill="#D5C0A3" transform="translate(238,271)"/>
<path d="M0 0 C1.98 0.66 3.96 1.32 6 2 C6 2.66 6 3.32 6 4 C4.02 4 2.04 4 0 4 C0 2.68 0 1.36 0 0 Z " fill="#C7B6A0" transform="translate(252,272)"/>
<path d="M0 0 C0 1.98 0 3.96 0 6 C-0.99 6.33 -1.98 6.66 -3 7 C-3 5.02 -3 3.04 -3 1 C-1 0 -1 0 0 0 Z " fill="#E0CCB7" transform="translate(221,240)"/>
<path d="M0 0 C-3.13498292 1.85776765 -5.37471432 2.20140476 -9 2 C-8 0 -8 0 -6.1875 -0.6875 C-3.81180233 -1.02688538 -2.26664171 -0.72856341 0 0 Z M-6 2 C-4 3 -4 3 -4 3 Z " fill="#CDBFB0" transform="translate(242,154)"/>
<path d="M0 0 C1.65 0 3.3 0 5 0 C5 0.66 5 1.32 5 2 C4.34 2 3.68 2 3 2 C3 2.66 3 3.32 3 4 C1.68 3.67 0.36 3.34 -1 3 C-0.67 2.01 -0.34 1.02 0 0 Z " fill="#A39D98" transform="translate(207,153)"/>
</svg>
