<?xml version="1.0" encoding="UTF-8"?>
<svg version="1.1" xmlns="http://www.w3.org/2000/svg" width="360" height="360">
<path d="M0 0 C2.625 2.375 2.625 2.375 5 5 C5.928125 5.928125 6.85625 6.85625 7.8125 7.8125 C8.534375 8.534375 9.25625 9.25625 10 10 C10.33 9.67 10.66 9.34 11 9 C16.26158241 8.70220012 21.5430005 8.75453675 26.8125 8.75 C27.61332001 8.74899292 28.41414001 8.74798584 29.23922729 8.74694824 C115.40470267 8.8195851 115.40470267 8.8195851 134.5 27.4375 C136.40137247 30.68567797 136.44581993 32.26682095 136 36 C134.50794917 38.33513199 133.08645408 40.285162 131.3125 42.375 C130.38956576 43.51893221 129.46897428 44.66475871 128.55078125 45.8125 C127.8868335 46.63427734 127.8868335 46.63427734 127.20947266 47.47265625 C122.02039219 54.02552008 118.60126523 60.36134322 119.125 68.9375 C119.74797645 73.95976692 121.4932574 77.63341611 124 82 C126.66539655 81.5296359 129.05700349 80.97757805 131.58203125 79.984375 C144.14004558 76.36766687 159.48834942 78.3108759 170.80078125 84.54296875 C176.43916921 88.19330288 180.51368108 92.27619281 184 98 C184.69416016 99.12535156 184.69416016 99.12535156 185.40234375 100.2734375 C192.72704852 113.394213 191.75656376 128.03829613 187.9375 142.12109375 C183.28631726 156.40410074 173.94371905 167.09713784 160.71875 174.23046875 C152.50215368 177.49564602 142.92604993 176.48847215 134.375 175.1875 C130.82575094 174.78989055 130.35637579 174.74307792 127.3125 176.9375 C125.9629712 180.08640054 125.92648017 180.91032872 126.4375 184.125 C127 188 127 188 126.046875 189.60546875 C122.92404402 191.73304634 119.44608105 192.37192766 115.8125 193.1875 C115.06291016 193.36474609 114.31332031 193.54199219 113.54101562 193.72460938 C111.69625181 194.15936263 109.84839934 194.58097276 108 195 C107.67 197.31 107.34 199.62 107 202 C107.99 202 108.98 202 110 202 C110.12375 202.639375 110.2475 203.27875 110.375 203.9375 C110.58125 204.618125 110.7875 205.29875 111 206 C111.66 206.33 112.32 206.66 113 207 C113.33 206.01 113.66 205.02 114 204 C114.66 204.33 115.32 204.66 116 205 C114.78460144 214.37872201 113.13398824 223.52234355 111.0625 232.75 C108.70798882 243.45908974 106.63483777 254.15844424 105 265 C103.35 265.33 101.7 265.66 100 266 C98.45063815 262.90127629 98.46712702 259.52971465 98.1328125 256.12109375 C97.07851664 246.03836388 95.51197429 236.06439344 93.875 226.0625 C93.45868377 223.50406067 93.04367087 220.94542818 92.63137817 218.38633728 C92.37792123 216.81444911 92.12208093 215.2429428 91.86349487 213.67189026 C91.38961254 210.74334612 91 207.97239221 91 205 C90.26523438 205.26554688 89.53046875 205.53109375 88.7734375 205.8046875 C74.91322787 210.16985697 60.41618239 210.31171647 46 211 C45.97499455 215.49828743 45.95699776 219.99653638 45.94506836 224.49487305 C45.94008708 226.02027086 45.93329962 227.54566401 45.92456055 229.07104492 C45.88042438 236.98180345 45.8845958 244.82313163 46.77124023 252.69750977 C47.14767553 256.48636916 47.12272677 260.19547013 47 264 C44.89868615 266.10131385 40.45853678 265.18514741 37.5625 265.1875 C36.77294922 265.19974609 35.98339844 265.21199219 35.16992188 265.22460938 C33.11192565 265.22987279 31.05437991 265.12206285 29 265 C28.34 264.34 27.68 263.68 27 263 C27.33 261.35 27.66 259.7 28 258 C31.63 257.67 35.26 257.34 39 257 C38.7834375 254.90978516 38.7834375 254.90978516 38.5625 252.77734375 C37.19109771 238.80541896 36.76632328 225.03358534 37 211 C31.06 211 25.12 211 19 211 C17.94865235 217.30808589 17.80889171 223.19116962 17.8125 229.5625 C17.8115332 231.31216064 17.8115332 231.31216064 17.81054688 233.09716797 C17.85347744 240.07631148 18.24572039 246.63654306 19.54296875 253.49609375 C20.2058174 257.1275979 20.34700423 260.32175512 20 264 C16.18894923 266.54070051 13.31435307 266.15363256 8.9375 265.875 C7.83825195 265.84019531 7.83825195 265.84019531 6.71679688 265.8046875 C4.58984375 265.6796875 4.58984375 265.6796875 1 265 C-0.49609375 262.9453125 -0.49609375 262.9453125 -1 261 C1 258 1 258 3.3828125 257.48828125 C4.28773438 257.43027344 5.19265625 257.37226563 6.125 257.3125 C7.03507812 257.24675781 7.94515625 257.18101562 8.8828125 257.11328125 C9.58148438 257.07589844 10.28015625 257.03851563 11 257 C10.93417725 256.39341553 10.86835449 255.78683105 10.80053711 255.16186523 C9.20477747 239.95580175 8.9113158 225.25018501 10 210 C9.01644531 209.96261719 8.03289062 209.92523438 7.01953125 209.88671875 C-31.9985677 208.14590392 -31.9985677 208.14590392 -43.6875 199.625 C-46 197 -46 197 -46.2734375 194.07421875 C-46.71071842 190.79106322 -46.71071842 190.79106322 -49.58984375 188.98046875 C-50.69457031 188.38878906 -51.79929688 187.79710937 -52.9375 187.1875 C-65.27835386 180.16635991 -75.88696242 170.37311563 -80.375 156.5625 C-85.91359659 135.80501632 -85.21657328 118.91511798 -75 100 C-74.53851563 99.34386719 -74.07703125 98.68773437 -73.6015625 98.01171875 C-72.60827865 94.69002276 -74.37047785 92.16764278 -75.875 89.25 C-76.19654053 88.59604248 -76.51808105 87.94208496 -76.84936523 87.26831055 C-77.88484301 85.17117508 -78.94191335 83.08580452 -80 81 C-80.68244026 79.62702219 -81.36344528 78.25332999 -82.04296875 76.87890625 C-84.59313677 71.7379742 -87.14834163 66.60386618 -89.83984375 61.53515625 C-90.38769531 60.49230469 -90.93554688 59.44945312 -91.5 58.375 C-91.9846875 57.47523438 -92.469375 56.57546875 -92.96875 55.6484375 C-94.22659874 52.41805323 -94.62514003 50.42907695 -94 47 C-89.61819095 43.12622678 -84.24099016 41.3333248 -78.8125 39.3125 C-78.00619141 39.00505859 -77.19988281 38.69761719 -76.36914062 38.38085938 C-73.26011388 37.19979103 -70.15551825 36.05183942 -67 35 C-67.680625 34.319375 -68.36125 33.63875 -69.0625 32.9375 C-71 30 -71 30 -71.25 26.5 C-69.45696913 21.47951358 -66.66483807 20.23474654 -62 18 C-61.32324219 17.65195313 -60.64648438 17.30390625 -59.94921875 16.9453125 C-55.73953198 15.01618428 -51.60195786 13.88033351 -47.0546875 13.07421875 C-45.71905762 12.83554077 -45.71905762 12.83554077 -44.35644531 12.59204102 C-42.56041634 12.28494382 -40.76003709 12.00212336 -38.95605469 11.74584961 C-33.50478645 10.85129633 -33.50478645 10.85129633 -29.58203125 7.0390625 C-29.05996094 6.03617188 -28.53789063 5.03328125 -28 4 C-20.26809361 -4.14717502 -9.77763634 -5.55983243 0 0 Z M-75.3125 47.5 C-76.14845703 47.83386719 -76.98441406 48.16773438 -77.84570312 48.51171875 C-79.90032491 49.33356746 -81.95145035 50.1631565 -84 51 C-82.03261355 57.66692084 -79.32262473 63.59439259 -76 69.6875 C-75.12452082 71.31614876 -74.24950974 72.94504924 -73.375 74.57421875 C-72.96636719 75.33138184 -72.55773437 76.08854492 -72.13671875 76.86865234 C-70.70430988 79.55441898 -69.34173879 82.26797265 -68 85 C-64.62677442 84.26292522 -64.62677442 84.26292522 -63.2109375 80.54296875 C-62.58789491 79.09585914 -61.97635791 77.64375442 -61.375 76.1875 C-61.06304687 75.46240234 -60.75109375 74.73730469 -60.4296875 73.99023438 C-56.44163152 64.59595595 -55.69720062 56.47001375 -59.24609375 46.71484375 C-59.87409594 45.00499377 -59.87409594 45.00499377 -61 44 C-66.17674034 43.26484161 -70.6274893 45.58458126 -75.3125 47.5 Z M142 92 C141.28138856 94.56646941 140.88386057 96.96229816 140.5625 99.625 C140 103 140 103 138 105 C138.30934164 108.78943511 139.02725968 112.09899567 140.0390625 115.7734375 C141.56894945 122.61379743 141.21225261 129.59628464 141.125 136.5625 C141.11494735 137.96679047 141.10582555 139.37108793 141.09765625 140.77539062 C141.07423093 144.18377485 141.04142746 147.591795 141 151 C143.64 151.66 146.28 152.32 149 153 C149 155.31 149 157.62 149 160 C151.8565961 160.83693254 153.4224178 161.24389072 156.2109375 160.06640625 C166.36369779 153.01078764 174.14846558 143.64160925 176.78515625 131.26171875 C177.84027105 120.15423753 175.59870763 110.49838454 168.65625 101.8203125 C163.04807812 95.65661416 155.91524184 92.43958178 147.58203125 91.8203125 C145.72040205 91.81372266 143.8587746 91.89673474 142 92 Z " fill="#DBC6B2" transform="translate(147,85)"/>
<path d="M0 0 C3.0196213 1.03529873 4.97265421 1.97553271 7.375 4.125 C10.86189637 6.61564027 12.76456299 6.35295308 17 6 C17.73863281 5.87496094 18.47726563 5.74992188 19.23828125 5.62109375 C25.39643252 4.63785951 25.39643252 4.63785951 29.125 6.875 C30.07375 7.57625 31.0225 8.2775 32 9 C36.90126164 10.20381865 39.46012098 9.97892162 44 8 C49.36842105 7.68421053 49.36842105 7.68421053 52 9 C52 9.66 52 10.32 52 11 C53.72722728 11.22384382 55.45696007 11.42839969 57.1875 11.625 C58.63189453 11.79902344 58.63189453 11.79902344 60.10546875 11.9765625 C63.26916372 12.00217946 65.14187661 11.28255285 68 10 C71.54375229 9.63085914 73.33445327 9.5796547 76.375 11.5 C79.90478415 13.51701952 83.06723409 13.59518871 87 13 C88.7325 12.2265625 88.7325 12.2265625 90.5 11.4375 C95.06295437 9.56342946 97.21310016 9.97984102 102 11 C102.680625 11.350625 103.36125 11.70125 104.0625 12.0625 C107.13229281 13.54788362 109.63613358 13.28507343 113 13 C114.155 12.505 115.31 12.01 116.5 11.5 C121.05699718 9.54700121 124.75514126 9.13659279 129.4375 10.9375 C130.283125 11.288125 131.12875 11.63875 132 12 C133.39352544 12.14853469 134.78987563 12.27193777 136.1875 12.375 C140 13 140 13 141.5 14.9375 C142 17 142 17 142 19 C140.68 19 139.36 19 138 19 C138 18.34 138 17.68 138 17 C128.70706352 15.3290709 119.15358002 13.72578009 110 17 C108.78161991 18.93140529 108.78161991 18.93140529 108 21 C107.05125 21.598125 106.1025 22.19625 105.125 22.8125 C101.25837307 25.51913885 100.08641956 27.82716089 98 32 C97.34 32 96.68 32 96 32 C95.9456749 35.02107902 95.90617073 38.04116528 95.875 41.0625 C95.84986328 42.33383789 95.84986328 42.33383789 95.82421875 43.63085938 C95.76517988 51.27639278 96.57278555 57.10858465 102 62.875 C102.70125 63.63554687 103.4025 64.39609375 104.125 65.1796875 C105.87783099 67.0648134 105.87783099 67.0648134 108 68 C107.01 69.98 107.01 69.98 106 72 C98.00955414 72.30732484 98.00955414 72.30732484 95 70 C90 64.00289017 90 64.00289017 90 61 C88.02 61 86.04 61 84 61 C83.773125 61.7425 83.54625 62.485 83.3125 63.25 C81.7410439 66.5425747 80.00004284 67.97497109 77 70 C76.34 70 75.68 70 75 70 C75 70.66 75 71.32 75 72 C71.6875 72.25 71.6875 72.25 68 72 C66.0625 70.25 66.0625 70.25 65 68 C65 66.68 65 65.36 65 64 C61.95086772 62.98888907 61.95086772 62.98888907 59 64 C58.38322647 69.91135188 58.38322647 69.91135188 61.25 74.875 C65.79512578 78.38714265 68.92986003 79.42969753 74.62109375 79.3359375 C77.90613078 78.87204065 80.3583163 77.57611091 83.17578125 75.875 C85 75 85 75 89 75 C91.625 76.9375 91.625 76.9375 94 79 C98.70822405 81.35411202 104.92209536 80.74881543 110 80 C111.87910047 78.33707923 112.89333357 76.6688319 114.2265625 74.55859375 C117.74616137 71.465378 122.72161785 72.52935743 127.1484375 72.75390625 C128.55996094 72.87572266 128.55996094 72.87572266 130 73 C130.33 74.32 130.66 75.64 131 77 C131.66 77 132.32 77 133 77 C132.37240135 79.92879371 131.41377341 82.36095629 130 85 C128.68 84.34 127.36 83.68 126 83 C126 83.66 126 84.32 126 85 C125.34 85 124.68 85 124 85 C124 85.99 124 86.98 124 88 C124.66 88.33 125.32 88.66 126 89 C125.34 89 124.68 89 124 89 C124.33 90.65 124.66 92.3 125 94 C126.32 94.33 127.64 94.66 129 95 C129.25 100.625 129.25 100.625 127 104 C126.01 104.33 125.02 104.66 124 105 C125.32 105 126.64 105 128 105 C128.33 106.32 128.66 107.64 129 109 C127.8553125 108.7215625 127.8553125 108.7215625 126.6875 108.4375 C123.91032625 107.77180827 123.91032625 107.77180827 121 109 C121 109.66 121 110.32 121 111 C122.32 110.67 123.64 110.34 125 110 C125.33 110.99 125.66 111.98 126 113 C124.68 113.33 123.36 113.66 122 114 C122.66 114.33 123.32 114.66 124 115 C124 116.65 124 118.3 124 120 C123.34 119.34 122.68 118.68 122 118 C121.01 119.98 121.01 119.98 120 122 C120 121.34 120 120.68 120 120 C119.34 120 118.68 120 118 120 C118.99 121.32 119.98 122.64 121 124 C120.01 124.33 119.02 124.66 118 125 C118.83333333 127.16666667 118.83333333 127.16666667 121 128 C120.319375 128.7425 119.63875 129.485 118.9375 130.25 C116.71646324 132.75949064 116.71646324 132.75949064 117.25 135.3125 C117.4975 135.869375 117.745 136.42625 118 137 C115.61082818 138.19458591 114.11138587 138.13931654 111.44384766 138.16113281 C110.49234833 138.1706044 109.540849 138.18007599 108.56051636 138.18983459 C107.52218658 138.19422043 106.48385681 138.19860626 105.4140625 138.203125 C103.79940598 138.21351051 103.79940598 138.21351051 102.15213013 138.22410583 C98.64305042 138.24151183 95.13412101 138.24770759 91.625 138.25 C89.84542908 138.25200912 89.84542908 138.25200912 88.02990723 138.25405884 C66.11968516 138.24866553 44.76488437 137.28637155 23.296875 132.55078125 C20.64683326 132.10806101 18.4415966 131.95009639 15.78515625 131.984375 C5.83751019 132.02543855 -3.93549586 124.25846773 -10.8125 117.625 C-23.41879945 104.25331808 -27.58537128 87.29974295 -27.17578125 69.1484375 C-26.57397856 58.3694826 -23.07909001 50.4035039 -18 41 C-16.39640635 38.14405354 -16.39640635 38.14405354 -16 35 C-15.34 35 -14.68 35 -14 35 C-14 35.99 -14 36.98 -14 38 C-11.69 38 -9.38 38 -7 38 C-7.2165625 37.39671875 -7.433125 36.7934375 -7.65625 36.171875 C-7.9346875 35.37265625 -8.213125 34.5734375 -8.5 33.75 C-8.91765625 32.56664062 -8.91765625 32.56664062 -9.34375 31.359375 C-10 29 -10 29 -10 25 C-9.34 25 -8.68 25 -8 25 C-7.82984375 24.47792969 -7.6596875 23.95585937 -7.484375 23.41796875 C-5.73029045 18.09040343 -3.84672576 12.82620317 -1.8671875 7.578125 C-1.02099737 5.0624246 -0.46024802 2.61120305 0 0 Z " fill="#E9D8C7" transform="translate(90,144)"/>
<path d="M0 0 C2.6875 2.375 2.6875 2.375 5 5 C5.763125 5.825 6.52625 6.65 7.3125 7.5 C9.24690865 10.36579059 9.15120575 11.63987214 9 15 C9.88018799 14.98477295 10.76037598 14.9695459 11.66723633 14.95385742 C23.0001255 14.84827819 34.25284105 15.4023627 45.5612793 16.11694336 C48.6646966 16.31107356 51.76872619 16.49089729 54.87304688 16.66992188 C102.60145174 19.55475781 102.60145174 19.55475781 123 29 C124.66372525 29.67397368 126.32974557 30.34237369 128 31 C128 31.99 128 32.98 128 34 C93.77286858 46.35463032 52.09100095 43.75879477 16.1875 42.625 C15.52545563 42.6045462 14.86341125 42.58409241 14.18130493 42.5630188 C3.82514609 42.23465241 -6.4867719 41.61504471 -16.8059082 40.66064453 C-27.51973389 39.40248454 -27.51973389 39.40248454 -38 41 C-41.5625 41.1875 -41.5625 41.1875 -45 41 C-45.66 40.34 -46.32 39.68 -47 39 C-50.51380209 38.36112689 -52.87170506 39.29483237 -56 40.7578125 C-61.23417483 43.13837941 -66.56283424 45.21042199 -71.9375 47.25 C-72.88173828 47.61351562 -73.82597656 47.97703125 -74.79882812 48.3515625 C-75.69923828 48.69445312 -76.59964844 49.03734375 -77.52734375 49.390625 C-78.33937256 49.70032227 -79.15140137 50.01001953 -79.98803711 50.32910156 C-82 51 -82 51 -84 51 C-83.18720703 52.62558594 -82.37439827 54.25116398 -81.56152344 55.87670898 C-80.84576895 57.30838257 -80.13027993 58.74018889 -79.41503906 60.17211914 C-77.55882791 63.88737845 -75.69874873 67.60056775 -73.828125 71.30859375 C-63.36380348 92.06947698 -63.36380348 92.06947698 -64 97 C-68.75 98.125 -68.75 98.125 -71 97 C-71 96.01 -71 95.02 -71 94 C-72.485 93.505 -72.485 93.505 -74 93 C-75.31349277 90.55502269 -76.45648998 88.16253187 -77.5625 85.625 C-81.6734264 76.52587511 -86.26502549 67.72563857 -90.98193359 58.9284668 C-91.31789551 58.29207275 -91.65385742 57.65567871 -92 57 C-92.36303223 56.32042236 -92.72606445 55.64084473 -93.10009766 54.94067383 C-94.44282003 52.04504167 -94.52410789 50.14464735 -94 47 C-89.38064973 43.32067649 -84.30982548 41.35894963 -78.8125 39.3125 C-78.00619141 39.00505859 -77.19988281 38.69761719 -76.36914062 38.38085938 C-73.26011388 37.19979103 -70.15551825 36.05183942 -67 35 C-67.680625 34.319375 -68.36125 33.63875 -69.0625 32.9375 C-71 30 -71 30 -71.25 26.5 C-69.45696913 21.47951358 -66.66483807 20.23474654 -62 18 C-61.32324219 17.65195313 -60.64648438 17.30390625 -59.94921875 16.9453125 C-55.73953198 15.01618428 -51.60195786 13.88033351 -47.0546875 13.07421875 C-45.71905762 12.83554077 -45.71905762 12.83554077 -44.35644531 12.59204102 C-42.56041634 12.28494382 -40.76003709 12.00212336 -38.95605469 11.74584961 C-33.50478645 10.85129633 -33.50478645 10.85129633 -29.58203125 7.0390625 C-29.05996094 6.03617188 -28.53789063 5.03328125 -28 4 C-20.26809361 -4.14717502 -9.77763634 -5.55983243 0 0 Z " fill="#A29486" transform="translate(147,85)"/>
<path d="M0 0 C0.80082001 -0.00100708 1.60164001 -0.00201416 2.42672729 -0.00305176 C88.59220267 0.0695851 88.59220267 0.0695851 107.6875 18.6875 C109.58887247 21.93567797 109.63331993 23.51682095 109.1875 27.25 C107.69545446 29.5851237 106.27443141 31.53553819 104.5 33.625 C103.57683672 34.76483399 102.6562443 35.90675511 101.73828125 37.05078125 C101.29564941 37.59814941 100.85301758 38.14551758 100.39697266 38.70947266 C97.1125154 42.89294567 94.52385975 47.48340891 92.1875 52.25 C92.1875 51.59 92.1875 50.93 92.1875 50.25 C87.24423406 52.26696766 87.24423406 52.26696766 82.6875 55 C79.21294825 56.73727588 76.90259119 56.09115272 73.1875 55.25 C72.5275 54.92 71.8675 54.59 71.1875 54.25 C68.14994922 53.88597132 65.22136034 53.84088048 62.1875 54.25 C61.3625 54.91 60.5375 55.57 59.6875 56.25 C56.4503888 58.83968896 54.42427863 58.6970716 50.390625 58.5234375 C47.49926365 58.1645806 44.92586705 57.22364162 42.1875 56.25 C38.08110855 55.71438372 35.77678446 56.34864507 32.25 58.3125 C28.21396398 60.49226755 25.69302187 60.44013785 21.1875 59.25 C20.424375 58.87875 19.66125 58.5075 18.875 58.125 C13.85784585 56.49150795 8.26747603 57.39910072 3.4375 59.375 C-0.25362327 60.81043683 -3.31622863 59.85351466 -6.9140625 58.40234375 C-11.15585398 56.7187461 -13.6771859 55.790077 -18 57.625 C-18.6496875 57.9240625 -19.299375 58.223125 -19.96875 58.53125 C-22.86301293 59.65952199 -24.90479743 59.15461858 -27.8125 58.25 C-28.59625 57.734375 -29.38 57.21875 -30.1875 56.6875 C-33.71376223 54.75645164 -36.91192505 54.75682386 -40.8125 55.25 C-41.9675 55.683125 -43.1225 56.11625 -44.3125 56.5625 C-48.29851112 57.34546647 -48.67046795 57.06574709 -51.875 54.9375 C-52.54917969 54.46570313 -53.22335938 53.99390625 -53.91796875 53.5078125 C-56.6300433 51.70721867 -58.5579191 51.31509162 -61.8125 51.25 C-63.43981241 51.67881881 -65.06462072 52.11719776 -66.6875 52.5625 C-69.78387408 53.27489885 -71.1895845 53.56308275 -74.05859375 52.12109375 C-75.43062714 51.04473485 -76.76708358 49.92134807 -78.0625 48.75390625 C-79.81308324 47.03872499 -79.81308324 47.03872499 -82.625 46.4375 C-85.45824836 44.89945089 -85.53198038 43.76427892 -86.5 40.75 C-86.71011719 39.9559375 -86.92023438 39.161875 -87.13671875 38.34375 C-87.6980108 36.06066898 -87.6980108 36.06066898 -89.8125 34.25 C-89.10222656 33.97285156 -88.39195313 33.69570312 -87.66015625 33.41015625 C-86.28150391 32.86681641 -86.28150391 32.86681641 -84.875 32.3125 C-83.95847656 31.95285156 -83.04195313 31.59320313 -82.09765625 31.22265625 C-79.88831467 30.4503782 -79.88831467 30.4503782 -78.8125 29.25 C-76.375 29.0625 -76.375 29.0625 -73.8125 29.25 C-73.1525 29.91 -72.4925 30.57 -71.8125 31.25 C-68.118993 31.45146402 -65.33309568 31.42353189 -61.8125 30.25 C-54.0127789 29.74266252 -46.14779308 30.60215108 -38.375 31.1875 C-10.70434509 33.11801081 16.81164134 33.52246749 44.52636719 32.39404297 C47.59314575 32.27338417 50.65853516 32.17741332 53.7265625 32.09765625 C69.72067438 31.59588664 85.61765974 28.85922492 101.1875 25.25 C101.1875 24.26 101.1875 23.27 101.1875 22.25 C100.45426514 22.12359131 99.72103027 21.99718262 98.96557617 21.86694336 C96.33703895 21.28320898 94.18971691 20.47069987 91.73828125 19.37890625 C85.44493063 16.81031004 79.03451099 15.46789501 72.375 14.1875 C71.71366058 14.05960083 71.05232117 13.93170166 70.37094116 13.79992676 C53.10958201 10.51195148 35.70378526 9.30363414 18.1875 8.25 C17.34537964 8.19886047 16.50325928 8.14772095 15.63562012 8.09503174 C4.48922094 7.42113529 -6.65971303 6.80809023 -17.8125 6.25 C-16.17348651 -2.88164658 -7.85782594 0.00676515 0 0 Z " fill="#EBDBCA" transform="translate(173.8125,93.75)"/>
<path d="M0 0 C0.33 0.99 0.66 1.98 1 3 C2.98 2.67 4.96 2.34 7 2 C7.33 3.65 7.66 5.3 8 7 C5.69 7 3.38 7 1 7 C0.23826608 11.3164922 -0.16063604 14.74433453 1 19 C1.66 19 2.32 19 3 19 C3 17.02 3 15.04 3 13 C3.66 13 4.32 13 5 13 C5.33 14.98 5.66 16.96 6 19 C8.31 19 10.62 19 13 19 C13 17.35 13 15.7 13 14 C13.99 13.67 14.98 13.34 16 13 C16.185625 13.9590625 16.185625 13.9590625 16.375 14.9375 C16.58125 15.618125 16.7875 16.29875 17 17 C17.66 17.33 18.32 17.66 19 18 C19.33 17.01 19.66 16.02 20 15 C20.66 15.33 21.32 15.66 22 16 C20.78460144 25.37872201 19.13398824 34.52234355 17.0625 43.75 C14.70798882 54.45908974 12.63483777 65.15844424 11 76 C8.525 76.495 8.525 76.495 6 77 C4.45063815 73.90127629 4.46712702 70.52971465 4.1328125 67.12109375 C3.07851664 57.03836388 1.51197429 47.06439344 -0.125 37.0625 C-0.54131623 34.50406067 -0.95632913 31.94542818 -1.36862183 29.38633728 C-1.62207877 27.81444911 -1.87791907 26.2429428 -2.13650513 24.67189026 C-2.61038746 21.74334612 -3 18.97239221 -3 16 C-4.10214844 16.39832031 -4.10214844 16.39832031 -5.2265625 16.8046875 C-19.08677213 21.16985697 -33.58381761 21.31171647 -48 22 C-48.02500545 26.49828743 -48.04300224 30.99653638 -48.05493164 35.49487305 C-48.05991292 37.02027086 -48.06670038 38.54566401 -48.07543945 40.07104492 C-48.11957562 47.98180345 -48.1154042 55.82313163 -47.22875977 63.69750977 C-46.85232447 67.48636916 -46.87727323 71.19547013 -47 75 C-49.10131385 77.10131385 -53.54146322 76.18514741 -56.4375 76.1875 C-57.22705078 76.19974609 -58.01660156 76.21199219 -58.83007812 76.22460938 C-60.88807435 76.22987279 -62.94562009 76.12206285 -65 76 C-65.66 75.34 -66.32 74.68 -67 74 C-66.67 72.35 -66.34 70.7 -66 69 C-62.37 68.67 -58.74 68.34 -55 68 C-55.2165625 65.90978516 -55.2165625 65.90978516 -55.4375 63.77734375 C-56.80890229 49.80541896 -57.23367672 36.03358534 -57 22 C-62.94 22 -68.88 22 -75 22 C-76.05134765 28.30808589 -76.19110829 34.19116962 -76.1875 40.5625 C-76.1884668 42.31216064 -76.1884668 42.31216064 -76.18945312 44.09716797 C-76.14652256 51.07631148 -75.75427961 57.63654306 -74.45703125 64.49609375 C-73.7941826 68.1275979 -73.65299577 71.32175512 -74 75 C-77.81105077 77.54070051 -80.68564693 77.15363256 -85.0625 76.875 C-85.79533203 76.85179687 -86.52816406 76.82859375 -87.28320312 76.8046875 C-89.41015625 76.6796875 -89.41015625 76.6796875 -93 76 C-94.49609375 73.9453125 -94.49609375 73.9453125 -95 72 C-93 69 -93 69 -90.6171875 68.48828125 C-89.71226562 68.43027344 -88.80734375 68.37226563 -87.875 68.3125 C-86.96492188 68.24675781 -86.05484375 68.18101562 -85.1171875 68.11328125 C-84.06917969 68.05720703 -84.06917969 68.05720703 -83 68 C-83.06582275 67.39341553 -83.13164551 66.78683105 -83.19946289 66.16186523 C-84.79522253 50.95580175 -85.0886842 36.25018501 -84 21 C-84.98355469 20.96261719 -85.96710938 20.92523438 -86.98046875 20.88671875 C-125.80594212 19.15449802 -125.80594212 19.15449802 -137.6875 10.6875 C-140.48916911 7.43150617 -140.83384056 5.2370658 -141 1 C-135.17063761 0.62165196 -129.84396004 1.13181147 -124.125 2.3125 C-100.72003292 7.02911016 -77.31528654 7.41781944 -53.55517578 7.20599365 C-49.63839844 7.17457066 -45.72155615 7.1614508 -41.8046875 7.14648438 C-34.20295749 7.11489385 -26.60153295 7.06412321 -19 7 C-18.86207031 6.04738281 -18.72414063 5.09476562 -18.58203125 4.11328125 C-17.97274611 0.85421912 -17.65589968 -0.13103356 -15 -2 C-10.18192038 -4.14136872 -4.18296779 -2.78864519 0 0 Z " fill="#E9D8C8" transform="translate(241,274)"/>
<path d="M0 0 C9.02922572 -0.63685761 15.34160057 0.04204365 23 5 C23.99 5.639375 24.98 6.27875 26 6.9375 C28.42642472 9.43975049 29.04334123 11.68848888 30 15 C30.99 15.495 30.99 15.495 32 16 C32.45703125 17.99609375 32.45703125 17.99609375 32.8125 20.4375 C33.23052677 22.86505548 33.23052677 22.86505548 34 25 C36.47014472 26.67613187 36.47014472 26.67613187 39 27 C39.1875 29.375 39.1875 29.375 39 32 C36 34 36 34 33 34 C32.67 36.64 32.34 39.28 32 42 C31.34 42 30.68 42 30 42 C29.773125 42.556875 29.54625 43.11375 29.3125 43.6875 C27.58673335 46.72813648 25.6162056 48.66816457 23 51 C22.51402344 51.47179687 22.02804688 51.94359375 21.52734375 52.4296875 C14.62291778 57.99726562 5.34941568 56.40141422 -3 56 C-3.13132324 56.60400635 -3.26264648 57.2080127 -3.39794922 57.83032227 C-4.2824662 61.01795504 -5.62507209 62.70737157 -8 65 C-13.17173448 66.00319187 -19.14951525 66.13491522 -24.109375 64.16015625 C-25.625 63.125 -25.625 63.125 -28 61 C-29.3191582 60.30570621 -30.64649406 59.62469505 -32 59 C-33.3921875 59.9590625 -33.3921875 59.9590625 -34.8125 60.9375 C-39.8407611 64.19108071 -44.14433708 64.71007208 -50 64 C-54.18516264 62.45261228 -58.05940397 60.10949747 -60 56 C-60.23012225 53.28037336 -60.13698293 50.7396586 -60 48 C-58.68 47.34 -57.36 46.68 -56 46 C-53 48 -53 48 -51.75 51.5625 C-51.1725 52.696875 -50.595 53.83125 -50 55 C-46.41136476 56.0615942 -46.41136476 56.0615942 -43 56 C-43 55.34 -43 54.68 -43 54 C-42.071875 53.401875 -41.14375 52.80375 -40.1875 52.1875 C-36.8780703 50.27022911 -36.8780703 50.27022911 -35.5 47.25 C-34 45 -34 45 -31.125 44.25 C-27.07225204 45.22265951 -26.09497436 46.89258635 -23.8828125 50.2734375 C-23 52 -23 52 -23 54 C-19.30992118 55.18082522 -15.85119054 55.28527337 -12 55 C-11.34 54.01 -10.68 53.02 -10 52 C-10.87785156 51.61908203 -10.87785156 51.61908203 -11.7734375 51.23046875 C-14.24578468 49.86417163 -15.74828127 48.41657452 -17.625 46.3125 C-18.21539062 45.66925781 -18.80578125 45.02601563 -19.4140625 44.36328125 C-22.96276437 39.07519103 -23.25662163 33.52716297 -23.1875 27.3125 C-23.18105469 26.02988281 -23.17460937 24.74726563 -23.16796875 23.42578125 C-22.92500158 18.47038113 -22.51828205 16.38797531 -19 13 C-18.401875 12.030625 -17.80375 11.06125 -17.1875 10.0625 C-14.80343741 6.72481237 -12.48942791 5.09365675 -9 3 C-8.67 2.67 -8.34 2.34 -8 2 C-5.32941149 1.85884839 -2.67567762 1.95752893 0 2 C0 1.34 0 0.68 0 0 Z " fill="#ECE2D4" transform="translate(208,160)"/>
<path d="M0 0 C1.31556885 0.01244751 1.31556885 0.01244751 2.65771484 0.02514648 C14.45871644 0.3296535 24.38974525 3.50435987 33.3125 11.4375 C35.66622856 13.93120801 37.53059423 16.51198306 39.3125 19.4375 C39.77527344 20.18773437 40.23804688 20.93796875 40.71484375 21.7109375 C48.03954852 34.831713 47.06906376 49.47579613 43.25 63.55859375 C38.59881726 77.84160074 29.25621905 88.53463784 16.03125 95.66796875 C7.10700896 99.21435558 -3.70585808 98.31162542 -12.6875 95.4375 C-11.57641843 90.39489901 -10.3784307 86.85062634 -7.6875 82.4375 C-6.58091559 79.4698418 -5.61742157 76.4646915 -4.6875 73.4375 C2.0625 73.3125 2.0625 73.3125 4.3125 74.4375 C4.71979228 76.75906597 5.05688677 79.0943787 5.3125 81.4375 C11.78032331 81.27165838 15.82064159 77.71806891 20.3125 73.4375 C27.84771983 65.00100878 31.86813813 54.98822012 31.25 43.625 C30.18068649 34.90275645 27.58494207 27.79157906 21.3125 21.4375 C13.88652123 16.09458267 6.36219443 14.11996686 -2.6875 14.4375 C-2.625625 15.675 -2.56375 16.9125 -2.5 18.1875 C-2.5 21.08483633 -2.62207686 22.31288449 -4 24.9375 C-5.6875 26.4375 -5.6875 26.4375 -8.6875 26.4375 C-10.1941972 23.6493978 -11.69169804 20.85646042 -13.1875 18.0625 C-13.61675781 17.2684375 -14.04601562 16.474375 -14.48828125 15.65625 C-14.89433594 14.89570313 -15.30039062 14.13515625 -15.71875 13.3515625 C-16.09580078 12.6498291 -16.47285156 11.9480957 -16.86132812 11.22509766 C-17.6875 9.4375 -17.6875 9.4375 -17.6875 7.4375 C-18.3475 7.4375 -19.0075 7.4375 -19.6875 7.4375 C-19.1875 5.625 -19.1875 5.625 -17.6875 3.4375 C-11.66850421 0.6605389 -6.5861175 -0.0806282 0 0 Z " fill="#969495" transform="translate(291.6875,163.5625)"/>
<path d="M0 0 C9.02922572 -0.63685761 15.34160057 0.04204365 23 5 C23.99 5.639375 24.98 6.27875 26 6.9375 C28.42642472 9.43975049 29.04334123 11.68848888 30 15 C30.99 15.495 30.99 15.495 32 16 C32.45703125 17.99609375 32.45703125 17.99609375 32.8125 20.4375 C33.23052677 22.86505548 33.23052677 22.86505548 34 25 C36.47014472 26.67613187 36.47014472 26.67613187 39 27 C39.1875 29.375 39.1875 29.375 39 32 C36 34 36 34 33 34 C32.67 36.64 32.34 39.28 32 42 C31.34 42 30.68 42 30 42 C29.773125 42.556875 29.54625 43.11375 29.3125 43.6875 C27.58673335 46.72813648 25.6162056 48.66816457 23 51 C22.51402344 51.47179687 22.02804688 51.94359375 21.52734375 52.4296875 C14.62291778 57.99726562 5.34941568 56.40141422 -3 56 C-3.13132324 56.60400635 -3.26264648 57.2080127 -3.39794922 57.83032227 C-4.2824662 61.01795504 -5.62507209 62.70737157 -8 65 C-13.17173448 66.00319187 -19.14951525 66.13491522 -24.109375 64.16015625 C-25.625 63.125 -25.625 63.125 -28 61 C-29.3191582 60.30570621 -30.64649406 59.62469505 -32 59 C-33.3921875 59.9590625 -33.3921875 59.9590625 -34.8125 60.9375 C-39.8407611 64.19108071 -44.14433708 64.71007208 -50 64 C-54.18516264 62.45261228 -58.05940397 60.10949747 -60 56 C-60.23012225 53.28037336 -60.13698293 50.7396586 -60 48 C-58.68 47.34 -57.36 46.68 -56 46 C-53 48 -53 48 -51.75 51.5625 C-51.1725 52.696875 -50.595 53.83125 -50 55 C-46.41136476 56.0615942 -46.41136476 56.0615942 -43 56 C-43 55.34 -43 54.68 -43 54 C-42.071875 53.401875 -41.14375 52.80375 -40.1875 52.1875 C-36.8780703 50.27022911 -36.8780703 50.27022911 -35.5 47.25 C-34 45 -34 45 -31.125 44.25 C-27.07225204 45.22265951 -26.09497436 46.89258635 -23.8828125 50.2734375 C-23 52 -23 52 -23 54 C-19.30992118 55.18082522 -15.85119054 55.28527337 -12 55 C-11.34 54.01 -10.68 53.02 -10 52 C-10.87785156 51.61908203 -10.87785156 51.61908203 -11.7734375 51.23046875 C-14.24578468 49.86417163 -15.74828127 48.41657452 -17.625 46.3125 C-18.21539062 45.66925781 -18.80578125 45.02601563 -19.4140625 44.36328125 C-22.96276437 39.07519103 -23.25662163 33.52716297 -23.1875 27.3125 C-23.18105469 26.02988281 -23.17460937 24.74726563 -23.16796875 23.42578125 C-22.92500158 18.47038113 -22.51828205 16.38797531 -19 13 C-18.401875 12.030625 -17.80375 11.06125 -17.1875 10.0625 C-14.80343741 6.72481237 -12.48942791 5.09365675 -9 3 C-8.67 2.67 -8.34 2.34 -8 2 C-5.32941149 1.85884839 -2.67567762 1.95752893 0 2 C0 1.34 0 0.68 0 0 Z M-13.0625 13.75 C-16.69480183 19.84289339 -19.14566981 26.87463506 -17.5546875 33.9921875 C-15.69624611 39.14028377 -13.2639005 43.46480305 -9 47 C-6.66290191 47.98932373 -4.49847329 48.4611136 -2 49 C-1.67 49.66 -1.34 50.32 -1 51 C6.26652117 51.5565846 12.64563192 50.83829506 19 47 C19.33 46.01 19.66 45.02 20 44 C20.93585938 43.55527344 20.93585938 43.55527344 21.890625 43.1015625 C26.03050585 40.93962472 27.42515036 36.1975323 29 32 C30.12615041 24.90525242 27.72807058 19.07283076 24 13 C21.38706568 10.59795211 20.61026742 10 17 10 C17 9.34 17 8.68 17 8 C15.6293189 7.48827906 14.25315925 6.99122508 12.875 6.5 C12.10929687 6.2215625 11.34359375 5.943125 10.5546875 5.65625 C2.06261736 3.47480079 -7.12895112 7.41846919 -13.0625 13.75 Z " fill="#EDB41F" transform="translate(208,160)"/>
<path d="M0 0 C5.95703125 -0.29296875 5.95703125 -0.29296875 8 0 C8.68147095 0.71518799 8.68147095 0.71518799 9.37670898 1.44482422 C11.27604431 3.26446116 12.46723468 3.61632903 15.015625 4.17578125 C15.83933594 4.36100342 16.66304687 4.54622559 17.51171875 4.73706055 C18.86716797 5.02190308 18.86716797 5.02190308 20.25 5.3125 C21.67505859 5.62344604 21.67505859 5.62344604 23.12890625 5.94067383 C31.73171136 7.79008563 40.36451851 9.49817117 49 11.1875 C50.27391602 11.43733643 51.54783203 11.68717285 52.86035156 11.94458008 C60.27706649 13.36972446 67.67350006 14.55605191 75.171875 15.46606445 C78 16 78 16 81 18 C55.42601153 30.78699424 0.76799344 21.0506098 -27 18.5625 C-27.70624512 18.50114868 -28.41249023 18.43979736 -29.14013672 18.37658691 C-31.11529944 18.20122091 -33.08896719 18.00925146 -35.0625 17.81640625 C-36.75052734 17.65313843 -36.75052734 17.65313843 -38.47265625 17.48657227 C-39.72369141 17.24571899 -39.72369141 17.24571899 -41 17 C-42.31625194 14.36749612 -41.74813658 13.19820944 -41.0625 10.375 C-40.86785156 9.55773437 -40.67320313 8.74046875 -40.47265625 7.8984375 C-40.31667969 7.27195312 -40.16070312 6.64546875 -40 6 C-39.07251953 5.91435791 -38.14503906 5.82871582 -37.18945312 5.74047852 C-33.71539859 5.41907205 -30.24145508 5.0965114 -26.76757812 4.77319336 C-25.27022456 4.63406587 -23.7728294 4.49538515 -22.27539062 4.35717773 C-20.11056338 4.15729202 -17.9458958 3.95574628 -15.78125 3.75390625 C-14.48251953 3.63345947 -13.18378906 3.5130127 -11.84570312 3.38891602 C-7.88628923 2.98850043 -3.94674676 2.50870034 0 2 C0 1.34 0 0.68 0 0 Z " fill="#EE590C" transform="translate(156,107)"/>
<path d="M0 0 C-0.33 2.64 -0.66 5.28 -1 8 C-2.2375 8.226875 -3.475 8.45375 -4.75 8.6875 C-10.8069057 10.02174706 -16.36399874 12.45523532 -22 15 C-22.76183594 15.32742187 -23.52367187 15.65484375 -24.30859375 15.9921875 C-26.30073078 16.9173802 -26.30073078 16.9173802 -26.75 19.625 C-26.8325 20.40875 -26.915 21.1925 -27 22 C-26.01 22.33 -25.02 22.66 -24 23 C-24 23.66 -24 24.32 -24 25 C-22.68 25.66 -21.36 26.32 -20 27 C-22.57845981 30.10486013 -25.38369842 31.11093816 -29.12890625 32.48046875 C-30.92811523 33.14272461 -30.92811523 33.14272461 -32.76367188 33.81835938 C-33.38685303 34.04289795 -34.01003418 34.26743652 -34.65209961 34.4987793 C-36.56248165 35.18749338 -38.46797853 35.8885343 -40.37304688 36.59179688 C-49.70419505 40 -49.70419505 40 -52 40 C-51.18720703 41.62558594 -50.37439827 43.25116398 -49.56152344 44.87670898 C-48.84576895 46.30838257 -48.13027993 47.74018889 -47.41503906 49.17211914 C-45.55882791 52.88737845 -43.69874873 56.60056775 -41.828125 60.30859375 C-31.36380348 81.06947698 -31.36380348 81.06947698 -32 86 C-36.75 87.125 -36.75 87.125 -39 86 C-39 85.01 -39 84.02 -39 83 C-40.485 82.505 -40.485 82.505 -42 82 C-43.31349277 79.55502269 -44.45648998 77.16253187 -45.5625 74.625 C-49.6734264 65.52587511 -54.26502549 56.72563857 -58.98193359 47.9284668 C-59.31789551 47.29207275 -59.65385742 46.65567871 -60 46 C-60.36303223 45.32042236 -60.72606445 44.64084473 -61.10009766 43.94067383 C-62.44282003 41.04504167 -62.52410789 39.14464735 -62 36 C-57.38064973 32.32067649 -52.30982548 30.35894963 -46.8125 28.3125 C-46.00619141 28.00505859 -45.19988281 27.69761719 -44.36914062 27.38085938 C-41.26011388 26.19979103 -38.15551825 25.05183942 -35 24 C-35.680625 23.319375 -36.36125 22.63875 -37.0625 21.9375 C-39 19 -39 19 -39.25 15.5 C-37.4591194 10.48553431 -34.66545301 9.2242276 -30 7 C-29.26523438 6.64035156 -28.53046875 6.28070313 -27.7734375 5.91015625 C-19.3509862 2.17779907 -9.24426255 -0.35216238 0 0 Z " fill="#857D75" transform="translate(115,96)"/>
<path d="M0 0 C0.80082001 -0.00100708 1.60164001 -0.00201416 2.42672729 -0.00305176 C88.59220267 0.0695851 88.59220267 0.0695851 107.6875 18.6875 C109.48858529 21.76435404 109.51385158 23.74172055 109.1875 27.25 C108.754375 26.59 108.32125 25.93 107.875 25.25 C107.318125 24.59 106.76125 23.93 106.1875 23.25 C105.1975 23.25 104.2075 23.25 103.1875 23.25 C102.8575 23.91 102.5275 24.57 102.1875 25.25 C101.6925 24.26 101.6925 24.26 101.1875 23.25 C94.37088045 19.03608973 86.16910928 17.47782825 78.44482422 15.75439453 C76.96264593 15.42320479 75.48238251 15.08330146 74.00439453 14.73388672 C44.26342349 7.77796764 12.58751573 7.77122979 -17.8125 6.25 C-16.17348651 -2.88164658 -7.85782594 0.00676515 0 0 Z " fill="#EFE6DA" transform="translate(173.8125,93.75)"/>
<path d="M0 0 C0.66 0 1.32 0 2 0 C2.33 1.98 2.66 3.96 3 6 C5.31 6 7.62 6 10 6 C10 4.35 10 2.7 10 1 C10.99 0.67 11.98 0.34 13 0 C13.12375 0.639375 13.2475 1.27875 13.375 1.9375 C13.58125 2.618125 13.7875 3.29875 14 4 C14.66 4.33 15.32 4.66 16 5 C16.33 4.01 16.66 3.02 17 2 C17.66 2.33 18.32 2.66 19 3 C17.78460144 12.37872201 16.13398824 21.52234355 14.0625 30.75 C11.70798882 41.45908974 9.63483777 52.15844424 8 63 C5.525 63.495 5.525 63.495 3 64 C1.54959018 61.09918036 1.55016094 58.06429953 1.25 54.875 C0.61536066 48.56334474 -0.23513142 42.30179506 -1.2421875 36.0390625 C-1.41047058 34.98983109 -1.41047058 34.98983109 -1.58215332 33.91940308 C-2.15059192 30.39324129 -2.73083033 26.869377 -3.32324219 23.34716797 C-4.50421683 16.18515959 -5.36953935 9.26976829 -5 2 C-4.01 2 -3.02 2 -2 2 C-2 3.32 -2 4.64 -2 6 C-1.34 6 -0.68 6 0 6 C0 4.02 0 2.04 0 0 Z " fill="#0D0808" transform="translate(244,287)"/>
<path d="M0 0 C0.33 0.99 0.66 1.98 1 3 C2.98 2.67 4.96 2.34 7 2 C7.33 3.65 7.66 5.3 8 7 C5.69 7 3.38 7 1 7 C0.67 9.64 0.34 12.28 0 15 C-0.66 15 -1.32 15 -2 15 C-2.33 16.32 -2.66 17.64 -3 19 C-3 18.01 -3 17.02 -3 16 C-3.56847656 16.04640625 -4.13695312 16.0928125 -4.72265625 16.140625 C-5.88087891 16.19476563 -5.88087891 16.19476563 -7.0625 16.25 C-7.81660156 16.29640625 -8.57070312 16.3428125 -9.34765625 16.390625 C-12 16 -12 16 -14.71166992 13.9934082 C-20.04892866 10.88551688 -26.08631037 11.54294122 -32.06375885 11.66877556 C-34.31502809 11.71587738 -36.5653841 11.7376434 -38.81707764 11.7535553 C-43.62844638 11.79229216 -48.43906215 11.86367518 -53.25 11.9375 C-82.14618824 12.36455907 -109.59232149 10.9981915 -138 5 C-138 3.68 -138 2.36 -138 1 C-133.20271922 0.87231572 -128.99340157 1.29035464 -124.3125 2.3125 C-100.83545573 6.99297998 -77.38058497 7.41840159 -53.55517578 7.20599365 C-49.63839844 7.17457066 -45.72155615 7.1614508 -41.8046875 7.14648438 C-34.20295749 7.11489385 -26.60153295 7.06412321 -19 7 C-18.86207031 6.04738281 -18.72414063 5.09476562 -18.58203125 4.11328125 C-17.97274611 0.85421912 -17.65589968 -0.13103356 -15 -2 C-10.18192038 -4.14136872 -4.18296779 -2.78864519 0 0 Z " fill="#D3C0AF" transform="translate(241,274)"/>
<path d="M0 0 C3.66526982 0.33320635 5.45324191 1.31832656 8.125 3.6875 C10.5719264 5.5722223 11.55444152 6.03113072 14.68359375 5.8125 C16.60328212 5.39574269 18.51884109 4.95948952 20.4296875 4.50390625 C24.63236002 3.67997805 27.32158192 5.03993124 30.92578125 7.1015625 C35.20849049 9.64123348 35.20849049 9.64123348 40 9.25 C40.99 8.8375 41.98 8.425 43 8 C47.8032987 7.54254298 50.54544245 7.45986836 54.625 10.0625 C57.77696376 12.27154325 57.77696376 12.27154325 60.9375 11.875 C63.23076345 11.21978187 65.49886951 10.47539567 67.75 9.6875 C72.40199948 8.4398373 75.44574375 10.17490198 79.6796875 12.09765625 C83.88947189 13.73479462 86.93011872 12.37891629 91 10.9375 C95.822225 9.43055469 98.80540923 9.4570042 103.4375 11.5625 C107.63488772 13.25618276 109.65324178 13.10644755 114 12 C114.94875 11.46375 115.8975 10.9275 116.875 10.375 C121.98049253 8.12858328 126.82701225 9.27567075 132 11 C135.0410353 11.34738418 137.96393215 11.41597371 141 11 C141.825 10.34 142.65 9.68 143.5 9 C146.73246145 6.41403084 148.79729332 6.59440716 152.81640625 6.6640625 C155.2120432 7.03262203 156.84710481 7.92137777 159 9 C164.55168585 8.79438201 167.50506517 7.09651066 172 4 C173.32 4 174.64 4 176 4 C176 5.65 176 7.3 176 9 C165.98055199 14.5792302 157.97439322 14.23983637 147 13 C146.34 13 145.68 13 145 13 C145 13.66 145 14.32 145 15 C140.64784727 17.17607636 136.77032136 17.50727344 132 17 C130.327767 16.34742127 128.66072849 15.68132451 127 15 C122.82493188 14.61341962 120.37762241 14.83816182 116.5 16.5 C112.57168951 18.18356164 110.23163338 18.45338929 106 18 C104.845 17.484375 103.69 16.96875 102.5 16.4375 C98.36756166 14.74024854 96.29583012 14.96581867 92 16 C91.195625 16.350625 90.39125 16.70125 89.5625 17.0625 C86.00539345 18.36388044 82.74759514 18.52772258 79 18 C77.31243867 17.03567924 75.64333504 16.03789581 74 15 C70.70645526 14.65692242 68.57820326 14.7687187 65.5 16 C61.44349327 17.62260269 58.21821651 17.42372748 54.125 16 C53.42375 15.67 52.7225 15.34 52 15 C52 14.34 52 13.68 52 13 C46.57735204 12.71329666 46.57735204 12.71329666 41.4375 14.0625 C37.92669389 15.41281004 35.62133081 14.88944967 32 14 C31.09894531 13.3090625 30.19789062 12.618125 29.26953125 11.90625 C25.23508123 9.55402586 22.53392791 9.949834 18.125 10.625 C13.00791135 11.20369748 9.3604817 11.42618426 5.125 8.125 C4.06448434 7.10252974 3.01839775 6.06442703 2 5 C1.34 4.67 0.68 4.34 0 4 C0 2.68 0 1.36 0 0 Z " fill="#AFABA8" transform="translate(90,140)"/>
<path d="M0 0 C4.51315789 2.02631579 4.51315789 2.02631579 6 5 C6.52574672 8.56535798 6.96217116 12.13797912 7.40234375 15.71484375 C7.79886073 19.12817412 7.79886073 19.12817412 10 22 C10.66 21.34 11.32 20.68 12 20 C12 24.4804873 11.85846145 25.63710418 9 29 C2.98417817 32.50073248 -4.06182904 34.48103265 -11 33 C-11.66 32.01 -12.32 31.02 -13 30 C-13.94875 29.896875 -14.8975 29.79375 -15.875 29.6875 C-19 29 -19 29 -21.4375 26.25 C-23 23 -23 23 -22.75 20.125 C-22.5025 19.42375 -22.255 18.7225 -22 18 C-21.01 18 -20.02 18 -19 18 C-18.96261719 17.33613281 -18.92523438 16.67226562 -18.88671875 15.98828125 C-18.41855276 9.70016938 -17.86102415 5.51423334 -12.9375 1.1875 C-8.61713011 -0.55903251 -4.59865032 -0.5738874 0 0 Z " fill="#EDE4D6" transform="translate(218,178)"/>
<path d="M0 0 C0.3877533 3.39284136 0.22929837 4.68372639 -1.8125 7.5 C-2.534375 8.325 -3.25625 9.15 -4 10 C-5.85268975 12.92154922 -7.49957324 15.88372903 -9 19 C-9 18.34 -9 17.68 -9 17 C-13.94326594 19.01696766 -13.94326594 19.01696766 -18.5 21.75 C-21.97455175 23.48727588 -24.28490881 22.84115272 -28 22 C-28.66 21.67 -29.32 21.34 -30 21 C-33.03755078 20.63597132 -35.96613966 20.59088048 -39 21 C-39.825 21.66 -40.65 22.32 -41.5 23 C-44.75117995 25.60094396 -46.87099557 25.40493182 -50.9140625 25.3359375 C-53 25 -53 25 -56 23 C-55.34 22.67 -54.68 22.34 -54 22 C-54.33 21.34 -54.66 20.68 -55 20 C-54.37943989 18.31562256 -53.70710678 16.64991582 -53 15 C-52.64141484 13.67323492 -52.2981424 12.34164079 -52 11 C-52.66 11 -53.32 11 -54 11 C-54 10.34 -54 9.68 -54 9 C-53.34 9 -52.68 9 -52 9 C-52 8.34 -52 7.68 -52 7 C-51.03682861 6.94054199 -51.03682861 6.94054199 -50.05419922 6.87988281 C-33.65940394 5.82591089 -15.89531789 0 0 0 Z " fill="#DCCAB9" transform="translate(275,127)"/>
<path d="M0 0 C2.8125 2.5625 2.8125 2.5625 5 5 C5.66 5.66 6.32 6.32 7 7 C7.4140625 9.3828125 7.4140625 9.3828125 7.625 12.125 C7.69976562 13.03507812 7.77453125 13.94515625 7.8515625 14.8828125 C7.90054688 15.58148438 7.94953125 16.28015625 8 17 C-1.51849334 20.50681333 -10.54452592 21.28422985 -20.625 21.125 C-22.27435547 21.11146484 -22.27435547 21.11146484 -23.95703125 21.09765625 C-26.63825758 21.07434124 -29.31900607 21.0416204 -32 21 C-32.13378245 8.462673 -32.13378245 8.462673 -27.875 3.375 C-19.94682644 -4.24762529 -9.54636491 -5.42832514 0 0 Z " fill="#0C0708" transform="translate(147,85)"/>
<path d="M0 0 C0 0.66 0 1.32 0 2 C0.53625 1.90460938 1.0725 1.80921875 1.625 1.7109375 C13.46159512 0.03668227 25.23130463 1.90427724 36 7 C37.66308396 7.67555456 39.32892999 8.34444889 41 9 C41 9.99 41 10.98 41 12 C33.842693 14.63213924 26.84107849 16.04329854 19.3125 17.1875 C18.21099609 17.36474609 17.10949219 17.54199219 15.97460938 17.72460938 C10.91566581 18.51535553 6.13148321 19.09343767 1 19 C0.67 18.34 0.34 17.68 0 17 C-2.86434404 16.36087308 -5.66879881 15.83055456 -8.5625 15.375 C-9.36880859 15.2409375 -10.17511719 15.106875 -11.00585938 14.96875 C-13.0026124 14.63792701 -15.0011567 14.31794962 -17 14 C-16.67 11.69 -16.34 9.38 -16 7 C-15.34 7 -14.68 7 -14 7 C-12.2856382 5.04072937 -10.61594832 3.04119788 -9 1 C-8.01 1.33 -7.02 1.66 -6 2 C-3 0 -3 0 0 0 Z " fill="#837971" transform="translate(234,107)"/>
<path d="M0 0 C4.05274796 0.97265951 5.03002564 2.64258635 7.2421875 6.0234375 C8.125 7.75 8.125 7.75 8.125 9.75 C12.79982292 11.24594333 17.48101989 11.29799337 22.125 9.75 C22.455 7.77 22.785 5.79 23.125 3.75 C24.775 3.75 26.425 3.75 28.125 3.75 C29.89946722 7.29893444 28.98853579 10.98700098 28.125 14.75 C25.99110706 19.2548851 25.99110706 19.2548851 23.125 20.75 C17.34183404 21.65100049 10.5665008 22.31344785 5.5 18.875 C4.71625 18.17375 3.9325 17.4725 3.125 16.75 C1.8058418 16.05570621 0.47850594 15.37469505 -0.875 14.75 C-1.803125 15.389375 -2.73125 16.02875 -3.6875 16.6875 C-8.7157611 19.94108071 -13.01933708 20.46007208 -18.875 19.75 C-23.06016264 18.20261228 -26.93440397 15.85949747 -28.875 11.75 C-29.10512225 9.03037336 -29.01198293 6.4896586 -28.875 3.75 C-27.555 3.09 -26.235 2.43 -24.875 1.75 C-21.875 3.75 -21.875 3.75 -20.625 7.3125 C-20.0475 8.446875 -19.47 9.58125 -18.875 10.75 C-15.28636476 11.8115942 -15.28636476 11.8115942 -11.875 11.75 C-11.875 11.09 -11.875 10.43 -11.875 9.75 C-10.946875 9.151875 -10.01875 8.55375 -9.0625 7.9375 C-5.7530703 6.02022911 -5.7530703 6.02022911 -4.375 3 C-2.875 0.75 -2.875 0.75 0 0 Z " fill="#120C0B" transform="translate(176.875,204.25)"/>
<path d="M0 0 C1.134375 0.020625 2.26875 0.04125 3.4375 0.0625 C3.43226318 1.03485596 3.42702637 2.00721191 3.42163086 3.0090332 C3.4033287 6.66755223 3.39197725 10.32606734 3.38256836 13.98461914 C3.37758512 15.55851933 3.3707961 17.132415 3.36206055 18.70629883 C3.31846006 26.77238856 3.29972282 34.74968165 4.20874023 42.77758789 C4.58744549 46.56019462 4.56003028 50.26406145 4.4375 54.0625 C2.33618615 56.16381385 -2.10396322 55.24764741 -5 55.25 C-5.78955078 55.26224609 -6.57910156 55.27449219 -7.39257812 55.28710938 C-9.45057435 55.29237279 -11.50812009 55.18456285 -13.5625 55.0625 C-14.2225 54.4025 -14.8825 53.7425 -15.5625 53.0625 C-15.2325 51.4125 -14.9025 49.7625 -14.5625 48.0625 C-9.1175 47.5675 -9.1175 47.5675 -3.5625 47.0625 C-3.706875 45.5878125 -3.85125 44.113125 -4 42.59375 C-6.75294078 13.49053279 -6.75294078 13.49053279 -4.5625 1.0625 C-3.5625 0.0625 -3.5625 0.0625 0 0 Z " fill="#867E77" transform="translate(189.5625,294.9375)"/>
<path d="M0 0 C2.31 0 4.62 0 7 0 C6.98952637 0.93158936 6.97905273 1.86317871 6.96826172 2.82299805 C6.93378146 6.34369477 6.90891033 9.86420707 6.89013672 13.38500977 C6.88019839 14.89675767 6.86664302 16.40848699 6.84912109 17.92016602 C6.75171816 26.55178509 6.98725572 34.77695666 8.53637695 43.30712891 C9.17377097 47.00931741 9.35317749 50.25631864 9 54 C5.18894923 56.54070051 2.31435307 56.15363256 -2.0625 55.875 C-3.16174805 55.84019531 -3.16174805 55.84019531 -4.28320312 55.8046875 C-6.41015625 55.6796875 -6.41015625 55.6796875 -10 55 C-11.49609375 52.9453125 -11.49609375 52.9453125 -12 51 C-10 48 -10 48 -7.6171875 47.48828125 C-6.71226562 47.43027344 -5.80734375 47.37226563 -4.875 47.3125 C-3.96492187 47.24675781 -3.05484375 47.18101562 -2.1171875 47.11328125 C-1.06917969 47.05720703 -1.06917969 47.05720703 0 47 C-0.06058594 46.3201001 -0.12117187 45.6402002 -0.18359375 44.93969727 C-0.45977739 41.81430759 -0.72992606 38.68842332 -1 35.5625 C-1.09539062 34.49322266 -1.19078125 33.42394531 -1.2890625 32.32226562 C-2.04538598 23.48948783 -2.36526978 15.2264242 -1 6.4375 C-0.814375 5.21933594 -0.62875 4.00117188 -0.4375 2.74609375 C-0.293125 1.83988281 -0.14875 0.93367188 0 0 Z " fill="#847D75" transform="translate(158,295)"/>
<path d="M0 0 C2.29492916 1.79486677 4.38004748 3.74398901 6.5 5.7421875 C9.11210508 8.1012449 11.82485544 10.14164261 14.6875 12.1875 C18.6061959 14.98892726 22.45065505 17.73843977 26 21 C26 21.66 26 22.32 26 23 C26.99 23.33 27.98 23.66 29 24 C28.67 25.98 28.34 27.96 28 30 C25.41806023 30.67250524 22.83467929 31.33817901 20.25 32 C19.52039063 32.19078125 18.79078125 32.3815625 18.0390625 32.578125 C14.55428354 33.46515964 11.61876278 34 8 34 C7.34 31.36 6.68 28.72 6 26 C9.96 25.505 9.96 25.505 14 25 C14 24.01 14 23.02 14 22 C13.071875 21.5359375 13.071875 21.5359375 12.125 21.0625 C10.75 20.375 9.375 19.6875 8 19 C8 18.34 8 17.68 8 17 C7.29488281 16.75765625 6.58976563 16.5153125 5.86328125 16.265625 C2.55510855 14.80334948 0.02856495 12.98634029 -2.8125 10.75 C-3.78832031 10.00234375 -4.76414063 9.2546875 -5.76953125 8.484375 C-8 6 -8 6 -8.32421875 2.703125 C-8.21722656 1.81109375 -8.11023438 0.9190625 -8 0 C-4.84227634 -1.57886183 -3.39475669 -1.04928843 0 0 Z " fill="#867C73" transform="translate(245,245)"/>
<path d="M0 0 C1.04973814 4.19895255 0.72795155 6.79405774 0 11 C4.62 11 9.24 11 14 11 C14 11.33 14 11.66 14 12 C9.38 12 4.76 12 0 12 C0.33 13.65 0.66 15.3 1 17 C5.29 17 9.58 17 14 17 C14 17.33 14 17.66 14 18 C9.71 18 5.42 18 1 18 C1.020625 19.0725 1.04125 20.145 1.0625 21.25 C0.96432964 27.1402214 0.96432964 27.1402214 0 29 C-4.32182562 31.0580122 -8.25838192 31.36473985 -13 31 C-13.66 30.34 -14.32 29.68 -15 29 C-17.13190374 28.3963783 -17.13190374 28.3963783 -19.5 28 C-23.77777778 27.22222222 -23.77777778 27.22222222 -26 25 C-25.67 24.67 -25.34 24.34 -25 24 C-25.66 23.67 -26.32 23.34 -27 23 C-27 20.8125 -27 20.8125 -26 18 C-20.08472345 12.71737335 -11.13386728 9.28026219 -3.3125 8.75 C-2.549375 8.8325 -1.78625 8.915 -1 9 C-0.67 6.03 -0.34 3.06 0 0 Z " fill="#84796D" transform="translate(115,95)"/>
<path d="M0 0 C2.64 0 5.28 0 8 0 C8.495 3.465 8.495 3.465 9 7 C4.17669378 9.22518509 -0.24467475 10.63691199 -5.5 11.625 C-7.37171875 11.98464844 -7.37171875 11.98464844 -9.28125 12.3515625 C-10.5084375 12.56554687 -11.735625 12.77953125 -13 13 C-14.08410156 13.19207031 -15.16820312 13.38414063 -16.28515625 13.58203125 C-21.18337485 14.13314523 -26.01342317 14.10625461 -30.9375 14.0625 C-31.90751953 14.05798828 -32.87753906 14.05347656 -33.87695312 14.04882812 C-36.2513676 14.0371315 -38.62565021 14.02074086 -41 14 C-40.67 11.36 -40.34 8.72 -40 6 C-39.07251953 5.91435791 -38.14503906 5.82871582 -37.18945312 5.74047852 C-33.71539859 5.41907205 -30.24145508 5.0965114 -26.76757812 4.77319336 C-25.27022456 4.63406587 -23.7728294 4.49538515 -22.27539062 4.35717773 C-20.11056338 4.15729202 -17.9458958 3.95574628 -15.78125 3.75390625 C-14.48251953 3.63345947 -13.18378906 3.5130127 -11.84570312 3.38891602 C-7.88628923 2.98850043 -3.94674676 2.50870034 0 2 C0 1.34 0 0.68 0 0 Z " fill="#120806" transform="translate(156,107)"/>
<path d="M0 0 C0.33 0.99 0.66 1.98 1 3 C2.98 2.67 4.96 2.34 7 2 C7.33 3.65 7.66 5.3 8 7 C5.69 7 3.38 7 1 7 C0.67 9.64 0.34 12.28 0 15 C-0.66 15 -1.32 15 -2 15 C-2.33 16.32 -2.66 17.64 -3 19 C-3 18.01 -3 17.02 -3 16 C-3.88751953 16.05220703 -3.88751953 16.05220703 -4.79296875 16.10546875 C-9.75663436 16.27551276 -12.92617376 16.18267675 -17 13 C-18.73219928 11.26780072 -18.21291761 8.97973192 -18.25 6.625 C-18.28867188 5.15933594 -18.28867188 5.15933594 -18.328125 3.6640625 C-18 1 -18 1 -16.58984375 -0.8046875 C-11.69827656 -4.48237684 -4.8039701 -3.20264673 0 0 Z " fill="#87786B" transform="translate(241,274)"/>
<path d="M0 0 C-0.33 2.64 -0.66 5.28 -1 8 C-1.55872803 8.10022461 -2.11745605 8.20044922 -2.69311523 8.30371094 C-5.27686001 8.77411302 -7.85703274 9.26195115 -10.4375 9.75 C-11.31599609 9.90726563 -12.19449219 10.06453125 -13.09960938 10.2265625 C-18.87986545 11.33568913 -25.10145649 12.5710901 -30 16 C-30.79632751 18.05573287 -30.79632751 18.05573287 -31 20 C-30.01 20 -29.02 20 -28 20 C-28.33 20.99 -28.66 21.98 -29 23 C-30.32 23 -31.64 23 -33 23 C-33 23.66 -33 24.32 -33 25 C-34.65 25.33 -36.3 25.66 -38 26 C-37.67 25.34 -37.34 24.68 -37 24 C-36.34 24 -35.68 24 -35 24 C-35.680625 23.319375 -36.36125 22.63875 -37.0625 21.9375 C-39 19 -39 19 -39.25 15.5 C-37.4591194 10.48553431 -34.66545301 9.2242276 -30 7 C-29.26523438 6.64035156 -28.53046875 6.28070313 -27.7734375 5.91015625 C-19.3509862 2.17779907 -9.24426255 -0.35216238 0 0 Z " fill="#EEE5D8" transform="translate(115,96)"/>
<path d="M0 0 C4.10822237 2.90581582 6.67261632 5.83089626 7.5625 10.8125 C7.62993348 12.89484592 7.64764472 14.97918557 7.625 17.0625 C7.61597656 18.14015625 7.60695312 19.2178125 7.59765625 20.328125 C7.58605469 21.14796875 7.57445312 21.9678125 7.5625 22.8125 C5.9125 22.8125 4.2625 22.8125 2.5625 22.8125 C2.2273342 20.68778825 1.89442171 18.56272095 1.5625 16.4375 C1.376875 15.25414062 1.19125 14.07078125 1 12.8515625 C0.5625 9.8125 0.5625 9.8125 0.5625 7.8125 C-5.0901305 4.79776373 -11.21126007 5.40063958 -17.375 6.1875 C-20.97472268 9.02364514 -21.44165164 13.49267131 -22.4375 17.8125 C-22.7697767 19.14609705 -23.10270808 20.47953216 -23.4375 21.8125 C-24.7575 21.8125 -26.0775 21.8125 -27.4375 21.8125 C-27.94240446 14.96823949 -27.68739161 9.44003231 -23.4375 3.8125 C-16.45185195 -1.74750559 -8.4615549 -2.9230826 0 0 Z " fill="#1C1513" transform="translate(222.4375,173.1875)"/>
<path d="M0 0 C6.26838737 4.37329352 6.26838737 4.37329352 7.6875 7.875 C8.10472487 12.91338638 7.97616696 17.8329505 7.6875 22.875 C6.0375 22.875 4.3875 22.875 2.6875 22.875 C2.67332031 22.06675781 2.65914062 21.25851563 2.64453125 20.42578125 C2.61253016 13.42714381 2.61253016 13.42714381 -0.8125 7.6875 C-1.6375 7.089375 -2.4625 6.49125 -3.3125 5.875 C-3.6425 5.545 -3.9725 5.215 -4.3125 4.875 C-8.47567891 4.43588174 -12.1270456 4.1454896 -15.75 6.375 C-16.265625 6.87 -16.78125 7.365 -17.3125 7.875 C-17.9725 7.875 -18.6325 7.875 -19.3125 7.875 C-20.88151859 14.86033796 -20.88151859 14.86033796 -22.3125 21.875 C-23.9625 21.875 -25.6125 21.875 -27.3125 21.875 C-27.8178943 15.02409954 -27.55611736 9.5114611 -23.3125 3.875 C-16.51878714 -1.6448917 -8.30633332 -2.82101886 0 0 Z " fill="#160F0E" transform="translate(156.3125,172.125)"/>
<path d="M0 0 C1.35350594 0.62469505 2.6808418 1.30570621 4 2 C5.051875 2.515625 6.10375 3.03125 7.1875 3.5625 C10.14773327 6.1280355 10.5476112 6.71409775 11.1875 10.375 C11.32345917 13.66521194 10.99111898 15.82509203 9.125 18.5625 C5.46773052 21.41517019 3.66054533 21.71013726 -0.84375 21.40234375 C-3.7411624 20.86170339 -5.7192075 19.85314391 -8 18 C-9.4783226 15.04335481 -9.06032783 12.25770263 -9 9 C-7.68 9 -6.36 9 -5 9 C-4.67 7.68 -4.34 6.36 -4 5 C-4.66 4.67 -5.32 4.34 -6 4 C-4.02 2.68 -2.04 1.36 0 0 Z " fill="#DFCFC1" transform="translate(176,218)"/>
<path d="M0 0 C0 1.65 0 3.3 0 5 C-10.01944801 10.5792302 -18.02560678 10.23983637 -29 9 C-29.66 9 -30.32 9 -31 9 C-31 9.66 -31 10.32 -31 11 C-35.35036446 13.17518223 -39.23078436 13.51028645 -44 13 C-45.175625 12.505 -45.175625 12.505 -46.375 12 C-50.48788849 10.43318534 -54.6467985 10.84784927 -59 11 C-58.625 8.5625 -58.625 8.5625 -58 6 C-55.5257021 4.76285105 -54.28500667 5.04418638 -51.5625 5.375 C-50.78003906 5.46523437 -49.99757812 5.55546875 -49.19140625 5.6484375 C-47 6 -47 6 -44 7 C-40.9589647 7.34738418 -38.03606785 7.41597371 -35 7 C-34.175 6.34 -33.35 5.68 -32.5 5 C-29.26753855 2.41403084 -27.20270668 2.59440716 -23.18359375 2.6640625 C-20.7879568 3.03262203 -19.15289519 3.92137777 -17 5 C-10.23440749 4.7494225 -6.38319824 0 0 0 Z " fill="#ABA7A4" transform="translate(266,144)"/>
<path d="M0 0 C3.8034611 2.32433734 6.02419424 2.70733218 10.375 3.0625 C10.375 3.3925 10.375 3.7225 10.375 4.0625 C-0.71630921 6.90688414 -11.25931925 8.08833713 -22.6875 8.3125 C-23.93660156 8.33828125 -25.18570313 8.3640625 -26.47265625 8.390625 C-29.625 8.0625 -29.625 8.0625 -31.578125 6.68359375 C-32.625 5.0625 -32.625 5.0625 -32.3125 2.875 C-31.9721875 1.9778125 -31.9721875 1.9778125 -31.625 1.0625 C-31.109375 1.26875 -30.59375 1.475 -30.0625 1.6875 C-26.59234329 2.22137026 -23.91864209 1.13926761 -20.625 0.0625 C-20.625 -0.2675 -20.625 -0.5975 -20.625 -0.9375 C-5.16119842 -3.18678023 -5.16119842 -3.18678023 0 0 Z " fill="#DCCAB9" transform="translate(225.625,286.9375)"/>
<path d="M0 0 C0.33 0 0.66 0 1 0 C0.67 6.93 0.34 13.86 0 21 C0.66 21 1.32 21 2 21 C2.33 20.01 2.66 19.02 3 18 C2.49279908 28.82873964 0.12424249 39.39945425 -2 50 C-4.475 50.495 -4.475 50.495 -7 51 C-8.65053886 47.69892227 -8.67030299 44.00645382 -9.0625 40.375 C-9.15337891 39.59253906 -9.24425781 38.81007813 -9.33789062 38.00390625 C-9.89301302 32.97024001 -10.08690532 28.06368326 -10 23 C-9.01 22.67 -8.02 22.34 -7 22 C-7.33 22.99 -7.66 23.98 -8 25 C-8.34820041 26.66362417 -8.68404492 28.32995171 -9 30 C-8.34 30 -7.68 30 -7 30 C-6.34 28.68 -5.68 27.36 -5 26 C-4.67 26.33 -4.34 26.66 -4 27 C-3.86722656 25.70964844 -3.73445312 24.41929687 -3.59765625 23.08984375 C-3.41934123 21.37238852 -3.24095187 19.65494101 -3.0625 17.9375 C-2.93198242 16.66616211 -2.93198242 16.66616211 -2.79882812 15.36914062 C-1.33590383 1.33590383 -1.33590383 1.33590383 0 0 Z " fill="#2A1E18" transform="translate(254,300)"/>
<path d="M0 0 C4.97240403 -0.13941692 9.37682169 0.3430188 14.23828125 1.3671875 C23.49611767 3.22029643 32.80033886 4.18656485 42.1875 5.125 C44.66797455 5.37775951 47.14822936 5.63244392 49.62825012 5.88961792 C51.15276442 6.04723661 52.67756373 6.20213189 54.2026825 6.35379028 C57.85171194 6.72637379 61.41870371 7.20124013 65 8 C64.67 8.66 64.34 9.32 64 10 C59.6657104 10.07487257 55.33432654 10.04908209 51 10 C50.20078125 9.99419922 49.4015625 9.98839844 48.578125 9.98242188 C32.02324031 9.79429819 16.21036488 7.25714738 0 4 C0 2.68 0 1.36 0 0 Z " fill="#D0BEAE" transform="translate(103,275)"/>
<path d="M0 0 C-0.33 1.65 -0.66 3.3 -1 5 C-1.66 5 -2.32 5 -3 5 C-3 5.66 -3 6.32 -3 7 C-11.49896766 8.70479066 -19.594122 9.25785291 -28.25 9.125 C-29.38824219 9.11597656 -30.52648437 9.10695313 -31.69921875 9.09765625 C-34.46637881 9.0744028 -37.2330676 9.04172868 -40 9 C-40.33 7.35 -40.66 5.7 -41 4 C-40.32533691 3.9498877 -39.65067383 3.89977539 -38.95556641 3.84814453 C-35.84486184 3.61344467 -32.73496663 3.36927639 -29.625 3.125 C-28.56410156 3.04636719 -27.50320312 2.96773438 -26.41015625 2.88671875 C-20.54445417 2.41890202 -14.88770839 1.71388248 -9.14648438 0.41015625 C-6.04536507 -0.18241432 -3.14726491 -0.1368376 0 0 Z " fill="#A09D9B" transform="translate(156,103)"/>
<path d="M0 0 C1.98 0.66 3.96 1.32 6 2 C6 2.66 6 3.32 6 4 C6.5775 4.0825 7.155 4.165 7.75 4.25 C11.4529488 5.48431627 13.21530607 7.63484755 15.140625 10.984375 C17.52006091 15.84378637 19.3326396 20.57287351 18 26 C16.24463549 29.8252741 14.21052688 33.42105172 12 37 C11.01 37 10.02 37 9 37 C9.66 35.68 10.32 34.36 11 33 C10.01 33.66 9.02 34.32 8 35 C7.34 33.35 6.68 31.7 6 30 C7.65 30 9.3 30 11 30 C10.77084658 27.43408475 10.51756726 24.87445648 10.25 22.3125 C10.188125 21.59126953 10.12625 20.87003906 10.0625 20.12695312 C9.53555656 15.31859424 8.56936703 12.5160929 5 9 C2.38181544 7.66701026 2.38181544 7.66701026 0 7 C0.66 5.68 1.32 4.36 2 3 C1.34 2.67 0.68 2.34 0 2 C0 1.34 0 0.68 0 0 Z " fill="#E9DDCE" transform="translate(219,166)"/>
<path d="M0 0 C3.375 0.9375 3.375 0.9375 4.8125 2.75 C5.375 4.9375 5.375 4.9375 5.375 8.9375 C6.035 9.2675 6.695 9.5975 7.375 9.9375 C7.45154536 14.45367599 7.47728696 18.52835217 6.375 22.9375 C4.065 22.9375 1.755 22.9375 -0.625 22.9375 C-0.955 20.9575 -1.285 18.9775 -1.625 16.9375 C-2.285 16.9375 -2.945 16.9375 -3.625 16.9375 C-3.625 18.9175 -3.625 20.8975 -3.625 22.9375 C-4.285 22.9375 -4.945 22.9375 -5.625 22.9375 C-7.84038462 16.66057692 -7.84038462 16.66057692 -6.75 13 C-6.37875 12.319375 -6.0075 11.63875 -5.625 10.9375 C-3.315 10.9375 -1.005 10.9375 1.375 10.9375 C1.045 9.6175 0.715 8.2975 0.375 6.9375 C-1.605 7.2675 -3.585 7.5975 -5.625 7.9375 C-6.285 6.2875 -6.945 4.6375 -7.625 2.9375 C-4.95306414 0.26556414 -3.86874355 -0.06670248 0 0 Z " fill="#EDB420" transform="translate(247.625,270.0625)"/>
<path d="M0 0 C0.66 0.33 1.32 0.66 2 1 C0.8553125 2.175625 0.8553125 2.175625 -0.3125 3.375 C-4.61225647 8.51760646 -6.45517854 15.3522762 -6 22 C-5.38359935 24.16876774 -5.38359935 24.16876774 -4.5 26.1875 C-3 29.81944444 -3 29.81944444 -3 32 C-2.360625 32.268125 -1.72125 32.53625 -1.0625 32.8125 C1 34 1 34 2 37 C3.98 37 5.96 37 8 37 C8 37.33 8 37.66 8 38 C6.35 38 4.7 38 3 38 C2.67 39.98 2.34 41.96 2 44 C1.67 43.34 1.34 42.68 1 42 C0.39542969 41.70738281 -0.20914063 41.41476563 -0.83203125 41.11328125 C-3.36937115 39.81032292 -4.8058399 38.32222502 -6.6875 36.1875 C-7.28949219 35.52105469 -7.89148438 34.85460937 -8.51171875 34.16796875 C-10.19984173 31.70889197 -10.78901016 29.968578 -11 27 C-10.34 26.34 -9.68 25.68 -9 25 C-8.68546278 22.3746881 -8.68546278 22.3746881 -8.625 19.375 C-8.07272343 11.28463267 -5.31376769 6.07287736 0 0 Z " fill="#E8B638" transform="translate(197,170)"/>
<path d="M0 0 C8.44304316 -0.38312969 16.46550249 0.16482952 24.8125 1.375 C26.11803833 1.56412964 26.11803833 1.56412964 27.44995117 1.75708008 C33.02956142 2.60687725 38.5029798 3.72162321 44 5 C44 5.33 44 5.66 44 6 C38.72 6 33.44 6 28 6 C28 5.34 28 4.68 28 4 C27.34 4.66 26.68 5.32 26 6 C23.4375 6.6875 23.4375 6.6875 21 7 C20.67 6.67 20.34 6.34 20 6 C20 6.99 20 7.98 20 9 C18.824375 9.433125 18.824375 9.433125 17.625 9.875 C14.90328368 10.84912254 14.90328368 10.84912254 13 13 C12.87625 12.360625 12.7525 11.72125 12.625 11.0625 C12.41875 10.381875 12.2125 9.70125 12 9 C11.34 8.67 10.68 8.34 10 8 C10.33 7.67 10.66 7.34 11 7 C11 5.35 11 3.7 11 2 C7.37 1.67 3.74 1.34 0 1 C0 0.67 0 0.34 0 0 Z " fill="#A39A92" transform="translate(206,103)"/>
<path d="M0 0 C2.3125 -0.3125 2.3125 -0.3125 5 0 C6.8125 2.5 6.8125 2.5 8 5 C10.44480079 4.81171228 10.44480079 4.81171228 13 4 C14.36020151 2.03241727 14.36020151 2.03241727 15 0 C16.65 0 18.3 0 20 0 C19.72139186 3.6219058 19.42061885 6.31649437 17.5 9.4375 C13.7453584 11.784151 10.31142033 11.6532455 6 11 C1.45945946 8.91891892 1.45945946 8.91891892 0 6 C-0.039992 4.00039988 -0.04346799 1.99952758 0 0 Z " fill="#887C71" transform="translate(167,228)"/>
<path d="M0 0 C4.875 2.625 4.875 2.625 6 6 C6.99 6 7.98 6 9 6 C9.28875 6.639375 9.5775 7.27875 9.875 7.9375 C10.82823451 10.15206079 10.82823451 10.15206079 13 11 C13.31532249 13.55411213 13.37953701 16.08082828 13.4609375 18.65234375 C13.75324964 21.17650857 13.75324964 21.17650857 16.0390625 22.31640625 C16.68617188 22.54199219 17.33328125 22.76757812 18 23 C18 24.32 18 25.64 18 27 C14.04 27.495 14.04 27.495 10 28 C9.89042969 27.20335937 9.78085938 26.40671875 9.66796875 25.5859375 C8.80882131 19.84431803 7.94713785 15.09051083 5 10 C5 9.34 5 8.68 5 8 C4.0409375 7.5359375 4.0409375 7.5359375 3.0625 7.0625 C1 6 1 6 0 5 C-0.04063832 3.33382885 -0.042721 1.66611905 0 0 Z " fill="#F0B30F" transform="translate(227,165)"/>
<path d="M0 0 C1.17829199 3.53487596 0.75665474 5.14485405 0.00390625 8.76171875 C-0.22490234 9.87998047 -0.45371094 10.99824219 -0.68945312 12.15039062 C-1.05973633 13.90125977 -1.05973633 13.90125977 -1.4375 15.6875 C-1.68048828 16.86634766 -1.92347656 18.04519531 -2.17382812 19.25976562 C-2.77569172 22.17467364 -3.38468019 25.08790804 -4 28 C-4.66 28 -5.32 28 -6 28 C-6 28.99 -6 29.98 -6 31 C-6.99 31.33 -7.98 31.66 -9 32 C-8.96447021 31.38479492 -8.92894043 30.76958984 -8.89233398 30.13574219 C-8.73445342 27.34080808 -8.58588254 24.54545377 -8.4375 21.75 C-8.38142578 20.78191406 -8.32535156 19.81382812 -8.26757812 18.81640625 C-8.21923828 17.88183594 -8.17089844 16.94726562 -8.12109375 15.984375 C-8.0739624 15.12553711 -8.02683105 14.26669922 -7.97827148 13.38183594 C-7.99933079 11.07335735 -8.33793129 9.20243733 -9 7 C-6.23735711 6.40267181 -3.83967231 6 -1 6 C-0.67 4.02 -0.34 2.04 0 0 Z " fill="#211B19" transform="translate(262,290)"/>
<path d="M0 0 C0 1.65 0 3.3 0 5 C-9.94538179 9.86330853 -15.66567936 10.78974591 -26.0625 7.4375 C-27.37828093 6.96741758 -28.69211261 6.49161725 -30 6 C-30 5.01 -30 4.02 -30 3 C-28.58376784 2.94552953 -27.16691809 2.90699492 -25.75 2.875 C-24.96109375 2.85179687 -24.1721875 2.82859375 -23.359375 2.8046875 C-20.77233275 3.01884663 -19.28333405 3.82571392 -17 5 C-10.23440749 4.7494225 -6.38319824 0 0 0 Z " fill="#979290" transform="translate(266,144)"/>
<path d="M0 0 C10.80448115 -0.76207155 17.33068175 1.03147722 26.125 7.1875 C27.053125 8.0846875 27.053125 8.0846875 28 9 C28 9.66 28 10.32 28 11 C25 11 25 11 22.3125 8.5 C21.549375 7.675 20.78625 6.85 20 6 C19.67 7.32 19.34 8.64 19 10 C18.34 10 17.68 10 17 10 C17 9.34 17 8.68 17 8 C8.45323746 5.87280577 2.99851768 5.15891199 -5.046875 9.22265625 C-5.69140625 9.47917969 -6.3359375 9.73570312 -7 10 C-7.66 9.67 -8.32 9.34 -9 9 C-5.7 7.02 -2.4 5.04 1 3 C0.67 2.01 0.34 1.02 0 0 Z " fill="#EEB92E" transform="translate(208,160)"/>
<path d="M0 0 C3.11400184 2.99423254 5.88449122 6.18667721 8.6328125 9.51171875 C9.95085776 11.12382018 9.95085776 11.12382018 12 12 C11.34 13.32 10.68 14.64 10 16 C2.54446461 16.28675136 2.54446461 16.28675136 -1 14 C-2.484375 12.0546875 -2.484375 12.0546875 -3.75 9.875 C-4.39195312 8.78832031 -4.39195312 8.78832031 -5.046875 7.6796875 C-5.36140625 7.12539062 -5.6759375 6.57109375 -6 6 C-5.36578125 5.71382812 -4.7315625 5.42765625 -4.078125 5.1328125 C-1.58438799 3.77344458 -1.03567876 2.58919691 0 0 Z " fill="#E0CFB8" transform="translate(186,200)"/>
<path d="M0 0 C0.33 0 0.66 0 1 0 C1 2.64 1 5.28 1 8 C-23.98265839 8.20638953 -23.98265839 8.20638953 -34 7 C-33.67 6.34 -33.34 5.68 -33 5 C-29.9453125 4.62109375 -29.9453125 4.62109375 -26.125 4.4375 C-20.97193974 4.20468158 -20.97193974 4.20468158 -16 3 C-13.26134713 2.92948886 -10.54972412 2.90642235 -7.8125 2.9375 C-7.06291016 2.94201172 -6.31332031 2.94652344 -5.54101562 2.95117188 C-3.69397617 2.96293646 -1.84697787 2.98087135 0 3 C0 2.01 0 1.02 0 0 Z " fill="#CAB9AB" transform="translate(222,278)"/>
<path d="M0 0 C6.19229251 3.13257151 7.84336546 7.64406487 10 14 C11.63270558 20.59174415 8.61406855 25.25010543 5.3125 30.875 C4.6628125 31.926875 4.6628125 31.926875 4 33 C3.01 33 2.02 33 1 33 C1.66 31.68 2.32 30.36 3 29 C2.01 29.66 1.02 30.32 0 31 C-0.66 29.35 -1.32 27.7 -2 26 C-0.35 26 1.3 26 3 26 C3 22.37 3 18.74 3 15 C3.33 15 3.66 15 4 15 C4 18.63 4 22.26 4 26 C4.66 26 5.32 26 6 26 C5.96681525 23.12197679 5.89946365 20.2514901 5.8125 17.375 C5.80669922 16.56675781 5.80089844 15.75851563 5.79492188 14.92578125 C5.57316036 8.86429988 4.19204348 6.3458186 0 2 C0 1.34 0 0.68 0 0 Z " fill="#EBCD8F" transform="translate(227,170)"/>
<path d="M0 0 C3.60449522 0.18022476 5.48878148 0.83528744 8.75 2.1875 C10.14352544 2.33603469 11.53987563 2.45943777 12.9375 2.5625 C16.75 3.1875 16.75 3.1875 18.25 5.125 C18.75 7.1875 18.75 7.1875 18.75 9.1875 C17.43 9.1875 16.11 9.1875 14.75 9.1875 C14.75 8.5275 14.75 7.8675 14.75 7.1875 C4.31612375 5.50848543 -5.695283 4.93784835 -16.25 5.1875 C-16.25 4.8575 -16.25 4.5275 -16.25 4.1875 C-15.39535156 3.98253906 -14.54070312 3.77757812 -13.66015625 3.56640625 C-12.55542969 3.29699219 -11.45070312 3.02757812 -10.3125 2.75 C-8.65927734 2.34974609 -8.65927734 2.34974609 -6.97265625 1.94140625 C-3.612116 1.01086928 -3.6359334 0.20976539 0 0 Z " fill="#DED1C3" transform="translate(213.25,153.8125)"/>
<path d="M0 0 C0.66 0 1.32 0 2 0 C2.79706768 3.49992696 3.11863027 6.7142231 3.09765625 10.30078125 C3.09443359 11.27724609 3.09121094 12.25371094 3.08789062 13.25976562 C3.07951172 14.26716797 3.07113281 15.27457031 3.0625 16.3125 C3.05798828 17.33923828 3.05347656 18.36597656 3.04882812 19.42382812 C3.03708184 21.94927882 3.02065565 24.47460905 3 27 C1.35 27.33 -0.3 27.66 -2 28 C-2.33 24.04 -2.66 20.08 -3 16 C-2.34 16 -1.68 16 -1 16 C0.06723961 12.53777385 0.10173486 9.35960734 0.0625 5.75 C0.05347656 4.67234375 0.04445312 3.5946875 0.03515625 2.484375 C0.02355469 1.66453125 0.01195312 0.8446875 0 0 Z " fill="#1D1511" transform="translate(245,295)"/>
<path d="M0 0 C0.66 0.33 1.32 0.66 2 1 C2.18159081 6.26613336 1.88244929 10.01704599 0 15 C-0.36106097 16.66088045 -0.70462173 18.32618981 -1 20 C-2.65 20 -4.3 20 -6 20 C-6.51554714 13.01147209 -5.96146059 7.89881722 -2 2 C-1.34 1.34 -0.68 0.68 0 0 Z " fill="#18110E" transform="translate(135,174)"/>
<path d="M0 0 C6.12541373 -0.24569433 11.80112344 0.685623 17.8125 1.8125 C18.74642578 1.97814453 19.68035156 2.14378906 20.64257812 2.31445312 C31.45364445 4.30260897 41.42758515 6.56689552 49.5 14.4375 C51.30108529 17.51435404 51.32635158 19.49172055 51 23 C49 20 49 20 48.375 17.625 C45.97315524 13.03966001 41.51945012 10.82842936 36.6953125 9.2421875 C34.81144882 8.76619347 32.90663304 8.3745172 31 8 C31 7.34 31 6.68 31 6 C30.40719238 5.95174072 29.81438477 5.90348145 29.20361328 5.85375977 C22.66726256 5.2678167 16.30845056 4.21605794 9.875 2.9375 C8.91851562 2.75123047 7.96203125 2.56496094 6.9765625 2.37304688 C4.65021669 1.91940944 2.32476064 1.46167962 0 1 C0 0.67 0 0.34 0 0 Z " fill="#F6F1E6" transform="translate(232,98)"/>
<path d="M0 0 C0.89203125 0.00902344 1.7840625 0.01804688 2.703125 0.02734375 C3.37859375 0.03894531 4.0540625 0.05054688 4.75 0.0625 C5.41 1.3825 6.07 2.7025 6.75 4.0625 C3.73155328 5.57172336 0.59665215 5.39657047 -2.7421875 5.5859375 C-5.62740833 6.13421934 -6.99669413 7.23839525 -9.25 9.0625 C-9.91 9.0625 -10.57 9.0625 -11.25 9.0625 C-11.9375 6.75 -11.9375 6.75 -12.25 4.0625 C-9.31964701 -0.25591493 -4.81008064 -0.06329053 0 0 Z " fill="#0D0808" transform="translate(148.25,170.9375)"/>
<path d="M0 0 C1.15837573 3.47512718 0.77265943 5.13670286 0.0625 8.6875 C-0.13214844 9.68136719 -0.32679688 10.67523438 -0.52734375 11.69921875 C-0.68332031 12.45847656 -0.83929688 13.21773438 -1 14 C-2.65 14.33 -4.3 14.66 -6 15 C-7.89871493 11.20257014 -7.44192575 6.56682767 -6.3125 2.5625 C-4.46878144 0.36759695 -2.77777966 0.29239786 0 0 Z " fill="#5F534B" transform="translate(253,336)"/>
<path d="M0 0 C0.33 0.99 0.66 1.98 1 3 C0.34 3 -0.32 3 -1 3 C-0.34 3.66 0.32 4.32 1 5 C1.1953125 7.1640625 1.1953125 7.1640625 1.125 9.625 C1.10695312 10.44226563 1.08890625 11.25953125 1.0703125 12.1015625 C1.03550781 13.04128906 1.03550781 13.04128906 1 14 C2.32 14.33 3.64 14.66 5 15 C4.01 15 3.02 15 2 15 C2.33 16.32 2.66 17.64 3 19 C2.01 19.66 1.02 20.32 0 21 C-3.72868641 15.40697039 -4.24262326 10.42312059 -3.58203125 3.91796875 C-3 2 -3 2 0 0 Z " fill="#E3D7C4" transform="translate(194,181)"/>
<path d="M0 0 C0.66 0.66 1.32 1.32 2 2 C3.31747324 2.69748583 4.64914193 3.36959957 6 4 C4.02 4.33 2.04 4.66 0 5 C0 5.66 0 6.32 0 7 C-4.49656104 9.24828052 -8.07872966 9.16682272 -13 9 C-13 7.68 -13 6.36 -13 5 C-12.09507812 4.83564453 -12.09507812 4.83564453 -11.171875 4.66796875 C-5.06315013 3.49202872 -5.06315013 3.49202872 0 0 Z " fill="#9E9C9C" transform="translate(235,148)"/>
<path d="M0 0 C-2.3603352 6.53631285 -2.3603352 6.53631285 -5 9 C-7.70136003 9.64190733 -10.20998895 9.81704846 -13 10 C-13 7.8125 -13 7.8125 -12 5 C-8.11868784 1.71376316 -5.13321526 0 0 0 Z " fill="#DA601F" transform="translate(101,108)"/>
<path d="M0 0 C1.65 0 3.3 0 5 0 C6.19287411 3.87684087 7 6.91621923 7 11 C6.01 10.67 5.02 10.34 4 10 C4 8.68 4 7.36 4 6 C3.34 6 2.68 6 2 6 C2 7.98 2 9.96 2 12 C1.34 12 0.68 12 0 12 C-2.21538462 5.72307692 -2.21538462 5.72307692 -1.125 2.0625 C-0.75375 1.381875 -0.3825 0.70125 0 0 Z " fill="#C4B096" transform="translate(242,281)"/>
<path d="M0 0 C-1.22976562 0.50660156 -1.22976562 0.50660156 -2.484375 1.0234375 C-3.56203125 1.46945313 -4.6396875 1.91546875 -5.75 2.375 C-6.81734375 2.81585938 -7.8846875 3.25671875 -8.984375 3.7109375 C-9.97953125 4.13632813 -10.9746875 4.56171875 -12 5 C-12.7734375 5.33 -13.546875 5.66 -14.34375 6 C-16.30093019 6.92513145 -16.30093019 6.92513145 -16.75 9.625 C-16.8325 10.40875 -16.915 11.1925 -17 12 C-17.33 11.34 -17.66 10.68 -18 10 C-18.99 10 -19.98 10 -21 10 C-21.0625 7.75 -21.0625 7.75 -20 5 C-14.70296173 1.58815221 -6.10073841 -2.03357947 0 0 Z " fill="#AF9B85" transform="translate(105,106)"/>
<path d="M0 0 C1.04973814 4.19895255 0.72795155 6.79405774 0 11 C4.62 11 9.24 11 14 11 C14 11.33 14 11.66 14 12 C9.38 12 4.76 12 0 12 C0.33 12.99 0.66 13.98 1 15 C-2.34373475 14.44271087 -5.03312999 13.64826111 -8 12 C-7.67 11.01 -7.34 10.02 -7 9 C-5.02 9 -3.04 9 -1 9 C-0.67 6.03 -0.34 3.06 0 0 Z " fill="#A67555" transform="translate(115,95)"/>
<path d="M0 0 C0.33 0 0.66 0 1 0 C1 2.64 1 5.28 1 8 C-4.94 7.67 -10.88 7.34 -17 7 C-16.01 6.67 -15.02 6.34 -14 6 C-14 5.34 -14 4.68 -14 4 C-9.38 3.67 -4.76 3.34 0 3 C0 2.01 0 1.02 0 0 Z " fill="#BCB1A9" transform="translate(222,278)"/>
<path d="M0 0 C0 0.66 0 1.32 0 2 C0.5775 2.061875 1.155 2.12375 1.75 2.1875 C4.88690987 3.32027301 6.09167504 5.34197595 8 8 C4.44961249 6.29231921 1.20601621 4.25801816 -2.09765625 2.12109375 C-5.8636175 -0.09827151 -9.40340892 -0.2655828 -13.6875 -0.5625 C-14.86699219 -0.64628906 -16.04648438 -0.73007813 -17.26171875 -0.81640625 C-18.61716797 -0.90728516 -18.61716797 -0.90728516 -20 -1 C-20 -0.34 -20 0.32 -20 1 C-22.64 1 -25.28 1 -28 1 C-21.65396174 -5.34603826 -7.46390893 -3.73195446 0 0 Z " fill="#EACA8A" transform="translate(228,161)"/>
<path d="M0 0 C6.9623068 0.82459556 13.88558215 1.85730238 20.8125 2.9375 C22.50922852 3.19176758 22.50922852 3.19176758 24.24023438 3.45117188 C25.32240234 3.62068359 26.40457031 3.79019531 27.51953125 3.96484375 C28.50026611 4.1155835 29.48100098 4.26632324 30.49145508 4.42163086 C33 5 33 5 36 7 C34.68 7.33 33.36 7.66 32 8 C32 7.34 32 6.68 32 6 C30.72898438 6.02707031 29.45796875 6.05414063 28.1484375 6.08203125 C22.89116663 6.07894237 17.81742396 5.46520284 12.625 4.6875 C11.73683594 4.56955078 10.84867188 4.45160156 9.93359375 4.33007812 C9.08152344 4.20439453 8.22945312 4.07871094 7.3515625 3.94921875 C6.58666504 3.83924561 5.82176758 3.72927246 5.03369141 3.6159668 C2.6462673 2.89286103 1.60025159 1.8773528 0 0 Z " fill="#C9662F" transform="translate(201,118)"/>
<path d="M0 0 C0.66 0.33 1.32 0.66 2 1 C2.1799928 6.21979128 1.97094808 10.07262981 0 15 C-0.33 15 -0.66 15 -1 15 C-1.33 13.35 -1.66 11.7 -2 10 C-2.99 9.67 -3.98 9.34 -5 9 C-3.7508258 5.54074837 -2.32472205 2.85306797 0 0 Z " fill="#241C19" transform="translate(135,174)"/>
<path d="M0 0 C0.99 0.33 1.98 0.66 3 1 C4.1875 4.5625 4.1875 4.5625 5 8 C6.65 8.33 8.3 8.66 10 9 C10 9.99 10 10.98 10 12 C11.423125 11.9071875 11.423125 11.9071875 12.875 11.8125 C13.90625 11.874375 14.9375 11.93625 16 12 C16.99 13.485 16.99 13.485 18 15 C11.10229112 13.83505361 6.08186209 12.08186209 1 7 C0.59952556 4.67724823 0.2602896 2.34260643 0 0 Z " fill="#EFE6DA" transform="translate(100,275)"/>
<path d="M0 0 C2.6875 -0.3125 2.6875 -0.3125 5 0 C4.67 2.31 4.34 4.62 4 7 C0.37 7 -3.26 7 -7 7 C-5.68 6.34 -4.36 5.68 -3 5 C-2.525625 4.13375 -2.05125 3.2675 -1.5625 2.375 C-1.046875 1.59125 -0.53125 0.8075 0 0 Z " fill="#8C8379" transform="translate(182,228)"/>
<path d="M0 0 C2 2 2 2 2 6 C0.37446717 7.70680947 -1.29115995 9.37660195 -3 11 C-3 11.66 -3 12.32 -3 13 C-3.99 13 -4.98 13 -6 13 C-6 13.99 -6 14.98 -6 16 C-6.99 16.33 -7.98 16.66 -9 17 C-9 16.34 -9 15.68 -9 15 C-8.34 15 -7.68 15 -7 15 C-6.67 12.36 -6.34 9.72 -6 7 C-5.195625 6.773125 -4.39125 6.54625 -3.5625 6.3125 C-2.716875 5.879375 -1.87125 5.44625 -1 5 C-0.10613836 2.45224694 -0.10613836 2.45224694 0 0 Z " fill="#E6CA9E" transform="translate(247,187)"/>
<path d="M0 0 C5.94 0 11.88 0 18 0 C18 0.99 18 1.98 18 3 C5.33029613 3.18451025 5.33029613 3.18451025 0 2 C0 1.34 0 0.68 0 0 Z " fill="#E75C13" transform="translate(116,122)"/>
<path d="M0 0 C1.98 0 3.96 0 6 0 C6 1.98 6 3.96 6 6 C4.35 6.33 2.7 6.66 1 7 C0.67 4.69 0.34 2.38 0 0 Z " fill="#E9C777" transform="translate(246,344)"/>
<path d="M0 0 C0.33 0.66 0.66 1.32 1 2 C1.66 2.33 2.32 2.66 3 3 C3.07654536 7.51617599 3.10228696 11.59085217 2 16 C-0.31 16 -2.62 16 -5 16 C-5 15.67 -5 15.34 -5 15 C-3.35 15 -1.7 15 0 15 C0 10.05 0 5.1 0 0 Z " fill="#D9AF57" transform="translate(252,277)"/>
<path d="M0 0 C5.875 4.625 5.875 4.625 7 8 C6.34 8 5.68 8 5 8 C5 9.65 5 11.3 5 13 C2.47368858 9.87218586 0.57626634 6.70422589 -1 3 C-0.67 2.01 -0.34 1.02 0 0 Z " fill="#8E8781" transform="translate(65,157)"/>
<path d="M0 0 C0.99 0 1.98 0 3 0 C5.98479194 4.47718792 7 8.63824093 7 14 C8.32 14.33 9.64 14.66 11 15 C9 16 9 16 6.921875 15.3515625 C5 14 5 14 4.390625 11.8359375 C4.34421875 11.02382812 4.2978125 10.21171875 4.25 9.375 C4.19328125 8.55773437 4.1365625 7.74046875 4.078125 6.8984375 C4.05234375 6.27195313 4.0265625 5.64546875 4 5 C3.01 4.67 2.02 4.34 1 4 C0.3125 1.9375 0.3125 1.9375 0 0 Z " fill="#E8C88D" transform="translate(236,171)"/>
<path d="M0 0 C2.66666667 0.66666667 5.33333333 1.33333333 8 2 C8 2.99 8 3.98 8 5 C5.33333333 5.66666667 2.66666667 6.33333333 0 7 C-0.74765625 7.18691406 -1.4953125 7.37382812 -2.265625 7.56640625 C-2.83796875 7.70949219 -3.4103125 7.85257813 -4 8 C-2.625 6.5 -2.625 6.5 -1 5 C-0.34 5 0.32 5 1 5 C0.67 3.35 0.34 1.7 0 0 Z " fill="#DCCFC1" transform="translate(208,144)"/>
<path d="M0 0 C0.66 0 1.32 0 2 0 C2 0.66 2 1.32 2 2 C6.29 2 10.58 2 15 2 C15 2.33 15 2.66 15 3 C10.71 3 6.42 3 2 3 C2 5.31 2 7.62 2 10 C1.67 9.34 1.34 8.68 1 8 C0.34 7.67 -0.32 7.34 -1 7 C-0.67 4.69 -0.34 2.38 0 0 Z " fill="#70675E" transform="translate(114,110)"/>
<path d="M0 0 C2.47960136 0.14024219 4.95852402 0.2869185 7.4375 0.4375 C8.14455078 0.47681641 8.85160156 0.51613281 9.58007812 0.55664062 C14.88671875 0.88671875 14.88671875 0.88671875 16 2 C17.34747084 2.23075082 18.70377565 2.41153063 20.0625 2.5625 C21.361875 2.706875 22.66125 2.85125 24 3 C21 5 21 5 18.73168945 4.85986328 C17.86761475 4.68181152 17.00354004 4.50375977 16.11328125 4.3203125 C15.17548828 4.13339844 14.23769531 3.94648437 13.27148438 3.75390625 C11.80678711 3.44259766 11.80678711 3.44259766 10.3125 3.125 C9.32443359 2.92519531 8.33636719 2.72539063 7.31835938 2.51953125 C4.87641687 2.02406466 2.43742147 1.51717266 0 1 C0 0.67 0 0.34 0 0 Z " fill="#B3956F" transform="translate(195,116)"/>
<path d="M0 0 C0.33 0 0.66 0 1 0 C1.10477512 5.78591511 0.99250545 11.29309366 0 17 C-0.33 16.01 -0.66 15.02 -1 14 C-1.66 14 -2.32 14 -3 14 C-3.125 11.125 -3.125 11.125 -3 8 C-2.34 7.34 -1.68 6.68 -1 6 C-0.60235737 4.01178687 -0.26224651 2.01055661 0 0 Z " fill="#1B130F" transform="translate(248,316)"/>
<path d="M0 0 C0.66 0 1.32 0 2 0 C2 2.31 2 4.62 2 7 C0.02 7 -1.96 7 -4 7 C-4 5.35 -4 3.7 -4 2 C-3.01 2 -2.02 2 -1 2 C-0.67 1.34 -0.34 0.68 0 0 Z " fill="#958C85" transform="translate(216,112)"/>
<path d="M0 0 C1.32 0 2.64 0 4 0 C1.6396648 6.53631285 1.6396648 6.53631285 -1 9 C-3.70136003 9.64190733 -6.20998895 9.81704846 -9 10 C-8.67 9.01 -8.34 8.02 -8 7 C-6.02 7 -4.04 7 -2 7 C-1.67 6.01 -1.34 5.02 -1 4 C-0.34 4 0.32 4 1 4 C0.67 2.68 0.34 1.36 0 0 Z " fill="#B56C43" transform="translate(97,108)"/>
<path d="M0 0 C0.66 0.33 1.32 0.66 2 1 C2 2.98 2 4.96 2 7 C3.65 7 5.3 7 7 7 C6.01 7.495 6.01 7.495 5 8 C5 8.66 5 9.32 5 10 C5.66 10.33 6.32 10.66 7 11 C5.35 11.33 3.7 11.66 2 12 C2 11.01 2 10.02 2 9 C1.01 8.67 0.02 8.34 -1 8 C-0.34 8 0.32 8 1 8 C0.67 5.36 0.34 2.72 0 0 Z " fill="#999491" transform="translate(154,94)"/>
<path d="M0 0 C0.96661363 3.12180401 0.98988909 5.52083795 0.5625 8.75 C0.40974609 9.94882812 0.40974609 9.94882812 0.25390625 11.171875 C0.12822266 12.07679688 0.12822266 12.07679688 0 13 C-0.99 13.33 -1.98 13.66 -3 14 C-2.88617347 12.04098546 -2.75858875 10.0827662 -2.625 8.125 C-2.55539063 7.03445313 -2.48578125 5.94390625 -2.4140625 4.8203125 C-2 2 -2 2 0 0 Z " fill="#0E0806" transform="translate(254,323)"/>
<path d="M0 0 C0.66 0 1.32 0 2 0 C2.125 6.625 2.125 6.625 1 10 C0.01 10.33 -0.98 10.66 -2 11 C-1.125 3.375 -1.125 3.375 0 0 Z " fill="#060203" transform="translate(255,311)"/>
<path d="M0 0 C0.33 0 0.66 0 1 0 C1 1.98 1 3.96 1 6 C-2.3 6 -5.6 6 -9 6 C-9 5.34 -9 4.68 -9 4 C-4.545 3.505 -4.545 3.505 0 3 C0 2.01 0 1.02 0 0 Z " fill="#A19993" transform="translate(222,278)"/>
<path d="M0 0 C0 1.65 0 3.3 0 5 C-1.98 5 -3.96 5 -6 5 C-6.33 5.99 -6.66 6.98 -7 8 C-7.66 7.67 -8.32 7.34 -9 7 C-7.43730605 3.87461209 -6.55005816 2.27502908 -3.375 0.6875 C-1 0 -1 0 0 0 Z " fill="#D5C9BD" transform="translate(265,149)"/>
<path d="M0 0 C0.33 0 0.66 0 1 0 C1.10841951 1.91541138 1.18578079 3.83259773 1.25 5.75 C1.29640625 6.81734375 1.3428125 7.8846875 1.390625 8.984375 C0.91735478 12.63802112 -0.19155042 13.72228105 -3 16 C-3.66 14.35 -4.32 12.7 -5 11 C-3.35 11 -1.7 11 0 11 C0 7.37 0 3.74 0 0 Z " fill="#CAC0B7" transform="translate(230,185)"/>
<path d="M0 0 C2.875 -0.1875 2.875 -0.1875 6 0 C6.66 0.99 7.32 1.98 8 3 C5.03 3.66 2.06 4.32 -1 5 C-0.67 3.35 -0.34 1.7 0 0 Z " fill="#9C9B9C" transform="translate(208,150)"/>
<path d="M0 0 C1.98073365 0.280828 3.95958448 0.57496614 5.9375 0.875 C7.59072266 1.11863281 7.59072266 1.11863281 9.27734375 1.3671875 C10.17582031 1.57601562 11.07429687 1.78484375 12 2 C12.33 2.66 12.66 3.32 13 4 C10.07406105 4.85637238 7.91825712 5.38673104 5.04296875 4.17578125 C3.32488268 3.17852152 1.65798613 2.09427085 0 1 C0 0.67 0 0.34 0 0 Z " fill="#DDD2C7" transform="translate(141,148)"/>
<path d="M0 0 C1.15957207 3.47871621 0.77456651 4.34219645 -0.4375 7.6875 C-0.86869141 8.89986328 -0.86869141 8.89986328 -1.30859375 10.13671875 C-1.53675781 10.75160156 -1.76492188 11.36648437 -2 12 C-4.0234375 8.3203125 -4.0234375 8.3203125 -3.8125 5.4375 C-2.95027053 2.85081159 -2.07804617 1.71664683 0 0 Z " fill="#B1ADAB" transform="translate(335,221)"/>
<path d="M0 0 C2 2 2 2 2.1953125 3.9453125 C2.13020833 5.96354167 2.06510417 7.98177083 2 10 C0.68 9.34 -0.64 8.68 -2 8 C-1.33333333 5.33333333 -0.66666667 2.66666667 0 0 Z " fill="#DBD1C7" transform="translate(222,181)"/>
<path d="M0 0 C6.6 0 13.2 0 20 0 C19.01 0.33 18.02 0.66 17 1 C17 1.66 17 2.32 17 3 C16.01 2.67 15.02 2.34 14 2 C11.60745424 1.77439324 9.21071877 1.59151405 6.8125 1.4375 C5.54019531 1.35371094 4.26789063 1.26992187 2.95703125 1.18359375 C1.98121094 1.12300781 1.00539063 1.06242188 0 1 C0 0.67 0 0.34 0 0 Z " fill="#A4A2A2" transform="translate(282,164)"/>
<path d="M0 0 C-0.33 1.98 -0.66 3.96 -1 6 C-1.99 6 -2.98 6 -4 6 C-4.66 4.35 -5.32 2.7 -6 1 C-3.92446352 0.4465236 -2.15634036 0 0 0 Z " fill="#7D756C" transform="translate(269,265)"/>
<path d="M0 0 C5.61 0.33 11.22 0.66 17 1 C17 1.33 17 1.66 17 2 C5.47835991 3.51708428 5.47835991 3.51708428 0 1 C0 0.67 0 0.34 0 0 Z " fill="#F5EFE5" transform="translate(213,96)"/>
<path d="M0 0 C0.66 0 1.32 0 2 0 C2.12375 0.61875 2.2475 1.2375 2.375 1.875 C2.87197356 4.19120832 2.87197356 4.19120832 5 6 C3.35 6 1.7 6 0 6 C-0.33 6.66 -0.66 7.32 -1 8 C-1.04241723 5.66705225 -1.04092937 3.33297433 -1 1 C-0.67 0.67 -0.34 0.34 0 0 Z " fill="#322823" transform="translate(255,287)"/>
<path d="M0 0 C0.66 0 1.32 0 2 0 C1.67 2.31 1.34 4.62 1 7 C0.34 7 -0.32 7 -1 7 C-1.33 8.32 -1.66 9.64 -2 11 C-2 10.01 -2 9.02 -2 8 C-2.66 7.67 -3.32 7.34 -4 7 C-2.79618552 4.50638429 -1.54571278 2.31856917 0 0 Z " fill="#8B8077" transform="translate(240,282)"/>
<path d="M0 0 C1.65 0 3.3 0 5 0 C4.01 0.66 3.02 1.32 2 2 C1.42006301 4.19454681 1.42006301 4.19454681 1.3125 6.625 C1.24675781 7.44226563 1.18101562 8.25953125 1.11328125 9.1015625 C1.05720703 10.04128906 1.05720703 10.04128906 1 11 C-0.625 9.4375 -0.625 9.4375 -2 7 C-1.1875 3.25 -1.1875 3.25 0 0 Z " fill="#C9BDB3" transform="translate(242,281)"/>
<path d="M0 0 C0.66 0 1.32 0 2 0 C3.125 4.75 3.125 4.75 2 7 C1.01 7 0.02 7 -1 7 C-1.625 5.1875 -1.625 5.1875 -2 3 C-1.34 2.01 -0.68 1.02 0 0 Z " fill="#060103" transform="translate(227,188)"/>
<path d="M0 0 C0.99 0.495 0.99 0.495 2 1 C3.11421833 4.64653273 2.94296589 7.33291043 2 11 C1.34 11 0.68 11 0 11 C0 7.37 0 3.74 0 0 Z " fill="#EEE5D9" transform="translate(231,185)"/>
<path d="M0 0 C0.33 0 0.66 0 1 0 C0.88570603 1.77155654 0.75816963 3.54226229 0.625 5.3125 C0.52058594 6.79169922 0.52058594 6.79169922 0.4140625 8.30078125 C0 11 0 11 -2 14 C-2 10.33333333 -2 6.66666667 -2 3 C-1.34 3 -0.68 3 0 3 C0 2.01 0 1.02 0 0 Z " fill="#3B312D" transform="translate(256,318)"/>
<path d="M0 0 C-0.66 0 -1.32 0 -2 0 C-2 2.64 -2 5.28 -2 8 C-2.66 8 -3.32 8 -4 8 C-4.66 5.36 -5.32 2.72 -6 0 C-3 -1 -3 -1 0 0 Z " fill="#A18064" transform="translate(257,271)"/>
<path d="M0 0 C1.8871875 0.0309375 1.8871875 0.0309375 3.8125 0.0625 C4.4725 1.3825 5.1325 2.7025 5.8125 4.0625 C4.39568366 3.75067931 2.97905349 3.43801263 1.5625 3.125 C0.77359375 2.95097656 -0.0153125 2.77695313 -0.828125 2.59765625 C-2.95628703 2.114944 -5.07282842 1.60086822 -7.1875 1.0625 C-4.43671116 0.14557039 -2.82801087 -0.04636083 0 0 Z " fill="#DCCFC3" transform="translate(163.1875,147.9375)"/>
<path d="M0 0 C0 1.65 0 3.3 0 5 C-1.32 5.33 -2.64 5.66 -4 6 C-3.67 4.68 -3.34 3.36 -3 2 C-3.99 1.67 -4.98 1.34 -6 1 C-4 0 -4 0 0 0 Z " fill="#A49F9C" transform="translate(266,144)"/>
<path d="M0 0 C0 0.66 0 1.32 0 2 C-0.66 2 -1.32 2 -2 2 C-2 2.99 -2 3.98 -2 5 C-4.475 4.01 -4.475 4.01 -7 3 C-7 2.34 -7 1.68 -7 1 C-4 0 -4 0 0 0 Z " fill="#E5D3C2" transform="translate(223,134)"/>
<path d="M0 0 C0.33 0.66 0.66 1.32 1 2 C1.66 2 2.32 2 3 2 C3 2.66 3 3.32 3 4 C4.32 4.66 5.64 5.32 7 6 C4.69 6 2.38 6 0 6 C-1.125 2.25 -1.125 2.25 0 0 Z " fill="#B8AA9E" transform="translate(158,210)"/>
<path d="M0 0 C0 3.9519815 -1.37176172 5.14648416 -4 8 C-4.99 8.33 -5.98 8.66 -7 9 C-7 8.34 -7 7.68 -7 7 C-6.01 6.34 -5.02 5.68 -4 5 C-3.835 4.319375 -3.67 3.63875 -3.5 2.9375 C-3.335 2.298125 -3.17 1.65875 -3 1 C-2.01 0.67 -1.02 0.34 0 0 Z " fill="#EBBC41" transform="translate(237,202)"/>
<path d="M0 0 C1.5 1 1.5 1 3 3 C3.27345479 5.71846235 3.13491285 8.25677199 3 11 C0.43383368 7.15075052 0.44902324 4.5650696 0 0 Z " fill="#A99B91" transform="translate(156,180)"/>
<path d="M0 0 C2.32472205 2.85306797 3.7508258 5.54074837 5 9 C1.125 7.125 1.125 7.125 0 6 C-0.04080783 4.00041636 -0.04254356 1.99954746 0 0 Z " fill="#908378" transform="translate(237,245)"/>
<path d="M0 0 C2.0625 0.4375 2.0625 0.4375 4 1 C3.67 1.66 3.34 2.32 3 3 C3.66 3.33 4.32 3.66 5 4 C3.02 4.99 3.02 4.99 1 6 C1 5.01 1 4.02 1 3 C0.34 2.34 -0.32 1.68 -1 1 C-0.67 0.67 -0.34 0.34 0 0 Z " fill="#EDB623" transform="translate(200,162)"/>
<path d="M0 0 C0.66 0 1.32 0 2 0 C2 0.66 2 1.32 2 2 C2.99 1.67 3.98 1.34 5 1 C5 2.65 5 4.3 5 6 C4.01 6.495 4.01 6.495 3 7 C2.01 4.69 1.02 2.38 0 0 Z " fill="#989089" transform="translate(56,143)"/>
<path d="M0 0 C0.33 0 0.66 0 1 0 C1.125 2.375 1.125 2.375 1 5 C0.34 5.66 -0.32 6.32 -1 7 C-1.99 6.67 -2.98 6.34 -4 6 C-2.69593116 3.98079663 -1.36176581 1.98075027 0 0 Z " fill="#8E7664" transform="translate(100,110)"/>
</svg>
