<?xml version="1.0" encoding="UTF-8"?>
<svg version="1.1" xmlns="http://www.w3.org/2000/svg" width="360" height="360">
<path d="M0 0 C1.20527344 -0.01417969 2.41054687 -0.02835937 3.65234375 -0.04296875 C7.0625 0.1875 7.0625 0.1875 9.40350342 1.18395996 C12.44086327 2.33029924 14.77543619 2.45172506 18.01660156 2.47460938 C19.19683899 2.48802368 20.37707642 2.50143799 21.59307861 2.51525879 C22.86689392 2.52053589 24.14070923 2.52581299 25.453125 2.53125 C26.79857519 2.54492796 28.14401446 2.55972036 29.48944092 2.57556152 C33.76372712 2.62367007 38.03806071 2.65645139 42.3125 2.6875 C90.42483323 3.04341577 90.42483323 3.04341577 112.8125 7.0625 C113.79927734 7.23467041 114.78605469 7.40684082 115.80273438 7.58422852 C136.98184613 11.42180817 136.98184613 11.42180817 145.0625 18.1875 C147.87728591 22.40967887 147.0225226 25.36297963 146.0625 30.1875 C144.09477319 36.32217771 140.45777805 41.24339908 136.8046875 46.515625 C133.34729204 51.81799831 133.58391915 57.04571247 134.0625 63.1875 C134.84310259 66.60944392 135.86125772 69.89123398 137.0625 73.1875 C137.83851563 72.76597656 138.61453125 72.34445313 139.4140625 71.91015625 C152.62676789 65.20920185 165.85761969 64.76472914 180.1796875 68.78125 C192.06148738 73.3806564 199.47103977 81.76861148 204.80078125 93.015625 C210.18243148 106.54472713 208.38383464 121.99222839 203.22265625 135.36328125 C202.27626254 137.39010727 201.22052651 139.2737484 200.0625 141.1875 C199.60359375 141.97769531 199.1446875 142.76789063 198.671875 143.58203125 C192.76747381 152.91155838 183.84334882 160.35973638 173.0625 163.1875 C167.43241589 164.37741993 162.51235804 164.0145702 156.8125 163.3125 C152.14688874 162.77365645 152.14688874 162.77365645 148.01953125 164.53515625 C146.56884591 166.44908564 145.66192139 167.85951459 145.0625 170.1875 C145.42490958 172.36598424 146.04490236 174.14418273 146.875 176.1875 C147.0625 178.1875 147.0625 178.1875 145.51953125 180.109375 C142.57465797 182.60011043 139.4739545 184.00833488 135.9375 185.4375 C134.98810547 185.8396875 134.98810547 185.8396875 134.01953125 186.25 C129.36360013 188.1875 129.36360013 188.1875 127.0625 188.1875 C126.7325 190.8275 126.4025 193.4675 126.0625 196.1875 C127.3825 196.1875 128.7025 196.1875 130.0625 196.1875 C130.0625 197.1775 130.0625 198.1675 130.0625 199.1875 C130.7225 199.5175 131.3825 199.8475 132.0625 200.1875 C132.0625 199.5275 132.0625 198.8675 132.0625 198.1875 C133.0525 198.1875 134.0425 198.1875 135.0625 198.1875 C134.4579035 204.86988242 133.25615486 211.16071712 131.62890625 217.6640625 C131.39090805 218.63354828 131.15290985 219.60303406 130.90769958 220.60189819 C130.15211564 223.67343822 129.38853093 226.74292704 128.625 229.8125 C128.11604306 231.88008694 127.60757506 233.9477943 127.09960938 236.015625 C126.60981001 238.00271144 126.11958994 239.98969424 125.62890625 241.9765625 C125.4017543 242.89652008 125.17460236 243.81647766 124.94056702 244.76431274 C123.73681022 249.60131027 122.46574786 254.40446091 121.0625 259.1875 C119.7425 259.1875 118.4225 259.1875 117.0625 259.1875 C116.21887549 253.49993164 115.52700568 247.80187159 114.87109375 242.08984375 C114.76152847 241.13735245 114.6519632 240.18486115 114.53907776 239.20350647 C114.30908677 237.19913207 114.07968134 235.1946904 113.85083008 233.19018555 C113.50068434 230.13097901 113.14587455 227.07233479 112.79101562 224.01367188 C112.56741923 222.0599289 112.34410245 220.1061539 112.12109375 218.15234375 C111.96174599 216.78806496 111.96174599 216.78806496 111.79917908 215.39622498 C111.29889919 210.96609951 110.93815618 206.65515954 111.0625 202.1875 C110.48242188 202.35507812 109.90234375 202.52265625 109.3046875 202.6953125 C108.52351562 202.89898437 107.74234375 203.10265625 106.9375 203.3125 C105.78894531 203.62574219 105.78894531 203.62574219 104.6171875 203.9453125 C102.0625 204.1875 102.0625 204.1875 99.50390625 203.22265625 C94.35451045 201.67374605 89.45206357 202.19956524 84.125 202.5 C83.06603516 202.54833984 82.00707031 202.59667969 80.91601562 202.64648438 C71.96316957 202.40674591 71.96316957 202.40674591 64.0625 205.1875 C63.66935291 209.23656787 63.58641973 213.31046549 63.4375 217.375 C63.36994507 219.15898193 63.36994507 219.15898193 63.30102539 220.97900391 C63.06581647 228.13307139 63.11580107 235.06583325 63.80078125 242.19140625 C64.23550801 247.16805441 64.35957648 252.19836259 64.0625 257.1875 C61.96118615 259.28881385 57.52103678 258.37264741 54.625 258.375 C53.83544922 258.38724609 53.04589844 258.39949219 52.23242188 258.41210938 C50.17442565 258.41737279 48.11687991 258.30956285 46.0625 258.1875 C45.4025 257.5275 44.7425 256.8675 44.0625 256.1875 C44.3925 254.5375 44.7225 252.8875 45.0625 251.1875 C48.6925 250.8575 52.3225 250.5275 56.0625 250.1875 C55.90910156 248.57359375 55.75570312 246.9596875 55.59765625 245.296875 C54.90788422 237.01961065 54.71414519 228.73759272 54.5 220.4375 C54.45668522 218.85415829 54.41306744 217.27082485 54.36914062 215.6875 C54.26344127 211.85425271 54.1618163 208.02091776 54.0625 204.1875 C51.97923869 204.16040556 49.89587559 204.14106127 47.8125 204.125 C46.65234375 204.11339844 45.4921875 204.10179687 44.296875 204.08984375 C41.65272872 204.16967908 39.56423909 204.40106222 37.0625 205.1875 C35.70270496 215.7259116 35.798545 226.16376644 36.5625 236.75 C36.91227828 241.6674711 37.20392567 246.5707256 37.3125 251.5 C37.33828125 252.54800781 37.3640625 253.59601563 37.390625 254.67578125 C37.28234375 255.50464844 37.1740625 256.33351563 37.0625 257.1875 C33.25144923 259.72820051 30.37685307 259.34113256 26 259.0625 C24.90075195 259.02769531 24.90075195 259.02769531 23.77929688 258.9921875 C21.65234375 258.8671875 21.65234375 258.8671875 18.0625 258.1875 C16.56640625 256.1328125 16.56640625 256.1328125 16.0625 254.1875 C18.0625 251.1875 18.0625 251.1875 20.4453125 250.67578125 C21.80269531 250.58876953 21.80269531 250.58876953 23.1875 250.5 C24.09757812 250.43425781 25.00765625 250.36851562 25.9453125 250.30078125 C26.99332031 250.24470703 26.99332031 250.24470703 28.0625 250.1875 C28.03220703 249.14408447 28.00191406 248.10066895 27.97070312 247.02563477 C27.85758375 243.11746839 27.74617382 239.20925476 27.63525391 235.30102539 C27.58721047 233.61644192 27.53871672 231.93187123 27.48974609 230.24731445 C27.41903308 227.81204478 27.3499935 225.37673223 27.28125 222.94140625 C27.25937622 222.20040176 27.23750244 221.45939728 27.21496582 220.69593811 C27.08739791 216.10782491 27.06880413 211.53565977 27.15246582 206.94615173 C27.25798824 205.15963566 27.25798824 205.15963566 26.0625 204.1875 C24.40965506 204.05334786 22.75148618 203.9838793 21.09375 203.94140625 C20.05532959 203.90998535 19.01690918 203.87856445 17.94702148 203.84619141 C16.27168335 203.79857666 16.27168335 203.79857666 14.5625 203.75 C-19.56548278 202.55951722 -19.56548278 202.55951722 -25.9375 196.1875 C-25.9140625 193.8046875 -25.9140625 193.8046875 -25.5625 191.0625 C-25.45164063 190.15242187 -25.34078125 189.24234375 -25.2265625 188.3046875 C-25.13117188 187.60601562 -25.03578125 186.90734375 -24.9375 186.1875 C-25.47117188 186.04054688 -26.00484375 185.89359375 -26.5546875 185.7421875 C-41.66436487 181.1935995 -53.99235323 170.57649673 -62.31640625 157.3203125 C-64.98522885 152.16273243 -66.55566889 146.80850789 -67.9375 141.1875 C-68.1118457 140.56810547 -68.28619141 139.94871094 -68.46582031 139.31054688 C-71.66331281 124.91852059 -69.09531775 109.92417969 -61.5 97.5625 C-59.45000638 93.94177076 -59.45000638 93.94177076 -58.9765625 89.91015625 C-59.74375796 87.20648551 -60.79539178 84.7572435 -61.9375 82.1875 C-62.44475801 80.89344665 -62.94414497 79.5962924 -63.4375 78.296875 C-64.59424784 75.2565063 -65.77007881 72.22485753 -66.96484375 69.19921875 C-69.06542533 63.87202523 -71.1349888 58.53338694 -73.1875 53.1875 C-73.51645264 52.34018311 -73.84540527 51.49286621 -74.18432617 50.61987305 C-75.81622492 46.36243794 -77.36910026 42.08039371 -78.796875 37.75 C-79.06467773 36.94691406 -79.33248047 36.14382812 -79.60839844 35.31640625 C-79.9375 33.1875 -79.9375 33.1875 -77.9375 30.1875 C-74.59790135 29.07430045 -72.07228087 29.1875 -68.5625 29.1875 C-63.82173855 29.02007012 -63.82173855 29.02007012 -60.25390625 26.296875 C-59.49153918 24.7035542 -58.76423718 23.09304778 -58.0703125 21.46875 C-54.74011365 14.76241853 -45.44449583 12.58418929 -38.875 10.3046875 C-33.98848935 8.80937543 -28.95572997 8.03515258 -23.88696289 7.43896484 C-19.16160564 6.78387521 -16.25922834 5.37349483 -12.57592773 2.32617188 C-8.78841041 -0.30607083 -4.46715653 0.02383755 0 0 Z M-67.9375 38.1875 C-67.36425337 44.30213073 -65.50067713 49.49696187 -63.25 55.1875 C-62.89421875 56.10362061 -62.5384375 57.01974121 -62.171875 57.96362305 C-61.10273982 60.70855099 -60.02242579 63.44877913 -58.9375 66.1875 C-58.61958496 66.9913916 -58.30166992 67.7952832 -57.97412109 68.62353516 C-56.31190092 72.81831868 -54.6331805 77.00610603 -52.9375 81.1875 C-51.9475 81.1875 -50.9575 81.1875 -49.9375 81.1875 C-49.28913958 79.43843469 -48.64391216 77.68820781 -48 75.9375 C-47.64035156 74.96296875 -47.28070313 73.9884375 -46.91015625 72.984375 C-43.53613445 63.28236853 -43.64797489 52.59297248 -47.9375 43.1875 C-48.25976562 42.46820313 -48.58203125 41.74890625 -48.9140625 41.0078125 C-49.80883924 39.01829782 -49.80883924 39.01829782 -51.9375 38.1875 C-54.65510108 38.11568179 -57.34609388 38.09450494 -60.0625 38.125 C-61.19365234 38.13176758 -61.19365234 38.13176758 -62.34765625 38.13867188 C-64.21097127 38.15046501 -66.07424555 38.16840058 -67.9375 38.1875 Z M157.0625 80.1875 C157.0625 83.8175 157.0625 87.4475 157.0625 91.1875 C155.4125 91.8475 153.7625 92.5075 152.0625 93.1875 C152.49960529 96.57506602 153.53044019 99.26958247 155 102.3125 C160.13749488 113.76444313 159.27905764 125.90386962 159.0625 138.1875 C160.18785156 138.77015625 161.31320312 139.3528125 162.47265625 139.953125 C164.71573271 141.11448876 165.82785546 141.7193466 166.97045898 143.99902344 C167.5 145.9375 167.5 145.9375 168.0625 149.1875 C177.01206694 147.12221532 183.67212102 140.55250612 188.55078125 133.046875 C193.59792651 123.50033668 195.23219071 113.77169635 193.0625 103.1875 C192.05648246 99.94753174 190.74141661 97.12849876 189.0625 94.1875 C188.77117187 93.57390625 188.47984375 92.9603125 188.1796875 92.328125 C184.55591949 85.87952997 176.94985015 82.25898946 170.0625 80.1875 C165.64667815 79.67972582 161.47837067 79.725374 157.0625 80.1875 Z M115.0625 197.1875 C115.0625 200.1875 115.0625 200.1875 115.0625 200.1875 Z " fill="#DCC6B2" transform="translate(129.9375,91.8125)"/>
<path d="M0 0 C7.37435567 0.76377255 7.37435567 0.76377255 10.5 3.5625 C14.06706355 6.31741961 16.45202842 6.56849645 21 6 C22.134375 5.566875 23.26875 5.13375 24.4375 4.6875 C28 4 28 4 29.9375 4.98046875 C31.28046164 5.91686974 32.61896928 6.85968842 33.953125 7.80859375 C37.44716994 9.84234128 40.02287415 9.45639149 44 9 C44.86625 8.649375 45.7325 8.29875 46.625 7.9375 C49.83650599 6.66980027 51.68683069 7.1209959 55 8 C55.99 8.53625 56.98 9.0725 58 9.625 C61.62485516 11.28639195 63.20566965 11.04949563 67 10 C67.78375 9.62875 68.5675 9.2575 69.375 8.875 C73.91453093 7.36182302 78.28737716 8.26601878 82.625 10.125 C85.83964166 11.30934166 87.69966483 10.85808714 91 10 C92.11375 9.46375 93.2275 8.9275 94.375 8.375 C100.97671857 5.87089985 107.41164323 8.23526158 114 10 C112.33817831 13.42139759 110.72286474 15.31862182 107.5625 17.3125 C101.58712043 21.39693667 100.01555404 27.0634404 98.625 33.9375 C97.44706009 42.29876988 99.2096894 49.97626485 104 57 C105.52942264 58.48496536 105.52942264 58.48496536 107.1875 59.75 C110 62 110 62 110.9375 64.25 C110.9684375 65.11625 110.9684375 65.11625 111 66 C110 67 110 67 106.3125 67.375 C103.02040187 67.3396011 101.24009451 66.84081862 98.6875 64.75 C96 62 96 62 94.4375 59.75 C92.52078111 57.41660309 90.92971849 57.31672632 88 57 C87.690625 58.0828125 87.690625 58.0828125 87.375 59.1875 C85.34230405 63.34528718 82.17179512 65.91410244 78 68 C72.66865672 68.45373134 72.66865672 68.45373134 70.25 66.8125 C68.75729191 64.64807327 67.86948482 62.47468755 67 60 C65.68 60 64.36 60 63 60 C62.50927694 67.33050986 62.50927694 67.33050986 65 74 C69.68661579 76.40046174 74.8366269 76.73388044 80 76 C82.84743962 74.93534885 85.38380818 73.53498192 88 72 C89.32911714 71.32496678 90.66139013 70.65600749 92 70 C93.175625 70.9590625 93.175625 70.9590625 94.375 71.9375 C98.30250054 75.02339328 100.34654061 75.15938018 105.3125 75.1875 C107.00826172 75.20876953 107.00826172 75.20876953 108.73828125 75.23046875 C111.98502374 75.0010582 114.15212989 74.55758961 117 73 C118.37189827 69.97017694 118.37189827 69.97017694 119 67 C122.62447925 67 126.1393962 67.2111517 129.75 67.5 C130.92046875 67.5928125 132.0909375 67.685625 133.296875 67.78125 C134.18890625 67.8534375 135.0809375 67.925625 136 68 C135.98259766 69.41925781 135.98259766 69.41925781 135.96484375 70.8671875 C135.87049208 73.86155881 135.87049208 73.86155881 136.5625 76.125 C137.09000994 78.3857569 136.70227228 79.81515292 136 82 C135.01 82 134.02 82 133 82 C132.67 83.32 132.34 84.64 132 86 C131.67 85.34 131.34 84.68 131 84 C130.67 84.66 130.34 85.32 130 86 C129.34 86 128.68 86 128 86 C128.66 87.32 129.32 88.64 130 90 C130.99 89.34 131.98 88.68 133 88 C133 93.94 133 99.88 133 106 C132.34 105.34 131.68 104.68 131 104 C130.01 104 129.02 104 128 104 C128 105.65 128 107.3 128 109 C128.66 109 129.32 109 130 109 C129.835 110.093125 129.67 111.18625 129.5 112.3125 C128.93281816 115.87525873 128.93281816 115.87525873 129 119 C128.67 119.99 128.34 120.98 128 122 C127.34 122 126.68 122 126 122 C126.37125 123.11375 126.37125 123.11375 126.75 124.25 C126.8325 125.1575 126.915 126.065 127 127 C125.66666667 128.33333333 124.33333333 129.66666667 123 131 C123.14025199 133.70705512 123.14025199 133.70705512 124 136 C117.58414985 138.30205355 111.52452261 138.30548313 104.75390625 138.30078125 C102.96541512 138.30890839 102.96541512 138.30890839 101.14079285 138.31719971 C97.28124918 138.32866207 93.42204464 138.32232779 89.5625 138.3125 C88.25631714 138.31200653 86.95013428 138.31151306 85.60437012 138.31100464 C63.8888678 138.28576494 42.44560776 137.66043452 21 134 C21 134.99 21 135.98 21 137 C24.96 137.33 28.92 137.66 33 138 C33 138.66 33 139.32 33 140 C33.76441406 139.98839844 34.52882812 139.97679687 35.31640625 139.96484375 C40.9803346 139.91713316 46.57279555 140.00257027 52.21875 140.46875 C64.43923413 141.32011216 76.69268171 141.36638439 88.9375 141.5625 C91.47070892 141.60578193 94.00391214 141.64939898 96.53710938 141.69335938 C102.69134583 141.79943721 108.84563982 141.90137568 115 142 C114 144 114 144 111 146 C110.67 146.66 110.34 147.32 110 148 C112.31 148 114.62 148 117 148 C117 148.33 117 148.66 117 149 C115.2984375 149.2165625 115.2984375 149.2165625 113.5625 149.4375 C110.19222799 149.61171478 110.19222799 149.61171478 109 151 C108.60685291 155.04906787 108.52391973 159.12296549 108.375 163.1875 C108.30744507 164.97148193 108.30744507 164.97148193 108.23852539 166.79150391 C108.00331647 173.94557139 108.05330107 180.87833325 108.73828125 188.00390625 C109.17300801 192.98055441 109.29707648 198.01086259 109 203 C106.89868615 205.10131385 102.45853678 204.18514741 99.5625 204.1875 C98.77294922 204.19974609 97.98339844 204.21199219 97.16992188 204.22460938 C95.11192565 204.22987279 93.05437991 204.12206285 91 204 C90.34 203.34 89.68 202.68 89 202 C89.33 200.35 89.66 198.7 90 197 C93.63 196.67 97.26 196.34 101 196 C100.76990234 193.57914062 100.76990234 193.57914062 100.53515625 191.109375 C99.84538422 182.83211065 99.65164519 174.55009272 99.4375 166.25 C99.39418522 164.66665829 99.35056744 163.08332485 99.30664062 161.5 C99.20094127 157.66675271 99.0993163 153.83341776 99 150 C96.91673869 149.97290556 94.83337559 149.95356127 92.75 149.9375 C91.58984375 149.92589844 90.4296875 149.91429687 89.234375 149.90234375 C86.59022872 149.98217908 84.50173909 150.21356222 82 151 C80.64020496 161.5384116 80.736045 171.97626644 81.5 182.5625 C81.84977828 187.4799711 82.14142567 192.3832256 82.25 197.3125 C82.27578125 198.36050781 82.3015625 199.40851563 82.328125 200.48828125 C82.21984375 201.31714844 82.1115625 202.14601563 82 203 C78.18894923 205.54070051 75.31435307 205.15363256 70.9375 204.875 C70.20466797 204.85179687 69.47183594 204.82859375 68.71679688 204.8046875 C66.58984375 204.6796875 66.58984375 204.6796875 63 204 C61.50390625 201.9453125 61.50390625 201.9453125 61 200 C63 197 63 197 65.3828125 196.48828125 C66.74019531 196.40126953 66.74019531 196.40126953 68.125 196.3125 C69.03507812 196.24675781 69.94515625 196.18101562 70.8828125 196.11328125 C71.93082031 196.05720703 71.93082031 196.05720703 73 196 C72.96970703 194.95658447 72.93941406 193.91316895 72.90820312 192.83813477 C72.79508375 188.92996839 72.68367382 185.02175476 72.57275391 181.11352539 C72.52471047 179.42894192 72.47621672 177.74437123 72.42724609 176.05981445 C72.35653308 173.62454478 72.2874935 171.18923223 72.21875 168.75390625 C72.19687622 168.01290176 72.17500244 167.27189728 72.15246582 166.50843811 C72.02489791 161.92032491 72.00630413 157.34815977 72.08996582 152.75865173 C72.19548824 150.97213566 72.19548824 150.97213566 71 150 C69.34715506 149.86584786 67.68898618 149.7963793 66.03125 149.75390625 C64.99282959 149.72248535 63.95440918 149.69106445 62.88452148 149.65869141 C61.20918335 149.61107666 61.20918335 149.61107666 59.5 149.5625 C25.37201722 148.37201722 25.37201722 148.37201722 19 142 C19.0234375 139.6171875 19.0234375 139.6171875 19.375 136.875 C19.48585937 135.96492187 19.59671875 135.05484375 19.7109375 134.1171875 C19.80632812 133.41851562 19.90171875 132.71984375 20 132 C19.46632812 131.85304688 18.93265625 131.70609375 18.3828125 131.5546875 C3.27313513 127.0060995 -9.05485323 116.38899673 -17.37890625 103.1328125 C-20.04772885 97.97523243 -21.61816889 92.62100789 -23 87 C-23.1743457 86.38060547 -23.34869141 85.76121094 -23.52832031 85.12304688 C-27.30475226 68.12519376 -22.57478526 52.51996971 -14 38 C-11.03 38.33 -8.06 38.66 -5 39 C-5.66 35.04 -6.32 31.08 -7 27 C-6.34 27 -5.68 27 -5 27 C-2.17079464 18.0974338 -0.98608089 9.24595846 0 0 Z " fill="#EAD9C6" transform="translate(85,146)"/>
<path d="M0 0 C1.19367188 -0.02578125 2.38734375 -0.0515625 3.6171875 -0.078125 C7.58887769 0.29339168 9.78303019 1.08272802 13.125 3.25 C13.99983032 4.76412476 13.99983032 4.76412476 14.89233398 6.30883789 C16.86671094 8.71254802 17.95110586 9.21514822 21.04931641 9.83609009 C24.94210297 10.09042463 28.81596863 10.15905663 32.71484375 10.16796875 C34.17962582 10.1941129 35.64435726 10.22324648 37.10902405 10.25520325 C40.97533917 10.33325239 44.84127983 10.37836962 48.70819092 10.41424561 C55.56512229 10.48197409 62.42136585 10.59931921 69.27734375 10.73046875 C70.01437216 10.74390194 70.75140057 10.75733513 71.51076317 10.77117538 C121.88224583 11.75483055 121.88224583 11.75483055 139.125 23.25 C138.125 26.25 138.125 26.25 136.04296875 27.3125 C108.63437039 36.11847538 78.49065023 34.76674288 50.02734375 35.78515625 C46.81808807 35.90063007 43.60883803 36.01625609 40.39959717 36.13214111 C38.16186874 36.21268115 35.92411514 36.2925241 33.68634033 36.37176514 C30.29205555 36.49300453 26.89797759 36.61903457 23.50390625 36.74609375 C22.47877426 36.7817897 21.45364227 36.81748566 20.39744568 36.85426331 C16.17427225 37.01587458 12.0009346 37.21429424 7.80932617 37.76831055 C4.43728577 38.2091717 1.19372738 38.40255577 -2.203125 38.4609375 C-3.33234375 38.48929688 -4.4615625 38.51765625 -5.625 38.546875 C-7.97379042 38.59930336 -10.32277873 38.64346795 -12.671875 38.6796875 C-14.35796875 38.72609375 -14.35796875 38.72609375 -16.078125 38.7734375 C-17.09551758 38.79325684 -18.11291016 38.81307617 -19.16113281 38.83349609 C-22.2328146 39.30491469 -23.53709768 40.27237201 -25.875 42.25 C-30.08138975 43.00085268 -33.2696611 42.65355927 -36.875 40.25 C-36.875 39.59 -36.875 38.93 -36.875 38.25 C-47.105 38.25 -57.335 38.25 -67.875 38.25 C-65.47206271 45.45881186 -63.07287729 52.62926051 -60.4375 59.75 C-59.9885437 60.96755981 -59.9885437 60.96755981 -59.53051758 62.2097168 C-57.46469536 67.7699317 -55.2743189 73.26249524 -52.91796875 78.70703125 C-50.8578087 83.73011811 -49.61466243 87.78291106 -49.875 93.25 C-52.185 93.25 -54.495 93.25 -56.875 93.25 C-60.58465947 86.26405249 -63.35926956 79.02826687 -66.125 71.625 C-66.60630517 70.33990312 -67.08766977 69.0548285 -67.5690918 67.76977539 C-68.29856135 65.82090499 -69.02711377 63.87171143 -69.7532196 61.92158508 C-71.28776263 57.80238398 -72.85518804 53.69720022 -74.44140625 49.59765625 C-75.19064913 47.62781136 -75.93938045 45.65777179 -76.6875 43.6875 C-77.04295898 42.78499512 -77.39841797 41.88249023 -77.76464844 40.95263672 C-78.07563477 40.12135254 -78.38662109 39.29006836 -78.70703125 38.43359375 C-78.98264893 37.71743896 -79.2582666 37.00128418 -79.54223633 36.26342773 C-79.98344879 33.59381717 -79.40983955 32.44301014 -77.875 30.25 C-74.53540135 29.13680045 -72.00978087 29.25 -68.5 29.25 C-63.75923855 29.08257012 -63.75923855 29.08257012 -60.19140625 26.359375 C-59.42903918 24.7660542 -58.70173718 23.15554778 -58.0078125 21.53125 C-54.67761365 14.82491853 -45.38199583 12.64668929 -38.8125 10.3671875 C-33.92598935 8.87187543 -28.89322997 8.09765258 -23.82446289 7.50146484 C-19.09910564 6.84637521 -16.19672834 5.43599483 -12.51342773 2.38867188 C-8.75998454 -0.21989005 -4.43070149 0.05717034 0 0 Z " fill="#A49787" transform="translate(129.875,91.75)"/>
<path d="M0 0 C7.65199542 -0.04712011 15.30397515 -0.08226121 22.95608425 -0.10362434 C26.5123616 -0.11389684 30.06853712 -0.12773716 33.62475586 -0.15087891 C55.74501151 -0.29078174 77.908084 -0.04610983 99.75 3.875 C100.73677734 4.04717041 101.72355469 4.21934082 102.74023438 4.39672852 C123.91934613 8.23430817 123.91934613 8.23430817 132 15 C134.51303023 18.76954534 134.07944445 20.3537739 133.47265625 24.6640625 C132.26662294 30.62445854 129.3711506 36.687919 125 41 C121.625 42.125 121.625 42.125 118 43 C117.05125 43.86625 116.1025 44.7325 115.125 45.625 C110.72582545 49.08796578 105.52836301 48.31193365 100.21728516 47.99072266 C95.26846667 47.7433377 92.40052384 48.44571097 88 51 C87.34 51 86.68 51 86 51 C86 51.66 86 52.32 86 53 C80.60486346 54.10104827 77.21260566 53.61116902 72 52 C67.54606798 51.32222774 65.33851378 52.27334767 61.625 54.5625 C56.89248914 57.40520957 54.30665834 57.30338977 49 56 C48.34 55.67 47.68 55.34 47 55 C40.43283032 54.37322597 40.43283032 54.37322597 34.4375 56.5625 C30.69667303 58.76862873 27.12204074 57.98073599 23 57 C21.98099609 56.47212891 21.98099609 56.47212891 20.94140625 55.93359375 C17.82770038 54.43625833 15.2913414 55.29471256 12 56 C11.29875 56.350625 10.5975 56.70125 9.875 57.0625 C7.37190859 58.3140457 5.77221517 58.33807502 3 58 C2.2575 57.505 1.515 57.01 0.75 56.5 C-3.15342354 54.37085989 -6.63777426 54.50646351 -11 55 C-12.6744239 55.6469365 -14.34302621 56.30959426 -16 57 C-19.56916228 56.81214935 -21.256753 55.83529053 -24.3125 53.875 C-28.39877274 51.41435316 -31.49415356 51.94955727 -36 53 C-37.03125 53.268125 -38.0625 53.53625 -39.125 53.8125 C-43.16095781 54.07571464 -44.87494021 52.43060206 -48 50 C-51.44450737 47.70366176 -53.93812283 47.45983515 -58 47 C-58.33 47.66 -58.66 48.32 -59 49 C-59.48108275 47.58398286 -59.95978141 46.16715563 -60.4375 44.75 C-60.70433594 43.96109375 -60.97117187 43.1721875 -61.24609375 42.359375 C-62 40 -62 40 -62.47265625 37.765625 C-62.64667969 37.18296875 -62.82070312 36.6003125 -63 36 C-63.66 35.67 -64.32 35.34 -65 35 C-62.56183415 34.9190277 -60.12635616 34.85953028 -57.6875 34.8125 C-56.99720703 34.78736328 -56.30691406 34.76222656 -55.59570312 34.73632812 C-50.39510507 34.66095714 -50.39510507 34.66095714 -48.265625 36.48828125 C-47.84796875 36.98714844 -47.4303125 37.48601562 -47 38 C-42.94528518 38.42209032 -42.94528518 38.42209032 -39 38 C-38.41758545 37.50661133 -37.8351709 37.01322266 -37.23510742 36.50488281 C-34.40303746 34.59806913 -32.59800647 34.58957155 -29.203125 34.5234375 C-27.51703125 34.47703125 -27.51703125 34.47703125 -25.796875 34.4296875 C-24.62640625 34.41164062 -23.4559375 34.39359375 -22.25 34.375 C-19.94263507 34.32349632 -17.63533719 34.26888119 -15.328125 34.2109375 C-14.3062207 34.19337402 -13.28431641 34.17581055 -12.23144531 34.15771484 C-8.92439455 34.04145292 -8.92439455 34.04145292 -5.3671875 33.51586914 C0.13692844 32.78904295 5.6587316 32.6956634 11.203125 32.53515625 C13.6359899 32.45787595 16.06885109 32.38047883 18.50170898 32.30297852 C19.76763885 32.26391388 21.03356873 32.22484924 22.33786011 32.18460083 C74.58755296 33.02388091 74.58755296 33.02388091 125 22 C125.33 21.34 125.66 20.68 126 20 C114.10222986 14.9962649 101.47929172 13.09161574 88.77391052 11.39871216 C86.91727826 11.13184636 85.06482696 10.83417022 83.21792603 10.50666809 C75.19154245 9.11529665 67.31342719 8.69364914 59.18501282 8.63210487 C56.9727274 8.61276977 54.76120057 8.57751896 52.54919434 8.53764343 C46.27157787 8.42486172 39.99430319 8.32124757 33.71582031 8.27270508 C29.84851494 8.24166352 25.98300831 8.17709802 22.11656189 8.09062767 C20.65275606 8.0642389 19.188668 8.05031763 17.72462463 8.04937172 C6.29145122 8.0350282 6.29145122 8.0350282 2.96948242 5.37265015 C1.56835938 3.43432617 1.56835938 3.43432617 0 0 Z " fill="#E8D8C6" transform="translate(143,95)"/>
<path d="M0 0 C8.37711135 8.9224962 12.27145176 20.56130597 12.2421875 32.6328125 C11.66932489 43.08132832 9.71464375 53.37930019 4.25 62.41015625 C3.79109375 63.20035156 3.3321875 63.99054688 2.859375 64.8046875 C-3.53317439 74.90553616 -13.0664414 82.19298139 -24.74609375 84.8671875 C-31.82608714 86.04935153 -38.75028672 84.61494332 -45.75 83.41015625 C-45.75 82.75015625 -45.75 82.09015625 -45.75 81.41015625 C-44.76 80.91515625 -44.76 80.91515625 -43.75 80.41015625 C-42.68058391 78.07820639 -42.68058391 78.07820639 -41.75 75.28515625 C-41.40324219 74.29515625 -41.05648438 73.30515625 -40.69921875 72.28515625 C-39.93190588 69.96111398 -39.21580629 67.6429534 -38.5625 65.28515625 C-37.75 62.41015625 -37.75 62.41015625 -36.75 61.41015625 C-33.8125 61.22265625 -33.8125 61.22265625 -30.75 61.41015625 C-28.1845406 63.97561565 -28.20953913 65.88702293 -27.75 69.41015625 C-20.12801736 67.65123718 -14.01427544 62.55816672 -9.4375 56.34765625 C-3.46648438 46.52383446 -1.43408605 35.65045197 -3.75 24.41015625 C-4.77833427 21.19480121 -6.04339396 18.31951321 -7.75 15.41015625 C-8.32234375 14.415 -8.8946875 13.41984375 -9.484375 12.39453125 C-14.14469531 6.25576449 -22.09000024 3.04831006 -29.55859375 1.74609375 C-32.63748505 1.51003418 -35.66321431 1.37426339 -38.75 1.41015625 C-38.42 2.07015625 -38.09 2.73015625 -37.75 3.41015625 C-37.62994547 4.90664987 -37.57468549 6.40890418 -37.5625 7.91015625 C-37.54832031 8.70421875 -37.53414063 9.49828125 -37.51953125 10.31640625 C-37.75 12.41015625 -37.75 12.41015625 -39.75 14.41015625 C-42.18359375 14.76953125 -42.18359375 14.76953125 -44.75 14.41015625 C-46.41015625 12.80078125 -46.41015625 12.80078125 -47.8125 10.66015625 C-49.4447913 8.27868509 -50.88751674 6.27263951 -52.9375 4.22265625 C-55.03649796 2.12365829 -56.39725008 0.04801859 -57.75 -2.58984375 C-57.75 -3.57984375 -57.75 -4.56984375 -57.75 -5.58984375 C-38.59704439 -16.02820456 -16.61773252 -15.09691325 0 0 Z " fill="#969394" transform="translate(325.75,170.58984375)"/>
<path d="M0 0 C7.65199542 -0.04712011 15.30397515 -0.08226121 22.95608425 -0.10362434 C26.5123616 -0.11389684 30.06853712 -0.12773716 33.62475586 -0.15087891 C55.74501151 -0.29078174 77.908084 -0.04610983 99.75 3.875 C100.73677734 4.04717041 101.72355469 4.21934082 102.74023438 4.39672852 C123.91934613 8.23430817 123.91934613 8.23430817 132 15 C134.800791 19.2011865 133.89098099 22.19360711 133 27 C132.3974699 29.02024799 131.75679435 31.03233469 131 33 C130.67 31.68 130.34 30.36 130 29 C129.01 29.45205811 128.02 29.90411621 127 30.36987305 C112.87464907 36.39468729 97.10838198 36.87772257 82 37.6875 C79.0138076 37.86126237 76.02788318 38.03911138 73.04199219 38.2179718 C71.20563085 38.32653065 69.3690501 38.43147067 67.53222656 38.53190613 C63.44884552 38.76018498 59.40335616 39.05669754 55.34082031 39.5300293 C48.3643586 40.25377816 41.36447015 40.14403802 34.359375 40.1328125 C32.8634642 40.13348765 31.3675535 40.13445944 29.87164307 40.13571167 C26.75523827 40.13717687 23.63886235 40.13507104 20.52246094 40.13037109 C16.53927202 40.12465457 12.55615022 40.12797241 8.57296371 40.13394356 C5.49138893 40.13756416 2.40982997 40.13640403 -0.6717453 40.13381577 C-2.14048012 40.13315168 -3.60921641 40.13395669 -5.07794952 40.13629532 C-7.13045543 40.13884876 -9.18285364 40.13494441 -11.23535156 40.12939453 C-12.39987854 40.12859894 -13.56440552 40.12780334 -14.76422119 40.12698364 C-17.92462347 40.00295805 -20.89630307 39.59240368 -24 39 C-24 38.01 -24 37.02 -24 36 C-23.26136719 35.95101562 -22.52273437 35.90203125 -21.76171875 35.8515625 C-20.74722656 35.77679688 -19.73273438 35.70203125 -18.6875 35.625 C-17.20830078 35.52058594 -17.20830078 35.52058594 -15.69921875 35.4140625 C-12.73879761 35.0826954 -9.96083439 34.60054319 -7.04980469 34.00927734 C-0.86087794 32.8738871 5.21584921 32.59234548 11.49609375 32.4375 C12.67123535 32.40145157 13.84637695 32.36540314 15.05712891 32.32826233 C17.55937923 32.2518946 20.06173573 32.17894004 22.56417847 32.10916138 C29.09551471 31.92508948 35.62581447 31.70941855 42.15625 31.49609375 C43.44268906 31.45455673 44.72912811 31.41301971 46.05455017 31.370224 C86.3186382 31.35047941 86.3186382 31.35047941 125 22 C125.33 21.34 125.66 20.68 126 20 C114.10222986 14.9962649 101.47929172 13.09161574 88.77391052 11.39871216 C86.91727826 11.13184636 85.06482696 10.83417022 83.21792603 10.50666809 C75.19154245 9.11529665 67.31342719 8.69364914 59.18501282 8.63210487 C56.9727274 8.61276977 54.76120057 8.57751896 52.54919434 8.53764343 C46.27157787 8.42486172 39.99430319 8.32124757 33.71582031 8.27270508 C29.84851494 8.24166352 25.98300831 8.17709802 22.11656189 8.09062767 C20.65275606 8.0642389 19.188668 8.05031763 17.72462463 8.04937172 C6.29145122 8.0350282 6.29145122 8.0350282 2.96948242 5.37265015 C1.56835938 3.43432617 1.56835938 3.43432617 0 0 Z " fill="#EDE2D3" transform="translate(143,95)"/>
<path d="M0 0 C3.10511078 0.23551738 5.80395234 0.5349112 8.76953125 1.5234375 C12.61236809 1.66317702 16.08666815 1.70195369 19.76953125 0.5234375 C20.66627902 3.03433126 20.90125799 4.16878859 19.95703125 6.7109375 C18.76953125 8.5234375 18.76953125 8.5234375 16.76953125 9.5234375 C17.09953125 9.8534375 17.42953125 10.1834375 17.76953125 10.5234375 C17.81033908 12.52302114 17.81207481 14.52389004 17.76953125 16.5234375 C21.23453125 16.0284375 21.23453125 16.0284375 24.76953125 15.5234375 C25.09953125 14.5334375 25.42953125 13.5434375 25.76953125 12.5234375 C26.75953125 12.5234375 27.74953125 12.5234375 28.76953125 12.5234375 C28.76953125 13.5134375 28.76953125 14.5034375 28.76953125 15.5234375 C29.75953125 16.0184375 29.75953125 16.0184375 30.76953125 16.5234375 C30.76953125 15.8634375 30.76953125 15.2034375 30.76953125 14.5234375 C31.75953125 14.5234375 32.74953125 14.5234375 33.76953125 14.5234375 C33.16493475 21.20581992 31.96318611 27.49665462 30.3359375 34 C30.0979393 34.96948578 29.8599411 35.93897156 29.61473083 36.93783569 C28.85914689 40.00937572 28.09556218 43.07886454 27.33203125 46.1484375 C26.82307431 48.21602444 26.31460631 50.2837318 25.80664062 52.3515625 C25.31684126 54.33864894 24.82662119 56.32563174 24.3359375 58.3125 C24.10878555 59.23245758 23.88163361 60.15241516 23.64759827 61.10025024 C22.44384147 65.93724777 21.17277911 70.74039841 19.76953125 75.5234375 C18.44953125 75.5234375 17.12953125 75.5234375 15.76953125 75.5234375 C14.92590674 69.83586914 14.23403693 64.13780909 13.578125 58.42578125 C13.46855972 57.47328995 13.35899445 56.52079865 13.24610901 55.53944397 C13.01611802 53.53506957 12.78671259 51.5306279 12.55786133 49.52612305 C12.20771559 46.46691651 11.8529058 43.40827229 11.49804688 40.34960938 C11.27445048 38.3958664 11.0511337 36.4420914 10.828125 34.48828125 C10.66877724 33.12400246 10.66877724 33.12400246 10.50621033 31.73216248 C10.00593044 27.30203701 9.64518743 22.99109704 9.76953125 18.5234375 C9.18945312 18.69101562 8.609375 18.85859375 8.01171875 19.03125 C7.23054687 19.23492187 6.449375 19.43859375 5.64453125 19.6484375 C4.87882813 19.85726563 4.113125 20.06609375 3.32421875 20.28125 C0.76953125 20.5234375 0.76953125 20.5234375 -1.9296875 19.55078125 C-5.66075919 18.38951278 -8.69526971 18.29587387 -12.59765625 18.328125 C-13.27724396 18.3309549 -13.95683167 18.33378479 -14.65701294 18.33670044 C-16.80668483 18.34780786 -18.95592489 18.37289359 -21.10546875 18.3984375 C-22.57160852 18.40847955 -24.03775489 18.41760325 -25.50390625 18.42578125 C-29.07956506 18.44771591 -32.65497469 18.48217936 -36.23046875 18.5234375 C-36.23046875 17.2034375 -36.23046875 15.8834375 -36.23046875 14.5234375 C-34.91046875 14.1934375 -33.59046875 13.8634375 -32.23046875 13.5234375 C-32.83227966 13.51535065 -33.43409058 13.50726379 -34.05413818 13.49893188 C-90.52249814 12.72594714 -90.52249814 12.72594714 -113.23046875 10.5234375 C-113.23046875 9.8634375 -113.23046875 9.2034375 -113.23046875 8.5234375 C-113.92914063 8.53503906 -114.6278125 8.54664063 -115.34765625 8.55859375 C-116.25773437 8.56761719 -117.1678125 8.57664062 -118.10546875 8.5859375 C-119.46285156 8.60333984 -119.46285156 8.60333984 -120.84765625 8.62109375 C-123.23046875 8.5234375 -123.23046875 8.5234375 -125.23046875 7.5234375 C-125.23046875 6.5334375 -125.23046875 5.5434375 -125.23046875 4.5234375 C-118.8972872 4.94713627 -112.57137119 5.3783714 -106.25561523 6.01318359 C-90.78590565 7.52261082 -75.39869259 7.83702587 -59.86450195 7.78417969 C-56.45386115 7.77270536 -53.04352913 7.77965279 -49.63289833 7.791008 C-30.21799999 7.84681477 -17.01975909 3.9941291 0 0 Z M13.76953125 13.5234375 C13.76953125 16.5234375 13.76953125 16.5234375 13.76953125 16.5234375 Z " fill="#D1BFAF" transform="translate(231.23046875,275.4765625)"/>
<path d="M0 0 C0.495 0.99 0.495 0.99 1 2 C0.525625 2.969375 0.05125 3.93875 -0.4375 4.9375 C-2.67008663 9.76967379 -2.45045378 14.77646868 -2 20 C-1.505 20.99 -1.505 20.99 -1 22 C6.59 22.33 14.18 22.66 22 23 C22 23.33 22 23.66 22 24 C14.08 24 6.16 24 -2 24 C-2 26.31 -2 28.62 -2 31 C5.92 31 13.84 31 22 31 C22 31.33 22 31.66 22 32 C21.23333008 32.01458252 20.46666016 32.02916504 19.67675781 32.04418945 C16.20066507 32.1186922 12.72553032 32.21534646 9.25 32.3125 C8.0434375 32.33505859 6.836875 32.35761719 5.59375 32.38085938 C4.43359375 32.41630859 3.2734375 32.45175781 2.078125 32.48828125 C1.00981445 32.51446533 -0.05849609 32.54064941 -1.15917969 32.56762695 C-4.31189385 33.04747026 -5.61239803 33.96301556 -8 36 C-12.20638975 36.75085268 -15.3946611 36.40355927 -19 34 C-19 33.34 -19 32.68 -19 32 C-29.23 32 -39.46 32 -50 32 C-47.59706271 39.20881186 -45.19787729 46.37926051 -42.5625 53.5 C-42.1135437 54.71755981 -42.1135437 54.71755981 -41.65551758 55.9597168 C-39.58969536 61.5199317 -37.3993189 67.01249524 -35.04296875 72.45703125 C-32.9828087 77.48011811 -31.73966243 81.53291106 -32 87 C-34.31 87 -36.62 87 -39 87 C-42.70965947 80.01405249 -45.48426956 72.77826687 -48.25 65.375 C-48.73130517 64.08990312 -49.21266977 62.8048285 -49.6940918 61.51977539 C-50.42356135 59.57090499 -51.15211377 57.62171143 -51.8782196 55.67158508 C-53.41276263 51.55238398 -54.98018804 47.44720022 -56.56640625 43.34765625 C-57.31564913 41.37781136 -58.06438045 39.40777179 -58.8125 37.4375 C-59.16795898 36.53499512 -59.52341797 35.63249023 -59.88964844 34.70263672 C-60.20063477 33.87135254 -60.51162109 33.04006836 -60.83203125 32.18359375 C-61.10764893 31.46743896 -61.3832666 30.75128418 -61.66723633 30.01342773 C-62.10844879 27.34381717 -61.53483955 26.19301014 -60 24 C-56.66040135 22.88680045 -54.13478087 23 -50.625 23 C-45.88423855 22.83257012 -45.88423855 22.83257012 -42.31640625 20.109375 C-41.55403918 18.5160542 -40.82673718 16.90554778 -40.1328125 15.28125 C-36.80804415 8.58585442 -27.53063319 6.39660502 -20.96484375 4.13671875 C-14.13775075 2.05254881 -7.04580219 1.0491933 0 0 Z " fill="#827971" transform="translate(112,98)"/>
<path d="M0 0 C0.66 0 1.32 0 2 0 C1.67 1.65 1.34 3.3 1 5 C4.96 5.33 8.92 5.66 13 6 C13 6.66 13 7.32 13 8 C14.14662109 7.98259766 14.14662109 7.98259766 15.31640625 7.96484375 C20.9803346 7.91713316 26.57279555 8.00257027 32.21875 8.46875 C44.43923413 9.32011216 56.69268171 9.36638439 68.9375 9.5625 C71.47070892 9.60578193 74.00391214 9.64939898 76.53710938 9.69335938 C82.69134583 9.79943721 88.84563982 9.90137568 95 10 C94 12 94 12 91 14 C90.67 14.66 90.34 15.32 90 16 C92.31 16 94.62 16 97 16 C97 16.33 97 16.66 97 17 C95.865625 17.144375 94.73125 17.28875 93.5625 17.4375 C90.19222799 17.61171478 90.19222799 17.61171478 89 19 C88.60685291 23.04906787 88.52391973 27.12296549 88.375 31.1875 C88.32996338 32.37682129 88.28492676 33.56614258 88.23852539 34.79150391 C88.00331647 41.94557139 88.05330107 48.87833325 88.73828125 56.00390625 C89.17300801 60.98055441 89.29707648 66.01086259 89 71 C86.89868615 73.10131385 82.45853678 72.18514741 79.5625 72.1875 C78.77294922 72.19974609 77.98339844 72.21199219 77.16992188 72.22460938 C75.11192565 72.22987279 73.05437991 72.12206285 71 72 C70.34 71.34 69.68 70.68 69 70 C69.33 68.35 69.66 66.7 70 65 C73.63 64.67 77.26 64.34 81 64 C80.84660156 62.38609375 80.69320312 60.7721875 80.53515625 59.109375 C79.84538422 50.83211065 79.65164519 42.55009272 79.4375 34.25 C79.39418522 32.66665829 79.35056744 31.08332485 79.30664062 29.5 C79.20094127 25.66675271 79.0993163 21.83341776 79 18 C76.91673869 17.97290556 74.83337559 17.95356127 72.75 17.9375 C71.58984375 17.92589844 70.4296875 17.91429687 69.234375 17.90234375 C66.59022872 17.98217908 64.50173909 18.21356222 62 19 C60.64020496 29.5384116 60.736045 39.97626644 61.5 50.5625 C61.84977828 55.4799711 62.14142567 60.3832256 62.25 65.3125 C62.27578125 66.36050781 62.3015625 67.40851563 62.328125 68.48828125 C62.21984375 69.31714844 62.1115625 70.14601563 62 71 C58.18894923 73.54070051 55.31435307 73.15363256 50.9375 72.875 C50.20466797 72.85179687 49.47183594 72.82859375 48.71679688 72.8046875 C46.58984375 72.6796875 46.58984375 72.6796875 43 72 C41.50390625 69.9453125 41.50390625 69.9453125 41 68 C43 65 43 65 45.3828125 64.48828125 C46.28773438 64.43027344 47.19265625 64.37226563 48.125 64.3125 C49.03507812 64.24675781 49.94515625 64.18101562 50.8828125 64.11328125 C51.93082031 64.05720703 51.93082031 64.05720703 53 64 C52.96970703 62.95658447 52.93941406 61.91316895 52.90820312 60.83813477 C52.79508375 56.92996839 52.68367382 53.02175476 52.57275391 49.11352539 C52.52471047 47.42894192 52.47621672 45.74437123 52.42724609 44.05981445 C52.35653308 41.62454478 52.2874935 39.18923223 52.21875 36.75390625 C52.19687622 36.01290176 52.17500244 35.27189728 52.15246582 34.50843811 C52.02489791 29.92032491 52.00630413 25.34815977 52.08996582 20.75865173 C52.19548824 18.97213566 52.19548824 18.97213566 51 18 C49.34715506 17.86584786 47.68898618 17.7963793 46.03125 17.75390625 C44.99282959 17.72248535 43.95440918 17.69106445 42.88452148 17.65869141 C41.76762939 17.62694824 40.6507373 17.59520508 39.5 17.5625 C5.37201722 16.37201722 5.37201722 16.37201722 -1 10 C-0.9765625 7.6171875 -0.9765625 7.6171875 -0.625 4.875 C-0.51414062 3.96492188 -0.40328125 3.05484375 -0.2890625 2.1171875 C-0.19367188 1.41851562 -0.09828125 0.71984375 0 0 Z " fill="#E9D9CA" transform="translate(105,278)"/>
<path d="M0 0 C5.40831524 4.57984698 8.96027005 10.39629737 9.58203125 17.484375 C9.44110621 23.88472061 7.43986396 29.40797611 3.24609375 34.265625 C-2.39481316 39.5792438 -7.27563289 41.85718423 -15.04296875 42.234375 C-16.25984375 42.13125 -17.47671875 42.028125 -18.73046875 41.921875 C-19.39046875 40.931875 -20.05046875 39.941875 -20.73046875 38.921875 C-23.05718729 38.23247691 -25.39114469 37.56720578 -27.73046875 36.921875 C-32.73374491 33.80196135 -34.80188413 29.35972732 -36.73046875 23.921875 C-38.19993412 16.35684958 -36.38887176 10.73835372 -32.4375 4.2421875 C-24.74099972 -6.21941699 -10.12876568 -6.69934108 0 0 Z " fill="#F3F3ED" transform="translate(224.73046875,166.078125)"/>
<path d="M0 0 C0.91539551 0.01788574 1.83079102 0.03577148 2.77392578 0.05419922 C5.87088448 0.12229155 8.9663552 0.21441676 12.0625 0.3125 C13.56296875 0.34609619 13.56296875 0.34609619 15.09375 0.38037109 C21.34071862 0.61452646 24.93122578 1.46032478 29.8125 5.5 C31 7 31 7 31 10 C24.54316287 11.57005158 18.30966949 12.51326307 11.6875 13 C10.09047241 13.12072876 10.09047241 13.12072876 8.46118164 13.24389648 C-9.77287901 14.50965716 -28.06058549 15.00710191 -46.32479858 15.64848328 C-51.74064986 15.83988753 -57.1553689 16.04503155 -62.56958008 16.27856445 C-74.57698878 16.7950752 -86.54417052 17.13897493 -98.5625 17.0625 C-99.99023271 17.0574481 -101.41796726 17.05289204 -102.84570312 17.04882812 C-106.23050927 17.03817533 -109.61524098 17.02114051 -113 17 C-113 14.69 -113 12.38 -113 10 C-112.28344238 9.97494385 -111.56688477 9.9498877 -110.82861328 9.92407227 C-107.59388486 9.80830249 -104.35946159 9.68549031 -101.125 9.5625 C-99.99707031 9.52318359 -98.86914062 9.48386719 -97.70703125 9.44335938 C-96.63066406 9.40146484 -95.55429688 9.35957031 -94.4453125 9.31640625 C-92.95281982 9.26141968 -92.95281982 9.26141968 -91.43017578 9.20532227 C-88.99220499 9.15040468 -88.99220499 9.15040468 -87 8 C-84.62876754 7.76970044 -82.25258057 7.58880058 -79.875 7.4375 C-78.59367187 7.35371094 -77.31234375 7.26992187 -75.9921875 7.18359375 C-75.00476563 7.12300781 -74.01734375 7.06242187 -73 7 C-73.020625 6.195625 -73.04125 5.39125 -73.0625 4.5625 C-73 2 -73 2 -72 1 C-69.00009906 0.92336439 -66.02294082 0.90948092 -63.0234375 0.9375 C-61.64727768 0.94317993 -61.64727768 0.94317993 -60.24331665 0.94897461 C-56.31156907 0.96528391 -52.37992482 0.99295848 -48.44824219 1.02050781 C-37.96885975 1.08770601 -27.58083651 1.0874345 -17.12939453 0.23095703 C-11.41768731 -0.19058104 -5.72137714 -0.13081062 0 0 Z " fill="#F75706" transform="translate(223,112)"/>
<path d="M0 0 C3.1875 2.125 3.1875 2.125 5 4 C5 4.66 5 5.32 5 6 C5.66 6 6.32 6 7 6 C12.55580866 16.37357631 12.55580866 16.37357631 13 22 C14.65 22 16.3 22 18 22 C18.495 24.475 18.495 24.475 19 27 C18.24460937 27.19207031 17.48921875 27.38414062 16.7109375 27.58203125 C13.07627415 29.4831592 12.15965463 32.08036193 10.625 35.6875 C7.17109399 43.10235071 3.69779521 48.79696178 -4.125 51.9375 C-9.96536424 53.59749954 -15.98728078 53.25091719 -22 53 C-22.391875 53.928125 -22.78375 54.85625 -23.1875 55.8125 C-25.2163787 59.38052805 -26.3525161 60.2631029 -30 62 C-35.50101135 62.7642206 -41.85619159 63.39095555 -46.5625 60 C-47.366875 59.34 -48.17125 58.68 -49 58 C-53.76614951 58 -55.18600284 59.3220871 -59 62 C-64.23544264 63.74514755 -69.17656022 63.64158066 -74.375 61.8125 C-77.44482224 59.69286083 -78.63773655 58.48133993 -80 55 C-80.22831314 51.98119291 -80.17766517 49.02030786 -80 46 C-77.525 45.505 -77.525 45.505 -75 45 C-74.70867187 45.5775 -74.41734375 46.155 -74.1171875 46.75 C-72.87436344 49.00115302 -71.64117357 51.0185306 -70 53 C-66.06751939 54.0040376 -64.44949799 53.23373895 -60.875 51.375 C-57.83842582 49.11618442 -57.83842582 49.11618442 -55.9375 45.75 C-54 43 -54 43 -51.609375 42.58203125 C-48.21576081 43.12561915 -47.40199933 44.26575816 -45.3125 46.9375 C-43.04058366 49.93877429 -43.04058366 49.93877429 -40 52 C-38.62657169 52.0689472 -37.24997898 52.08467708 -35.875 52.0625 C-33.956875 52.0315625 -33.956875 52.0315625 -32 52 C-32 50.68 -32 49.36 -32 48 C-32.556875 47.79375 -33.11375 47.5875 -33.6875 47.375 C-39.60699671 43.85529926 -42.21895313 38.33374184 -44.3359375 32 C-46.18861579 23.63025336 -44.43526227 15.26723717 -40 8 C-29.45403516 -4.88951259 -14.58106557 -6.89201492 0 0 Z M-34 9 C-38.53812574 15.73804819 -40.17363075 21.92491019 -39 30 C-37.88328093 33.31809757 -37.88328093 33.31809757 -36 36 C-35.34 37.0725 -34.68 38.145 -34 39.25 C-32.11809895 42.17162581 -32.11809895 42.17162581 -29 44 C-27.989375 44.144375 -26.97875 44.28875 -25.9375 44.4375 C-24.4834375 44.7159375 -24.4834375 44.7159375 -23 45 C-22.34 45.99 -21.68 46.98 -21 48 C-13.04926656 48.82248967 -7.02176248 46.86199499 -0.75 41.9375 C4.43652729 37.09810249 7.05543739 30.94632406 7.5 23.875 C6.65962231 17.3620729 3.65591382 11.65591382 -1 7 C-10.83942572 -0.31390577 -25.24727417 -0.48211965 -34 9 Z " fill="#EFB61F" transform="translate(227,160)"/>
<path d="M0 0 C2.10696267 1.49258894 3.80860335 2.73873055 5.37109375 4.796875 C5.37109375 6.116875 5.37109375 7.436875 5.37109375 8.796875 C6.03109375 8.796875 6.69109375 8.796875 7.37109375 8.796875 C7.39812756 10.73429841 7.417505 12.67182979 7.43359375 14.609375 C7.44519531 15.68832031 7.45679688 16.76726562 7.46875 17.87890625 C7.34010335 21.72286827 6.76734989 23.35533244 4.18359375 26.234375 C-1.37776221 31.30138821 -4.7622628 33.24962646 -12.26171875 33.1328125 C-14.7552352 32.77894713 -16.45864272 32.0470268 -18.62890625 30.796875 C-18.62890625 30.136875 -18.62890625 29.476875 -18.62890625 28.796875 C-19.20640625 28.77625 -19.78390625 28.755625 -20.37890625 28.734375 C-23.30219229 27.51633915 -24.43092911 25.7251086 -25.86328125 22.95703125 C-27.53759916 18.23306285 -27.64440391 13.25683055 -25.72265625 8.6015625 C-24.62890625 6.671875 -24.62890625 6.671875 -22.62890625 3.796875 C-21.96890625 3.796875 -21.30890625 3.796875 -20.62890625 3.796875 C-20.29890625 2.806875 -19.96890625 1.816875 -19.62890625 0.796875 C-14.28705705 -2.897488 -5.71659783 -2.61621416 0 0 Z " fill="#F4F2EC" transform="translate(159.62890625,168.203125)"/>
<path d="M0 0 C-1.7592326 5.53584605 -4.61649806 7.64901401 -9.453125 10.63671875 C-14.52534268 12.58628259 -19.17718339 12.40366229 -24.54101562 11.91723633 C-29.78957992 11.54110458 -32.40765844 12.35978709 -36.4284668 15.81030273 C-39.13321609 17.85787821 -41.69263748 17.93986614 -45 18 C-47.01584651 17.38290413 -49.01751285 16.71706982 -51 16 C-55.04665006 15.47217608 -57.33897894 16.06033081 -60.8125 18 C-65.2266403 20.38465051 -69.06045717 20.67573707 -74 20 C-74.86625 19.649375 -75.7325 19.29875 -76.625 18.9375 C-80.07095525 17.57725451 -82.41940573 18.19745301 -86 19 C-87.155 19.53625 -88.31 20.0725 -89.5 20.625 C-93.61940447 22.24333747 -95.74019461 22.0255087 -100 21 C-100.825 20.62875 -101.65 20.2575 -102.5 19.875 C-106.72850887 18.39502189 -110.53798035 19.35813771 -114.5625 21.125 C-117.80413787 22.28866488 -119.68884112 21.87847072 -123 21 C-123.969375 20.46375 -124.93875 19.9275 -125.9375 19.375 C-129.76523482 17.65642518 -131.96748936 18.06942062 -136 19 C-136.99 19.495 -136.99 19.495 -138 20 C-143.16841507 20.53466363 -145.80734547 20.42743054 -150.0625 17.375 C-151.99678783 15.95695588 -151.99678783 15.95695588 -154 15 C-157.59972085 15.58800462 -157.59972085 15.58800462 -161 17 C-165.50625839 17.5632823 -167.93465832 17.32288132 -171.5 14.625 C-172.06847656 14.16996094 -172.63695312 13.71492187 -173.22265625 13.24609375 C-175.98571231 11.30891818 -178.72985791 10.73411353 -182 10 C-182 8.68 -182 7.36 -182 6 C-176.8800525 5.34638968 -174.73275816 5.9485262 -170.625 9.125 C-167.47758139 11.4862911 -167.47758139 11.4862911 -163.70703125 11.91796875 C-162.19491661 11.51456467 -160.69153642 11.07686403 -159.19921875 10.60546875 C-155.4601644 9.57606658 -152.77169508 10.11993782 -149 11 C-148.13375 11.70125 -147.2675 12.4025 -146.375 13.125 C-144.09388799 15.35351677 -144.09388799 15.35351677 -140.875 14.8125 C-138.9028322 14.25514823 -136.9442423 13.64808077 -135 13 C-129.20469656 12.43566334 -125.98951074 12.98003298 -121 16 C-117.62043823 15.82212833 -115.01293466 15.58815561 -112.0625 13.875 C-108.7144489 12.45461468 -105.47954532 13.21313187 -102 14 C-100.66666667 14.66666667 -99.33333333 15.33333333 -98 16 C-94.52422199 16.36976362 -92.69379314 16.46252876 -89.75 14.5 C-85.60326523 12.23814467 -81.6300859 12.537737 -77 13 C-74.99617991 13.65509503 -72.99541868 14.31974363 -71 15 C-67.01060294 14.83023842 -65.08183 14.05249472 -61.6875 11.875 C-57.3389914 9.22766619 -53.81529952 10.11866398 -49 11 C-47.3556501 11.2000925 -45.70976141 11.38799077 -44.0625 11.5625 C-43.33160156 11.64628906 -42.60070312 11.73007813 -41.84765625 11.81640625 C-39.97775939 12.0329596 -39.97775939 12.0329596 -38 12 C-38 11.34 -38 10.68 -38 10 C-32.31405825 6.12872051 -28.1580983 5.82585658 -21.5 6.125 C-14.37227548 6.44047085 -14.37227548 6.44047085 -8.25 3 C-7.71890625 2.443125 -7.1878125 1.88625 -6.640625 1.3125 C-4.40036136 -0.47971091 -2.78759114 -0.22755846 0 0 Z " fill="#B3ABA6" transform="translate(267,136)"/>
<path d="M0 0 C0.99 0.33 1.98 0.66 3 1 C3 2.32 3 3.64 3 5 C6.465 4.505 6.465 4.505 10 4 C10.33 3.01 10.66 2.02 11 1 C11.99 1 12.98 1 14 1 C14 1.99 14 2.98 14 4 C14.66 4.33 15.32 4.66 16 5 C16 4.34 16 3.68 16 3 C16.99 3 17.98 3 19 3 C18.3954035 9.68238242 17.19365486 15.97321712 15.56640625 22.4765625 C15.32840805 23.44604828 15.09040985 24.41553406 14.84519958 25.41439819 C14.08961564 28.48593822 13.32603093 31.55542704 12.5625 34.625 C12.05354306 36.69258694 11.54507506 38.7602943 11.03710938 40.828125 C10.54731001 42.81521144 10.05708994 44.80219424 9.56640625 46.7890625 C9.3392543 47.70902008 9.11210236 48.62897766 8.87806702 49.57681274 C7.67431022 54.41381027 6.40324786 59.21696091 5 64 C3.68 64 2.36 64 1 64 C-0.270671 55.41367582 -1.22129763 46.78979149 -2.21166992 38.16748047 C-2.44517279 36.14248899 -2.68084299 34.11774623 -2.91870117 32.09326172 C-3.26457526 29.14866449 -3.60369418 26.20335568 -3.94140625 23.2578125 C-4.04763809 22.36377716 -4.15386993 21.46974182 -4.26332092 20.5486145 C-4.89057864 14.99553021 -5.2681898 9.58917128 -5 4 C-4.34 3.34 -3.68 2.68 -3 2 C-2.67 2.99 -2.34 3.98 -2 5 C-1.34 5.33 -0.68 5.66 0 6 C0 4.02 0 2.04 0 0 Z " fill="#171414" transform="translate(246,287)"/>
<path d="M0 0 C1.19367188 -0.02578125 2.38734375 -0.0515625 3.6171875 -0.078125 C9.03321669 0.42849688 12.14639518 2.22691314 15.875 6.125 C19.38407259 10.99871193 20.40448019 14.24117589 20.125 20.25 C10.85967409 23.90736549 0.80400616 23.38660005 -9 23.3125 C-10.14726563 23.30798828 -11.29453125 23.30347656 -12.4765625 23.29882812 C-15.27609813 23.28716339 -18.07551986 23.27079614 -20.875 23.25 C-21.01854502 15.95942385 -20.48824346 11.11819404 -15.3125 5.4375 C-14.1059375 4.3546875 -14.1059375 4.3546875 -12.875 3.25 C-12.215 2.59 -11.555 1.93 -10.875 1.25 C-7.33285746 -0.02321253 -3.73205596 0.04815556 0 0 Z " fill="#0D080B" transform="translate(129.875,91.75)"/>
<path d="M0 0 C5.40831524 4.57984698 8.96027005 10.39629737 9.58203125 17.484375 C9.44110621 23.88472061 7.43986396 29.40797611 3.24609375 34.265625 C-2.39481316 39.5792438 -7.27563289 41.85718423 -15.04296875 42.234375 C-16.25984375 42.13125 -17.47671875 42.028125 -18.73046875 41.921875 C-19.39046875 40.931875 -20.05046875 39.941875 -20.73046875 38.921875 C-23.05718729 38.23247691 -25.39114469 37.56720578 -27.73046875 36.921875 C-32.73374491 33.80196135 -34.80188413 29.35972732 -36.73046875 23.921875 C-38.19993412 16.35684958 -36.38887176 10.73835372 -32.4375 4.2421875 C-24.74099972 -6.21941699 -10.12876568 -6.69934108 0 0 Z M-25.73046875 0.921875 C-27.08026955 2.70453386 -27.08026955 2.70453386 -27.73046875 4.921875 C-28.24609375 5.581875 -28.76171875 6.241875 -29.29296875 6.921875 C-32.41718648 11.26861272 -32.26328851 16.75903527 -31.73046875 21.921875 C-30.54238695 24.9401715 -30.54238695 24.9401715 -28.73046875 26.921875 C-28.07046875 26.921875 -27.41046875 26.921875 -26.73046875 26.921875 C-26.73046875 27.911875 -26.73046875 28.901875 -26.73046875 29.921875 C-21.54964824 33.26782158 -17.88269311 34.49013996 -11.73046875 34.921875 C-11.73046875 34.261875 -11.73046875 33.601875 -11.73046875 32.921875 C-11.16585937 33.15132812 -10.60125 33.38078125 -10.01953125 33.6171875 C-7.63626842 34.16465708 -7.63626842 34.16465708 -5.44140625 32.6640625 C-4.28511719 31.73980469 -4.28511719 31.73980469 -3.10546875 30.796875 C-1.94144531 29.89582031 -1.94144531 29.89582031 -0.75390625 28.9765625 C2.35472071 25.81992585 3.18388989 23.03521271 3.51953125 18.671875 C3.11155553 12.14371517 3.11155553 12.14371517 1.26953125 5.921875 C-0.70659082 4.76184238 -0.70659082 4.76184238 -2.73046875 3.921875 C-3.06046875 3.261875 -3.39046875 2.601875 -3.73046875 1.921875 C-4.39046875 1.921875 -5.05046875 1.921875 -5.73046875 1.921875 C-5.73046875 1.261875 -5.73046875 0.601875 -5.73046875 -0.078125 C-15.81871652 -0.48191434 -15.81871652 -0.48191434 -25.73046875 0.921875 Z " fill="#EFE2CF" transform="translate(224.73046875,166.078125)"/>
<path d="M0 0 C0.495 0.99 0.495 0.99 1 2 C-2.00411523 10.11111111 -2.00411523 10.11111111 -5 13 C-7.33163378 13.67258667 -9.6652039 14.33847444 -12 15 C-12.94875 15.86625 -13.8975 16.7325 -14.875 17.625 C-19.27417455 21.08796578 -24.47163699 20.31193365 -29.78271484 19.99072266 C-34.73153333 19.7433377 -37.59947616 20.44571097 -42 23 C-42.66 23 -43.32 23 -44 23 C-44 23.66 -44 24.32 -44 25 C-49.48946087 26.12029814 -52.83430559 25.79217969 -58 24 C-57.01 23.67 -56.02 23.34 -55 23 C-55.66 21.35 -56.32 19.7 -57 18 C-55.68 17.34 -54.36 16.68 -53 16 C-55.64 15.67 -58.28 15.34 -61 15 C-61 14.34 -61 13.68 -61 13 C-56.545 12.505 -56.545 12.505 -52 12 C-52 11.34 -52 10.68 -52 10 C-51.2972998 9.93530518 -50.59459961 9.87061035 -49.87060547 9.80395508 C-37.2854738 8.6121425 -24.8359825 7.26889771 -12.5 4.4375 C-11.58202637 4.22778564 -10.66405273 4.01807129 -9.71826172 3.80200195 C-5.91161463 2.88316861 -3.3022294 2.20148627 0 0 Z " fill="#DDCAB9" transform="translate(273,123)"/>
<path d="M0 0 C2.39453125 -0.4140625 2.39453125 -0.4140625 5 0 C6.9140625 1.6796875 6.9140625 1.6796875 8.625 3.875 C10.72324406 6.52391444 12.14208682 8.09472455 15 10 C17.05709596 10.24055468 17.05709596 10.24055468 19.1875 10.125 C20.445625 10.08375 21.70375 10.0425 23 10 C23.99 7.36 24.98 4.72 26 2 C27.98 2 29.96 2 32 2 C32.28792938 7.56663461 32.22557511 11.2172507 29 16 C23.44396885 20.12284997 17.65768315 19.79657418 11 19 C8.57654584 17.92755189 7.07410425 16.70182913 5 15 C0.23385049 15 -1.18600284 16.3220871 -5 19 C-10.23544264 20.74514755 -15.17656022 20.64158066 -20.375 18.8125 C-23.44482224 16.69286083 -24.63773655 15.48133993 -26 12 C-26.22831314 8.98119291 -26.17766517 6.02030786 -26 3 C-24.35 2.67 -22.7 2.34 -21 2 C-20.70867187 2.5775 -20.41734375 3.155 -20.1171875 3.75 C-18.87436344 6.00115302 -17.64117357 8.0185306 -16 10 C-12.06751939 11.0040376 -10.44949799 10.23373895 -6.875 8.375 C-3.83842582 6.11618442 -3.83842582 6.11618442 -1.9375 2.75 C-1.298125 1.8425 -0.65875 0.935 0 0 Z " fill="#100C0D" transform="translate(173,203)"/>
<path d="M0 0 C1.134375 0.020625 2.26875 0.04125 3.4375 0.0625 C3.43226318 0.77156494 3.42702637 1.48062988 3.42163086 2.21118164 C3.34546436 14.10376153 3.27815224 25.91983464 4.203125 37.78125 C4.45553987 41.31505822 4.61049925 44.83296544 4.6875 48.375 C4.71328125 49.42300781 4.7390625 50.47101563 4.765625 51.55078125 C4.65734375 52.37964844 4.5490625 53.20851563 4.4375 54.0625 C0.62644923 56.60320051 -2.24814693 56.21613256 -6.625 55.9375 C-7.72424805 55.90269531 -7.72424805 55.90269531 -8.84570312 55.8671875 C-10.97265625 55.7421875 -10.97265625 55.7421875 -14.5625 55.0625 C-16.05859375 53.0078125 -16.05859375 53.0078125 -16.5625 51.0625 C-14.5625 48.0625 -14.5625 48.0625 -12.1796875 47.55078125 C-11.27476562 47.49277344 -10.36984375 47.43476563 -9.4375 47.375 C-8.52742187 47.30925781 -7.61734375 47.24351562 -6.6796875 47.17578125 C-5.63167969 47.11970703 -5.63167969 47.11970703 -4.5625 47.0625 C-4.59802979 46.02432129 -4.63355957 44.98614258 -4.67016602 43.91650391 C-4.8016928 40.02152205 -4.92443242 36.12630213 -5.04467773 32.23095703 C-5.09766291 30.55314669 -5.15295102 28.87540727 -5.21069336 27.19775391 C-5.82090315 9.37962809 -5.82090315 9.37962809 -4.5625 1.0625 C-3.5625 0.0625 -3.5625 0.0625 0 0 Z " fill="#877F77" transform="translate(162.5625,294.9375)"/>
<path d="M0 0 C2.31 0 4.62 0 7 0 C6.99476318 0.7748877 6.98952637 1.54977539 6.98413086 2.34814453 C6.79902132 20.73056886 6.79902132 20.73056886 7.7734375 39.07421875 C8.15722104 44.03031996 8.29562299 49.03527279 8 54 C5.89868615 56.10131385 1.45853678 55.18514741 -1.4375 55.1875 C-2.22705078 55.19974609 -3.01660156 55.21199219 -3.83007812 55.22460938 C-5.88807435 55.22987279 -7.94562009 55.12206285 -10 55 C-10.66 54.34 -11.32 53.68 -12 53 C-11.67 51.35 -11.34 49.7 -11 48 C-5.555 47.505 -5.555 47.505 0 47 C-0.16242188 45.36160156 -0.32484375 43.72320312 -0.4921875 42.03515625 C-1.08688827 34.88298645 -1.15174778 27.75788156 -1.13037109 20.58764648 C-1.12492949 18.40927422 -1.13039407 16.23110107 -1.13671875 14.05273438 C-1.13605922 12.65885371 -1.13478066 11.26497318 -1.1328125 9.87109375 C-1.13168457 8.62255615 -1.13055664 7.37401855 -1.12939453 6.08764648 C-1 3 -1 3 0 0 Z " fill="#857D76" transform="translate(186,295)"/>
<path d="M0 0 C13.38405804 1.63054514 26.94872181 16.63053017 37 25 C36.859375 27.30078125 36.859375 27.30078125 36 30 C33.453125 31.73046875 33.453125 31.73046875 30.25 33.1875 C28.67992187 33.92033203 28.67992187 33.92033203 27.078125 34.66796875 C26.06234375 35.10753906 25.0465625 35.54710937 24 36 C23.10796875 36.38800781 22.2159375 36.77601563 21.296875 37.17578125 C19 38 19 38 16 38 C15.34 35.36 14.68 32.72 14 30 C17.44069624 27.70620251 18.72290301 27 23 27 C18.50649158 22.20983277 13.45171504 18.59896876 8.08789062 14.84179688 C6.35859193 13.60658352 4.67475904 12.308208 3 11 C3 10.34 3 9.68 3 9 C1.68 8.34 0.36 7.68 -1 7 C-1.04254356 5.00045254 -1.04080783 2.99958364 -1 1 C-0.67 0.67 -0.34 0.34 0 0 Z " fill="#867C72" transform="translate(240,242)"/>
<path d="M0 0 C0.99 0.33 1.98 0.66 3 1 C6.84283684 1.13973952 10.3171369 1.17851619 14 0 C14.89674777 2.51089376 15.13172674 3.64535109 14.1875 6.1875 C13 8 13 8 11 9 C11 9.99 11 10.98 11 12 C10.34 11.67 9.68 11.34 9 11 C7.98888907 14.04913228 7.98888907 14.04913228 9 17 C7.68 16.34 6.36 15.68 5 15 C4.67 15.99 4.34 16.98 4 18 C0.5075007 19.60385161 -3.28516713 20.30564563 -7.08203125 19.62890625 C-10.17849243 18.47506703 -11.7880194 17.36866191 -13.4375 14.5 C-14 12 -14 12 -14 9 C-16.64 8.67 -19.28 8.34 -22 8 C-22 7.34 -22 6.68 -22 6 C-20.80375 5.938125 -19.6075 5.87625 -18.375 5.8125 C-14.7129198 5.38846966 -13.98988656 4.99136144 -11 2.4375 C-6.94232398 -0.85936177 -5.10699089 -0.50232697 0 0 Z " fill="#85786E" transform="translate(237,276)"/>
<path d="M0 0 C1 2 1 2 0.3046875 4.89453125 C-3.30936674 9.76431619 -8.16050226 10.28069944 -13.875 11.6875 C-16.04072572 12.2475131 -18.20486232 12.81371581 -20.3671875 13.38671875 C-21.32737793 13.62608154 -22.28756836 13.86544434 -23.27685547 14.11206055 C-26.16309627 15.05318102 -28.42441654 16.41453611 -31 18 C-31.66 18 -32.32 18 -33 18 C-31.694761 20.61047801 -30.64173426 20.68066423 -27.9375 21.625 C-27.20402344 21.88539062 -26.47054687 22.14578125 -25.71484375 22.4140625 C-24.86599609 22.70410156 -24.86599609 22.70410156 -24 23 C-24 23.33 -24 23.66 -24 24 C-34.89 24 -45.78 24 -57 24 C-57 23.67 -57 23.34 -57 23 C-56.11957031 23.03222656 -55.23914062 23.06445312 -54.33203125 23.09765625 C-50.70375865 23.06141379 -47.52436445 22.88324537 -44 22 C-42.09951146 19.87618216 -41.24820328 17.89209063 -40.1328125 15.28125 C-36.80804415 8.58585442 -27.53063319 6.39660502 -20.96484375 4.13671875 C-14.13775075 2.05254881 -7.04580219 1.0491933 0 0 Z " fill="#EEE5D9" transform="translate(112,98)"/>
<path d="M0 0 C6.75 0.75 6.75 0.75 9 3 C8.94921875 4.98828125 8.94921875 4.98828125 8 7 C5.70703125 8.23046875 5.70703125 8.23046875 2.8125 9.1875 C1.87019531 9.51105469 0.92789063 9.83460937 -0.04296875 10.16796875 C-5.60494439 11.73296322 -10.81563595 12.12073746 -16.5859375 12.09765625 C-17.28772125 12.0962413 -17.989505 12.09482635 -18.71255493 12.09336853 C-20.93341504 12.0878129 -23.15417084 12.07526892 -25.375 12.0625 C-26.88932145 12.05747926 -28.4036445 12.05291736 -29.91796875 12.04882812 C-33.61201252 12.03785807 -37.30599606 12.02062449 -41 12 C-41 9.69 -41 7.38 -41 5 C-40.28344238 4.97494385 -39.56688477 4.9498877 -38.82861328 4.92407227 C-35.59388486 4.80830249 -32.35946159 4.68549031 -29.125 4.5625 C-27.99707031 4.52318359 -26.86914062 4.48386719 -25.70703125 4.44335938 C-24.63066406 4.40146484 -23.55429688 4.35957031 -22.4453125 4.31640625 C-20.95281982 4.26141968 -20.95281982 4.26141968 -19.43017578 4.20532227 C-16.99220499 4.15040468 -16.99220499 4.15040468 -15 3 C-12.45384991 2.76827173 -9.92603775 2.58105471 -7.375 2.4375 C-6.31539062 2.37272461 -6.31539062 2.37272461 -5.234375 2.30664062 C-3.48981463 2.20055249 -1.74493303 2.09977111 0 2 C0 1.34 0 0.68 0 0 Z " fill="#0B0608" transform="translate(151,117)"/>
<path d="M0 0 C0.99 0.33 1.98 0.66 3 1 C3.99 0.67 4.98 0.34 6 0 C6.33 0.66 6.66 1.32 7 2 C7.845625 1.67 8.69125 1.34 9.5625 1 C16.09521871 -0.90042726 21.98703375 0.18196276 28.4375 1.75 C29.18378662 1.92756836 29.93007324 2.10513672 30.69897461 2.28808594 C35.88940214 3.58100627 40.3824938 5.24914524 45 8 C44 11 44 11 42 12.0625 C38.04952658 13.29702294 34.05244642 14.17008723 30 15 C29.505 12.525 29.505 12.525 29 10 C28.030625 9.690625 27.06125 9.38125 26.0625 9.0625 C23 8 23 8 22 7 C20.38795719 6.85442276 18.77004528 6.77275477 17.15234375 6.71875 C16.15396484 6.68136719 15.15558594 6.64398438 14.12695312 6.60546875 C13.07443359 6.57066406 12.02191406 6.53585938 10.9375 6.5 C4.23165829 6.27239758 -2.35513443 5.95724354 -9 5 C-8.34 4.01 -7.68 3.02 -7 2 C-7 2.66 -7 3.32 -7 4 C-6.34 4 -5.68 4 -5 4 C-5 3.34 -5 2.68 -5 2 C-3.35 2 -1.7 2 0 2 C0 1.34 0 0.68 0 0 Z " fill="#857B72" transform="translate(224,107)"/>
<path d="M0 0 C2.3515625 0.48046875 2.3515625 0.48046875 4.9765625 2.54296875 C6.71220522 6.25093274 7.00253932 8.42994633 6.3515625 12.48046875 C4.36372813 15.40010048 2.9200928 17.09149853 -0.5859375 17.9609375 C-4.54859656 18.23862384 -6.31255151 17.71139037 -9.6484375 15.41796875 C-12.16773985 11.71774342 -12.3550716 9.87730315 -11.6484375 5.48046875 C-9.06798605 -0.0323139 -5.62241638 -0.30682803 0 0 Z " fill="#140F10" transform="translate(150.6484375,175.51953125)"/>
<path d="M0 0 C4.56944444 2.13888889 4.56944444 2.13888889 6 5 C6.55881444 9.09797257 6.1370529 10.76872323 4 14.375 C0.49872195 17.43861829 0.49872195 17.43861829 -3.0625 17.625 C-7.29509682 16.95315923 -8.51129559 16.38463799 -11 13 C-12.54586876 9.90826248 -12.29359521 7.40570448 -12 4 C-9.11297176 -0.69142089 -5.10367149 -0.86073825 0 0 Z " fill="#120D0E" transform="translate(213,175)"/>
<path d="M0 0 C-1.7592326 5.53584605 -4.61649806 7.64901401 -9.453125 10.63671875 C-14.52534268 12.58628259 -19.17718339 12.40366229 -24.54101562 11.91723633 C-29.91051197 11.53243814 -32.29716734 12.49289579 -36.45458984 15.8828125 C-38 17 -38 17 -40.51171875 17.33984375 C-41.22972656 17.20707031 -41.94773438 17.07429688 -42.6875 16.9375 C-43.41324219 16.82277344 -44.13898438 16.70804688 -44.88671875 16.58984375 C-47.10446644 15.97084208 -48.98118193 15.09827349 -51 14 C-50.67 13.34 -50.34 12.68 -50 12 C-46.04 12 -42.08 12 -38 12 C-38 11.34 -38 10.68 -38 10 C-32.31405825 6.12872051 -28.1580983 5.82585658 -21.5 6.125 C-14.37227548 6.44047085 -14.37227548 6.44047085 -8.25 3 C-7.71890625 2.443125 -7.1878125 1.88625 -6.640625 1.3125 C-4.40036136 -0.47971091 -2.78759114 -0.22755846 0 0 Z " fill="#989593" transform="translate(267,136)"/>
<path d="M0 0 C0 1.32 0 2.64 0 4 C-0.66 4 -1.32 4 -2 4 C-2 4.66 -2 5.32 -2 6 C-10.08527548 6.9012994 -18.05674103 7.12442142 -26.1875 7.0625 C-27.90163086 7.05573242 -27.90163086 7.05573242 -29.65039062 7.04882812 C-32.4336511 7.03718268 -35.21679572 7.02082997 -38 7 C-39.0625 5.125 -39.0625 5.125 -40 3 C-39.67 2.34 -39.34 1.68 -39 1 C-25.99533484 0.39250166 -13.02106078 -0.18780376 0 0 Z " fill="#A39D99" transform="translate(149,114)"/>
<path d="M0 0 C-0.66 2.31 -1.32 4.62 -2 7 C-2.81984375 7.10957031 -3.6396875 7.21914062 -4.484375 7.33203125 C-5.56203125 7.49058594 -6.6396875 7.64914063 -7.75 7.8125 C-8.81734375 7.96332031 -9.8846875 8.11414063 -10.984375 8.26953125 C-14.09252152 9.0224113 -15.67494968 9.84717563 -18 12 C-19.2516467 14.08334635 -19.2516467 14.08334635 -20 16 C-23 15 -23 15 -26 13 C-27.65583225 12.30686092 -29.32110979 11.63525576 -31 11 C-31 10.34 -31 9.68 -31 9 C-25.31884499 5.39827327 -19.71273246 3.4757318 -13.25 1.6875 C-11.83267578 1.27274414 -11.83267578 1.27274414 -10.38671875 0.84960938 C-3.38349237 -1.12783079 -3.38349237 -1.12783079 0 0 Z " fill="#A5998E" transform="translate(110,107)"/>
<path d="M0 0 C0.66 0 1.32 0 2 0 C2 16.5 2 33 2 50 C1.34 50 0.68 50 0 50 C-5.54522436 11.90575327 -5.54522436 11.90575327 -5 4 C-4.34 3.34 -3.68 2.68 -3 2 C-2.67 2.99 -2.34 3.98 -2 5 C-1.34 5.33 -0.68 5.66 0 6 C0 4.02 0 2.04 0 0 Z " fill="#0F0B0C" transform="translate(246,287)"/>
<path d="M0 0 C0.66 2.64 1.32 5.28 2 8 C-4.53686384 8.98831156 -10.89577115 9.11883529 -17.5 9.0625 C-18.51320312 9.05798828 -19.52640625 9.05347656 -20.5703125 9.04882812 C-23.04693827 9.03714593 -25.52343657 9.02076582 -28 9 C-28 7.68 -28 6.36 -28 5 C-26.68 4.67 -25.36 4.34 -24 4 C-25.32 3.34 -26.64 2.68 -28 2 C-24.64637391 1.6610769 -21.29202668 1.32988036 -17.9375 1 C-16.99455078 0.90460938 -16.05160156 0.80921875 -15.08007812 0.7109375 C-10.02487778 0.21774722 -5.07896392 -0.11270932 0 0 Z " fill="#DDC9B7" transform="translate(223,285)"/>
<path d="M0 0 C0.8125 2.1875 0.8125 2.1875 1 5 C-1.3125 7.8125 -1.3125 7.8125 -4 10 C-4.66 10 -5.32 10 -6 10 C-6 10.66 -6 11.32 -6 12 C-12.11774896 12.49940808 -15.02495953 11.24900602 -20 8 C-20 5.69 -20 3.38 -20 1 C-18.07560087 0.76367028 -16.15117018 0.52759407 -14.2265625 0.29296875 C-12.24865047 0.03271717 -10.27940835 -0.2916257 -8.3125 -0.625 C-5.18889028 -0.97861619 -3.00778803 -0.82030583 0 0 Z " fill="#6E645F" transform="translate(186,226)"/>
<path d="M0 0 C2.77119683 6.6805638 3.67116299 12.77209093 3 20 C2 21 2 21 -1.5625 21.0625 C-2.696875 21.041875 -3.83125 21.02125 -5 21 C-5 19.02 -5 17.04 -5 15 C-5.66 14.67 -6.32 14.34 -7 14 C-6.01 13.34 -5.02 12.68 -4 12 C-3.26656572 8.93443402 -3.26656572 8.93443402 -3 6 C-6.3 6.33 -9.6 6.66 -13 7 C-12.10845646 4.25107408 -11.25590275 2.28433639 -9.3125 0.125 C-5.98776587 -1.49243822 -3.53385237 -0.74754569 0 0 Z " fill="#F1B312" transform="translate(254,271)"/>
<path d="M0 0 C0.93134766 0.01788574 1.86269531 0.03577148 2.82226562 0.05419922 C5.96561741 0.12203778 9.1074619 0.21423518 12.25 0.3125 C13.27544922 0.33489746 14.30089844 0.35729492 15.35742188 0.38037109 C16.31712891 0.41598145 17.27683594 0.4515918 18.265625 0.48828125 C19.12961914 0.51446533 19.99361328 0.54064941 20.88378906 0.56762695 C23 1 23 1 25 4 C24.02101242 3.83701416 23.04202484 3.67402832 22.03337097 3.50610352 C17.83043173 2.9092911 13.70474306 2.87365699 9.46606445 2.90234375 C8.23058868 2.90453415 8.23058868 2.90453415 6.97015381 2.9067688 C5.19359544 2.91055534 3.41704076 2.91665111 1.64049721 2.92483521 C-1.17138297 2.93765808 -3.9832157 2.9441291 -6.79512024 2.94897461 C-12.75926822 2.96036943 -18.72337682 2.979625 -24.6875 3 C-31.61086052 3.02360647 -38.53419882 3.0439844 -45.4575901 3.05593872 C-48.22734696 3.06241957 -50.99703521 3.07492435 -53.76676941 3.08764648 C-55.46259501 3.09127859 -57.15842125 3.09463037 -58.85424805 3.09765625 C-59.6236824 3.10282257 -60.39311676 3.10798889 -61.18586731 3.11331177 C-64.59728028 3.11365021 -67.74039592 3.07982913 -71 2 C-71.33 3.65 -71.66 5.3 -72 7 C-72.33 7 -72.66 7 -73 7 C-73.042721 5.33388095 -73.04063832 3.66617115 -73 2 C-72 1 -72 1 -68.17724609 0.90234375 C-66.45928413 0.90932898 -64.74133872 0.92145267 -63.0234375 0.9375 C-61.64727768 0.94317993 -61.64727768 0.94317993 -60.24331665 0.94897461 C-56.31156907 0.96528391 -52.37992482 0.99295848 -48.44824219 1.02050781 C-37.96885975 1.08770601 -27.58083651 1.0874345 -17.12939453 0.23095703 C-11.41759161 -0.19058811 -5.72144331 -0.1300328 0 0 Z " fill="#D3692A" transform="translate(223,112)"/>
<path d="M0 0 C-0.33 0.99 -0.66 1.98 -1 3 C-2.32 2.67 -3.64 2.34 -5 2 C-4.98195312 3.15628906 -4.96390625 4.31257813 -4.9453125 5.50390625 C-4.94715469 9.69027576 -5.32517866 13.79004474 -5.875 17.9375 C-5.96378418 18.62972656 -6.05256836 19.32195312 -6.14404297 20.03515625 C-6.82000182 25.11019353 -7.75900744 30.03602976 -9 35 C-9.33 35 -9.66 35 -10 35 C-10.16724111 30.03396287 -10.32783783 25.06777322 -10.48217773 20.10131836 C-10.53567115 18.41050377 -10.59100598 16.71974642 -10.64819336 15.02905273 C-10.72990041 12.60412953 -10.80506395 10.17908006 -10.87890625 7.75390625 C-10.90594131 6.99348526 -10.93297638 6.23306427 -10.96083069 5.44960022 C-11.01291299 3.63376666 -11.01186585 1.81654157 -11 0 C-7.87017853 -3.12982147 -3.20216714 -2.13477809 0 0 Z " fill="#070304" transform="translate(260,294)"/>
<path d="M0 0 C2.20270733 1.06056279 4.14877676 2.10939468 6.125 3.5625 C10.27593728 5.63796864 14.41409243 5.74176443 19 6 C19 6.33 19 6.66 19 7 C16.36 7.33 13.72 7.66 11 8 C11 8.99 11 9.98 11 11 C10.319375 10.814375 9.63875 10.62875 8.9375 10.4375 C5.40718725 9.91170874 2.52065267 10.45369183 -1 11 C-3.33303944 11.03703237 -5.66715242 11.04760913 -8 11 C-7.34 9.68 -6.68 8.36 -6 7 C-7.32 6.67 -8.64 6.34 -10 6 C-9.44570312 5.73445312 -8.89140625 5.46890625 -8.3203125 5.1953125 C-7.59585938 4.84210938 -6.87140625 4.48890625 -6.125 4.125 C-5.40570313 3.77695313 -4.68640625 3.42890625 -3.9453125 3.0703125 C-1.84864981 2.03442457 -1.84864981 2.03442457 0 0 Z " fill="#D5C7B9" transform="translate(175,216)"/>
<path d="M0 0 C0.53625 0.226875 1.0725 0.45375 1.625 0.6875 C0.965 0.6875 0.305 0.6875 -0.375 0.6875 C-0.705 1.3475 -1.035 2.0075 -1.375 2.6875 C-5.59273094 5.81618882 -8.99811848 7.75306579 -14.3125 7.5 C-15.28896484 7.30083984 -15.28896484 7.30083984 -16.28515625 7.09765625 C-24.08179394 5.56747502 -31.00966481 7.05478444 -38.375 9.6875 C-37.375 6.6875 -37.375 6.6875 -34.75 5.046875 C-27.76222265 1.71474043 -22.95506017 -0.26336028 -15.375 1.6875 C-9.02523936 2.97897674 -5.49368328 -0.72285306 0 0 Z " fill="#E0D0BF" transform="translate(234.375,150.3125)"/>
<path d="M0 0 C1.17949219 -0.01160156 2.35898438 -0.02320312 3.57421875 -0.03515625 C10.80081534 -0.09128516 17.82815846 -0.02454879 25 1 C24.01 2.485 24.01 2.485 23 4 C21.68 3.67 20.36 3.34 19 3 C18.67 3.66 18.34 4.32 18 5 C17.34 4.34 16.68 3.68 16 3 C15.01 3.33 14.02 3.66 13 4 C13 3.34 13 2.68 13 2 C12.34 2 11.68 2 11 2 C11 2.66 11 3.32 11 4 C9.35 4 7.7 4 6 4 C6 4.66 6 5.32 6 6 C2.7 6.33 -0.6 6.66 -4 7 C-4.66 5.02 -5.32 3.04 -6 1 C-4 0 -4 0 0 0 Z " fill="#999189" transform="translate(213,105)"/>
<path d="M0 0 C2.3125 0.1875 2.3125 0.1875 5 1 C6.625 3.4375 6.625 3.4375 8 6 C11.18762365 8.12508244 13.26512223 8.5020163 17 9 C17 9.33 17 9.66 17 10 C15.35 10 13.7 10 12 10 C11.86722656 10.56589844 11.73445312 11.13179687 11.59765625 11.71484375 C11.33275391 12.81505859 11.33275391 12.81505859 11.0625 13.9375 C10.88847656 14.66839844 10.71445313 15.39929688 10.53515625 16.15234375 C10 18 10 18 9 19 C6.32941149 19.14115161 3.67567762 19.04247107 1 19 C1 18.67 1 18.34 1 18 C4.465 17.505 4.465 17.505 8 17 C8 15.68 8 14.36 8 13 C7.401875 12.731875 6.80375 12.46375 6.1875 12.1875 C3.82514947 10.90508114 2.54492072 10.2070296 1 8 C0.44822108 5.32068888 0.22435414 2.73712045 0 0 Z " fill="#ECB931" transform="translate(187,195)"/>
<path d="M0 0 C-7.62912483 2.47168075 -15.03988787 2.22635304 -23 2.125 C-24.36067049 2.11494978 -25.72134817 2.10582754 -27.08203125 2.09765625 C-30.38820647 2.0742082 -33.6940088 2.04138856 -37 2 C-36.67 1.34 -36.34 0.68 -36 0 C-30.91910601 -0.98613752 -25.78435425 -1.28102792 -20.625 -1.5625 C-19.87911621 -1.6035083 -19.13323242 -1.6445166 -18.36474609 -1.68676758 C-3.6891314 -2.45942093 -3.6891314 -2.45942093 0 0 Z " fill="#CABAAD" transform="translate(218,285)"/>
<path d="M0 0 C0.33 0 0.66 0 1 0 C1.33 2.64 1.66 5.28 2 8 C2.33 8 2.66 8 3 8 C2.52013969 13.56890517 1.70084819 18.67067568 0 24 C-1.32 24 -2.64 24 -4 24 C-4.77112541 19.27685687 -5.09764874 14.78478822 -5 10 C-4.67 10 -4.34 10 -4 10 C-3.67 11.65 -3.34 13.3 -3 15 C-2.67 11.7 -2.34 8.4 -2 5 C-1.34 5 -0.68 5 0 5 C0 3.35 0 1.7 0 0 Z " fill="#322F30" transform="translate(251,327)"/>
<path d="M0 0 C1 2 1 2 0.125 5 C-1 8 -1 8 -2 10 C-2.22858114 12.0374763 -2.41024278 14.08040303 -2.5625 16.125 C-2.64628906 17.22070312 -2.73007813 18.31640625 -2.81640625 19.4453125 C-2.87699219 20.28835937 -2.93757812 21.13140625 -3 22 C-2.34 22 -1.68 22 -1 22 C-1.05220703 20.96939453 -1.05220703 20.96939453 -1.10546875 19.91796875 C-1.13253906 19.01691406 -1.15960938 18.11585938 -1.1875 17.1875 C-1.23970703 15.84751953 -1.23970703 15.84751953 -1.29296875 14.48046875 C-0.95081002 11.58352485 -0.24606427 10.77444972 2 9 C1.98839844 9.88042969 1.97679687 10.76085937 1.96484375 11.66796875 C1.95582031 12.82941406 1.94679687 13.99085938 1.9375 15.1875 C1.92589844 16.33605469 1.91429687 17.48460937 1.90234375 18.66796875 C1.98807168 21.59300586 2.32150977 24.16316291 3 27 C2.01 27 1.02 27 0 27 C0.33 28.98 0.66 30.96 1 33 C-2.45546552 31.27226724 -3.01724561 27.67913346 -4.23046875 24.17578125 C-6.32678891 15.52447015 -4.15741021 7.6573695 0 0 Z " fill="#EEB723" transform="translate(187,168)"/>
<path d="M0 0 C0.33 0 0.66 0 1 0 C2.0159562 7.84591385 2.31588743 15.65876935 2.5625 23.5625 C2.60568359 24.85736328 2.64886719 26.15222656 2.69335938 27.48632812 C2.79867385 30.65746384 2.90080617 33.82866793 3 37 C2.34 37 1.68 37 1 37 C1 40.3 1 43.6 1 47 C0.01 47.495 0.01 47.495 -1 48 C-0.67 32.16 -0.34 16.32 0 0 Z " fill="#252223" transform="translate(248,295)"/>
<path d="M0 0 C4.47994839 -0.07512813 8.95954625 -0.12905469 13.43994141 -0.16479492 C14.95856121 -0.17972112 16.47713917 -0.20006959 17.99560547 -0.22631836 C27.46070571 -0.38563193 35.87986289 0.06474542 45 3 C45.495 5.475 45.495 5.475 46 8 C41.545 8.495 41.545 8.495 37 9 C37 8.34 37 7.68 37 7 C40.465 6.505 40.465 6.505 44 6 C44 5.34 44 4.68 44 4 C42.85724609 3.90912109 42.85724609 3.90912109 41.69140625 3.81640625 C40.14259766 3.69072266 40.14259766 3.69072266 38.5625 3.5625 C37.04849609 3.44068359 37.04849609 3.44068359 35.50390625 3.31640625 C32.93919708 3.08481044 30.39877142 2.80902631 27.84375 2.5 C22.22103071 1.86417143 16.58934113 1.65501565 10.9375 1.4375 C9.35291992 1.37272461 9.35291992 1.37272461 7.73632812 1.30664062 C5.15765121 1.20162663 2.57889565 1.09947123 0 1 C0 0.67 0 0.34 0 0 Z " fill="#E06520" transform="translate(208,114)"/>
<path d="M0 0 C0.93134766 0.01788574 1.86269531 0.03577148 2.82226562 0.05419922 C5.96561741 0.12203778 9.1074619 0.21423518 12.25 0.3125 C13.27544922 0.33489746 14.30089844 0.35729492 15.35742188 0.38037109 C16.31712891 0.41598145 17.27683594 0.4515918 18.265625 0.48828125 C19.12961914 0.51446533 19.99361328 0.54064941 20.88378906 0.56762695 C23 1 23 1 25 4 C24.0711499 3.84152588 23.1422998 3.68305176 22.18530273 3.51977539 C17.15038981 2.80410563 12.11307269 2.76914808 7.03515625 2.68359375 C6.00184677 2.66281265 4.96853729 2.64203156 3.90391541 2.62062073 C0.62350716 2.55556522 -2.65697685 2.49644596 -5.9375 2.4375 C-8.16992951 2.39427289 -10.40235154 2.35065729 -12.63476562 2.30664062 C-18.08976511 2.19992929 -23.54483892 2.09808356 -29 2 C-29 1.67 -29 1.34 -29 1 C-19.31223447 0.24017525 -9.72142087 -0.22094138 0 0 Z " fill="#BC7547" transform="translate(223,112)"/>
<path d="M0 0 C0.33 0.66 0.66 1.32 1 2 C3.84666561 2.06620153 6.4667825 2.12106759 9.25268555 1.48852539 C12.66136752 0.88239612 15.80976692 0.99295433 19.26953125 1.12109375 C20.29103523 1.15651024 20.29103523 1.15651024 21.33317566 1.19264221 C23.49318912 1.26878386 25.65279828 1.35301819 27.8125 1.4375 C29.28318381 1.49077039 30.75388693 1.54351039 32.22460938 1.59570312 C35.81665024 1.72433089 39.40837405 1.86021472 43 2 C43 2.33 43 2.66 43 3 C7.52322798 4.19388403 7.52322798 4.19388403 -9 4 C-6.05047042 2.50002556 -3.08510827 1.19976433 0 0 Z " fill="#DA6722" transform="translate(157,124)"/>
<path d="M0 0 C1.22589844 0.15275391 1.22589844 0.15275391 2.4765625 0.30859375 C3.41628906 0.43427734 3.41628906 0.43427734 4.375 0.5625 C4.045 1.5525 3.715 2.5425 3.375 3.5625 C6.345 4.5525 9.315 5.5425 12.375 6.5625 C8.375 7.5625 8.375 7.5625 5.8125 6.625 C0.98988106 5.13437233 -3.61604916 5.40207097 -8.625 5.5625 C-6.69358636 0.18213342 -5.66318205 -0.72812341 0 0 Z " fill="#B3ABA4" transform="translate(213.625,146.4375)"/>
<path d="M0 0 C1.32 0.99 2.64 1.98 4 3 C6.64934822 3.71433121 6.64934822 3.71433121 9 4 C8.67 5.65 8.34 7.3 8 9 C6.35 9 4.7 9 3 9 C3 9.66 3 10.32 3 11 C2.34 11 1.68 11 1 11 C0.67 11.66 0.34 12.32 0 13 C0 8.71 0 4.42 0 0 Z " fill="#F3B20B" transform="translate(235,179)"/>
<path d="M0 0 C0.66 0 1.32 0 2 0 C2.22875012 6.96973021 1.4042249 13.24536763 0 20.0625 C-0.19078125 21.02349609 -0.3815625 21.98449219 -0.578125 22.97460938 C-1.04448055 25.318046 -1.51854466 27.65962765 -2 30 C-2.33 30 -2.66 30 -3 30 C-2.50100262 19.88873728 -1.61017136 10.00494828 0 0 Z " fill="#252324" transform="translate(255,296)"/>
<path d="M0 0 C-0.66 4.29 -1.32 8.58 -2 13 C-2.66 13 -3.32 13 -4 13 C-4.33 13.99 -4.66 14.98 -5 16 C-5.33 10.72 -5.66 5.44 -6 0 C-2 -1 -2 -1 0 0 Z " fill="#191616" transform="translate(257,322)"/>
<path d="M0 0 C0.33 0 0.66 0 1 0 C1 3.63 1 7.26 1 11 C1.99 11 2.98 11 4 11 C4 7.7 4 4.4 4 1 C4.66 1 5.32 1 6 1 C6.02688151 2.64574566 6.04634123 4.29161413 6.0625 5.9375 C6.07410156 6.85402344 6.08570313 7.77054687 6.09765625 8.71484375 C6 11 6 11 5 12 C2.66702567 12.04092937 0.33294775 12.04241723 -2 12 C-2 10.02 -2 8.04 -2 6 C-2.66 5.67 -3.32 5.34 -4 5 C-3.01 4.34 -2.02 3.68 -1 3 C-0.67 2.01 -0.34 1.02 0 0 Z " fill="#E1BA59" transform="translate(251,280)"/>
<path d="M0 0 C0.33 0.66 0.66 1.32 1 2 C1.99 1.67 2.98 1.34 4 1 C4 6.61 4 12.22 4 18 C3.34 18 2.68 18 2 18 C0.77100654 11.93184478 -0.27560214 6.20104812 0 0 Z " fill="#151111" transform="translate(244,319)"/>
<path d="M0 0 C7.26 0 14.52 0 22 0 C22 0.33 22 0.66 22 1 C18.04 1 14.08 1 10 1 C9.67 1.99 9.34 2.98 9 4 C5.7 3.67 2.4 3.34 -1 3 C-0.67 2.01 -0.34 1.02 0 0 Z " fill="#E8DED2" transform="translate(109,130)"/>
<path d="M0 0 C0.66 0.33 1.32 0.66 2 1 C1.125 5.75 1.125 5.75 0 8 C-0.22622081 9.70363822 -0.40888473 11.41328701 -0.5625 13.125 C-0.68818359 14.49011719 -0.68818359 14.49011719 -0.81640625 15.8828125 C-0.87699219 16.58148438 -0.93757812 17.28015625 -1 18 C-1.66 18 -2.32 18 -3 18 C-3.55353075 5.33029613 -3.55353075 5.33029613 0 0 Z " fill="#F4B309" transform="translate(187,172)"/>
<path d="M0 0 C-1.47692308 4.67692308 -1.47692308 4.67692308 -4.125 6.3125 C-4.74375 6.539375 -5.3625 6.76625 -6 7 C-6.33 6.01 -6.66 5.02 -7 4 C-8.32 4.99 -9.64 5.98 -11 7 C-11.66 6.67 -12.32 6.34 -13 6 C-11.78294994 4.98528829 -10.55073116 3.9887539 -9.3125 3 C-8.62800781 2.443125 -7.94351562 1.88625 -7.23828125 1.3125 C-4.61216944 -0.22741897 -2.99396644 -0.25168194 0 0 Z " fill="#A19C99" transform="translate(267,136)"/>
<path d="M0 0 C0 0.99 0 1.98 0 3 C0.99 4.485 0.99 4.485 2 6 C2.07905064 8.33199388 2.08798769 10.66832622 2 13 C1.34 12.67 0.68 12.34 0 12 C-0.40729228 9.67843403 -0.74438677 7.3431213 -1 5 C-3.64 4.67 -6.28 4.34 -9 4 C-9 3.34 -9 2.68 -9 2 C-6.94921875 1.77213542 -4.8984375 1.54427083 -2.84765625 1.31640625 C-0.98859771 1.18113386 -0.98859771 1.18113386 0 0 Z " fill="#A1978C" transform="translate(224,280)"/>
<path d="M0 0 C0 0.33 0 0.66 0 1 C-0.94875 0.855625 -1.8975 0.71125 -2.875 0.5625 C-13.43905598 -0.93063881 -13.43905598 -0.93063881 -24 0 C-16.31147469 -5.12568354 -8.01854578 -3.56379812 0 0 Z " fill="#EABB37" transform="translate(224,159)"/>
<path d="M0 0 C1.65 0 3.3 0 5 0 C5 1.98 5 3.96 5 6 C3.35 6.33 1.7 6.66 0 7 C-1.125 2.25 -1.125 2.25 0 0 Z " fill="#E7C471" transform="translate(247,344)"/>
<path d="M0 0 C0.8353125 0.7425 0.8353125 0.7425 1.6875 1.5 C-1.2310489 2.5506776 -2.5656099 2.44375335 -5.6875 1.75 C-9.5936525 1.48061017 -9.95844924 1.58151035 -12.75 3.9375 C-13.595625 4.783125 -14.44125 5.62875 -15.3125 6.5 C-14.5625 1.75 -14.5625 1.75 -12.3125 -0.5 C-7.91844516 -1.68758239 -3.9482631 -2.56103553 0 0 Z " fill="#DFC299" transform="translate(256.3125,269.5)"/>
<path d="M0 0 C2.31 0.33 4.62 0.66 7 1 C7 1.33 7 1.66 7 2 C5.35 2 3.7 2 2 2 C1.86722656 2.56589844 1.73445312 3.13179687 1.59765625 3.71484375 C1.33275391 4.81505859 1.33275391 4.81505859 1.0625 5.9375 C0.88847656 6.66839844 0.71445313 7.39929688 0.53515625 8.15234375 C0 10 0 10 -1 11 C-3.67058851 11.14115161 -6.32432238 11.04247107 -9 11 C-9 10.67 -9 10.34 -9 10 C-5.535 9.505 -5.535 9.505 -2 9 C-2 7.68 -2 6.36 -2 5 C-2.66 4.67 -3.32 4.34 -4 4 C-2.68 4 -1.36 4 0 4 C0 2.68 0 1.36 0 0 Z " fill="#A98C53" transform="translate(197,203)"/>
<path d="M0 0 C5.71241466 0.38728235 8.73688282 0.87010523 13 5 C11.865625 4.835 10.73125 4.67 9.5625 4.5 C7.28867481 4.14367797 7.28867481 4.14367797 5 4 C4.67 4.66 4.34 5.32 4 6 C3.34 6 2.68 6 2 6 C2 5.34 2 4.68 2 4 C1.34 3.67 0.68 3.34 0 3 C0 2.01 0 1.02 0 0 Z " fill="#A5A09E" transform="translate(304,160)"/>
<path d="M0 0 C0 0.33 0 0.66 0 1 C-2.64 1 -5.28 1 -8 1 C-8.6814823 2.89179203 -8.6814823 2.89179203 -9 5 C-8.34 5.66 -7.68 6.32 -7 7 C-8.98 7 -10.96 7 -13 7 C-12.10845646 4.25107408 -11.25590275 2.28433639 -9.3125 0.125 C-5.98776587 -1.49243822 -3.53385237 -0.74754569 0 0 Z " fill="#E9BB3B" transform="translate(254,271)"/>
<path d="M0 0 C1 2 1 2 0.125 5 C-1 8 -1 8 -2 10 C-2.23029956 12.37123246 -2.41119942 14.74741943 -2.5625 17.125 C-2.64628906 18.40632813 -2.73007813 19.68765625 -2.81640625 21.0078125 C-2.90728516 22.48894531 -2.90728516 22.48894531 -3 24 C-6.17037315 19.24444028 -4.96521983 14.46732911 -4 9 C-2.91053558 5.85069801 -1.58903854 2.92678727 0 0 Z " fill="#EBBB36" transform="translate(187,168)"/>
<path d="M0 0 C1.4370809 -0.05422947 2.87475462 -0.09289723 4.3125 -0.125 C5.11300781 -0.14820313 5.91351563 -0.17140625 6.73828125 -0.1953125 C9 0 9 0 12 2 C9.47524538 3.26237731 7.68799534 3.09856404 4.875 3.0625 C3.96492187 3.05347656 3.05484375 3.04445313 2.1171875 3.03515625 C1.41851562 3.02355469 0.71984375 3.01195312 0 3 C0 2.01 0 1.02 0 0 Z " fill="#B5ABA5" transform="translate(206,283)"/>
<path d="M0 0 C0.33 0 0.66 0 1 0 C1.38133299 1.9914056 1.71325582 3.99279077 2 6 C1 7 1 7 -2.81640625 7.09765625 C-4.39846682 7.09098089 -5.98051159 7.07901875 -7.5625 7.0625 C-8.36880859 7.05798828 -9.17511719 7.05347656 -10.00585938 7.04882812 C-12.00393756 7.03700518 -14.00197783 7.01906914 -16 7 C-16 6.67 -16 6.34 -16 6 C-14.64455078 5.97873047 -14.64455078 5.97873047 -13.26171875 5.95703125 C-12.08222656 5.90933594 -10.90273438 5.86164063 -9.6875 5.8125 C-8.51574219 5.77769531 -7.34398437 5.74289063 -6.13671875 5.70703125 C-2.80240164 5.31777838 -2.80240164 5.31777838 -1.14453125 2.44921875 C-0.76683594 1.64097656 -0.38914062 0.83273438 0 0 Z " fill="#E1DCD6" transform="translate(71,115)"/>
<path d="M0 0 C1.4606285 2.64738916 2 3.89448334 2 7 C1.34 7 0.68 7 0 7 C0 10.3 0 13.6 0 17 C-0.66 17.33 -1.32 17.66 -2 18 C-1.8590651 15.56212615 -1.71245458 13.12482147 -1.5625 10.6875 C-1.52318359 9.99720703 -1.48386719 9.30691406 -1.44335938 8.59570312 C-1.25072585 5.52838465 -0.97677283 2.93031848 0 0 Z " fill="#2F2C2C" transform="translate(249,325)"/>
<path d="M0 0 C1.32 0.33 2.64 0.66 4 1 C5.29243536 5.1196377 6.26252625 8.66831683 6 13 C7.32 13.33 8.64 13.66 10 14 C8.35 14 6.7 14 5 14 C4.35366725 12.22934889 3.7079517 10.45847247 3.0625 8.6875 C2.70285156 7.70136719 2.34320313 6.71523437 1.97265625 5.69921875 C1.29114035 3.8079437 0.6357189 1.90715671 0 0 Z " fill="#E3C59C" transform="translate(235,168)"/>
<path d="M0 0 C0.33 0.99 0.66 1.98 1 3 C1.99 3.33 2.98 3.66 4 4 C1.1875 6.0625 1.1875 6.0625 -2 8 C-2.99 7.67 -3.98 7.34 -5 7 C-4.34 7 -3.68 7 -3 7 C-3.33 5.68 -3.66 4.36 -4 3 C-3.34 3 -2.68 3 -2 3 C-2 2.34 -2 1.68 -2 1 C-1.34 0.67 -0.68 0.34 0 0 Z " fill="#A39F9C" transform="translate(231,145)"/>
<path d="M0 0 C0.33 0.99 0.66 1.98 1 3 C-4.28540945 7.59661939 -7.94156662 9.74791309 -15 10 C-12.70117482 8.85058741 -10.41038609 7.73655549 -8.0625 6.6875 C-4.75354576 4.86419868 -2.54510047 2.76966816 0 0 Z " fill="#E4C498" transform="translate(233,203)"/>
<path d="M0 0 C-0.99 1.485 -0.99 1.485 -2 3 C-1.01 3.33 -0.02 3.66 1 4 C-0.65 4.33 -2.3 4.66 -4 5 C-4 4.01 -4 3.02 -4 2 C-5.98 2.66 -7.96 3.32 -10 4 C-4.75 -1.425 -4.75 -1.425 0 0 Z " fill="#EDB725" transform="translate(202,160)"/>
<path d="M0 0 C0 0.33 0 0.66 0 1 C-2.12392506 1.6700834 -4.24917524 2.33596797 -6.375 3 C-7.55835938 3.37125 -8.74171875 3.7425 -9.9609375 4.125 C-13 5 -13 5 -15 5 C-14 2 -14 2 -12 0.8125 C-7.96195446 -0.28113733 -4.15684292 -0.16301345 0 0 Z " fill="#E6CEAE" transform="translate(211,155)"/>
<path d="M0 0 C1.55078125 1.11328125 1.55078125 1.11328125 3 3 C2.85546875 5.91796875 2.85546875 5.91796875 2.1875 9.1875 C1.97480469 10.27417969 1.76210937 11.36085938 1.54296875 12.48046875 C1.36378906 13.31191406 1.18460938 14.14335938 1 15 C0.01 14.67 -0.98 14.34 -2 14 C-1.34 14 -0.68 14 0 14 C0 12.68 0 11.36 0 10 C-1.65 10 -3.3 10 -5 10 C-2 8 -2 8 1 8 C0.67 5.36 0.34 2.72 0 0 Z " fill="#8D847D" transform="translate(149,104)"/>
<path d="M0 0 C0.33 0 0.66 0 1 0 C1.33 1.65 1.66 3.3 2 5 C2.33 3.35 2.66 1.7 3 0 C3.66 0 4.32 0 5 0 C5.144375 0.78375 5.28875 1.5675 5.4375 2.375 C5.87798925 4.96421018 5.87798925 4.96421018 7 7 C4.69 7 2.38 7 0 7 C0 4.69 0 2.38 0 0 Z " fill="#726964" transform="translate(246,337)"/>
<path d="M0 0 C2.95887459 -0.08069658 5.9155659 -0.14034665 8.875 -0.1875 C9.71675781 -0.21263672 10.55851563 -0.23777344 11.42578125 -0.26367188 C12.23144531 -0.27333984 13.03710938 -0.28300781 13.8671875 -0.29296875 C14.98262939 -0.31653442 14.98262939 -0.31653442 16.12060547 -0.34057617 C17.05090576 -0.17199097 17.05090576 -0.17199097 18 0 C18.66 0.99 19.32 1.98 20 3 C13.4 2.34 6.8 1.68 0 1 C0 0.67 0 0.34 0 0 Z " fill="#A2775B" transform="translate(228,113)"/>
<path d="M0 0 C0.99 0 1.98 0 3 0 C3.33 1.98 3.66 3.96 4 6 C3.505 5.835 3.01 5.67 2.5 5.5 C-1.03444089 4.79311182 -4.39690701 4.93994845 -8 5 C-8 4.67 -8 4.34 -8 4 C-4.535 3.505 -4.535 3.505 -1 3 C-0.67 2.01 -0.34 1.02 0 0 Z " fill="#52453E" transform="translate(257,288)"/>
<path d="M0 0 C0.99 0 1.98 0 3 0 C5 3 5 3 4.625 5.1875 C4.41875 5.785625 4.2125 6.38375 4 7 C3.01 6.67 2.02 6.34 1 6 C0.67 4.02 0.34 2.04 0 0 Z " fill="#F4B20A" transform="translate(187,195)"/>
<path d="M0 0 C2.95051654 3.45922629 5.25855517 6.7838704 7 11 C6.67 11.99 6.34 12.98 6 14 C3.95087971 11.95087971 3.39811501 10.79058091 2.4375 8.125 C2.18871094 7.44695312 1.93992188 6.76890625 1.68359375 6.0703125 C1.02063414 4.06249198 0.4843809 2.05746555 0 0 Z " fill="#ECD5B3" transform="translate(227,169)"/>
<path d="M0 0 C0.66 0.33 1.32 0.66 2 1 C2 1.99 2 2.98 2 4 C1.34 3.67 0.68 3.34 0 3 C-1.01111093 6.04913228 -1.01111093 6.04913228 0 9 C-0.99 8.67 -1.98 8.34 -3 8 C-3.1875 5.125 -3.1875 5.125 -3 2 C-2.01 1.34 -1.02 0.68 0 0 Z " fill="#A29992" transform="translate(246,284)"/>
<path d="M0 0 C0.33 0 0.66 0 1 0 C1 3.96 1 7.92 1 12 C-0.32 11.34 -1.64 10.68 -3 10 C-3 8.68 -3 7.36 -3 6 C-2.34 6 -1.68 6 -1 6 C-0.67 4.02 -0.34 2.04 0 0 Z " fill="#E0CDBC" transform="translate(216,226)"/>
<path d="M0 0 C0.99 0 1.98 0 3 0 C2.88541307 1.43836751 2.75790884 2.87570966 2.625 4.3125 C2.55539062 5.11300781 2.48578125 5.91351563 2.4140625 6.73828125 C2 9 2 9 0 12 C0 8.04 0 4.08 0 0 Z " fill="#4A4543" transform="translate(262,290)"/>
<path d="M0 0 C0 0.33 0 0.66 0 1 C-5.72040011 1.8320582 -11.22240116 2.12036664 -17 2 C-17 1.67 -17 1.34 -17 1 C-10.90660831 -0.88341198 -6.27467799 -1.0748291 0 0 Z " fill="#E5D8CA" transform="translate(225,292)"/>
<path d="M0 0 C0.99 0.66 1.98 1.32 3 2 C2.5359375 3.1446875 2.5359375 3.1446875 2.0625 4.3125 C1.32106407 6.18789677 0.63771783 8.08684652 0 10 C-0.38922918 8.71254964 -0.76098036 7.41980403 -1.125 6.125 C-1.43824219 5.04605469 -1.43824219 5.04605469 -1.7578125 3.9453125 C-1.83773437 3.30335938 -1.91765625 2.66140625 -2 2 C-1.34 1.34 -0.68 0.68 0 0 Z " fill="#908881" transform="translate(54,127)"/>
<path d="M0 0 C0 0.99 0 1.98 0 3 C-1.1446875 3.2165625 -1.1446875 3.2165625 -2.3125 3.4375 C-5.08172908 3.9632594 -5.08172908 3.9632594 -8 5 C-7.25 3.0625 -7.25 3.0625 -6 1 C-3.86997684 0.20124132 -2.26695035 0 0 0 Z " fill="#999797" transform="translate(213,147)"/>
<path d="M0 0 C2.475 0.495 2.475 0.495 5 1 C5 2.32 5 3.64 5 5 C3.68 5 2.36 5 1 5 C0.67 3.35 0.34 1.7 0 0 Z " fill="#F3B20B" transform="translate(192,202)"/>
<path d="M0 0 C0.99 0.33 1.98 0.66 3 1 C3 3.31 3 5.62 3 8 C2.34 8 1.68 8 1 8 C1 6.02 1 4.04 1 2 C0.34 1.67 -0.32 1.34 -1 1 C-0.67 0.67 -0.34 0.34 0 0 Z " fill="#D9C2A4" transform="translate(248,284)"/>
<path d="M0 0 C4.455 0.99 4.455 0.99 9 2 C8.67 2.66 8.34 3.32 8 4 C2.25 3.125 2.25 3.125 0 2 C0 1.34 0 0.68 0 0 Z " fill="#997D68" transform="translate(238,277)"/>
<path d="M0 0 C0.66 1.32 1.32 2.64 2 4 C0.68 4.33 -0.64 4.66 -2 5 C-2.33 3.68 -2.66 2.36 -3 1 C-2.01 0.67 -1.02 0.34 0 0 Z " fill="#C07343" transform="translate(108,113)"/>
</svg>
