<?xml version="1.0" encoding="UTF-8"?>
<svg version="1.1" xmlns="http://www.w3.org/2000/svg" width="360" height="360">
<path d="M0 0 C3.67694872 1.60077021 6.85881097 1.90605877 10.89122009 1.97216797 C11.5657019 1.98729431 12.24018372 2.00242065 12.93510437 2.01800537 C14.39064187 2.04880908 15.84632901 2.07310747 17.30207634 2.0914917 C19.6326123 2.12121496 21.96221612 2.16883373 24.2923584 2.22070312 C29.26590835 2.32816063 34.23971319 2.4130632 39.21372986 2.49560547 C80.38962266 3.18804562 80.38962266 3.18804562 100.77622986 6.49560547 C102.2547493 6.7328257 102.2547493 6.7328257 103.76313782 6.97483826 C128.43537762 10.9826563 128.43537762 10.9826563 134.77622986 18.49560547 C135.27622986 21.37060547 135.27622986 21.37060547 134.77622986 24.49560547 C132.52622986 27.05810547 132.52622986 27.05810547 129.77622986 29.49560547 C122.05953091 38.14766187 119.3611669 47.85860332 119.50669861 59.31591797 C119.86534089 63.5468574 120.97585475 66.66980836 122.77622986 70.49560547 C123.66826111 70.14626953 124.56029236 69.79693359 125.47935486 69.43701172 C126.64982361 68.98197266 127.82029236 68.52693359 129.02622986 68.05810547 C130.18638611 67.60564453 131.34654236 67.15318359 132.54185486 66.68701172 C144.34843989 62.33796772 158.0436174 63.6939078 169.49497986 68.67919922 C180.50578374 74.67736861 186.91808043 83.74891838 190.77622986 95.49560547 C195.14094318 110.61516193 191.73360523 127.31562551 184.52622986 140.80810547 C183.62167251 142.37764681 182.70963276 143.94304531 181.77622986 145.49560547 C181.11622986 145.49560547 180.45622986 145.49560547 179.77622986 145.49560547 C179.52099548 146.08341797 179.26576111 146.67123047 179.00279236 147.27685547 C174.91700392 154.66770844 166.51211519 158.91697703 158.77622986 161.49560547 C157.08172236 161.46291003 155.38802126 161.37056816 153.69810486 161.24169922 C142.69897689 160.12756312 142.69897689 160.12756312 132.73716736 163.61279297 C130.96339362 166.21684378 129.76338544 168.51063503 128.77622986 171.49560547 C128.44622986 172.48560547 128.11622986 173.47560547 127.77622986 174.49560547 C129.09622986 175.15560547 130.41622986 175.81560547 131.77622986 176.49560547 C131.96372986 178.87060547 131.96372986 178.87060547 131.77622986 181.49560547 C128.23652916 183.85540593 125.78516698 184.08161354 121.58872986 184.62060547 C120.31642517 184.78818359 119.04412048 184.95576172 117.73326111 185.12841797 C116.7574408 185.24958984 115.78162048 185.37076172 114.77622986 185.49560547 C115.60956319 187.66227214 115.60956319 187.66227214 117.77622986 188.49560547 C117.19231995 195.36350094 116.23379325 202.07854096 114.96372986 208.85107422 C114.78994812 209.79694901 114.61616638 210.74282379 114.43711853 211.71736145 C113.88728891 214.7066588 113.33205923 217.69491846 112.77622986 220.68310547 C112.22133937 223.68216792 111.66762006 226.68144001 111.11534119 229.6809845 C110.77315402 231.53781985 110.42933296 233.3943551 110.08360291 235.25053406 C109.20721469 239.98888762 108.41804747 244.71965582 107.77622986 249.49560547 C106.12622986 249.82560547 104.47622986 250.15560547 102.77622986 250.49560547 C101.68008932 248.30332439 101.46194945 246.68874198 101.16294861 244.26123047 C101.05128357 243.38708496 100.93961853 242.51293945 100.8245697 241.61230469 C100.64595398 240.19328857 100.64595398 240.19328857 100.46372986 238.74560547 C99.39663995 230.5790457 98.13933061 222.47120325 96.65122986 214.37060547 C96.48067078 213.44151367 96.31011169 212.51242187 96.13438416 211.55517578 C95.44048836 207.83829585 94.72356785 204.1573314 93.77622986 200.49560547 C90.17203059 200.80773013 86.56787673 201.12037642 82.96372986 201.43310547 C81.95890564 201.52011719 80.95408142 201.60712891 79.91880798 201.69677734 C78.91656189 201.78378906 77.9143158 201.87080078 76.88169861 201.96044922 C75.86382263 202.04794434 74.84594666 202.13543945 73.79722595 202.22558594 C71.84591005 202.39999643 69.89555757 202.58572431 67.94664001 202.78515625 C61.53471793 203.43193793 55.2192684 203.60776668 48.77622986 203.49560547 C48.80652283 204.14819336 48.8368158 204.80078125 48.86802673 205.47314453 C49.39190217 216.97825513 49.87564243 228.47699739 49.90122986 239.99560547 C49.90799744 241.26645996 49.90799744 241.26645996 49.91490173 242.56298828 C49.90035018 248.37148515 49.90035018 248.37148515 48.77622986 249.49560547 C45.95206604 249.62223638 43.16328192 249.68081095 40.33872986 249.68310547 C39.54917908 249.69535156 38.7596283 249.70759766 37.94615173 249.72021484 C35.88815551 249.72547826 33.83060977 249.61766832 31.77622986 249.49560547 C31.11622986 248.83560547 30.45622986 248.17560547 29.77622986 247.49560547 C30.10622986 245.84560547 30.43622986 244.19560547 30.77622986 242.49560547 C36.22122986 241.50560547 36.22122986 241.50560547 41.77622986 240.49560547 C41.44622986 228.28560547 41.11622986 216.07560547 40.77622986 203.49560547 C34.83622986 203.82560547 28.89622986 204.15560547 22.77622986 204.49560547 C22.79194031 205.81802246 22.80765076 207.14043945 22.82383728 208.50292969 C22.87802768 213.39674823 22.9125402 218.29054014 22.94102478 223.18457031 C22.9561363 225.30505834 22.97662626 227.425515 23.00254822 229.54589844 C23.03882772 232.58910857 23.05593228 235.6319065 23.06919861 238.67529297 C23.08468246 239.62741669 23.10016632 240.57954041 23.11611938 241.56051636 C23.11634598 242.44127838 23.11657257 243.32204041 23.11680603 244.22949219 C23.12679878 245.39531326 23.12679878 245.39531326 23.13699341 246.58468628 C23.01794144 247.21528961 22.89888947 247.84589294 22.77622986 248.49560547 C18.96517909 251.03630598 16.09058293 250.64923802 11.71372986 250.37060547 C10.98089783 250.34740234 10.2480658 250.32419922 9.49302673 250.30029297 C7.36607361 250.17529297 7.36607361 250.17529297 3.77622986 249.49560547 C2.28013611 247.44091797 2.28013611 247.44091797 1.77622986 245.49560547 C3.77622986 242.49560547 3.77622986 242.49560547 5.61607361 241.94873047 C6.30830017 241.88169922 7.00052673 241.81466797 7.71372986 241.74560547 C8.4033783 241.66826172 9.09302673 241.59091797 9.80357361 241.51123047 C11.77622986 241.49560547 11.77622986 241.49560547 14.77622986 242.49560547 C14.51569898 237.10182 14.2490629 231.70838497 13.97666931 226.31518555 C13.88480346 224.47900662 13.79463064 222.6427422 13.7061615 220.80639648 C13.5789838 218.17261019 13.44579519 215.53918761 13.31138611 212.90576172 C13.27279984 212.07971939 13.23421356 211.25367706 13.19445801 210.40260315 C13.33958479 206.63801715 13.33958479 206.63801715 11.77622986 203.49560547 C8.79385106 203.30446624 5.82435568 203.16662872 2.83872986 203.05810547 C-36.33309848 201.30707597 -36.33309848 201.30707597 -43.15345764 194.59716797 C-44.77407958 191.41507089 -43.94197665 188.8907635 -43.22377014 185.49560547 C-44.51734436 185.10695313 -44.51734436 185.10695313 -45.83705139 184.71044922 C-59.04182523 179.97378871 -70.88707867 170.08575822 -77.22377014 157.55810547 C-86.07321038 138.08086857 -85.08252461 119.97840552 -78.28236389 100.05419922 C-77.33244958 97.75828086 -76.33692125 96.02727512 -74.84877014 94.05810547 C-74.04439514 92.78966797 -74.04439514 92.78966797 -73.22377014 91.49560547 C-74.54540563 87.08228695 -76.94066023 83.0524714 -79.09877014 78.99560547 C-79.48154114 78.26946045 -79.86431213 77.54331543 -80.25868225 76.79516602 C-82.57420019 72.44572862 -84.98294323 68.1661089 -87.48548889 63.92138672 C-88.03285706 62.98810547 -88.58022522 62.05482422 -89.1441803 61.09326172 C-90.22220375 59.2648211 -91.31140595 57.44291625 -92.41273499 55.62841797 C-96.98776427 47.86112744 -96.98776427 47.86112744 -96.22377014 42.49560547 C-90.16190718 39.68918743 -84.00444196 37.18075835 -77.78627014 34.74560547 C-76.98076721 34.427771 -76.17526428 34.10993652 -75.34535217 33.7824707 C-74.20429016 33.33883179 -74.20429016 33.33883179 -73.04017639 32.88623047 C-72.35383118 32.61842773 -71.66748596 32.350625 -70.96034241 32.07470703 C-69.22377014 31.49560547 -69.22377014 31.49560547 -67.22377014 31.49560547 C-67.71877014 30.50560547 -68.21377014 29.51560547 -68.72377014 28.49560547 C-70.53767106 24.11569837 -71.05029377 21.22933171 -70.22377014 16.49560547 C-65.27148166 11.07237864 -59.1384877 9.21484916 -52.16127014 7.80810547 C-51.24386047 7.60515869 -50.32645081 7.40221191 -49.38124084 7.19311523 C-45.2008946 6.27942818 -41.00815335 5.44470694 -36.80189514 4.65966797 C-29.8660476 3.36441933 -24.38762201 1.91996762 -18.22377014 -1.50439453 C-12.39246871 -3.49931344 -5.48757529 -2.56081479 0 0 Z M-70.59877014 41.30810547 C-71.23298889 41.56914062 -71.86720764 41.83017578 -72.52064514 42.09912109 C-76.77257568 43.85629647 -80.9976631 45.67739662 -85.22377014 47.49560547 C-84.65876883 51.94192012 -82.96464854 54.82534097 -80.53627014 58.55810547 C-76.63950222 64.66004165 -73.33536186 70.95419105 -70.22377014 77.49560547 C-68.90377014 77.49560547 -67.58377014 77.49560547 -66.22377014 77.49560547 C-59.97559587 66.61251503 -55.83433589 54.15995699 -57.22377014 41.49560547 C-57.55377014 40.50560547 -57.88377014 39.51560547 -58.22377014 38.49560547 C-62.84339509 38.09736194 -66.42747745 39.53656249 -70.59877014 41.30810547 Z M141.77622986 78.49560547 C141.04778614 81.07574199 140.79305925 82.76487566 140.96372986 85.49560547 C140.77622986 88.49560547 140.77622986 88.49560547 138.77622986 90.87060547 C138.11622986 91.40685547 137.45622986 91.94310547 136.77622986 92.49560547 C137.68300027 95.2914809 138.58168537 98.05268994 139.76451111 100.74560547 C143.07356045 108.63919226 143.2546874 115.7082094 143.02622986 124.18310547 C143.00818298 125.46894531 142.99013611 126.75478516 142.97154236 128.07958984 C142.92485871 131.21906552 142.85939078 134.35692038 142.77622986 137.49560547 C144.69435486 137.68123047 144.69435486 137.68123047 146.65122986 137.87060547 C150.52622986 138.24560547 150.52622986 138.24560547 152.77622986 140.49560547 C153.17387248 142.4838186 153.51398334 144.48504886 153.77622986 146.49560547 C161.16401922 145.79763118 164.88352626 141.762223 169.77622986 136.49560547 C176.14554953 128.33117483 179.50862392 118.10556024 179.05747986 107.71044922 C177.7174464 97.15768572 172.7222146 89.44834212 164.77622986 82.49560547 C158.98387656 79.11673271 154.10175055 78.36016019 147.46372986 78.43310547 C146.39509705 78.44212891 145.32646423 78.45115234 144.22544861 78.46044922 C143.41720642 78.47205078 142.60896423 78.48365234 141.77622986 78.49560547 Z " fill="#E2CFBC" transform="translate(144.22377014160156,100.50439453125)"/>
<path d="M0 0 C0.66 0.495 1.32 0.99 2 1.5 C6.01034059 3.50517029 8.54328182 3.29224382 13 3 C13.66 2.67 14.32 2.34 15 2 C19.79552472 1.44238085 22.05441602 2.58493404 26.0703125 5.1015625 C29.55608433 6.7244927 33.25291829 6.59565439 37 6 C38.33582084 5.33833173 39.66939884 4.67210325 41 4 C44.53031087 4.23023767 46.85356854 4.92373361 50 6.5625 C53.38959151 8.18667926 55.28899428 8.47374541 59 8 C60.2375 7.2265625 60.2375 7.2265625 61.5 6.4375 C64 5 64 5 67.125 5.1875 C70 6 70 6 73 8 C77.71229276 8.62452073 81.80146 8.6115 86.0625 6.4375 C90.1837886 4.42069919 93.59926618 5.0494415 98 6 C98.99 6.495 98.99 6.495 100 7 C102.2072923 7.07092842 104.41667452 7.08415025 106.625 7.0625 C108.40777344 7.04896484 108.40777344 7.04896484 110.2265625 7.03515625 C111.59941406 7.01775391 111.59941406 7.01775391 113 7 C110.97093414 11.05813172 105.64760075 12.76450882 101.5625 14.25 C100.716875 14.4975 99.87125 14.745 99 15 C99 15.66 99 16.32 99 17 C98.34 17 97.68 17 97 17 C96.731875 17.721875 96.46375 18.44375 96.1875 19.1875 C95.00939252 21.97775456 93.56557031 24.41340557 92 27 C88.92282183 36.23153452 90.85055409 45.51779932 95 54 C95.33 54.99 95.66 55.98 96 57 C96.99 57.33 97.98 57.66 99 58 C99 58.66 99 59.32 99 60 C100.65 60.33 102.3 60.66 104 61 C103.125 64.875 103.125 64.875 102 66 C97.66485109 66.26125191 93.52956582 66.2157306 90.0390625 63.44140625 C88.02682327 61.08070608 86.38710051 58.77420102 85 56 C82.16611108 56.08334967 80.480947 56.5104427 78.47265625 58.5546875 C77.46759379 59.78735953 76.48459983 61.03843956 75.52734375 62.30859375 C72.8845379 65.23528156 70.39953933 65.92735649 66.5625 66.625 C63 66 63 66 61.54296875 64.2109375 C60.69038378 62.75304295 59.88749352 61.26477558 59.140625 59.75 C58.76421875 59.1725 58.3878125 58.595 58 58 C57.01 58 56.02 58 55 58 C54.71536008 63.5030385 54.6703332 67.33846648 58 72 C62.60046538 74.40976758 67.90350826 74.87811175 73 74 C75.27050923 72.90416395 77.23152193 71.66612305 79.2734375 70.19140625 C81 69 81 69 84 68 C84.78375 68.804375 85.5675 69.60875 86.375 70.4375 C90.5923758 74.55446209 93.52694568 74.28207787 99.234375 74.21484375 C102.81815702 73.9364426 105.08871771 73.11067966 108 71 C108.4125 70.14792969 108.825 69.29585938 109.25 68.41796875 C111 66 111 66 114.03125 65.40625 C115.1759375 65.4371875 116.320625 65.468125 117.5 65.5 C118.6446875 65.5103125 119.789375 65.520625 120.96875 65.53125 C124 66 124 66 125.89453125 67.23828125 C127.33116633 69.52775976 127.30412184 71.00519767 127.1875 73.6875 C127.14689453 74.89986328 127.14689453 74.89986328 127.10546875 76.13671875 C127.07066406 76.75160156 127.03585938 77.36648437 127 78 C127.66 78 128.32 78 129 78 C128 81 128 81 126 84 C124.68 83.67 123.36 83.34 122 83 C122.33 83.99 122.66 84.98 123 86 C122.34 86 121.68 86 121 86 C120.83318891 88.91652174 120.83318891 88.91652174 121 92 C121.66 92.66 122.32 93.32 123 94 C123.66 94 124.32 94 125 94 C124.67 95.98 124.34 97.96 124 100 C123.34 100 122.68 100 122 100 C122 100.66 122 101.32 122 102 C122.99 102 123.98 102 125 102 C124.67 103.65 124.34 105.3 124 107 C123.01 106.67 122.02 106.34 121 106 C120.67 106.66 120.34 107.32 120 108 C119.01 108 118.02 108 117 108 C117 108.99 117 109.98 117 111 C118.65 111 120.3 111 122 111 C122 112.98 122 114.96 122 117 C121.67 117 121.34 117 121 117 C120.67 119.31 120.34 121.62 120 124 C119.67 123.34 119.34 122.68 119 122 C118.34 122 117.68 122 117 122 C117 122.99 117 123.98 117 125 C116.34 125.66 115.68 126.32 115 127 C115.20625 127.94875 115.4125 128.8975 115.625 129.875 C116 133 116 133 114.39584351 135.16593933 C111.38416416 137.47143325 109.80606062 137.49086996 106.04150391 137.4699707 C104.83990631 137.47289627 103.63830872 137.47582184 102.40029907 137.47883606 C101.105466 137.46132797 99.81063293 137.44381989 98.4765625 137.42578125 C97.12902306 137.42085364 95.78147677 137.41755718 94.43392944 137.41581726 C91.6110035 137.40818301 88.78858562 137.38764702 85.96582031 137.35668945 C82.35909277 137.31719121 78.75269587 137.29909064 75.14577675 137.28938007 C71.69349448 137.27936925 68.24129133 137.25951874 64.7890625 137.23828125 C63.49827789 137.23089432 62.20749329 137.22350739 60.87759399 137.21589661 C59.66969208 137.20306137 58.46179016 137.19022614 57.21728516 137.17700195 C56.1590152 137.16715775 55.10074524 137.15731354 54.01040649 137.14717102 C50.93758653 136.99694877 48.02446115 136.54889654 45 136 C43.52413516 135.8875908 42.04570822 135.80369126 40.56640625 135.75390625 C39.75913086 135.72224365 38.95185547 135.69058105 38.12011719 135.65795898 C36.85409668 135.61070679 36.85409668 135.61070679 35.5625 135.5625 C26.94194985 135.19443335 18.52485692 134.33039434 10 133 C9.67 133.99 9.34 134.98 9 136 C9 135.01 9 134.02 9 133 C7.96552734 132.85498047 7.96552734 132.85498047 6.91015625 132.70703125 C-4.92923643 129.83061504 -16.44398841 120.31270276 -23.14550781 110.28613281 C-32.17705399 95.25595969 -35.19398662 77.38455766 -30.953125 60.36328125 C-26.45661231 44.49648851 -26.45661231 44.49648851 -22 39 C-21.01 38.505 -21.01 38.505 -20 38 C-19.34 38.99 -18.68 39.98 -18 41 C-14.91634129 41.2502157 -14.91634129 41.2502157 -12 41 C-13.20107717 35.35245831 -13.20107717 35.35245831 -15.75 30.25 C-16.1625 29.5075 -16.575 28.765 -17 28 C-16.26953125 26.328125 -16.26953125 26.328125 -15 24 C-13.95988763 21.50593745 -12.93883489 19.00942807 -11.9375 16.5 C-11.66873047 15.83613281 -11.39996094 15.17226562 -11.12304688 14.48828125 C-9.586313 10.67533926 -9.586313 10.67533926 -8.5703125 6.703125 C-7.72577692 4.18108725 -6.20106947 3.54346827 -3.9375 2.25 C-3.20402344 1.82203125 -2.47054687 1.3940625 -1.71484375 0.953125 C-1.14894531 0.63859375 -0.58304688 0.3240625 0 0 Z " fill="#EAD8C6" transform="translate(93,153)"/>
<path d="M0 0 C1.75 1.9375 1.75 1.9375 3 4 C5.59719103 5.39848748 7.12975867 6.1582257 10.0625 5.625 C11.0215625 5.315625 11.0215625 5.315625 12 5 C13.32 5 14.64 5 16 5 C17.22602512 8.67807537 16.70295577 10.88243927 16.0625 14.6875 C15.77052734 16.45673828 15.77052734 16.45673828 15.47265625 18.26171875 C15.23869141 19.61716797 15.23869141 19.61716797 15 21 C17.31 21 19.62 21 22 21 C22 19.02 22 17.04 22 15 C22.99 15 23.98 15 25 15 C25 16.65 25 18.3 25 20 C25.66 20 26.32 20 27 20 C27.33 18.68 27.66 17.36 28 16 C28.99 16.33 29.98 16.66 31 17 C30.41609009 23.86789548 29.4575634 30.58293549 28.1875 37.35546875 C28.01371826 38.30134354 27.83993652 39.24721832 27.66088867 40.22175598 C27.11105905 43.21105333 26.55582937 46.19931299 26 49.1875 C25.44510951 52.18656245 24.8913902 55.18583454 24.33911133 58.18537903 C23.99692416 60.04221438 23.6531031 61.89874964 23.30737305 63.75492859 C22.43098483 68.49328215 21.64181762 73.22405035 21 78 C18.525 78.495 18.525 78.495 16 79 C14.90385946 76.80771892 14.68571959 75.19313651 14.38671875 72.765625 C14.27505371 71.89147949 14.16338867 71.01733398 14.04833984 70.11669922 C13.86972412 68.69768311 13.86972412 68.69768311 13.6875 67.25 C12.62041009 59.08344023 11.36310075 50.97559778 9.875 42.875 C9.61916138 41.4813623 9.61916138 41.4813623 9.3581543 40.05957031 C8.6642585 36.34269038 7.94733799 32.66172593 7 29 C3.39580073 29.31212466 -0.20835312 29.62477095 -3.8125 29.9375 C-4.81732422 30.02451172 -5.82214844 30.11152344 -6.85742188 30.20117188 C-7.85966797 30.28818359 -8.86191406 30.37519531 -9.89453125 30.46484375 C-10.91240723 30.55233887 -11.9302832 30.63983398 -12.97900391 30.72998047 C-14.9303198 30.90439096 -16.88067229 31.09011884 -18.82958984 31.28955078 C-25.24151193 31.93633246 -31.55696146 32.11216121 -38 32 C-37.96970703 32.65258789 -37.93941406 33.30517578 -37.90820312 33.97753906 C-37.38432769 45.48264966 -36.90058743 56.98139192 -36.875 68.5 C-36.87048828 69.34723633 -36.86597656 70.19447266 -36.86132812 71.06738281 C-36.87587968 76.87587968 -36.87587968 76.87587968 -38 78 C-40.82416382 78.12663091 -43.61294793 78.18520548 -46.4375 78.1875 C-47.22705078 78.19974609 -48.01660156 78.21199219 -48.83007812 78.22460938 C-50.88807435 78.22987279 -52.94562009 78.12206285 -55 78 C-55.66 77.34 -56.32 76.68 -57 76 C-56.67 74.35 -56.34 72.7 -56 71 C-50.555 70.01 -50.555 70.01 -45 69 C-45.33 56.79 -45.66 44.58 -46 32 C-51.94 32.33 -57.88 32.66 -64 33 C-63.98428955 34.32241699 -63.9685791 35.64483398 -63.95239258 37.00732422 C-63.89820218 41.90114277 -63.86368966 46.79493467 -63.83520508 51.68896484 C-63.82009355 53.80945288 -63.7996036 55.92990954 -63.77368164 58.05029297 C-63.73740214 61.09350311 -63.72029758 64.13630103 -63.70703125 67.1796875 C-63.69154739 68.13181122 -63.67606354 69.08393494 -63.66011047 70.06491089 C-63.65988388 70.94567291 -63.65965729 71.82643494 -63.65942383 72.73388672 C-63.64943108 73.89970779 -63.64943108 73.89970779 -63.63923645 75.08908081 C-63.75828842 75.71968414 -63.87734039 76.35028748 -64 77 C-67.81105077 79.54070051 -70.68564693 79.15363256 -75.0625 78.875 C-75.79533203 78.85179687 -76.52816406 78.82859375 -77.28320312 78.8046875 C-79.41015625 78.6796875 -79.41015625 78.6796875 -83 78 C-84.49609375 75.9453125 -84.49609375 75.9453125 -85 74 C-83 71 -83 71 -81.16015625 70.453125 C-80.46792969 70.38609375 -79.77570313 70.3190625 -79.0625 70.25 C-78.02802734 70.13398438 -78.02802734 70.13398438 -76.97265625 70.015625 C-75 70 -75 70 -72 71 C-72.26053087 65.60621453 -72.52716696 60.2127795 -72.79956055 54.81958008 C-72.8914264 52.98340115 -72.98159922 51.14713673 -73.07006836 49.31079102 C-73.19724606 46.67700473 -73.33043467 44.04358214 -73.46484375 41.41015625 C-73.50343002 40.58411392 -73.5420163 39.75807159 -73.58177185 38.90699768 C-73.43664506 35.14241168 -73.43664506 35.14241168 -75 32 C-77.9823788 31.80886077 -80.95187418 31.67102325 -83.9375 31.5625 C-123.10932834 29.8114705 -123.10932834 29.8114705 -129.9296875 23.1015625 C-131.55030943 19.91946542 -130.71820651 17.39515803 -130 14 C-128.4792733 13.97246169 -126.95839326 13.95336625 -125.4375 13.9375 C-124.59058594 13.92589844 -123.74367188 13.91429687 -122.87109375 13.90234375 C-120 14 -120 14 -116.7890625 14.47265625 C-111.30611118 15.23574741 -105.82200548 15.38487561 -100.29492188 15.60546875 C-99.44349609 15.64285156 -98.59207031 15.68023437 -97.71484375 15.71875 C-96.95292725 15.74904297 -96.19101074 15.77933594 -95.40600586 15.81054688 C-93 16 -93 16 -90.3110199 16.50474548 C-86.69643909 17.04540592 -83.27247913 17.11984858 -79.61767578 17.11352539 C-78.54834557 17.11374443 -78.54834557 17.11374443 -77.45741272 17.1139679 C-75.12001415 17.11327572 -72.78269701 17.10551612 -70.4453125 17.09765625 C-68.81721032 17.0957896 -67.18910758 17.09436686 -65.56100464 17.09336853 C-61.28998241 17.08956282 -57.01899455 17.07974926 -52.74798584 17.06866455 C-48.38407862 17.05840848 -44.02016581 17.05386194 -39.65625 17.04882812 C-31.10415095 17.03812515 -22.55207976 17.02107224 -14 17 C-14.495 16.01 -14.495 16.01 -15 15 C-15.54989187 10.67743226 -16.12722476 6.06084222 -13.9765625 2.12890625 C-9.8590875 -1.88620058 -5.12269029 -1.70418212 0 0 Z " fill="#EAD9C8" transform="translate(231,272)"/>
<path d="M0 0 C7.48904153 5.55165905 12.03099555 12.52957064 13.4375 21.8125 C15.0875 22.1425 16.7375 22.4725 18.4375 22.8125 C18.4375 24.4625 18.4375 26.1125 18.4375 27.8125 C17.695 27.956875 16.9525 28.10125 16.1875 28.25 C12.49608715 30.34739366 11.93830856 32.65873506 10.3984375 36.49609375 C8.1448351 41.92855808 5.06577442 45.31002206 0.4375 48.8125 C-0.0575 49.8025 -0.0575 49.8025 -0.5625 50.8125 C-7.99480896 53.59196315 -14.79510557 54.23881358 -22.5625 52.8125 C-22.81 53.575625 -23.0575 54.33875 -23.3125 55.125 C-24.69555995 58.09857889 -25.79254483 59.13373929 -28.5625 60.8125 C-33.5468896 62.4739632 -39.60485445 62.96809845 -44.58203125 61.0234375 C-47.42210316 59.21297804 -48.48741996 58.03774011 -49.5625 54.8125 C-50.50222656 55.44478516 -50.50222656 55.44478516 -51.4609375 56.08984375 C-52.27820313 56.63769531 -53.09546875 57.18554688 -53.9375 57.75 C-54.74960938 58.29527344 -55.56171875 58.84054688 -56.3984375 59.40234375 C-60.81159377 62.27806471 -64.38183611 62.27036555 -69.5625 61.8125 C-73.57310891 60.90762074 -76.04284028 59.53331832 -78.5 56.125 C-79.7968935 52.0817438 -79.78112848 49.03931738 -79.5625 44.8125 C-77.75 44.125 -77.75 44.125 -75.5625 43.8125 C-72.6347572 45.83939886 -71.71552355 48.5308176 -70.5625 51.8125 C-64.81625254 52.2721998 -62.01119274 51.48750704 -57.5625 47.8125 C-55.77127963 45.87986749 -54.17711167 43.90199746 -52.5625 41.8125 C-50.4375 41.8125 -50.4375 41.8125 -47.5625 42.8125 C-46.61853528 44.11220217 -45.72810011 45.4514286 -44.875 46.8125 C-43.01568247 49.54535516 -42.17280448 50.63682015 -38.95703125 51.5625 C-36.46859566 51.78712606 -34.05878792 51.89143401 -31.5625 51.8125 C-30.9025 50.4925 -30.2425 49.1725 -29.5625 47.8125 C-30.26375 47.8125 -30.965 47.8125 -31.6875 47.8125 C-36.778974 46.04155252 -39.00912515 41.50772128 -41.609375 36.99609375 C-44.68982004 30.26851802 -44.72999614 21.67706724 -43.0234375 14.56640625 C-41.4557988 10.69898991 -39.07089802 7.13005868 -36.5625 3.8125 C-35.9025 3.8125 -35.2425 3.8125 -34.5625 3.8125 C-34.5625 3.1525 -34.5625 2.4925 -34.5625 1.8125 C-33.37929424 1.17940809 -32.19062152 0.55653282 -31 -0.0625 C-30.33871094 -0.41054687 -29.67742187 -0.75859375 -28.99609375 -1.1171875 C-19.86934336 -5.13119971 -8.81310879 -5.1381445 0 0 Z " fill="#EDE3D5" transform="translate(226.5625,166.1875)"/>
<path d="M0 0 C9.26603681 7.2925714 14.85506022 16.31030858 17.34765625 27.84765625 C18.71277983 45.33441856 16.45311375 58.70224528 7.34765625 73.84765625 C6.68765625 73.84765625 6.02765625 73.84765625 5.34765625 73.84765625 C4.96480469 74.729375 4.96480469 74.729375 4.57421875 75.62890625 C0.48843031 83.01975922 -7.91645842 87.26902781 -15.65234375 89.84765625 C-18.98182086 90.07483961 -22.31590303 90.03280664 -25.65234375 90.03515625 C-26.56757813 90.04740234 -27.4828125 90.05964844 -28.42578125 90.07226562 C-29.74449219 90.07516602 -29.74449219 90.07516602 -31.08984375 90.078125 C-31.89292969 90.08223389 -32.69601562 90.08634277 -33.5234375 90.09057617 C-35.65234375 89.84765625 -35.65234375 89.84765625 -38.65234375 87.84765625 C-34.14170545 69.33701795 -34.14170545 69.33701795 -30.65234375 65.84765625 C-24.44431455 65.38780224 -24.44431455 65.38780224 -21.71484375 66.97265625 C-20.20749512 69.63268325 -20.45248122 71.8497183 -20.65234375 74.84765625 C-11.61519005 71.64699765 -5.5659884 65.9443611 -0.90625 57.58984375 C3.7750987 47.35212791 4.90890321 36.97120741 1.3984375 26.2734375 C-0.33030068 22.28255865 -2.80423048 19.10372208 -5.65234375 15.84765625 C-6.31234375 15.08453125 -6.97234375 14.32140625 -7.65234375 13.53515625 C-13.5032676 8.59843925 -19.55192145 7.70369557 -26.96484375 7.78515625 C-28.03347656 7.79417969 -29.10210937 7.80320313 -30.203125 7.8125 C-31.01136719 7.82410156 -31.81960938 7.83570313 -32.65234375 7.84765625 C-32.60013672 8.75257813 -32.60013672 8.75257813 -32.546875 9.67578125 C-32.3230127 16.28504905 -32.3230127 16.28504905 -34.15234375 19.41015625 C-34.64734375 19.88453125 -35.14234375 20.35890625 -35.65234375 20.84765625 C-37.4609375 20.64453125 -37.4609375 20.64453125 -39.65234375 19.84765625 C-41.25 17.73828125 -41.25 17.73828125 -42.71484375 15.09765625 C-43.20082031 14.2365625 -43.68679688 13.37546875 -44.1875 12.48828125 C-45.17535124 10.70751474 -46.16231093 8.9262534 -47.1484375 7.14453125 C-48.60079993 4.59872589 -48.60079993 4.59872589 -51.65234375 2.84765625 C-51.28777838 0.39325841 -51.10025461 -0.81054644 -49.0859375 -2.34765625 C-33.57636081 -9.57129471 -14.62732383 -9.68019642 0 0 Z " fill="#979494" transform="translate(318.65234375,172.15234375)"/>
<path d="M0 0 C0 0.66 0 1.32 0 2 C0.7425 2.185625 1.485 2.37125 2.25 2.5625 C5.28142277 4.14710736 6.5433733 5.85426892 8.30078125 8.7578125 C9.36368474 12.16622926 9.04035 15.43612609 9 19 C10.13274605 18.99333817 10.13274605 18.99333817 11.28837585 18.98654175 C18.5074532 18.94597924 25.72647306 18.91577418 32.9456358 18.89637566 C36.65448164 18.88606657 40.3632311 18.87215255 44.07202148 18.84912109 C94.09394003 18.54697001 94.09394003 18.54697001 107 25 C107 25.66 107 26.32 107 27 C96.66007175 28.67859968 86.44888393 29.5416933 76 30.0625 C74.40364058 30.14776946 72.80728652 30.23313944 71.2109375 30.31860352 C62.57965714 30.76502139 53.95374222 31.0759223 45.3125 31.2421875 C44.44399414 31.25988693 43.57548828 31.27758636 42.68066406 31.29582214 C38.47844175 31.37924775 34.27710253 31.44515534 30.07421875 31.48266602 C28.54947217 31.50755019 27.02473211 31.53283814 25.5 31.55859375 C24.46806519 31.55863907 24.46806519 31.55863907 23.4152832 31.5586853 C19.08285125 31.64922732 16.54282018 32.55319421 13 35 C7.29615834 36.48833274 1.29578887 36.19157486 -4.5625 36.1875 C-5.63137451 36.18741943 -6.70024902 36.18733887 -7.80151367 36.18725586 C-16.3928548 36.12525985 -24.78339246 35.73886918 -33 33 C-32.67 30.36 -32.34 27.72 -32 25 C-18.8 25.66 -5.6 26.32 8 27 C8.33 25.02 8.66 23.04 9 21 C8.26475098 21.00523682 7.52950195 21.01047363 6.77197266 21.01586914 C3.38965739 21.03685916 0.0073559 21.04972951 -3.375 21.0625 C-4.53128906 21.07087891 -5.68757813 21.07925781 -6.87890625 21.08789062 C-25.36423402 21.14010907 -25.36423402 21.14010907 -31 18 C-31.23707018 11.95471052 -30.59394951 8.39092426 -27.25 3.375 C-20.27199688 -3.99066996 -8.70254385 -4.92407216 0 0 Z " fill="#F85D04" transform="translate(145,101)"/>
<path d="M0 0 C0 0.99 0 1.98 0 3 C-0.66 3.66 -1.32 4.32 -2 5 C-2.68177998 7.65719837 -2.68177998 7.65719837 -3.125 10.625 C-3.29257813 11.62789062 -3.46015625 12.63078125 -3.6328125 13.6640625 C-3.81457031 14.82035156 -3.81457031 14.82035156 -4 16 C9.22570757 18.47681433 22.5853887 18.6277922 36 19 C36.495 20.98 36.495 20.98 37 23 C36.34 23 35.68 23 35 23 C35 23.66 35 24.32 35 25 C30.91668235 25.02950374 26.8333928 25.04696535 22.75 25.0625 C21.04070312 25.07506836 21.04070312 25.07506836 19.296875 25.08789062 C-0.71054025 25.14472987 -0.71054025 25.14472987 -5 23 C-5.0928125 24.8871875 -5.0928125 24.8871875 -5.1875 26.8125 C-5.59686108 29.89635345 -5.73231717 30.73231717 -8 33 C-12.95052089 34.65017363 -17.76535149 34.53470843 -22.82421875 33.32421875 C-26.84748284 32.91347961 -29.73482715 34.04485849 -33.375 35.5625 C-34.77847356 36.11892431 -36.18212514 36.67489976 -37.5859375 37.23046875 C-38.30620117 37.52099121 -39.02646484 37.81151367 -39.76855469 38.11083984 C-43.48936839 39.59346605 -47.24582457 40.9795641 -51 42.375 C-52.35433304 42.88236861 -53.70851549 43.39013951 -55.0625 43.8984375 C-56.031875 44.26195312 -57.00125 44.62546875 -58 45 C-57.43499869 49.44631465 -55.74087839 52.3297355 -53.3125 56.0625 C-49.9879735 61.27241233 -47.13416104 66.56886015 -44.453125 72.14453125 C-42.99502529 75.00977557 -41.35670505 77.66819935 -39.625 80.375 C-37.34255545 84.06019693 -36.29918021 86.56147465 -37 91 C-39.97 91.495 -39.97 91.495 -43 92 C-47.47031702 86.06286021 -51.24684841 79.91998295 -54.6484375 73.32421875 C-56.71624821 69.33912761 -58.89077504 65.44349805 -61.17578125 61.578125 C-61.72468018 60.64460205 -62.2735791 59.7110791 -62.83911133 58.74926758 C-63.9288552 56.90440793 -65.02865143 55.06544164 -66.1394043 53.2331543 C-70.77298756 45.34942524 -70.77298756 45.34942524 -70 40 C-63.93813704 37.19358196 -57.78067181 34.68515288 -51.5625 32.25 C-50.75699707 31.93216553 -49.95149414 31.61433105 -49.12158203 31.28686523 C-48.36087402 30.99110596 -47.60016602 30.69534668 -46.81640625 30.390625 C-46.13006104 30.12282227 -45.44371582 29.85501953 -44.73657227 29.57910156 C-43 29 -43 29 -41 29 C-41.495 28.01 -41.99 27.02 -42.5 26 C-44.31390092 21.6200929 -44.82652363 18.73372624 -44 14 C-39.04833034 8.57745084 -32.91456712 6.71767965 -25.9375 5.3125 C-25.02589111 5.11245361 -24.11428223 4.91240723 -23.17504883 4.70629883 C-20.4541356 4.11535608 -17.72872631 3.55361077 -15 3 C-13.43228834 2.67449521 -11.86457977 2.34897551 -10.296875 2.0234375 C-6.86980999 1.32082408 -3.43757754 0.64949622 0 0 Z " fill="#867D74" transform="translate(118,103)"/>
<path d="M0 0 C1.75 1.9375 1.75 1.9375 3 4 C5.59719103 5.39848748 7.12975867 6.1582257 10.0625 5.625 C11.0215625 5.315625 11.0215625 5.315625 12 5 C13.32 5 14.64 5 16 5 C17.22602512 8.67807537 16.70295577 10.88243927 16.0625 14.6875 C15.77052734 16.45673828 15.77052734 16.45673828 15.47265625 18.26171875 C15.23869141 19.61716797 15.23869141 19.61716797 15 21 C17.31 21 19.62 21 22 21 C22 19.02 22 17.04 22 15 C22.99 15 23.98 15 25 15 C25 16.65 25 18.3 25 20 C25.66 20 26.32 20 27 20 C27.33 18.68 27.66 17.36 28 16 C28.99 16.33 29.98 16.66 31 17 C30.41609009 23.86789548 29.4575634 30.58293549 28.1875 37.35546875 C28.01371826 38.30134354 27.83993652 39.24721832 27.66088867 40.22175598 C27.11105905 43.21105333 26.55582937 46.19931299 26 49.1875 C25.44510951 52.18656245 24.8913902 55.18583454 24.33911133 58.18537903 C23.99692416 60.04221438 23.6531031 61.89874964 23.30737305 63.75492859 C22.43098483 68.49328215 21.64181762 73.22405035 21 78 C18.525 78.495 18.525 78.495 16 79 C14.90385946 76.80771892 14.68571959 75.19313651 14.38671875 72.765625 C14.27529541 71.89212402 14.16387207 71.01862305 14.04907227 70.11865234 C13.87009399 68.69866943 13.87009399 68.69866943 13.6875 67.25 C10.64692623 43.70603759 10.64692623 43.70603759 4 21 C0.08334892 20.97095136 -3.8332744 20.95318483 -7.75 20.9375 C-8.86117187 20.92912109 -9.97234375 20.92074219 -11.1171875 20.91210938 C-12.18710938 20.90888672 -13.25703125 20.90566406 -14.359375 20.90234375 C-15.34389648 20.89710693 -16.32841797 20.89187012 -17.34277344 20.88647461 C-19.88359626 20.89500515 -19.88359626 20.89500515 -21.79884338 21.49801636 C-24.53641758 22.12233244 -27.0670143 22.1349817 -29.87573242 22.14526367 C-31.06184616 22.15164352 -32.2479599 22.15802338 -33.47001648 22.16459656 C-35.39331535 22.16626579 -35.39331535 22.16626579 -37.35546875 22.16796875 C-38.69908177 22.17118794 -40.04269445 22.17455249 -41.38630676 22.17805481 C-44.20993864 22.1840439 -47.03353996 22.18589544 -49.85717773 22.18530273 C-52.72084963 22.18522209 -55.58435947 22.19206166 -58.44799805 22.20581055 C-87.10889517 22.34163903 -87.10889517 22.34163903 -99.56958008 20.47973633 C-103.54668011 19.92354805 -107.49198291 19.68975654 -111.5 19.5 C-117.23225247 19.18722829 -122.45959714 18.48403648 -128 17 C-128 16.01 -128 15.02 -128 14 C-124.17343632 13.9328673 -120.64332691 13.90342115 -116.8515625 14.47265625 C-111.34619398 15.22643389 -105.84305329 15.38403557 -100.29492188 15.60546875 C-99.44349609 15.64285156 -98.59207031 15.68023437 -97.71484375 15.71875 C-96.95292725 15.74904297 -96.19101074 15.77933594 -95.40600586 15.81054688 C-93 16 -93 16 -90.3110199 16.50474548 C-86.69643909 17.04540592 -83.27247913 17.11984858 -79.61767578 17.11352539 C-78.54834557 17.11374443 -78.54834557 17.11374443 -77.45741272 17.1139679 C-75.12001415 17.11327572 -72.78269701 17.10551612 -70.4453125 17.09765625 C-68.81721032 17.0957896 -67.18910758 17.09436686 -65.56100464 17.09336853 C-61.28998241 17.08956282 -57.01899455 17.07974926 -52.74798584 17.06866455 C-48.38407862 17.05840848 -44.02016581 17.05386194 -39.65625 17.04882812 C-31.10415095 17.03812515 -22.55207976 17.02107224 -14 17 C-14.495 16.01 -14.495 16.01 -15 15 C-15.54989187 10.67743226 -16.12722476 6.06084222 -13.9765625 2.12890625 C-9.8590875 -1.88620058 -5.12269029 -1.70418212 0 0 Z " fill="#CDBBAC" transform="translate(231,272)"/>
<path d="M0 0 C7.48904153 5.55165905 12.03099555 12.52957064 13.4375 21.8125 C15.0875 22.1425 16.7375 22.4725 18.4375 22.8125 C18.4375 24.4625 18.4375 26.1125 18.4375 27.8125 C17.695 27.956875 16.9525 28.10125 16.1875 28.25 C12.49608715 30.34739366 11.93830856 32.65873506 10.3984375 36.49609375 C8.1448351 41.92855808 5.06577442 45.31002206 0.4375 48.8125 C-0.0575 49.8025 -0.0575 49.8025 -0.5625 50.8125 C-7.99480896 53.59196315 -14.79510557 54.23881358 -22.5625 52.8125 C-22.81 53.575625 -23.0575 54.33875 -23.3125 55.125 C-24.69555995 58.09857889 -25.79254483 59.13373929 -28.5625 60.8125 C-33.5468896 62.4739632 -39.60485445 62.96809845 -44.58203125 61.0234375 C-47.42210316 59.21297804 -48.48741996 58.03774011 -49.5625 54.8125 C-50.50222656 55.44478516 -50.50222656 55.44478516 -51.4609375 56.08984375 C-52.27820313 56.63769531 -53.09546875 57.18554688 -53.9375 57.75 C-54.74960938 58.29527344 -55.56171875 58.84054688 -56.3984375 59.40234375 C-60.81159377 62.27806471 -64.38183611 62.27036555 -69.5625 61.8125 C-73.57310891 60.90762074 -76.04284028 59.53331832 -78.5 56.125 C-79.7968935 52.0817438 -79.78112848 49.03931738 -79.5625 44.8125 C-77.75 44.125 -77.75 44.125 -75.5625 43.8125 C-72.6347572 45.83939886 -71.71552355 48.5308176 -70.5625 51.8125 C-64.81625254 52.2721998 -62.01119274 51.48750704 -57.5625 47.8125 C-55.77127963 45.87986749 -54.17711167 43.90199746 -52.5625 41.8125 C-50.4375 41.8125 -50.4375 41.8125 -47.5625 42.8125 C-46.61853528 44.11220217 -45.72810011 45.4514286 -44.875 46.8125 C-43.01568247 49.54535516 -42.17280448 50.63682015 -38.95703125 51.5625 C-36.46859566 51.78712606 -34.05878792 51.89143401 -31.5625 51.8125 C-30.9025 50.4925 -30.2425 49.1725 -29.5625 47.8125 C-30.26375 47.8125 -30.965 47.8125 -31.6875 47.8125 C-36.778974 46.04155252 -39.00912515 41.50772128 -41.609375 36.99609375 C-44.68982004 30.26851802 -44.72999614 21.67706724 -43.0234375 14.56640625 C-41.4557988 10.69898991 -39.07089802 7.13005868 -36.5625 3.8125 C-35.9025 3.8125 -35.2425 3.8125 -34.5625 3.8125 C-34.5625 3.1525 -34.5625 2.4925 -34.5625 1.8125 C-33.37929424 1.17940809 -32.19062152 0.55653282 -31 -0.0625 C-30.33871094 -0.41054687 -29.67742187 -0.75859375 -28.99609375 -1.1171875 C-19.86934336 -5.13119971 -8.81310879 -5.1381445 0 0 Z M-33.4375 9.75 C-37.76750227 15.12551535 -39.03932629 19.22966012 -38.875 26.12109375 C-38.1555813 32.31708728 -35.82864772 37.81022887 -31.625 42.4375 C-28.34301342 44.98271408 -27.50724264 45.14122855 -23.5625 44.8125 C-22.9025 45.8025 -22.2425 46.7925 -21.5625 47.8125 C-14.5156443 49.28059494 -8.67063471 47.46077896 -2.4609375 44.19921875 C-0.26081027 42.87334257 -0.26081027 42.87334257 0.4375 39.8125 C1.0975 39.8125 1.7575 39.8125 2.4375 39.8125 C2.7675 38.4925 3.0975 37.1725 3.4375 35.8125 C4.0975 35.8125 4.7575 35.8125 5.4375 35.8125 C7.74108023 29.04573308 8.45910713 23.1043452 6.3125 16.1875 C2.88411919 10.01641454 -1.35423094 4.38839257 -8.3828125 2.26171875 C-18.61800063 0.15231618 -26.39051053 2.07951146 -33.4375 9.75 Z " fill="#EDB31B" transform="translate(226.5625,166.1875)"/>
<path d="M0 0 C95.84063745 -0.69561753 95.84063745 -0.69561753 117 12 C117 12.66 117 13.32 117 14 C114.37569876 14.6695256 111.75063343 15.33573718 109.125 16 C108.37863281 16.19078125 107.63226563 16.3815625 106.86328125 16.578125 C101.2265625 18 101.2265625 18 99 18 C99 17.34 99 16.68 99 16 C77.84350654 10.1122931 55.67302837 10.62638913 33.89007568 10.39910889 C30.16817082 10.35836977 26.44640217 10.30760548 22.72460938 10.2578125 C15.48316803 10.16234459 8.24165784 10.07754901 1 10 C0.67 6.7 0.34 3.4 0 0 Z " fill="#A4968C" transform="translate(153,110)"/>
<path d="M0 0 C0.99 0 1.98 0 3 0 C3 1.98 3 3.96 3 6 C5.31 6 7.62 6 10 6 C10 4.02 10 2.04 10 0 C10.99 0 11.98 0 13 0 C13 1.65 13 3.3 13 5 C13.66 5 14.32 5 15 5 C15.33 3.68 15.66 2.36 16 1 C16.99 1.33 17.98 1.66 19 2 C18.41609009 8.86789548 17.4575634 15.58293549 16.1875 22.35546875 C16.01371826 23.30134354 15.83993652 24.24721832 15.66088867 25.22175598 C15.11105905 28.21105333 14.55582937 31.19931299 14 34.1875 C13.44510951 37.18656245 12.8913902 40.18583454 12.33911133 43.18537903 C11.99692416 45.04221438 11.6531031 46.89874964 11.30737305 48.75492859 C10.43098483 53.49328215 9.64181762 58.22405035 9 63 C6.525 63.495 6.525 63.495 4 64 C2.27029854 60.54059708 2.2292012 56.55747139 1.75 52.75 C0.3317185 41.8728294 -1.43846134 31.06721511 -3.28613281 20.25683594 C-4.32117774 14.18017248 -5.30910538 8.12593232 -6 2 C-5.01 2 -4.02 2 -3 2 C-2.67 2.99 -2.34 3.98 -2 5 C-1.34 5.33 -0.68 5.66 0 6 C0 4.02 0 2.04 0 0 Z " fill="#100C0C" transform="translate(243,287)"/>
<path d="M0 0 C0 1.98 0 3.96 0 6 C-6.99610852 10.63099382 -12.02036236 12.00171707 -20.28515625 10.6171875 C-25.64630624 9.75278253 -28.26756849 10.30738989 -32.9609375 13 C-37.57070896 15.26073083 -42.31884044 15.49445869 -47.1875 14.0625 C-48.115625 13.711875 -49.04375 13.36125 -50 13 C-54.02346185 12.49706727 -55.46372274 12.61864728 -58.8125 15 C-62.99662901 17.62533585 -66.18050377 17.627072 -71 17 C-72.68236471 16.37400383 -74.3523962 15.71247732 -76 15 C-79.6543793 14.61123624 -81.49903062 14.72674397 -84.75 16.5 C-89.1996891 18.55370266 -93.1681388 18.64154124 -98 18 C-99.68991979 17.0398183 -101.36209288 16.04644066 -103 15 C-106.90385466 15.23423128 -108.71999971 15.81333314 -112 18 C-116.27712336 18.16820148 -120.02018008 17.59244925 -123.6875 15.375 C-126.01100269 13.69259636 -126.01100269 13.69259636 -129.1875 14.25 C-131.92618063 14.87906826 -131.92618063 14.87906826 -134 16 C-138.71285711 16.58550771 -142.60425668 16.57937022 -146.6875 14 C-150.24774624 11.85041736 -151.93438176 11.52725369 -156 12 C-156.99 12.495 -156.99 12.495 -158 13 C-164.96410766 13.99487252 -168.43113513 11.91299512 -174.09375 7.921875 C-176 6 -176 6 -176 2 C-173.69 2.33 -171.38 2.66 -169 3 C-169 3.66 -169 4.32 -169 5 C-168.01 5 -167.02 5 -166 5 C-165.67 5.66 -165.34 6.32 -165 7 C-163.84242188 6.88140625 -162.68484375 6.7628125 -161.4921875 6.640625 C-159.95322414 6.50925008 -158.4141553 6.37910678 -156.875 6.25 C-155.73417969 6.12818359 -155.73417969 6.12818359 -154.5703125 6.00390625 C-149.03600049 5.57451997 -146.53380471 6.55166094 -142 10 C-138.19231005 10.32268559 -135.61930698 10.20643566 -132 9 C-124.9110982 8.53515398 -124.9110982 8.53515398 -120.9375 10.5625 C-117.17894678 12.401792 -115.01230371 11.92591624 -111 11 C-110.34 10.67 -109.68 10.34 -109 10 C-104.8408346 9.66726677 -101.74354018 9.96264818 -97.9375 11.5625 C-94.25073897 13.07428596 -91.90286171 13.15311823 -88 12 C-87.10667969 11.48759766 -87.10667969 11.48759766 -86.1953125 10.96484375 C-81.79947777 9.03286656 -76.70809095 9.64419286 -72 10 C-70.948125 10.4125 -69.89625 10.825 -68.8125 11.25 C-64.85199927 12.30613353 -62.8601435 10.74153382 -59.30078125 8.96484375 C-53.95379217 6.72255801 -48.55160951 8.07473175 -43 9 C-40.27886558 9.179022 -37.73892783 9.13694639 -35 9 C-34.34 8.34 -33.68 7.68 -33 7 C-27.73706578 5.02886359 -23.52508768 5.03854148 -18.0625 5.75 C-12.9423876 6.27213609 -9.33077827 6.37310345 -5.125 3.0625 C-4.26261719 2.21365234 -4.26261719 2.21365234 -3.3828125 1.34765625 C-2 0 -2 0 0 0 Z " fill="#B5ADA7" transform="translate(264,144)"/>
<path d="M0 0 C0 0.66 0 1.32 0 2 C0.7425 2.185625 1.485 2.37125 2.25 2.5625 C5.99976519 4.52260453 7.70396554 7.06930816 9 11 C9.16479492 13.578125 9.16479492 13.578125 9.10546875 16.25 C9.0902417 17.14203125 9.07501465 18.0340625 9.05932617 18.953125 C9.02995972 19.96632813 9.02995972 19.96632813 9 21 C4.87501532 21.02938023 0.75005809 21.04692535 -3.375 21.0625 C-4.53128906 21.07087891 -5.68757813 21.07925781 -6.87890625 21.08789062 C-25.36423402 21.14010907 -25.36423402 21.14010907 -31 18 C-31.23707018 11.95471052 -30.59394951 8.39092426 -27.25 3.375 C-20.27199688 -3.99066996 -8.70254385 -4.92407216 0 0 Z " fill="#0C0709" transform="translate(145,101)"/>
<path d="M0 0 C-0.62678171 3.66172475 -1.64451846 6.8818995 -3.0625 10.3125 C-3.42472656 11.19550781 -3.78695312 12.07851562 -4.16015625 12.98828125 C-4.43730469 13.65214844 -4.71445312 14.31601563 -5 15 C-5.495 13.515 -5.495 13.515 -6 12 C-6.53625 12.51691406 -7.0725 13.03382813 -7.625 13.56640625 C-12.35838031 17.54462555 -15.68985298 19.45421573 -22.02319336 18.98168945 C-23.42297239 18.82738694 -24.82224068 18.66837776 -26.22094727 18.50463867 C-31.80103124 17.87246502 -35.07753503 18.38807981 -40 21 C-40.33 21.33 -40.66 21.66 -41 22 C-47.55508753 22.36417153 -53.58986968 21.31973271 -60 20 C-59.36578125 19.74476563 -58.7315625 19.48953125 -58.078125 19.2265625 C-55.58074458 18.05537488 -55.58074458 18.05537488 -54.75 14.375 C-54.5025 13.26125 -54.255 12.1475 -54 11 C-55.134375 10.54625 -56.26875 10.0925 -57.4375 9.625 C-61 8 -61 8 -62 6 C-61.08605469 6.03480469 -60.17210937 6.06960937 -59.23046875 6.10546875 C-45.35712258 6.4507451 -31.74288495 4.74498765 -18 3 C-16.73978027 2.84047852 -16.73978027 2.84047852 -15.45410156 2.67773438 C-10.4944977 2.03848688 -4.78865571 0 0 0 Z " fill="#DDC9B9" transform="translate(270,132)"/>
<path d="M0 0 C2.125 0 2.125 0 5 1 C5.94396472 2.29970217 6.83439989 3.6389286 7.6875 5 C9.54681753 7.73285516 10.38969552 8.82432015 13.60546875 9.75 C16.09390434 9.97462606 18.50371208 10.07893401 21 10 C21.45375 9.05125 21.9075 8.1025 22.375 7.125 C24 4 24 4 26 2 C29.53571429 2.53571429 29.53571429 2.53571429 31 4 C31.40388715 8.11964889 31.24077056 10.51845889 29.375 14.25 C26.06025635 18.08812423 23.46580905 19.702339 18.37890625 20.31640625 C13.96843979 20.50192112 10.19815789 20.58851703 6.375 18.1875 C4 16 4 16 3 13 C2.37351563 13.42152344 1.74703125 13.84304687 1.1015625 14.27734375 C0.28429687 14.82519531 -0.53296875 15.37304688 -1.375 15.9375 C-2.18710938 16.48277344 -2.99921875 17.02804688 -3.8359375 17.58984375 C-8.24909377 20.46556471 -11.81933611 20.45786555 -17 20 C-21.01060891 19.09512074 -23.48034028 17.72081832 -25.9375 14.3125 C-27.2343935 10.2692438 -27.21862848 7.22681738 -27 3 C-25.1875 2.3125 -25.1875 2.3125 -23 2 C-20.0722572 4.02689886 -19.15302355 6.7183176 -18 10 C-12.25375254 10.4596998 -9.44869274 9.67500704 -5 6 C-3.20877963 4.06736749 -1.61461167 2.08949746 0 0 Z " fill="#120E0E" transform="translate(174,208)"/>
<path d="M0 0 C0.33 0 0.66 0 1 0 C1 1.98 1 3.96 1 6 C14.22570757 8.47681433 27.5853887 8.6277922 41 9 C41.495 10.98 41.495 10.98 42 13 C41.34 13 40.68 13 40 13 C40 13.66 40 14.32 40 15 C35.91668235 15.02950374 31.8333928 15.04696535 27.75 15.0625 C26.04070312 15.07506836 26.04070312 15.07506836 24.296875 15.08789062 C4.28945975 15.14472987 4.28945975 15.14472987 0 13 C-0.0928125 14.8871875 -0.0928125 14.8871875 -0.1875 16.8125 C-0.59686108 19.89635345 -0.73231717 20.73231717 -3 23 C-11.99425106 25.99808369 -20.35985657 22.75304712 -29 20 C-28.1171875 18.02734375 -28.1171875 18.02734375 -27 16 C-26.38125 15.855625 -25.7625 15.71125 -25.125 15.5625 C-21.92488737 14.71541136 -20.89479503 12.62826407 -19 10 C-18.608125 9.2575 -18.21625 8.515 -17.8125 7.75 C-15.20731597 5.23464991 -12.76662212 5.14816822 -9.23046875 4.8828125 C-6.1926895 5.04241561 -4.34148736 6.11170374 -2 8 C-1.34 5.36 -0.68 2.72 0 0 Z " fill="#7F776D" transform="translate(113,113)"/>
<path d="M0 0 C0.66 0.33 1.32 0.66 2 1 C1.67 1.99 1.34 2.98 1 4 C1.66 4.33 2.32 4.66 3 5 C2.67 5.33 2.34 5.66 2 6 C2.84172164 12.25278931 5.44307119 16.65524032 8.8293457 21.93188477 C11.76413963 26.52332132 14.18820187 31.23926873 16.546875 36.14453125 C18.00497471 39.00977557 19.64329495 41.66819935 21.375 44.375 C23.65744455 48.06019693 24.70081979 50.56147465 24 55 C21.03 55.495 21.03 55.495 18 56 C13.52968298 50.06286021 9.75315159 43.91998295 6.3515625 37.32421875 C4.28375179 33.33912761 2.10922496 29.44349805 -0.17578125 25.578125 C-0.99912964 24.17784058 -0.99912964 24.17784058 -1.83911133 22.74926758 C-2.9288552 20.90440793 -4.02865143 19.06544164 -5.1394043 17.2331543 C-9.77298756 9.34942524 -9.77298756 9.34942524 -9 4 C-7.54618103 3.30300448 -6.08677047 2.61766134 -4.625 1.9375 C-3.40683594 1.36322266 -3.40683594 1.36322266 -2.1640625 0.77734375 C-1.44992188 0.52082031 -0.73578125 0.26429688 0 0 Z " fill="#887F76" transform="translate(57,139)"/>
<path d="M0 0 C1.4540625 0.0309375 1.4540625 0.0309375 2.9375 0.0625 C2.9375 0.7225 2.9375 1.3825 2.9375 2.0625 C3.6696875 2.33191406 4.401875 2.60132813 5.15625 2.87890625 C7.85257365 4.02635859 10.03347553 5.33665208 12.4375 7 C14.91064306 8.694103 17.34572712 10.30063249 19.9375 11.8125 C21.9375 13.0625 21.9375 13.0625 22.9375 15.0625 C23.88625 15.371875 24.835 15.68125 25.8125 16 C28.77972079 17.00885507 30.09156415 17.6012522 31.9375 20.0625 C31.9375 20.7225 31.9375 21.3825 31.9375 22.0625 C32.8965625 22.2790625 32.8965625 22.2790625 33.875 22.5 C35.9375 23.0625 35.9375 23.0625 36.9375 24.0625 C37.1875 26.5 37.1875 26.5 36.9375 29.0625 C33.73343538 31.19854308 32.94149253 31.30458908 29.26953125 31.2578125 C28.37685547 31.25136719 27.48417969 31.24492187 26.56445312 31.23828125 C25.17129883 31.21314453 25.17129883 31.21314453 23.75 31.1875 C22.80962891 31.17847656 21.86925781 31.16945313 20.90039062 31.16015625 C18.57917032 31.13659056 16.25846356 31.10369116 13.9375 31.0625 C13.6075 31.7225 13.2775 32.3825 12.9375 33.0625 C12.9375 29.7625 12.9375 26.4625 12.9375 23.0625 C14.9175 23.0625 16.8975 23.0625 18.9375 23.0625 C18.6075 22.4025 18.2775 21.7425 17.9375 21.0625 C17.298125 20.918125 16.65875 20.77375 16 20.625 C13.9375 20.0625 13.9375 20.0625 11.9375 17.0625 C10.25759001 16.05563331 10.25759001 16.05563331 8.3125 15.25 C3.79844945 13.07564964 -0.58723123 10.73635556 -4.0625 7.0625 C-4.625 3.75 -4.625 3.75 -4.0625 1.0625 C-3.0625 0.0625 -3.0625 0.0625 0 0 Z " fill="#857B70" transform="translate(239.0625,252.9375)"/>
<path d="M0 0 C2.64 0 5.28 0 8 0 C8.74322435 11.01564657 9.14600025 22.02170304 9.25 33.0625 C9.27126953 34.21024902 9.29253906 35.35799805 9.31445312 36.54052734 C9.31896484 37.61125488 9.32347656 38.68198242 9.328125 39.78515625 C9.34214355 41.22193726 9.34214355 41.22193726 9.35644531 42.68774414 C9.18000488 43.83231079 9.18000488 43.83231079 9 45 C5.18894923 47.54070051 2.31435307 47.15363256 -2.0625 46.875 C-3.16174805 46.84019531 -3.16174805 46.84019531 -4.28320312 46.8046875 C-6.41015625 46.6796875 -6.41015625 46.6796875 -10 46 C-11.49609375 43.9453125 -11.49609375 43.9453125 -12 42 C-10 39 -10 39 -8.16015625 38.453125 C-7.46792969 38.38609375 -6.77570313 38.3190625 -6.0625 38.25 C-5.37285156 38.17265625 -4.68320313 38.0953125 -3.97265625 38.015625 C-2 38 -2 38 1 39 C0.96970703 38.31599121 0.93941406 37.63198242 0.90820312 36.92724609 C-0.19008061 11.80611778 -0.19008061 11.80611778 0 0 Z " fill="#877F76" transform="translate(158,304)"/>
<path d="M0 0 C13.2 0.66 26.4 1.32 40 2 C40 1.34 40 0.68 40 0 C42.64 0.66 45.28 1.32 48 2 C48.495 4.97 48.495 4.97 49 8 C42.40678082 11.8037803 34.81341069 11.19263047 27.4375 11.1875 C26.36862549 11.18741943 25.29975098 11.18733887 24.19848633 11.18725586 C15.6071452 11.12525985 7.21660754 10.73886918 -1 8 C-0.67 5.36 -0.34 2.72 0 0 Z " fill="#140F10" transform="translate(113,126)"/>
<path d="M0 0 C2.31 0 4.62 0 7 0 C7.56461059 12.16315363 8.09794763 24.32192329 8.125 36.5 C8.12951172 37.34723633 8.13402344 38.19447266 8.13867188 39.06738281 C8.12412032 44.87587968 8.12412032 44.87587968 7 46 C4.17583618 46.12663091 1.38705207 46.18520548 -1.4375 46.1875 C-2.22705078 46.19974609 -3.01660156 46.21199219 -3.83007812 46.22460938 C-5.88807435 46.22987279 -7.94562009 46.12206285 -10 46 C-10.66 45.34 -11.32 44.68 -12 44 C-11.67 42.35 -11.34 40.7 -11 39 C-7.37 38.34 -3.74 37.68 0 37 C0 24.79 0 12.58 0 0 Z " fill="#857C74" transform="translate(186,304)"/>
<path d="M0 0 C2.68583835 0.89350662 3.53016749 2.27614355 4.97265625 4.65625 C7.56984728 6.05473748 9.10241492 6.8144757 12.03515625 6.28125 C12.67453125 6.075 13.31390625 5.86875 13.97265625 5.65625 C15.29265625 5.65625 16.61265625 5.65625 17.97265625 5.65625 C19.28489121 9.59295488 18.21561881 11.78113144 16.97265625 15.65625 C15.98265625 15.65625 14.99265625 15.65625 13.97265625 15.65625 C13.97265625 17.63625 13.97265625 19.61625 13.97265625 21.65625 C13.31265625 21.32625 12.65265625 20.99625 11.97265625 20.65625 C11.97265625 18.34625 11.97265625 16.03625 11.97265625 13.65625 C9.33265625 13.65625 6.69265625 13.65625 3.97265625 13.65625 C3.66328125 14.460625 3.35390625 15.265 3.03515625 16.09375 C1.97265625 18.65625 1.97265625 18.65625 0.97265625 19.65625 C-6.17514668 20.12495839 -6.17514668 20.12495839 -9.52734375 18.28125 C-11.02734375 16.65625 -11.02734375 16.65625 -11.02734375 14.65625 C-11.68734375 14.65625 -12.34734375 14.65625 -13.02734375 14.65625 C-13.9111408 6.22744476 -13.9111408 6.22744476 -12.0078125 2.84375 C-8.28956959 -0.76181889 -4.77702455 -0.82939992 0 0 Z " fill="#82786E" transform="translate(229.02734375,271.34375)"/>
<path d="M0 0 C0 0.99 0 1.98 0 3 C-0.66 3.66 -1.32 4.32 -2 5 C-2.70710678 6.64991582 -3.37943989 8.31562256 -4 10 C-4.85980469 10.10957031 -5.71960938 10.21914062 -6.60546875 10.33203125 C-22.08042804 11.89040878 -22.08042804 11.89040878 -36 18 C-36 18.66 -36 19.32 -36 20 C-33.69 20.99 -31.38 21.98 -29 23 C-29 23.66 -29 24.32 -29 25 C-32.63 26.32 -36.26 27.64 -40 29 C-42.91193837 24.63209245 -44.72132691 21.49800192 -44.56469727 16.01342773 C-43.42108928 11.93589419 -39.50877924 10.00152723 -36 8 C-32.70269375 6.75642135 -29.38768664 6.00736676 -25.9375 5.3125 C-25.02589111 5.11245361 -24.11428223 4.91240723 -23.17504883 4.70629883 C-20.4541356 4.11535608 -17.72872631 3.55361077 -15 3 C-13.43228834 2.67449521 -11.86457977 2.34897551 -10.296875 2.0234375 C-6.86980999 1.32082408 -3.43757754 0.64949622 0 0 Z " fill="#EEE5DA" transform="translate(118,103)"/>
<path d="M0 0 C1.11826172 0.00322266 2.23652344 0.00644531 3.38867188 0.00976562 C4.55591797 0.01814453 5.72316406 0.02652344 6.92578125 0.03515625 C8.10462891 0.03966797 9.28347656 0.04417969 10.49804688 0.04882812 C13.41150914 0.06062352 16.32486988 0.07708355 19.23828125 0.09765625 C19.89828125 2.73765625 20.55828125 5.37765625 21.23828125 8.09765625 C3.98021215 11.10741227 -13.25227599 12.48247917 -30.76171875 12.09765625 C-30.76171875 11.76765625 -30.76171875 11.43765625 -30.76171875 11.09765625 C-29.09109375 10.69546875 -29.09109375 10.69546875 -27.38671875 10.28515625 C-23.54330924 9.43956606 -23.54330924 9.43956606 -21.76171875 6.09765625 C-21.10171875 6.42765625 -20.44171875 6.75765625 -19.76171875 7.09765625 C-19.43171875 6.43765625 -19.10171875 5.77765625 -18.76171875 5.09765625 C-17.48296875 5.13890625 -16.20421875 5.18015625 -14.88671875 5.22265625 C-12.74300383 5.33978498 -12.74300383 5.33978498 -10.76171875 5.09765625 C-10.10171875 4.43765625 -9.44171875 3.77765625 -8.76171875 3.09765625 C-8.76171875 2.43765625 -8.76171875 1.77765625 -8.76171875 1.09765625 C-5.58384334 0.03836445 -3.33582932 -0.01693314 0 0 Z " fill="#DEC9B7" transform="translate(216.76171875,291.90234375)"/>
<path d="M0 0 C3.48599161 2.82094919 5.28725031 5.50761373 6.61328125 9.8203125 C6.80859375 13.15234375 6.80859375 13.15234375 6.73828125 16.6328125 C6.72023437 17.79425781 6.7021875 18.95570313 6.68359375 20.15234375 C6.66039062 21.03277344 6.6371875 21.91320312 6.61328125 22.8203125 C4.96328125 22.4903125 3.31328125 22.1603125 1.61328125 21.8203125 C1.41992188 20.92828125 1.2265625 20.03625 1.02734375 19.1171875 C0.63675781 17.36148438 0.63675781 17.36148438 0.23828125 15.5703125 C-0.01695312 14.41015625 -0.2721875 13.25 -0.53515625 12.0546875 C-1.2446828 9.35978849 -2.01768264 7.22505418 -3.38671875 4.8203125 C-11.09630352 4.63190406 -11.09630352 4.63190406 -18.29296875 6.87109375 C-22.0593738 10.94753824 -22.68627498 16.53039387 -23.38671875 21.8203125 C-25.03671875 21.8203125 -26.68671875 21.8203125 -28.38671875 21.8203125 C-28.89144724 14.97843747 -28.71476296 9.39730661 -24.38671875 3.8203125 C-18.33513826 -2.42893268 -7.77660098 -3.84375368 0 0 Z " fill="#211C1C" transform="translate(221.38671875,176.1796875)"/>
<path d="M0 0 C2.50012512 1.2688448 3.82561962 2.46614679 5.58984375 4.625 C6.09 5.22183594 6.59015625 5.81867188 7.10546875 6.43359375 C9.50064786 9.83687039 9.44965824 12.85326802 9.40234375 16.875 C9.39332031 17.86886719 9.38429687 18.86273438 9.375 19.88671875 C9.36339844 20.64597656 9.35179687 21.40523437 9.33984375 22.1875 C7.68369718 22.56968767 6.01527351 22.90145102 4.33984375 23.1875 C2.65548593 21.50314218 3.13526578 19.24394806 3.02734375 16.9375 C2.63964253 12.19892959 2.04026315 9.45257594 -1.66015625 6.1875 C-6.58111315 4.54718103 -10.2260054 4.47042457 -14.91015625 6.8125 C-19.95030815 11.16535846 -21.01235788 15.70951627 -21.66015625 22.1875 C-23.31015625 22.1875 -24.96015625 22.1875 -26.66015625 22.1875 C-27.16396044 15.35815433 -26.99973438 9.74758447 -22.66015625 4.1875 C-16.50061203 -1.89801124 -8.0659206 -2.46359983 0 0 Z " fill="#141010" transform="translate(153.66015625,175.8125)"/>
<path d="M0 0 C2 0 2 0 4.5 2.4375 C5.325 3.283125 6.15 4.12875 7 5 C7.66 5.33 8.32 5.66 9 6 C9 6.99 9 7.98 9 9 C9.66 9 10.32 9 11 9 C11 11.64 11 14.28 11 17 C10.34 17 9.68 17 9 17 C8.67 17.99 8.34 18.98 8 20 C3.97417418 22.68388388 0.72915204 22.79509386 -4 22 C-7.0625 19.9375 -7.0625 19.9375 -9 17 C-9.53603554 12.55856266 -9.50031654 10.75047482 -7 7 C-7.66 6.67 -8.32 6.34 -9 6 C-8.43410156 5.65066406 -7.86820313 5.30132812 -7.28515625 4.94140625 C-6.55167969 4.48636719 -5.81820312 4.03132812 -5.0625 3.5625 C-4.33160156 3.11003906 -3.60070312 2.65757812 -2.84765625 2.19140625 C-1.06100191 1.13135967 -1.06100191 1.13135967 0 0 Z " fill="#DDCDBF" transform="translate(175,221)"/>
<path d="M0 0 C0.33 0 0.66 0 1 0 C1.99 8.91 2.98 17.82 4 27 C5.20226 24.59548001 5.26696242 22.77959015 5.46484375 20.09765625 C5.54283203 19.12505859 5.62082031 18.15246094 5.70117188 17.15039062 C5.85840423 15.09597447 6.01206514 13.04128177 6.16210938 10.98632812 C6.28102539 9.52549805 6.28102539 9.52549805 6.40234375 8.03515625 C6.46929443 7.1419165 6.53624512 6.24867676 6.60522461 5.32836914 C7 3 7 3 9 0 C9 7.59 9 15.18 9 23 C9.99 22.34 10.98 21.68 12 21 C11.38074426 28.45794808 10.26293646 35.76250489 8.9375 43.125 C8.75123047 44.176875 8.56496094 45.22875 8.37304688 46.3125 C7.91867754 48.87560908 7.46094303 51.43806645 7 54 C4.525 54.495 4.525 54.495 2 55 C0.88015881 52.76031763 0.71344334 51.1344334 0.46484375 48.6484375 C0.37783203 47.79765625 0.29082031 46.946875 0.20117188 46.0703125 C0.11416016 45.18085938 0.02714844 44.29140625 -0.0625 43.375 C-0.15337891 42.4778125 -0.24425781 41.580625 -0.33789062 40.65625 C-0.56209292 38.43782728 -0.78264566 36.2191024 -1 34 C-0.34 34.33 0.32 34.66 1 35 C0.96970703 34.4016333 0.93941406 33.8032666 0.90820312 33.18676758 C0.3555093 22.11907369 -0.18822794 11.08453423 0 0 Z " fill="#282323" transform="translate(245,296)"/>
<path d="M0 0 C3.625 1.625 3.625 1.625 6 3 C6 3.66 6 4.32 6 5 C3.37569876 5.6695256 0.75063343 6.33573718 -1.875 7 C-2.62136719 7.19078125 -3.36773437 7.3815625 -4.13671875 7.578125 C-9.7734375 9 -9.7734375 9 -12 9 C-12 8.34 -12 7.68 -12 7 C-23.20227672 3.88248329 -34.44690366 2.91264709 -46 2 C-46 1.67 -46 1.34 -46 1 C-43.69 1 -41.38 1 -39 1 C-38.67 0.01 -38.34 -0.98 -38 -2 C-37.09507812 -1.85691406 -37.09507812 -1.85691406 -36.171875 -1.7109375 C-35.37265625 -1.60007812 -34.5734375 -1.48921875 -33.75 -1.375 C-32.96109375 -1.25898437 -32.1721875 -1.14296875 -31.359375 -1.0234375 C-28.99652836 -0.8107813 -28.99652836 -0.8107813 -27.1484375 -1.9921875 C-20.21037487 -5.2467696 -7.1678361 -2.08227641 0 0 Z " fill="#84786D" transform="translate(264,119)"/>
<path d="M0 0 C0 1.98 0 3.96 0 6 C-6.99610852 10.63099382 -12.02036236 12.00171707 -20.28515625 10.6171875 C-25.64630624 9.75278253 -28.26756849 10.30738989 -32.9609375 13 C-37.51183765 15.23185908 -42.26120293 15.53228482 -47.0625 14.0625 C-48.031875 13.711875 -49.00125 13.36125 -50 13 C-52.69321637 12.82830132 -55.29731106 12.90680383 -58 13 C-58 10 -58 10 -57 8 C-52.13425165 7.91610779 -47.8039984 8.1993336 -43 9 C-40.27886558 9.179022 -37.73892783 9.13694639 -35 9 C-34.34 8.34 -33.68 7.68 -33 7 C-27.73706578 5.02886359 -23.52508768 5.03854148 -18.0625 5.75 C-12.9423876 6.27213609 -9.33077827 6.37310345 -5.125 3.0625 C-4.26261719 2.21365234 -4.26261719 2.21365234 -3.3828125 1.34765625 C-2 0 -2 0 0 0 Z " fill="#969393" transform="translate(264,144)"/>
<path d="M0 0 C3.82656368 -0.0671327 7.35667309 -0.09657885 11.1484375 0.47265625 C16.65380602 1.22643389 22.15694671 1.38403557 27.70507812 1.60546875 C28.9822168 1.66154297 28.9822168 1.66154297 30.28515625 1.71875 C31.04707275 1.74904297 31.80898926 1.77933594 32.59399414 1.81054688 C35 2 35 2 37.60180664 2.49780273 C42.42554661 3.21067242 47.21558084 3.23652607 52.0859375 3.31640625 C53.14285797 3.33718735 54.19977844 3.35796844 55.28872681 3.37937927 C58.65075445 3.44453991 62.01285737 3.50360361 65.375 3.5625 C67.6601639 3.60571708 69.94532031 3.64933238 72.23046875 3.69335938 C77.82023391 3.80018683 83.41007324 3.90201425 89 4 C89 4.33 89 4.66 89 5 C73.16 5.495 73.16 5.495 57 6 C60.3 6.33 63.6 6.66 67 7 C67 7.33 67 7.66 67 8 C54.19838032 8.20062816 41.62689152 8.2791272 28.93359375 6.50390625 C24.78363502 5.97228294 20.67542963 5.70582073 16.5 5.5 C10.76774753 5.18722829 5.54040286 4.48403648 0 3 C0 2.01 0 1.02 0 0 Z " fill="#D1BFAF" transform="translate(103,286)"/>
<path d="M0 0 C0.804375 0.185625 1.60875 0.37125 2.4375 0.5625 C3.283125 0.706875 4.12875 0.85125 5 1 C5.33 0.67 5.66 0.34 6 0 C16.78382765 -0.65127049 27.33394964 0.53782419 38 2 C38 2.33 38 2.66 38 3 C36.77023438 2.96519531 36.77023438 2.96519531 35.515625 2.9296875 C34.43796875 2.91164063 33.3603125 2.89359375 32.25 2.875 C31.18265625 2.85179688 30.1153125 2.82859375 29.015625 2.8046875 C25.98990085 3.00065409 24.63155674 3.66265149 22 5 C19.640625 4.9765625 19.640625 4.9765625 17.25 4.625 C16.45078125 4.51414062 15.6515625 4.40328125 14.828125 4.2890625 C14.22484375 4.19367188 13.6215625 4.09828125 13 4 C12.67 4.66 12.34 5.32 12 6 C-11.43 6 -34.86 6 -59 6 C-58.67 4.68 -58.34 3.36 -58 2 C-57.67 2.66 -57.34 3.32 -57 4 C-55.90236328 3.96970703 -54.80472656 3.93941406 -53.67382812 3.90820312 C-49.52137941 3.79418915 -45.36885683 3.68307825 -41.21630859 3.57275391 C-39.43406133 3.525018 -37.65183375 3.47654042 -35.86962891 3.42724609 C-33.27771886 3.35569477 -30.68576441 3.28641253 -28.09375 3.21875 C-27.24385498 3.19651367 -26.39395996 3.17427734 -25.51831055 3.15136719 C-18.66756005 2.98605175 -11.82650489 2.99360796 -4.97460938 3.08007812 C-2.07104621 3.21176555 -2.07104621 3.21176555 0 2 C0.66 2.33 1.32 2.66 2 3 C2 2.34 2 1.68 2 1 C1.34 0.67 0.68 0.34 0 0 Z " fill="#9C8D81" transform="translate(213,114)"/>
<path d="M0 0 C13.68290082 -0.2032114 27.33203763 0.4160716 41 1 C41.495 2.98 41.495 2.98 42 5 C41.34 5 40.68 5 40 5 C40 5.66 40 6.32 40 7 C35.91668235 7.02950374 31.8333928 7.04696535 27.75 7.0625 C26.04070312 7.07506836 26.04070312 7.07506836 24.296875 7.08789062 C16.81103602 7.10915721 9.44799543 6.75312038 2 6 C1.34 4.02 0.68 2.04 0 0 Z " fill="#A49E98" transform="translate(113,121)"/>
<path d="M0 0 C7.32543969 0.14363607 12.41104252 2.19532975 17.8125 7.3125 C23.16287863 13.78131936 24.41507422 18.96054107 23.8125 27.3125 C23.30293803 29.74067358 22.61429953 31.95721389 21.8125 34.3125 C21.1525 34.3125 20.4925 34.3125 19.8125 34.3125 C19.8125 32.0025 19.8125 29.6925 19.8125 27.3125 C19.1525 28.3025 18.4925 29.2925 17.8125 30.3125 C17.77511719 29.51585937 17.73773438 28.71921875 17.69921875 27.8984375 C17.10865565 18.08820772 17.10865565 18.08820772 11.62890625 10.203125 C8.23474943 7.92466189 6.05319032 7.72626527 2 7.5625 C0.83855469 7.50578125 -0.32289063 7.4490625 -1.51953125 7.390625 C-2.84017578 7.35195312 -2.84017578 7.35195312 -4.1875 7.3125 C-4.1875 6.9825 -4.1875 6.6525 -4.1875 6.3125 C0.2675 5.8175 0.2675 5.8175 4.8125 5.3125 C4.8125 4.3225 4.8125 3.3325 4.8125 2.3125 C0.8525 2.3125 -3.1075 2.3125 -7.1875 2.3125 C-4.62498811 -0.25001189 -3.55643409 0.01471628 0 0 Z " fill="#E6D6BD" transform="translate(210.1875,167.6875)"/>
<path d="M0 0 C-0.33 2.97 -0.66 5.94 -1 9 C-1.804375 8.484375 -2.60875 7.96875 -3.4375 7.4375 C-7.90500414 5.63482289 -11.42114418 5.3777768 -16 7 C-18.47648077 9.92043703 -18.47648077 9.92043703 -20 13 C-20.66 13 -21.32 13 -22 13 C-22.33 13.99 -22.66 14.98 -23 16 C-24.98 16.33 -26.96 16.66 -29 17 C-28.67 16.34 -28.34 15.68 -28 15 C-26.68 15 -25.36 15 -24 15 C-24 14.34 -24 13.68 -24 13 C-24.763125 12.87625 -25.52625 12.7525 -26.3125 12.625 C-29 12 -29 12 -32 10 C-30.51809349 6.27995635 -30.51809349 6.27995635 -28.2578125 5.05859375 C-27.55398437 4.85363281 -26.85015625 4.64867188 -26.125 4.4375 C-25.32320313 4.20289062 -24.52140625 3.96828125 -23.6953125 3.7265625 C-22.80585937 3.48679687 -21.91640625 3.24703125 -21 3 C-20.02804688 2.71898438 -19.05609375 2.43796875 -18.0546875 2.1484375 C-11.8438587 0.44879893 -6.43232248 -0.32161612 0 0 Z " fill="#A6998F" transform="translate(113,113)"/>
<path d="M0 0 C2.140625 1.203125 2.140625 1.203125 4 3 C4.82309841 6.35043264 4.81985577 9.53222363 5 13 C9.95 13 14.9 13 20 13 C20 13.33 20 13.66 20 14 C15.545 14.495 15.545 14.495 11 15 C10.67 16.98 10.34 18.96 10 21 C9.34 21 8.68 21 8 21 C8 19.35 8 17.7 8 16 C7.01 16 6.02 16 5 16 C5 17.98 5 19.96 5 22 C2.69 22 0.38 22 -2 22 C-2.09038099 16.84828377 -1.84681133 12.08086796 -1 7 C-4.11257569 7 -6.10765685 7.17361624 -9 8 C-9.75 6.25 -9.75 6.25 -10 4 C-7.17999911 -0.06080128 -4.81288702 -0.70187936 0 0 Z " fill="#EAB41F" transform="translate(248,271)"/>
<path d="M0 0 C0.33 0.66 0.66 1.32 1 2 C-0.0625 3.4375 -0.0625 3.4375 -2 5 C-3.051875 5.12375 -4.10375 5.2475 -5.1875 5.375 C-10.00328661 6.16447321 -13.35704112 7.74425367 -17 11 C-18.73064184 13.61777758 -19.80798031 16.06961825 -21 19 C-21.33 18.34 -21.66 17.68 -22 17 C-22.99 17.33 -23.98 17.66 -25 18 C-25 21.3 -25 24.6 -25 28 C-27.48002593 25.51997407 -27.29694693 24.67167487 -27.3125 21.25 C-27.12198912 13.4390539 -23.34442493 8.40009602 -18 3 C-12.49756101 -0.66829266 -6.39456234 -0.12789125 0 0 Z " fill="#ECDBC1" transform="translate(215,169)"/>
<path d="M0 0 C0 1.32 0 2.64 0 4 C-0.59167969 4.14695313 -1.18335938 4.29390625 -1.79296875 4.4453125 C-6.46119909 5.7703893 -10.0717513 7.0212216 -13.0703125 11.10546875 C-14.90509633 14.84441899 -15.45750875 18.90297656 -16 23 C-17.65 23 -19.3 23 -21 23 C-21.5024255 16.18934321 -21.35660958 10.53473499 -17 5 C-11.80005701 0.17567366 -6.91562398 -0.7203775 0 0 Z " fill="#140F10" transform="translate(214,175)"/>
<path d="M0 0 C8.15458217 -0.02329413 16.30915016 -0.04100135 24.46375751 -0.05181217 C28.25132241 -0.05700396 32.03886433 -0.06403333 35.82641602 -0.07543945 C39.4898469 -0.08640123 43.15325586 -0.09230464 46.81670189 -0.09487724 C48.2059482 -0.09670777 49.59519348 -0.10028161 50.98443031 -0.10573006 C59.05127356 -0.13607434 66.98188681 0.07987155 75 1 C75 1.33 75 1.66 75 2 C73.66853485 2.20033619 72.33462147 2.38440017 71 2.5625 C70.2575 2.66691406 69.515 2.77132812 68.75 2.87890625 C66 3 66 3 62.55175781 2.51586914 C57.17902578 1.81646452 51.83244425 1.85665498 46.421875 1.8671875 C45.33287903 1.86623077 44.24388306 1.86527405 43.12188721 1.86428833 C40.83255963 1.86361086 38.54323009 1.86543482 36.25390625 1.86962891 C32.74735226 1.87500406 29.24092515 1.86965858 25.734375 1.86328125 C23.50520805 1.8639417 21.27604118 1.86522218 19.046875 1.8671875 C17.47495392 1.86415115 17.47495392 1.86415115 15.87127686 1.86105347 C14.89636292 1.86420563 13.92144897 1.86735779 12.91699219 1.87060547 C11.63414337 1.87179886 11.63414337 1.87179886 10.32537842 1.87301636 C8.00013122 1.92231627 8.00013122 1.92231627 5.81768799 2.57058716 C4 3 4 3 2 2 C2 2.99 2 3.98 2 5 C2.94875 5.268125 3.8975 5.53625 4.875 5.8125 C8 7 8 7 10 10 C13.2001106 10.51254128 13.2001106 10.51254128 16.9765625 10.51171875 C18.00443375 10.53864555 18.00443375 10.53864555 19.05307007 10.56611633 C21.24365059 10.62033708 23.4340119 10.65415053 25.625 10.6875 C27.10940559 10.72066294 28.59378221 10.75515165 30.078125 10.79101562 C33.71853912 10.87606815 37.35902944 10.94282356 41 11 C41 11.33 41 11.66 41 12 C24.665 12.495 24.665 12.495 8 13 C7.67 11.35 7.34 9.7 7 8 C4.03 7.505 4.03 7.505 1 7 C0.67 4.69 0.34 2.38 0 0 Z " fill="#E16818" transform="translate(154,120)"/>
<path d="M0 0 C2.375 0.25 2.375 0.25 5 1 C6.3125 3.0625 6.3125 3.0625 7 5 C8.98 4.67 10.96 4.34 13 4 C13.33 3.01 13.66 2.02 14 1 C15.65 1 17.3 1 19 1 C19.45291114 4.89503578 19.28517401 6.57683856 17.0625 9.875 C13.48152172 12.35976044 11.4346666 12.74450361 7.16015625 12.48046875 C3.49753176 11.66581629 2.02822207 10.07504636 0 7 C-0.3125 3.1875 -0.3125 3.1875 0 0 Z " fill="#83796F" transform="translate(166,231)"/>
<path d="M0 0 C2.78769614 -0.47485806 5.14948375 -0.23364887 8 0 C8.495 3.465 8.495 3.465 9 7 C8.34 7 7.68 7 7 7 C7 6.01 7 5.02 7 4 C6.01 4 5.02 4 4 4 C4.350625 5.2375 4.70125 6.475 5.0625 7.75 C6.05531499 11.25405292 5.94884936 12.20460255 5 16 C4.01 13.36 3.02 10.72 2 8 C-6.91 8 -15.82 8 -25 8 C-25 7.01 -25 6.02 -25 5 C-20.545 4.505 -20.545 4.505 -16 4 C-16.33 3.01 -16.66 2.02 -17 1 C-16.34 1 -15.68 1 -15 1 C-14.46375 1.66 -13.9275 2.32 -13.375 3 C-10.83918623 5.13542212 -10.11430919 5.38180076 -6.9375 5.5625 C-4.9884375 5.2840625 -4.9884375 5.2840625 -3 5 C-2.505 4.175 -2.01 3.35 -1.5 2.5 C-1.005 1.675 -0.51 0.85 0 0 Z " fill="#B0A69D" transform="translate(233,285)"/>
<path d="M0 0 C0.66 0 1.32 0 2 0 C4.29013653 3.4352048 4.17842973 4.985331 4 9 C4.804375 9.144375 5.60875 9.28875 6.4375 9.4375 C9 10 9 10 10 11 C9.28 17.72 9.28 17.72 8 19 C6.35 19 4.7 19 3 19 C2.67 22.3 2.34 25.6 2 29 C1.34 29 0.68 29 0 29 C0 29.66 0 30.32 0 31 C-1.875 33.125 -1.875 33.125 -4 35 C-4.66 35 -5.32 35 -6 35 C-6.33 36.32 -6.66 37.64 -7 39 C-11.873261 40.5912689 -15.80790596 41.21192221 -21 41 C-21 40.67 -21 40.34 -21 40 C-20.30132812 39.97421875 -19.60265625 39.9484375 -18.8828125 39.921875 C-17.97273437 39.86515625 -17.06265625 39.8084375 -16.125 39.75 C-15.22007812 39.70359375 -14.31515625 39.6571875 -13.3828125 39.609375 C-10.84737817 39.25719435 -10.84737817 39.25719435 -9.828125 37.06640625 C-9.41820312 36.04353516 -9.41820312 36.04353516 -9 35 C-8.21625 34.401875 -7.4325 33.80375 -6.625 33.1875 C-2.36907018 29.64089182 -0.42885622 25.20274012 1.4375 20.125 C3 17 3 17 5.6875 16.0625 C6.450625 16.041875 7.21375 16.02125 8 16 C8 14.35 8 12.7 8 11 C6.35 11 4.7 11 3 11 C2.49632243 9.54293274 1.99717444 8.08429904 1.5 6.625 C1.2215625 5.81289062 0.943125 5.00078125 0.65625 4.1640625 C0 2 0 2 0 0 Z " fill="#E6C48B" transform="translate(237,178)"/>
<path d="M0 0 C7.8122955 0.59731837 14.73990129 1.91995812 22 5 C22 5.66 22 6.32 22 7 C20.27507022 7.53469802 18.544802 8.05219175 16.8125 8.5625 C15.36810547 8.99755859 15.36810547 8.99755859 13.89453125 9.44140625 C10.87247412 10.02461026 8.94070045 9.81178385 6 9 C6 8.34 6 7.68 6 7 C5.34 6.67 4.68 6.34 4 6 C4 5.01 4 4.02 4 3 C3.01 3.33 2.02 3.66 1 4 C0.67 2.68 0.34 1.36 0 0 Z " fill="#827970" transform="translate(248,117)"/>
<path d="M0 0 C0.66 0.66 1.32 1.32 2 2 C4.70276514 2.0805378 7.29417545 2.04006922 9.98828125 1.90625 C11.6528983 1.84326791 13.31753116 1.78070256 14.98217773 1.71850586 C15.85413788 1.68240204 16.72609802 1.64629822 17.6244812 1.60910034 C32.57429645 1.00232261 47.15178224 0.8222614 62 3 C62 3.33 62 3.66 62 4 C41.54 4 21.08 4 0 4 C0 2.68 0 1.36 0 0 Z " fill="#B8906D" transform="translate(154,116)"/>
<path d="M0 0 C0.66 0.33 1.32 0.66 2 1 C1.67 2.65 1.34 4.3 1 6 C-4.39676455 7.91135411 -8.34918421 7.94700596 -14 7 C-15.60331495 6.82532992 -17.20752332 6.65867679 -18.8125 6.5 C-21.46302318 6.23729328 -23.43849189 5.85383604 -26 5 C-25.34 3.68 -24.68 2.36 -24 1 C-19.13425165 0.91610779 -14.8039984 1.1993336 -10 2 C-7.27886558 2.179022 -4.73892783 2.13694639 -2 2 C-1.34 1.34 -0.68 0.68 0 0 Z " fill="#9C9796" transform="translate(231,151)"/>
<path d="M0 0 C5.75 -0.125 5.75 -0.125 8 1 C7.67 4.96 7.34 8.92 7 13 C5.35 13.33 3.7 13.66 2 14 C0.64908472 11.29816945 0.66141942 8.88191794 0.4375 5.875 C0.35371094 4.77929688 0.26992187 3.68359375 0.18359375 2.5546875 C0.12300781 1.71164062 0.06242188 0.86859375 0 0 Z " fill="#4B4640" transform="translate(245,337)"/>
<path d="M0 0 C12.7155142 -0.45502834 25.34723748 0.88779925 38 2 C38 2.33 38 2.66 38 3 C37.37351563 3.04898438 36.74703125 3.09796875 36.1015625 3.1484375 C35.28429687 3.22320312 34.46703125 3.29796875 33.625 3.375 C32.81289062 3.44460937 32.00078125 3.51421875 31.1640625 3.5859375 C28.79665809 3.82892588 28.79665809 3.82892588 27 6 C26.34 5.34 25.68 4.68 25 4 C25 4.66 25 5.32 25 6 C22.69 6.33 20.38 6.66 18 7 C18 6.34 18 5.68 18 5 C16.68 4.67 15.36 4.34 14 4 C14.66 4 15.32 4 16 4 C16 3.34 16 2.68 16 2 C10.72 1.67 5.44 1.34 0 1 C0 0.67 0 0.34 0 0 Z " fill="#A59990" transform="translate(190,111)"/>
<path d="M0 0 C0.66 0.33 1.32 0.66 2 1 C1.27683594 1.68835938 1.27683594 1.68835938 0.5390625 2.390625 C-0.09257812 3.00421875 -0.72421875 3.6178125 -1.375 4.25 C-2.00148437 4.85328125 -2.62796875 5.4565625 -3.2734375 6.078125 C-6.84138531 10.04968682 -7.39467968 13.75389053 -8 19 C-7.01 18.67 -6.02 18.34 -5 18 C-5 20.31 -5 22.62 -5 25 C-5.66 25 -6.32 25 -7 25 C-7.33 24.34 -7.66 23.68 -8 23 C-7.67 26.63 -7.34 30.26 -7 34 C-10.63691299 30.36308701 -10.18543135 26.15390524 -10.25 21.1875 C-10.18017176 12.7644687 -8.15503878 7.76598839 -3 1 C-2.01 0.67 -1.02 0.34 0 0 Z " fill="#EAB72F" transform="translate(193,169)"/>
<path d="M0 0 C2.475 0.495 2.475 0.495 5 1 C5.66 2.98 6.32 4.96 7 7 C9.31 7.33 11.62 7.66 14 8 C13.67 8.99 13.34 9.98 13 11 C10.69 11 8.38 11 6 11 C6.33 10.01 6.66 9.02 7 8 C4.69 7.67 2.38 7.34 0 7 C0 4.69 0 2.38 0 0 Z " fill="#8B7F74" transform="translate(166,231)"/>
<path d="M0 0 C1.33332095 2.6666419 0.67102033 4.16680303 0 7 C1.32 7 2.64 7 4 7 C4 5.35 4 3.7 4 2 C4.66 2 5.32 2 6 2 C6 1.34 6 0.68 6 0 C10.95 0 15.9 0 21 0 C21 0.33 21 0.66 21 1 C16.545 1.495 16.545 1.495 12 2 C11.67 3.98 11.34 5.96 11 8 C10.34 8 9.68 8 9 8 C9 6.35 9 4.7 9 3 C8.01 3 7.02 3 6 3 C6 4.98 6 6.96 6 9 C3.69 9 1.38 9 -1 9 C-1.09765625 2.84765625 -1.09765625 2.84765625 -1 1 C-0.67 0.67 -0.34 0.34 0 0 Z " fill="#C19D61" transform="translate(247,284)"/>
<path d="M0 0 C0.99 0.33 1.98 0.66 3 1 C4.04976964 4.14930893 4.10131595 6.38814456 4.0625 9.6875 C4.05347656 10.68136719 4.04445312 11.67523438 4.03515625 12.69921875 C4.02355469 13.45847656 4.01195312 14.21773437 4 15 C2.35 14.67 0.7 14.34 -1 14 C-1.02685938 11.85423363 -1.04633088 9.70837355 -1.0625 7.5625 C-1.07410156 6.36753906 -1.08570313 5.17257813 -1.09765625 3.94140625 C-1 1 -1 1 0 0 Z " fill="#110C0C" transform="translate(158,184)"/>
<path d="M0 0 C1.75 0.0859375 1.75 0.0859375 4 0.375 C5.20462891 0.52388672 5.20462891 0.52388672 6.43359375 0.67578125 C7.28050781 0.78277344 8.12742187 0.88976562 9 1 C10.6871883 1.19028439 12.37467635 1.37793608 14.0625 1.5625 C15.361875 1.706875 16.66125 1.85125 18 2 C17.01 3.485 17.01 3.485 16 5 C14.01635742 5.35644531 14.01635742 5.35644531 11.60546875 5.328125 C10.29545898 5.32039062 10.29545898 5.32039062 8.95898438 5.3125 C7.58709961 5.2815625 7.58709961 5.2815625 6.1875 5.25 C4.83301758 5.24226562 4.83301758 5.24226562 3.45117188 5.234375 C-0.80835649 5.18429972 -4.85149703 5.07843683 -9 4 C-9 3.67 -9 3.34 -9 3 C-8.43410156 2.86722656 -7.86820312 2.73445312 -7.28515625 2.59765625 C-6.18494141 2.33275391 -6.18494141 2.33275391 -5.0625 2.0625 C-4.33160156 1.88847656 -3.60070312 1.71445313 -2.84765625 1.53515625 C-1.00030102 1.16112431 -1.00030102 1.16112431 0 0 Z " fill="#E8DED2" transform="translate(110,134)"/>
<path d="M0 0 C0.33 0.66 0.66 1.32 1 2 C0.34 2 -0.32 2 -1 2 C-1.268125 2.721875 -1.53625 3.44375 -1.8125 4.1875 C-2.99060748 6.97775456 -4.43442969 9.41340557 -6 12 C-6.92188461 14.76565382 -7.11785222 16.38283702 -7.09765625 19.23046875 C-7.09443359 20.03291016 -7.09121094 20.83535156 -7.08789062 21.66210938 C-7.07951172 22.49548828 -7.07113281 23.32886719 -7.0625 24.1875 C-7.05798828 25.03248047 -7.05347656 25.87746094 -7.04882812 26.74804688 C-7.03705403 28.83206155 -7.0191189 30.91603977 -7 33 C-9.44151364 30.83528822 -9.95872572 30.31845942 -10.3984375 26.92578125 C-10.32880838 16.1912922 -8.73523956 9.46222407 -2 1 C-1.34 0.67 -0.68 0.34 0 0 Z " fill="#F1D6A2" transform="translate(191,168)"/>
<path d="M0 0 C1.86122475 3.12343464 2.1853192 5.0383026 1.6875 8.625 C1.58824219 9.40101563 1.48898438 10.17703125 1.38671875 10.9765625 C1 13 1 13 0 15 C-0.66 15 -1.32 15 -2 15 C-2.33 15.99 -2.66 16.98 -3 18 C-5.5625 19.1875 -5.5625 19.1875 -8 20 C-7.34 18.68 -6.68 17.36 -6 16 C-5.01 16 -4.02 16 -3 16 C-3.33 15.05125 -3.66 14.1025 -4 13.125 C-5 10 -5 10 -5 8 C-3.68 7.67 -2.36 7.34 -1 7 C-0.67 4.69 -0.34 2.38 0 0 Z " fill="#EFDFC7" transform="translate(229,191)"/>
<path d="M0 0 C4.62 0 9.24 0 14 0 C14 1.98 14 3.96 14 6 C12.2578125 6.65234375 12.2578125 6.65234375 10 7 C7.9296875 6.00390625 7.9296875 6.00390625 5.875 4.5625 C3.18167093 2.52846028 3.18167093 2.52846028 0 2 C0 1.34 0 0.68 0 0 Z " fill="#E9D6C2" transform="translate(208,138)"/>
<path d="M0 0 C3.53508103 0.29459009 4.76203444 0.74881413 7.25 3.375 C9.85676575 7.28514863 10.11656078 10.09233389 10.0625 14.6875 C10.05347656 15.68136719 10.04445312 16.67523438 10.03515625 17.69921875 C10.02355469 18.45847656 10.01195312 19.21773437 10 20 C9.67 20 9.34 20 9 20 C8.34 15.71 7.68 11.42 7 7 C6.34 7 5.68 7 5 7 C4.34 7.66 3.68 8.32 3 9 C0.90250005 6.64031256 0.03094296 5.45383006 -0.1875 2.25 C-0.125625 1.5075 -0.06375 0.765 0 0 Z " fill="#2C2725" transform="translate(153,178)"/>
<path d="M0 0 C0.33 0.99 0.66 1.98 1 3 C1.66 3.33 2.32 3.66 3 4 C0.72942623 4.05398987 -1.54151288 4.09278742 -3.8125 4.125 C-5.70935547 4.15980469 -5.70935547 4.15980469 -7.64453125 4.1953125 C-11 4 -11 4 -14 2 C-9.32380218 -1.77112727 -5.55498905 -1.00449693 0 0 Z " fill="#E7D4C2" transform="translate(217,157)"/>
<path d="M0 0 C1.21236328 0.01353516 1.21236328 0.01353516 2.44921875 0.02734375 C3.37154297 0.04474609 3.37154297 0.04474609 4.3125 0.0625 C4.6425 0.7225 4.9725 1.3825 5.3125 2.0625 C3.29869929 4.7870539 2.24815126 5.07399085 -1.1875 5.6875 C-2.3425 5.81125 -3.4975 5.935 -4.6875 6.0625 C-5.6775 6.3925 -6.6675 6.7225 -7.6875 7.0625 C-7.0275 5.4125 -6.3675 3.7625 -5.6875 2.0625 C-6.3475 1.7325 -7.0075 1.4025 -7.6875 1.0625 C-4.80538698 0.10179566 -2.98899956 -0.04331883 0 0 Z " fill="#F0E6DA" transform="translate(210.6875,168.9375)"/>
<path d="M0 0 C2.64 0 5.28 0 8 0 C8.33 2.31 8.66 4.62 9 7 C8.34 7 7.68 7 7 7 C7 6.01 7 5.02 7 4 C6.01 4 5.02 4 4 4 C4 4.66 4 5.32 4 6 C1.69 6 -0.62 6 -3 6 C-2.01 4.02 -1.02 2.04 0 0 Z " fill="#A49990" transform="translate(233,285)"/>
<path d="M0 0 C0 0.33 0 0.66 0 1 C-2.31 1.33 -4.62 1.66 -7 2 C-7 2.66 -7 3.32 -7 4 C-8.09152728 4.91641595 -9.22420455 5.78421475 -10.375 6.625 C-14.51784816 10.00623365 -15.19345579 12.80227068 -16 18 C-16.33 18 -16.66 18 -17 18 C-17.315109 12.7481833 -16.8689708 9.45185123 -14 5 C-9.11001539 0.58708706 -6.55755141 -0.12143614 0 0 Z " fill="#B6AAA0" transform="translate(149,180)"/>
<path d="M0 0 C4.8333472 -0.08333357 9.23692563 0.04738513 14 1 C12.68 1.33 11.36 1.66 10 2 C10 2.99 10 3.98 10 5 C6.37 5 2.74 5 -1 5 C-1 2 -1 2 0 0 Z " fill="#B0A8A3" transform="translate(207,152)"/>
<path d="M0 0 C12.59674369 -0.48866678 25.69774854 -0.21710905 37 6 C36.67 6.66 36.34 7.32 36 8 C35.34 8 34.68 8 34 8 C34 7.34 34 6.68 34 6 C22.79772328 2.88248329 11.55309634 1.91264709 0 1 C0 0.67 0 0.34 0 0 Z " fill="#B07644" transform="translate(218,120)"/>
<path d="M0 0 C-0.98828125 2.015625 -0.98828125 2.015625 -3 4 C-5.89480289 4.13117541 -8.34153404 4.06318053 -11.1875 3.75 C-12.31188477 3.65138672 -12.31188477 3.65138672 -13.45898438 3.55078125 C-15.30775601 3.38592263 -17.15420773 3.19541184 -19 3 C-18.67 2.01 -18.34 1.02 -18 0 C-17.09507812 0.14308594 -17.09507812 0.14308594 -16.171875 0.2890625 C-15.37265625 0.39992188 -14.5734375 0.51078125 -13.75 0.625 C-12.96109375 0.74101563 -12.1721875 0.85703125 -11.359375 0.9765625 C-6.75506827 1.02230065 -4.90342293 -1.36206193 0 0 Z " fill="#887D71" transform="translate(244,117)"/>
<path d="M0 0 C1.22589844 0.01353516 1.22589844 0.01353516 2.4765625 0.02734375 C3.41628906 0.04474609 3.41628906 0.04474609 4.375 0.0625 C4.78878906 1.02929688 4.78878906 1.02929688 5.2109375 2.015625 C6.22257889 4.35020472 6.22257889 4.35020472 9 4.8125 C9.78375 4.895 10.5675 4.9775 11.375 5.0625 C11.375 5.7225 11.375 6.3825 11.375 7.0625 C8.625 7.3125 8.625 7.3125 5.375 7.0625 C4.75625 6.4025 4.1375 5.7425 3.5 5.0625 C1.02126344 2.72957147 0.39692291 2.78953914 -2.875 2.8125 C-4.1125 2.895 -5.35 2.9775 -6.625 3.0625 C-6.625 2.4025 -6.625 1.7425 -6.625 1.0625 C-4.21954362 -0.14022819 -2.67503047 -0.03821472 0 0 Z " fill="#D3BA95" transform="translate(246.625,268.9375)"/>
<path d="M0 0 C1.27230469 0.00902344 2.54460937 0.01804688 3.85546875 0.02734375 C5.31919922 0.04474609 5.31919922 0.04474609 6.8125 0.0625 C6.8125 0.7225 6.8125 1.3825 6.8125 2.0625 C8.2046875 2.248125 8.2046875 2.248125 9.625 2.4375 C12.8125 3.0625 12.8125 3.0625 15.8125 5.0625 C13.8125 6.0625 13.8125 6.0625 12 5.5390625 C11.278125 5.25804687 10.55625 4.97703125 9.8125 4.6875 C2.89336723 2.25856128 -3.98150583 1.35581717 -11.1875 3.0625 C-9.07664535 -1.15920929 -4.12352068 -0.03783046 0 0 Z " fill="#EECD91" transform="translate(212.1875,160.9375)"/>
<path d="M0 0 C2.97 0 5.94 0 9 0 C9 0.33 9 0.66 9 1 C6.69 1 4.38 1 2 1 C2 1.66 2 2.32 2 3 C6.95 3 11.9 3 17 3 C17 3.33 17 3.66 17 4 C10.90660831 5.88341198 6.27467799 6.0748291 0 5 C0 3.35 0 1.7 0 0 Z " fill="#E9B636" transform="translate(205,214)"/>
<path d="M0 0 C-0.33 2.97 -0.66 5.94 -1 9 C-1.886875 8.525625 -2.77375 8.05125 -3.6875 7.5625 C-6.57042756 6.20262851 -8.87610623 5.45939614 -12 5 C-11.443125 4.731875 -10.88625 4.46375 -10.3125 4.1875 C-7.9160243 3.00101623 -7.9160243 3.00101623 -5.4375 1.375 C-3 0 -3 0 0 0 Z " fill="#A09389" transform="translate(113,113)"/>
<path d="M0 0 C3.98041503 3.98041503 4.12383175 9.12129116 4.1953125 14.49609375 C4.18215261 16.47665746 4.1584993 18.45717589 4.125 20.4375 C4.11597656 21.45521484 4.10695313 22.47292969 4.09765625 23.52148438 C4.07424698 26.01457156 4.041457 28.50715859 4 31 C3.67 31 3.34 31 3 31 C2.67 23.41 2.34 15.82 2 8 C1.01 7.67 0.02 7.34 -1 7 C-0.67 5.68 -0.34 4.36 0 3 C-0.66 3 -1.32 3 -2 3 C-2 2.34 -2 1.68 -2 1 C-1.34 0.67 -0.68 0.34 0 0 Z " fill="#E3D1C2" transform="translate(284,201)"/>
<path d="M0 0 C0.7425 0.0825 1.485 0.165 2.25 0.25 C2.58 2.23 2.91 4.21 3.25 6.25 C2.26 6.25 1.27 6.25 0.25 6.25 C0.25 8.23 0.25 10.21 0.25 12.25 C-0.41 11.92 -1.07 11.59 -1.75 11.25 C-1.75 8.94 -1.75 6.63 -1.75 4.25 C-3.4 4.25 -5.05 4.25 -6.75 4.25 C-3.42692308 0.31153846 -3.42692308 0.31153846 0 0 Z " fill="#80786F" transform="translate(242.75,280.75)"/>
<path d="M0 0 C7.92 0 15.84 0 24 0 C24 0.99 24 1.98 24 3 C20.7 3 17.4 3 14 3 C14 2.67 14 2.34 14 2 C7.07 1.505 7.07 1.505 0 1 C0 0.67 0 0.34 0 0 Z " fill="#E5D8CB" transform="translate(134,137)"/>
<path d="M0 0 C1.98 0 3.96 0 6 0 C6 1.98 6 3.96 6 6 C4.35 6.33 2.7 6.66 1 7 C0.67 4.69 0.34 2.38 0 0 Z " fill="#E8C173" transform="translate(246,344)"/>
<path d="M0 0 C5.36891879 0.49869404 10.69235173 1.02227532 16 2 C12.52311757 4.11096433 12.52311757 4.11096433 9.9375 3.5625 C9.298125 3.376875 8.65875 3.19125 8 3 C7.01 3.33 6.02 3.66 5 4 C2.3125 3.5625 2.3125 3.5625 0 3 C0 2.01 0 1.02 0 0 Z " fill="#8B8178" transform="translate(248,117)"/>
<path d="M0 0 C-3.59576308 3.27848987 -6.11321498 4.68129663 -11 5 C-11.99 4.67 -12.98 4.34 -14 4 C-15.33106622 3.65772583 -16.66400079 3.32248257 -18 3 C-16.12743583 2.49095343 -14.25180659 1.99317545 -12.375 1.5 C-11.33085938 1.2215625 -10.28671875 0.943125 -9.2109375 0.65625 C-6.04312582 0.00881404 -3.22258533 -0.1161292 0 0 Z " fill="#B6A99F" transform="translate(110,113)"/>
<path d="M0 0 C7.74136601 -0.10920422 15.31395526 0.02840067 23 1 C20.75 3.0625 20.75 3.0625 18 5 C15.6875 4.75 15.6875 4.75 14 4 C14.66 4 15.32 4 16 4 C16 3.34 16 2.68 16 2 C10.72 1.67 5.44 1.34 0 1 C0 0.67 0 0.34 0 0 Z " fill="#AFA59D" transform="translate(190,111)"/>
<path d="M0 0 C0.33 0 0.66 0 1 0 C1.12375 0.969375 1.2475 1.93875 1.375 2.9375 C1.58125 3.948125 1.7875 4.95875 2 6 C2.66 6.33 3.32 6.66 4 7 C3.67 11.95 3.34 16.9 3 22 C2.67 22 2.34 22 2 22 C1.66076424 19.64655194 1.32849466 17.2924516 1 14.9375 C0.85691406 13.95233398 0.85691406 13.95233398 0.7109375 12.94726562 C0.11112326 8.59861237 -0.09127093 4.38670929 0 0 Z " fill="#0F090A" transform="translate(247,309)"/>
<path d="M0 0 C0.99 0 1.98 0 3 0 C3 3.63 3 7.26 3 11 C2.01 11.33 1.02 11.66 0 12 C0 8.04 0 4.08 0 0 Z " fill="#1C1717" transform="translate(251,326)"/>
<path d="M0 0 C2.0625 0.4375 2.0625 0.4375 4 1 C4 2.65 4 4.3 4 6 C0.7 5.67 -2.6 5.34 -6 5 C-4.68 4.34 -3.36 3.68 -2 3 C-1.67 2.34 -1.34 1.68 -1 1 C-0.67 0.67 -0.34 0.34 0 0 Z " fill="#E2D1C1" transform="translate(216,147)"/>
<path d="M0 0 C3.63 0.66 7.26 1.32 11 2 C10.34 3.98 9.68 5.96 9 8 C6.093479 6.6970768 4.19164592 5.29126619 2 3 C1.34 2.67 0.68 2.34 0 2 C0 1.34 0 0.68 0 0 Z " fill="#DDD5CB" transform="translate(145,101)"/>
<path d="M0 0 C0.33 0.66 0.66 1.32 1 2 C1.66 2 2.32 2 3 2 C2.67 5.3 2.34 8.6 2 12 C1.01 11.34 0.02 10.68 -1 10 C-1.27028374 6.28359861 -1.180933 3.542799 0 0 Z " fill="#F2E8DC" transform="translate(190,184)"/>
<path d="M0 0 C1.9375 0.375 1.9375 0.375 4 1 C5.20272819 3.40545638 5.10071472 4.94996953 5.0625 7.625 C5.05347656 8.44226563 5.04445312 9.25953125 5.03515625 10.1015625 C5.02355469 10.72804688 5.01195312 11.35453125 5 12 C4.34 12 3.68 12 3 12 C3 9.69 3 7.38 3 5 C2.34 4.67 1.68 4.34 1 4 C1.33 3.34 1.66 2.68 2 2 C1.34 2 0.68 2 0 2 C0 1.34 0 0.68 0 0 Z " fill="#EFB10C" transform="translate(246,273)"/>
<path d="M0 0 C1.32 0.66 2.64 1.32 4 2 C3.67 4.31 3.34 6.62 3 9 C2.67 9 2.34 9 2 9 C2 7.02 2 5.04 2 3 C-2.455 3.495 -2.455 3.495 -7 4 C-7.33 3.01 -7.66 2.02 -8 1 C-6.576875 1.309375 -6.576875 1.309375 -5.125 1.625 C-4.09375 1.74875 -3.0625 1.8725 -2 2 C-1.34 1.34 -0.68 0.68 0 0 Z " fill="#AB7649" transform="translate(244,276)"/>
<path d="M0 0 C0.66 0.66 1.32 1.32 2 2 C1.625 5.625 1.625 5.625 1 9 C0.01 9.33 -0.98 9.66 -2 10 C-2.25 3.375 -2.25 3.375 0 0 Z " fill="#EFB20E" transform="translate(187,178)"/>
<path d="M0 0 C0.99386719 0.00902344 1.98773438 0.01804687 3.01171875 0.02734375 C4.15060547 0.04474609 4.15060547 0.04474609 5.3125 0.0625 C5.3125 0.3925 5.3125 0.7225 5.3125 1.0625 C0.8575 1.5575 0.8575 1.5575 -3.6875 2.0625 C-4.0175 4.0425 -4.3475 6.0225 -4.6875 8.0625 C-5.3475 8.0625 -6.0075 8.0625 -6.6875 8.0625 C-6.6875 6.0825 -6.6875 4.1025 -6.6875 2.0625 C-7.3475 1.7325 -8.0075 1.4025 -8.6875 1.0625 C-5.53819107 0.01273036 -3.29935544 -0.03881595 0 0 Z " fill="#EFE6DC" transform="translate(262.6875,283.9375)"/>
<path d="M0 0 C1.5 1.375 1.5 1.375 3 3 C3 3.66 3 4.32 3 5 C3.99 5.33 4.98 5.66 6 6 C6 6.66 6 7.32 6 8 C7.65 8.33 9.3 8.66 11 9 C10.67 9.99 10.34 10.98 10 12 C10 11.34 10 10.68 10 10 C8.35 9.67 6.7 9.34 5 9 C5 8.34 5 7.68 5 7 C3.68 6.67 2.36 6.34 1 6 C0.67 4.02 0.34 2.04 0 0 Z " fill="#ECCB8D" transform="translate(186,205)"/>
<path d="M0 0 C0 0.33 0 0.66 0 1 C-1.65 1 -3.3 1 -5 1 C-3.35 1.33 -1.7 1.66 0 2 C-1 3.5625 -1 3.5625 -3 5 C-5.76614782 4.96726452 -8.26030547 4.49404328 -11 4 C-7.26280719 0.48264206 -5.13496308 -0.47767098 0 0 Z " fill="#D3C3B5" transform="translate(214,156)"/>
<path d="M0 0 C1.1446875 0.0928125 1.1446875 0.0928125 2.3125 0.1875 C2.3125 0.8475 2.3125 1.5075 2.3125 2.1875 C-1.3175 3.5075 -4.9475 4.8275 -8.6875 6.1875 C-9.0175 4.8675 -9.3475 3.5475 -9.6875 2.1875 C-9.089375 2.414375 -8.49125 2.64125 -7.875 2.875 C-7.153125 2.978125 -6.43125 3.08125 -5.6875 3.1875 C-5.213125 2.713125 -4.73875 2.23875 -4.25 1.75 C-2.6875 0.1875 -2.6875 0.1875 0 0 Z " fill="#E8DBCF" transform="translate(86.6875,125.8125)"/>
<path d="M0 0 C6.0018137 -0.21824777 11.19233704 0.4943096 17 2 C17 2.33 17 2.66 17 3 C5.47835991 3.3690205 5.47835991 3.3690205 0 1 C0 0.67 0 0.34 0 0 Z " fill="#E66614" transform="translate(231,122)"/>
<path d="M0 0 C2.64 0.66 5.28 1.32 8 2 C7.67 2.99 7.34 3.98 7 5 C4.69 5 2.38 5 0 5 C0 3.35 0 1.7 0 0 Z " fill="#7E756A" transform="translate(172,237)"/>
<path d="M0 0 C2.29109597 -0.08075665 4.58299267 -0.13907731 6.875 -0.1875 C8.78925781 -0.23970703 8.78925781 -0.23970703 10.7421875 -0.29296875 C11.81726563 -0.19628906 12.89234375 -0.09960938 14 0 C14.66 0.99 15.32 1.98 16 3 C10.72 2.34 5.44 1.68 0 1 C0 0.67 0 0.34 0 0 Z " fill="#ECE1D6" transform="translate(114,299)"/>
<path d="M0 0 C0.99 0.33 1.98 0.66 3 1 C2.67 4.3 2.34 7.6 2 11 C1.67 11 1.34 11 1 11 C1 9.02 1 7.04 1 5 C-0.32 4.67 -1.64 4.34 -3 4 C-2.34 4 -1.68 4 -1 4 C-0.67 2.68 -0.34 1.36 0 0 Z " fill="#58514E" transform="translate(259,288)"/>
<path d="M0 0 C0.66 0 1.32 0 2 0 C2 3.96 2 7.92 2 12 C1.67 12 1.34 12 1 12 C1 10.35 1 8.7 1 7 C0.34 6.67 -0.32 6.34 -1 6 C-1.33 5.01 -1.66 4.02 -2 3 C-1.34 2.01 -0.68 1.02 0 0 Z " fill="#E2D3C5" transform="translate(261,150)"/>
<path d="M0 0 C0.66 0.33 1.32 0.66 2 1 C1.67 2.65 1.34 4.3 1 6 C0.01 6 -0.98 6 -2 6 C-2 5.34 -2 4.68 -2 4 C-4.31 4 -6.62 4 -9 4 C-9 3.67 -9 3.34 -9 3 C-7.88625 2.87625 -6.7725 2.7525 -5.625 2.625 C-1.96896323 2.3534187 -1.96896323 2.3534187 0 0 Z " fill="#A49F9D" transform="translate(231,151)"/>
<path d="M0 0 C2.97 0.495 2.97 0.495 6 1 C6 1.66 6 2.32 6 3 C8.31 3.33 10.62 3.66 13 4 C13 4.33 13 4.66 13 5 C4.87371744 5.46882399 4.87371744 5.46882399 1.4375 3.625 C0 2 0 2 0 0 Z " fill="#978D83" transform="translate(167,238)"/>
<path d="M0 0 C1.32 0 2.64 0 4 0 C4 0.99 4 1.98 4 3 C5.32 3.33 6.64 3.66 8 4 C3.70700357 5.26264601 1.12168689 4.62950412 -3 3 C-2.01 2.67 -1.02 2.34 0 2 C0 1.34 0 0.68 0 0 Z " fill="#7C7368" transform="translate(248,120)"/>
<path d="M0 0 C1.125 1.625 1.125 1.625 2 4 C1.16933916 7.46108684 0.52986895 9.47013105 -2 12 C-1.85831863 10.56208484 -1.71148957 9.1246763 -1.5625 7.6875 C-1.48128906 6.88699219 -1.40007813 6.08648437 -1.31640625 5.26171875 C-1 3 -1 3 0 0 Z " fill="#EDE3D8" transform="translate(63,210)"/>
<path d="M0 0 C-3.90028225 2.60018816 -7.47434569 2.15085514 -12 2 C-8.01065739 -1.98934261 -5.01325969 -2.57824784 0 0 Z " fill="#E4D4C5" transform="translate(238,299)"/>
<path d="M0 0 C0.33 0 0.66 0 1 0 C1.33 4.29 1.66 8.58 2 13 C-1 10 -1 10 -1.07421875 7.51953125 C-0.94660156 6.62621094 -0.81898438 5.73289063 -0.6875 4.8125 C-0.56761719 3.91144531 -0.44773438 3.01039063 -0.32421875 2.08203125 C-0.21722656 1.39496094 -0.11023438 0.70789063 0 0 Z " fill="#F0CD8F" transform="translate(182,188)"/>
<path d="M0 0 C1.2065625 0.0309375 1.2065625 0.0309375 2.4375 0.0625 C1.509375 0.4646875 1.509375 0.4646875 0.5625 0.875 C-1.8620233 2.01806848 -1.8620233 2.01806848 -3.5625 5.0625 C-6.2025 4.7325 -8.8425 4.4025 -11.5625 4.0625 C-11.5625 3.7325 -11.5625 3.4025 -11.5625 3.0625 C-10.99660156 2.92972656 -10.43070312 2.79695312 -9.84765625 2.66015625 C-8.74744141 2.39525391 -8.74744141 2.39525391 -7.625 2.125 C-6.89410156 1.95097656 -6.16320312 1.77695313 -5.41015625 1.59765625 C-2.79322939 0.83968801 -2.95803984 0.07214731 0 0 Z " fill="#CFC2B8" transform="translate(112.5625,133.9375)"/>
<path d="M0 0 C0.33 0 0.66 0 1 0 C1 3.63 1 7.26 1 11 C0.01 11 -0.98 11 -2 11 C-2 9.35 -2 7.7 -2 6 C-1.67 6 -1.34 6 -1 6 C-0.67 4.02 -0.34 2.04 0 0 Z " fill="#332E2E" transform="translate(250,326)"/>
<path d="M0 0 C1.2380014 3.57644848 0.74926071 6.33694766 0 10 C-0.33 8.68 -0.66 7.36 -1 6 C-1.66 6 -2.32 6 -3 6 C-2.42655063 3.13275314 -2.1385485 2.1385485 0 0 Z " fill="#35302F" transform="translate(256,317)"/>
<path d="M0 0 C0.99 0.99 1.98 1.98 3 3 C2.01 3 1.02 3 0 3 C0 2.01 0 1.02 0 0 Z M-1 3 C-0.01 3.66 0.98 4.32 2 5 C-1.21451269 6.60725635 -4.43612536 6.05748185 -8 6 C-8 5.67 -8 5.34 -8 5 C-4.6875 3.875 -4.6875 3.875 -1 3 Z " fill="#D2C1B4" transform="translate(194,298)"/>
<path d="M0 0 C0.99 0 1.98 0 3 0 C3.33 0.99 3.66 1.98 4 3 C4.66 3.66 5.32 4.32 6 5 C2.7 5 -0.6 5 -4 5 C-2.68 4.34 -1.36 3.68 0 3 C0 2.01 0 1.02 0 0 Z " fill="#E3D1C1" transform="translate(209,298)"/>
<path d="M0 0 C0 0.99 0 1.98 0 3 C-0.99 3 -1.98 3 -3 3 C-3 4.98 -3 6.96 -3 9 C-3.66 8.67 -4.32 8.34 -5 8 C-5 5.69 -5 3.38 -5 1 C-3 0 -3 0 0 0 Z " fill="#8E857C" transform="translate(246,284)"/>
<path d="M0 0 C0.66 0 1.32 0 2 0 C2 1.65 2 3.3 2 5 C1.34 5 0.68 5 0 5 C0 5.66 0 6.32 0 7 C-0.66 7 -1.32 7 -2 7 C-1.125 1.125 -1.125 1.125 0 0 Z " fill="#E7C99C" transform="translate(237,202)"/>
<path d="M0 0 C2.64 0.33 5.28 0.66 8 1 C5 3 5 3 3 3 C3 3.66 3 4.32 3 5 C2.34 5 1.68 5 1 5 C0.67 3.35 0.34 1.7 0 0 Z " fill="#A9A39F" transform="translate(301,166)"/>
<path d="M0 0 C0.93423645 3.01031744 1.04449911 3.86650268 0 7 C-2.31 6.67 -4.62 6.34 -7 6 C-5 5 -3 4 -1 3 C-0.67 2.01 -0.34 1.02 0 0 Z " fill="#998E84" transform="translate(180,232)"/>
<path d="M0 0 C0.33 0 0.66 0 1 0 C1.33 3.3 1.66 6.6 2 10 C1.01 9.01 0.02 8.02 -1 7 C-0.6875 3.3125 -0.6875 3.3125 0 0 Z " fill="#F0B10A" transform="translate(185,189)"/>
<path d="M0 0 C2.64 0.66 5.28 1.32 8 2 C7.01 2.66 6.02 3.32 5 4 C1.8125 3.125 1.8125 3.125 -1 2 C-0.67 1.34 -0.34 0.68 0 0 Z " fill="#E0CBB9" transform="translate(213,139)"/>
<path d="M0 0 C0.99 0 1.98 0 3 0 C2.67 1.98 2.34 3.96 2 6 C3.65 6 5.3 6 7 6 C7 6.33 7 6.66 7 7 C5.02 7 3.04 7 1 7 C0.67 4.69 0.34 2.38 0 0 Z " fill="#6E6358" transform="translate(245,337)"/>
<path d="M0 0 C-1 2 -1 2 -4 4 C-4.99 4 -5.98 4 -7 4 C-7 3.01 -7 2.02 -7 1 C-4 0 -4 0 0 0 Z " fill="#B0A9A4" transform="translate(215,289)"/>
<path d="M0 0 C0.66 0 1.32 0 2 0 C3.38232443 1.62626404 4.71937515 3.2925002 6 5 C3.69 5 1.38 5 -1 5 C-1 4.34 -1 3.68 -1 3 C-0.34 3 0.32 3 1 3 C0.67 2.01 0.34 1.02 0 0 Z " fill="#A1958C" transform="translate(216,286)"/>
<path d="M0 0 C-3.51187196 2.40814077 -5.72656908 3.36629408 -10 3 C-4.375 -1.3125 -4.375 -1.3125 0 0 Z " fill="#EAB628" transform="translate(204,165)"/>
<path d="M0 0 C1.67542976 0.28604898 3.34385343 0.61781233 5 1 C4.67 1.66 4.34 2.32 4 3 C1.4375 3.625 1.4375 3.625 -1 4 C-1 1 -1 1 0 0 Z " fill="#9E9996" transform="translate(207,153)"/>
</svg>
