<?xml version="1.0" encoding="UTF-8"?>
<svg version="1.1" xmlns="http://www.w3.org/2000/svg" width="360" height="360">
<path d="M0 0 C6.19619397 2.07986309 12.49509178 1.98159752 18.96089172 2.03524399 C21.28147627 2.05572066 23.60103263 2.09590007 25.92126465 2.14089966 C32.51454891 2.26530213 39.10816231 2.35586568 45.70214844 2.43359375 C63.0826585 2.64872776 80.20184955 3.18882739 97.40722656 5.82080078 C98.07599319 5.92139675 98.74475983 6.02199272 99.43379211 6.12563705 C126.03314433 10.22015605 126.03314433 10.22015605 134.31347656 18.50048828 C134.91995767 21.41159759 135.13763225 22.70983453 134.31347656 25.50048828 C132.22254474 27.94574119 129.93666414 30.05524498 127.57519531 32.23876953 C124.48064161 35.33332323 122.84023985 38.44317811 121.31347656 42.50048828 C120.90097656 43.55236328 120.48847656 44.60423828 120.06347656 45.68798828 C118.34682549 54.41429791 118.50992246 62.41793582 122.31347656 70.50048828 C123.20550781 70.15115234 124.09753906 69.80181641 125.01660156 69.44189453 C126.18707031 68.98685547 127.35753906 68.53181641 128.56347656 68.06298828 C129.72363281 67.61052734 130.88378906 67.15806641 132.07910156 66.69189453 C143.88568659 62.34285053 157.5808641 63.69879061 169.03222656 68.68408203 C180.04303044 74.68225143 186.45532714 83.75380119 190.31347656 95.50048828 C194.60527562 110.36746657 191.2752439 126.85277728 184.56347656 140.31298828 C179.22115747 149.55775709 170.79678741 157.2486814 160.69482422 160.94018555 C156.09233629 162.02309613 151.42996674 161.36008495 146.75097656 161.06298828 C139.08314249 160.62845356 139.08314249 160.62845356 132.29394531 163.60986328 C130.5038491 166.21775082 129.30431007 168.50439649 128.31347656 171.50048828 C127.98347656 172.49048828 127.65347656 173.48048828 127.31347656 174.50048828 C128.63347656 175.16048828 129.95347656 175.82048828 131.31347656 176.50048828 C131.50097656 178.87548828 131.50097656 178.87548828 131.31347656 181.50048828 C127.77377587 183.86028874 125.32241369 184.08649636 121.12597656 184.62548828 C119.85367188 184.79306641 118.58136719 184.96064453 117.27050781 185.13330078 C116.2946875 185.25447266 115.31886719 185.37564453 114.31347656 185.50048828 C115.1468099 187.66715495 115.1468099 187.66715495 117.31347656 188.50048828 C116.72956665 195.36838376 115.77103996 202.08342378 114.50097656 208.85595703 C114.32719482 209.80183182 114.15341309 210.7477066 113.97436523 211.72224426 C113.42453562 214.71154161 112.86930593 217.69980127 112.31347656 220.68798828 C111.75858608 223.68705074 111.20486676 226.68632283 110.65258789 229.68586731 C110.31040072 231.54270266 109.96657966 233.39923792 109.62084961 235.25541687 C108.7444614 239.99377043 107.95529418 244.72453863 107.31347656 249.50048828 C105.65732999 249.88267595 103.98890632 250.2144393 102.31347656 250.50048828 C100.42084581 248.60785752 100.8117466 245.21785993 100.56347656 242.68798828 C99.66784136 234.28732233 98.24841908 226.00028956 96.75097656 217.68798828 C96.41791504 215.83693481 96.41791504 215.83693481 96.078125 213.94848633 C94.86960115 207.18705225 94.86960115 207.18705225 93.31347656 200.50048828 C89.66748346 200.81114154 86.02171422 201.12435252 82.37597656 201.43798828 C81.35439453 201.525 80.3328125 201.61201172 79.28027344 201.70166016 C74.67856074 202.09861301 70.08723443 202.51400128 65.50097656 203.06298828 C61.73776575 203.49434446 58.042004 203.60289383 54.25097656 203.56298828 C52.56294922 203.54945313 52.56294922 203.54945313 50.84082031 203.53564453 C50.00679687 203.52404297 49.17277344 203.51244141 48.31347656 203.50048828 C48.38566406 204.57041016 48.45785156 205.64033203 48.53222656 206.74267578 C49.15480355 216.70612323 49.42194555 226.64213654 49.43847656 236.62548828 C49.44524414 238.35968018 49.44524414 238.35968018 49.45214844 240.12890625 C49.45021484 241.20285645 49.44828125 242.27680664 49.44628906 243.38330078 C49.44516113 244.3463916 49.4440332 245.30948242 49.44287109 246.30175781 C49.31347656 248.50048828 49.31347656 248.50048828 48.31347656 249.50048828 C45.48931274 249.62711919 42.70052863 249.68569376 39.87597656 249.68798828 C39.08642578 249.70023438 38.296875 249.71248047 37.48339844 249.72509766 C35.42540222 249.73036107 33.36785647 249.62255114 31.31347656 249.50048828 C30.65347656 248.84048828 29.99347656 248.18048828 29.31347656 247.50048828 C29.64347656 245.85048828 29.97347656 244.20048828 30.31347656 242.50048828 C35.75847656 241.51048828 35.75847656 241.51048828 41.31347656 240.50048828 C40.98347656 228.29048828 40.65347656 216.08048828 40.31347656 203.50048828 C34.37347656 203.83048828 28.43347656 204.16048828 22.31347656 204.50048828 C22.31347656 219.02048828 22.31347656 233.54048828 22.31347656 248.50048828 C17.08191931 250.2443407 14.78522884 250.74847059 9.56347656 250.37548828 C8.43425781 250.31103516 7.30503906 250.24658203 6.14160156 250.18017578 C3.31347656 249.50048828 3.31347656 249.50048828 1.92285156 247.44580078 C1.72175781 246.80384766 1.52066406 246.16189453 1.31347656 245.50048828 C3.31347656 242.50048828 3.31347656 242.50048828 5.69628906 241.98876953 C7.05367187 241.90175781 7.05367187 241.90175781 8.43847656 241.81298828 C9.34855469 241.74724609 10.25863281 241.68150391 11.19628906 241.61376953 C12.24429688 241.55769531 12.24429688 241.55769531 13.31347656 241.50048828 C13.34322677 237.95884019 13.3605201 234.4172253 13.37597656 230.87548828 C13.38854492 229.40595703 13.38854492 229.40595703 13.40136719 227.90673828 C13.42681943 220.06744621 12.95728106 212.31178926 12.31347656 204.50048828 C10.65916626 204.35015137 10.65916626 204.35015137 8.97143555 204.19677734 C4.80462425 203.81461409 0.63959505 203.41527536 -3.52514648 203.01123047 C-5.31377931 202.8400142 -7.10284062 202.67320548 -8.89233398 202.51123047 C-38.35164832 199.8353634 -38.35164832 199.8353634 -43.68652344 194.50048828 C-43.88183594 192.33642578 -43.88183594 192.33642578 -43.81152344 189.87548828 C-43.79347656 189.05822266 -43.77542969 188.24095703 -43.75683594 187.39892578 C-43.73363281 186.77244141 -43.71042969 186.14595703 -43.68652344 185.50048828 C-44.55277344 185.23880859 -45.41902344 184.97712891 -46.31152344 184.70751953 C-54.0917626 181.92500344 -61.74810117 177.27395437 -67.68652344 171.50048828 C-67.68652344 170.84048828 -67.68652344 170.18048828 -67.68652344 169.50048828 C-68.34652344 169.50048828 -69.00652344 169.50048828 -69.68652344 169.50048828 C-81.20733166 157.70939717 -84.88640038 139.5874736 -84.80419922 123.63330078 C-84.27487033 114.03948915 -80.59482846 99.40879331 -73.68652344 92.50048828 C-73.92925435 87.6099098 -76.62220225 83.64333759 -78.99902344 79.50048828 C-79.43327637 78.72737305 -79.8675293 77.95425781 -80.31494141 77.15771484 C-82.83107144 72.69387102 -85.40776078 68.26893512 -88.01855469 63.85986328 C-88.84069458 62.45800781 -88.84069458 62.45800781 -89.67944336 61.02783203 C-90.75008921 59.20589228 -91.83194783 57.3904856 -92.92602539 55.58251953 C-97.44279002 47.88229233 -97.44279002 47.88229233 -96.68652344 42.50048828 C-90.62466047 39.69407024 -84.46719525 37.18564116 -78.24902344 34.75048828 C-77.44352051 34.43265381 -76.63801758 34.11481934 -75.80810547 33.78735352 C-74.66704346 33.3437146 -74.66704346 33.3437146 -73.50292969 32.89111328 C-72.81658447 32.62331055 -72.13023926 32.35550781 -71.4230957 32.07958984 C-69.68652344 31.50048828 -69.68652344 31.50048828 -67.68652344 31.50048828 C-67.986875 30.83662109 -68.28722656 30.17275391 -68.59667969 29.48876953 C-68.97695312 28.60576172 -69.35722656 27.72275391 -69.74902344 26.81298828 C-70.131875 25.94287109 -70.51472656 25.07275391 -70.90917969 24.17626953 C-71.82174848 21.03501513 -71.8645535 19.55153686 -70.68652344 16.50048828 C-61.60354757 7.73454473 -47.88195522 6.34609226 -35.97680664 4.37573242 C-29.48590974 3.25387884 -24.42350181 1.74632238 -18.68652344 -1.49951172 C-12.6592629 -3.56146927 -5.75749265 -2.34188873 0 0 Z M-70.99902344 41.31298828 C-71.63775391 41.57402344 -72.27648437 41.83505859 -72.93457031 42.10400391 C-77.20509092 43.85634519 -81.44718857 45.67422889 -85.68652344 47.50048828 C-85.12152213 51.94680293 -83.42740183 54.83022378 -80.99902344 58.56298828 C-77.10225551 64.66492446 -73.79811516 70.95907387 -70.68652344 77.50048828 C-69.36652344 77.50048828 -68.04652344 77.50048828 -66.68652344 77.50048828 C-60.66322896 67.23126492 -56.48691591 54.49656358 -57.68652344 42.50048828 C-58.65175456 40.31880644 -58.65175456 40.31880644 -59.68652344 38.50048828 C-64.04220572 38.50048828 -67.07151111 39.66646924 -70.99902344 41.31298828 Z M141.31347656 78.50048828 C140.50490004 81.30890292 140.34227587 83.04767511 140.50097656 86.06298828 C140.31347656 89.50048828 140.31347656 89.50048828 138.31347656 91.43798828 C137.65347656 91.78861328 136.99347656 92.13923828 136.31347656 92.50048828 C137.17951903 95.2429561 138.0306958 97.92542621 139.30175781 100.51025391 C142.92043908 108.16211994 142.77858539 115.28588434 142.56347656 123.62548828 C142.54336249 124.97702404 142.52512046 126.32858902 142.50878906 127.68017578 C142.46201479 130.95437519 142.39647796 134.22704076 142.31347656 137.50048828 C144.23160156 137.68611328 144.23160156 137.68611328 146.18847656 137.87548828 C150.06347656 138.25048828 150.06347656 138.25048828 152.31347656 140.50048828 C152.71111919 142.48870141 153.05123005 144.48993167 153.31347656 146.50048828 C159.71812524 146.34037206 163.07550849 142.87407133 167.31347656 138.50048828 C175.11331532 129.84195168 178.71952698 119.53548839 178.52441406 107.92626953 C177.60228076 97.32173651 172.19443353 89.39632563 164.31347656 82.50048828 C158.52112326 79.12161552 153.63899725 78.365043 147.00097656 78.43798828 C145.93234375 78.44701172 144.86371094 78.45603516 143.76269531 78.46533203 C142.95445312 78.47693359 142.14621094 78.48853516 141.31347656 78.50048828 Z " fill="#E6D3BF" transform="translate(144.6865234375,100.49951171875)"/>
<path d="M0 0 C1.01309235 0.16050842 2.02618469 0.32101685 3.06997681 0.48638916 C6.71640058 0.96293667 10.20656414 1.16024157 13.88037109 1.21777344 C14.5306427 1.22939514 15.18091431 1.24101685 15.85089111 1.25299072 C17.25575371 1.27805355 18.6606471 1.30143681 20.0655632 1.32329559 C23.11205933 1.37307912 26.15814781 1.4389746 29.20435524 1.50378799 C34.84714871 1.62379605 40.48984959 1.73886392 46.13330078 1.82324219 C63.24579049 2.08620612 80.09985599 2.74658806 97.0390625 5.328125 C97.70927807 5.42848808 98.37949364 5.52885117 99.07001877 5.63225555 C125.71081911 9.71081911 125.71081911 9.71081911 134 18 C134.60648111 20.91110931 134.82415569 22.20934625 134 25 C131.90988057 27.44430284 129.62780616 29.54991066 127.26171875 31.7265625 C124.18866651 34.81553729 122.64205202 38.02674459 121 42 C120.34177939 43.33752303 119.67719954 44.67198532 119 46 C119 45.34 119 44.68 119 44 C118.46375 44.44472656 117.9275 44.88945312 117.375 45.34765625 C111.06271165 49.90537761 106.38477701 50.25170641 98.90649414 49.38134766 C93.41723531 48.81243835 89.9955984 49.69069574 85.11328125 52.0703125 C81.46556503 53.67503794 77.90455576 53.50264564 74.10546875 52.5 C69.60552886 51.43136863 64.29613852 50.9113925 60.0390625 52.9296875 C59.46929687 53.30351562 58.89953125 53.67734375 58.3125 54.0625 C54.22381147 56.45399706 52.5084989 56.16887008 48 55 C47.195625 54.62875 46.39125 54.2575 45.5625 53.875 C41.91993851 52.63119852 38.66082747 53.08298799 35 54 C33.96875 54.53625 32.9375 55.0725 31.875 55.625 C28.34462254 57.31344139 26.71718137 57.05050778 23 56 C22.37222656 55.65839844 21.74445313 55.31679687 21.09765625 54.96484375 C17.52314927 53.32070367 13.85933165 53.63211407 10 54 C8.33066942 54.6599679 6.6635479 55.32558869 5 56 C2.01458664 55.75629279 -0.26135947 55.40041293 -2.90234375 53.96875 C-5.27476221 52.87310795 -6.8998958 52.73219107 -9.5 52.75 C-10.2528125 52.74484375 -11.005625 52.7396875 -11.78125 52.734375 C-14.23591982 53.02824392 -15.82757322 53.86141154 -18 55 C-21.47954074 54.81191672 -23.00210936 53.99840626 -25.8125 51.875 C-29.77230238 49.40121617 -33.55854356 50.0876749 -38 50.5625 C-46.53272471 51.46695719 -46.53272471 51.46695719 -50.1875 48.5625 C-51.115625 47.716875 -52.04375 46.87125 -53 46 C-55.79643244 45.57696494 -55.79643244 45.57696494 -58 46 C-58.28875 44.88625 -58.5775 43.7725 -58.875 42.625 C-59.69241329 38.99708908 -59.69241329 38.99708908 -62 37 C-58.38026598 35.68373308 -55.90432869 35 -52 35 C-52 34.34 -52 33.68 -52 33 C-48.125 33.875 -48.125 33.875 -47 35 C-44.96618256 35.19965405 -44.96618256 35.19965405 -42.625 35.1875 C-41.83351563 35.20167969 -41.04203125 35.21585938 -40.2265625 35.23046875 C-37.71268667 35.14507509 -37.71268667 35.14507509 -35 33 C-32.51171875 32.98828125 -32.51171875 32.98828125 -29.6875 33.3125 C-28.76324219 33.41175781 -27.83898437 33.51101562 -26.88671875 33.61328125 C-24.97813621 33.86896416 -23.07487109 34.16854024 -21.18041992 34.51367188 C-16.00624409 35.30487156 -10.84991846 35.18445518 -5.625 35.1875 C-3.97757813 35.20586914 -3.97757813 35.20586914 -2.296875 35.22460938 C3.82550754 35.23562085 9.15658993 34.87574858 15 33 C15.33 32.67 15.66 32.34 16 32 C17.71260119 31.85766853 19.43085032 31.78275058 21.14868164 31.73461914 C22.25236588 31.70110855 23.35605011 31.66759796 24.49317932 31.6330719 C25.70328171 31.60075974 26.91338409 31.56844757 28.16015625 31.53515625 C30.73632984 31.45643629 33.31250165 31.37765818 35.88867188 31.29882812 C39.93798675 31.17974289 43.98740916 31.06461725 48.03686523 30.95043945 C80.9685059 30.14442564 80.9685059 30.14442564 113.5 25.375 C114.63179687 25.14554688 115.76359375 24.91609375 116.9296875 24.6796875 C119.6225757 24.13198142 122.31229215 23.57247916 125 23 C125 22.34 125 21.68 125 21 C111.03739406 16.82896729 96.93597011 14.60971673 82.4375 13.4375 C81.72152649 13.37685364 81.00555298 13.31620728 80.2678833 13.25372314 C64.11394924 11.89589185 47.92551931 11.24309133 31.72827148 10.64624023 C30.75092545 10.60950699 29.77357941 10.57277374 28.76661682 10.53492737 C26.9417333 10.46723076 25.11673366 10.40256067 23.29161072 10.34165955 C19.18504118 10.19094899 15.08727983 9.97708274 10.99267578 9.62548828 C10.26799103 9.56483185 9.54330627 9.50417542 8.79666138 9.44168091 C7 9 7 9 5.1875 6.5625 C4.5996875 5.2940625 4.5996875 5.2940625 4 4 C1.93299345 2.67206394 1.93299345 2.67206394 0 2 C0 1.34 0 0.68 0 0 Z " fill="#E6D5C2" transform="translate(145,101)"/>
<path d="M0 0 C1.9375 1.4375 1.9375 1.4375 3 3 C3 3.66 3 4.32 3 5 C4.60320974 5.19551338 6.20762986 5.38111983 7.8125 5.5625 C8.70582031 5.66691406 9.59914062 5.77132813 10.51953125 5.87890625 C13.13375572 6.15658709 13.13375572 6.15658709 16 5 C16.9360342 8.79267192 16.98276252 11.93674565 16.5625 15.8125 C16.46066406 16.78832031 16.35882813 17.76414062 16.25390625 18.76953125 C16.17011719 19.50558594 16.08632812 20.24164063 16 21 C18.31 21 20.62 21 23 21 C23 19.02 23 17.04 23 15 C23.99 15 24.98 15 26 15 C26 16.65 26 18.3 26 20 C26.66 20 27.32 20 28 20 C28.33 18.68 28.66 17.36 29 16 C29.99 16.33 30.98 16.66 32 17 C31.41609009 23.86789548 30.4575634 30.58293549 29.1875 37.35546875 C29.01371826 38.30134354 28.83993652 39.24721832 28.66088867 40.22175598 C28.11105905 43.21105333 27.55582937 46.19931299 27 49.1875 C26.44510951 52.18656245 25.8913902 55.18583454 25.33911133 58.18537903 C24.99692416 60.04221438 24.6531031 61.89874964 24.30737305 63.75492859 C23.43098483 68.49328215 22.64181762 73.22405035 22 78 C20.34385343 78.38218767 18.67542976 78.71395102 17 79 C15.10736924 77.10736924 15.49827003 73.71737165 15.25 71.1875 C14.3543648 62.78683405 12.93494252 54.49980128 11.4375 46.1875 C11.10443848 44.33644653 11.10443848 44.33644653 10.76464844 42.44799805 C9.55612458 35.68656397 9.55612458 35.68656397 8 29 C4.35400689 29.31065326 0.70823766 29.62386424 -2.9375 29.9375 C-3.95908203 30.02451172 -4.98066406 30.11152344 -6.03320312 30.20117188 C-10.63491583 30.59812473 -15.22624213 31.013513 -19.8125 31.5625 C-23.57571081 31.99385618 -27.27147256 32.10240555 -31.0625 32.0625 C-32.75052734 32.04896484 -32.75052734 32.04896484 -34.47265625 32.03515625 C-35.30667969 32.02355469 -36.14070313 32.01195312 -37 32 C-36.89171875 33.60488281 -36.89171875 33.60488281 -36.78125 35.2421875 C-36.15867301 45.20563495 -35.89153101 55.14164826 -35.875 65.125 C-35.87048828 66.28112793 -35.86597656 67.43725586 -35.86132812 68.62841797 C-35.86326172 69.70236816 -35.86519531 70.77631836 -35.8671875 71.8828125 C-35.86831543 72.84590332 -35.86944336 73.80899414 -35.87060547 74.80126953 C-36 77 -36 77 -37 78 C-39.82416382 78.12663091 -42.61294793 78.18520548 -45.4375 78.1875 C-46.22705078 78.19974609 -47.01660156 78.21199219 -47.83007812 78.22460938 C-49.88807435 78.22987279 -51.94562009 78.12206285 -54 78 C-54.66 77.34 -55.32 76.68 -56 76 C-55.67 74.35 -55.34 72.7 -55 71 C-49.555 70.01 -49.555 70.01 -44 69 C-44.33 56.79 -44.66 44.58 -45 32 C-50.94 32.33 -56.88 32.66 -63 33 C-63 47.52 -63 62.04 -63 77 C-68.23155725 78.74385242 -70.52824772 79.24798231 -75.75 78.875 C-76.87921875 78.81054688 -78.0084375 78.74609375 -79.171875 78.6796875 C-82 78 -82 78 -83.390625 75.9453125 C-83.69226563 74.98238281 -83.69226563 74.98238281 -84 74 C-82 71 -82 71 -79.6171875 70.48828125 C-78.71226562 70.43027344 -77.80734375 70.37226563 -76.875 70.3125 C-75.96492188 70.24675781 -75.05484375 70.18101562 -74.1171875 70.11328125 C-73.06917969 70.05720703 -73.06917969 70.05720703 -72 70 C-71.97024979 66.45835191 -71.95295646 62.91673702 -71.9375 59.375 C-71.92493164 57.90546875 -71.92493164 57.90546875 -71.91210938 56.40625 C-71.88665713 48.56695793 -72.35619551 40.81130098 -73 33 C-74.10287354 32.89977539 -75.20574707 32.79955078 -76.34204102 32.69628906 C-80.50885232 32.31412581 -84.67388151 31.91478708 -88.83862305 31.51074219 C-90.62725588 31.33952592 -92.41631718 31.1727172 -94.20581055 31.01074219 C-123.66512488 28.33487512 -123.66512488 28.33487512 -129 23 C-129.27108657 19.99636076 -129.08605757 17.01201507 -129 14 C-121.34392913 13.75983948 -113.89945545 14.45936241 -106.29250908 15.27190208 C-87.78533116 17.20661341 -69.4110501 17.36644234 -50.82116699 17.20599365 C-46.75648004 17.17445783 -42.69172893 17.16142832 -38.62695312 17.14648438 C-30.75113884 17.11498042 -22.87562262 17.06427989 -15 17 C-15.02066528 15.86220093 -15.02066528 15.86220093 -15.04174805 14.70141602 C-15.05246338 13.70811279 -15.06317871 12.71480957 -15.07421875 11.69140625 C-15.09488403 10.21329468 -15.09488403 10.21329468 -15.1159668 8.70532227 C-14.9702848 5.30679126 -14.33162805 3.49242998 -12 1 C-7.88846575 -1.51260426 -4.59369922 -1.10589055 0 0 Z " fill="#E7D7C5" transform="translate(230,272)"/>
<path d="M0 0 C0 0.66 0 1.32 0 2 C1.155 2.020625 2.31 2.04125 3.5 2.0625 C9.09769344 2.73739921 12.16890901 6.13477902 16 10 C16.763125 10.70125 17.52625 11.4025 18.3125 12.125 C20.95393994 15.05993327 22.81007089 17.67049622 23.375 21.625 C23.78328768 24.25752091 23.78328768 24.25752091 26.5 25.625 C27.325 26.07875 28.15 26.5325 29 27 C30 30 30 30 29.4375 32.0625 C28 34 28 34 25 34.75 C24.01 35.1625 23.02 35.575 22 36 C20.89062922 39.46108293 20.89062922 39.46108293 20.46484375 41.91796875 C19.1553286 47.78327611 14.55041286 52.06987955 9.9140625 55.58203125 C3.66819549 58.62124 -5.43595433 59.18801522 -12 57 C-12.12375 57.78375 -12.2475 58.5675 -12.375 59.375 C-13 62 -13 62 -15 64 C-20.84135085 66.23711309 -26.78734766 66.91870847 -33 66 C-35.9331292 64.6372854 -37.5920842 63.24738808 -40 61 C-40 60.34 -40 59.68 -40 59 C-40.92232422 59.63228516 -40.92232422 59.63228516 -41.86328125 60.27734375 C-42.67152344 60.82519531 -43.47976562 61.37304688 -44.3125 61.9375 C-45.11300781 62.48277344 -45.91351563 63.02804688 -46.73828125 63.58984375 C-51.79640704 66.74352839 -57.21613752 66.60971903 -63 66 C-66.2215705 64.22484891 -67.4839615 62.88463743 -69.3125 59.75 C-70.23391867 56.06432532 -70.12867983 52.79605497 -70 49 C-67.525 48.505 -67.525 48.505 -65 48 C-64.67 49.98 -64.34 51.96 -64 54 C-63.34 54 -62.68 54 -62 54 C-61.67 54.66 -61.34 55.32 -61 56 C-55.25375254 56.4596998 -52.44869274 55.67500704 -48 52 C-46.20877963 50.06736749 -44.61461167 48.08949746 -43 46 C-40.75 46.125 -40.75 46.125 -38 47 C-35.8125 49.9375 -35.8125 49.9375 -34 53 C-31.50494038 55.49505962 -30.32671112 55.35948376 -26.875 55.625 C-25.96492188 55.69976562 -25.05484375 55.77453125 -24.1171875 55.8515625 C-23.41851562 55.90054688 -22.71984375 55.94953125 -22 56 C-21.67 55.01 -21.34 54.02 -21 53 C-22.32 52.67 -23.64 52.34 -25 52 C-25 51.34 -25 50.68 -25 50 C-25.99 49.67 -26.98 49.34 -28 49 C-29.5703125 46.63671875 -29.5703125 46.63671875 -31.125 43.6875 C-31.90230469 42.23923828 -31.90230469 42.23923828 -32.6953125 40.76171875 C-36.12808459 33.49534191 -35.90324974 25.95138488 -33.4375 18.375 C-30.22223085 10.49814686 -26.0727399 5.63158939 -18.3125 2 C-12.15576662 -0.32726078 -6.50816313 -0.51926834 0 0 Z " fill="#EAB02C" transform="translate(217,162)"/>
<path d="M0 0 C0 0.66 0 1.32 0 2 C0.78375 2.226875 1.5675 2.45375 2.375 2.6875 C5.65858937 4.32929468 5.83731147 5.63689626 7 9 C7.95624268 9.01458252 8.91248535 9.02916504 9.89770508 9.04418945 C40.64098293 9.54419942 71.60975329 10.46443493 102.125 14.5 C102.93396729 14.60618652 103.74293457 14.71237305 104.57641602 14.82177734 C111.70608958 15.88451837 118.36595398 18.2179807 125 21 C125 21.66 125 22.32 125 23 C122.54242676 23.62811425 120.08400213 24.2525237 117.625 24.875 C116.94566406 25.04902344 116.26632812 25.22304687 115.56640625 25.40234375 C106.52387592 27.68410374 97.60408994 29.32496225 88.30078125 30.0625 C87.27761307 30.14556396 86.25444489 30.22862793 85.20027161 30.31420898 C70.19908584 31.45253537 55.15075195 31.71885711 40.11547852 32.10449219 C36.19517982 32.20577608 32.27537124 32.32189114 28.35546875 32.4375 C27.15568893 32.46465088 25.95590912 32.49180176 24.71977234 32.51977539 C23.61623917 32.55321045 22.51270599 32.58664551 21.37573242 32.62109375 C20.40665451 32.6461499 19.4375766 32.67120605 18.43913269 32.69702148 C15.74450417 32.84684415 15.74450417 32.84684415 13 35 C-1.31759505 38.57367172 -18.88738011 36.8551547 -33 33 C-32.67 30.36 -32.34 27.72 -32 25 C-31.21882813 25.0721875 -30.43765625 25.144375 -29.6328125 25.21875 C-16.76477462 26.25048578 -3.90132106 26.09528302 9 26 C9 25.34 9 24.68 9 24 C9 23.01 9 22.02 9 21 C8.17910889 21.01047363 7.35821777 21.02094727 6.51245117 21.03173828 C3.41301547 21.06619827 0.3136787 21.0910803 -2.78588867 21.10986328 C-4.76552896 21.12464917 -6.74508063 21.15008592 -8.72460938 21.17578125 C-16.31233516 21.21420011 -23.63388749 20.9846237 -31 19 C-32 18 -32 18 -32.25 15.3125 C-31.81389802 9.53414873 -28.92742501 5.1518493 -25 1 C-17.24958689 -3.61726738 -8.06596606 -4.5638838 0 0 Z " fill="#F46D10" transform="translate(145,101)"/>
<path d="M0 0 C9.26603681 7.2925714 14.85506022 16.31030858 17.34765625 27.84765625 C18.71018175 45.30113804 17.13328344 62.1886096 5.4296875 76.1328125 C-1.98557462 83.80624622 -9.94997542 89.79684632 -20.95703125 90.24609375 C-22.81380185 90.25396142 -24.67070233 90.24592891 -26.52734375 90.22265625 C-27.47609375 90.23425781 -28.42484375 90.24585938 -29.40234375 90.2578125 C-30.75972656 90.25201172 -30.75972656 90.25201172 -32.14453125 90.24609375 C-33.37212158 90.24101807 -33.37212158 90.24101807 -34.62451172 90.23583984 C-35.62828857 90.04368896 -35.62828857 90.04368896 -36.65234375 89.84765625 C-38.65234375 86.84765625 -38.65234375 86.84765625 -38.36035156 84.79467773 C-38.11124023 84.02712158 -37.86212891 83.25956543 -37.60546875 82.46875 C-37.33734375 81.63021484 -37.06921875 80.79167969 -36.79296875 79.92773438 C-36.35210937 78.6196582 -36.35210937 78.6196582 -35.90234375 77.28515625 C-35.4846875 75.9712793 -35.4846875 75.9712793 -35.05859375 74.63085938 C-32.93764732 68.13295982 -32.93764732 68.13295982 -30.65234375 65.84765625 C-24.599942 65.29743791 -24.599942 65.29743791 -21.71484375 66.97265625 C-20.20749512 69.63268325 -20.45248122 71.8497183 -20.65234375 74.84765625 C-12.41260527 72.49344526 -7.38456006 68.29657485 -2.88671875 60.97265625 C2.57499951 50.57948363 5.21150623 40.35147511 2.22265625 28.78515625 C0.54501306 23.67271752 -2.13471118 19.8691407 -5.65234375 15.84765625 C-6.31234375 15.08453125 -6.97234375 14.32140625 -7.65234375 13.53515625 C-13.5032676 8.59843925 -19.55192145 7.70369557 -26.96484375 7.78515625 C-28.03347656 7.79417969 -29.10210937 7.80320313 -30.203125 7.8125 C-31.01136719 7.82410156 -31.81960938 7.83570313 -32.65234375 7.84765625 C-32.60013672 8.87826172 -32.60013672 8.87826172 -32.546875 9.9296875 C-32.51980469 10.83074219 -32.49273437 11.73179687 -32.46484375 12.66015625 C-32.41263672 14.00013672 -32.41263672 14.00013672 -32.359375 15.3671875 C-32.65234375 17.84765625 -32.65234375 17.84765625 -33.9140625 19.734375 C-35.65234375 20.84765625 -35.65234375 20.84765625 -37.62109375 20.859375 C-40.54082975 19.40512188 -41.49879964 17.44487485 -43.15234375 14.66015625 C-43.75175781 13.665 -44.35117187 12.66984375 -44.96875 11.64453125 C-45.52433594 10.7215625 -46.07992188 9.79859375 -46.65234375 8.84765625 C-47.45566551 7.69536964 -48.26592626 6.54780745 -49.08984375 5.41015625 C-50.65234375 2.84765625 -50.65234375 2.84765625 -50.65234375 -1.15234375 C-34.90302953 -9.58947637 -15.33312412 -10.14728702 0 0 Z " fill="#979494" transform="translate(318.65234375,172.15234375)"/>
<path d="M0 0 C0 0.99 0 1.98 0 3 C-0.66 3.66 -1.32 4.32 -2 5 C-3.89367762 8.78735524 -4.19575936 11.79117368 -4 16 C4.72670988 17.93674015 13.26896357 18.41127571 22.1875 18.625 C23.53452721 18.6632964 24.88153299 18.7023543 26.22851562 18.7421875 C29.48554682 18.83557908 32.74258509 18.921354 36 19 C36.495 20.485 36.495 20.485 37 22 C37.99 22.99 37.99 22.99 39 24 C35.89511021 25.03496326 33.73144408 25.12910715 30.4765625 25.1328125 C28.82914063 25.13583374 28.82914063 25.13583374 27.1484375 25.13891602 C25.40433594 25.13202759 25.40433594 25.13202759 23.625 25.125 C22.449375 25.12234131 21.27375 25.11968262 20.0625 25.11694336 C-0.9966668 25.0016666 -0.9966668 25.0016666 -5 23 C-5.0928125 24.8871875 -5.0928125 24.8871875 -5.1875 26.8125 C-5.59686108 29.89635345 -5.73231717 30.73231717 -8 33 C-13.28050906 34.76016969 -18.0179908 34.97078002 -23.0625 32.5 C-23.701875 32.005 -24.34125 31.51 -25 31 C-25 31.66 -25 32.32 -25 33 C-25.87398437 33.27972656 -26.74796875 33.55945313 -27.6484375 33.84765625 C-37.91912815 37.19585834 -47.9626424 41.01035156 -58 45 C-57.43499869 49.44631465 -55.74087839 52.3297355 -53.3125 56.0625 C-49.96264056 61.30918637 -47.10069726 66.6551532 -44.3828125 72.26171875 C-42.76470998 75.46592741 -40.93929983 78.47175366 -38.98046875 81.4765625 C-36.86353094 84.76582841 -36.83417873 87.10320024 -37 91 C-38 92 -38 92 -40.3125 92.375 C-43 92 -43 92 -44.85546875 90.0390625 C-47.57477023 86.18548044 -49.77741101 82.15469621 -52 78 C-55.04436771 72.35598876 -58.12189027 66.74676777 -61.38671875 61.2265625 C-61.93779297 60.28941406 -62.48886719 59.35226563 -63.05664062 58.38671875 C-64.12443792 56.57849675 -65.2022175 54.77612364 -66.29101562 52.98046875 C-68.91674637 48.51010113 -70.74262087 45.36434369 -70 40 C-63.93813704 37.19358196 -57.78067181 34.68515288 -51.5625 32.25 C-50.75699707 31.93216553 -49.95149414 31.61433105 -49.12158203 31.28686523 C-48.36087402 30.99110596 -47.60016602 30.69534668 -46.81640625 30.390625 C-46.13006104 30.12282227 -45.44371582 29.85501953 -44.73657227 29.57910156 C-43 29 -43 29 -41 29 C-41.30035156 28.33613281 -41.60070312 27.67226562 -41.91015625 26.98828125 C-42.29042969 26.10527344 -42.67070313 25.22226563 -43.0625 24.3125 C-43.44535156 23.44238281 -43.82820313 22.57226562 -44.22265625 21.67578125 C-45.13522505 18.53452685 -45.17803007 17.05104858 -44 14 C-32.99328867 3.37746707 -14.30916437 2.4914064 0 0 Z " fill="#857C72" transform="translate(118,103)"/>
<path d="M0 0 C1.01309235 0.16050842 2.02618469 0.32101685 3.06997681 0.48638916 C6.71640058 0.96293667 10.20656414 1.16024157 13.88037109 1.21777344 C14.5306427 1.22939514 15.18091431 1.24101685 15.85089111 1.25299072 C17.25575371 1.27805355 18.6606471 1.30143681 20.0655632 1.32329559 C23.11205933 1.37307912 26.15814781 1.4389746 29.20435524 1.50378799 C34.84714871 1.62379605 40.48984959 1.73886392 46.13330078 1.82324219 C63.24579049 2.08620612 80.09985599 2.74658806 97.0390625 5.328125 C97.70927807 5.42848808 98.37949364 5.52885117 99.07001877 5.63225555 C125.71081911 9.71081911 125.71081911 9.71081911 134 18 C134.60939344 20.92508853 134.82892383 22.1972013 134 25 C131.29743186 28.34006909 128.21008526 31.15496053 125 34 C124.01 34.99 124.01 34.99 123 36 C123 34.68 123 33.36 123 32 C122.40276123 32.08040527 121.80552246 32.16081055 121.19018555 32.24365234 C114.13024378 33.190018 107.06630214 34.10245404 100 35 C99.22188965 35.10103027 98.4437793 35.20206055 97.64208984 35.30615234 C84.08374035 37.0376094 70.45004857 37.64331663 56.80615234 38.30297852 C56.01624908 38.34213379 55.22634583 38.38128906 54.4125061 38.42163086 C52.92483461 38.49496081 51.43702432 38.5655497 49.94906616 38.6328125 C45.57973781 38.84880882 41.32693592 39.37799113 37 40 C32.95928444 40.20357542 28.9204693 40.18991107 24.875 40.1875 C23.76584229 40.18814453 22.65668457 40.18878906 21.51391602 40.18945312 C13.8307602 40.13988801 6.52092582 39.67463955 -1 38 C-1 37.67 -1 37.34 -1 37 C-0.19175781 36.89042969 0.61648437 36.78085938 1.44921875 36.66796875 C2.51785156 36.50941406 3.58648437 36.35085937 4.6875 36.1875 C5.74324219 36.03667969 6.79898438 35.88585937 7.88671875 35.73046875 C11.00526036 35.1829898 11.00526036 35.1829898 13.34440613 33.48512268 C16.35352406 31.80229409 18.1802155 31.58858973 21.6027832 31.50756836 C23.25785637 31.45752907 23.25785637 31.45752907 24.94636536 31.40647888 C26.73055122 31.37349449 26.73055122 31.37349449 28.55078125 31.33984375 C29.796353 31.30443985 31.04192474 31.26903595 32.32524109 31.2325592 C35.64825667 31.139606 38.97110973 31.0581695 42.29455566 30.98345947 C78.11030848 30.40269735 78.11030848 30.40269735 113.5 25.375 C114.63179688 25.14554688 115.76359375 24.91609375 116.9296875 24.6796875 C119.6225757 24.13198142 122.31229215 23.57247916 125 23 C125 22.34 125 21.68 125 21 C111.03739406 16.82896729 96.93597011 14.60971673 82.4375 13.4375 C81.36353973 13.34653046 81.36353973 13.34653046 80.2678833 13.25372314 C64.11394924 11.89589185 47.92551931 11.24309133 31.72827148 10.64624023 C30.75092545 10.60950699 29.77357941 10.57277374 28.76661682 10.53492737 C26.9417333 10.46723076 25.11673366 10.40256067 23.29161072 10.34165955 C19.18504118 10.19094899 15.08727983 9.97708274 10.99267578 9.62548828 C10.26799103 9.56483185 9.54330627 9.50417542 8.79666138 9.44168091 C7 9 7 9 5.1875 6.5625 C4.795625 5.716875 4.40375 4.87125 4 4 C1.93299345 2.67206394 1.93299345 2.67206394 0 2 C0 1.34 0 0.68 0 0 Z " fill="#EEE3D6" transform="translate(145,101)"/>
<path d="M0 0 C31.37281428 0.49408156 62.98476933 1.37849888 94.125 5.5 C94.93388672 5.60618652 95.74277344 5.71237305 96.57617188 5.82177734 C103.70594105 6.884417 110.36588678 9.21795252 117 12 C117 12.66 117 13.32 117 14 C114.43923903 14.67404284 111.87673417 15.339414 109.3125 16 C108.59126953 16.19078125 107.87003906 16.3815625 107.12695312 16.578125 C103.33149039 17.54865428 99.95384561 18.24955239 96 18 C96 17.34 96 16.68 96 16 C95.20335937 15.86722656 94.40671875 15.73445313 93.5859375 15.59765625 C91.4609375 15.24348958 89.3359375 14.88932292 87.2109375 14.53515625 C86.15132813 14.35855469 85.09171875 14.18195313 84 14 C83.17757812 13.835 82.35515625 13.67 81.5078125 13.5 C76.56978642 12.79613882 71.64536275 12.64736995 66.6640625 12.46484375 C65.55308197 12.42186661 64.44210144 12.37888947 63.29745483 12.33460999 C60.93893586 12.24450484 58.5803408 12.1563726 56.22167969 12.07006836 C52.69960284 11.94024975 49.17795296 11.80165884 45.65625 11.66210938 C30.7636754 11.09288383 15.9027746 10.88520629 1 11 C0.67 7.37 0.34 3.74 0 0 Z " fill="#A59587" transform="translate(153,110)"/>
<path d="M0 0 C3.5552297 2.79879785 6.64687758 5.88459685 7.4140625 10.48046875 C7.51847656 11.82044922 7.51847656 11.82044922 7.625 13.1875 C7.69976562 14.08855469 7.77453125 14.98960937 7.8515625 15.91796875 C7.90054688 16.60503906 7.94953125 17.29210937 8 18 C9.32 18.33 10.64 18.66 12 19 C12 14.05 12 9.1 12 4 C13.32 4.33 14.64 4.66 16 5 C15.91621094 5.62648437 15.83242187 6.25296875 15.74609375 6.8984375 C15.64425781 7.71570313 15.54242188 8.53296875 15.4375 9.375 C15.33308594 10.18710938 15.22867188 10.99921875 15.12109375 11.8359375 C14.81762672 14.04899186 14.81762672 14.04899186 16 16 C14.31987972 22.54667557 11.84853154 27.35846149 6 31 C1.14772301 33.14301641 -3.65248169 34.74616535 -9 34 C-11 32.625 -11 32.625 -13 31 C-13.94875 30.7525 -14.8975 30.505 -15.875 30.25 C-20.25082893 28.49966843 -22.60799783 26.03604081 -25 22 C-26.87343088 16.58501485 -27.47469327 11.60383443 -26 6 C-25.34 6.33 -24.68 6.66 -24 7 C-23.5859375 9.50390625 -23.5859375 9.50390625 -23.375 12.5625 C-23.30023438 13.57441406 -23.22546875 14.58632812 -23.1484375 15.62890625 C-23.09945312 16.41136719 -23.05046875 17.19382813 -23 18 C-21.68 18 -20.36 18 -19 18 C-18.99742187 17.43152344 -18.99484375 16.86304688 -18.9921875 16.27734375 C-18.70751108 10.59330456 -17.46795494 7.55262548 -13.5703125 3.41015625 C-9.26382785 -0.45710982 -5.57759392 -0.98024498 0 0 Z " fill="#EBE2D5" transform="translate(216,180)"/>
<path d="M0 0 C0 0.66 0 1.32 0 2 C-0.66 2 -1.32 2 -2 2 C-2.04125 2.5775 -2.0825 3.155 -2.125 3.75 C-3.52637053 7.35352422 -5.59268672 8.29634336 -9 10 C-12.79150334 10.51928657 -16.47127664 10.28428891 -20.2265625 9.5859375 C-26.24627581 8.50111284 -29.29159783 9.87697632 -34.56640625 12.84765625 C-38.27122474 14.6019443 -40.9607291 14.43277902 -45 14 C-45.99 13.505 -45.99 13.505 -47 13 C-48.37342831 12.9310528 -49.75002102 12.91532292 -51.125 12.9375 C-53.043125 12.9684375 -53.043125 12.9684375 -55 13 C-55.66 14.32 -56.32 15.64 -57 17 C-57.66 17 -58.32 17 -59 17 C-59 16.34 -59 15.68 -59 15 C-59.66 15.33 -60.32 15.66 -61 16 C-66.48747584 16.4176309 -70.93776159 16.24988374 -76 14 C-79.69542183 13.60687002 -81.55518269 13.76792141 -84.875 15.5 C-88.67081953 17.32199337 -91.89285045 17.62880778 -96 17 C-97.890625 16.28515625 -97.890625 16.28515625 -99.6875 15.4375 C-103.27817446 13.87928278 -104.38862287 13.76452888 -108 15 C-108.804375 15.350625 -109.60875 15.70125 -110.4375 16.0625 C-113.61556667 17.22520732 -115.62415391 17.39715836 -119 17 C-120.37420169 16.35347597 -121.72800325 15.66244278 -123.0625 14.9375 C-126.21685743 13.22628161 -126.21685743 13.22628161 -129.8125 13.1875 C-130.534375 13.455625 -131.25625 13.72375 -132 14 C-135.71828738 15.23942913 -139.1361255 15.56650792 -143 15 C-143.99 14.319375 -144.98 13.63875 -146 12.9375 C-149.84075802 10.35644014 -153.39509666 11.19806948 -157.75 11.75 C-163.96641306 12.49176384 -167.26518812 11.94792384 -172.5 8.0625 C-174.03417178 6.74717331 -175.54817198 5.40568942 -177 4 C-176.67 3.01 -176.34 2.02 -176 1 C-172.34041639 1.34042638 -170.41122915 1.65203687 -167.5625 4.0625 C-164.12605449 6.66078807 -162.25173421 6.35431118 -158 6 C-157.29617187 5.86335937 -156.59234375 5.72671875 -155.8671875 5.5859375 C-149.98233916 4.5401979 -147.04866052 5.55130305 -142.140625 8.96875 C-139.35052551 10.31288552 -137.91241596 9.88722605 -135 9 C-134.34 8.67 -133.68 8.34 -133 8 C-126.98814016 7.37476658 -123.39760039 8.30119981 -118 11 C-114.64330795 10.77622053 -112.01434617 10.50717308 -109 9 C-103.0124695 8.37729683 -99.36522675 9.25777299 -94 12 C-90.32139735 11.84346372 -88.0024927 11.00122283 -84.6875 9.375 C-79.25000717 7.3474603 -74.58429014 7.9427904 -69.25 10.125 C-66.35178705 11.25208281 -64.93719748 10.95458918 -62 10 C-61.278125 9.484375 -60.55625 8.96875 -59.8125 8.4375 C-54.57060152 5.75830744 -48.56430913 6.51388017 -43 8 C-38.4516435 8.45483565 -35.58439037 7.89774909 -31.5625 5.9375 C-26.83595508 3.83842186 -22.90676688 4.01134371 -17.875 4.5625 C-12.99032165 5.09293711 -9.38699329 5.36234961 -5.125 2.5625 C-4.26261719 1.85287109 -4.26261719 1.85287109 -3.3828125 1.12890625 C-2 0 -2 0 0 0 Z " fill="#B7AFA7" transform="translate(264,145)"/>
<path d="M0 0 C0.99 0 1.98 0 3 0 C3 1.98 3 3.96 3 6 C5.31 6 7.62 6 10 6 C10 4.02 10 2.04 10 0 C10.99 0 11.98 0 13 0 C13 1.65 13 3.3 13 5 C13.66 5 14.32 5 15 5 C15.33 3.68 15.66 2.36 16 1 C16.99 1.33 17.98 1.66 19 2 C18.41609009 8.86789548 17.4575634 15.58293549 16.1875 22.35546875 C16.01371826 23.30134354 15.83993652 24.24721832 15.66088867 25.22175598 C15.11105905 28.21105333 14.55582937 31.19931299 14 34.1875 C13.44510951 37.18656245 12.8913902 40.18583454 12.33911133 43.18537903 C11.99692416 45.04221438 11.6531031 46.89874964 11.30737305 48.75492859 C10.43098483 53.49328215 9.64181762 58.22405035 9 63 C7.34385343 63.38218767 5.67542976 63.71395102 4 64 C2.0279205 62.0279205 2.40809108 58.30881127 2.12890625 55.59765625 C1.08666032 46.14517878 -0.44772003 36.80635365 -2.0625 27.4375 C-2.46823025 25.06641531 -2.87267519 22.69512354 -3.2752533 20.32350159 C-3.5225443 18.86835212 -3.77170464 17.41351841 -4.02320862 15.95909119 C-4.81595366 11.31630195 -5.44335534 6.67548867 -6 2 C-5.01 2 -4.02 2 -3 2 C-2.67 2.99 -2.34 3.98 -2 5 C-1.34 5.33 -0.68 5.66 0 6 C0 4.02 0 2.04 0 0 Z " fill="#130E0E" transform="translate(243,287)"/>
<path d="M0 0 C0 0.66 0 1.32 0 2 C0.7425 2.185625 1.485 2.37125 2.25 2.5625 C5.99976519 4.52260453 7.70396554 7.06930816 9 11 C9.16479492 13.578125 9.16479492 13.578125 9.10546875 16.25 C9.0902417 17.14203125 9.07501465 18.0340625 9.05932617 18.953125 C9.02995972 19.96632813 9.02995972 19.96632813 9 21 C5.07141081 21.05012431 1.14295016 21.08605502 -2.78588867 21.10986328 C-4.76552896 21.12464917 -6.74508063 21.15008592 -8.72460938 21.17578125 C-16.31233516 21.21420011 -23.63388749 20.9846237 -31 19 C-32 18 -32 18 -32.25 15.3125 C-31.81389802 9.53414873 -28.92742501 5.1518493 -25 1 C-17.24958689 -3.61726738 -8.06596606 -4.5638838 0 0 Z " fill="#0C0709" transform="translate(145,101)"/>
<path d="M0 0 C6.8268057 3.90889681 11.36819984 9.8193764 13.6875 17.3125 C14.23458704 23.11162258 13.02675136 27.09417003 10.6875 32.3125 C9.6975 32.8075 9.6975 32.8075 8.6875 33.3125 C9.24088542 31.32682292 9.79427083 29.34114583 10.34765625 27.35546875 C10.88313817 25.12005841 10.88313817 25.12005841 9.6875 22.3125 C10.28543673 19.96061553 10.94631795 17.62324405 11.6875 15.3125 C10.6975 15.6425 9.7075 15.9725 8.6875 16.3125 C8.3575 20.6025 8.0275 24.8925 7.6875 29.3125 C6.0375 28.9825 4.3875 28.6525 2.6875 28.3125 C2.66171875 27.64863281 2.6359375 26.98476562 2.609375 26.30078125 C2.24825344 20.67877513 1.74939685 17.50542578 -2.3125 13.3125 C-2.3125 12.6525 -2.3125 11.9925 -2.3125 11.3125 C-10.08325426 10.48645493 -10.08325426 10.48645493 -16.875 13.625 C-20.06236585 17.13927516 -21.53101773 19.32545388 -21.9375 24 C-22.01226562 24.80824219 -22.08703125 25.61648437 -22.1640625 26.44921875 C-22.21304688 27.06410156 -22.26203125 27.67898437 -22.3125 28.3125 C-23.96864657 28.69468767 -25.63707024 29.02645102 -27.3125 29.3125 C-29.05206658 27.57293342 -28.68440386 25.1188378 -28.875 22.75 C-28.95878906 21.73808594 -29.04257813 20.72617188 -29.12890625 19.68359375 C-29.18949219 18.90113281 -29.25007812 18.11867187 -29.3125 17.3125 C-30.09357769 20.61616934 -30.38692334 23.26905808 -29.875 26.625 C-29.689375 27.841875 -29.50375 29.05875 -29.3125 30.3125 C-32.09938811 27.52561189 -32.28841162 25.59192522 -32.625 21.6875 C-32.53128594 15.32665833 -29.93008981 10.17272828 -25.8125 5.4375 C-18.10343433 -1.11520582 -9.86347827 -4.61416502 0 0 Z " fill="#ECDECA" transform="translate(220.3125,169.6875)"/>
<path d="M0 0 C2.25 0.125 2.25 0.125 5 1 C7.1875 3.9375 7.1875 3.9375 9 7 C11.49505962 9.49505962 12.67328888 9.35948376 16.125 9.625 C17.03507812 9.69976562 17.94515625 9.77453125 18.8828125 9.8515625 C19.58148438 9.90054688 20.28015625 9.94953125 21 10 C22.32 7.69 23.64 5.38 25 3 C26.65 3 28.3 3 30 3 C30.62176166 11.89464594 30.62176166 11.89464594 28.3125 16 C23.58555454 20.08816905 18.79072743 20.48462179 12.73828125 20.39453125 C8.35576624 19.76309899 6.20867656 17.99476479 3 15 C3 14.34 3 13.68 3 13 C2.38511719 13.42152344 1.77023438 13.84304687 1.13671875 14.27734375 C0.32847656 14.82519531 -0.47976562 15.37304688 -1.3125 15.9375 C-2.11300781 16.48277344 -2.91351563 17.02804688 -3.73828125 17.58984375 C-8.79640704 20.74352839 -14.21613752 20.60971903 -20 20 C-23.2215705 18.22484891 -24.4839615 16.88463743 -26.3125 13.75 C-27.23391867 10.06432532 -27.12867983 6.79605497 -27 3 C-25.35 2.67 -23.7 2.34 -22 2 C-21.67 3.98 -21.34 5.96 -21 8 C-20.34 8 -19.68 8 -19 8 C-18.67 8.66 -18.34 9.32 -18 10 C-12.25375254 10.4596998 -9.44869274 9.67500704 -5 6 C-3.20877963 4.06736749 -1.61461167 2.08949746 0 0 Z " fill="#100C0C" transform="translate(174,208)"/>
<path d="M0 0 C1.2065625 0.0309375 1.2065625 0.0309375 2.4375 0.0625 C2.7675 0.7225 3.0975 1.3825 3.4375 2.0625 C6.92664684 4.3245579 10.59572147 6.26876465 14.25 8.25 C15.22582031 8.77980469 16.20164063 9.30960937 17.20703125 9.85546875 C17.94308594 10.25378906 18.67914063 10.65210938 19.4375 11.0625 C19.4375 11.7225 19.4375 12.3825 19.4375 13.0625 C20.01628906 13.33191406 20.59507812 13.60132813 21.19140625 13.87890625 C23.46190285 15.07535924 25.3518634 16.42555904 27.375 18 C29.71713127 19.8124156 31.79582642 21.24912835 34.4375 22.625 C36.4375 24.0625 36.4375 24.0625 36.9375 26.625 C36.4375 29.0625 36.4375 29.0625 33.4375 31.0625 C31.26098633 31.38134766 31.26098633 31.38134766 28.76953125 31.4765625 C27.87685547 31.51523437 26.98417969 31.55390625 26.06445312 31.59375 C24.67129883 31.64015625 24.67129883 31.64015625 23.25 31.6875 C22.30962891 31.72617187 21.36925781 31.76484375 20.40039062 31.8046875 C18.07974934 31.89892674 15.75865159 31.98180123 13.4375 32.0625 C13.1075 29.0925 12.7775 26.1225 12.4375 23.0625 C14.0875 23.0625 15.7375 23.0625 17.4375 23.0625 C17.4375 22.4025 17.4375 21.7425 17.4375 21.0625 C16.71304687 20.80082031 15.98859375 20.53914063 15.2421875 20.26953125 C12.36703387 19.03217405 10.09831986 17.57692453 7.5625 15.75 C6.70140625 15.13382812 5.8403125 14.51765625 4.953125 13.8828125 C4.12296875 13.28210938 3.2928125 12.68140625 2.4375 12.0625 C1.06291889 11.08274538 -0.31201981 10.10349201 -1.6875 9.125 C-2.63625 8.444375 -3.585 7.76375 -4.5625 7.0625 C-3.5234375 0.0859375 -3.5234375 0.0859375 0 0 Z " fill="#857B71" transform="translate(239.5625,252.9375)"/>
<path d="M0 0 C1.0625 1.5625 1.0625 1.5625 1.0625 3.5625 C2.66570974 3.75801338 4.27012986 3.94361983 5.875 4.125 C7.21498047 4.28162109 7.21498047 4.28162109 8.58203125 4.44140625 C11.19625572 4.71908709 11.19625572 4.71908709 14.0625 3.5625 C15.01274979 7.25791586 15.01274979 9.86708414 14.0625 13.5625 C13.0725 13.5625 12.0825 13.5625 11.0625 13.5625 C11.0625 15.5425 11.0625 17.5225 11.0625 19.5625 C10.0725 19.2325 9.0825 18.9025 8.0625 18.5625 C8.0625 17.5725 8.0625 16.5825 8.0625 15.5625 C7.0725 15.5625 6.0825 15.5625 5.0625 15.5625 C5.413125 16.8 5.76375 18.0375 6.125 19.3125 C7.01843273 22.465792 7.07131294 24.43024164 6.0625 27.5625 C6.0625 26.9025 6.0625 26.2425 6.0625 25.5625 C5.0725 25.5625 4.0825 25.5625 3.0625 25.5625 C3.0625 23.2525 3.0625 20.9425 3.0625 18.5625 C1.63357422 18.52382813 1.63357422 18.52382813 0.17578125 18.484375 C-1.07847656 18.42765625 -2.33273438 18.3709375 -3.625 18.3125 C-4.86636719 18.26609375 -6.10773438 18.2196875 -7.38671875 18.171875 C-11.46606962 17.47178838 -13.19307263 16.64804263 -15.9375 13.5625 C-16.53125 10.65234375 -16.53125 10.65234375 -16.4375 7.5 C-16.42203125 5.93572266 -16.42203125 5.93572266 -16.40625 4.33984375 C-15.8922143 1.29418224 -15.37362006 0.37753005 -12.9375 -1.4375 C-8.75501854 -3.22999205 -3.63856681 -2.69958183 0 0 Z " fill="#83796E" transform="translate(231.9375,273.4375)"/>
<path d="M0 0 C0.33 0 0.66 0 1 0 C1.02578125 0.61488281 1.0515625 1.22976563 1.078125 1.86328125 C1.31191482 6.82713021 1.31191482 6.82713021 3.6875 11 C6.4468582 12.19323598 9.02047933 12.66141811 12 13 C12 13.33 12 13.66 12 14 C11.44014404 14.05534912 10.88028809 14.11069824 10.3034668 14.16772461 C7.76444195 14.4207582 5.225981 14.6790698 2.6875 14.9375 C1.36588867 15.06801758 1.36588867 15.06801758 0.01757812 15.20117188 C-0.82998047 15.28818359 -1.67753906 15.37519531 -2.55078125 15.46484375 C-3.33106689 15.543396 -4.11135254 15.62194824 -4.9152832 15.70288086 C-7.18882001 15.96337997 -7.18882001 15.96337997 -10 17 C-11.85541379 17.06548348 -13.71327536 17.06892228 -15.56958008 17.03759766 C-17.28199638 17.01229477 -17.28199638 17.01229477 -19.02900696 16.98648071 C-20.26337997 16.9625827 -21.49775299 16.93868469 -22.76953125 16.9140625 C-24.03842697 16.89282318 -25.30732269 16.87158386 -26.6146698 16.84970093 C-29.30219591 16.80340004 -31.98958746 16.75500709 -34.67700195 16.703125 C-38.10986448 16.63709866 -41.54280467 16.57971913 -44.97586536 16.52509499 C-48.26133492 16.47173276 -51.54667372 16.41137314 -54.83203125 16.3515625 C-56.06033157 16.33171295 -57.2886319 16.3118634 -58.55415344 16.29141235 C-59.70522079 16.26823944 -60.85628815 16.24506653 -62.04223633 16.22119141 C-63.05022781 16.20263092 -64.0582193 16.18407043 -65.09675598 16.16494751 C-68.12547748 15.99287101 -71.01526702 15.53068828 -74 15 C-76.20230769 14.81738436 -78.40717986 14.66409143 -80.61328125 14.53515625 C-81.86173828 14.45716797 -83.11019531 14.37917969 -84.39648438 14.29882812 C-86.9952523 14.14199475 -89.59421285 13.98831934 -92.19335938 13.83789062 C-99.00475323 13.406701 -105.39120727 12.72246615 -112 11 C-112 10.01 -112 9.02 -112 8 C-109.66636107 8.12048679 -107.33315564 8.24562438 -105 8.375 C-104.26483154 8.41545441 -103.52966309 8.45590881 -102.7722168 8.49758911 C-98.52812778 8.74598625 -94.30269785 9.05124642 -90.07421875 9.49414062 C-72.19452992 11.32055369 -54.38718667 11.23799519 -36.43914795 11.1373291 C-32.31492223 11.11648248 -28.19067001 11.10765441 -24.06640625 11.09765625 C-16.0442008 11.07651691 -8.02212011 11.04260713 0 11 C0 7.37 0 3.74 0 0 Z " fill="#D2C2B2" transform="translate(215,278)"/>
<path d="M0 0 C2.64 0 5.28 0 8 0 C9.09819822 15.00217212 9.10881621 29.96327361 9 45 C4.51763131 46.75219867 1.04416565 47.2174404 -3.75 46.875 C-4.87921875 46.81054688 -6.0084375 46.74609375 -7.171875 46.6796875 C-10 46 -10 46 -11.390625 43.9453125 C-11.59171875 43.30335938 -11.7928125 42.66140625 -12 42 C-11.34 41.01 -10.68 40.02 -10 39 C-5.05 38.505 -5.05 38.505 0 38 C0 25.46 0 12.92 0 0 Z " fill="#887F76" transform="translate(158,304)"/>
<path d="M0 0 C2.31 0 4.62 0 7 0 C7.72044327 11.39844172 8.10604398 22.76491814 8.125 34.1875 C8.12951172 35.33976074 8.13402344 36.49202148 8.13867188 37.67919922 C8.13673828 38.74799316 8.13480469 39.81678711 8.1328125 40.91796875 C8.13168457 41.87469482 8.13055664 42.8314209 8.12939453 43.81713867 C8 46 8 46 7 47 C4.17583618 47.12663091 1.38705207 47.18520548 -1.4375 47.1875 C-2.22705078 47.19974609 -3.01660156 47.21199219 -3.83007812 47.22460938 C-5.88807435 47.22987279 -7.94562009 47.12206285 -10 47 C-10.66 46.34 -11.32 45.68 -12 45 C-11.67 43.35 -11.34 41.7 -11 40 C-7.37 39.34 -3.74 38.68 0 38 C-0.05329468 36.59306885 -0.05329468 36.59306885 -0.10766602 35.15771484 C-0.2373465 31.65785729 -0.36157321 28.15789242 -0.48217773 24.65771484 C-0.53535066 23.14656938 -0.59065854 21.6354974 -0.64819336 20.12451172 C-0.73079943 17.94514811 -0.8055721 15.76563047 -0.87890625 13.5859375 C-0.9260376 12.2767334 -0.97316895 10.9675293 -1.02172852 9.61865234 C-1.00167683 6.27925861 -0.65655271 3.26728925 0 0 Z " fill="#877E75" transform="translate(186,303)"/>
<path d="M0 0 C0 0.99 0 1.98 0 3 C-0.66 3.66 -1.32 4.32 -2 5 C-2.2784375 6.2375 -2.2784375 6.2375 -2.5625 7.5 C-4 10 -4 10 -7.8125 11.1875 C-9.53678319 11.48785901 -11.2669534 11.75521941 -13 12 C-23.79254985 13.42730666 -23.79254985 13.42730666 -34 17 C-34.66 17.99 -35.32 18.98 -36 20 C-35.34 20 -34.68 20 -34 20 C-34 20.66 -34 21.32 -34 22 C-32.35 22.33 -30.7 22.66 -29 23 C-29 23.66 -29 24.32 -29 25 C-30.6232687 25.6708712 -32.24867578 26.33657029 -33.875 27 C-34.77992187 27.37125 -35.68484375 27.7425 -36.6171875 28.125 C-39 29 -39 29 -41 29 C-41.70365602 27.4447088 -42.38729378 25.88035173 -43.0625 24.3125 C-43.44535156 23.44238281 -43.82820313 22.57226562 -44.22265625 21.67578125 C-45.13522505 18.53452685 -45.17803007 17.05104858 -44 14 C-32.99328867 3.37746707 -14.30916437 2.4914064 0 0 Z " fill="#EDE3D7" transform="translate(118,103)"/>
<path d="M0 0 C0.33 1.98 0.66 3.96 1 6 C9.72670988 7.93674015 18.26896357 8.41127571 27.1875 8.625 C28.53452721 8.6632964 29.88153299 8.7023543 31.22851562 8.7421875 C34.48554682 8.83557908 37.74258509 8.921354 41 9 C41.495 10.485 41.495 10.485 42 12 C42.99 12.99 42.99 12.99 44 14 C40.89511021 15.03496326 38.73144408 15.12910715 35.4765625 15.1328125 C33.82914063 15.13583374 33.82914063 15.13583374 32.1484375 15.13891602 C30.40433594 15.13202759 30.40433594 15.13202759 28.625 15.125 C27.449375 15.12234131 26.27375 15.11968262 25.0625 15.11694336 C4.0033332 15.0016666 4.0033332 15.0016666 0 13 C-0.185625 12.21625 -0.37125 11.4325 -0.5625 10.625 C-2.24889873 7.54548928 -3.04913089 7.25813453 -6.25 6.0625 C-9.38386994 5.18582256 -11.08251662 5.0106966 -14.375 5.4375 C-17.72791502 7.43328275 -18.39931188 9.50758955 -20 13 C-22.1875 14.375 -22.1875 14.375 -24 15 C-24 14.34 -24 13.68 -24 13 C-25.65 12.67 -27.3 12.34 -29 12 C-29 11.34 -29 10.68 -29 10 C-29.66 10 -30.32 10 -31 10 C-30.01800885 7.42092436 -29.37537145 6.22004533 -26.9609375 4.8046875 C-18.39718524 1.72587626 -9.13785186 0 0 0 Z " fill="#9E9993" transform="translate(113,113)"/>
<path d="M0 0 C0.89428711 0.0729126 1.78857422 0.1458252 2.70996094 0.22094727 C9.53219955 0.73239452 16.2979719 1.08472774 23.140625 1.02734375 C24.14277039 1.01908066 24.14277039 1.01908066 25.16516113 1.01065063 C27.8945944 0.98314912 30.62380071 0.94745929 33.35302734 0.90405273 C35.38640175 0.87397603 37.41960053 0.8561606 39.453125 0.83984375 C40.64067383 0.82300537 41.82822266 0.80616699 43.05175781 0.78881836 C46 1 46 1 49 3 C48.6875 5.375 48.6875 5.375 48 8 C38.13268678 14.57820882 18.1298632 12.04997635 6.89038086 9.92480469 C4.24153351 9.34860837 1.61494956 8.71432768 -1 8 C-0.67 5.36 -0.34 2.72 0 0 Z " fill="#130F0F" transform="translate(113,126)"/>
<path d="M0 0 C0.66 0.66 1.32 1.32 2 2 C-5.92 2.495 -5.92 2.495 -14 3 C-14.33 3.99 -14.66 4.98 -15 6 C-20.46511628 11 -20.46511628 11 -23 11 C-23.68346682 12.65984798 -24.34588315 14.32836805 -25 16 C-25.37125 16.928125 -25.7425 17.85625 -26.125 18.8125 C-28.20302389 26.38244417 -27.0511306 31.04203364 -23.359375 37.79296875 C-21.08520248 41.4852316 -19.49430822 43.59246139 -15.25 44.75 C-14.5075 44.8325 -13.765 44.915 -13 45 C-13.61875 45.226875 -14.2375 45.45375 -14.875 45.6875 C-17.61410209 47.37929835 -18.05024472 48.99244161 -19 52 C-19.33 51.34 -19.66 50.68 -20 50 C-22.02463255 49.34786708 -22.02463255 49.34786708 -24 49 C-24 48.34 -24 47.68 -24 47 C-24.99 46.67 -25.98 46.34 -27 46 C-28.5703125 43.63671875 -28.5703125 43.63671875 -30.125 40.6875 C-30.90230469 39.23923828 -30.90230469 39.23923828 -31.6953125 37.76171875 C-35.13086721 30.48945175 -34.87791401 22.91763469 -32.5 15.3125 C-29.71484687 8.35453793 -25.10612663 4.96510052 -18.9375 1.0625 C-13.24024752 -1.09393668 -5.95992793 -0.55491469 0 0 Z " fill="#E6A622" transform="translate(216,165)"/>
<path d="M0 0 C3.03706288 2.51387138 5.22674414 5.06758879 6.609375 8.7890625 C6.8046875 12.2421875 6.8046875 12.2421875 6.734375 16.0390625 C6.71632812 17.30234375 6.69828125 18.565625 6.6796875 19.8671875 C6.65648437 20.83140625 6.63328125 21.795625 6.609375 22.7890625 C4.959375 22.4590625 3.309375 22.1290625 1.609375 21.7890625 C1.58359375 21.05300781 1.5578125 20.31695312 1.53125 19.55859375 C1.1972911 13.3143995 1.1972911 13.3143995 -1.265625 7.6640625 C-4.67239344 4.65809035 -7.92890372 4.45078984 -12.390625 4.5 C-15.55808726 4.95779728 -17.2100119 6.54431372 -19.390625 8.7890625 C-21.39355847 11.79346271 -21.88334126 13.49900195 -22.515625 16.9765625 C-22.68320313 17.87761719 -22.85078125 18.77867187 -23.0234375 19.70703125 C-23.14460937 20.39410156 -23.26578125 21.08117187 -23.390625 21.7890625 C-25.040625 21.7890625 -26.690625 21.7890625 -28.390625 21.7890625 C-28.94034942 15.14350509 -29.00121038 9.9476746 -24.9140625 4.44921875 C-18.80360176 -2.20961667 -8.23887037 -4.17328401 0 0 Z " fill="#130E0D" transform="translate(155.390625,176.2109375)"/>
<path d="M0 0 C3.76916441 2.7326442 6.02501042 5.38753126 7.5 9.8125 C7.56937062 12.04068441 7.58457084 14.27084524 7.5625 16.5 C7.55347656 17.67949219 7.54445312 18.85898438 7.53515625 20.07421875 C7.52355469 20.97785156 7.51195312 21.88148438 7.5 22.8125 C5.85 22.4825 4.2 22.1525 2.5 21.8125 C2.47421875 21.14863281 2.4484375 20.48476562 2.421875 19.80078125 C2.06075344 14.17877513 1.56189685 11.00542578 -2.5 6.8125 C-2.5 6.1525 -2.5 5.4925 -2.5 4.8125 C-10.27075426 3.98645493 -10.27075426 3.98645493 -17.0625 7.125 C-20.24986585 10.63927516 -21.71851773 12.82545388 -22.125 17.5 C-22.19976562 18.30824219 -22.27453125 19.11648437 -22.3515625 19.94921875 C-22.40054688 20.56410156 -22.44953125 21.17898437 -22.5 21.8125 C-24.15 22.1425 -25.8 22.4725 -27.5 22.8125 C-27.9707137 15.69949301 -28.10339001 9.59289314 -23.5 3.8125 C-17.0198984 -2.57413859 -8.31678711 -2.82176705 0 0 Z " fill="#161211" transform="translate(220.5,176.1875)"/>
<path d="M0 0 C3 1.5 3 1.5 6 3 C6 3.66 6 4.32 6 5 C5.34 5 4.68 5 4 5 C3.814375 5.99 3.814375 5.99 3.625 7 C3.41875 7.99 3.2125 8.98 3 10 C2.81630859 10.94166016 2.81630859 10.94166016 2.62890625 11.90234375 C0.96649494 19.56708971 -2.83687753 24.84821157 -9.0859375 29.58203125 C-15.33180451 32.62124 -24.43595433 33.18801522 -31 31 C-31.0825 31.78375 -31.165 32.5675 -31.25 33.375 C-32 36 -32 36 -34.0625 37.3125 C-35.0215625 37.6528125 -35.0215625 37.6528125 -36 38 C-35.525625 37.360625 -35.05125 36.72125 -34.5625 36.0625 C-32.52968613 32.07818481 -32.2789471 28.41505926 -32 24 C-30.700625 24.226875 -29.40125 24.45375 -28.0625 24.6875 C-23.46593441 25.22316276 -20.28583802 24.34688593 -16.01953125 22.703125 C-13.61032951 21.86433136 -11.53238278 21.7549307 -9 22 C-8.731875 21.401875 -8.46375 20.80375 -8.1875 20.1875 C-6.99427577 17.98945536 -5.75321129 16.75321129 -4 15 C-0.3891126 10.41695061 -0.31664954 5.62325915 0 0 Z " fill="#ECAB1B" transform="translate(236,188)"/>
<path d="M0 0 C0.99 0 1.98 0 3 0 C3.33 1.65 3.66 3.3 4 5 C4.598125 4.67 5.19625 4.34 5.8125 4 C8.08265873 2.96221315 9.51971711 3 12 3 C12.66 2.67 13.32 2.34 14 2 C22.21394108 1.43276901 29.41820285 1.70705844 37 5 C38.010625 5.391875 39.02125 5.78375 40.0625 6.1875 C41.0215625 6.5896875 41.0215625 6.5896875 42 7 C42 7.66 42 8.32 42 9 C39.43923903 9.67404284 36.87673417 10.339414 34.3125 11 C33.59126953 11.19078125 32.87003906 11.3815625 32.12695312 11.578125 C28.33149039 12.54865428 24.95384561 13.24955239 21 13 C21 12.34 21 11.68 21 11 C20.27296875 10.87882812 19.5459375 10.75765625 18.796875 10.6328125 C11.53125 9.421875 4.265625 8.2109375 -3 7 C-2.67 5.68 -2.34 4.36 -2 3 C-1.34 3 -0.68 3 0 3 C0 2.01 0 1.02 0 0 Z " fill="#84796E" transform="translate(228,115)"/>
<path d="M0 0 C0.33 0 0.66 0 1 0 C1.11097627 6.76261649 0.69258682 13.33785639 0 20.0625 C-0.09539062 21.02349609 -0.19078125 21.98449219 -0.2890625 22.97460938 C-0.5221192 25.31682923 -0.75916349 27.65856955 -1 30 C1.51083114 28.74458443 1.87125446 27.49936512 3 25 C2.20096378 34.74824187 0.57475983 44.353358 -1 54 C-2.65614657 54.38218767 -4.32457024 54.71395102 -6 55 C-7.57320272 53.42679728 -7.32942336 51.70811236 -7.53515625 49.52734375 C-7.62216797 48.62822266 -7.70917969 47.72910156 -7.79882812 46.80273438 C-7.9293457 45.38444336 -7.9293457 45.38444336 -8.0625 43.9375 C-8.15337891 42.98810547 -8.24425781 42.03871094 -8.33789062 41.06054688 C-8.56256498 38.70737865 -8.78308182 36.35389381 -9 34 C-8.34 34.33 -7.68 34.66 -7 35 C-6.67 31.7 -6.34 28.4 -6 25 C-5.34 25.66 -4.68 26.32 -4 27 C-2.59613257 18.00927453 -1.2698535 9.01055619 0 0 Z " fill="#2A2525" transform="translate(253,296)"/>
<path d="M0 0 C2.77995077 1.42754229 3.75854823 2.27564468 4.75 5.25 C5.04665662 8.5132228 5.06421172 11.72520212 5 15 C5.61875 14.835 6.2375 14.67 6.875 14.5 C11.25470729 13.79924683 15.57428989 13.92265749 20 14 C20 14.33 20 14.66 20 15 C15.545 15.495 15.545 15.495 11 16 C10.67 17.98 10.34 19.96 10 22 C9.34 22 8.68 22 8 22 C8 20.35 8 18.7 8 17 C7.01 17 6.02 17 5 17 C5 18.98 5 20.96 5 23 C2.69 23 0.38 23 -2 23 C-2 17.72 -2 12.44 -2 7 C-2.99 7.66 -3.98 8.32 -5 9 C-7.6875 9.125 -7.6875 9.125 -10 9 C-10.33 7.35 -10.66 5.7 -11 4 C-7.3055927 0.52291078 -5.10370591 -0.76012641 0 0 Z " fill="#DD9C2B" transform="translate(248,270)"/>
<path d="M0 0 C3.65958361 0.34042638 5.58877085 0.65203687 8.4375 3.0625 C11.87394551 5.66078807 13.74826579 5.35431118 18 5 C18.70382813 4.86335937 19.40765625 4.72671875 20.1328125 4.5859375 C26.01766084 3.5401979 28.95133948 4.55130305 33.859375 7.96875 C36.64947449 9.31288552 38.08758404 8.88722605 41 8 C41.66 7.67 42.32 7.34 43 7 C44.54023996 6.93049459 46.08334988 6.91547643 47.625 6.9375 C48.85089844 6.95103516 48.85089844 6.95103516 50.1015625 6.96484375 C50.72804687 6.97644531 51.35453125 6.98804688 52 7 C52.495 8.485 52.495 8.485 53 10 C49.77390955 11.07536348 47.37822416 11.14375422 44 11 C43.34 10.67 42.68 10.34 42 10 C42 10.66 42 11.32 42 12 C37.68758813 13.00928788 35.1587411 13.24090247 31.0625 11.5 C26.571352 9.74192668 22.79568459 10.22805051 18.125 10.8125 C12.08203759 11.50848501 8.48565665 10.74699044 3.5 7.0625 C1.96582822 5.74717331 0.45182802 4.40568942 -1 3 C-0.67 2.01 -0.34 1.02 0 0 Z " fill="#B3ACA4" transform="translate(88,146)"/>
<path d="M0 0 C0 0.66 0 1.32 0 2 C-0.66 2 -1.32 2 -2 2 C-2.04125 2.5775 -2.0825 3.155 -2.125 3.75 C-3.52637053 7.35352422 -5.59268672 8.29634336 -9 10 C-12.79150334 10.51928657 -16.47127664 10.28428891 -20.2265625 9.5859375 C-26.24627581 8.50111284 -29.29159783 9.87697632 -34.56640625 12.84765625 C-38.27122474 14.6019443 -40.9607291 14.43277902 -45 14 C-45.66 13.67 -46.32 13.34 -47 13 C-47 12.34 -47 11.68 -47 11 C-49.64 11 -52.28 11 -55 11 C-55 10.34 -55 9.68 -55 9 C-50.77607409 6.89199945 -47.94339747 7.0130785 -43.3125 7.625 C-38.5331769 8.07073998 -35.43131682 8.1495028 -31.125 6 C-26.56978136 3.76009944 -22.79647669 4.02224174 -17.875 4.5625 C-12.99044865 5.09305942 -9.38692401 5.36230409 -5.125 2.5625 C-4.26261719 1.85287109 -4.26261719 1.85287109 -3.3828125 1.12890625 C-2 0 -2 0 0 0 Z " fill="#949191" transform="translate(264,145)"/>
<path d="M0 0 C0.99 0 1.98 0 3 0 C3 1.65 3 3.3 3 5 C3.66 5 4.32 5 5 5 C5.33 3.68 5.66 2.36 6 1 C6.99 1.33 7.98 1.66 9 2 C8.39969169 9.30191376 7.29701918 16.42867584 5.9375 23.625 C5.75123047 24.62917969 5.56496094 25.63335937 5.37304688 26.66796875 C4.91902767 29.11268755 4.46129456 31.55664548 4 34 C3.34 34 2.68 34 2 34 C1.505 36.475 1.505 36.475 1 39 C0.34 39 -0.32 39 -1 39 C-1.09840293 33.95958327 -1.05199138 29.0145696 -0.5 24 C0.31702168 16.0254081 0.07926399 8.00566312 0 0 Z " fill="#130F0E" transform="translate(253,287)"/>
<path d="M0 0 C0.33 0 0.66 0 1 0 C1.02578125 0.61488281 1.0515625 1.22976563 1.078125 1.86328125 C1.31191482 6.82713021 1.31191482 6.82713021 3.6875 11 C6.4468582 12.19323598 9.02047933 12.66141811 12 13 C12 13.33 12 13.66 12 14 C7.2723348 14.76148334 2.74971283 15.12243894 -2.03686523 15.11352539 C-2.70113022 15.11367142 -3.3653952 15.11381744 -4.04978943 15.1139679 C-6.21942549 15.11327785 -8.38897291 15.10552854 -10.55859375 15.09765625 C-12.07316542 15.09578884 -13.58773769 15.09436646 -15.10231018 15.09336853 C-19.06918027 15.0895688 -23.03601316 15.07976051 -27.00286865 15.06866455 C-31.05854794 15.05839546 -35.1142333 15.05385918 -39.16992188 15.04882812 C-47.11329823 15.03813573 -55.05664447 15.02109021 -63 15 C-63 14.34 -63 13.68 -63 13 C-62.03860107 13.00507568 -61.07720215 13.01015137 -60.08666992 13.01538086 C-50.84955824 13.04880864 -41.62817466 12.92100333 -32.39575195 12.62768555 C-30.2750194 12.56132722 -28.15415505 12.50224105 -26.03320312 12.44335938 C-24.66404913 12.40147636 -23.29490786 12.35917494 -21.92578125 12.31640625 C-20.71317627 12.27974854 -19.50057129 12.24309082 -18.2512207 12.20532227 C-15.39362107 12.0248581 -12.78986416 11.60723442 -10 11 C-6.65963676 10.87808893 -3.34435659 10.95540858 0 11 C0 7.37 0 3.74 0 0 Z " fill="#C7B8A6" transform="translate(215,278)"/>
<path d="M0 0 C2.28571429 8.42857143 2.28571429 8.42857143 2 13 C1.34 13 0.68 13 0 13 C-0.144375 12.236875 -0.28875 11.47375 -0.4375 10.6875 C-2.55493545 7.04551103 -4.72216838 6.48989984 -8.6796875 5.3828125 C-12.1082373 4.8171595 -14.0181433 5.2250853 -17 7 C-18.0650015 8.96615661 -19.06833174 10.96726926 -20 13 C-22.1875 14.375 -22.1875 14.375 -24 15 C-24 14.34 -24 13.68 -24 13 C-25.65 12.67 -27.3 12.34 -29 12 C-29 11.34 -29 10.68 -29 10 C-29.66 10 -30.32 10 -31 10 C-30.01800885 7.42092436 -29.37537145 6.22004533 -26.9609375 4.8046875 C-18.39718524 1.72587626 -9.13785186 0 0 0 Z " fill="#A7998C" transform="translate(113,113)"/>
<path d="M0 0 C0.79953138 3.28696233 1.09658936 4.71023192 0 8 C0.99 8.33 1.98 8.66 3 9 C-5.48874164 10.55603775 -14.36982179 12.16998043 -23 11 C-24.8671875 9.48046875 -24.8671875 9.48046875 -26 8 C-25.34 7.67 -24.68 7.34 -24 7 C-23.01 7.33 -22.02 7.66 -21 8 C-21 8.66 -21 9.32 -21 10 C-20.34 10 -19.68 10 -19 10 C-18.67 9.01 -18.34 8.02 -18 7 C-16.35 7 -14.7 7 -13 7 C-12.67 6.01 -12.34 5.02 -12 4 C-12.99 3.67 -13.98 3.34 -15 3 C-15 2.34 -15 1.68 -15 1 C-9.91913204 0.15318867 -5.15171623 -0.09038099 0 0 Z " fill="#DCC8B5" transform="translate(235,291)"/>
<path d="M0 0 C1.9375 0.1875 1.9375 0.1875 4 1 C5.25 3.0625 5.25 3.0625 6 5 C7.65 5 9.3 5 11 5 C11.66 3.68 12.32 2.36 13 1 C14.98 1 16.96 1 19 1 C18.68764998 4.35776271 18.07573228 6.84853543 16.5625 9.875 C13.15101877 12.70403322 10.7575723 12.71513678 6.41796875 12.484375 C4 12 4 12 0.875 9.875 C-1.28299176 6.5660793 -1.52836068 4.87464496 -1 1 C-0.67 0.67 -0.34 0.34 0 0 Z " fill="#83796E" transform="translate(167,231)"/>
<path d="M0 0 C2 0 2 0 4.5625 2.1875 C7.01134483 5.01309018 7.68762137 6.35558268 8 10 C7.01 10.495 7.01 10.495 6 11 C5.3503125 12.2684375 5.3503125 12.2684375 4.6875 13.5625 C3 16 3 16 0.5 16.625 C-2 16 -2 16 -3.5625 13.5 C-4.036875 12.675 -4.51125 11.85 -5 11 C-6.32 11 -7.64 11 -9 11 C-9 10.34 -9 9.68 -9 9 C-7.35 8.67 -5.7 8.34 -4 8 C-6.00032373 6.99983813 -7.83125748 6.50603992 -10 6 C-9.44570312 5.73445312 -8.89140625 5.46890625 -8.3203125 5.1953125 C-7.59585938 4.84210938 -6.87140625 4.48890625 -6.125 4.125 C-5.40570313 3.77695313 -4.68640625 3.42890625 -3.9453125 3.0703125 C-1.84864981 2.03442457 -1.84864981 2.03442457 0 0 Z " fill="#DBCCBB" transform="translate(175,221)"/>
<path d="M0 0 C0.33 0 0.66 0 1 0 C1 3.96 1 7.92 1 12 C0.01 12.33 -0.98 12.66 -2 13 C-3.99888809 22.42332955 -4.21867122 31.42706002 -4 41 C-3.34 41 -2.68 41 -2 41 C-1.87625 42.03125 -1.7525 43.0625 -1.625 44.125 C-0.64064423 50.22800579 1.14778318 58.14778318 5.625 62.625 C7.5411299 64.5411299 7.64515015 66.3741111 8 69 C-2.1989645 60.60085277 -5.45759517 46.4427788 -6.75952148 33.86181641 C-7.75608784 21.68702904 -4.59185991 11.25005678 0 0 Z " fill="#EDE2D6" transform="translate(67,199)"/>
<path d="M0 0 C0.66 0.66 1.32 1.32 2 2 C-5.92 2.495 -5.92 2.495 -14 3 C-14.33 3.99 -14.66 4.98 -15 6 C-19.05762044 9.87318315 -20.27348852 10.8546977 -26 12 C-27.485 17.445 -27.485 17.445 -29 23 C-29.66 23 -30.32 23 -31 23 C-31.2686345 11.83487868 -31.2686345 11.83487868 -28.3984375 7.68359375 C-26.36223785 5.8635929 -24.33544473 4.41143937 -22 3 C-20.989375 2.360625 -19.97875 1.72125 -18.9375 1.0625 C-13.24024752 -1.09393668 -5.95992793 -0.55491469 0 0 Z " fill="#EDA816" transform="translate(216,165)"/>
<path d="M0 0 C-0.58653426 12.05482249 -1.64414404 24.00791473 -3 36 C-3.33 36 -3.66 36 -4 36 C-5.21909314 24.34168208 -6.32614838 12.70373865 -7 1 C-4 0 -4 0 0 0 Z " fill="#080403" transform="translate(253,293)"/>
<path d="M0 0 C0.99 0 1.98 0 3 0 C3 1.98 3 3.96 3 6 C4.05501709 6.02505615 5.11003418 6.0501123 6.19702148 6.07592773 C10.09770628 6.16984109 13.99820625 6.27010034 17.89868164 6.37231445 C19.58939299 6.41572439 21.28014991 6.45739489 22.97094727 6.49731445 C25.39613606 6.55487094 27.82109415 6.61860649 30.24609375 6.68359375 C31.38672523 6.70866249 31.38672523 6.70866249 32.55039978 6.73423767 C37.88612829 6.88612829 37.88612829 6.88612829 39 8 C41.21534624 8.22955099 43.43732247 8.39564785 45.66015625 8.53515625 C46.32462265 8.57813339 46.98908905 8.62111053 47.6736908 8.66539001 C49.80304314 8.80210844 51.93273582 8.93237038 54.0625 9.0625 C55.50328215 9.15387298 56.94403784 9.24566439 58.38476562 9.33789062 C61.9228824 9.5634558 65.46133221 9.78323096 69 10 C69 10.33 69 10.66 69 11 C67.79279297 10.96970703 66.58558594 10.93941406 65.34179688 10.90820312 C33.17510807 10.0853444 33.17510807 10.0853444 1 10 C0.67 6.7 0.34 3.4 0 0 Z " fill="#C29260" transform="translate(153,111)"/>
<path d="M0 0 C1.32 0.66 2.64 1.32 4 2 C4 2.66 4 3.32 4 4 C4.66 3.67 5.32 3.34 6 3 C6 2.01 6 1.02 6 0 C16.2165875 -0.28734152 25.90994238 0.53235526 36 2 C36 2.33 36 2.66 36 3 C34.741875 3.103125 33.48375 3.20625 32.1875 3.3125 C29.39500343 3.64858808 28.25566879 3.80025876 26 5.5625 C25.67 6.036875 25.34 6.51125 25 7 C24.67 6.34 24.34 5.68 24 5 C22.02 5.33 20.04 5.66 18 6 C17.67 4.35 17.34 2.7 17 1 C16.01 1 15.02 1 14 1 C14 1.99 14 2.98 14 4 C13.34 4 12.68 4 12 4 C11.67 5.32 11.34 6.64 11 8 C7.58056494 7.57730231 4.27825654 7.08008783 1 6 C-0.625 3.375 -0.625 3.375 -1 1 C-0.67 0.67 -0.34 0.34 0 0 Z " fill="#93877E" transform="translate(214,114)"/>
<path d="M0 0 C0.33 0.66 0.66 1.32 1 2 C0.22265625 3.8828125 0.22265625 3.8828125 -0.9375 6.125 C-4.17548436 13.11635723 -3.39319372 18.82041883 -1 26 C-1.66 26 -2.32 26 -3 26 C-3.99 23.69 -4.98 21.38 -6 19 C-6 21.97 -6 24.94 -6 28 C-10.50408292 22.51676862 -10.60230838 16.8964309 -10 10 C-9.21553128 6.90317289 -8.20061701 3.95866334 -7 1 C-5.8299903 4.91736581 -6.30415983 7.97959015 -7 12 C-6.34 12 -5.68 12 -5 12 C-4.814375 10.39125 -4.814375 10.39125 -4.625 8.75 C-4.10280215 5.6168129 -3.70882871 3.61350274 -2 1 C-1.34 0.67 -0.68 0.34 0 0 Z " fill="#EAB226" transform="translate(192,176)"/>
<path d="M0 0 C2.475 0.99 2.475 0.99 5 2 C4.38722388 4.96175123 3.74627478 6.38058783 2 9 C1.56261304 10.71444889 1.19151312 12.44667784 0.875 14.1875 C0.70742187 15.08855469 0.53984375 15.98960937 0.3671875 16.91796875 C0.24601563 17.60503906 0.12484375 18.29210937 0 19 C-1.65 19 -3.3 19 -5 19 C-5.64897681 11.15459142 -4.98643115 6.21523025 0 0 Z " fill="#1B1616" transform="translate(132,179)"/>
<path d="M0 0 C3.61602011 0.33637396 5.59010005 0.66367184 8.4375 3 C11.61094967 5.47683877 14.04373265 5.68970452 18 6 C16.68 6.99 15.36 7.98 14 9 C15.98 9 17.96 9 20 9 C20.33 8.34 20.66 7.68 21 7 C22.98 7 24.96 7 27 7 C27 7.66 27 8.32 27 9 C28.32 9.33 29.64 9.66 31 10 C30.67 10.66 30.34 11.32 30 12 C29.49597656 11.65195313 28.99195312 11.30390625 28.47265625 10.9453125 C25.58888525 9.84282817 23.52839544 10.15796119 20.515625 10.58618164 C13.53894891 11.55580192 9.40832086 11.4495627 3.5 7.0625 C1.96582822 5.74717331 0.45182802 4.40568942 -1 3 C-0.67 2.01 -0.34 1.02 0 0 Z " fill="#B7AFA6" transform="translate(88,146)"/>
<path d="M0 0 C0.66 0 1.32 0 2 0 C3.93259489 11.66459058 5.60648146 24.27083343 3 36 C2.01 36.495 2.01 36.495 1 37 C-0.85154567 32.93126728 -1.54646296 29.10917594 -2.125 24.6875 C-2.29257813 23.43324219 -2.46015625 22.17898438 -2.6328125 20.88671875 C-2.75398437 19.93410156 -2.87515625 18.98148437 -3 18 C-1 20 -1 20 -0.5 22.5625 C-0.335 23.366875 -0.17 24.17125 0 25 C0.66 25.33 1.32 25.66 2 26 C1.93941406 25.42556152 1.87882813 24.85112305 1.81640625 24.25927734 C1.54108082 21.63150793 1.27050345 19.00326998 1 16.375 C0.90460938 15.47136719 0.80921875 14.56773437 0.7109375 13.63671875 C0.24420109 9.06936961 -0.12222799 4.59882812 0 0 Z " fill="#1D1918" transform="translate(244,295)"/>
<path d="M0 0 C0.66 0.33 1.32 0.66 2 1 C8.08516056 1.23333287 8.08516056 1.23333287 14 0 C14 0.66 14 1.32 14 2 C10.53846154 5 10.53846154 5 8 5 C8 4.34 8 3.68 8 3 C7.01 3.495 7.01 3.495 6 4 C6.33 5.32 6.66 6.64 7 8 C4.69 7.67 2.38 7.34 0 7 C0 6.34 0 5.68 0 5 C-3.3 5 -6.6 5 -10 5 C-10.33 4.01 -10.66 3.02 -11 2 C-6.94641576 -0.70238949 -4.81689896 -0.22937614 0 0 Z " fill="#E4D3BD" transform="translate(217,157)"/>
<path d="M0 0 C5.0216386 0.57567397 5.0216386 0.57567397 9.875 -0.4375 C9.875 1.2125 9.875 2.8625 9.875 4.5625 C5.95988397 7.17257735 2.4230334 6.78256613 -2.125 6.5625 C-2.785 6.2325 -3.445 5.9025 -4.125 5.5625 C-4.125 4.9025 -4.125 4.2425 -4.125 3.5625 C-6.765 3.5625 -9.405 3.5625 -12.125 3.5625 C-12.125 2.9025 -12.125 2.2425 -12.125 1.5625 C-7.8408456 -0.5795772 -4.71892489 -0.48591902 0 0 Z " fill="#A9A49E" transform="translate(221.125,152.4375)"/>
<path d="M0 0 C3.3 0 6.6 0 10 0 C9.67 2.64 9.34 5.28 9 8 C8.01 7.67 7.02 7.34 6 7 C6 6.01 6 5.02 6 4 C5.01 4 4.02 4 3 4 C3.350625 5.2375 3.70125 6.475 4.0625 7.75 C4.95593273 10.903292 5.00881294 12.86774164 4 16 C4 15.34 4 14.68 4 14 C3.01 14 2.02 14 1 14 C1 11.69 1 9.38 1 7 C-1.97 6.505 -1.97 6.505 -5 6 C-4.67 5.01 -4.34 4.02 -4 3 C-3.01 3 -2.02 3 -1 3 C-0.67 2.01 -0.34 1.02 0 0 Z " fill="#9E9389" transform="translate(234,285)"/>
<path d="M0 0 C5.75 -0.125 5.75 -0.125 8 1 C7.67 4.96 7.34 8.92 7 13 C5.35 13.33 3.7 13.66 2 14 C0.12175109 12.12175109 0.60897603 8.96064724 0.4375 6.4375 C0.35371094 5.23996094 0.26992187 4.04242188 0.18359375 2.80859375 C0.12300781 1.88175781 0.06242188 0.95492188 0 0 Z " fill="#4B4642" transform="translate(245,337)"/>
<path d="M0 0 C0.33 0 0.66 0 1 0 C1.03867188 0.92232422 1.03867188 0.92232422 1.078125 1.86328125 C1.31191482 6.82713021 1.31191482 6.82713021 3.6875 11 C6.4468582 12.19323598 9.02047933 12.66141811 12 13 C12 13.33 12 13.66 12 14 C6.47291389 14.94220126 1.16241648 15.12116149 -4.4375 15.0625 C-5.26443359 15.05798828 -6.09136719 15.05347656 -6.94335938 15.04882812 C-8.96227146 15.03715811 -10.98114574 15.01922718 -13 15 C-11.82421875 13.015625 -11.82421875 13.015625 -10 11 C-6.59576078 10.46389934 -3.46656123 10.8199189 0 11 C0 7.37 0 3.74 0 0 Z " fill="#C0B3A3" transform="translate(215,278)"/>
<path d="M0 0 C0.33 1.32 0.66 2.64 1 4 C1.99 3.67 2.98 3.34 4 3 C4.33 4.32 4.66 5.64 5 7 C5.61875 6.835 6.2375 6.67 6.875 6.5 C11.25470729 5.79924683 15.57428989 5.92265749 20 6 C20 6.33 20 6.66 20 7 C15.545 7.495 15.545 7.495 11 8 C10.67 9.98 10.34 11.96 10 14 C9.34 14 8.68 14 8 14 C8 12.35 8 10.7 8 9 C7.01 9 6.02 9 5 9 C4.67 10.65 4.34 12.3 4 14 C2.68 14 1.36 14 0 14 C-0.77916092 8.97874074 -1.13016601 5.02296004 0 0 Z " fill="#ECAB17" transform="translate(248,278)"/>
<path d="M0 0 C-3 2 -3 2 -5 2 C-5 2.66 -5 3.32 -5 4 C-3.576875 3.690625 -3.576875 3.690625 -2.125 3.375 C-1.09375 3.25125 -0.0625 3.1275 1 3 C1.66 3.66 2.32 4.32 3 5 C1.081875 5.12375 1.081875 5.12375 -0.875 5.25 C-3.05333418 5.45869931 -3.05333418 5.45869931 -5 6 C-6.5899433 7.92064793 -6.5899433 7.92064793 -7 10 C-7.66 10 -8.32 10 -9 10 C-9 9.34 -9 8.68 -9 8 C-9.99 8.495 -9.99 8.495 -11 9 C-16.53768635 9.42145224 -20.87312481 9.15868429 -26 7 C-28.69175244 6.82764674 -31.29847954 6.90842304 -34 7 C-33.67 6.34 -33.34 5.68 -33 5 C-30.03168918 4.19921838 -27.07029846 3.9346745 -24 4 C-22.63266972 4.95298777 -21.29735507 5.95374591 -20 7 C-15.19380278 7.38144422 -11.28644118 7.46795098 -7 5 C-6.67 4.01 -6.34 3.02 -6 2 C-6.99 1.67 -7.98 1.34 -9 1 C-6.04335481 -0.4783226 -3.25770263 -0.06032783 0 0 Z " fill="#C2B8AD" transform="translate(214,152)"/>
<path d="M0 0 C1.98 0 3.96 0 6 0 C5.68764998 3.35776271 5.07573228 5.84853543 3.5625 8.875 C-0.32525257 12.09898994 -4.14106433 11.41727501 -9 11 C-9 10.67 -9 10.34 -9 10 C-4.545 9.505 -4.545 9.505 0 9 C-1.98 8.01 -3.96 7.02 -6 6 C-5.38125 5.7525 -4.7625 5.505 -4.125 5.25 C-1.64931313 3.79371361 -1.04874998 2.62187494 0 0 Z " fill="#90857A" transform="translate(180,232)"/>
<path d="M0 0 C2 2 2 2 2 6 C10.96175203 5.87164157 17.57121194 5.53517541 25 0 C25.66 0.33 26.32 0.66 27 1 C23.5116877 5.09876695 21.47640951 6.7529514 16.078125 7.65625 C5.51081731 8.50360577 5.51081731 8.50360577 1 7 C0.9175 7.78375 0.835 8.5675 0.75 9.375 C0 12 0 12 -2.0625 13.3125 C-3.0215625 13.6528125 -3.0215625 13.6528125 -4 14 C-3.525625 13.360625 -3.05125 12.72125 -2.5625 12.0625 C-0.52968613 8.07818481 -0.2789471 4.41505926 0 0 Z " fill="#CDAE70" transform="translate(204,212)"/>
<path d="M0 0 C1.37061259 4.11183777 1.76298914 8.09252716 0.125 12.1875 C-0.24625 12.785625 -0.6175 13.38375 -1 14 C-2.36910433 16.4815016 -3.17025819 18.61292948 -3.9375 21.375 C-4.9577659 24.85590719 -6.28927715 27.81183468 -8 31 C-8.66 31 -9.32 31 -10 31 C-10.33 30.01 -10.66 29.02 -11 28 C-10.03712802 26.63961207 -9.02887809 25.31117797 -8 24 C-4.87612048 17.15898194 -2.55709972 10.25401829 -1.359375 2.828125 C-1 1 -1 1 0 0 Z " fill="#EFE5D9" transform="translate(87,151)"/>
<path d="M0 0 C3.87555857 0.11042245 7.75019332 0.24092364 11.625 0.375 C12.71941406 0.4059375 13.81382813 0.436875 14.94140625 0.46875 C20.28856459 0.66319212 25.01073016 0.84673618 30 3 C30 3.33 30 3.66 30 4 C19.75573889 4.2615556 10.12062972 3.60781635 0 2 C0 1.34 0 0.68 0 0 Z " fill="#C7B9AA" transform="translate(113,288)"/>
<path d="M0 0 C2.28571429 8.42857143 2.28571429 8.42857143 2 13 C1.34 13 0.68 13 0 13 C-0.185625 12.236875 -0.37125 11.47375 -0.5625 10.6875 C-2.63445622 6.81384272 -4.92286538 6.43454737 -9 5 C-8.67 3.68 -8.34 2.36 -8 1 C-2.25 0 -2.25 0 0 0 Z " fill="#A09288" transform="translate(113,113)"/>
<path d="M0 0 C1.0209375 -0.01160156 1.0209375 -0.01160156 2.0625 -0.0234375 C7.12155878 -0.00344122 7.12155878 -0.00344122 9.375 2.25 C8.23160156 2.29898438 7.08820313 2.34796875 5.91015625 2.3984375 C4.41924527 2.47345189 2.92836108 2.54900028 1.4375 2.625 C0.30538086 2.67140625 0.30538086 2.67140625 -0.84960938 2.71875 C-2.78007395 2.8226315 -4.70442081 3.02895614 -6.625 3.25 C-6.955 3.91 -7.285 4.57 -7.625 5.25 C-9.47265625 5.8828125 -9.47265625 5.8828125 -11.6875 6.375 C-12.42097656 6.54257813 -13.15445313 6.71015625 -13.91015625 6.8828125 C-14.47605469 7.00398437 -15.04195312 7.12515625 -15.625 7.25 C-15.295 6.59 -14.965 5.93 -14.625 5.25 C-13.965 5.25 -13.305 5.25 -12.625 5.25 C-12.295 4.26 -11.965 3.27 -11.625 2.25 C-8.11624063 -0.34267933 -4.18095347 -0.04805694 0 0 Z " fill="#EFA10B" transform="translate(208.625,164.75)"/>
<path d="M0 0 C3.29944421 2.98521143 5.73545888 6.14821218 6.375 10.625 C6.78328768 13.25752091 6.78328768 13.25752091 9.5 14.625 C10.7375 15.305625 10.7375 15.305625 12 16 C13 19 13 19 12.375 21.125 C11 23 11 23 8.375 23.75 C7.59125 23.8325 6.8075 23.915 6 24 C6 23.01 6 22.02 6 21 C7.32 21 8.64 21 10 21 C10 19.35 10 17.7 10 16 C8.35 15.67 6.7 15.34 5 15 C4.67 12.36 4.34 9.72 4 7 C3.34 7 2.68 7 2 7 C1.34 4.69 0.68 2.38 0 0 Z " fill="#E1BD6E" transform="translate(234,173)"/>
<path d="M0 0 C-0.33 0.66 -0.66 1.32 -1 2 C-3.06640625 2.6328125 -3.06640625 2.6328125 -5.5625 3.125 C-6.80193359 3.37636719 -6.80193359 3.37636719 -8.06640625 3.6328125 C-8.70449219 3.75398437 -9.34257812 3.87515625 -10 4 C-10 4.66 -10 5.32 -10 6 C-12.82883747 7.41441874 -14.87376745 7.31900332 -18 7 C-19.875 5 -19.875 5 -21 3 C-18 2 -18 2 -15 3 C-15 3.66 -15 4.32 -15 5 C-14.34 5 -13.68 5 -13 5 C-12.67 4.01 -12.34 3.02 -12 2 C-8.02584132 -0.22085338 -4.4785979 -0.17563129 0 0 Z " fill="#A8A39D" transform="translate(163,155)"/>
<path d="M0 0 C-0.33 1.32 -0.66 2.64 -1 4 C-7.5344529 6.09102493 -12.53816611 7.04086301 -19 4 C-18.67 3.34 -18.34 2.68 -18 2 C-15.03 2.495 -15.03 2.495 -12 3 C-12 3.66 -12 4.32 -12 5 C-10.68 4.67 -9.36 4.34 -8 4 C-8 3.34 -8 2.68 -8 2 C-4.91190305 0.23537317 -3.76687864 0 0 0 Z " fill="#ABA69F" transform="translate(208,154)"/>
<path d="M0 0 C1.03273985 3.47306587 0.77783881 6.12881475 0.26171875 9.71484375 C-0.39455429 15.44498896 -0.4936539 21.39879787 1 27 C-3.50408292 21.51676862 -3.60230838 15.8964309 -3 9 C-2.21553128 5.90317289 -1.20061701 2.95866334 0 0 Z " fill="#E7BB4F" transform="translate(185,177)"/>
<path d="M0 0 C0.66 0.33 1.32 0.66 2 1 C3.00496852 4.01490557 3.10335303 6.04181692 3.0625 9.1875 C3.05347656 10.08855469 3.04445312 10.98960937 3.03515625 11.91796875 C3.02355469 12.60503906 3.01195312 13.29210937 3 14 C2.01 13.67 1.02 13.34 0 13 C-1.48882438 8.92532275 -2.26270217 5.33458585 -2 1 C-1.34 0.67 -0.68 0.34 0 0 Z " fill="#070303" transform="translate(243,307)"/>
<path d="M0 0 C2.65197976 2.65197976 2.95942417 4.48265812 3.25 8.1875 C2.94925138 12.77391645 1.87671052 15.81349192 0 20 C-0.66 20.33 -1.32 20.66 -2 21 C-1.44661458 19.01432292 -0.89322917 17.02864583 -0.33984375 15.04296875 C0.19563817 12.80755841 0.19563817 12.80755841 -1 10 C-0.70764733 7.66117862 -0.37400786 5.32716 0 3 C0 2.01 0 1.02 0 0 Z " fill="#F1DEC0" transform="translate(231,182)"/>
<path d="M0 0 C0.33 0 0.66 0 1 0 C1.02578125 0.61488281 1.0515625 1.22976563 1.078125 1.86328125 C1.31191482 6.82713021 1.31191482 6.82713021 3.6875 11 C6.4468582 12.19323598 9.02047933 12.66141811 12 13 C12 13.33 12 13.66 12 14 C7.05 14 2.1 14 -3 14 C-3 13.34 -3 12.68 -3 12 C-2.01 12 -1.02 12 0 12 C0 8.04 0 4.08 0 0 Z " fill="#ABA095" transform="translate(215,278)"/>
<path d="M0 0 C2.375 1.5 2.375 1.5 4 3 C3.67 3.66 3.34 4.32 3 5 C2.67 4.67 2.34 4.34 2 4 C0.48530552 3.76807135 -1.03754562 3.58784762 -2.5625 3.4375 C-3.38878906 3.35371094 -4.21507812 3.26992188 -5.06640625 3.18359375 C-5.70449219 3.12300781 -6.34257812 3.06242187 -7 3 C-7.33 3.99 -7.66 4.98 -8 6 C-8.99 6.33 -9.98 6.66 -11 7 C-10.63802104 4.37565253 -10.17343943 3.17986311 -8.3125 1.25 C-5.2912009 -0.38313465 -3.39266095 -0.42408262 0 0 Z " fill="#E6B94B" transform="translate(248,270)"/>
<path d="M0 0 C0.99 0.33 1.98 0.66 3 1 C3 2.65 3 4.3 3 6 C3.66 6 4.32 6 5 6 C5.33 4.68 5.66 3.36 6 2 C6.66 2 7.32 2 8 2 C8 3.65 8 5.3 8 7 C4.7 7 1.4 7 -2 7 C-1.34 4.69 -0.68 2.38 0 0 Z " fill="#DFCDBA" transform="translate(207,282)"/>
<path d="M0 0 C0.66 0.33 1.32 0.66 2 1 C1.67 4.63 1.34 8.26 1 12 C-0.32 12 -1.64 12 -3 12 C-3.36923077 4.61538462 -3.36923077 4.61538462 -1.5 1.5 C-1.005 1.005 -0.51 0.51 0 0 Z " fill="#0E0909" transform="translate(197,186)"/>
<path d="M0 0 C1.98 0 3.96 0 6 0 C6 1.98 6 3.96 6 6 C4.34385343 6.38218767 2.67542976 6.71395102 1 7 C0 6 0 6 -0.0625 2.9375 C-0.041875 1.968125 -0.02125 0.99875 0 0 Z " fill="#E9C776" transform="translate(246,344)"/>
<path d="M0 0 C0.66163651 0.0028299 1.32327301 0.00565979 2.00495911 0.00857544 C4.11416862 0.01975332 6.2229505 0.04485269 8.33203125 0.0703125 C9.76366573 0.08034543 11.19530689 0.08947074 12.62695312 0.09765625 C16.13295102 0.11968455 19.63869938 0.15419765 23.14453125 0.1953125 C23.14453125 0.5253125 23.14453125 0.8553125 23.14453125 1.1953125 C21.94908691 1.2250415 21.94908691 1.2250415 20.72949219 1.25537109 C17.11750653 1.35064498 13.50609726 1.46031557 9.89453125 1.5703125 C8.01314453 1.61671875 8.01314453 1.61671875 6.09375 1.6640625 C4.88847656 1.70273438 3.68320313 1.74140625 2.44140625 1.78125 C0.77609863 1.82838135 0.77609863 1.82838135 -0.92285156 1.87646484 C-3.74411917 2.18320606 -5.45246965 2.73817475 -7.85546875 4.1953125 C-8.51546875 3.5353125 -9.17546875 2.8753125 -9.85546875 2.1953125 C-6.1761743 -0.25755046 -4.38168968 -0.03697628 0 0 Z " fill="#E7D2B0" transform="translate(167.85546875,132.8046875)"/>
<path d="M0 0 C2 1 4 2 6 3 C6 3.66 6 4.32 6 5 C5.071875 5.309375 5.071875 5.309375 4.125 5.625 C1.15346355 7.54775888 0.86975341 9.66594527 0 13 C-0.66 13 -1.32 13 -2 13 C-1.34 8.71 -0.68 4.42 0 0 Z " fill="#F09F0A" transform="translate(236,188)"/>
<path d="M0 0 C0.66 0 1.32 0 2 0 C3.11165232 4.4378561 3.11527763 8.76956386 3.0625 13.3125 C3.05798828 14.05306641 3.05347656 14.79363281 3.04882812 15.55664062 C3.03712175 17.37112899 3.01918898 19.18557534 3 21 C2.67 21 2.34 21 2 21 C1.6616656 18.62561751 1.32920998 16.25065041 1 13.875 C0.90460938 13.20984375 0.80921875 12.5446875 0.7109375 11.859375 C0.16388547 7.87371019 -0.10022182 4.02140062 0 0 Z " fill="#272323" transform="translate(244,295)"/>
<path d="M0 0 C0 0.66 0 1.32 0 2 C3.63 2 7.26 2 11 2 C11 2.66 11 3.32 11 4 C3.58982977 4.11459026 -3.64206267 3.91160286 -11 3 C-7.63114177 -0.36885823 -4.54278442 -0.10095076 0 0 Z " fill="#EBE0D3" transform="translate(136,299)"/>
<path d="M0 0 C0.99 0 1.98 0 3 0 C3.66 1.98 4.32 3.96 5 6 C4.34 6.66 3.68 7.32 3 8 C-0.125 7.625 -0.125 7.625 -3 7 C-2.67 5.68 -2.34 4.36 -2 3 C-1.34 3 -0.68 3 0 3 C0 2.01 0 1.02 0 0 Z " fill="#8A7F74" transform="translate(228,115)"/>
<path d="M0 0 C0 0.66 0 1.32 0 2 C-3.46153846 5 -3.46153846 5 -6 5 C-6 4.34 -6 3.68 -6 3 C-6.99 3.495 -6.99 3.495 -8 4 C-7.67 5.32 -7.34 6.64 -7 8 C-9.31 7.67 -11.62 7.34 -14 7 C-12.68 6.34 -11.36 5.68 -10 5 C-10 4.01 -10 3.02 -10 2 C-8.7090864 1.66376204 -7.41723903 1.33110751 -6.125 1 C-5.40570313 0.814375 -4.68640625 0.62875 -3.9453125 0.4375 C-2 0 -2 0 0 0 Z " fill="#D3C3B4" transform="translate(231,157)"/>
<path d="M0 0 C1.32 0.33 2.64 0.66 4 1 C4 1.66 4 2.32 4 3 C4.66 3 5.32 3 6 3 C6.33 2.34 6.66 1.68 7 1 C8.5625 2.1875 8.5625 2.1875 10 4 C9.6875 6.6875 9.6875 6.6875 9 9 C7.82780457 8.21654285 6.66236332 7.42297164 5.5 6.625 C4.8503125 6.18414062 4.200625 5.74328125 3.53125 5.2890625 C3.0259375 4.86367187 2.520625 4.43828125 2 4 C2 3.34 2 2.68 2 2 C1.34 2 0.68 2 0 2 C0 1.34 0 0.68 0 0 Z " fill="#DFC49B" transform="translate(225,164)"/>
<path d="M0 0 C0 0.33 0 0.66 0 1 C-4.455 1.495 -4.455 1.495 -9 2 C-9.33 3.98 -9.66 5.96 -10 8 C-10.66 8 -11.32 8 -12 8 C-12 6.35 -12 4.7 -12 3 C-13.32 3.33 -14.64 3.66 -16 4 C-15.67 3.01 -15.34 2.02 -15 1 C-10.03926578 -0.32286246 -5.08888488 -0.08893197 0 0 Z " fill="#EDE2D4" transform="translate(268,284)"/>
<path d="M0 0 C4.46127184 2.49831223 8.87011532 4.97813316 13 8 C13 8.66 13 9.32 13 10 C11.35 10 9.7 10 8 10 C7.6596875 9.071875 7.6596875 9.071875 7.3125 8.125 C6.14688017 5.76128418 6.14688017 5.76128418 3.4375 5 C2.633125 4.67 1.82875 4.34 1 4 C0.1875 1.875 0.1875 1.875 0 0 Z " fill="#D1BDA4" transform="translate(244,266)"/>
<path d="M0 0 C0.33 0 0.66 0 1 0 C1 1.65 1 3.3 1 5 C1.66 5 2.32 5 3 5 C3.33 3.68 3.66 2.36 4 1 C4.99 1.33 5.98 1.66 7 2 C6.67 5.3 6.34 8.6 6 12 C5.67 12 5.34 12 5 12 C5 10.02 5 8.04 5 6 C3.35 6 1.7 6 0 6 C0 4.02 0 2.04 0 0 Z " fill="#504B49" transform="translate(255,287)"/>
<path d="M0 0 C0.66 0.66 1.32 1.32 2 2 C5.59679066 1.67673447 5.59679066 1.67673447 9 1 C8.67 1.99 8.34 2.98 8 4 C6.35 4.33 4.7 4.66 3 5 C2.855625 5.94875 2.71125 6.8975 2.5625 7.875 C2 11 2 11 1 13 C-1.125 8.375 -1.125 8.375 0 5 C0.03874921 3.33378384 0.0450286 1.66605828 0 0 Z " fill="#CFBEAD" transform="translate(234,249)"/>
<path d="M0 0 C0.33 0.66 0.66 1.32 1 2 C0.2578125 3.91796875 0.2578125 3.91796875 -0.875 6.1875 C-2.76896006 10.22359419 -3.62334987 13.57436094 -4 18 C-4.33 18 -4.66 18 -5 18 C-5.56631283 6.21230336 -5.56631283 6.21230336 -2 1 C-1.34 0.67 -0.68 0.34 0 0 Z " fill="#E9B83A" transform="translate(192,176)"/>
<path d="M0 0 C1.31823302 0.59155331 2.62947051 1.19871463 3.9375 1.8125 C5.03384766 2.31716797 5.03384766 2.31716797 6.15234375 2.83203125 C8 4 8 4 9 7 C10.29355827 8.37195574 11.62298702 9.71182656 13 11 C8.39860359 9.51131293 5.49772906 7.25370145 2 4 C2 3.34 2 2.68 2 2 C1.34 2 0.68 2 0 2 C0 1.34 0 0.68 0 0 Z " fill="#EEE4D8" transform="translate(75,268)"/>
<path d="M0 0 C1.3357457 3.77371512 0.72408671 6.85831347 0.0625 10.75 C-0.13214844 11.92046875 -0.32679688 13.0909375 -0.52734375 14.296875 C-0.68332031 15.18890625 -0.83929688 16.0809375 -1 17 C-1.33 17 -1.66 17 -2 17 C-2.16834933 15.22932584 -2.33461909 13.45845388 -2.5 11.6875 C-2.5928125 10.70136719 -2.685625 9.71523437 -2.78125 8.69921875 C-3 6 -3 6 -3 3 C-1.5 1.3125 -1.5 1.3125 0 0 Z " fill="#D7CEC4" transform="translate(194,181)"/>
<path d="M0 0 C0 0.66 0 1.32 0 2 C-0.7425 1.95875 -1.485 1.9175 -2.25 1.875 C-4.97841527 1.80744481 -4.97841527 1.80744481 -7.0625 3.0625 C-9 4 -9 4 -11.25 3.625 C-11.8275 3.41875 -12.405 3.2125 -13 3 C-8.54984267 0.07561089 -5.22916941 -1.74305647 0 0 Z " fill="#A5A19C" transform="translate(114,152)"/>
<path d="M0 0 C0.66 1.98 1.32 3.96 2 6 C1.38125 5.835 0.7625 5.67 0.125 5.5 C-1.96063386 4.92365356 -1.96063386 4.92365356 -4 5 C-4 4.34 -4 3.68 -4 3 C-4.99 3 -5.98 3 -7 3 C-7 2.34 -7 1.68 -7 1 C-2.25 0 -2.25 0 0 0 Z " fill="#DDC8B7" transform="translate(245,219)"/>
<path d="M0 0 C1.9451 2.91765 2.45276317 4.62537285 3 8 C4.32 8.33 5.64 8.66 7 9 C7 10.65 7 12.3 7 14 C5.68 13.67 4.36 13.34 3 13 C3.66 13 4.32 13 5 13 C5 12.34 5 11.68 5 11 C4.35546875 10.76539063 3.7109375 10.53078125 3.046875 10.2890625 C1 9 1 9 0.390625 6.8359375 C0.34421875 6.02382812 0.2978125 5.21171875 0.25 4.375 C0.19328125 3.55773437 0.1365625 2.74046875 0.078125 1.8984375 C0.05234375 1.27195313 0.0265625 0.64546875 0 0 Z " fill="#EAB62B" transform="translate(237,180)"/>
<path d="M0 0 C2.97 0 5.94 0 9 0 C9 0.99 9 1.98 9 3 C6.69 3.33 4.38 3.66 2 4 C2 3.01 2 2.02 2 1 C1.34 0.67 0.68 0.34 0 0 Z " fill="#959292" transform="translate(220,155)"/>
<path d="M0 0 C0.66 0.33 1.32 0.66 2 1 C2 4.96 2 8.92 2 13 C-0.36453193 10.63546807 -0.36652704 9.74130071 -0.6875 6.5 C-0.77386719 5.7059375 -0.86023438 4.911875 -0.94921875 4.09375 C-1 2 -1 2 0 0 Z " fill="#F2E9DE" transform="translate(190,186)"/>
<path d="M0 0 C6.19518473 0.41588046 11.26689311 1.60251894 17 4 C15.02 4.99 15.02 4.99 13 6 C13 5.34 13 4.68 13 4 C12.31292969 3.96261719 11.62585938 3.92523438 10.91796875 3.88671875 C10.01691406 3.82097656 9.11585938 3.75523437 8.1875 3.6875 C6.84751953 3.60048828 6.84751953 3.60048828 5.48046875 3.51171875 C2.69396 2.93686419 1.75864246 2.1793144 0 0 Z " fill="#C2B8AD" transform="translate(183,153)"/>
<path d="M0 0 C1.2065625 0.0309375 1.2065625 0.0309375 2.4375 0.0625 C1.4475 0.7225 0.4575 1.3825 -0.5625 2.0625 C1.9125 3.0525 1.9125 3.0525 4.4375 4.0625 C0.88128864 5.24790379 -0.89958859 4.69646544 -4.5625 4.0625 C-6.89552989 4.02487049 -9.22963319 4.01584266 -11.5625 4.0625 C-11.5625 3.7325 -11.5625 3.4025 -11.5625 3.0625 C-10.99660156 2.92972656 -10.43070312 2.79695312 -9.84765625 2.66015625 C-8.74744141 2.39525391 -8.74744141 2.39525391 -7.625 2.125 C-6.89410156 1.95097656 -6.16320312 1.77695313 -5.41015625 1.59765625 C-2.79322939 0.83968801 -2.95803984 0.07214731 0 0 Z " fill="#D7CBBE" transform="translate(112.5625,133.9375)"/>
<path d="M0 0 C0.66 0.99 1.32 1.98 2 3 C-2.29 3 -6.58 3 -11 3 C-4.16666667 -0.41666667 -4.16666667 -0.41666667 0 0 Z " fill="#EFA20C" transform="translate(218,214)"/>
<path d="M0 0 C0.99 0.33 1.98 0.66 3 1 C2.71125 1.556875 2.4225 2.11375 2.125 2.6875 C0.9586747 5.08494645 -0.0339881 7.51596939 -1 10 C-1.66 10 -2.32 10 -3 10 C-3.33 9.01 -3.66 8.02 -4 7 C-2.625 5 -2.625 5 -1 3 C-0.67 2.01 -0.34 1.02 0 0 Z " fill="#EBDFD2" transform="translate(80,172)"/>
<path d="M0 0 C-3 2 -3 2 -5 2 C-5 2.66 -5 3.32 -5 4 C-3.576875 3.690625 -3.576875 3.690625 -2.125 3.375 C-1.09375 3.25125 -0.0625 3.1275 1 3 C1.66 3.66 2.32 4.32 3 5 C0.03 5 -2.94 5 -6 5 C-6 4.01 -6 3.02 -6 2 C-6.99 1.67 -7.98 1.34 -9 1 C-6.04335481 -0.4783226 -3.25770263 -0.06032783 0 0 Z " fill="#B8B0A7" transform="translate(214,152)"/>
<path d="M0 0 C1.32 0.66 2.64 1.32 4 2 C3.67 2.33 3.34 2.66 3 3 C4.32 3.66 5.64 4.32 7 5 C3.7 5.33 0.4 5.66 -3 6 C-2.67 5.01 -2.34 4.02 -2 3 C-1.34 3 -0.68 3 0 3 C0 2.01 0 1.02 0 0 Z " fill="#D0C2B2" transform="translate(237,144)"/>
<path d="M0 0 C0.66 0.33 1.32 0.66 2 1 C1.67 4.3 1.34 7.6 1 11 C0.01 11 -0.98 11 -2 11 C-2 9.02 -2 7.04 -2 5 C-1.67 5 -1.34 5 -1 5 C-0.67 3.35 -0.34 1.7 0 0 Z " fill="#322C2E" transform="translate(250,326)"/>
<path d="M0 0 C0.6875 1.8125 0.6875 1.8125 1 4 C-0.25 5.75 -0.25 5.75 -2 7 C-2.99 7 -3.98 7 -5 7 C-3.75023244 3.34683329 -3.32901247 2.21934164 0 0 Z " fill="#DBCABA" transform="translate(280,257)"/>
<path d="M0 0 C2 1 2 1 3.1875 3.8125 C3.96421451 6.85961076 4.10096399 8.13749363 3 11 C3 10.34 3 9.68 3 9 C2.01 9 1.02 9 0 9 C0 6.03 0 3.06 0 0 Z " fill="#B4A89B" transform="translate(235,290)"/>
<path d="M0 0 C-5.75 5 -5.75 5 -8 5 C-8 3.68 -8 2.36 -8 1 C-4.93251126 -0.86240388 -3.40254489 -1.2151946 0 0 Z " fill="#E9B539" transform="translate(201,171)"/>
<path d="M0 0 C4.62 0 9.24 0 14 0 C14 0.33 14 0.66 14 1 C13.00419922 1.09087891 13.00419922 1.09087891 11.98828125 1.18359375 C5.45091919 1.79863507 5.45091919 1.79863507 -1 3 C-0.67 2.01 -0.34 1.02 0 0 Z " fill="#E9B836" transform="translate(202,167)"/>
<path d="M0 0 C0.99 0 1.98 0 3 0 C2.875 1.875 2.875 1.875 2 4 C-1.0625 5.25 -1.0625 5.25 -4 6 C-4 5.01 -4 4.02 -4 3 C-3.01 2.67 -2.02 2.34 -1 2 C-0.67 1.34 -0.34 0.68 0 0 Z " fill="#A19E99" transform="translate(205,154)"/>
<path d="M0 0 C0.66 0 1.32 0 2 0 C2.433125 0.94875 2.86625 1.8975 3.3125 2.875 C4.79302201 6.20041937 4.79302201 6.20041937 8 8 C8 8.66 8 9.32 8 10 C7.34 10 6.68 10 6 10 C6 9.34 6 8.68 6 8 C5.01 7.67 4.02 7.34 3 7 C0 2.66666667 0 2.66666667 0 0 Z " fill="#E7BA48" transform="translate(186,204)"/>
<path d="M0 0 C2.6875 -0.3125 2.6875 -0.3125 6 0 C8.875 2.5 8.875 2.5 11 5 C7.80389448 5 6.58282374 4.45328458 3.8125 3 C3.09707031 2.62875 2.38164062 2.2575 1.64453125 1.875 C1.10183594 1.58625 0.55914062 1.2975 0 1 C0 0.67 0 0.34 0 0 Z " fill="#E8B83F" transform="translate(216,168)"/>
<path d="M0 0 C1.485 0.99 1.485 0.99 3 2 C3.99 2.33 4.98 2.66 6 3 C5.67 3.99 5.34 4.98 5 6 C3.68 6 2.36 6 1 6 C0.67 4.02 0.34 2.04 0 0 Z " fill="#E9B52C" transform="translate(247,286)"/>
<path d="M0 0 C0.33 0.66 0.66 1.32 1 2 C-2.24221555 3.08073852 -4.60402937 3.21676408 -8 3 C-8.66 2.34 -9.32 1.68 -10 1 C-6.78548731 -0.60725635 -3.56387464 -0.05748185 0 0 Z " fill="#A4A09B" transform="translate(140,154)"/>
<path d="M0 0 C-1 3 -1 3 -3.25 4.25 C-6.28236729 5.07700926 -8.01120724 4.85394079 -11 4 C-11 3.67 -11 3.34 -11 3 C-9.54293274 2.49632243 -8.08429904 1.99717444 -6.625 1.5 C-5.81289062 1.2215625 -5.00078125 0.943125 -4.1640625 0.65625 C-2 0 -2 0 0 0 Z " fill="#E7B841" transform="translate(224,210)"/>
<path d="M0 0 C0.66 0 1.32 0 2 0 C0.66511872 3.59391114 -0.96022723 6.75490696 -3 10 C-3.66 9.67 -4.32 9.34 -5 9 C-3.35 6.03 -1.7 3.06 0 0 Z " fill="#E3BC65" transform="translate(236,202)"/>
<path d="M0 0 C-1 3 -1 3 -2.8125 4.0625 C-3.8953125 4.5265625 -3.8953125 4.5265625 -5 5 C-6.11375 5.556875 -6.11375 5.556875 -7.25 6.125 C-7.8275 6.41375 -8.405 6.7025 -9 7 C-6.82616588 2.86971516 -4.97872903 0 0 0 Z " fill="#322D2C" transform="translate(126,100)"/>
<path d="M0 0 C0.99 0 1.98 0 3 0 C2.43628586 3.26954202 1.50037734 4.82575883 -1 7 C-1.04254356 5.00045254 -1.04080783 2.99958364 -1 1 C-0.67 0.67 -0.34 0.34 0 0 Z " fill="#8B7F74" transform="translate(167,231)"/>
<path d="M0 0 C1.98 0.99 1.98 0.99 4 2 C3.67 3.32 3.34 4.64 3 6 C2.01 6 1.02 6 0 6 C0 4.02 0 2.04 0 0 Z " fill="#E8DED2" transform="translate(227,180)"/>
<path d="M0 0 C1.98 0.495 1.98 0.495 4 1 C4 1.99 4 2.98 4 4 C4.33 4.66 4.66 5.32 5 6 C2.525 5.01 2.525 5.01 0 4 C0 2.68 0 1.36 0 0 Z " fill="#BEB5AB" transform="translate(88,146)"/>
<path d="M0 0 C0.99 0 1.98 0 3 0 C2.67 1.98 2.34 3.96 2 6 C3.65 6 5.3 6 7 6 C7 6.33 7 6.66 7 7 C5.02 7 3.04 7 1 7 C0.67 4.69 0.34 2.38 0 0 Z " fill="#6B635C" transform="translate(245,337)"/>
<path d="M0 0 C2.0625 0.4375 2.0625 0.4375 4 1 C3.01 1.66 2.02 2.32 1 3 C0.26393501 6.56769552 0.26393501 6.56769552 0 10 C-0.33 10 -0.66 10 -1 10 C-1.02689216 8.52093108 -1.04634621 7.04172517 -1.0625 5.5625 C-1.07410156 4.73878906 -1.08570313 3.91507813 -1.09765625 3.06640625 C-1 1 -1 1 0 0 Z " fill="#C3B7AC" transform="translate(147,208)"/>
<path d="M0 0 C1.5 1.3125 1.5 1.3125 3 3 C3 3.99 3 4.98 3 6 C0.69 5.67 -1.62 5.34 -4 5 C-2.68 4.34 -1.36 3.68 0 3 C0 2.01 0 1.02 0 0 Z " fill="#DFC496" transform="translate(221,159)"/>
<path d="M0 0 C1.32 0 2.64 0 4 0 C4 1.65 4 3.3 4 5 C2.35 4.67 0.7 4.34 -1 4 C-0.67 2.68 -0.34 1.36 0 0 Z " fill="#DFCDBA" transform="translate(264,133)"/>
</svg>
