<?xml version="1.0" encoding="UTF-8"?>
<svg version="1.1" xmlns="http://www.w3.org/2000/svg" width="360" height="360">
<path d="M0 0 C3.63107143 2.92893054 5.87603726 6.66983581 8.12109375 10.7109375 C9.37921875 10.5046875 10.63734375 10.2984375 11.93359375 10.0859375 C15.52256955 9.49758081 15.87183253 9.54476335 19.12109375 11.7109375 C19.5625 14.07421875 19.5625 14.07421875 19.12109375 16.7109375 C10.58862143 27.53212004 -4.25335478 35.49160166 -16.68798828 40.84790039 C-21.34076895 42.97132895 -23.02466999 44.98394083 -24.87890625 49.7109375 C-25.20890625 50.0409375 -25.53890625 50.3709375 -25.87890625 50.7109375 C-26.0545235 71.92550115 -21.53422193 93.45643357 -16.25390625 113.8984375 C-16.05418213 114.67699097 -15.85445801 115.45554443 -15.64868164 116.25769043 C-14.02091173 124.66013613 -14.02091173 124.66013613 -9.87890625 131.7109375 C-8.41477154 129.00560218 -6.95749793 126.29693057 -5.50390625 123.5859375 C-5.09140625 122.82539063 -4.67890625 122.06484375 -4.25390625 121.28125 C-0.31884394 113.91887536 2.4714012 107.20063644 1.12109375 98.7109375 C-0.81166168 96.02349754 -0.81166168 96.02349754 -3.87890625 93.7109375 C-5.53272422 92.05167038 -7.15570028 90.36133532 -8.75390625 88.6484375 C-9.55570313 87.81183594 -10.3575 86.97523437 -11.18359375 86.11328125 C-12.87890625 83.7109375 -12.87890625 83.7109375 -12.94921875 81.58984375 C-10.74822676 77.72605853 -6.9200066 76.6328376 -2.859375 75.4296875 C-1.26508517 75.0104209 0.33288024 74.60496899 1.93359375 74.2109375 C3.22475098 73.88947754 3.22475098 73.88947754 4.54199219 73.56152344 C14.35733817 71.24153257 24.30949785 70.08210855 34.32714844 69.02050781 C36.48635013 68.78126736 38.64048975 68.49607546 40.79150391 68.19189453 C45.76292584 67.56915545 50.71723516 67.49400826 55.72265625 67.4375 C56.74011429 67.42488129 57.75757233 67.41226257 58.80586243 67.39926147 C168.34417305 66.30858457 168.34417305 66.30858457 196.12109375 91.7109375 C195.82027827 94.9105203 195.54488545 96.32845104 193.1171875 98.51953125 C191.85068359 99.32583984 191.85068359 99.32583984 190.55859375 100.1484375 C189.65753906 100.74785156 188.75648438 101.34726563 187.828125 101.96484375 C186.16176479 103.03968216 184.49300506 104.11082418 182.8203125 105.17578125 C178.39899553 108.18161067 175.43449428 111.09256015 173.57421875 116.19140625 C171.5605374 127.38816894 179.99148855 137.59571312 185.72558594 146.47412109 C188.00950133 150.13493859 190.07113428 153.91544033 192.12109375 157.7109375 C193.60996094 157.62392578 193.60996094 157.62392578 195.12890625 157.53515625 C210.31559638 156.91970853 223.66985633 161.26400615 235.1796875 171.55078125 C244.24433186 181.08327823 246.70857232 192.4049302 246.4609375 205.11328125 C245.88298619 216.5643913 240.78834883 226.58240601 234.12109375 235.7109375 C233.00734375 237.28875 233.00734375 237.28875 231.87109375 238.8984375 C222.76616498 248.21029647 211.70868448 254.78992371 198.49267578 255.14257812 C192.37327511 255.15853831 186.95748251 254.60814481 181.12109375 252.7109375 C180.46109375 254.3609375 179.80109375 256.0109375 179.12109375 257.7109375 C178.46109375 257.7109375 177.80109375 257.7109375 177.12109375 257.7109375 C177.12109375 258.3709375 177.12109375 259.0309375 177.12109375 259.7109375 C176.19296875 260.3296875 175.26484375 260.9484375 174.30859375 261.5859375 C169.57135938 265.27045312 169.14083529 271.10235904 168.12109375 276.7109375 C169.11109375 277.0409375 170.10109375 277.3709375 171.12109375 277.7109375 C170.79109375 279.3609375 170.46109375 281.0109375 170.12109375 282.7109375 C171.77109375 282.0509375 173.42109375 281.3909375 175.12109375 280.7109375 C174.591599 287.04915772 172.46054671 292.22567226 169.9375 298.02734375 C169.31415016 299.48937477 169.31415016 299.48937477 168.6782074 300.98094177 C167.35451241 304.08186713 166.01958811 307.17779383 164.68359375 310.2734375 C163.35327286 313.37350653 162.02533842 316.47457427 160.69969177 319.5766449 C159.87594011 321.50237691 159.04914274 323.42680975 158.21888733 325.3497467 C156.32639148 329.75645411 154.5388174 334.122177 153.12109375 338.7109375 C151.47109375 338.3809375 149.82109375 338.0509375 148.12109375 337.7109375 C148.09390075 336.12770062 148.07461069 334.54432688 148.05859375 332.9609375 C148.04699219 332.07921875 148.03539062 331.1975 148.0234375 330.2890625 C148.12109375 327.7109375 148.12109375 327.7109375 148.60742188 325.88525391 C149.20851884 323.34087674 149.33532053 320.95640039 149.4375 318.34375 C149.4794751 317.29888428 149.5214502 316.25401855 149.56469727 315.17749023 C149.60393311 314.07477783 149.64316895 312.97206543 149.68359375 311.8359375 C149.72605225 310.71582275 149.76851074 309.59570801 149.81225586 308.44165039 C150.09677931 300.52708974 150.24860436 292.63076288 150.12109375 284.7109375 C149.17234375 284.2778125 148.22359375 283.8446875 147.24609375 283.3984375 C144.12109375 281.7109375 144.12109375 281.7109375 142.12109375 278.7109375 C141.58193229 276.0507352 141.38739277 273.41831087 141.12109375 270.7109375 C140.38246094 270.84371094 139.64382812 270.97648437 138.8828125 271.11328125 C128.4176039 272.935052 118.36015255 273.77128194 107.74609375 273.734375 C106.81925781 273.73268311 105.89242187 273.73099121 104.9375 273.72924805 C102.66535503 273.72485601 100.39322927 273.71870514 98.12109375 273.7109375 C98.12633057 274.88374268 98.13156738 276.05654785 98.13696289 277.26489258 C98.15538341 281.7137777 98.16665768 286.16265965 98.17602539 290.61157227 C98.18098256 292.51880464 98.18775029 294.42603336 98.1965332 296.33325195 C98.24150144 306.36645969 98.19470663 316.38548392 97.7421875 326.41015625 C97.6962722 327.60316093 97.6962722 327.60316093 97.64942932 328.82026672 C97.45236904 332.57886952 97.25228144 334.51415597 95.12109375 337.7109375 C92.20394574 337.98664356 89.53241115 338.0831936 86.62109375 338.0234375 C85.44353516 338.02827148 85.44353516 338.02827148 84.2421875 338.03320312 C78.38813244 337.97797619 78.38813244 337.97797619 76.12109375 335.7109375 C76.65680804 332.17522321 76.65680804 332.17522321 78.12109375 330.7109375 C79.80293323 330.47806742 81.49233535 330.29829584 83.18359375 330.1484375 C84.49154907 330.03254272 84.49154907 330.03254272 85.82592773 329.91430664 C86.58333252 329.84719482 87.3407373 329.78008301 88.12109375 329.7109375 C89.12660404 318.8599011 89.27648605 308.08166561 89.25146484 297.19262695 C89.24601637 294.35818344 89.25148834 291.52389239 89.2578125 288.68945312 C89.25715316 286.88802048 89.25587499 285.08658794 89.25390625 283.28515625 C89.2569426 282.01353889 89.2569426 282.01353889 89.26004028 280.7162323 C89.61761085 276.90559179 89.61761085 276.90559179 88.12109375 273.7109375 C85.63767574 273.49983231 83.17152662 273.33498955 80.68359375 273.2109375 C73.3896696 272.84522543 73.3896696 272.84522543 71.12109375 271.7109375 C71.11078629 272.45151901 71.10047882 273.19210052 71.08985901 273.9551239 C70.99176924 280.94381058 70.88923878 287.93241482 70.78175449 294.92096233 C70.7266552 298.51360293 70.67325654 302.10625184 70.6237793 305.69897461 C70.57594336 309.16792935 70.52359465 312.63678964 70.468153 316.10563087 C70.43793772 318.06921035 70.41236277 320.03285945 70.38685608 321.99650574 C70.36691086 323.1973732 70.34696564 324.39824066 70.32641602 325.63549805 C70.31087173 326.69028854 70.29532745 327.74507904 70.27931213 328.83183289 C70.12969892 331.55434905 69.73079673 334.05734408 69.12109375 336.7109375 C64.63872506 338.46313617 61.1652594 338.9283779 56.37109375 338.5859375 C55.241875 338.52148438 54.11265625 338.45703125 52.94921875 338.390625 C50.12109375 337.7109375 50.12109375 337.7109375 48.73046875 335.65625 C48.529375 335.01429688 48.32828125 334.37234375 48.12109375 333.7109375 C48.78109375 332.7209375 49.44109375 331.7309375 50.12109375 330.7109375 C52.72265625 330.19921875 52.72265625 330.19921875 55.74609375 330.0234375 C57.25042969 329.92482422 57.25042969 329.92482422 58.78515625 329.82421875 C59.55601562 329.78683594 60.326875 329.74945313 61.12109375 329.7109375 C62.12370498 310.36534051 62.23782477 291.07571512 62.12109375 271.7109375 C61.20908203 271.65325195 60.29707031 271.59556641 59.35742188 271.53613281 C21.27842768 268.99686409 21.27842768 268.99686409 11.12109375 257.7109375 C8.61175961 253.49069372 8.95916655 249.48778984 9.12109375 244.7109375 C8.39277344 244.4428125 7.66445312 244.1746875 6.9140625 243.8984375 C-6.76786366 238.08122694 -17.37407053 225.75065438 -23.87890625 212.7109375 C-25.48981494 208.4338582 -26.775364 204.14381061 -27.87890625 199.7109375 C-28.05325195 199.09460449 -28.22759766 198.47827148 -28.40722656 197.84326172 C-31.83677612 182.33928353 -29.09548673 163.75011389 -20.9296875 150.25 C-19.87890625 148.7109375 -19.87890625 148.7109375 -18.87890625 147.7109375 C-18.89954464 139.66522581 -21.1712462 131.86909111 -23.19140625 124.1484375 C-24.43101336 119.33854587 -25.65698697 114.52534912 -26.87890625 109.7109375 C-27.13353638 108.74057556 -27.13353638 108.74057556 -27.39331055 107.75061035 C-30.70959989 95.07417536 -32.27095672 82.42379027 -33.50976562 69.39501953 C-33.76360223 66.77601739 -34.04947209 64.16204357 -34.33984375 61.546875 C-34.40569672 60.76138275 -34.47154968 59.9758905 -34.53939819 59.16659546 C-35.1574318 53.85529512 -36.74614052 51.04312158 -40.55947876 47.28555298 C-41.87890625 45.7109375 -41.87890625 45.7109375 -42.50390625 42.0859375 C-41.7845948 38.20165569 -40.64988953 36.48192078 -37.87890625 33.7109375 C-34.66439356 32.10368115 -31.44278089 32.65345565 -27.87890625 32.7109375 C-28.51828125 31.6178125 -29.15765625 30.5246875 -29.81640625 29.3984375 C-32.60160187 23.75816679 -33.87026369 17.67636724 -32.3203125 11.4765625 C-29.50579977 5.02194665 -24.15555558 0.28099864 -17.87890625 -2.7265625 C-10.75620645 -4.06206871 -6.22891704 -3.73519116 0 0 Z M205.12109375 172.7109375 C204.89421875 173.9690625 204.66734375 175.2271875 204.43359375 176.5234375 C204.046875 178.66796875 204.046875 178.66796875 203.12109375 180.7109375 C202.29222656 181.14277344 201.46335937 181.57460937 200.609375 182.01953125 C197.77915288 183.54007073 197.77915288 183.54007073 197.30078125 186.9765625 C197.20023438 188.29140625 197.0996875 189.60625 196.99609375 190.9609375 C196.85992719 192.40667685 196.71918922 193.8519919 196.57421875 195.296875 C196.50396484 196.03131836 196.43371094 196.76576172 196.36132812 197.52246094 C195.40583965 206.2267279 193.56591438 214.69014669 189.890625 222.66015625 C188.88688117 224.97004027 188.88688117 224.97004027 189.12109375 228.7109375 C190.35859375 229.3296875 190.35859375 229.3296875 191.62109375 229.9609375 C192.85859375 230.8271875 192.85859375 230.8271875 194.12109375 231.7109375 C194.59268506 234.50164842 194.35503978 236.85679591 194.12109375 239.7109375 C200.20229269 241.50765537 204.36952222 239.99938496 210.05859375 237.41796875 C218.96023996 232.45620932 227.58619416 223.99735292 230.9921875 214.20703125 C231.56248377 211.69379457 231.90017161 209.27765114 232.12109375 206.7109375 C232.20230469 205.89753906 232.28351563 205.08414063 232.3671875 204.24609375 C232.78999138 196.13594661 230.50116216 188.35383824 225.49609375 181.8984375 C221.3872205 177.59192224 215.89612062 173.34793138 209.921875 172.33984375 C207.83113742 172.29344408 207.83113742 172.29344408 205.12109375 172.7109375 Z " fill="#E6D3C0" transform="translate(97.87890625,12.2890625)"/>
<path d="M0 0 C1.39061646 0.00564972 1.39061646 0.00564972 2.80932617 0.01141357 C81.55798383 0.38581021 81.55798383 0.38581021 98.41015625 14.89453125 C98.76980469 15.34183594 99.12945312 15.78914063 99.5 16.25 C99.04625 16.600625 98.5925 16.95125 98.125 17.3125 C95.8589589 20.01431824 95.40425443 22.8741168 94.5 26.25 C93.51 27.735 93.51 27.735 92.5 29.25 C96.23486879 29.8245952 99.71293268 30.25 103.5 30.25 C102.7571856 34.33547922 101.6594004 38.26456112 100.5 42.25 C100.15864073 43.58130115 99.82074044 44.91358148 99.5 46.25 C101.81 46.25 104.12 46.25 106.5 46.25 C106.83 44.6 107.16 42.95 107.5 41.25 C108.49 41.58 109.48 41.91 110.5 42.25 C110.17 43.9 109.84 45.55 109.5 47.25 C111.15 46.59 112.8 45.93 114.5 45.25 C113.97050525 51.58822022 111.83945296 56.76473476 109.31640625 62.56640625 C108.69305641 64.02843727 108.69305641 64.02843727 108.05711365 65.52000427 C106.73341866 68.62092963 105.39849436 71.71685633 104.0625 74.8125 C102.73217911 77.91256903 101.40424467 81.01363677 100.07859802 84.1157074 C99.25484636 86.04143941 98.42804899 87.96587225 97.59779358 89.8888092 C95.70529773 94.29551661 93.91772365 98.6612395 92.5 103.25 C90.85 102.92 89.2 102.59 87.5 102.25 C87.472807 100.66676312 87.45351694 99.08338938 87.4375 97.5 C87.42009766 96.17742187 87.42009766 96.17742187 87.40234375 94.828125 C87.5 92.25 87.5 92.25 87.98632812 90.42431641 C88.58742509 87.87993924 88.71422678 85.49546289 88.81640625 82.8828125 C88.85838135 81.83794678 88.90035645 80.79308105 88.94360352 79.71655273 C88.98283936 78.61384033 89.0220752 77.51112793 89.0625 76.375 C89.1049585 75.25488525 89.14741699 74.13477051 89.19116211 72.98071289 C89.47568556 65.06615224 89.62751061 57.16982538 89.5 49.25 C88.55125 48.816875 87.6025 48.38375 86.625 47.9375 C83.5 46.25 83.5 46.25 81.5 43.25 C80.96083854 40.5897977 80.76629902 37.95737337 80.5 35.25 C79.76136719 35.38277344 79.02273437 35.51554687 78.26171875 35.65234375 C67.79651015 37.4741145 57.7390588 38.31034444 47.125 38.2734375 C45.73474609 38.27089966 45.73474609 38.27089966 44.31640625 38.26831055 C42.04426128 38.26391851 39.77213552 38.25776764 37.5 38.25 C37.50523682 39.42280518 37.51047363 40.59561035 37.51586914 41.80395508 C37.53428966 46.2528402 37.54556393 50.70172215 37.55493164 55.15063477 C37.55988881 57.05786714 37.56665654 58.96509586 37.57543945 60.87231445 C37.62040769 70.90552219 37.57361288 80.92454642 37.12109375 90.94921875 C37.09048355 91.74455521 37.05987335 92.53989166 37.02833557 93.35932922 C36.83127529 97.11793202 36.63118769 99.05321847 34.5 102.25 C31.58285199 102.52570606 28.9113174 102.6222561 26 102.5625 C24.82244141 102.56733398 24.82244141 102.56733398 23.62109375 102.57226562 C17.76703869 102.51703869 17.76703869 102.51703869 15.5 100.25 C16.03571429 96.71428571 16.03571429 96.71428571 17.5 95.25 C19.18183948 95.01712992 20.8712416 94.83735834 22.5625 94.6875 C23.43447021 94.61023682 24.30644043 94.53297363 25.20483398 94.45336914 C26.34094116 94.35270142 26.34094116 94.35270142 27.5 94.25 C28.50551029 83.3989636 28.6553923 72.62072811 28.63037109 61.73168945 C28.62492262 58.89724594 28.63039459 56.06295489 28.63671875 53.22851562 C28.63605941 51.42708298 28.63478124 49.62565044 28.6328125 47.82421875 C28.63584885 46.55260139 28.63584885 46.55260139 28.63894653 45.2552948 C28.9965171 41.44465429 28.9965171 41.44465429 27.5 38.25 C25.01658199 38.03889481 22.55043287 37.87405205 20.0625 37.75 C12.76857585 37.38428793 12.76857585 37.38428793 10.5 36.25 C10.48969254 36.99058151 10.47938507 37.73116302 10.46876526 38.4941864 C10.37067549 45.48287308 10.26814503 52.47147732 10.16066074 59.46002483 C10.10556145 63.05266543 10.05216279 66.64531434 10.00268555 70.23803711 C9.95484961 73.70699185 9.9025009 77.17585214 9.84705925 80.64469337 C9.81684397 82.60827285 9.79126902 84.57192195 9.76576233 86.53556824 C9.74581711 87.7364357 9.72587189 88.93730316 9.70532227 90.17456055 C9.68977798 91.22935104 9.6742337 92.28414154 9.65821838 93.37089539 C9.50860517 96.09341155 9.10970298 98.59640658 8.5 101.25 C4.01763131 103.00219867 0.54416565 103.4674404 -4.25 103.125 C-5.37921875 103.06054688 -6.5084375 102.99609375 -7.671875 102.9296875 C-10.5 102.25 -10.5 102.25 -11.890625 100.1953125 C-12.19226563 99.23238281 -12.19226563 99.23238281 -12.5 98.25 C-11.51 96.765 -11.51 96.765 -10.5 95.25 C-7.8984375 94.73828125 -7.8984375 94.73828125 -4.875 94.5625 C-3.87210938 94.49675781 -2.86921875 94.43101562 -1.8359375 94.36328125 C-0.67964844 94.30720703 -0.67964844 94.30720703 0.5 94.25 C1.50261123 74.90440301 1.61673102 55.61477762 1.5 36.25 C0.13198242 36.16347168 0.13198242 36.16347168 -1.26367188 36.07519531 C-39.34266607 33.53592659 -39.34266607 33.53592659 -49.5 22.25 C-52.00933414 18.02975622 -51.6619272 14.02685234 -51.5 9.25 C-52.16 9.25 -52.82 9.25 -53.5 9.25 C-53.5 8.26 -53.5 7.27 -53.5 6.25 C-51.00252276 5.61326694 -48.50264899 4.99083509 -46 4.375 C-45.32324219 4.20097656 -44.64648438 4.02695313 -43.94921875 3.84765625 C-29.40501432 0.30987679 -14.88051928 -0.0919087 0 0 Z " fill="#E4D1BF" transform="translate(158.5,247.75)"/>
<path d="M0 0 C1.52618706 -0.01892807 1.52618706 -0.01892807 3.08320618 -0.03823853 C112.6215168 -1.12891543 112.6215168 -1.12891543 140.3984375 24.2734375 C140.09762202 27.4730203 139.8222292 28.89095104 137.39453125 31.08203125 C136.55019531 31.61957031 135.70585937 32.15710938 134.8359375 32.7109375 C133.93617188 33.30648437 133.03640625 33.90203125 132.109375 34.515625 C131.21476563 35.09570312 130.32015625 35.67578125 129.3984375 36.2734375 C124.25138323 39.7334974 120.68951234 42.25936605 118.3984375 48.2734375 C118.0684375 47.6134375 117.7384375 46.9534375 117.3984375 46.2734375 C116.3465625 46.3353125 115.2946875 46.3971875 114.2109375 46.4609375 C110.13008101 46.26023964 108.60119376 45.69714494 105.3984375 43.2734375 C104.88023437 42.57605469 104.36203125 41.87867188 103.828125 41.16015625 C100.12338942 38.28332782 96.73863869 39.04982615 92.2109375 39.3359375 C85.39027366 39.58624293 81.40872453 39.39276688 75.77734375 35.30859375 C71.71054649 33.53896933 67.36624363 34.3510126 63.06762695 34.92749023 C59.62764402 35.34839513 57.61298825 35.36947985 54.4140625 33.9375 C53.74890625 33.38835937 53.08375 32.83921875 52.3984375 32.2734375 C52.3984375 31.6134375 52.3984375 30.9534375 52.3984375 30.2734375 C50.81433756 30.38831498 49.23114787 30.51578258 47.6484375 30.6484375 C46.76671875 30.71804687 45.885 30.78765625 44.9765625 30.859375 C42.40480334 31.12753386 42.40480334 31.12753386 40.3828125 32.359375 C37.7286311 33.58197037 36.21986139 33.15997826 33.3984375 32.5234375 C32.5528125 32.34296875 31.7071875 32.1625 30.8359375 31.9765625 C28.3984375 31.2734375 28.3984375 31.2734375 26.30859375 30.17578125 C22.49137073 28.3725532 18.22406848 29.99822717 14.3984375 31.2734375 C12.92257135 31.39031088 11.44137138 31.44845492 9.9609375 31.4609375 C9.19910156 31.47511719 8.43726563 31.48929688 7.65234375 31.50390625 C5.3984375 31.2734375 5.3984375 31.2734375 3.42578125 30.25 C0.85611621 29.01220374 -0.78302097 29.16447505 -3.6015625 29.4609375 C-4.87 29.57501953 -4.87 29.57501953 -6.1640625 29.69140625 C-8.93666912 30.35345495 -10.36226261 31.56266802 -12.6015625 33.2734375 C-18.2267434 33.05284217 -23.35014682 31.16680506 -28.6015625 29.2734375 C-28.6015625 29.9334375 -28.6015625 30.5934375 -28.6015625 31.2734375 C-36.92553636 35.68140475 -43.4119411 36.15848804 -52.6015625 34.2734375 C-52.9315625 35.2634375 -53.2615625 36.2534375 -53.6015625 37.2734375 C-53.8284375 36.2215625 -54.0553125 35.1696875 -54.2890625 34.0859375 C-55.46350015 30.02805293 -57.46029871 28.14154791 -60.6015625 25.2734375 C-62.08198832 23.77410113 -63.53906123 22.25147645 -64.9765625 20.7109375 C-65.68554688 19.96714844 -66.39453125 19.22335938 -67.125 18.45703125 C-68.6015625 16.2734375 -68.6015625 16.2734375 -68.640625 14.18359375 C-66.51163399 10.26977193 -62.63925573 9.19432809 -58.58203125 7.9921875 C-56.98774142 7.5729209 -55.38977601 7.16746899 -53.7890625 6.7734375 C-52.49790527 6.45197754 -52.49790527 6.45197754 -51.18066406 6.12402344 C-41.36531808 3.80403257 -31.4131584 2.64460855 -21.39550781 1.58300781 C-19.23630612 1.34376736 -17.0821665 1.05857546 -14.93115234 0.75439453 C-9.95973041 0.13165545 -5.00542109 0.05650826 0 0 Z " fill="#E8D6C5" transform="translate(153.6015625,79.7265625)"/>
<path d="M0 0 C13.04885421 0.11934928 25.17644577 5.55036709 34.87109375 14.21484375 C43.93573811 23.74734073 46.39997857 35.0689927 46.15234375 47.77734375 C45.57439244 59.2284538 40.47975508 69.24646851 33.8125 78.375 C33.07 79.426875 32.3275 80.47875 31.5625 81.5625 C22.45757123 90.87435897 11.40009073 97.45398621 -1.81591797 97.80664062 C-7.93531864 97.82260081 -13.35111124 97.27220731 -19.1875 95.375 C-19.8475 97.025 -20.5075 98.675 -21.1875 100.375 C-21.8475 100.375 -22.5075 100.375 -23.1875 100.375 C-23.1875 101.035 -23.1875 101.695 -23.1875 102.375 C-27.30178571 106.375 -27.30178571 106.375 -30.1875 106.375 C-32.83740043 105.05004978 -34.94900174 103.30259572 -37.1875 101.375 C-36.2354279 100.36903703 -35.27562654 99.37038437 -34.3125 98.375 C-33.77882813 97.818125 -33.24515625 97.26125 -32.6953125 96.6875 C-31.1875 95.375 -31.1875 95.375 -29.1875 95.375 C-29.45304687 94.80652344 -29.71859375 94.23804688 -29.9921875 93.65234375 C-32.14922826 88.93676925 -33.77211324 84.37048267 -35.1875 79.375 C-36.52204517 76.09218363 -37.87238404 72.81863829 -39.26171875 69.55859375 C-40.28498571 66.03976432 -40.06121253 63.89632626 -39.1875 60.375 C-37.2075 60.375 -35.2275 60.375 -33.1875 60.375 C-30.1875 67.375 -27.1875 74.375 -24.1875 81.375 C-19.24598696 78.97483652 -17.14418756 75.85226973 -14.1875 71.375 C-7.4375 72.125 -7.4375 72.125 -5.1875 74.375 C-4.85416667 79.70833333 -4.85416667 79.70833333 -6.1875 82.375 C1.89046083 83.29295009 9.122372 80.05073096 15.59765625 75.35546875 C24.11537384 68.01969689 29.69101542 60.73003135 30.8125 49.375 C30.895 48.5603125 30.9775 47.745625 31.0625 46.90625 C31.47269323 38.80493376 29.03729233 31.84305863 24.6875 25.0625 C18.92083109 19.67191819 12.8165153 15.72300067 4.8125 15.375 C4.709375 16.65375 4.60625 17.9325 4.5 19.25 C4.32421875 21.4296875 4.32421875 21.4296875 3.8125 23.375 C0.8125 25.375 0.8125 25.375 -3.1875 25.375 C-3.38085938 24.26640625 -3.57421875 23.1578125 -3.7734375 22.015625 C-4.03613489 20.55202524 -4.29917367 19.08848673 -4.5625 17.625 C-4.68882812 16.89539063 -4.81515625 16.16578125 -4.9453125 15.4140625 C-5.61311498 11.74114885 -6.41025553 8.6530287 -8.1875 5.375 C-7.39029417 -0.20544079 -5.30408447 0.15305904 0 0 Z " fill="#969393" transform="translate(298.1875,169.625)"/>
<path d="M0 0 C5.12595859 4.72653324 8.12345473 10.17012373 8.5625 17.125 C8.32952833 23.94641038 6.08667553 29.55381289 2 35 C-3.7357259 39.6220884 -10.72175032 41.17876403 -18 41 C-20.2890625 40.5078125 -20.2890625 40.5078125 -22 40 C-21.938125 40.70125 -21.87625 41.4025 -21.8125 42.125 C-22.05303769 45.81324456 -22.9814087 47.90482667 -25 51 C-30.02830079 54.67924448 -35.0366921 54.31820022 -41 54 C-40.87625 55.155 -40.7525 56.31 -40.625 57.5 C-40.59622044 62.89137159 -43.36984484 66.23735743 -47 70 C-50.76499581 72.5099972 -52.54293606 72.61476744 -57 72 C-59.65874437 69.78890137 -61.45349726 67.09300548 -63 64 C-63.07033769 62.12620395 -63.0843022 60.24998898 -63.0625 58.375 C-63.05347656 57.37210938 -63.04445312 56.36921875 -63.03515625 55.3359375 C-63.02355469 54.56507813 -63.01195312 53.79421875 -63 53 C-63.825 53.0825 -64.65 53.165 -65.5 53.25 C-70.9748766 52.85893739 -75.27992377 50.88133338 -79 46.8125 C-80.40913302 42.84931337 -80.24483315 39.16216359 -80 35 C-77.525 34.505 -77.525 34.505 -75 34 C-73.35 36.97 -71.7 39.94 -70 43 C-65.58623123 43.66206532 -63.29907095 42.81498196 -59.8125 40.25 C-57.05059294 38.09277081 -55.01370572 35.8678162 -53 33 C-50.875 33 -50.875 33 -48 34 C-46.29865907 35.93527531 -44.86566927 37.95139522 -43.4296875 40.08984375 C-41.97078745 42.26051401 -41.97078745 42.26051401 -39 44 C-35.29455413 44.19850603 -32.52994613 44.17664871 -29 43 C-28.25042843 39.52852158 -28.25042843 39.52852158 -28 36 C-28.763125 35.236875 -29.52625 34.47375 -30.3125 33.6875 C-35.13740449 28.86259551 -36.80467308 24.92990381 -37.25 18.25 C-37.12047883 11.2558566 -34.24096421 5.14261121 -29.92578125 -0.296875 C-21.6311659 -7.63247803 -8.52967929 -5.87931943 0 0 Z " fill="#F5F4EF" transform="translate(236,133)"/>
<path d="M0 0 C1.39061646 0.00564972 1.39061646 0.00564972 2.80932617 0.01141357 C81.55798383 0.38581021 81.55798383 0.38581021 98.41015625 14.89453125 C98.76980469 15.34183594 99.12945312 15.78914063 99.5 16.25 C99.04625 16.600625 98.5925 16.95125 98.125 17.3125 C95.8589589 20.01431824 95.40425443 22.8741168 94.5 26.25 C93.51 27.735 93.51 27.735 92.5 29.25 C96.23486879 29.8245952 99.71293268 30.25 103.5 30.25 C102.7571856 34.33547922 101.6594004 38.26456112 100.5 42.25 C100.15864073 43.58130115 99.82074044 44.91358148 99.5 46.25 C101.81 46.25 104.12 46.25 106.5 46.25 C106.83 44.6 107.16 42.95 107.5 41.25 C108.49 41.58 109.48 41.91 110.5 42.25 C110.17 43.9 109.84 45.55 109.5 47.25 C111.15 46.59 112.8 45.93 114.5 45.25 C113.97050525 51.58822022 111.83945296 56.76473476 109.31640625 62.56640625 C108.69305641 64.02843727 108.69305641 64.02843727 108.05711365 65.52000427 C106.73341866 68.62092963 105.39849436 71.71685633 104.0625 74.8125 C102.73217911 77.91256903 101.40424467 81.01363677 100.07859802 84.1157074 C99.25484636 86.04143941 98.42804899 87.96587225 97.59779358 89.8888092 C95.70529773 94.29551661 93.91772365 98.6612395 92.5 103.25 C90.85 102.92 89.2 102.59 87.5 102.25 C87.472807 100.66676312 87.45351694 99.08338938 87.4375 97.5 C87.42009766 96.17742187 87.42009766 96.17742187 87.40234375 94.828125 C87.5 92.25 87.5 92.25 87.98632812 90.42431641 C88.58742509 87.87993924 88.71422678 85.49546289 88.81640625 82.8828125 C88.85838135 81.83794678 88.90035645 80.79308105 88.94360352 79.71655273 C88.98283936 78.61384033 89.0220752 77.51112793 89.0625 76.375 C89.1049585 75.25488525 89.14741699 74.13477051 89.19116211 72.98071289 C89.47568556 65.06615224 89.62751061 57.16982538 89.5 49.25 C88.55125 48.816875 87.6025 48.38375 86.625 47.9375 C83.5 46.25 83.5 46.25 81.5 43.25 C81.3046875 40.76953125 81.3046875 40.76953125 81.375 38.0625 C81.39304688 37.16144531 81.41109375 36.26039063 81.4296875 35.33203125 C81.45289063 34.64496094 81.47609375 33.95789063 81.5 33.25 C78.81243045 33.22279176 76.12514202 33.2030612 73.4375 33.1875 C72.30924805 33.17493164 72.30924805 33.17493164 71.15820312 33.16210938 C66.49597213 33.14192656 62.12224457 33.57767352 57.5 34.25 C54.85488687 34.31515057 52.20831175 34.33591426 49.5625 34.3125 C48.87865234 34.30798828 48.19480469 34.30347656 47.49023438 34.29882812 C45.82678396 34.2871956 44.1633795 34.26926694 42.5 34.25 C42.83 33.26 43.16 32.27 43.5 31.25 C45.5625 30.5625 45.5625 30.5625 47.5 30.25 C47.83 28.27 48.16 26.29 48.5 24.25 C49.16 24.25 49.82 24.25 50.5 24.25 C50.273125 23.651875 50.04625 23.05375 49.8125 22.4375 C49.709375 21.715625 49.60625 20.99375 49.5 20.25 C50.9375 18.6875 50.9375 18.6875 52.5 17.25 C52.5 16.26 52.5 15.27 52.5 14.25 C51.84 14.25 51.18 14.25 50.5 14.25 C50.17 15.57 49.84 16.89 49.5 18.25 C49.83 15.61 50.16 12.97 50.5 10.25 C51.82 9.92 53.14 9.59 54.5 9.25 C54.5 8.59 54.5 7.93 54.5 7.25 C53.78980713 7.19465088 53.07961426 7.13930176 52.34790039 7.08227539 C49.08598021 6.82719318 45.82424108 6.56986178 42.5625 6.3125 C41.44552734 6.22548828 40.32855469 6.13847656 39.17773438 6.04882812 C29.80978102 5.30708402 29.80978102 5.30708402 25.2734375 4.6953125 C17.91893411 3.84835921 10.45623509 4.05319119 3.0625 4.0625 C1.8547139 4.06290787 1.8547139 4.06290787 0.62252808 4.06332397 C-14.60966478 4.08705102 -28.93135418 4.91364175 -43.7734375 8.65234375 C-47.14240839 9.39081445 -50.07229314 9.48914234 -53.5 9.25 C-53.5 8.26 -53.5 7.27 -53.5 6.25 C-51.00252276 5.61326694 -48.50264899 4.99083509 -46 4.375 C-45.32324219 4.20097656 -44.64648438 4.02695313 -43.94921875 3.84765625 C-29.40501432 0.30987679 -14.88051928 -0.0919087 0 0 Z " fill="#DAC6B2" transform="translate(158.5,247.75)"/>
<path d="M0 0 C3.63107143 2.92893054 5.87603726 6.66983581 8.12109375 10.7109375 C9.37921875 10.5046875 10.63734375 10.2984375 11.93359375 10.0859375 C15.52256955 9.49758081 15.87183253 9.54476335 19.12109375 11.7109375 C19.5625 14.07421875 19.5625 14.07421875 19.12109375 16.7109375 C10.58862143 27.53212004 -4.25335478 35.49160166 -16.68798828 40.84790039 C-21.34076895 42.97132895 -23.02466999 44.98394083 -24.87890625 49.7109375 C-25.20890625 50.0409375 -25.53890625 50.3709375 -25.87890625 50.7109375 C-25.9204044 55.72391374 -25.36103251 60.72558605 -24.87890625 65.7109375 C-24.7907666 66.65453125 -24.70262695 67.598125 -24.61181641 68.5703125 C-22.54474442 89.2870403 -17.58000602 109.05211227 -12.2421875 129.12890625 C-12.01939621 129.96715439 -11.79660492 130.80540253 -11.56706238 131.66905212 C-10.49326341 135.78775463 -10.49326341 135.78775463 -8.87890625 139.7109375 C-8.69186221 142.40107089 -8.79309234 145.00779927 -8.87890625 147.7109375 C-9.87890625 148.7109375 -9.87890625 148.7109375 -12.25390625 149.0859375 C-14.87890625 148.7109375 -14.87890625 148.7109375 -16.50390625 146.7734375 C-19.65051146 139.76508954 -21.54240546 132.42885228 -23.25390625 124.9609375 C-25.08069993 116.99288735 -25.08069993 116.99288735 -27.13671875 109.08203125 C-29.48380284 100.35216956 -31.07343011 91.71690151 -32.09375 82.73828125 C-32.24760666 81.40306679 -32.24760666 81.40306679 -32.40457153 80.0408783 C-32.91875682 75.5246504 -33.39727349 71.00808474 -33.828125 66.4831543 C-34.00974688 64.79078085 -34.19201204 63.09847628 -34.375 61.40625 C-34.4375145 60.63405624 -34.50002899 59.86186249 -34.56443787 59.06626892 C-35.16631948 53.79422042 -36.77985057 51.02037123 -40.5582428 47.29049683 C-41.87890625 45.7109375 -41.87890625 45.7109375 -42.50390625 42.0859375 C-41.7845948 38.20165569 -40.64988953 36.48192078 -37.87890625 33.7109375 C-34.66439356 32.10368115 -31.44278089 32.65345565 -27.87890625 32.7109375 C-28.51828125 31.6178125 -29.15765625 30.5246875 -29.81640625 29.3984375 C-32.60160187 23.75816679 -33.87026369 17.67636724 -32.3203125 11.4765625 C-29.50579977 5.02194665 -24.15555558 0.28099864 -17.87890625 -2.7265625 C-10.75620645 -4.06206871 -6.22891704 -3.73519116 0 0 Z " fill="#837A71" transform="translate(97.87890625,12.2890625)"/>
<path d="M0 0 C1.52618706 -0.01892807 1.52618706 -0.01892807 3.08320618 -0.03823853 C112.6215168 -1.12891543 112.6215168 -1.12891543 140.3984375 24.2734375 C140.13147513 27.56597344 139.74106304 28.94119455 137.3359375 31.2734375 C133.06162314 32.72852324 130.32920572 31.17542212 126.3984375 29.2734375 C126.3984375 28.6134375 126.3984375 27.9534375 126.3984375 27.2734375 C125.3053125 27.1909375 124.2121875 27.1084375 123.0859375 27.0234375 C119.64852557 26.59899185 116.74172841 25.729352 113.5234375 24.4609375 C93.10328205 16.72687317 69.27396639 13.50896208 47.61132812 11.48388672 C45.11630752 11.24660652 42.62505174 10.9797 40.1328125 10.71484375 C13.51302097 8.00688914 -11.79373619 9.38184996 -38.00390625 14.5859375 C-42.593275 15.46295042 -47.2022257 16.12205064 -51.83203125 16.74609375 C-54.62560785 17.27801595 -56.97465538 18.20942974 -59.6015625 19.2734375 C-60.5915625 19.2734375 -61.5815625 19.2734375 -62.6015625 19.2734375 C-62.9315625 20.2634375 -63.2615625 21.2534375 -63.6015625 22.2734375 C-68.56295819 16.94901285 -68.56295819 16.94901285 -68.7265625 14.0859375 C-65.63034844 9.09759263 -59.11303754 8.08398669 -53.7890625 6.7734375 C-52.49790527 6.45197754 -52.49790527 6.45197754 -51.18066406 6.12402344 C-41.36531808 3.80403257 -31.4131584 2.64460855 -21.39550781 1.58300781 C-19.23630612 1.34376736 -17.0821665 1.05857546 -14.93115234 0.75439453 C-9.95973041 0.13165545 -5.00542109 0.05650826 0 0 Z " fill="#F0E7DA" transform="translate(153.6015625,79.7265625)"/>
<path d="M0 0 C2.125 0 2.125 0 5 1 C6.70134093 2.93527531 8.13433073 4.95139522 9.5703125 7.08984375 C11.02921255 9.26051401 11.02921255 9.26051401 14 11 C17.70544587 11.19850603 20.47005387 11.17664871 24 10 C24.33 8.35 24.66 6.7 25 5 C26.65614657 4.61781233 28.32457024 4.28604898 30 4 C31 5 31 5 31.25 8.1875 C30.97592856 12.3670895 30.35244487 14.54974753 28 18 C22.97169921 21.67924448 17.9633079 21.31820022 12 21 C12.12375 22.155 12.2475 23.31 12.375 24.5 C12.40377956 29.89137159 9.63015516 33.23735743 6 37 C2.23500419 39.5099972 0.45706394 39.61476744 -4 39 C-6.65874437 36.78890137 -8.45349726 34.09300548 -10 31 C-10.07033769 29.12620395 -10.0843022 27.24998898 -10.0625 25.375 C-10.05347656 24.37210938 -10.04445312 23.36921875 -10.03515625 22.3359375 C-10.02355469 21.56507813 -10.01195312 20.79421875 -10 20 C-11.2375 20.12375 -11.2375 20.12375 -12.5 20.25 C-17.9748766 19.85893739 -22.27992377 17.88133338 -26 13.8125 C-27.40913302 9.84931337 -27.24483315 6.16216359 -27 2 C-25.35 1.67 -23.7 1.34 -22 1 C-20.35 3.97 -18.7 6.94 -17 10 C-12.58623123 10.66206532 -10.29907095 9.81498196 -6.8125 7.25 C-4.05059294 5.09277081 -2.01370572 2.8678162 0 0 Z " fill="#0F0B0C" transform="translate(183,166)"/>
<path d="M0 0 C0 0.66 0 1.32 0 2 C0.825 2.061875 1.65 2.12375 2.5 2.1875 C7.05047194 3.24385956 10.16631959 5.42125689 14 8 C15.093125 8.61875 16.18625 9.2375 17.3125 9.875 C20.84873524 12.67109298 21.60673136 14.74279026 23 19 C23 19.99 23 20.98 23 22 C23.99 22.33 24.98 22.66 26 23 C25.34 23 24.68 23 24 23 C25.1678266 26.81413002 25.1678266 26.81413002 28.125 29.3125 C29.053125 29.6528125 29.053125 29.6528125 30 30 C29.8125 32.375 29.8125 32.375 29 35 C27.81470703 35.42732422 27.81470703 35.42732422 26.60546875 35.86328125 C23.29514699 37.30751458 22.87476354 38.53761685 21.5 41.8125 C18.4542705 48.40683646 14.36270855 52.43688321 8 56 C2.98757986 56.94862652 -1.8448514 57.10756769 -6.9375 57.0625 C-7.62134766 57.05798828 -8.30519531 57.05347656 -9.00976562 57.04882812 C-10.67321604 57.0371956 -12.3366205 57.01926694 -14 57 C-13.67 55.02 -13.34 53.04 -13 51 C-11.865625 51.04125 -10.73125 51.0825 -9.5625 51.125 C-2.68488524 51.11280565 3.23451685 49.84365543 9 46 C9.66 46 10.32 46 11 46 C11.268125 45.13375 11.53625 44.2675 11.8125 43.375 C13 40 13 40 14.625 37.3125 C16.92755387 31.76543841 17.09945717 26.17132312 15.12109375 20.46484375 C11.75750395 13.81537085 7.4310629 10.39784044 0.625 7.625 C-3.8488937 6.85363902 -7.55471929 7.31007989 -12 8 C-13.9490625 8.1546875 -13.9490625 8.1546875 -15.9375 8.3125 C-17.4534375 8.6528125 -17.4534375 8.6528125 -19 9 C-20.09298002 10.82553175 -20.09298002 10.82553175 -21 13 C-22.26576864 15.0189207 -23.56882599 17.009611 -24.87890625 19 C-27.32439294 23.36268009 -27.52374306 28.08416605 -27 33 C-25.51840376 37.23313211 -23.73510747 40.48343325 -21 44 C-21 44.66 -21 45.32 -21 46 C-19.02 46.33 -17.04 46.66 -15 47 C-15.61875 47.4125 -16.2375 47.825 -16.875 48.25 C-19.06768281 50.05573879 -19.92788417 51.4090534 -21 54 C-21 53.34 -21 52.68 -21 52 C-21.66 52 -22.32 52 -23 52 C-23 51.34 -23 50.68 -23 50 C-24.32 49.34 -25.64 48.68 -27 48 C-27 47.34 -27 46.68 -27 46 C-27.61875 45.7525 -28.2375 45.505 -28.875 45.25 C-31.44897744 43.73589562 -31.9084035 42.74497319 -33 40 C-33.25878906 37.69750977 -33.25878906 37.69750977 -33.265625 35.19140625 C-33.26820313 34.27939453 -33.27078125 33.36738281 -33.2734375 32.42773438 C-33.26570312 31.48220703 -33.25796875 30.53667969 -33.25 29.5625 C-33.25773438 28.62083984 -33.26546875 27.67917969 -33.2734375 26.70898438 C-33.26032162 22.06268433 -33.24712506 18.19998375 -31 14 C-30.34 14 -29.68 14 -29 14 C-28.90847656 13.41347656 -28.81695312 12.82695312 -28.72265625 12.22265625 C-27.17569617 7.46470876 -22.28322918 4.35197421 -18.11328125 1.8828125 C-12.29402668 -0.67912348 -6.24267258 -0.28092027 0 0 Z " fill="#EDB622" transform="translate(227,122)"/>
<path d="M0 0 C1.80552968 2.1220162 2.984375 3.88200406 2.984375 6.72265625 C3.644375 6.72265625 4.304375 6.72265625 4.984375 6.72265625 C6.37780034 13.51560477 7.35696532 21.4173787 3.984375 27.72265625 C1.79315195 29.39505067 -0.52230643 30.56541978 -3.015625 31.72265625 C-3.98242188 32.26212891 -3.98242188 32.26212891 -4.96875 32.8125 C-8.55080325 34.40528322 -12.17455608 34.18040021 -16.015625 33.72265625 C-19.578125 32.22265625 -19.578125 32.22265625 -22.015625 30.72265625 C-22.015625 30.06265625 -22.015625 29.40265625 -22.015625 28.72265625 C-22.675625 28.72265625 -23.335625 28.72265625 -24.015625 28.72265625 C-24.015625 28.06265625 -24.015625 27.40265625 -24.015625 26.72265625 C-24.675625 26.72265625 -25.335625 26.72265625 -26.015625 26.72265625 C-26.015625 25.73265625 -26.015625 24.74265625 -26.015625 23.72265625 C-26.675625 23.72265625 -27.335625 23.72265625 -28.015625 23.72265625 C-28.83582918 20.83553754 -29.17744121 18.22252314 -29.203125 15.22265625 C-29.21730469 14.46984375 -29.23148438 13.71703125 -29.24609375 12.94140625 C-28.98979778 10.47401452 -28.24407653 8.85909369 -27.015625 6.72265625 C-26.355625 6.72265625 -25.695625 6.72265625 -25.015625 6.72265625 C-24.83 5.95953125 -24.644375 5.19640625 -24.453125 4.41015625 C-22.87024184 1.45085294 -21.56363881 0.38116548 -18.4140625 -0.76171875 C-12.72308956 -1.98518524 -5.12999838 -3.25098735 0 0 Z " fill="#F6F5F0" transform="translate(170.015625,129.27734375)"/>
<path d="M0 0 C0.99 0.33 1.98 0.66 3 1 C2.67 2.65 2.34 4.3 2 6 C3.65 5.34 5.3 4.68 7 4 C6.47050525 10.33822022 4.33945296 15.51473476 1.81640625 21.31640625 C1.40083969 22.2910936 0.98527313 23.26578094 0.55711365 24.27000427 C-0.76658134 27.37092963 -2.10150564 30.46685633 -3.4375 33.5625 C-4.76782089 36.66256903 -6.09575533 39.76363677 -7.42140198 42.8657074 C-8.24515364 44.79143941 -9.07195101 46.71587225 -9.90220642 48.6388092 C-11.79470227 53.04551661 -13.58227635 57.4112395 -15 62 C-16.65 61.67 -18.3 61.34 -20 61 C-20.027193 59.41676312 -20.04648306 57.83338938 -20.0625 56.25 C-20.07410156 55.36828125 -20.08570313 54.4865625 -20.09765625 53.578125 C-20 51 -20 51 -19.51246643 49.09674072 C-18.99417142 46.97615255 -18.80626698 45.05202445 -18.70288086 42.87402344 C-18.66291489 42.07349548 -18.62294891 41.27296753 -18.58177185 40.44818115 C-18.54318558 39.59387512 -18.5045993 38.73956909 -18.46484375 37.859375 C-18.42186661 36.97719299 -18.37888947 36.09501099 -18.33460999 35.18609619 C-18.19848715 32.37422956 -18.06792279 29.56213622 -17.9375 26.75 C-17.84606964 24.84112824 -17.75427703 22.9322738 -17.66210938 21.0234375 C-17.43720555 16.34914869 -17.21728578 11.67464888 -17 7 C-15.58805221 6.48404154 -14.17181747 5.97980579 -12.75390625 5.48046875 C-11.9657251 5.19840576 -11.17754395 4.91634277 -10.36547852 4.62573242 C-6.90628677 3.71068356 -4.45258727 4.19194766 -1 5 C-0.67 3.35 -0.34 1.7 0 0 Z " fill="#0D0A0B" transform="translate(266,289)"/>
<path d="M0 0 C2.90446276 2.19689227 4.33400263 4.26727418 5.98828125 7.50390625 C5.98828125 8.16390625 5.98828125 8.82390625 5.98828125 9.50390625 C4.33828125 10.16390625 2.68828125 10.82390625 0.98828125 11.50390625 C0.98828125 12.16390625 0.98828125 12.82390625 0.98828125 13.50390625 C-1.29765705 15.03690045 -3.56979448 16.44251156 -5.94921875 17.81640625 C-6.63274414 18.21722412 -7.31626953 18.61804199 -8.02050781 19.03100586 C-10.01345265 20.19591274 -12.0123101 21.35014234 -14.01171875 22.50390625 C-14.96691406 23.0659375 -15.92210938 23.62796875 -16.90625 24.20703125 C-22.61893858 27.50390625 -22.61893858 27.50390625 -26.01171875 27.50390625 C-26.01171875 28.16390625 -26.01171875 28.82390625 -26.01171875 29.50390625 C-27.8984375 29.25390625 -27.8984375 29.25390625 -30.01171875 28.50390625 C-33.00440148 23.66375512 -33.48692607 18.07661064 -32.578125 12.56640625 C-30.87622192 6.36913159 -26.10957254 2.09582949 -21.01171875 -1.49609375 C-13.32987049 -5.09185251 -7.03089974 -4.26225528 0 0 Z " fill="#0D090B" transform="translate(98.01171875,12.49609375)"/>
<path d="M0 0 C0.62777344 0.33128906 1.25554687 0.66257812 1.90234375 1.00390625 C6.37475739 3.12767809 11.55633634 2.49084564 16.125 0.9375 C21.16693325 -0.70660867 25.37756073 0.68854451 30.125 2.625 C33.46076673 3.95672083 35.51265505 4.23082763 39 3 C39.66 2.67 40.32 2.34 41 2 C42.70702735 1.93003986 44.41668003 1.91559846 46.125 1.9375 C47.03507812 1.94652344 47.94515625 1.95554687 48.8828125 1.96484375 C49.93082031 1.98224609 49.93082031 1.98224609 51 2 C51 2.66 51 3.32 51 4 C55.7204763 6.28871578 59.97043203 6.57706057 65.1328125 5.59375 C71.10937805 4.51088795 71.10937805 4.51088795 73.90625 6.046875 C74.88078125 6.73523438 74.88078125 6.73523438 75.875 7.4375 C81.28631294 10.96828575 86.88076169 10.25886993 93.08544922 9.72631836 C99.06253757 9.3851715 99.06253757 9.3851715 101.9699707 11.29199219 C103.15757301 12.36040113 104.32191937 13.45534977 105.45898438 14.57739258 C107.47967834 16.44282093 109.24403552 16.96062085 111.9375 17.375 C113.09572266 17.57222656 113.09572266 17.57222656 114.27734375 17.7734375 C114.84582031 17.84820312 115.41429687 17.92296875 116 18 C115.67 19.32 115.34 20.64 115 22 C109.36196965 22.29162226 105.92308124 22.09123706 101 19 C100.61714844 18.46632813 100.23429688 17.93265625 99.83984375 17.3828125 C96.84047604 15.12851066 93.44884483 15.95648372 89.875 16.1875 C82.96207251 16.46126497 79.47704406 15.70834507 74.04296875 11.19921875 C71.30508948 9.59208885 69.9251606 9.98081107 66.875 10.6875 C65.62589844 11.03941406 65.62589844 11.03941406 64.3515625 11.3984375 C58.61700317 12.86541779 53.95612937 10.78026769 49 8 C49 7.34 49 6.68 49 6 C47.51988629 6.30798326 46.04092675 6.621518 44.5625 6.9375 C43.73878906 7.11152344 42.91507812 7.28554687 42.06640625 7.46484375 C40.02338796 7.80752994 40.02338796 7.80752994 39 9 C35.1638778 9.14475933 31.67692213 9.17661508 28 8 C28 7.34 28 6.68 28 6 C20.98444841 4.72516335 20.98444841 4.72516335 14.25 6.4375 C10.82471303 8.08427258 8.74098511 8.27373062 5 8 C5 7.34 5 6.68 5 6 C-1.80482634 4.99501675 -5.84062836 4.65251541 -12 8 C-17.00564098 8.61689237 -20.52344993 8.28414133 -25 6 C-28.7919125 6.16486576 -30.61795294 6.69982017 -33.625 9.0625 C-39.81040342 12.61337974 -47.21443523 11.53142104 -54 10 C-54 8.68 -54 7.36 -54 6 C-52.98679687 6.03480469 -51.97359375 6.06960937 -50.9296875 6.10546875 C-49.5781417 6.13362595 -48.22657781 6.16092403 -46.875 6.1875 C-46.20984375 6.21263672 -45.5446875 6.23777344 -44.859375 6.26367188 C-40.08452584 6.33389025 -37.13405581 5.28271777 -33 3 C-32.01 3 -31.02 3 -30 3 C-30 2.34 -30 1.68 -30 1 C-26.50310971 0.68210088 -24.77698766 1.09955908 -21.5 2.5625 C-17.74530961 4.10460498 -16.72254641 4.30289124 -13 3 C-11.865625 2.484375 -10.73125 1.96875 -9.5625 1.4375 C-5.95980318 -0.01621977 -3.82571412 -0.42507935 0 0 Z " fill="#AFAAA7" transform="translate(155,108)"/>
<path d="M0 0 C2.5 0.125 2.5 0.125 3.5 1.125 C3.76212652 3.7707303 3.95052737 6.38559455 4.0859375 9.0390625 C4.15039566 10.29573227 4.15039566 10.29573227 4.21615601 11.57778931 C4.67876904 22.07814263 4.44493563 32.56959316 4.203125 43.07324219 C4.12400839 46.54349436 4.05739392 50.0138362 3.9921875 53.484375 C3.94603764 55.70574435 3.89918909 57.92709932 3.8515625 60.1484375 C3.83171295 61.17858978 3.8118634 62.20874207 3.79141235 63.27011108 C3.76823944 64.22946564 3.74506653 65.18882019 3.72119141 66.17724609 C3.70263092 67.01484467 3.68407043 67.85244324 3.66494751 68.71542358 C3.49115199 71.2542529 3.05082692 73.64290773 2.5 76.125 C-1.98236869 77.87719867 -5.45583435 78.3424404 -10.25 78 C-11.37921875 77.93554688 -12.5084375 77.87109375 -13.671875 77.8046875 C-16.5 77.125 -16.5 77.125 -17.890625 75.0703125 C-18.09171875 74.42835938 -18.2928125 73.78640625 -18.5 73.125 C-17.84 72.135 -17.18 71.145 -16.5 70.125 C-13.8984375 69.61328125 -13.8984375 69.61328125 -10.875 69.4375 C-9.87210938 69.37175781 -8.86921875 69.30601562 -7.8359375 69.23828125 C-6.67964844 69.18220703 -6.67964844 69.18220703 -5.5 69.125 C-4.8738944 56.28650482 -4.42486744 43.48027546 -4.5 30.625 C-4.53993721 23.08924269 -4.49862772 15.58733051 -4.0625 8.0625 C-4.02318359 7.35996094 -3.98386719 6.65742188 -3.94335938 5.93359375 C-3.56004642 0.17800232 -3.56004642 0.17800232 0 0 Z " fill="#81796F" transform="translate(164.5,272.875)"/>
<path d="M0 0 C0.8971875 0.5259375 0.8971875 0.5259375 1.8125 1.0625 C2.98807956 22.43285693 3.41050839 43.86066407 2.4375 65.25 C2.40672363 66.01538086 2.37594727 66.78076172 2.34423828 67.56933594 C2.14004213 71.21097516 1.88337617 72.95618575 -0.1875 76.0625 C-3.10464801 76.33820606 -5.7761826 76.4347561 -8.6875 76.375 C-9.86505859 76.37983398 -9.86505859 76.37983398 -11.06640625 76.38476562 C-16.92046131 76.32953869 -16.92046131 76.32953869 -19.1875 74.0625 C-18.65178571 70.52678571 -18.65178571 70.52678571 -17.1875 69.0625 C-15.50566052 68.82962992 -13.8162584 68.64985834 -12.125 68.5 C-11.25302979 68.42273682 -10.38105957 68.34547363 -9.48266602 68.26586914 C-8.72526123 68.19875732 -7.96785645 68.13164551 -7.1875 68.0625 C-6.08282513 56.04792791 -6.11060407 44.13904098 -6.20800781 32.08764648 C-6.28679647 21.35683799 -6.08982073 10.76043869 -5.1875 0.0625 C-2.1875 -0.9375 -2.1875 -0.9375 0 0 Z " fill="#867D73" transform="translate(193.1875,273.9375)"/>
<path d="M0 0 C5.12595859 4.72653324 8.12345473 10.17012373 8.5625 17.125 C8.32952833 23.94641038 6.08667553 29.55381289 2 35 C-3.7357259 39.6220884 -10.72175032 41.17876403 -18 41 C-20.1640625 40.6953125 -20.1640625 40.6953125 -22 40 C-22.66 39.01 -23.32 38.02 -24 37 C-24.9075 36.79375 -25.815 36.5875 -26.75 36.375 C-31.57410969 34.33403051 -33.61686623 30.54891331 -36 26 C-38.23621433 18.95659437 -37.27473756 12.46198214 -34 6 C-31.82529017 1.87988649 -29.76518968 -1.15708772 -25.48046875 -3.203125 C-16.3698367 -6.0063964 -7.96166814 -5.48780189 0 0 Z M-21 -2 C-21.11859375 -1.35933594 -21.2371875 -0.71867188 -21.359375 -0.05859375 C-21.57078125 0.62074219 -21.7821875 1.30007812 -22 2 C-23.65697379 2.69040574 -25.3255761 3.3530635 -27 4 C-30.01841274 5.7661266 -30.01841274 5.7661266 -32 9 C-32.42076876 13.0341205 -32.28998017 16.95960962 -32 21 C-31.34 21.33 -30.68 21.66 -30 22 C-29.319375 23.423125 -29.319375 23.423125 -28.625 24.875 C-27.28896662 28.05044105 -27.28896662 28.05044105 -24.875 29.4375 C-23 31 -23 31 -22.25 34.6875 C-22.12625 36.3271875 -22.12625 36.3271875 -22 38 C-21.34 38 -20.68 38 -20 38 C-19.67 36.35 -19.34 34.7 -19 33 C-18.3709375 33.04640625 -17.741875 33.0928125 -17.09375 33.140625 C-10.79576843 33.40620254 -6.15486676 32.78894584 -1 29 C2.7324719 25.1742163 3.22346806 22.29209467 3.25 17.125 C3.18619084 15.41582604 3.10933663 13.70686635 3 12 C2.34 12 1.68 12 1 12 C0.8453125 11.1646875 0.8453125 11.1646875 0.6875 10.3125 C-0.68693944 5.68938552 -2.87962928 2.49553235 -7 0 C-10.49266506 -0.79207889 -10.49266506 -0.79207889 -14.25 -1.1875 C-15.51328125 -1.34605469 -16.7765625 -1.50460938 -18.078125 -1.66796875 C-19.04234375 -1.77753906 -20.0065625 -1.88710937 -21 -2 Z " fill="#EFE5D7" transform="translate(236,133)"/>
<path d="M0 0 C2.64 0.33 5.28 0.66 8 1 C9.69460837 4.85191615 10.58079946 8.53351674 11.3359375 12.66796875 C12.89519942 20.85941804 14.91534763 28.90833167 17.01660156 36.9753418 C17.63581668 39.3540522 18.24799688 41.73449887 18.859375 44.11523438 C19.2522024 45.63552054 19.64541638 47.15570687 20.0390625 48.67578125 C20.22135406 49.38398514 20.40364563 50.09218903 20.59146118 50.82185364 C21.54262443 54.50170171 21.54262443 54.50170171 23 58 C23.18704404 60.69013339 23.08581391 63.29686177 23 66 C22 67 22 67 19.625 67.375 C17 67 17 67 15.375 65.0625 C12.22818182 58.0536777 10.33837527 50.71786444 8.625 43.25 C8.19571652 41.40355186 7.76601647 39.55720052 7.3359375 37.7109375 C7.00867676 36.30086426 7.00867676 36.30086426 6.67480469 34.86230469 C6.00467278 32.01982043 5.30777572 29.18527996 4.6015625 26.3515625 C0.22367019 8.68247025 0.22367019 8.68247025 0 0 Z " fill="#877E74" transform="translate(66,94)"/>
<path d="M0 0 C1.39061646 0.00564972 1.39061646 0.00564972 2.80932617 0.01141357 C81.55798383 0.38581021 81.55798383 0.38581021 98.41015625 14.89453125 C98.76980469 15.34183594 99.12945312 15.78914063 99.5 16.25 C98.84 16.91 98.18 17.57 97.5 18.25 C94.71895705 17.94099523 92.32299839 17.18706609 89.6875 16.25 C86.63801257 15.29329806 83.79055966 14.9315803 80.625 14.58984375 C77.61768775 14.10889492 74.86756836 13.11388958 72.00097656 12.10693359 C61.84838789 8.62825473 51.68829693 7.16104673 41.0625 6.0625 C40.2422937 5.97595154 39.4220874 5.88940308 38.57702637 5.80023193 C11.37072043 2.98775464 -17.07909625 1.92807298 -43.7734375 8.65234375 C-47.14240839 9.39081445 -50.07229314 9.48914234 -53.5 9.25 C-53.5 8.26 -53.5 7.27 -53.5 6.25 C-51.00252276 5.61326694 -48.50264899 4.99083509 -46 4.375 C-45.32324219 4.20097656 -44.64648438 4.02695313 -43.94921875 3.84765625 C-29.40501432 0.30987679 -14.88051928 -0.0919087 0 0 Z " fill="#CEBFAC" transform="translate(158.5,247.75)"/>
<path d="M0 0 C0.70866211 0.09361816 1.41732422 0.18723633 2.14746094 0.28369141 C8.57856521 1.19464187 14.59254565 2.17588929 19.8125 6.25 C21.25 8.25 21.25 8.25 21.25 11.25 C19.83521865 11.89995297 18.41808513 12.54478722 17 13.1875 C16.21109375 13.54714844 15.4221875 13.90679687 14.609375 14.27734375 C10.16007588 16.11157468 6.52331623 16.32427838 1.76171875 16.1875 C-0.89140552 16.20151314 -0.89140552 16.20151314 -4.046875 16.74609375 C-7.9760909 17.28076553 -11.72429418 17.34757262 -15.6875 17.3125 C-16.37134766 17.30798828 -17.05519531 17.30347656 -17.75976562 17.29882812 C-19.42321604 17.2871956 -21.0866205 17.26926694 -22.75 17.25 C-22.255 15.765 -22.255 15.765 -21.75 14.25 C-19.6875 13.5625 -19.6875 13.5625 -17.75 13.25 C-17.42 11.27 -17.09 9.29 -16.75 7.25 C-16.09 7.25 -15.43 7.25 -14.75 7.25 C-15.0903125 6.3528125 -15.0903125 6.3528125 -15.4375 5.4375 C-15.75 3.25 -15.75 3.25 -14.625 1.5625 C-10.15271518 -1.56809937 -5.14318595 -0.69277046 0 0 Z " fill="#C3AF9B" transform="translate(223.75,264.75)"/>
<path d="M0 0 C1.98 0 3.96 0 6 0 C18.63092613 28.66593164 18.63092613 28.66593164 19 39 C17.515 39.495 17.515 39.495 16 40 C16 40.66 16 41.32 16 42 C11.88571429 46 11.88571429 46 9 46 C6.35009957 44.67504978 4.23849826 42.92759572 2 41 C2.9520721 39.99403703 3.91187346 38.99538437 4.875 38 C5.40867187 37.443125 5.94234375 36.88625 6.4921875 36.3125 C8 35 8 35 10 35 C9.73445313 34.43152344 9.46890625 33.86304688 9.1953125 33.27734375 C7.03827174 28.56176925 5.41538676 23.99548267 4 19 C2.66545483 15.71718363 1.31511596 12.44363829 -0.07421875 9.18359375 C-1.09748571 5.66476432 -0.87371253 3.52132626 0 0 Z " fill="#857C72" transform="translate(259,230)"/>
<path d="M0 0 C0.77923828 0.63228516 0.77923828 0.63228516 1.57421875 1.27734375 C6.70146308 5.43428979 6.70146308 5.43428979 13 7 C12.01 7.495 12.01 7.495 11 8 C11.12375 9.155 11.2475 10.31 11.375 11.5 C11.40377956 16.89137159 8.63015516 20.23735743 5 24 C1.23500419 26.5099972 -0.54293606 26.61476744 -5 26 C-7.65874437 23.78890137 -9.45349726 21.09300548 -11 18 C-11.07033769 16.12620395 -11.0843022 14.24998898 -11.0625 12.375 C-11.05347656 11.37210938 -11.04445312 10.36921875 -11.03515625 9.3359375 C-11.01775391 8.17964844 -11.01775391 8.17964844 -11 7 C-12.98 7 -14.96 7 -17 7 C-17 6.67 -17 6.34 -17 6 C-16.35933594 5.98582031 -15.71867188 5.97164062 -15.05859375 5.95703125 C-8.46465756 5.59343119 -5.03699241 4.27049357 0 0 Z " fill="#6A615A" transform="translate(184,179)"/>
<path d="M0 0 C0.36096507 3.18204589 0.35872322 4.54505456 -1.66015625 7.10546875 C-29.23076923 31 -29.23076923 31 -41 31 C-43.05907404 26.63960792 -43.05907404 26.63960792 -42.81347656 23.98046875 C-41.7145314 21.30500561 -40.49467782 20.82541298 -37.921875 19.5625 C-37.09042969 19.14226563 -36.25898437 18.72203125 -35.40234375 18.2890625 C-34.52707031 17.86367188 -33.65179688 17.43828125 -32.75 17 C-27.41207566 14.35904793 -22.55174593 11.89913626 -18 8 C-15.94879612 6.72862318 -13.86950334 5.53226193 -11.76953125 4.34375 C-9.70423524 2.77540159 -9.13960512 1.28858971 -8 -1 C-4.37673261 -2.2077558 -3.35853631 -1.54311128 0 0 Z " fill="#100C0D" transform="translate(117,24)"/>
<path d="M0 0 C1.11375 0.2475 1.11375 0.2475 2.25 0.5 C3.57 0.5 4.89 0.5 6.25 0.5 C3.71511628 14.44186047 3.71511628 14.44186047 0 17.125 C-2.78548445 18.51774223 -4.64205051 19.34839271 -7.75 19.5 C-11.68614016 17.95641562 -13.38226576 17.05160136 -15.75 13.5 C-16.58571542 8.80239966 -16.37775298 5.46124676 -13.75 1.4375 C-9.10429305 -1.56285241 -5.27404256 -0.95891683 0 0 Z " fill="#82786E" transform="translate(255.75,277.5)"/>
<path d="M0 0 C2.5 0.125 2.5 0.125 3.5 1.125 C3.76411255 3.76437638 3.95371867 6.37225977 4.08984375 9.01953125 C4.13302231 9.85627884 4.17620087 10.69302643 4.22068787 11.55513 C4.73773137 23.30751484 4.35322741 35.05833268 4.0625 46.8125 C4.00911709 49.18292819 3.95637869 51.55337099 3.90429688 53.92382812 C3.77694027 59.65774124 3.64170774 65.39142451 3.5 71.125 C3.17 71.125 2.84 71.125 2.5 71.125 C2.17 60.235 1.84 49.345 1.5 38.125 C0.18 37.795 -1.14 37.465 -2.5 37.125 C-2.83 39.435 -3.16 41.745 -3.5 44.125 C-3.83 44.125 -4.16 44.125 -4.5 44.125 C-4.68981926 18.80311044 -4.68981926 18.80311044 -4.0625 8.0625 C-4.02326416 7.3619751 -3.98402832 6.6614502 -3.94360352 5.93969727 C-3.56037429 0.17801871 -3.56037429 0.17801871 0 0 Z " fill="#857B71" transform="translate(164.5,272.875)"/>
<path d="M0 0 C1.9375 0.6875 1.9375 0.6875 3.9375 1.6875 C3.75 3.4765625 3.75 3.4765625 2.9375 5.6875 C0.75 7.3984375 0.75 7.3984375 -2.0625 9.0625 C-5.61629312 11.20758234 -9.09804762 13.37175439 -12.5 15.75 C-22.68549361 22.44384127 -29.6868842 25.88317377 -42.0625 23.6875 C-42.0625 23.3575 -42.0625 23.0275 -42.0625 22.6875 C-39.4225 22.6875 -36.7825 22.6875 -34.0625 22.6875 C-34.3925 21.6975 -34.7225 20.7075 -35.0625 19.6875 C-34.0725 19.6875 -33.0825 19.6875 -32.0625 19.6875 C-32.0625 19.0275 -32.0625 18.3675 -32.0625 17.6875 C-31.01191406 17.17960937 -29.96132812 16.67171875 -28.87890625 16.1484375 C-21.84688972 12.71197693 -15.02017928 9.33245639 -8.6640625 4.71875 C-7.0625 3.6875 -7.0625 3.6875 -5.0625 3.6875 C-5.0625 3.0275 -5.0625 2.3675 -5.0625 1.6875 C-2.0625 -0.3125 -2.0625 -0.3125 0 0 Z " fill="#9D9897" transform="translate(104.0625,22.3125)"/>
<path d="M0 0 C6.80434783 0.72903727 6.80434783 0.72903727 9.25 3 C11.01559778 6.35463578 10.95951568 8.63322943 10.5 12.375 C8.70437595 15.12829021 7.44745078 16.90127461 4.5 18.375 C2.1670134 18.41522391 -0.16706666 18.41820247 -2.5 18.375 C-2.83 17.385 -3.16 16.395 -3.5 15.375 C-4.16 15.375 -4.82 15.375 -5.5 15.375 C-7.9915904 11.6376144 -7.95793285 9.80168417 -7.5 5.375 C-5.39858409 1.42433809 -4.50058661 0.48220571 0 0 Z " fill="#151112" transform="translate(157.5,136.625)"/>
<path d="M0 0 C4.56944444 2.13888889 4.56944444 2.13888889 6 5 C6.04022391 7.3329866 6.04320247 9.66706666 6 12 C5.34 12 4.68 12 4 12 C3.71125 12.639375 3.4225 13.27875 3.125 13.9375 C2 16 2 16 0 17 C-3.09647751 17.08225936 -6.00321189 16.7903617 -9 16 C-11.73734632 13.17970379 -11.95996439 11.32600422 -12.4375 7.4375 C-12 4 -12 4 -10.5 1.5625 C-7.03906542 -0.60058411 -3.92153467 -0.66136993 0 0 Z " fill="#120D0F" transform="translate(224,141)"/>
<path d="M0 0 C0.86753906 0.6703125 1.73507813 1.340625 2.62890625 2.03125 C7.7016864 4.99380063 12.22044981 4.14287692 17.92382812 3.66796875 C22.65565871 3.44893749 25.19210455 3.68427246 28.7890625 6.921875 C29.34231201 7.4689209 29.89556152 8.0159668 30.46557617 8.57958984 C32.48200617 10.44619124 34.24678416 10.96104372 36.9375 11.375 C37.70964844 11.50648437 38.48179687 11.63796875 39.27734375 11.7734375 C39.84582031 11.84820312 40.41429687 11.92296875 41 12 C40.67 13.32 40.34 14.64 40 16 C34.36196965 16.29162226 30.92308124 16.09123706 26 13 C25.61714844 12.46632813 25.23429687 11.93265625 24.83984375 11.3828125 C21.84014949 9.12826522 18.44909897 9.95725957 14.875 10.1875 C8.07457296 10.44374385 4.47963512 9.80761211 -0.86328125 5.3359375 C-4.86957558 2.83108803 -9.45115894 3.54086464 -14 4 C-13 2 -13 2 -10.375 0.875 C-6.64144158 -0.09295959 -3.84110637 -0.41154711 0 0 Z " fill="#A39E9C" transform="translate(230,114)"/>
<path d="M0 0 C0.33 0 0.66 0 1 0 C1.33 5.94 1.66 11.88 2 18 C2.99 18.33 3.98 18.66 5 19 C5.99 16.36 6.98 13.72 8 11 C9 15 9 15 9 18 C9.66 18 10.32 18 11 18 C8.60309494 25.44302097 5.84737559 32.71837152 3 40 C1.35 39.67 -0.3 39.34 -2 39 C-2.027193 37.41676312 -2.04648306 35.83338938 -2.0625 34.25 C-2.07410156 33.36828125 -2.08570313 32.4865625 -2.09765625 31.578125 C-2 29 -2 29 -1.51367188 27.20507812 C-0.88197194 24.49333201 -0.7829742 21.92327759 -0.68359375 19.140625 C-0.64169922 18.02558594 -0.59980469 16.91054688 -0.55664062 15.76171875 C-0.51732422 14.60285156 -0.47800781 13.44398438 -0.4375 12.25 C-0.37272461 10.48849609 -0.37272461 10.48849609 -0.30664062 8.69140625 C-0.20065206 5.79438549 -0.09858362 2.89728065 0 0 Z " fill="#282526" transform="translate(248,311)"/>
<path d="M0 0 C0.33 0.66 0.66 1.32 1 2 C4.3 2 7.6 2 11 2 C11 3.98 11 5.96 11 8 C10.01 7.34 9.02 6.68 8 6 C7.67 7.98 7.34 9.96 7 12 C7.99 12.33 8.98 12.66 10 13 C10 13.99 10 14.98 10 16 C5.71702469 17.05619003 1.57014354 17.11702092 -2.8125 17.0625 C-3.50537109 17.05798828 -4.19824219 17.05347656 -4.91210938 17.04882812 C-6.60811068 17.03713156 -8.30406703 17.01919924 -10 17 C-9.505 15.515 -9.505 15.515 -9 14 C-6.9375 13.3125 -6.9375 13.3125 -5 13 C-4.67 11.02 -4.34 9.04 -4 7 C-3.34 7 -2.68 7 -2 7 C-2.3403125 6.1028125 -2.3403125 6.1028125 -2.6875 5.1875 C-2.790625 4.465625 -2.89375 3.74375 -3 3 C-1.5625 1.25 -1.5625 1.25 0 0 Z " fill="#CEBEA5" transform="translate(211,265)"/>
<path d="M0 0 C3.75 0.375 3.75 0.375 9.75 4.375 C8.43 10.315 7.11 16.255 5.75 22.375 C3.44 22.375 1.13 22.375 -1.25 22.375 C-1.13601335 20.74919034 -1.00844341 19.12432843 -0.875 17.5 C-0.80539062 16.59507812 -0.73578125 15.69015625 -0.6640625 14.7578125 C-0.25 12.375 -0.25 12.375 1.75 10.375 C1.75 9.055 1.75 7.735 1.75 6.375 C0.326875 6.6534375 0.326875 6.6534375 -1.125 6.9375 C-4.25 7.375 -4.25 7.375 -6.25 6.375 C-5.39242735 2.08713675 -4.62696705 0.53388081 0 0 Z " fill="#E7BA44" transform="translate(259.25,271.625)"/>
<path d="M0 0 C6.46619872 -0.17493724 12.30181435 0.36438973 18.625 1.6875 C19.48585205 1.86466553 20.3467041 2.04183105 21.23364258 2.22436523 C28.91912651 3.86988262 36.85099575 5.67075569 44 9 C44.495 10.485 44.495 10.485 45 12 C40.61854149 13.50612636 38.15852172 12.44441352 34.1015625 10.7578125 C31.45721695 9.80427526 28.82463279 9.57503624 26.0390625 9.30078125 C23.122329 8.87053512 20.48924398 7.88371881 17.71875 6.8984375 C11.9009824 4.97589936 5.92867236 3.53879902 0 2 C0 1.34 0 0.68 0 0 Z " fill="#B0A59B" transform="translate(213,253)"/>
<path d="M0 0 C0.33 0 0.66 0 1 0 C1 16.17 1 32.34 1 49 C0.67 49 0.34 49 0 49 C-0.33 38.11 -0.66 27.22 -1 16 C-2.32 15.67 -3.64 15.34 -5 15 C-5.33 17.31 -5.66 19.62 -6 22 C-6.33 22 -6.66 22 -7 22 C-7 16.06 -7 10.12 -7 4 C-5.02 3.34 -3.04 2.68 -1 2 C-0.67 1.34 -0.34 0.68 0 0 Z " fill="#928A82" transform="translate(167,295)"/>
<path d="M0 0 C1.98 0 3.96 0 6 0 C5.5285213 4.05271056 5.05325614 8.1048895 4.5703125 12.15625 C4.19382982 15.32125698 3.83573722 18.48750901 3.4921875 21.65625 C3.3282884 23.10418517 3.16423218 24.55210257 3 26 C2.9292627 26.68771484 2.85852539 27.37542969 2.78564453 28.08398438 C2.59367599 29.73230944 2.30582056 31.36895701 2 33 C1.01 33.495 1.01 33.495 0 34 C0 22.78 0 11.56 0 0 Z " fill="#080406" transform="translate(249,296)"/>
<path d="M0 0 C0.53753906 0.4434375 1.07507813 0.886875 1.62890625 1.34375 C4.74996704 3.71876775 7.21729636 4.55296147 11.19140625 4.84375 C10.53140625 5.50375 9.87140625 6.16375 9.19140625 6.84375 C11.17140625 9.81375 11.17140625 9.81375 13.19140625 12.84375 C9.50261326 11.04127161 5.96490542 9.0161288 2.41015625 6.96484375 C0.32222507 5.90985036 -1.52487596 5.30568383 -3.80859375 4.84375 C-3.80859375 4.18375 -3.80859375 3.52375 -3.80859375 2.84375 C-5.70470809 2.98588297 -7.60047769 3.13261907 -9.49609375 3.28125 C-10.55183594 3.36246094 -11.60757813 3.44367188 -12.6953125 3.52734375 C-15.45945672 3.80826681 -18.09805116 4.24531852 -20.80859375 4.84375 C-20.47859375 3.52375 -20.14859375 2.20375 -19.80859375 0.84375 C-17.74937242 0.31010113 -15.68603268 -0.20767189 -13.62109375 -0.71875 C-12.47253906 -1.00878906 -11.32398438 -1.29882812 -10.140625 -1.59765625 C-6.13411683 -2.26932175 -3.45671012 -2.20990539 0 0 Z " fill="#E2D2C1" transform="translate(230.80859375,119.15625)"/>
<path d="M0 0 C7.6400385 -0.93551492 7.6400385 -0.93551492 10.83984375 1.265625 C11.95445242 2.34613976 13.06116999 3.43484959 14.16015625 4.53125 C17.33388838 7.06484508 21.05575502 7.48125576 25 8 C24.67 9.32 24.34 10.64 24 12 C17.5084895 12.33576778 13.30941828 11.75784857 8.125 7.4375 C7 6 7 6 7 4 C4.36 4 1.72 4 -1 4 C-1.33 3.34 -1.66 2.68 -2 2 C-1.34 2 -0.68 2 0 2 C0 1.34 0 0.68 0 0 Z " fill="#9D9896" transform="translate(246,118)"/>
<path d="M0 0 C0.66 0 1.32 0 2 0 C1.22225866 5.05531868 0.14051606 10.01716284 -1 15 C-0.34 15 0.32 15 1 15 C1.82200425 21.24723226 -1.07448606 25.71317837 -4 31 C-4.66 31 -5.32 31 -6 31 C-6.33 31.99 -6.66 32.98 -7 34 C-8.43546025 21.71884006 -4.23197699 11.33726055 0 0 Z " fill="#181515" transform="translate(263,298)"/>
<path d="M0 0 C0.99 0.66 1.98 1.32 3 2 C3 5 3 5 1.4609375 6.75390625 C-2.60779278 10.28166303 -5.74899265 12.49971219 -11 14 C-11.99 15.485 -11.99 15.485 -13 17 C-13.66 17 -14.32 17 -15 17 C-12.85714286 7.71428571 -12.85714286 7.71428571 -9.75 5.125 C-8.38875 4.568125 -8.38875 4.568125 -7 4 C-5.72122903 3.28484534 -4.4505705 2.55503236 -3.1875 1.8125 C-2.135625 1.214375 -1.08375 0.61625 0 0 Z " fill="#F6F3EC" transform="translate(266,260)"/>
<path d="M0 0 C3.07692057 2.76922851 4.77800007 5.02850024 6 9 C6 9.99 6 10.98 6 12 C6.99 12.33 7.98 12.66 9 13 C8.34 13 7.68 13 7 13 C8.1678266 16.81413002 8.1678266 16.81413002 11.125 19.3125 C11.74375 19.539375 12.3625 19.76625 13 20 C12.8125 22.375 12.8125 22.375 12 25 C11.20980469 25.28488281 10.41960937 25.56976563 9.60546875 25.86328125 C6.29514699 27.30751458 5.87476354 28.53761685 4.5 31.8125 C1.45051269 38.41497253 -2.63802481 42.40410098 -9 46 C-9.99 45.67 -10.98 45.34 -12 45 C-10.54550599 43.9944239 -9.08627557 42.99569565 -7.625 42 C-6.81289062 41.443125 -6.00078125 40.88625 -5.1640625 40.3125 C-3 39 -3 39 -1 39 C-0.773125 38.360625 -0.54625 37.72125 -0.3125 37.0625 C0.82546452 34.40724946 2.00625 31.82553066 3.3125 29.25 C3.89451172 28.08210938 3.89451172 28.08210938 4.48828125 26.890625 C6 25 6 25 8.66796875 24.234375 C9.43753906 24.15703125 10.20710938 24.0796875 11 24 C10.88693303 22.04105639 10.88693303 22.04105639 10 20 C9.19304687 19.75636719 8.38609375 19.51273438 7.5546875 19.26171875 C5 18 5 18 3.92578125 15.13671875 C3.72339844 13.99847656 3.52101562 12.86023438 3.3125 11.6875 C2.54403506 7.55287576 1.69990945 3.85553932 0 0 Z " fill="#DFC071" transform="translate(244,132)"/>
<path d="M0 0 C0.66 0 1.32 0 2 0 C2.33 0.99 2.66 1.98 3 3 C5.31 2.34 7.62 1.68 10 1 C10 1.66 10 2.32 10 3 C12.64 3.33 15.28 3.66 18 4 C18.33 5.98 18.66 7.96 19 10 C18.34 9.67 17.68 9.34 17 9 C14.49627948 8.79327078 12.00775487 8.62655959 9.5 8.5 C2.27027027 8.13513514 2.27027027 8.13513514 0 7 C0 4.69 0 2.38 0 0 Z " fill="#E9DBCC" transform="translate(169,277)"/>
<path d="M0 0 C2 0 2 0 4.125 1.875 C6 4 6 4 6 6 C6.66 6 7.32 6 8 6 C7.34 7.32 6.68 8.64 6 10 C2.53283176 10.42455121 -0.01231467 10.63494057 -3.0234375 8.69921875 C-4.77871681 7.19827583 -6.44421882 5.70710336 -8 4 C-8 3.67 -8 3.34 -8 3 C-6.8553125 3.0928125 -6.8553125 3.0928125 -5.6875 3.1875 C-2.52219632 2.96666486 -2.01513783 2.30301466 0 0 Z " fill="#E1CEB2" transform="translate(198,168)"/>
<path d="M0 0 C3.78517206 0.25662183 5.01775858 0.68704824 7.6875 3.25 C7.3575 5.89 7.0275 8.53 6.6875 11.25 C6.0275 11.25 5.3675 11.25 4.6875 11.25 C4.0275 9.27 3.3675 7.29 2.6875 5.25 C1.264375 5.5284375 1.264375 5.5284375 -0.1875 5.8125 C-3.3125 6.25 -3.3125 6.25 -5.3125 5.25 C-4.19856811 0.31687307 -4.19856811 0.31687307 0 0 Z " fill="#EEB51D" transform="translate(258.3125,272.75)"/>
<path d="M0 0 C-0.66479777 4.80705773 -1.34048201 9.61240955 -2.02636719 14.41650391 C-2.25822111 16.05149617 -2.48707782 17.68691635 -2.71289062 19.32275391 C-3.03772236 21.67208518 -3.3732515 24.01967389 -3.7109375 26.3671875 C-3.85950699 27.46726639 -3.85950699 27.46726639 -4.01107788 28.58956909 C-4.77225659 33.77225659 -4.77225659 33.77225659 -7 36 C-6.56208275 24.7802581 -5.16754569 14.01494915 -3 3 C-3.66 2.67 -4.32 2.34 -5 2 C-2 0 -2 0 0 0 Z " fill="#262425" transform="translate(258,293)"/>
<path d="M0 0 C4.61856712 0.37246509 7.6774947 1.35848891 11.875 3.3125 C12.205 4.3025 12.535 5.2925 12.875 6.3125 C8.22848573 7.77383311 5.48153212 6.70510421 1.0625 4.875 C-0.09894531 4.40191406 -1.26039063 3.92882812 -2.45703125 3.44140625 C-3.33746094 3.06886719 -4.21789062 2.69632812 -5.125 2.3125 C-3.125 0.3125 -3.125 0.3125 0 0 Z " fill="#A69D96" transform="translate(245.125,258.6875)"/>
<path d="M0 0 C2.04119788 1.61594832 4.04072937 3.2856382 6 5 C6 5.66 6 6.32 6 7 C2.98131566 8.50934217 0.32702771 8.17510672 -3 8 C-3.99 7.34 -4.98 6.68 -6 6 C-6 5.34 -6 4.68 -6 4 C-4.03852126 2.61061923 -2.03833424 1.2739589 0 0 Z " fill="#DECFC1" transform="translate(184,179)"/>
<path d="M0 0 C0.66 0.66 1.32 1.32 2 2 C1.34 2 0.68 2 0 2 C0 1.34 0 0.68 0 0 Z M-1 2 C-0.21625 2.185625 0.5675 2.37125 1.375 2.5625 C3.97089775 3.25962266 3.97089775 3.25962266 6 2 C5.835 2.598125 5.67 3.19625 5.5 3.8125 C4.8885876 6.11344336 4.8885876 6.11344336 5 9 C3.35 9 1.7 9 0 9 C-0.33 12.96 -0.66 16.92 -1 21 C-1.33 21 -1.66 21 -2 21 C-2.22237877 18.58388467 -2.42832339 16.1682283 -2.625 13.75 C-2.72167969 12.72712891 -2.72167969 12.72712891 -2.8203125 11.68359375 C-3.11594735 7.8772951 -3.17561392 5.22190154 -1 2 Z " fill="#DBC8B6" transform="translate(162,265)"/>
<path d="M0 0 C0.33 0.99 0.66 1.98 1 3 C3.97 3.495 3.97 3.495 7 4 C6.34 6.31 5.68 8.62 5 11 C3.35 10.67 1.7 10.34 0 10 C0 6.7 0 3.4 0 0 Z " fill="#D9BE7D" transform="translate(246,340)"/>
<path d="M0 0 C-3.90723762 1.95361881 -8.83958238 1.76032417 -13.171875 2.16210938 C-17.74033785 2.6242154 -21.63678 3.51057221 -26 5 C-28.7734375 5.1953125 -28.7734375 5.1953125 -31.375 5.125 C-32.24898438 5.10695313 -33.12296875 5.08890625 -34.0234375 5.0703125 C-34.67570312 5.04710938 -35.32796875 5.02390625 -36 5 C-36 4.67 -36 4.34 -36 4 C-32.5640523 3.34572863 -29.12600185 2.70320086 -25.6875 2.0625 C-24.73037109 1.88009766 -23.77324219 1.69769531 -22.78710938 1.50976562 C-5.2265625 -1.7421875 -5.2265625 -1.7421875 0 0 Z " fill="#F3EEE6" transform="translate(138,82)"/>
<path d="M0 0 C1.9375 0.6875 1.9375 0.6875 3.9375 1.6875 C3.75 3.5625 3.75 3.5625 2.9375 5.6875 C0.375 6.9375 0.375 6.9375 -2.0625 7.6875 C-5.0625 3.9375 -5.0625 3.9375 -5.0625 1.6875 C-2.0625 -0.3125 -2.0625 -0.3125 0 0 Z " fill="#999492" transform="translate(104.0625,22.3125)"/>
<path d="M0 0 C0.66 0 1.32 0 2 0 C1.35824511 4.33511978 0.39217732 8.43054484 -0.875 12.625 C-1.20242188 13.73101562 -1.52984375 14.83703125 -1.8671875 15.9765625 C-2.92804778 18.80796201 -4.05081564 20.71666975 -6 23 C-5.50387003 14.89654389 -2.679915 7.59474067 0 0 Z " fill="#252324" transform="translate(263,298)"/>
<path d="M0 0 C0.99 0.33 1.98 0.66 3 1 C1.42173185 2.46381359 -0.16282229 3.92085163 -1.75 5.375 C-2.63171875 6.18710938 -3.5134375 6.99921875 -4.421875 7.8359375 C-6.59802521 9.6625848 -8.40820119 10.89787994 -11 12 C-10.45550236 8.20527027 -8.96207612 6.72968732 -6.0625 4.3125 C-5.35222656 3.71050781 -4.64195312 3.10851562 -3.91015625 2.48828125 C-2 1 -2 1 0 0 Z " fill="#E7BB43" transform="translate(209,124)"/>
<path d="M0 0 C2.67872632 1.79100888 3.43376656 3.10849211 5 6 C4.67 6.66 4.34 7.32 4 8 C3.46375 7.38125 2.9275 6.7625 2.375 6.125 C-1.32889026 2.81099292 -4.66297728 2.09382616 -9.5625 1.75 C-12.87739681 1.9910834 -15.02426934 2.59479385 -18 4 C-18.99 4.33 -19.98 4.66 -21 5 C-21 4.34 -21 3.68 -21 3 C-14.43958829 -0.74880669 -7.41865752 -1.16708149 0 0 Z " fill="#EEE5DA" transform="translate(168,128)"/>
<path d="M0 0 C0 1.32 0 2.64 0 4 C-3.41139003 5.09651823 -6.20655581 4.94215473 -9.75 4.5625 C-10.73484375 4.46066406 -11.7196875 4.35882813 -12.734375 4.25390625 C-13.48203125 4.17011719 -14.2296875 4.08632813 -15 4 C-15 3.67 -15 3.34 -15 3 C-12.36 3 -9.72 3 -7 3 C-7.33 2.01 -7.66 1.02 -8 0 C-4.71023192 -1.09658936 -3.28696233 -0.79953138 0 0 Z " fill="#ADA7A4" transform="translate(77,42)"/>
<path d="M0 0 C0.99 0.33 1.98 0.66 3 1 C2.67 2.65 2.34 4.3 2 6 C3.65 5.34 5.3 4.68 7 4 C6.25 10.75 6.25 10.75 4 13 C4 11.02 4 9.04 4 7 C3.01 7 2.02 7 1 7 C1 6.34 1 5.68 1 5 C0.34 5 -0.32 5 -1 5 C-0.67 3.35 -0.34 1.7 0 0 Z " fill="#2F2C2C" transform="translate(266,289)"/>
<path d="M0 0 C0.33 0 0.66 0 1 0 C1 1.65 1 3.3 1 5 C-3.53708049 6.79004693 -6.96428179 7.17110238 -11.8125 6.75 C-13.52373047 6.61851562 -13.52373047 6.61851562 -15.26953125 6.484375 C-16.17058594 6.32453125 -17.07164062 6.1646875 -18 6 C-18.33 5.34 -18.66 4.68 -19 4 C-14.71 4.33 -10.42 4.66 -6 5 C-6 4.34 -6 3.68 -6 3 C-3 2 -3 2 0 3 C0 2.01 0 1.02 0 0 Z " fill="#938A82" transform="translate(166,344)"/>
<path d="M0 0 C2.375 0.3125 2.375 0.3125 5 1 C7 4 7 4 6.625 6.1875 C6.41875 6.785625 6.2125 7.38375 6 8 C3.03 7.505 3.03 7.505 0 7 C0 4.69 0 2.38 0 0 Z " fill="#4B4744" transform="translate(247,336)"/>
<path d="M0 0 C1.11072435 3.33217305 0.96109165 6.41534997 0.90234375 9.89453125 C1.05303612 13.14345872 1.97440983 15.92322949 3 19 C2.01 19 1.02 19 0 19 C-1.36904982 13.60936634 -2.44850139 8.60626744 -2 3 C-1.34 2.01 -0.68 1.02 0 0 Z " fill="#E6BC4A" transform="translate(199,143)"/>
<path d="M0 0 C0.33 0.66 0.66 1.32 1 2 C1.66 2.33 2.32 2.66 3 3 C2.01 3 1.02 3 0 3 C-0.185625 3.70125 -0.37125 4.4025 -0.5625 5.125 C-2.54820026 9.09640051 -5.53933276 11.3073418 -9 14 C-9.66 13.34 -10.32 12.68 -11 12 C-10.01 12 -9.02 12 -8 12 C-7.67 10.68 -7.34 9.36 -7 8 C-6.01 8 -5.02 8 -4 8 C-3.34 6.02 -2.68 4.04 -2 2 C-1.34 2 -0.68 2 0 2 C0 1.34 0 0.68 0 0 Z " fill="#D7C8B9" transform="translate(284,238)"/>
<path d="M0 0 C3.63 0 7.26 0 11 0 C10.67 2.31 10.34 4.62 10 7 C5.65173396 5.55057799 3.23511745 3.23511745 0 0 Z " fill="#D6C7B8" transform="translate(260,129)"/>
<path d="M0 0 C4.67461851 -0.32613618 7.16674383 0.29417212 11 3 C11 2.34 11 1.68 11 1 C12.32 1.33 13.64 1.66 15 2 C14.01 2.495 14.01 2.495 13 3 C14.98 5.97 14.98 5.97 17 9 C13.33175928 7.19922728 9.78074876 5.21932464 6.21875 3.21875 C4.16869158 2.09266157 2.09937596 1.03060274 0 0 Z " fill="#DEC280" transform="translate(227,123)"/>
<path d="M0 0 C0.33 0 0.66 0 1 0 C1 2.97 1 5.94 1 9 C-0.98 9.33 -2.96 9.66 -5 10 C-5 8.35 -5 6.7 -5 5 C-3.68 4.67 -2.36 4.34 -1 4 C-0.67 2.68 -0.34 1.36 0 0 Z " fill="#7F756B" transform="translate(193,334)"/>
<path d="M0 0 C0.66 0.33 1.32 0.66 2 1 C1.34 3.31 0.68 5.62 0 8 C-0.99 7.34 -1.98 6.68 -3 6 C-3.99 6.33 -4.98 6.66 -6 7 C-5.8125 5.1875 -5.8125 5.1875 -5 3 C-2.5625 1.1875 -2.5625 1.1875 0 0 Z " fill="#E0CCB8" transform="translate(238,175)"/>
<path d="M0 0 C1.32 0 2.64 0 4 0 C4 0.99 4 1.98 4 3 C5.32 3.33 6.64 3.66 8 4 C8 4.66 8 5.32 8 6 C5.125 6.125 5.125 6.125 2 6 C1.34 5.34 0.68 4.68 0 4 C0 2.68 0 1.36 0 0 Z " fill="#C6B9AD" transform="translate(164,171)"/>
<path d="M0 0 C0.66 0.33 1.32 0.66 2 1 C1.34 4.63 0.68 8.26 0 12 C-0.99 12 -1.98 12 -3 12 C-2.88601335 10.37419034 -2.75844341 8.74932843 -2.625 7.125 C-2.55539062 6.22007812 -2.48578125 5.31515625 -2.4140625 4.3828125 C-2 2 -2 2 0 0 Z " fill="#D9B869" transform="translate(261,282)"/>
<path d="M0 0 C0.33 0 0.66 0 1 0 C1.21364445 5.34111123 1.35033457 10.06429741 -1 15 C-4.2 18 -4.2 18 -7 18 C-7 17.34 -7 16.68 -7 16 C-6.21625 15.360625 -5.4325 14.72125 -4.625 14.0625 C-0.67948702 10.37406011 -0.60023027 5.11539526 0 0 Z " fill="#EEE5DA" transform="translate(175,142)"/>
<path d="M0 0 C0.99 0.33 1.98 0.66 3 1 C3 1.99 3 2.98 3 4 C4.32 4.33 5.64 4.66 7 5 C6.05125 5.268125 5.1025 5.53625 4.125 5.8125 C0.74732727 6.74986588 0.74732727 6.74986588 -1 10 C-1.66 10 -2.32 10 -3 10 C-2.01 6.7 -1.02 3.4 0 0 Z " fill="#EFE2D2" transform="translate(254,267)"/>
<path d="M0 0 C0.66 0.66 1.32 1.32 2 2 C0.68 3.32 -0.64 4.64 -2 6 C0.64 6 3.28 6 6 6 C4 8 4 8 0.5625 8.25 C-3 8 -3 8 -6 6 C-6 5.34 -6 4.68 -6 4 C-4.03852126 2.61061923 -2.03833424 1.2739589 0 0 Z " fill="#BBB0A5" transform="translate(184,179)"/>
<path d="M0 0 C1.93166016 0.01740234 1.93166016 0.01740234 3.90234375 0.03515625 C5.19269531 0.04417969 6.48304688 0.05320313 7.8125 0.0625 C8.81152344 0.07410156 9.81054688 0.08570313 10.83984375 0.09765625 C10.83984375 0.42765625 10.83984375 0.75765625 10.83984375 1.09765625 C9.23663401 1.29316963 7.63221389 1.47877608 6.02734375 1.66015625 C5.13402344 1.76457031 4.24070312 1.86898437 3.3203125 1.9765625 C0.83984375 2.09765625 0.83984375 2.09765625 -2.16015625 1.09765625 C-2.49015625 2.74765625 -2.82015625 4.39765625 -3.16015625 6.09765625 C-3.82015625 5.76765625 -4.48015625 5.43765625 -5.16015625 5.09765625 C-4.03724427 0.12476033 -4.03724427 0.12476033 0 0 Z " fill="#AEA7A2" transform="translate(295.16015625,169.90234375)"/>
<path d="M0 0 C1.67542976 0.28604898 3.34385343 0.61781233 5 1 C3.49776416 5.20626034 0.71449966 6.73900021 -3 9 C-3 8.01 -3 7.02 -3 6 C-2.34 6 -1.68 6 -1 6 C-1.0309375 4.7934375 -1.0309375 4.7934375 -1.0625 3.5625 C-1 1 -1 1 0 0 Z " fill="#A5A09E" transform="translate(324,249)"/>
<path d="M0 0 C1.32 0.66 2.64 1.32 4 2 C4 3.98 4 5.96 4 8 C2.68 8.33 1.36 8.66 0 9 C-0.84454356 5.62182575 -1.10844919 3.32534757 0 0 Z " fill="#A09C9A" transform="translate(321,176)"/>
<path d="M0 0 C0.99 0.33 1.98 0.66 3 1 C1.49804334 4.8231624 -0.76713373 6.5556377 -4 9 C-5.0173873 9.98230498 -6.02596117 10.97469597 -7 12 C-5.44298069 7.32894208 -2.91552627 3.91294315 0 0 Z " fill="#EBD8B7" transform="translate(208,131)"/>
<path d="M0 0 C1.13529002 3.34491489 0.86633118 5.26065531 -0.3125 8.5625 C-0.57675781 9.32691406 -0.84101562 10.09132812 -1.11328125 10.87890625 C-2 13 -2 13 -4 16 C-3.47606294 10.13190493 -2.23891142 5.45126259 0 0 Z " fill="#F0E8DE" transform="translate(74,168)"/>
<path d="M0 0 C0.33 0.99 0.66 1.98 1 3 C1.66 2.67 2.32 2.34 3 2 C3.66 2.33 4.32 2.66 5 3 C4.34 4.32 3.68 5.64 3 7 C0.36 5.68 -2.28 4.36 -5 3 C-3.68 2.34 -2.36 1.68 -1 1 C-0.67 0.67 -0.34 0.34 0 0 Z " fill="#D7C8B9" transform="translate(232,111)"/>
<path d="M0 0 C-1.12451727 2.9719385 -2.22293791 5.33440687 -4 8 C-4 7.34 -4 6.68 -4 6 C-5.32 5.67 -6.64 5.34 -8 5 C-7.34 4.67 -6.68 4.34 -6 4 C-5.34 3.01 -4.68 2.02 -4 1 C-2 0 -2 0 0 0 Z " fill="#D3C6B9" transform="translate(275,120)"/>
<path d="M0 0 C0.66 0.33 1.32 0.66 2 1 C1.21572648 2.64936913 0.42234741 4.29441127 -0.375 5.9375 C-0.81585938 6.85402344 -1.25671875 7.77054688 -1.7109375 8.71484375 C-3 11 -3 11 -5 12 C-4.67 9.69 -4.34 7.38 -4 5 C-3.01 5 -2.02 5 -1 5 C-0.67 3.35 -0.34 1.7 0 0 Z " fill="#B8B0AA" transform="translate(338,233)"/>
<path d="M0 0 C0.99 0.33 1.98 0.66 3 1 C3 2.65 3 4.3 3 6 C2.34 6 1.68 6 1 6 C1 8.64 1 11.28 1 14 C0.67 14 0.34 14 0 14 C0 9.38 0 4.76 0 0 Z " fill="#CCBCAC" transform="translate(195,275)"/>
<path d="M0 0 C1.98 0 3.96 0 6 0 C6.33 0.99 6.66 1.98 7 3 C3.7 3 0.4 3 -3 3 C-2.01 2.67 -1.02 2.34 0 2 C0 1.34 0 0.68 0 0 Z " fill="#E4D5C6" transform="translate(220,282)"/>
<path d="M0 0 C2.31 0.33 4.62 0.66 7 1 C6.67 1.66 6.34 2.32 6 3 C3.71484375 3.4140625 3.71484375 3.4140625 0.9375 3.625 C0.01839844 3.69976562 -0.90070313 3.77453125 -1.84765625 3.8515625 C-2.55792969 3.90054687 -3.26820313 3.94953125 -4 4 C-2.68 3.34 -1.36 2.68 0 2 C0 1.34 0 0.68 0 0 Z " fill="#E3D2C1" transform="translate(233,280)"/>
<path d="M0 0 C2.97 0 5.94 0 9 0 C8.01 0.495 8.01 0.495 7 1 C7 1.66 7 2.32 7 3 C7.66 3.33 8.32 3.66 9 4 C4.545 3.01 4.545 3.01 0 2 C0 1.34 0 0.68 0 0 Z " fill="#BFAD9D" transform="translate(213,253)"/>
<path d="M0 0 C2.64 0.33 5.28 0.66 8 1 C8 1.33 8 1.66 8 2 C6.02 2 4.04 2 2 2 C2.33 3.32 2.66 4.64 3 6 C1.68 5.67 0.36 5.34 -1 5 C-0.67 3.35 -0.34 1.7 0 0 Z " fill="#DFB74D" transform="translate(214,173)"/>
<path d="M0 0 C0.95651196 2.58258228 1.03620881 3.8650399 0.3125 6.5625 C-1.12035293 9.22351258 -2.47085828 10.39821025 -5 12 C-3.68938409 7.76570244 -2.05643741 3.92592596 0 0 Z " fill="#E7BC48" transform="translate(243,156)"/>
<path d="M0 0 C3.63 0 7.26 0 11 0 C11.33 1.32 11.66 2.64 12 4 C6.06 2.515 6.06 2.515 0 1 C0 0.67 0 0.34 0 0 Z " fill="#F1EBE0" transform="translate(220,131)"/>
<path d="M0 0 C0 0.99 0 1.98 0 3 C-2.8125 5.25 -2.8125 5.25 -6 7 C-6.99 6.67 -7.98 6.34 -9 6 C-7.8803014 4.99406757 -6.7540588 3.9954151 -5.625 3 C-4.68527344 2.1646875 -4.68527344 2.1646875 -3.7265625 1.3125 C-2 0 -2 0 0 0 Z " fill="#DFD0C2" transform="translate(286,111)"/>
<path d="M0 0 C0.99 0.33 1.98 0.66 3 1 C2.67 2.65 2.34 4.3 2 6 C2.66 6.33 3.32 6.66 4 7 C3.01 7 2.02 7 1 7 C1 6.34 1 5.68 1 5 C0.34 5 -0.32 5 -1 5 C-0.67 3.35 -0.34 1.7 0 0 Z " fill="#413C39" transform="translate(266,289)"/>
<path d="M0 0 C0.66 0.33 1.32 0.66 2 1 C0.7391988 2.03319813 -0.53403258 3.05124379 -1.8125 4.0625 C-2.87404297 4.91521484 -2.87404297 4.91521484 -3.95703125 5.78515625 C-4.63121094 6.18605469 -5.30539063 6.58695313 -6 7 C-6.99 6.67 -7.98 6.34 -9 6 C-6.03 4.02 -3.06 2.04 0 0 Z " fill="#E0C06D" transform="translate(241,171)"/>
<path d="M0 0 C0 0.33 0 0.66 0 1 C-6.625 3 -6.625 3 -10 3 C-10 2.01 -10 1.02 -10 0 C-6.7169902 -1.6415049 -3.57454967 -0.51888624 0 0 Z " fill="#A9A39E" transform="translate(243,119)"/>
<path d="M0 0 C-0.33 2.97 -0.66 5.94 -1 9 C-1.66 8.34 -2.32 7.68 -3 7 C-3 5.68 -3 4.36 -3 3 C-3.66 2.67 -4.32 2.34 -5 2 C-2 0 -2 0 0 0 Z " fill="#1F1C1D" transform="translate(258,293)"/>
<path d="M0 0 C0.66 0.66 1.32 1.32 2 2 C0.35 3.32 -1.3 4.64 -3 6 C-4.32 5.34 -5.64 4.68 -7 4 C-4.68143083 2.45428722 -2.49361571 1.20381448 0 0 Z " fill="#CFBDA5" transform="translate(243,276)"/>
<path d="M0 0 C0.99 0 1.98 0 3 0 C2.67 1.65 2.34 3.3 2 5 C2.66 5.33 3.32 5.66 4 6 C2.68 6.33 1.36 6.66 0 7 C-1.125 2.25 -1.125 2.25 0 0 Z " fill="#B3ACA7" transform="translate(290,247)"/>
<path d="M0 0 C1.65 0 3.3 0 5 0 C5.33 0.99 5.66 1.98 6 3 C5.34 3.66 4.68 4.32 4 5 C2.68 3.35 1.36 1.7 0 0 Z " fill="#D4C7BB" transform="translate(190,171)"/>
<path d="M0 0 C1.98 0.495 1.98 0.495 4 1 C3.34 2.65 2.68 4.3 2 6 C1.34 6 0.68 6 0 6 C-1.125 2.25 -1.125 2.25 0 0 Z " fill="#F3EEE5" transform="translate(214,165)"/>
<path d="M0 0 C0 0.99 0 1.98 0 3 C-2.64 3 -5.28 3 -8 3 C-6.23110084 -0.53779831 -3.70375662 0 0 0 Z " fill="#939091" transform="translate(271,126)"/>
</svg>
