<?xml version="1.0" encoding="UTF-8"?>
<svg version="1.1" xmlns="http://www.w3.org/2000/svg" width="360" height="360">
<path d="M0 0 C3.61168714 1.5726001 6.71628925 1.90505683 10.67929077 1.97216797 C11.33265915 1.98729431 11.98602753 2.00242065 12.65919495 2.01800537 C14.06889068 2.04880123 15.47874064 2.07310294 16.8886528 2.0914917 C19.1480648 2.1212423 21.4065202 2.16886771 23.66552734 2.22070312 C28.48969166 2.32813909 33.31411937 2.41301114 38.13876343 2.49560547 C115.85359618 3.845486 115.85359618 3.845486 133.38876343 16.37060547 C135.32247191 19.35906403 135.40530642 21.00276029 134.76376343 24.49560547 C132.51376343 27.05810547 132.51376343 27.05810547 129.76376343 29.49560547 C122.04706448 38.14766187 119.34870047 47.85860332 119.49423218 59.31591797 C119.85287446 63.5468574 120.96338832 66.66980836 122.76376343 70.49560547 C123.65579468 70.14626953 124.54782593 69.79693359 125.46688843 69.43701172 C126.63735718 68.98197266 127.80782593 68.52693359 129.01376343 68.05810547 C130.17391968 67.60564453 131.33407593 67.15318359 132.52938843 66.68701172 C144.33597346 62.33796772 158.03115097 63.6939078 169.48251343 68.67919922 C180.4933173 74.67736861 186.905614 83.74891838 190.76376343 95.49560547 C195.05556249 110.36258376 191.72553077 126.84789446 185.01376343 140.30810547 C179.67144433 149.55287428 171.24707427 157.24379859 161.14511108 160.93530273 C156.54262316 162.01821331 151.88025361 161.35520214 147.20126343 161.05810547 C139.53342936 160.62357075 139.53342936 160.62357075 132.74423218 163.60498047 C130.95413596 166.21286801 129.75459693 168.49951367 128.76376343 171.49560547 C128.43376343 172.48560547 128.10376343 173.47560547 127.76376343 174.49560547 C129.08376343 175.15560547 130.40376343 175.81560547 131.76376343 176.49560547 C131.95126343 178.87060547 131.95126343 178.87060547 131.76376343 181.49560547 C126.15380499 185.23557776 120.29076274 184.60966953 113.76376343 184.49560547 C113.43376343 186.14560547 113.10376343 187.79560547 112.76376343 189.49560547 C113.75376343 188.83560547 114.74376343 188.17560547 115.76376343 187.49560547 C116.42376343 187.82560547 117.08376343 188.15560547 117.76376343 188.49560547 C117.03745034 198.23616042 115.14388759 207.72569415 113.32626343 217.30810547 C112.69984555 220.62660959 112.0761061 223.94560258 111.45516968 227.26513672 C111.30649445 228.05937042 111.15781921 228.85360413 111.00463867 229.67190552 C109.78291239 236.26025941 108.71855457 242.8628304 107.76376343 249.49560547 C106.11376343 249.82560547 104.46376343 250.15560547 102.76376343 250.49560547 C101.66762289 248.30332439 101.44948302 246.68874198 101.15048218 244.26123047 C101.03881714 243.38708496 100.9271521 242.51293945 100.81210327 241.61230469 C100.63348755 240.19328857 100.63348755 240.19328857 100.45126343 238.74560547 C99.38417352 230.5790457 98.12686418 222.47120325 96.63876343 214.37060547 C96.46820435 213.44151367 96.29764526 212.51242187 96.12191772 211.55517578 C95.42802193 207.83829585 94.71110142 204.1573314 93.76376343 200.49560547 C90.15956416 200.80773013 86.5554103 201.12037642 82.95126343 201.43310547 C81.94643921 201.52011719 80.94161499 201.60712891 79.90634155 201.69677734 C78.90409546 201.78378906 77.90184937 201.87080078 76.86923218 201.96044922 C75.85755981 202.0480249 74.84588745 202.13560059 73.80355835 202.22583008 C71.79006526 202.40452334 69.77717399 202.59014392 67.76498413 202.78295898 C63.01963276 203.2369112 58.34917053 203.62009128 53.57626343 203.55810547 C52.65458374 203.54908203 51.73290405 203.54005859 50.78329468 203.53076172 C49.78362671 203.51335937 49.78362671 203.51335937 48.76376343 203.49560547 C48.83595093 204.48173828 48.90813843 205.46787109 48.98251343 206.48388672 C49.64463529 216.34384728 49.87306594 226.17588346 49.88876343 236.05810547 C49.89553101 237.86952026 49.89553101 237.86952026 49.9024353 239.7175293 C49.90050171 240.8418335 49.89856812 241.9661377 49.89657593 243.12451172 C49.895448 244.13586182 49.89432007 245.14721191 49.89315796 246.18920898 C49.76376343 248.49560547 49.76376343 248.49560547 48.76376343 249.49560547 C45.93959961 249.62223638 43.15081549 249.68081095 40.32626343 249.68310547 C39.53671265 249.69535156 38.74716187 249.70759766 37.9336853 249.72021484 C35.87568908 249.72547826 33.81814334 249.61766832 31.76376343 249.49560547 C31.10376343 248.83560547 30.44376343 248.17560547 29.76376343 247.49560547 C30.09376343 245.84560547 30.42376343 244.19560547 30.76376343 242.49560547 C36.20876343 241.50560547 36.20876343 241.50560547 41.76376343 240.49560547 C41.43376343 228.28560547 41.10376343 216.07560547 40.76376343 203.49560547 C34.82376343 203.82560547 28.88376343 204.15560547 22.76376343 204.49560547 C22.77947388 205.81802246 22.79518433 207.14043945 22.81137085 208.50292969 C22.86556125 213.39674823 22.90007377 218.29054014 22.92855835 223.18457031 C22.94366987 225.30505834 22.96415983 227.425515 22.99008179 229.54589844 C23.02636129 232.58910857 23.04346585 235.6319065 23.05673218 238.67529297 C23.07221603 239.62741669 23.08769989 240.57954041 23.10365295 241.56051636 C23.10387955 242.44127838 23.10410614 243.32204041 23.1043396 244.22949219 C23.11433235 245.39531326 23.11433235 245.39531326 23.12452698 246.58468628 C23.00547501 247.21528961 22.88642303 247.84589294 22.76376343 248.49560547 C18.95271266 251.03630598 16.0781165 250.64923802 11.70126343 250.37060547 C10.9684314 250.34740234 10.23559937 250.32419922 9.4805603 250.30029297 C7.35360718 250.17529297 7.35360718 250.17529297 3.76376343 249.49560547 C2.26766968 247.44091797 2.26766968 247.44091797 1.76376343 245.49560547 C3.76376343 242.49560547 3.76376343 242.49560547 5.60360718 241.94873047 C6.29583374 241.88169922 6.9880603 241.81466797 7.70126343 241.74560547 C8.39091187 241.66826172 9.0805603 241.59091797 9.79110718 241.51123047 C11.76376343 241.49560547 11.76376343 241.49560547 14.76376343 242.49560547 C14.10376343 229.95560547 13.44376343 217.41560547 12.76376343 204.49560547 C9.6322129 203.45175529 7.09204875 203.23223833 3.80282593 203.03076172 C2.60786499 202.95277344 1.41290405 202.87478516 0.18173218 202.79443359 C-2.3077602 202.63932104 -4.79734154 202.48562828 -7.28701782 202.33349609 C-37.26057717 200.36618137 -37.26057717 200.36618137 -43.00967407 194.76904297 C-44.23623657 192.49560547 -44.23623657 192.49560547 -43.93936157 189.53466797 C-43.88439211 186.52504579 -43.88439211 186.52504579 -45.62490845 185.27197266 C-47.70546563 184.04216532 -49.8231971 182.94870195 -51.98623657 181.87060547 C-67.6923565 173.29529328 -76.79085995 162.18130332 -82.17373657 144.99560547 C-86.08853753 126.578806 -83.22533921 108.86861384 -74.23623657 92.49560547 C-72.94374073 89.67572084 -72.94374073 89.67572084 -73.94204712 87.65234375 C-74.33174683 86.96382324 -74.72144653 86.27530273 -75.12295532 85.56591797 C-75.56147827 84.78039551 -76.00000122 83.99487305 -76.45181274 83.18554688 C-76.93754761 82.33911621 -77.42328247 81.49268555 -77.92373657 80.62060547 C-78.41398315 79.74452637 -78.90422974 78.86844727 -79.40933228 77.96582031 C-82.0970284 73.18137311 -84.85122224 68.43901848 -87.64248657 63.71435547 C-88.19074097 62.77833496 -88.73899536 61.84231445 -89.30386353 60.87792969 C-90.36580776 59.07030374 -91.43949829 57.26951612 -92.52603149 55.4765625 C-97.40332846 47.17811959 -97.40332846 47.17811959 -96.23623657 42.49560547 C-92.50442349 39.31692674 -87.45825982 38.00429086 -82.86123657 36.43310547 C-82.1316272 36.17722656 -81.40201782 35.92134766 -80.65029907 35.65771484 C-76.21508826 34.11727109 -71.76229816 32.74355649 -67.23623657 31.49560547 C-67.73123657 30.50560547 -68.22623657 29.51560547 -68.73623657 28.49560547 C-70.55013749 24.11569837 -71.0627602 21.22933171 -70.23623657 16.49560547 C-64.12430813 8.28977562 -51.28514558 7.21613965 -41.87686157 5.50341797 C-40.95348999 5.33471191 -40.03011841 5.16600586 -39.07876587 4.9921875 C-37.27019875 4.66913266 -35.45916973 4.3594762 -33.6456604 4.06542969 C-28.56436904 3.18311644 -24.39111511 1.87291981 -19.8644104 -0.62036133 C-13.88415769 -3.86739912 -5.95288429 -2.76725337 0 0 Z M-70.61123657 41.30810547 C-71.24545532 41.56914062 -71.87967407 41.83017578 -72.53311157 42.09912109 C-76.78504211 43.85629647 -81.01012953 45.67739662 -85.23623657 47.49560547 C-84.67123526 51.94192012 -82.97711497 54.82534097 -80.54873657 58.55810547 C-76.65196865 64.66004165 -73.34782829 70.95419105 -70.23623657 77.49560547 C-68.91623657 77.49560547 -67.59623657 77.49560547 -66.23623657 77.49560547 C-59.38203545 62.76833601 -59.38203545 62.76833601 -57.11123657 46.87060547 C-57.10865845 45.92958984 -57.10608032 44.98857422 -57.10342407 44.01904297 C-57.1307566 41.3688304 -57.1307566 41.3688304 -58.23623657 38.49560547 C-62.85586152 38.09736194 -66.43994388 39.53656249 -70.61123657 41.30810547 Z M141.76376343 78.49560547 C141.03531971 81.07574199 140.78059281 82.76487566 140.95126343 85.49560547 C140.76376343 88.49560547 140.76376343 88.49560547 138.76376343 90.87060547 C138.10376343 91.40685547 137.44376343 91.94310547 136.76376343 92.49560547 C137.6298059 95.23807328 138.48098266 97.9205434 139.75204468 100.50537109 C143.37072595 108.15723713 143.22887226 115.28100153 143.01376343 123.62060547 C142.99364936 124.97214123 142.97540733 126.32370621 142.95907593 127.67529297 C142.91230165 130.94949238 142.84676483 134.22215795 142.76376343 137.49560547 C146.06376343 137.82560547 149.36376343 138.15560547 152.76376343 138.49560547 C153.09376343 141.13560547 153.42376343 143.77560547 153.76376343 146.49560547 C160.16841211 146.33548925 163.52579535 142.86918852 167.76376343 138.49560547 C175.56360218 129.83706887 179.16981385 119.53060558 178.97470093 107.92138672 C178.05256762 97.3168537 172.6447204 89.39144282 164.76376343 82.49560547 C158.97141013 79.11673271 154.08928412 78.36016019 147.45126343 78.43310547 C146.38263062 78.44212891 145.3139978 78.45115234 144.21298218 78.46044922 C143.40473999 78.47205078 142.5964978 78.48365234 141.76376343 78.49560547 Z " fill="#E1CDB9" transform="translate(144.23623657226563,100.50439453125)"/>
<path d="M0 0 C3.01086138 1.03229533 4.91158799 1.91649977 7.25 4.125 C11.08376112 6.73892804 14.47828653 6.54189493 19 6 C19.66 5.67 20.32 5.34 21 5 C24.95355026 4.55073292 26.55622323 4.69128572 29.875 7 C34.07359695 9.68710205 36.07262974 9.46927336 41 9 C42.66933058 8.3400321 44.3364521 7.67441131 46 7 C49.2267911 7.25474667 51.41642577 8.19278971 54.375 9.5625 C58.29505398 11.11700416 60.82587454 11.47254251 65 11 C65.680625 10.484375 66.36125 9.96875 67.0625 9.4375 C69 8 69 8 71.9375 8.1875 C75 9 75 9 77.375 10.0625 C80.92979876 11.33207099 84.29017183 11.51525391 88 11 C88.969375 10.484375 89.93875 9.96875 90.9375 9.4375 C95.14447003 7.46279978 98.53692684 8.0359762 103 9 C103.99 9.495 103.99 9.495 105 10 C107.37123246 10.23029956 109.74741943 10.41119942 112.125 10.5625 C113.40632812 10.64628906 114.68765625 10.73007813 116.0078125 10.81640625 C116.99523437 10.87699219 117.98265625 10.93757812 119 11 C116.79481198 13.20518802 115.75141217 13.4608945 112.8125 14.25 C105.57916185 16.60693041 101.59796861 20.3874409 98.125 27.125 C94.71925839 34.36502025 93.60860089 41.35238058 95.94140625 49.14453125 C98.80997149 56.4373413 101.47554554 60.65036369 108 65 C107.67 66.32 107.34 67.64 107 69 C101.27956317 69.45763495 98.40116157 68.71653644 94 65 C92.47365042 63.0625284 91.26011209 61.13249737 90 59 C87.16611108 59.08334967 85.480947 59.5104427 83.47265625 61.5546875 C82.46759379 62.78735953 81.48459983 64.03843956 80.52734375 65.30859375 C77.8845379 68.23528156 75.39953933 68.92735649 71.5625 69.625 C68 69 68 69 66.54296875 67.2109375 C65.69038378 65.75304295 64.88749352 64.26477558 64.140625 62.75 C63.76421875 62.1725 63.3878125 61.595 63 61 C62.01 61 61.02 61 60 61 C59.71370223 66.53509023 59.73280236 70.26819653 63 75 C67.17097323 77.69886503 72.18929422 77.55096972 77 77 C80.54048177 75.96261876 83.35755798 74.64244202 86 72 C88.92781993 72.20191862 90.04100128 73.03713053 92.234375 75.0234375 C97.0249778 78.44722989 102.34051925 77.72795339 108 77 C111.47781208 75.29535723 111.47781208 75.29535723 114 73 C115.65369357 72.30177383 117.31727014 71.62501395 119 71 C119.33 70.67 119.66 70.34 120 70 C121.4555937 69.90141397 122.91607919 69.87027857 124.375 69.875 C125.16648438 69.87242187 125.95796875 69.86984375 126.7734375 69.8671875 C129 70 129 70 132 71 C132.04898438 71.61488281 132.09796875 72.22976562 132.1484375 72.86328125 C132.26058594 74.07564453 132.26058594 74.07564453 132.375 75.3125 C132.47941406 76.51326172 132.47941406 76.51326172 132.5859375 77.73828125 C132.89564426 80.27224441 132.89564426 80.27224441 135 83 C134.360625 83.12375 133.72125 83.2475 133.0625 83.375 C132.381875 83.58125 131.70125 83.7875 131 84 C130.67 84.66 130.34 85.32 130 86 C130 85.34 130 84.68 130 84 C129.01 84 128.02 84 127 84 C125.54815522 88.53701494 124.76490804 92.18061476 125 97 C126.32 97.66 127.64 98.32 129 99 C128.34 99.66 127.68 100.32 127 101 C126.34 100.67 125.68 100.34 125 100 C125.33 100.99 125.66 101.98 126 103 C127.65 103.33 129.3 103.66 131 104 C130.01 104.99 129.02 105.98 128 107 C127.01 106.67 126.02 106.34 125 106 C123.49440461 107.96382007 122.10868317 109.78263366 121 112 C120.34 112 119.68 112 119 112 C119 112.99 119 113.98 119 115 C120.32 114.67 121.64 114.34 123 114 C123 114.99 123 115.98 123 117 C123.33 117.99 123.66 118.98 124 120 C123.01 120 122.02 120 121 120 C121.33 120.99 121.66 121.98 122 123 C121.01 123.66 120.02 124.32 119 125 C117.9049496 127.52703937 117.84704296 128.5881926 118.8125 131.1875 C119.88121987 133.15022193 119.88121987 133.15022193 122 134 C120.25 138.875 120.25 138.875 118 140 C116.38374269 140.10563863 114.7632133 140.14875619 113.14355469 140.16113281 C112.12389114 140.17061447 111.1042276 140.18009613 110.05366516 140.18986511 C108.93767441 140.19424088 107.82168365 140.19861664 106.671875 140.203125 C105.51121017 140.20995804 104.35054535 140.21679108 103.15470886 140.22383118 C99.35311034 140.24105441 95.55163541 140.24717651 91.75 140.25 C89.82101364 140.25300613 89.82101364 140.25300613 87.85305786 140.256073 C63.43735614 140.26541197 39.21620159 139.24352245 15 136 C15.33 136.99 15.66 137.98 16 139 C15.34 139 14.68 139 14 139 C14 138.01 14 137.02 14 136 C12.96552734 135.85498047 12.96552734 135.85498047 11.91015625 135.70703125 C0.07076357 132.83061504 -11.44398841 123.31270276 -18.14550781 113.28613281 C-27.17557556 98.25842006 -30.1401469 79.44584571 -26.015625 62.3046875 C-24.91677903 58.42695274 -23.535791 54.72539017 -22 51 C-21.44699219 49.65228516 -21.44699219 49.65228516 -20.8828125 48.27734375 C-19.875 46.0625 -19.875 46.0625 -18 43 C-16.515 42.505 -16.515 42.505 -15 42 C-15 42.66 -15 43.32 -15 44 C-12.36 44 -9.72 44 -7 44 C-8.21376034 38.67812773 -9.72623708 33.96093728 -12 29 C-11.62488281 28.56171875 -11.24976562 28.1234375 -10.86328125 27.671875 C-6.235812 21.93707683 -3.5861891 15.86598876 -1 9 C-0.34 9 0.32 9 1 9 C0.67 6.03 0.34 3.06 0 0 Z " fill="#EAD9C6" transform="translate(88,150)"/>
<path d="M0 0 C6.04223241 4.58376252 8.936961 11.18569276 11.0625 18.3125 C11.371875 19.116875 11.68125 19.92125 12 20.75 C14.03243548 21.71877057 14.03243548 21.71877057 16 21.75 C16.495 23.73 16.495 23.73 17 25.75 C12.25 28.75 12.25 28.75 10 28.75 C9.896875 29.575 9.79375 30.4 9.6875 31.25 C8.90325199 35.24253534 7.90588832 39.13369908 6 42.75 C3 44.75 3 44.75 0 44.75 C-0.33 45.74 -0.66 46.73 -1 47.75 C-6.55971075 51.39828743 -12.198116 51.42728473 -18.63085938 51.74609375 C-20.85339238 51.91975801 -22.86195824 52.11518814 -25 52.75 C-26.81019613 55.08121027 -26.81019613 55.08121027 -28 57.75 C-32.74355841 61.44754297 -37.08114524 61.28989314 -42.8984375 61.19140625 C-47.34640925 60.55838256 -48.88800612 58.86199388 -52 55.75 C-54.77870806 55.75 -55.78918367 56.59188776 -58 58.25 C-62.35679998 61.51759999 -67.7738434 61.11461558 -73 60.75 C-77.03852845 59.69647084 -78.84004982 58.3139178 -81 54.75 C-82.28317892 50.90046324 -82.06643637 47.80261865 -82 43.75 C-80.02 43.255 -80.02 43.255 -78 42.75 C-77.72027344 43.3275 -77.44054687 43.905 -77.15234375 44.5 C-75.91432559 46.79292109 -74.70648761 48.77767764 -73 50.75 C-68.71612605 51.68466341 -66.74112706 51.13538607 -62.875 49.125 C-59.74739313 46.54132476 -57.47427174 43.95199873 -55 40.75 C-52.8125 40.8125 -52.8125 40.8125 -50 41.75 C-48.57377531 43.44951325 -47.39976706 45.24450828 -46.17578125 47.09375 C-44.64373897 49.25184278 -43.56753734 50.07035776 -41 50.75 C-38.66796188 50.8277346 -36.33160941 50.83967728 -34 50.75 C-33.67 49.76 -33.34 48.77 -33 47.75 C-33.556875 47.523125 -34.11375 47.29625 -34.6875 47.0625 C-41.93435972 42.94941746 -44.63921262 36.52213952 -47 28.75 C-48.32333806 20.24105994 -46.14978474 12.49594933 -41.25 5.5 C-30.74142343 -7.52544553 -13.83854585 -8.64909115 0 0 Z " fill="#E9B522" transform="translate(229,167.25)"/>
<path d="M0 0 C9.26603681 7.2925714 14.85506022 16.31030858 17.34765625 27.84765625 C18.71018175 45.30113804 17.13328344 62.1886096 5.4296875 76.1328125 C-1.98557462 83.80624622 -9.94997542 89.79684632 -20.95703125 90.24609375 C-22.81380185 90.25396142 -24.67070233 90.24592891 -26.52734375 90.22265625 C-27.47609375 90.23425781 -28.42484375 90.24585938 -29.40234375 90.2578125 C-30.75972656 90.25201172 -30.75972656 90.25201172 -32.14453125 90.24609375 C-33.37212158 90.24101807 -33.37212158 90.24101807 -34.62451172 90.23583984 C-35.62828857 90.04368896 -35.62828857 90.04368896 -36.65234375 89.84765625 C-37.31234375 88.85765625 -37.97234375 87.86765625 -38.65234375 86.84765625 C-38.04296875 84.17578125 -38.04296875 84.17578125 -36.90234375 81.09765625 C-35.66010143 77.65439397 -34.4399225 74.2682491 -33.52734375 70.72265625 C-32.65234375 67.84765625 -32.65234375 67.84765625 -30.65234375 65.84765625 C-24.599942 65.29743791 -24.599942 65.29743791 -21.71484375 66.97265625 C-20.20749512 69.63268325 -20.45248122 71.8497183 -20.65234375 74.84765625 C-12.41260527 72.49344526 -7.38456006 68.29657485 -2.88671875 60.97265625 C2.57499951 50.57948363 5.21150623 40.35147511 2.22265625 28.78515625 C0.54501306 23.67271752 -2.13471118 19.8691407 -5.65234375 15.84765625 C-6.31234375 15.08453125 -6.97234375 14.32140625 -7.65234375 13.53515625 C-13.5032676 8.59843925 -19.55192145 7.70369557 -26.96484375 7.78515625 C-28.03347656 7.79417969 -29.10210937 7.80320313 -30.203125 7.8125 C-31.01136719 7.82410156 -31.81960938 7.83570313 -32.65234375 7.84765625 C-32.62914062 8.46253906 -32.6059375 9.07742187 -32.58203125 9.7109375 C-32.55496094 10.92330078 -32.55496094 10.92330078 -32.52734375 12.16015625 C-32.50414062 12.96066406 -32.4809375 13.76117188 -32.45703125 14.5859375 C-32.65234375 16.84765625 -32.65234375 16.84765625 -34.65234375 19.84765625 C-36.30234375 19.51765625 -37.95234375 19.18765625 -39.65234375 18.84765625 C-39.98234375 17.85765625 -40.31234375 16.86765625 -40.65234375 15.84765625 C-41.31234375 15.84765625 -41.97234375 15.84765625 -42.65234375 15.84765625 C-43.04421875 15.00203125 -43.43609375 14.15640625 -43.83984375 13.28515625 C-45.53930768 10.062035 -47.40705287 7.39483594 -49.6640625 4.55859375 C-50.65234375 2.84765625 -50.65234375 2.84765625 -50.65234375 -1.15234375 C-34.90302953 -9.58947637 -15.33312412 -10.14728702 0 0 Z " fill="#969494" transform="translate(318.65234375,172.15234375)"/>
<path d="M0 0 C0 0.66 0 1.32 0 2 C0.5775 2.226875 1.155 2.45375 1.75 2.6875 C5.14222063 4.66629537 7.25493471 7.50986942 9 11 C9.06950541 12.54023996 9.08452357 14.08334988 9.0625 15.625 C9.05347656 16.44226563 9.04445312 17.25953125 9.03515625 18.1015625 C9.02355469 18.72804688 9.01195312 19.35453125 9 20 C10.258125 19.855625 11.51625 19.71125 12.8125 19.5625 C28.13210051 18.05598159 43.5148992 17.78890846 58.89746094 17.75976562 C61.99701283 17.7500094 65.09591327 17.71881695 68.1953125 17.6875 C77.77236159 17.63615771 87.14612332 17.86684857 96.625 19.328125 C97.38852783 19.44484558 98.15205566 19.56156616 98.9387207 19.68182373 C103.40683179 20.46219227 107.00454817 21.74861961 111 24 C111 24.66 111 25.32 111 26 C86.73776356 38.13111822 43.92133201 31.14108575 17 31 C17 31.66 17 32.32 17 33 C10.2520457 36.89305056 2.35167571 36.18305211 -5.1875 36.1875 C-6.26064453 36.19974609 -7.33378906 36.21199219 -8.43945312 36.22460938 C-16.94889293 36.240053 -24.76161561 35.0595961 -33 33 C-33 29.37 -33 25.74 -33 22 C-32.67 22.99 -32.34 23.98 -32 25 C-22.89924528 25.77366383 -13.81527227 26.25807457 -4.6875 26.5625 C-2.84381836 26.62727539 -2.84381836 26.62727539 -0.96289062 26.69335938 C2.02466486 26.79798194 5.01228143 26.90016327 8 27 C8.33 25.02 8.66 23.04 9 21 C8.28569824 21.01047363 7.57139648 21.02094727 6.83544922 21.03173828 C-20.9864253 21.38584302 -20.9864253 21.38584302 -31 19 C-31.33 18.67 -31.66 18.34 -32 18 C-31.50183101 11.64834533 -29.81448774 7.29479332 -25.875 2.3125 C-18.31880393 -3.76530988 -8.55851538 -4.75908292 0 0 Z " fill="#F75905" transform="translate(145,101)"/>
<path d="M0 0 C-0.433125 0.350625 -0.86625 0.70125 -1.3125 1.0625 C-4.92919757 5.21500462 -6.19471809 9.60352733 -6 15 C7.22570757 17.47681433 20.5853887 17.6277922 34 18 C33.67 19.98 33.34 21.96 33 24 C28.77089411 24.05907207 24.54189711 24.09395041 20.3125 24.125 C18.54422852 24.15013672 18.54422852 24.15013672 16.74023438 24.17578125 C8.64005941 24.22016577 0.96407765 23.47369081 -7 22 C-7.0825 23.258125 -7.165 24.51625 -7.25 25.8125 C-7.43736037 28.6697457 -7.68195168 29.67907342 -9.7265625 31.7421875 C-12.40683344 33.22508654 -14.07967067 33.37158848 -17.125 33.3125 C-17.99382812 33.30863281 -18.86265625 33.30476563 -19.7578125 33.30078125 C-22 33 -22 33 -24 31 C-28.6019242 31.37153149 -32.73921819 33.45168459 -36.9375 35.25 C-44.53814532 38.4490084 -52.20205683 41.31829847 -60 44 C-59.43499869 48.44631465 -57.74087839 51.3297355 -55.3125 55.0625 C-51.96264056 60.30918637 -49.10069726 65.6551532 -46.3828125 71.26171875 C-44.76470998 74.46592741 -42.93929983 77.47175366 -40.98046875 80.4765625 C-38.86229558 83.76774791 -38.91547431 86.1118181 -39 90 C-41.8125 90.6875 -41.8125 90.6875 -45 91 C-47.59142807 88.97228235 -48.96699228 86.50861526 -50.49609375 83.6328125 C-50.96692383 82.75689453 -51.43775391 81.88097656 -51.92285156 80.97851562 C-52.42268555 80.03685547 -52.92251953 79.09519531 -53.4375 78.125 C-56.68606006 72.05537506 -59.95716425 66.01519392 -63.45703125 60.0859375 C-64.28473022 58.67803955 -64.28473022 58.67803955 -65.12915039 57.24169922 C-66.18952285 55.44805821 -67.25995757 53.66031837 -68.34155273 51.87939453 C-73.15903267 43.69266886 -73.15903267 43.69266886 -72 39 C-68.26818692 35.82132127 -63.22202325 34.50868539 -58.625 32.9375 C-57.89539062 32.68162109 -57.16578125 32.42574219 -56.4140625 32.16210938 C-51.97885169 30.62166562 -47.52606159 29.24795102 -43 28 C-43.495 27.01 -43.99 26.02 -44.5 25 C-46.31390092 20.6200929 -46.82652363 17.73372624 -46 13 C-40.77154711 5.98031787 -31.03280357 4.68907798 -23 3 C-22.10764648 2.81131348 -21.21529297 2.62262695 -20.29589844 2.42822266 C-17.42938278 1.83196787 -14.55994157 1.25449051 -11.6875 0.6875 C-10.76171143 0.50364746 -9.83592285 0.31979492 -8.88208008 0.13037109 C-7.58500122 -0.11398682 -7.58500122 -0.11398682 -6.26171875 -0.36328125 C-5.48787842 -0.51063721 -4.71403809 -0.65799316 -3.91674805 -0.80981445 C-2 -1 -2 -1 0 0 Z " fill="#827A71" transform="translate(120,104)"/>
<path d="M0 0 C0.99 0.33 1.98 0.66 3 1 C5.1514226 1.13110917 7.30646794 1.20517769 9.46142578 1.24951172 C10.11421005 1.26434601 10.76699432 1.2791803 11.43955994 1.29446411 C12.86032106 1.32637707 14.28112838 1.35628137 15.70196915 1.38442612 C17.9775655 1.43033823 20.25289702 1.48331607 22.52828979 1.5383606 C29.00008472 1.6941876 35.47201018 1.84205634 41.94433594 1.97412109 C115.28603102 3.49002216 115.28603102 3.49002216 132.625 15.875 C134.55870848 18.86345856 134.64154299 20.50715482 134 24 C127.40786738 31.87393619 121.23830377 33.38748152 111.36474609 34.35693359 C108.00234163 34.62191586 104.64212179 34.85741621 101.27563477 35.06030273 C99.17321647 35.18837007 97.07209983 35.33083859 94.97070312 35.47460938 C93.61984595 35.56075131 92.26893581 35.64606759 90.91796875 35.73046875 C89.70906982 35.80676514 88.5001709 35.88306152 87.25463867 35.96166992 C84.30605507 35.99639557 81.84913603 35.7121999 79 35 C82.57212292 31.66226835 86.51908953 31.0151302 91.1875 30.25 C91.94619385 30.12077148 92.7048877 29.99154297 93.48657227 29.85839844 C99.42798224 28.92406637 105.42148623 28.21074312 111 31 C111 30.34 111 29.68 111 29 C110.34 28.67 109.68 28.34 109 28 C114.673142 25.54582388 119.81839396 23.53753096 126 23 C126 22.34 126 21.68 126 21 C125.195625 20.896875 124.39125 20.79375 123.5625 20.6875 C120.77510778 20.1495822 118.46076093 19.50106055 115.81640625 18.55419922 C111.36778244 17.05104477 107.01325619 16.13036643 102.375 15.4453125 C101.56434082 15.32205597 100.75368164 15.19879944 99.91845703 15.07180786 C89.65512294 13.57490944 79.33451534 12.70893648 69 11.875 C67.45107056 11.74659729 67.45107056 11.74659729 65.87084961 11.61560059 C46.92249737 10.05469304 28.00893123 9.2196251 9 9 C8.70561035 8.3615918 8.4112207 7.72318359 8.10791016 7.06542969 C6.79086046 4.61011007 5.93996168 4.19998581 3.375 3.25 C2.26125 2.8375 1.1475 2.425 0 2 C0 1.34 0 0.68 0 0 Z " fill="#EEE5D9" transform="translate(145,101)"/>
<path d="M0 0 C4.53742617 1.01368031 7.61626656 3.71189063 10.203125 7.4921875 C11.12126164 11.19451145 11.31318505 14.68823698 11.203125 18.4921875 C12.523125 18.8221875 13.843125 19.1521875 15.203125 19.4921875 C15.203125 14.2121875 15.203125 8.9321875 15.203125 3.4921875 C15.698125 4.9771875 15.698125 4.9771875 16.203125 6.4921875 C16.863125 6.4921875 17.523125 6.4921875 18.203125 6.4921875 C20.68915029 10.22122543 20.96359628 14.17239704 20.203125 18.4921875 C17.56305822 24.64478948 13.21999841 29.70048857 7.03125 32.4609375 C2.7396431 34.01628497 -1.20200472 35.13333219 -5.796875 34.4921875 C-7.796875 33.1171875 -7.796875 33.1171875 -9.796875 31.4921875 C-10.786875 31.1828125 -11.776875 30.8734375 -12.796875 30.5546875 C-16.17291395 29.35900704 -17.70307055 28.39130135 -19.796875 25.4921875 C-20.046875 22.2421875 -20.046875 22.2421875 -19.796875 19.4921875 C-18.476875 19.1621875 -17.156875 18.8321875 -15.796875 18.4921875 C-15.71050781 17.83992188 -15.62414062 17.18765625 -15.53515625 16.515625 C-14.540949 10.33147347 -13.29747938 6.88302104 -8.796875 2.4921875 C-5.68159565 0.4153346 -3.72996437 -0.12433215 0 0 Z " fill="#EDE2D5" transform="translate(212.796875,179.5078125)"/>
<path d="M0 0 C2.4375 0.8125 2.4375 0.8125 5 2 C5.33 2.99 5.66 3.98 6 5 C6.80888672 5.0093457 7.61777344 5.01869141 8.45117188 5.02832031 C27.6938886 5.3007741 46.82007036 6.28502768 66 7.875 C67.00490479 7.95609009 68.00980957 8.03718018 69.04516602 8.12072754 C79.19531912 8.94798285 89.30417444 9.91409562 99.375 11.4453125 C100.11733887 11.55495331 100.85967773 11.66459412 101.62451172 11.77755737 C106.96325754 12.64194957 111.91296944 14.18704757 117 16 C118.175625 16.391875 119.35125 16.78375 120.5625 17.1875 C121.366875 17.455625 122.17125 17.72375 123 18 C123 18.66 123 19.32 123 20 C121.25183142 20.50636607 119.50137737 21.00484619 117.75 21.5 C116.77546875 21.7784375 115.8009375 22.056875 114.796875 22.34375 C112 23 112 23 108 23 C107.505 22.01 107.505 22.01 107 21 C91.79795322 14.70949788 74.8755596 15.71182574 58.75 15.8125 C56.51643983 15.81935304 54.28287857 15.82586175 52.04931641 15.83203125 C36.68528344 15.8930815 21.34373514 16.16411991 6 17 C5.95101562 16.39019287 5.90203125 15.78038574 5.8515625 15.15209961 C5.77679688 14.34780518 5.70203125 13.54351074 5.625 12.71484375 C5.52058594 11.52169556 5.52058594 11.52169556 5.4140625 10.30444336 C4.80588297 6.91965174 3.08661904 4.67348065 1 2 C0.67 1.34 0.34 0.68 0 0 Z " fill="#A3958B" transform="translate(148,104)"/>
<path d="M0 0 C0.3125 2.8125 0.3125 2.8125 0 6 C-2.3125 7.75 -2.3125 7.75 -5 9 C-5.99 9.66 -6.98 10.32 -8 11 C-9.98950195 11.21118164 -9.98950195 11.21118164 -12.23828125 11.16015625 C-13.05876953 11.14919922 -13.87925781 11.13824219 -14.72460938 11.12695312 C-15.57861328 11.10568359 -16.43261719 11.08441406 -17.3125 11.0625 C-22.67714662 10.95167715 -27.71429762 10.88767438 -33 12 C-33 12.66 -33 13.32 -33 14 C-37.32745745 16.51271723 -40.0338215 15.68918521 -44.59765625 14.52734375 C-49.70327182 13.40659887 -54.27650767 13.13825384 -59 15.5 C-63.06189747 17.53094873 -66.53412036 17.50635438 -71 17 C-72.68236471 16.37400383 -74.3523962 15.71247732 -76 15 C-79.69542183 14.60687002 -81.55518269 14.76792141 -84.875 16.5 C-88.67013152 18.32166313 -91.89326738 18.62996481 -96 18 C-97.19625 17.484375 -98.3925 16.96875 -99.625 16.4375 C-103.40603042 14.82706112 -105.11455391 14.82533025 -109 16 C-109.66 16.66 -110.32 17.32 -111 18 C-115.40394205 18.52847305 -118.20577353 18.07082967 -122 15.9375 C-125.96757666 13.74529811 -128.55375986 13.84397756 -133 15 C-133.66 15.33 -134.32 15.66 -135 16 C-141.38048068 16.53170672 -143.67561131 15.70392257 -149 12 C-152.18699217 11.69355845 -154.13391871 11.56695936 -157 13 C-162.81662823 14.10315363 -166.65172855 13.01919067 -171.5625 9.75 C-174.12890625 7.921875 -174.12890625 7.921875 -176 6 C-176 4.68 -176 3.36 -176 2 C-172.34041639 2.34042638 -170.41122915 2.65203687 -167.5625 5.0625 C-164.2220303 7.58822099 -162.08937255 7.3932089 -158 7 C-157.67 6.67 -157.34 6.34 -157 6 C-150.86902065 5.48042548 -147.95533243 6.01156171 -143 10 C-142.505 10.495 -142.505 10.495 -142 11 C-137.34934387 10.55206891 -137.34934387 10.55206891 -133 9 C-127.55389285 8.45328654 -124.32537402 8.53970079 -120 12 C-115.3744344 12.432728 -115.3744344 12.432728 -111.0625 11 C-107.80278639 9.41953279 -104.51781064 9.5379986 -101 10 C-99.80375 10.515625 -98.6075 11.03125 -97.375 11.5625 C-93.48314319 13.22014271 -92.00639223 13.16853107 -88 12 C-86.88625 11.46375 -85.7725 10.9275 -84.625 10.375 C-79.43076278 8.40477209 -75.55197166 8.90629786 -70.375 11.125 C-67.16992059 12.30581873 -65.28128205 11.87054422 -62 11 C-61.071875 10.484375 -60.14375 9.96875 -59.1875 9.4375 C-54.23640299 7.20465233 -49.60171839 7.60580024 -44.29296875 8.41015625 C-37.73918187 9.35426821 -34.61178209 8.68485658 -29.07421875 5.0859375 C-25.85193676 3.39894241 -23.38945742 4.03158359 -20 5 C-19.01 5.495 -19.01 5.495 -18 6 C-12.22825658 6.55527884 -12.22825658 6.55527884 -7.1875 4.125 C-6.465625 3.42375 -5.74375 2.7225 -5 2 C-2 0 -2 0 0 0 Z " fill="#B4ADA6" transform="translate(264,144)"/>
<path d="M0 0 C0.99 0 1.98 0 3 0 C3 1.98 3 3.96 3 6 C5.31 6 7.62 6 10 6 C10 4.02 10 2.04 10 0 C10.99 0 11.98 0 13 0 C13 1.32 13 2.64 13 4 C14.32 3.01 15.64 2.02 17 1 C17.66 1.33 18.32 1.66 19 2 C18.27368691 11.74055495 16.38012417 21.23008868 14.5625 30.8125 C13.93608213 34.13100413 13.31234267 37.44999711 12.69140625 40.76953125 C12.54273102 41.56376495 12.39405579 42.35799866 12.24087524 43.17630005 C11.01914896 49.76465394 9.95479114 56.36722493 9 63 C6.525 63.495 6.525 63.495 4 64 C2.30461496 60.60922992 2.27406397 56.73195028 1.8125 53 C0.27263967 41.03607515 -1.84926126 29.19045994 -4.01831055 17.328125 C-4.14874756 16.60819366 -4.27918457 15.88826233 -4.41357422 15.14651489 C-4.77160501 13.17247847 -5.13407512 11.1992487 -5.49682617 9.22607422 C-6 6 -6 6 -6 2 C-5.01 2 -4.02 2 -3 2 C-2.67 2.99 -2.34 3.98 -2 5 C-1.34 5.33 -0.68 5.66 0 6 C0 4.02 0 2.04 0 0 Z " fill="#0A0507" transform="translate(243,287)"/>
<path d="M0 0 C0 0.66 0 1.32 0 2 C0.5775 2.226875 1.155 2.45375 1.75 2.6875 C5.14222063 4.66629537 7.25493471 7.50986942 9 11 C9.09472912 12.51845202 9.1298841 14.04110384 9.125 15.5625 C9.12886719 16.77099609 9.12886719 16.77099609 9.1328125 18.00390625 C9 20 9 20 8 21 C4.11166629 21.25835383 0.20836843 21.19000449 -3.6875 21.1875 C-4.821875 21.18741943 -5.95625 21.18733887 -7.125 21.18725586 C-28.96091643 21.03908357 -28.96091643 21.03908357 -32 18 C-31.50183101 11.64834533 -29.81448774 7.29479332 -25.875 2.3125 C-18.31880393 -3.76530988 -8.55851538 -4.75908292 0 0 Z " fill="#0B0608" transform="translate(145,101)"/>
<path d="M0 0 C-0.62678171 3.66172475 -1.64451846 6.8818995 -3.0625 10.3125 C-3.42472656 11.19550781 -3.78695312 12.07851562 -4.16015625 12.98828125 C-4.43730469 13.65214844 -4.71445312 14.31601563 -5 15 C-5.495 13.515 -5.495 13.515 -6 12 C-6.78375 12.495 -7.5675 12.99 -8.375 13.5 C-11 15 -11 15 -13 15 C-13.33 15.99 -13.66 16.98 -14 18 C-17.16517523 19.58258762 -20.54384356 19.30475127 -24 19 C-25.0209375 18.4740625 -25.0209375 18.4740625 -26.0625 17.9375 C-29.25059543 16.39487318 -31.6267213 17.19956099 -35 18 C-36.0725 18.70125 -37.145 19.4025 -38.25 20.125 C-42.97417772 23.07229106 -47.74597705 21.84618232 -53 21 C-54.39576202 20.81196988 -55.79158316 20.6243773 -57.1875 20.4375 C-58.115625 20.293125 -59.04375 20.14875 -60 20 C-60 19.34 -60 18.68 -60 18 C-59.01 17.67 -58.02 17.34 -57 17 C-56.67 16.67 -56.34 16.34 -56 16 C-56.66 15.67 -57.32 15.34 -58 15 C-58 14.01 -58 13.02 -58 12 C-57.01 12 -56.02 12 -55 12 C-54.67 11.34 -54.34 10.68 -54 10 C-55.32 10 -56.64 10 -58 10 C-58 9.01 -58 8.02 -58 7 C-55.69 7 -53.38 7 -51 7 C-51 7.66 -51 8.32 -51 9 C-50.34 9 -49.68 9 -49 9 C-49 8.01 -49 7.02 -49 6 C-48.37770508 5.95512451 -47.75541016 5.91024902 -47.11425781 5.86401367 C-35.90513549 5.03824072 -24.74279804 4.11754573 -13.625 2.4375 C-12.78227539 2.31076904 -11.93955078 2.18403809 -11.07128906 2.0534668 C-7.26785874 1.45348794 -3.76306142 0 0 0 Z " fill="#DFCCB9" transform="translate(270,132)"/>
<path d="M0 0 C6.08974708 3.50955304 10.92621229 8.82347389 13.6875 15.3125 C14.06713446 18.3685574 14.00609705 21.25396831 13.6875 24.3125 C12.31170173 21.65038628 11.31686439 19.24953384 10.6875 16.3125 C10.0275 16.3125 9.3675 16.3125 8.6875 16.3125 C8.3575 20.6025 8.0275 24.8925 7.6875 29.3125 C6.0375 28.9825 4.3875 28.6525 2.6875 28.3125 C2.69652344 27.58804688 2.70554688 26.86359375 2.71484375 26.1171875 C2.50607919 19.14405999 2.50607919 19.14405999 -1.375 13.625 C-4.00390464 11.77183772 -6.16407039 10.87199459 -9.375 10.625 C-14.39711592 11.50187738 -15.8627052 12.61629129 -19.3125 16.3125 C-21.41470561 20.1164911 -21.80825872 24.02644915 -22.3125 28.3125 C-23.9625 28.6425 -25.6125 28.9725 -27.3125 29.3125 C-27.3125 30.9625 -27.3125 32.6125 -27.3125 34.3125 C-30.44470429 31.7497874 -31.35810617 29.20349023 -32.3125 25.3125 C-33.10082412 17.29787141 -30.67228077 11.08930099 -25.75 4.75 C-24.945625 3.945625 -24.14125 3.14125 -23.3125 2.3125 C-22.3225 2.3125 -21.3325 2.3125 -20.3125 2.3125 C-20.3125 1.6525 -20.3125 0.9925 -20.3125 0.3125 C-13.67819352 -2.4808922 -6.6147411 -3.08854641 0 0 Z " fill="#F5E2C3" transform="translate(220.3125,169.6875)"/>
<path d="M0 0 C2.1875 0.0625 2.1875 0.0625 5 1 C6.42622469 2.69951325 7.60023294 4.49450828 8.82421875 6.34375 C11.20233963 9.69366114 13.51164116 9.91120748 17.4375 10.625 C20.99339428 10.38562614 20.99339428 10.38562614 22.5625 8.2109375 C23.82455242 6.18161458 24.95858019 4.150028 26 2 C27.32 2.33 28.64 2.66 30 3 C30.57685009 12.80645161 30.57685009 12.80645161 27 17 C21.40407632 21.05358429 15.67712405 20.9502708 9 20 C6.52984954 18.59456957 5.03305515 17.03305515 3 15 C0.22129194 15 -0.78918367 15.84188776 -3 17.5 C-7.35679998 20.76759999 -12.7738434 20.36461558 -18 20 C-22.03852845 18.94647084 -23.84004982 17.5639178 -26 14 C-27.28317892 10.15046324 -27.06643637 7.05261865 -27 3 C-25.68 2.67 -24.36 2.34 -23 2 C-22.72027344 2.5775 -22.44054687 3.155 -22.15234375 3.75 C-20.91432559 6.04292109 -19.70648761 8.02767764 -18 10 C-13.71612605 10.93466341 -11.74112706 10.38538607 -7.875 8.375 C-4.74739313 5.79132476 -2.47427174 3.20199873 0 0 Z " fill="#120D0D" transform="translate(174,208)"/>
<path d="M0 0 C0.5625 1.9375 0.5625 1.9375 1 4 C0.67 4.33 0.34 4.66 0 5 C-0.58207711 9.61562552 0.93213642 12.00805901 3.4375 15.8125 C4.17473901 16.95779688 4.90898415 18.10502507 5.640625 19.25390625 C6.02669922 19.8586377 6.41277344 20.46336914 6.81054688 21.08642578 C10.08139271 26.34851314 13.00627715 31.82150216 16.00878906 37.23925781 C16.8736969 38.77564089 17.77381709 40.29209459 18.6796875 41.8046875 C21.20987685 46.05025946 22.65622345 48.88145709 22 54 C19.1875 54.6875 19.1875 54.6875 16 55 C13.40857193 52.97228235 12.03300772 50.50861526 10.50390625 47.6328125 C10.03307617 46.75689453 9.56224609 45.88097656 9.07714844 44.97851562 C8.57731445 44.03685547 8.07748047 43.09519531 7.5625 42.125 C4.31393994 36.05537506 1.04283575 30.01519392 -2.45703125 24.0859375 C-3.28473022 22.67803955 -3.28473022 22.67803955 -4.12915039 21.24169922 C-5.18952285 19.44805821 -6.25995757 17.66031837 -7.34155273 15.87939453 C-11.92867943 8.08412638 -11.92867943 8.08412638 -11 3 C-7.49047762 -0.09663739 -4.5654558 -0.31852017 0 0 Z " fill="#867E75" transform="translate(59,140)"/>
<path d="M0 0 C0.66 1.65 1.32 3.3 2 5 C2.7425 4.979375 3.485 4.95875 4.25 4.9375 C7 5 7 5 9 5.5625 C11.54855301 6.11999597 13.47648397 5.54562509 16 5 C17 6 17 6 17.09765625 8.94140625 C17.08605469 10.13636719 17.07445312 11.33132813 17.0625 12.5625 C17.05347656 13.76003906 17.04445312 14.95757812 17.03515625 16.19140625 C17.02355469 17.11824219 17.01195312 18.04507812 17 19 C18.32 19.33 19.64 19.66 21 20 C21.495 18.515 21.495 18.515 22 17 C22 18.32 22 19.64 22 21 C19.69 21 17.38 21 15 21 C15 19.02 15 17.04 15 15 C14.01 15 13.02 15 12 15 C12 16.98 12 18.96 12 21 C11.01 20.67 10.02 20.34 9 20 C9 19.01 9 18.02 9 17 C8.01 17 7.02 17 6 17 C6 17.66 6 18.32 6 19 C3.60347472 19.08139142 1.20974564 19.14067009 -1.1875 19.1875 C-1.86103516 19.21263672 -2.53457031 19.23777344 -3.22851562 19.26367188 C-7.70855667 19.32923345 -10.46037634 18.77604854 -14 16 C-16.70238949 11.94641576 -16.22937614 9.81689896 -16 5 C-15.67 4.34 -15.34 3.68 -15 3 C-14.34 3 -13.68 3 -13 3 C-13 2.34 -13 1.68 -13 1 C-8.31506124 -1.48887372 -5.0555786 -0.85687773 0 0 Z " fill="#82796F" transform="translate(231,272)"/>
<path d="M0 0 C0.94875 0.04125 1.8975 0.0825 2.875 0.125 C2.875 1.115 2.875 2.105 2.875 3.125 C3.55304688 3.36347656 4.23109375 3.60195313 4.9296875 3.84765625 C8.54420355 5.41522488 11.70608228 7.41625256 15 9.5625 C15.62003906 9.95759766 16.24007813 10.35269531 16.87890625 10.75976562 C19.84699124 12.67785066 22.40324033 14.6176242 24.875 17.125 C26.37024261 18.02321169 27.89345294 18.87604858 29.4375 19.6875 C32.00682512 21.04177482 33.8106679 22.0606679 35.875 24.125 C36.1875 26.625 36.1875 26.625 35.875 29.125 C32.2175716 31.5632856 29.24405226 31.53073771 25 31.6875 C20.54828719 31.87805601 16.22811233 32.09220276 11.875 33.125 C11.875 29.825 11.875 26.525 11.875 23.125 C13.855 23.125 15.835 23.125 17.875 23.125 C17.875 22.465 17.875 21.805 17.875 21.125 C17.18792969 20.87878906 16.50085938 20.63257813 15.79296875 20.37890625 C12.3815742 18.91296562 9.31510437 17.04248963 6.1875 15.0625 C2.10874532 12.45864584 2.10874532 12.45864584 -2.125 10.125 C-2.125 9.465 -2.125 8.805 -2.125 8.125 C-3.115 7.795 -4.105 7.465 -5.125 7.125 C-5.25 4.75 -5.25 4.75 -5.125 2.125 C-3.125 0.125 -3.125 0.125 0 0 Z " fill="#847B71" transform="translate(240.125,252.875)"/>
<path d="M0 0 C2.64 0 5.28 0 8 0 C8.71865616 11.37016714 9.14244335 22.73190407 9.25 34.125 C9.27126953 35.26888184 9.29253906 36.41276367 9.31445312 37.59130859 C9.31896484 38.65687988 9.32347656 39.72245117 9.328125 40.8203125 C9.3374707 41.77180176 9.34681641 42.72329102 9.35644531 43.70361328 C9.18000488 44.84032471 9.18000488 44.84032471 9 46 C5.18894923 48.54070051 2.31435307 48.15363256 -2.0625 47.875 C-3.16174805 47.84019531 -3.16174805 47.84019531 -4.28320312 47.8046875 C-6.41015625 47.6796875 -6.41015625 47.6796875 -10 47 C-11.49609375 44.9453125 -11.49609375 44.9453125 -12 43 C-10 40 -10 40 -8.16015625 39.453125 C-7.46792969 39.38609375 -6.77570313 39.3190625 -6.0625 39.25 C-5.37285156 39.17265625 -4.68320313 39.0953125 -3.97265625 39.015625 C-2 39 -2 39 1 40 C0.96970703 39.35675781 0.93941406 38.71351563 0.90820312 38.05078125 C0.31976544 25.35863309 -0.1681824 12.70711486 0 0 Z " fill="#867D75" transform="translate(158,303)"/>
<path d="M0 0 C-0.433125 0.37125 -0.86625 0.7425 -1.3125 1.125 C-3.22522799 2.98438231 -3.22522799 2.98438231 -3.91015625 5.984375 C-6.35020573 9.5053436 -6.97163184 9.55577327 -11.0078125 10.3203125 C-13.04318263 10.61525517 -15.08272028 10.88247928 -17.125 11.125 C-24.73040243 12.10728343 -31.15964519 13.43233619 -38 17 C-38 17.66 -38 18.32 -38 19 C-35.69 19.99 -33.38 20.98 -31 22 C-31 22.99 -31 23.98 -31 25 C-31.60328125 25.19335938 -32.2065625 25.38671875 -32.828125 25.5859375 C-34.02695313 25.97652344 -34.02695313 25.97652344 -35.25 26.375 C-36.03890625 26.63023437 -36.8278125 26.88546875 -37.640625 27.1484375 C-40.01062976 27.94423259 -40.01062976 27.94423259 -42.15625 29.125 C-44 30 -44 30 -46.25 29.625 C-47.11625 29.315625 -47.11625 29.315625 -48 29 C-46.35 28.67 -44.7 28.34 -43 28 C-43.495 27.01 -43.99 26.02 -44.5 25 C-46.31390092 20.6200929 -46.82652363 17.73372624 -46 13 C-40.77154711 5.98031787 -31.03280357 4.68907798 -23 3 C-22.10764648 2.81131348 -21.21529297 2.62262695 -20.29589844 2.42822266 C-17.42938278 1.83196787 -14.55994157 1.25449051 -11.6875 0.6875 C-10.76171143 0.50364746 -9.83592285 0.31979492 -8.88208008 0.13037109 C-8.01736084 -0.03253418 -7.1526416 -0.19543945 -6.26171875 -0.36328125 C-5.48787842 -0.51063721 -4.71403809 -0.65799316 -3.91674805 -0.80981445 C-2 -1 -2 -1 0 0 Z " fill="#ECE3D7" transform="translate(120,104)"/>
<path d="M0 0 C2.31 0 4.62 0 7 0 C7.76469477 11.21097151 8.10711087 22.38689663 8.125 33.625 C8.12951172 34.82874268 8.13402344 36.03248535 8.13867188 37.27270508 C8.13673828 38.39185303 8.13480469 39.51100098 8.1328125 40.6640625 C8.13168457 41.66904785 8.13055664 42.6740332 8.12939453 43.70947266 C8 46 8 46 7 47 C4.17583618 47.12663091 1.38705207 47.18520548 -1.4375 47.1875 C-2.22705078 47.19974609 -3.01660156 47.21199219 -3.83007812 47.22460938 C-5.88807435 47.22987279 -7.94562009 47.12206285 -10 47 C-10.66 46.34 -11.32 45.68 -12 45 C-11.67 43.35 -11.34 41.7 -11 40 C-7.37 39.34 -3.74 38.68 0 38 C-0.05329468 36.59306885 -0.05329468 36.59306885 -0.10766602 35.15771484 C-0.2373465 31.65785729 -0.36157321 28.15789242 -0.48217773 24.65771484 C-0.53535066 23.14656938 -0.59065854 21.6354974 -0.64819336 20.12451172 C-0.73079943 17.94514811 -0.8055721 15.76563047 -0.87890625 13.5859375 C-0.9260376 12.2767334 -0.97316895 10.9675293 -1.02172852 9.61865234 C-1.00167683 6.27925861 -0.65655271 3.26728925 0 0 Z " fill="#867F76" transform="translate(186,303)"/>
<path d="M0 0 C0 1.65 0 3.3 0 5 C13.22570757 7.47681433 26.5853887 7.6277922 40 8 C39.67 9.98 39.34 11.96 39 14 C34.77089411 14.05907207 30.54189711 14.09395041 26.3125 14.125 C24.54422852 14.15013672 24.54422852 14.15013672 22.74023438 14.17578125 C5.25203547 14.271607 5.25203547 14.271607 -1 12 C-2.1706543 9.54345703 -2.1706543 9.54345703 -3 7 C-6.13443354 4.91037764 -6.87003692 4.74632446 -10.4375 4.8125 C-11.19933594 4.81894531 -11.96117188 4.82539062 -12.74609375 4.83203125 C-14.9979818 4.9998496 -16.88506242 5.19825896 -19 6 C-20.3045656 8.99615946 -20.3045656 8.99615946 -21 12 C-21.66 12 -22.32 12 -23 12 C-23 12.66 -23 13.32 -23 14 C-23.66 14 -24.32 14 -25 14 C-25 13.34 -25 12.68 -25 12 C-25.763125 11.87625 -26.52625 11.7525 -27.3125 11.625 C-30 11 -30 11 -33 9 C-32.5 7.1875 -32.5 7.1875 -31 5 C-25.17263491 2.44562808 -19.52090839 1.18522182 -13.25 0.25 C-12.41339844 0.11207031 -11.57679687 -0.02585937 -10.71484375 -0.16796875 C-6.78344206 -0.77617603 -3.86026058 -1.17656393 0 0 Z " fill="#A3988F" transform="translate(114,114)"/>
<path d="M0 0 C0.33 0.99 0.66 1.98 1 3 C8.05569485 3.69620048 15.04316872 4.08215385 22.12890625 3.9921875 C22.8183432 3.98431213 23.50778015 3.97643677 24.21810913 3.96832275 C27.05915964 3.93197985 29.89983207 3.88911354 32.74047852 3.82861328 C34.84916918 3.78633972 36.95740884 3.76289779 39.06640625 3.7421875 C40.30334229 3.7201123 41.54027832 3.69803711 42.81469727 3.67529297 C46.25225272 4.02571443 47.69064497 4.44412663 50 7 C50 8.32 50 9.64 50 11 C43.2520457 14.89305056 35.35167571 14.18305211 27.8125 14.1875 C26.73935547 14.19974609 25.66621094 14.21199219 24.56054688 14.22460938 C16.05110707 14.240053 8.23838439 13.0595961 0 11 C0 7.37 0 3.74 0 0 Z " fill="#150F0F" transform="translate(112,123)"/>
<path d="M0 0 C3.35456414 0.11536737 6.70849681 0.24440935 10.0625 0.375 C10.96677734 0.4059375 11.87105469 0.436875 12.80273438 0.46875 C17.85654922 0.67157869 22.88226057 0.97233178 27.91479492 1.47875977 C42.44614928 2.92725766 56.82913436 3.27935887 71.42895508 3.20581055 C75.22158435 3.18733395 79.01397058 3.1853033 82.80664062 3.18554688 C85.26041875 3.18063694 87.71419525 3.17481092 90.16796875 3.16796875 C91.28068649 3.16685593 92.39340424 3.1657431 93.5398407 3.16459656 C99.85592452 3.12679713 106.03659241 2.79572733 112.31343079 2.07246399 C116.56070337 1.95790364 120.16250056 3.28475404 124 5 C124 5.33 124 5.66 124 6 C112.71427176 6.76368927 101.48249146 7.17399152 90.171875 7.203125 C89.02494045 7.20736607 89.02494045 7.20736607 87.85483551 7.21169281 C83.80133241 7.22652557 79.74786338 7.2358527 75.69433594 7.24023438 C72.41948159 7.24459568 69.14489415 7.25841953 65.87011719 7.28125 C9.93550677 7.6629944 9.93550677 7.6629944 0 2 C0 1.34 0 0.68 0 0 Z " fill="#CBBAAA" transform="translate(103,286)"/>
<path d="M0 0 C2 1 2 1 4 3 C8.62632051 6.08421368 13.5502675 5.82616483 19 6 C19 6.33 19 6.66 19 7 C16.36 7.33 13.72 7.66 11 8 C11.144375 9.03125 11.28875 10.0625 11.4375 11.125 C10.97990405 15.17799266 10.78510684 15.79133273 8 18.4375 C5.32455337 20.45354362 3.29327966 21.43749015 -0.0625 21.625 C-4.59734271 20.9051837 -6.70641575 20.21516557 -10 17 C-11.06032807 14.03821823 -11.6137458 11.11667181 -12 8 C-14.64 7.67 -17.28 7.34 -20 7 C-20 6.67 -20 6.34 -20 6 C-19.11957031 5.90203125 -18.23914063 5.8040625 -17.33203125 5.703125 C-16.17058594 5.55359375 -15.00914062 5.4040625 -13.8125 5.25 C-12.66394531 5.11078125 -11.51539063 4.9715625 -10.33203125 4.828125 C-6.41032256 3.85344476 -3.74145042 0 0 0 Z " fill="#E1D2C3" transform="translate(176,222)"/>
<path d="M0 0 C3.65958361 0.34042638 5.58877085 0.65203687 8.4375 3.0625 C11.7779697 5.58822099 13.91062745 5.3932089 18 5 C18.33 4.67 18.66 4.34 19 4 C25.13097935 3.48042548 28.04466757 4.01156171 33 8 C33.495 8.495 33.495 8.495 34 9 C38.65065613 8.55206891 38.65065613 8.55206891 43 7 C45.0234375 6.796875 45.0234375 6.796875 47.375 6.75 C48.14585937 6.72421875 48.91671875 6.6984375 49.7109375 6.671875 C52 7 52 7 53.9453125 8.5 C56.60939812 10.4448838 58.2379228 10.33961751 61.5 10.25 C62.4384375 10.23453125 63.376875 10.2190625 64.34375 10.203125 C66.69145284 10.02359478 68.7467689 9.65896381 71 9 C71.495 9.99 71.495 9.99 72 11 C66.0943718 15.82092098 66.0943718 15.82092098 61.5625 16.5625 C57.72700971 15.95689627 55.33788659 14.67672138 51.9921875 12.828125 C48.81052899 11.50555323 46.24716465 12.15573719 43 13 C42.34 13.33 41.68 13.66 41 14 C34.61951932 14.53170672 32.32438869 13.70392257 27 10 C23.81300783 9.69355845 21.86608129 9.56695936 19 11 C13.18337177 12.10315363 9.34827145 11.01919067 4.4375 7.75 C1.87109375 5.921875 1.87109375 5.921875 0 4 C0 2.68 0 1.36 0 0 Z " fill="#B3ACA5" transform="translate(88,146)"/>
<path d="M0 0 C0 0.66 0 1.32 0 2 C-1.74816858 2.50636607 -3.49862263 3.00484619 -5.25 3.5 C-6.22453125 3.7784375 -7.1990625 4.056875 -8.203125 4.34375 C-11 5 -11 5 -15 5 C-15.495 4.01 -15.495 4.01 -16 3 C-31.2206511 -3.29820046 -48.16763294 -2.28813026 -64.3125 -2.1875 C-66.54866435 -2.18064898 -68.78482977 -2.17414006 -71.02099609 -2.16796875 C-86.03127169 -2.10831928 -101.0107149 -1.8343936 -116 -1 C-115.67 -1.66 -115.34 -2.32 -115 -3 C-110.80559839 -3.76717959 -106.50212564 -3.86690235 -102.25 -4.125 C-101.58904327 -4.16769012 -100.92808655 -4.21038025 -100.24710083 -4.25436401 C-84.82878495 -5.22977255 -69.40217584 -5.14567405 -53.95996094 -5.01416016 C-53.01288773 -5.0074379 -52.06581451 -5.00071564 -51.09004211 -4.99378967 C-49.30955025 -4.98010779 -47.5290857 -4.96172761 -45.748703 -4.93772888 C-9.28950099 -4.64475049 -9.28950099 -4.64475049 0 0 Z " fill="#877C72" transform="translate(271,122)"/>
<path d="M0 0 C4.18617376 1.50528091 7.0625417 3.25988132 9.1953125 7.21875 C10.19736976 10.68217121 10.19229272 13.71233971 10.125 17.3125 C10.10695312 18.56675781 10.08890625 19.82101563 10.0703125 21.11328125 C10.04710937 22.06589844 10.02390625 23.01851562 10 24 C8.35 23.67 6.7 23.34 5 23 C4.97421875 22.26394531 4.9484375 21.52789062 4.921875 20.76953125 C4.66785577 16.3992459 4.4086381 12.85132937 2.5 8.875 C-1.15940322 6.13044759 -4.46987348 5.59579679 -9 6 C-13.04405989 7.44212702 -15.59242523 9.38863784 -18 13 C-18.43738696 14.71444889 -18.80848688 16.44667784 -19.125 18.1875 C-19.29257813 19.08855469 -19.46015625 19.98960937 -19.6328125 20.91796875 C-19.75398437 21.60503906 -19.87515625 22.29210937 -20 23 C-21.65 23 -23.3 23 -25 23 C-25.37186022 16.92628304 -25.04351492 12.4573371 -22 7 C-15.31908179 -0.51603298 -9.76835415 -1.05778863 0 0 Z " fill="#140E0E" transform="translate(152,175)"/>
<path d="M0 0 C3.76916441 2.7326442 6.02501042 5.38753126 7.5 9.8125 C7.56937062 12.04068441 7.58457084 14.27084524 7.5625 16.5 C7.55347656 17.67949219 7.54445312 18.85898438 7.53515625 20.07421875 C7.52355469 20.97785156 7.51195312 21.88148438 7.5 22.8125 C5.85 22.4825 4.2 22.1525 2.5 21.8125 C2.50902344 21.08804688 2.51804688 20.36359375 2.52734375 19.6171875 C2.31857919 12.64405999 2.31857919 12.64405999 -1.5625 7.125 C-4.19140464 5.27183772 -6.35157039 4.37199459 -9.5625 4.125 C-14.58461592 5.00187738 -16.0502052 6.11629129 -19.5 9.8125 C-21.60220561 13.6164911 -21.99575872 17.52644915 -22.5 21.8125 C-24.15 21.8125 -25.8 21.8125 -27.5 21.8125 C-28.00380419 14.98315433 -27.83957813 9.37258447 -23.5 3.8125 C-17.02951513 -2.58021462 -8.30911062 -2.81916253 0 0 Z " fill="#161010" transform="translate(220.5,176.1875)"/>
<path d="M0 0 C3.26213862 -0.00973047 6.52365189 -0.04088617 9.78564453 -0.07226562 C19.65126749 -0.12266043 29.32911355 0.05878764 39.09423828 1.56835938 C39.85348602 1.68507996 40.61273376 1.80180054 41.39498901 1.92205811 C45.83731611 2.70435868 49.47254426 4.03169307 53.39892578 6.24023438 C53.39892578 6.90023437 53.39892578 7.56023437 53.39892578 8.24023438 C51.03872985 9.42033234 49.23796862 9.53791123 46.60986328 9.77539062 C45.66884766 9.86240234 44.72783203 9.94941406 43.75830078 10.0390625 C42.77345703 10.12607422 41.78861328 10.21308594 40.77392578 10.30273438 C39.28505859 10.43905273 39.28505859 10.43905273 37.76611328 10.578125 C35.3106871 10.80241874 32.85498189 11.02296544 30.39892578 11.24023438 C30.39892578 10.58023438 30.39892578 9.92023438 30.39892578 9.24023438 C39.30892578 8.25023438 39.30892578 8.25023438 48.39892578 7.24023438 C43.35286522 4.71720409 41.60491437 3.85336795 36.42016602 3.56103516 C35.28159149 3.49676331 34.14301697 3.43249146 32.96994019 3.36627197 C26.99794095 3.15549253 21.03450137 3.09770775 15.05908203 3.10742188 C13.72114545 3.10674521 12.38320899 3.1057722 11.04527283 3.10452271 C8.26283581 3.10306224 5.48043124 3.10514606 2.69799805 3.10986328 C-0.82582918 3.11555392 -4.34958008 3.11227511 -7.8734045 3.10629082 C-10.63017832 3.10263533 -13.38693477 3.10384647 -16.14370918 3.10641861 C-18.06097082 3.10738778 -19.97823321 3.10440977 -21.89549255 3.10128784 C-30.17814996 3.12307616 -38.34815872 3.54837792 -46.60107422 4.24023438 C-46.93107422 5.23023437 -47.26107422 6.22023438 -47.60107422 7.24023438 C-45.95107422 7.24023438 -44.30107422 7.24023438 -42.60107422 7.24023438 C-42.60107422 7.90023437 -42.60107422 8.56023437 -42.60107422 9.24023438 C-44.91107422 9.24023438 -47.22107422 9.24023438 -49.60107422 9.24023438 C-49.60107422 6.93023437 -49.60107422 4.62023437 -49.60107422 2.24023438 C-33.07067857 0.56220285 -16.60555241 0.0298348 0 0 Z " fill="#D75B16" transform="translate(202.60107421875,118.759765625)"/>
<path d="M0 0 C0.3125 2.8125 0.3125 2.8125 0 6 C-2.3125 7.75 -2.3125 7.75 -5 9 C-5.99 9.66 -6.98 10.32 -8 11 C-9.98950195 11.21118164 -9.98950195 11.21118164 -12.23828125 11.16015625 C-13.05876953 11.14919922 -13.87925781 11.13824219 -14.72460938 11.12695312 C-15.57861328 11.10568359 -16.43261719 11.08441406 -17.3125 11.0625 C-22.67714662 10.95167715 -27.71429762 10.88767438 -33 12 C-33 12.66 -33 13.32 -33 14 C-40.26973684 15.39802632 -40.26973684 15.39802632 -44 13 C-44.99 12.67 -45.98 12.34 -47 12 C-46.67 11.34 -46.34 10.68 -46 10 C-44.081875 10.185625 -44.081875 10.185625 -42.125 10.375 C-37.79471407 10.42266038 -35.45970089 9.31813725 -31.875 6.9375 C-26.72662543 3.52128884 -26.72662543 3.52128884 -23 4.0625 C-20 5 -20 5 -18 6 C-12.22825658 6.55527884 -12.22825658 6.55527884 -7.1875 4.125 C-6.465625 3.42375 -5.74375 2.7225 -5 2 C-2 0 -2 0 0 0 Z " fill="#989594" transform="translate(264,144)"/>
<path d="M0 0 C0.33 0 0.66 0 1 0 C1.33 6.6 1.66 13.2 2 20 C3.32 19.34 4.64 18.68 6 18 C6.70788435 14.66024628 6.70788435 14.66024628 6.75 10.875 C6.80671875 9.59367187 6.8634375 8.31234375 6.921875 6.9921875 C6.94765625 6.00476563 6.9734375 5.01734375 7 4 C7.33 4 7.66 4 8 4 C8.0867562 8.29154022 8.1403089 12.58285668 8.1875 16.875 C8.21263672 18.09832031 8.23777344 19.32164062 8.26367188 20.58203125 C8.27333984 21.74863281 8.28300781 22.91523438 8.29296875 24.1171875 C8.3086792 25.19597168 8.32438965 26.27475586 8.34057617 27.38623047 C8.22818604 28.24877441 8.1157959 29.11131836 8 30 C4.18894923 32.54070051 1.31435307 32.15363256 -3.0625 31.875 C-3.79533203 31.85179687 -4.52816406 31.82859375 -5.28320312 31.8046875 C-7.41015625 31.6796875 -7.41015625 31.6796875 -11 31 C-12.49609375 28.9453125 -12.49609375 28.9453125 -13 27 C-11 24 -11 24 -9.16015625 23.453125 C-8.46792969 23.38609375 -7.77570313 23.3190625 -7.0625 23.25 C-6.37285156 23.17265625 -5.68320313 23.0953125 -4.97265625 23.015625 C-3 23 -3 23 0 24 C0 16.08 0 8.16 0 0 Z " fill="#8B837B" transform="translate(159,319)"/>
<path d="M0 0 C0.99 0 1.98 0 3 0 C3 1.98 3 3.96 3 6 C3.99 6.33 4.98 6.66 6 7 C5.01 7.33 4.02 7.66 3 8 C2.84501874 18.71092709 3.32157806 29.31485445 4 40 C2.68 40 1.36 40 0 40 C-0.85889777 35.2318991 -1.71326675 30.46301712 -2.56347656 25.69335938 C-2.8532524 24.0713926 -3.14425755 22.44964494 -3.43652344 20.828125 C-3.85676429 18.49535947 -4.27255636 16.16183784 -4.6875 13.828125 C-4.81874268 13.10506165 -4.94998535 12.38199829 -5.08520508 11.63702393 C-5.6666388 8.3436952 -6 5.35963091 -6 2 C-5.01 2 -4.02 2 -3 2 C-2.67 2.99 -2.34 3.98 -2 5 C-1.34 5.33 -0.68 5.66 0 6 C0 4.02 0 2.04 0 0 Z " fill="#140E0E" transform="translate(243,287)"/>
<path d="M0 0 C11.88 0.33 23.76 0.66 36 1 C35.67 2.98 35.34 4.96 35 7 C30.66672416 7.05848483 26.33355115 7.09375916 22 7.125 C20.77925781 7.14175781 19.55851562 7.15851563 18.30078125 7.17578125 C11.83021331 7.21075729 6.18153587 6.96263764 0 5 C0 3.35 0 1.7 0 0 Z " fill="#A9A39E" transform="translate(118,121)"/>
<path d="M0 0 C0.33 0 0.66 0 1 0 C1.99 11.22 2.98 22.44 4 34 C4.66 33.01 5.32 32.02 6 31 C6.33 32.32 6.66 33.64 7 35 C7.66 35 8.32 35 9 35 C8.22095672 49.78132118 8.22095672 49.78132118 6 56 C4.68 56 3.36 56 2 56 C0.46666851 52.93333703 0.34483924 49.61733772 -0.0625 46.25 C-0.15337891 45.54617188 -0.24425781 44.84234375 -0.33789062 44.1171875 C-0.84048464 40.05108851 -1.09684391 36.1061819 -1 32 C-0.01 32 0.98 32 2 32 C1.855625 30.86304688 1.71125 29.72609375 1.5625 28.5546875 C0.39343708 18.96670447 -0.27988841 9.67169942 0 0 Z " fill="#2C2626" transform="translate(245,295)"/>
<path d="M0 0 C-0.33 0.66 -0.66 1.32 -1 2 C-2.98 2 -4.96 2 -7 2 C-7.33 2.66 -7.66 3.32 -8 4 C-9.175625 3.979375 -10.35125 3.95875 -11.5625 3.9375 C-14.18437028 3.89150228 -16.52400102 4.08384016 -19.125 4.5 C-23.92307397 5.11910632 -28.60687829 5.107711 -33.4375 5.0625 C-34.35982422 5.05798828 -35.28214844 5.05347656 -36.23242188 5.04882812 C-38.48835048 5.03713938 -40.74413967 5.02075455 -43 5 C-42.67 3.35 -42.34 1.7 -42 0 C-5.1624714 -3.4416476 -5.1624714 -3.4416476 0 0 Z " fill="#F0E6DA" transform="translate(216,135)"/>
<path d="M0 0 C11.93376259 0.41041599 23.84754311 0.96474423 35.75 1.9375 C36.73105713 2.01210449 37.71211426 2.08670898 38.72290039 2.16357422 C39.63418701 2.24236816 40.54547363 2.32116211 41.484375 2.40234375 C42.28584961 2.46929443 43.08732422 2.53624512 43.91308594 2.60522461 C46 3 46 3 49 5 C48.67 5.66 48.34 6.32 48 7 C37.85426678 7.47311709 27.90736935 6.64489145 17.8125 5.625 C16.5231958 5.49891357 15.2338916 5.37282715 13.90551758 5.24291992 C12.68501709 5.11377197 11.4645166 4.98462402 10.20703125 4.8515625 C9.1085083 4.73635254 8.00998535 4.62114258 6.87817383 4.50244141 C4.19194044 4.03350695 2.33439425 3.37101029 0 2 C0 1.34 0 0.68 0 0 Z " fill="#D0BDAC" transform="translate(103,286)"/>
<path d="M0 0 C3.375 0.5 3.375 0.5 5.04296875 1.67578125 C6.86454411 4.17043138 6.88251655 6.1277813 7.0625 9.1875 C7.16111328 10.67830078 7.16111328 10.67830078 7.26171875 12.19921875 C7.29910156 12.95847656 7.33648437 13.71773438 7.375 14.5 C7.91640625 14.33628906 8.4578125 14.17257812 9.015625 14.00390625 C11.77722593 13.41409413 14.30318139 13.40390692 17.125 13.4375 C18.10984375 13.44652344 19.0946875 13.45554687 20.109375 13.46484375 C21.23085938 13.48224609 21.23085938 13.48224609 22.375 13.5 C22.375 13.83 22.375 14.16 22.375 14.5 C19.075 14.5 15.775 14.5 12.375 14.5 C12.045 16.15 11.715 17.8 11.375 19.5 C11.045 18.51 10.715 17.52 10.375 16.5 C9.385 16.5 8.395 16.5 7.375 16.5 C7.045 18.15 6.715 19.8 6.375 21.5 C4.725 21.17 3.075 20.84 1.375 20.5 C1.375 16.21 1.375 11.92 1.375 7.5 C-1.265 7.83 -3.905 8.16 -6.625 8.5 C-7.285 7.51 -7.945 6.52 -8.625 5.5 C-5.81065365 2.0886711 -4.46440026 0.61577935 0 0 Z " fill="#E8B629" transform="translate(245.625,270.5)"/>
<path d="M0 0 C1.02659729 -0.00517639 2.05319458 -0.01035278 3.11090088 -0.01568604 C6.08058236 -0.02749804 9.04984552 -0.02418896 12.01953125 -0.015625 C12.89772018 -0.01958282 13.77590912 -0.02354065 14.68070984 -0.02761841 C20.71406017 0.01694921 26.31607312 0.8762977 32.1875 2.25 C32.1875 2.91 32.1875 3.57 32.1875 4.25 C30.38949951 4.14389404 30.38949951 4.14389404 28.55517578 4.03564453 C16.04820832 3.33304159 3.58742453 3.09012612 -8.9375 3.125 C-9.86374176 3.12588623 -10.78998352 3.12677246 -11.74429321 3.12768555 C-26.78659047 3.14451374 -41.78964587 3.44086189 -56.8125 4.25 C-56.4825 3.59 -56.1525 2.93 -55.8125 2.25 C-51.6610635 1.47979085 -47.39777599 1.3812387 -43.1875 1.125 C-42.52843658 1.08330688 -41.86937317 1.04161377 -41.19033813 0.99865723 C-27.46962345 0.15400481 -13.74316225 0.03226157 0 0 Z " fill="#C08B5A" transform="translate(211.8125,116.75)"/>
<path d="M0 0 C0 0.33 0 0.66 0 1 C-5.87448176 1.48565672 -11.74954232 1.96379998 -17.625 2.4375 C-18.92337799 2.54262405 -18.92337799 2.54262405 -20.24798584 2.64987183 C-31.40918821 3.54873707 -42.55363433 4.3721491 -53.75244141 4.62084961 C-57.70756597 4.73808356 -60.56145031 5.01998205 -64 7 C-67.25 6.625 -67.25 6.625 -70 6 C-70 5.67 -70 5.34 -70 5 C-66.7 4.34 -63.4 3.68 -60 3 C-60 2.34 -60 1.68 -60 1 C-19.17297641 -0.19388403 -19.17297641 -0.19388403 0 0 Z " fill="#EECA9A" transform="translate(222,131)"/>
<path d="M0 0 C1.65 0 3.3 0 5 0 C5.66 1.32 6.32 2.64 7 4 C8.65 4 10.3 4 12 4 C12.66 2.68 13.32 1.36 14 0 C15.65 0 17.3 0 19 0 C19.45761159 3.9354597 19.29742742 5.57244809 17 8.875 C13.84080802 11.11276099 11.87856125 11.69344939 8.00390625 11.4140625 C4.51604987 10.69337483 2.53411837 9.47076541 0 7 C-0.375 3.25 -0.375 3.25 0 0 Z " fill="#8C8278" transform="translate(166,232)"/>
<path d="M0 0 C-0.33 0.66 -0.66 1.32 -1 2 C-5.62 2 -10.24 2 -15 2 C-15 2.99 -15 3.98 -15 5 C-15.99 5 -16.98 5 -18 5 C-18 5.66 -18 6.32 -18 7 C-18.7425 7.4125 -19.485 7.825 -20.25 8.25 C-23.5602655 10.35653259 -24.90778366 12.7221944 -27 16 C-27.99 16.66 -28.98 17.32 -30 18 C-30.73343428 21.06556598 -30.73343428 21.06556598 -31 24 C-31.66 23.67 -32.32 23.34 -33 23 C-33.2664011 18.60438185 -32.65071475 15.09090177 -31 11 C-29.25421038 9.23405115 -27.45137304 7.74439012 -25.4609375 6.26171875 C-24.97882813 5.84535156 -24.49671875 5.42898437 -24 5 C-24 4.34 -24 3.68 -24 3 C-23.195625 2.690625 -22.39125 2.38125 -21.5625 2.0625 C-19.10919595 1.23664655 -19.10919595 1.23664655 -18 0 C-11.78949926 -1.12918195 -6.23793232 -0.83087213 0 0 Z " fill="#EDB615" transform="translate(218,165)"/>
<path d="M0 0 C0.98484375 0.01804688 1.9696875 0.03609375 2.984375 0.0546875 C4.10585937 0.08949219 4.10585937 0.08949219 5.25 0.125 C3.93 2.435 2.61 4.745 1.25 7.125 C0.26 7.125 -0.73 7.125 -1.75 7.125 C-1.75 6.465 -1.75 5.805 -1.75 5.125 C-2.83925781 5.29773438 -3.92851562 5.47046875 -5.05078125 5.6484375 C-10.37551061 6.31212321 -15.59260349 6.03716704 -20.9375 5.75 C-21.90880859 5.70617187 -22.88011719 5.66234375 -23.88085938 5.6171875 C-28.27991709 5.40009898 -32.43821348 5.06776695 -36.75 4.125 C-36.75 3.795 -36.75 3.465 -36.75 3.125 C-35.55455566 3.095271 -35.55455566 3.095271 -34.33496094 3.06494141 C-30.72297528 2.96966752 -27.11156601 2.85999693 -23.5 2.75 C-21.61861328 2.70359375 -21.61861328 2.70359375 -19.69921875 2.65625 C-18.49394531 2.61757812 -17.28867188 2.57890625 -16.046875 2.5390625 C-14.93666992 2.5076416 -13.82646484 2.4762207 -12.68261719 2.44384766 C-7.98176628 1.93274948 -4.93443576 -0.11748657 0 0 Z " fill="#EFE4D7" transform="translate(167.75,134.875)"/>
<path d="M0 0 C4.34386053 4.48812158 7.44756784 9.8548287 7.4375 16.1875 C7.293125 17.445625 7.14875 18.70375 7 20 C5.62420173 17.33788628 4.62936439 14.93703384 4 12 C2.68 12 1.36 12 0 12 C-0.4125 11.071875 -0.825 10.14375 -1.25 9.1875 C-3.56104487 4.97809685 -5.49701732 3.50099423 -10 2 C-11.89212737 1.77820215 -13.78884472 1.59385985 -15.6875 1.4375 C-16.68136719 1.35371094 -17.67523438 1.26992187 -18.69921875 1.18359375 C-19.83810547 1.09271484 -19.83810547 1.09271484 -21 1 C-21 0.67 -21 0.34 -21 0 C-18.62543835 -0.1963696 -16.25079981 -0.38231294 -13.875 -0.5625 C-13.20984375 -0.61857422 -12.5446875 -0.67464844 -11.859375 -0.73242188 C-7.72832679 -1.03617542 -3.97976446 -1.21541102 0 0 Z " fill="#F1DDC0" transform="translate(227,174)"/>
<path d="M0 0 C0 0.33 0 0.66 0 1 C-11.87122953 2.98126727 -23.0167245 2.96387216 -35 2 C-35 1.01 -35 0.02 -35 -1 C-26.00423297 -5.49788351 -9.77844304 -1.03335992 0 0 Z " fill="#A0948C" transform="translate(245,115)"/>
<path d="M0 0 C0.33 0 0.66 0 1 0 C1.04254356 1.99954746 1.04080783 4.00041636 1 6 C0.67 6.33 0.34 6.66 0 7 C-0.04063832 8.66617115 -0.042721 10.33388095 0 12 C0.433125 10.5459375 0.433125 10.5459375 0.875 9.0625 C2 6 2 6 4 5 C3.835 5.825 3.67 6.65 3.5 7.5 C2.48458789 14.60788477 3.04817436 20.16861028 5 27 C1.75267068 25.37633534 1.29844864 22.24612161 0 19 C0 21.97 0 24.94 0 28 C-3.61578532 24.38421468 -4.15082579 20.13781039 -4.3125 15.1875 C-4.22548452 10.40164863 -3.57661932 3.57661932 0 0 Z " fill="#E8BA37" transform="translate(186,176)"/>
<path d="M0 0 C0.99 0.33 1.98 0.66 3 1 C3.19355213 8.65606218 3.3479743 15.66258031 1 23 C1.66 23 2.32 23 3 23 C3 22.01 3 21.02 3 20 C3.66 20 4.32 20 5 20 C4.979375 19.030625 4.95875 18.06125 4.9375 17.0625 C5 14 5 14 6 13 C7.99958364 12.95919217 10.00045254 12.95745644 12 13 C9 15 9 15 7 15 C6.8453125 16.2375 6.8453125 16.2375 6.6875 17.5 C4.6509434 27.86792453 4.6509434 27.86792453 0.8125 30.5 C-0.0846875 30.7475 -0.0846875 30.7475 -1 31 C-1.33 29.35 -1.66 27.7 -2 26 C-3.32 26.99 -4.64 27.98 -6 29 C-6.66 28.67 -7.32 28.34 -8 28 C-7.60167969 27.5875 -7.20335937 27.175 -6.79296875 26.75 C-0.94462883 20.37516719 1.39028853 14.75003545 1.203125 6.078125 C0.99708231 3.97014983 0.56904702 2.03755546 0 0 Z " fill="#E9B930" transform="translate(232,181)"/>
<path d="M0 0 C0.66 0.33 1.32 0.66 2 1 C1.484375 1.556875 0.96875 2.11375 0.4375 2.6875 C-1.42065332 5.67670317 -0.7177409 6.65054245 0 10 C-0.875 13 -0.875 13 -2 16 C-2.36106097 17.66088045 -2.70462173 19.32618981 -3 21 C-4.65 21 -6.3 21 -8 21 C-8.37186022 14.92628304 -8.04351492 10.4573371 -5 5 C-2.3125 2.0625 -2.3125 2.0625 0 0 Z " fill="#1B1514" transform="translate(135,177)"/>
<path d="M0 0 C0.66 0 1.32 0 2 0 C3.33333333 1.33333333 4.66666667 2.66666667 6 4 C7.97630407 5.36821051 9.97209016 6.70951192 12 8 C11.67 9.32 11.34 10.64 11 12 C6.78473241 12.33722141 4.42210731 12.21887045 0.625 10.25 C-2 8 -2 8 -2.875 5.75 C-2.91625 5.1725 -2.9575 4.595 -3 4 C-2.34 4 -1.68 4 -1 4 C-0.67 2.68 -0.34 1.36 0 0 Z " fill="#E5D4C2" transform="translate(184,207)"/>
<path d="M0 0 C3.24680233 0.70559593 6.36195165 1.5308068 9.515625 2.58203125 C7.85449219 4.59863281 7.85449219 4.59863281 5.515625 6.58203125 C2.95019531 6.76074219 2.95019531 6.76074219 0.09375 6.31640625 C-1.44345703 6.09404297 -1.44345703 6.09404297 -3.01171875 5.8671875 C-4.60693359 5.60228516 -4.60693359 5.60228516 -6.234375 5.33203125 C-7.31332031 5.17089844 -8.39226562 5.00976562 -9.50390625 4.84375 C-12.16776762 4.44299209 -14.8267237 4.02180474 -17.484375 3.58203125 C-11.1617127 -0.63307695 -7.49799882 -1.26145578 0 0 Z " fill="#E1CEB8" transform="translate(219.484375,157.41796875)"/>
<path d="M0 0 C0.99 0 1.98 0 3 0 C3 1.32 3 2.64 3 4 C4.32 3.01 5.64 2.02 7 1 C7.66 1.33 8.32 1.66 9 2 C8.41523944 9.09406894 7.36766005 16.01563899 6 23 C5.67 23 5.34 23 5 23 C5 20.03 5 17.06 5 14 C4.01 13.67 3.02 13.34 2 13 C2 11.35 2 9.7 2 8 C1.01 7.67 0.02 7.34 -1 7 C-0.01 5.35 0.98 3.7 2 2 C1.34 2 0.68 2 0 2 C0 1.34 0 0.68 0 0 Z " fill="#302A29" transform="translate(253,287)"/>
<path d="M0 0 C-2.95061663 1.47530832 -5.36262511 0.80737579 -8.625 0.5 C-18.01466246 -0.46078945 -18.01466246 -0.46078945 -26.625 2.6875 C-27.95093431 3.97854131 -29.27078981 5.2761921 -30.56640625 6.59765625 C-32.02494639 8.08431283 -33.51088173 9.54397325 -35 11 C-35.66 11 -36.32 11 -37 11 C-35.60692831 5.73728475 -32.39093225 2.92728817 -28 0 C-19.21467501 -4.51047337 -8.66213529 -4.72480107 0 0 Z " fill="#E8BB3A" transform="translate(224,165)"/>
<path d="M0 0 C0.99 0 1.98 0 3 0 C3.33 1.65 3.66 3.3 4 5 C4.99 5 5.98 5 7 5 C6.67 9.62 6.34 14.24 6 19 C5.34 19 4.68 19 4 19 C4 20.65 4 22.3 4 24 C3.34 24.33 2.68 24.66 2 25 C0.83731102 22.67462204 0.89806292 21.37273918 0.9375 18.7890625 C0.94523438 17.95632813 0.95296875 17.12359375 0.9609375 16.265625 C0.98686362 14.51301912 1.01290425 12.76041493 1.0390625 11.0078125 C1.05066406 9.75484375 1.05066406 9.75484375 1.0625 8.4765625 C1.07410156 7.71424316 1.08570313 6.95192383 1.09765625 6.16650391 C0.99920621 3.98238976 0.60440531 2.09578731 0 0 Z " fill="#0C0708" transform="translate(252,295)"/>
<path d="M0 0 C0.66 0 1.32 0 2 0 C1.34 4.95 0.68 9.9 0 15 C1.32 15.33 2.64 15.66 4 16 C2.68 16 1.36 16 0 16 C0 17.65 0 19.3 0 21 C-3.13220429 18.4372874 -4.04560617 15.89099023 -5 12 C-5.29289184 8.13382767 -5.23903954 4.71711863 -4 1 C-3.34 1 -2.68 1 -2 1 C-1.67 1.33 -1.34 1.66 -1 2 C-0.67 1.34 -0.34 0.68 0 0 Z " fill="#F6E2C3" transform="translate(193,183)"/>
<path d="M0 0 C3 3 3 3 3.9375 5.125 C4.84645565 7.20721701 4.84645565 7.20721701 7.125 7.75 C7.74375 7.8325 8.3625 7.915 9 8 C9 9.32 9 10.64 9 12 C7.02 12.33 5.04 12.66 3 13 C2.67 14.98 2.34 16.96 2 19 C1.34 19 0.68 19 0 19 C0 19.99 0 20.98 0 22 C-0.66 22 -1.32 22 -2 22 C-1.34 14.74 -0.68 7.48 0 0 Z " fill="#EFB408" transform="translate(235,182)"/>
<path d="M0 0 C0.33 0 0.66 0 1 0 C0.99214478 0.99181274 0.99214478 0.99181274 0.98413086 2.00366211 C0.96342344 4.98159851 0.95035988 7.95951982 0.9375 10.9375 C0.92912109 11.97841797 0.92074219 13.01933594 0.91210938 14.09179688 C0.90727539 15.57583008 0.90727539 15.57583008 0.90234375 17.08984375 C0.89710693 18.00628662 0.89187012 18.92272949 0.88647461 19.86694336 C0.76078789 21.98363023 0.76078789 21.98363023 2 23 C2.33 21.35 2.66 19.7 3 18 C3.33 18 3.66 18 4 18 C3.88556397 20.0839403 3.75804453 22.16716493 3.625 24.25 C3.55539062 25.41015625 3.48578125 26.5703125 3.4140625 27.765625 C3.03751692 30.70694334 2.5225877 32.49949011 1 35 C1 33.35 1 31.7 1 30 C0.01 29.67 -0.98 29.34 -2 29 C-2.40748031 7.22244094 -2.40748031 7.22244094 0 0 Z " fill="#2C2625" transform="translate(253,296)"/>
<path d="M0 0 C2.875 -0.125 2.875 -0.125 6 0 C6.66 0.66 7.32 1.32 8 2 C7.9765625 4.6015625 7.9765625 4.6015625 7.625 7.625 C7.51414063 8.62789063 7.40328125 9.63078125 7.2890625 10.6640625 C7.19367188 11.43492187 7.09828125 12.20578125 7 13 C5.35 13.33 3.7 13.66 2 14 C0.64908472 11.29816945 0.66141942 8.88191794 0.4375 5.875 C0.35371094 4.77929688 0.26992187 3.68359375 0.18359375 2.5546875 C0.12300781 1.71164062 0.06242188 0.86859375 0 0 Z " fill="#61534A" transform="translate(245,337)"/>
<path d="M0 0 C-0.67164335 2.6865734 -1.29013153 4.51078944 -3.62109375 6.1171875 C-5.41373786 7.07873049 -7.20685701 8.03938768 -9 9 C-9.99 10.485 -9.99 10.485 -11 12 C-14 14 -14 14 -16 15 C-16 13.68 -16 12.36 -16 11 C-15.34 11 -14.68 11 -14 11 C-13.731875 10.071875 -13.46375 9.14375 -13.1875 8.1875 C-11.76301729 4.36388851 -10.49625732 2.94762964 -7.125 0.8125 C-4.63128186 -0.14098047 -2.6480372 -0.14711318 0 0 Z " fill="#EDE1D4" transform="translate(207,171)"/>
<path d="M0 0 C0.66 0.33 1.32 0.66 2 1 C1.67 1.99 1.34 2.98 1 4 C1.66 3.67 2.32 3.34 3 3 C5.6723621 2.86584528 8.32250488 2.95681459 11 3 C11 3.33 11 3.66 11 4 C6.71 4.66 2.42 5.32 -2 6 C-2 6.66 -2 7.32 -2 8 C-9.26973684 9.39802632 -9.26973684 9.39802632 -13 7 C-13.99 6.67 -14.98 6.34 -16 6 C-15.67 5.34 -15.34 4.68 -15 4 C-14.41992188 4.04640625 -13.83984375 4.0928125 -13.2421875 4.140625 C-7.40942269 4.41012568 -4.5242125 3.71217436 0 0 Z " fill="#A5A19E" transform="translate(233,150)"/>
<path d="M0 0 C1.65322266 0.01740234 1.65322266 0.01740234 3.33984375 0.03515625 C4.99693359 0.04869141 4.99693359 0.04869141 6.6875 0.0625 C7.54214844 0.07410156 8.39679688 0.08570313 9.27734375 0.09765625 C8.28734375 0.42765625 7.29734375 0.75765625 6.27734375 1.09765625 C6.27734375 3.40765625 6.27734375 5.71765625 6.27734375 8.09765625 C5.28734375 7.76765625 4.29734375 7.43765625 3.27734375 7.09765625 C3.27734375 6.10765625 3.27734375 5.11765625 3.27734375 4.09765625 C2.28734375 4.09765625 1.29734375 4.09765625 0.27734375 4.09765625 C0.27734375 4.75765625 0.27734375 5.41765625 0.27734375 6.09765625 C-2.36265625 6.09765625 -5.00265625 6.09765625 -7.72265625 6.09765625 C-7.06265625 5.76765625 -6.40265625 5.43765625 -5.72265625 5.09765625 C-5.02328093 3.78118506 -4.35536492 2.44743474 -3.72265625 1.09765625 C-2.72265625 0.09765625 -2.72265625 0.09765625 0 0 Z " fill="#A2978E" transform="translate(236.72265625,284.90234375)"/>
<path d="M0 0 C9.9 0.33 19.8 0.66 30 1 C29.67 2.98 29.34 4.96 29 7 C26.36 7 23.72 7 21 7 C21.66 5.35 22.32 3.7 23 2 C22.37432129 2.04600342 21.74864258 2.09200684 21.10400391 2.1394043 C18.27853024 2.33814836 15.45207632 2.51310243 12.625 2.6875 C11.64015625 2.76033203 10.6553125 2.83316406 9.640625 2.90820312 C8.22910156 2.99038086 8.22910156 2.99038086 6.7890625 3.07421875 C5.91975098 3.13182373 5.05043945 3.18942871 4.15478516 3.2487793 C3.0881665 3.12563354 3.0881665 3.12563354 2 3 C1.34 2.01 0.68 1.02 0 0 Z " fill="#9D958D" transform="translate(124,121)"/>
<path d="M0 0 C2.4375 0.8125 2.4375 0.8125 5 2 C5.33 2.99 5.66 3.98 6 5 C7.47255249 5.03758423 7.47255249 5.03758423 8.97485352 5.07592773 C12.69319982 5.17165266 16.41142889 5.27143715 20.12963867 5.37231445 C21.72466244 5.41505117 23.31971431 5.45675454 24.91479492 5.49731445 C35.30002958 5.7622606 45.63983926 6.21710422 56 7 C56 7.33 56 7.66 56 8 C50.78515601 8.06048144 45.57343227 8.05594095 40.35839844 8.01660156 C37.91897503 8.00454277 35.47947558 8.00562463 33.04003906 8.01464844 C29.45612122 8.02788695 25.87390664 8.0022264 22.2902832 7.95626831 C20.85104689 7.94379325 19.41165163 7.94349716 17.97241211 7.95559692 C6.31692758 8.04019101 6.31692758 8.04019101 2.94824219 5.37939453 C1.5546875 3.44140625 1.5546875 3.44140625 0 0 Z " fill="#C2B8AE" transform="translate(148,104)"/>
<path d="M0 0 C1.8253125 0.2784375 1.8253125 0.2784375 3.6875 0.5625 C7.0498198 0.99769387 9.68552198 0.80350982 13 0 C14 1 14 1 14.09765625 3.94140625 C14.08605469 5.13636719 14.07445312 6.33132813 14.0625 7.5625 C14.05347656 8.76003906 14.04445312 9.95757812 14.03515625 11.19140625 C14.02355469 12.11824219 14.01195312 13.04507812 14 14 C15.32 14.33 16.64 14.66 18 15 C18.33 14.01 18.66 13.02 19 12 C19 13.32 19 14.64 19 16 C16.69 16 14.38 16 12 16 C12 14.02 12 12.04 12 10 C11.01 9.67 10.02 9.34 9 9 C9.66 8.34 10.32 7.68 11 7 C11.39764263 5.01178687 11.73775349 3.01055661 12 1 C11.2575 1.515625 10.515 2.03125 9.75 2.5625 C7 4 7 4 4.875 3.875 C2.76693901 2.89123821 1.51888119 1.74671337 0 0 Z " fill="#B0834F" transform="translate(234,277)"/>
<path d="M0 0 C4.08931682 -0.05001046 8.17851141 -0.08600357 12.26806641 -0.10986328 C13.65481676 -0.11982603 15.04154665 -0.13340118 16.42822266 -0.15087891 C24.49040344 -0.24983708 32.15724803 -0.07347869 40 2 C40 2.66 40 3.32 40 4 C35.91049746 3.73570195 31.82115337 3.46907781 27.73193359 3.20043945 C26.34525501 3.10965459 24.95853703 3.01946916 23.57177734 2.92993164 C15.69963502 2.42122641 7.84208071 1.86835558 0 1 C0 0.67 0 0.34 0 0 Z " fill="#AD8460" transform="translate(204,117)"/>
<path d="M0 0 C1.1446875 0.1546875 1.1446875 0.1546875 2.3125 0.3125 C2.63773926 3.89013189 2.74206587 5.70792581 0.625 8.6875 C-2.07540237 10.58508004 -3.45810081 10.67132213 -6.6875 10.3125 C-6.0259761 5.68183269 -5.25613325 0.61117828 0 0 Z " fill="#867C72" transform="translate(182.6875,231.6875)"/>
<path d="M0 0 C1.5 1.1875 1.5 1.1875 3 3 C3.1875 5.6875 3.1875 5.6875 3 8 C3.804375 8.144375 4.60875 8.28875 5.4375 8.4375 C8 9 8 9 9 10 C9.125 13.5 9.125 13.5 9 17 C8 18 8 18 4.9375 18.0625 C3.968125 18.041875 2.99875 18.02125 2 18 C2.061875 18.78375 2.12375 19.5675 2.1875 20.375 C2.125625 21.24125 2.06375 22.1075 2 23 C1.01 23.66 0.02 24.32 -1 25 C-0.11917098 19.62694301 -0.11917098 19.62694301 1 17 C4.125 15 4.125 15 7 14 C7 12.68 7 11.36 7 10 C5.35 9.67 3.7 9.34 2 9 C0 3.375 0 3.375 0 0 Z " fill="#E2C590" transform="translate(238,179)"/>
<path d="M0 0 C-0.99 0.33 -1.98 0.66 -3 1 C-2.67 1.99 -2.34 2.98 -2 4 C-2.6084375 3.9278125 -3.216875 3.855625 -3.84375 3.78125 C-12.24449341 2.89175952 -20.565624 2.90475611 -29 3 C-29 2.67 -29 2.34 -29 2 C-24.91813323 1.46721367 -20.83435345 0.95084629 -16.75 0.4375 C-15.59113281 0.28603516 -14.43226563 0.13457031 -13.23828125 -0.02148438 C-12.12324219 -0.16005859 -11.00820312 -0.29863281 -9.859375 -0.44140625 C-8.83295898 -0.57232666 -7.80654297 -0.70324707 -6.74902344 -0.83813477 C-4.19301503 -0.98863508 -2.41329977 -0.79012848 0 0 Z " fill="#F0D2AA" transform="translate(258,128)"/>
<path d="M0 0 C6.0546875 -0.1953125 6.0546875 -0.1953125 8 0 C10 2 10 2 10.1953125 5.2578125 C10.16050781 7.17207031 10.16050781 7.17207031 10.125 9.125 C10.10695312 10.40632813 10.08890625 11.68765625 10.0703125 13.0078125 C10.04710937 13.99523437 10.02390625 14.98265625 10 16 C9.34 16.33 8.68 16.66 8 17 C7.67 12.71 7.34 8.42 7 4 C2.35954625 2.90194193 2.35954625 2.90194193 -1 3 C-0.67 2.01 -0.34 1.02 0 0 Z " fill="#EFB406" transform="translate(241,273)"/>
<path d="M0 0 C0.66 0.33 1.32 0.66 2 1 C2 2.65 2 4.3 2 6 C1.34 6 0.68 6 0 6 C-0.33 6.99 -0.66 7.98 -1 9 C-3.64 9 -6.28 9 -9 9 C-9 8.34 -9 7.68 -9 7 C-7.03125 5.2734375 -7.03125 5.2734375 -4.5 3.375 C-3.6646875 2.74335938 -2.829375 2.11171875 -1.96875 1.4609375 C-1.3190625 0.97882813 -0.669375 0.49671875 0 0 Z " fill="#EDB513" transform="translate(229,206)"/>
<path d="M0 0 C-0.33 0.66 -0.66 1.32 -1 2 C-5.62 2 -10.24 2 -15 2 C-15 2.66 -15 3.32 -15 4 C-16.98 4 -18.96 4 -21 4 C-20 2.0625 -20 2.0625 -18 0 C-11.87064618 -1.3979228 -6.18957812 -0.82443151 0 0 Z " fill="#EFB306" transform="translate(218,165)"/>
<path d="M0 0 C6.64409958 -0.21432579 12.53205867 0.48766299 19 2 C19 2.33 19 2.66 19 3 C16.03 3 13.06 3 10 3 C11.32 3.66 12.64 4.32 14 5 C15.35113205 5.97581759 16.68946944 6.97029741 18 8 C17.443125 7.86722656 16.88625 7.73445312 16.3125 7.59765625 C11.2141299 6.41779695 6.20212559 5.56750461 1 5 C1.639375 4.690625 2.27875 4.38125 2.9375 4.0625 C4.93610821 3.1654837 4.93610821 3.1654837 6 2 C3.03 1.505 3.03 1.505 0 1 C0 0.67 0 0.34 0 0 Z " fill="#B6ADA6" transform="translate(208,152)"/>
<path d="M0 0 C0 0.66 0 1.32 0 2 C0.99 2.33 1.98 2.66 3 3 C2.34 4.32 1.68 5.64 1 7 C-0.093125 6.360625 -1.18625 5.72125 -2.3125 5.0625 C-7.38220676 2.48668849 -12.39014692 2.2062446 -18 2 C-18 1.67 -18 1.34 -18 1 C-15.56257869 0.83210874 -13.12507454 0.66563867 -10.6875 0.5 C-9.99720703 0.45230469 -9.30691406 0.40460938 -8.59570312 0.35546875 C-5.72337641 0.16120511 -2.87986212 0 0 0 Z " fill="#D5CCC1" transform="translate(224,173)"/>
<path d="M0 0 C0 0.33 0 0.66 0 1 C-5.94 1.33 -11.88 1.66 -18 2 C-18.33 1.01 -18.66 0.02 -19 -1 C-11.84586209 -3.40199316 -6.97798315 -2.7096135 0 0 Z " fill="#AAA39D" transform="translate(227,291)"/>
<path d="M0 0 C0.66 1.32 1.32 2.64 2 4 C-3.4718214 8.63915293 -5.5713742 10.13756714 -13 10 C-12.4225 9.7525 -11.845 9.505 -11.25 9.25 C-8.6997003 7.83316683 -6.98214299 6.12372463 -5 4 C-4.34 4.33 -3.68 4.66 -3 5 C-3 4.34 -3 3.68 -3 3 C-2.01 3 -1.02 3 0 3 C0 2.01 0 1.02 0 0 Z " fill="#DBCDC0" transform="translate(169,209)"/>
<path d="M0 0 C1.85776765 3.13498292 2.20140476 5.37471432 2 9 C1.01 9.495 1.01 9.495 0 10 C-0.89774655 12.14078024 -1.72043396 14.31341232 -2.5 16.5 C-4.77777778 22.88888889 -4.77777778 22.88888889 -7 24 C-6.36683241 20.37723698 -5.37831771 17.11855674 -4.0625 13.6875 C-2.37539061 9.1599119 -1.06634367 4.70968453 0 0 Z " fill="#F1E6DB" transform="translate(87,150)"/>
<path d="M0 0 C-2.63904371 1.41377341 -5.07120629 2.37240135 -8 3 C-8 2.01 -8 1.02 -8 0 C-8.99 0.66 -9.98 1.32 -11 2 C-13.19140625 2.265625 -13.19140625 2.265625 -15.5625 2.25 C-16.74005859 2.25773437 -16.74005859 2.25773437 -17.94140625 2.265625 C-20 2 -20 2 -22 0 C-15.13334317 -2.06985349 -6.93065498 -1.54014555 0 0 Z " fill="#8B857E" transform="translate(256,117)"/>
<path d="M0 0 C0.66 0 1.32 0 2 0 C4 3 4 3 4 6 C4.99 6 5.98 6 7 6 C7.33 6.66 7.66 7.32 8 8 C8.66 8 9.32 8 10 8 C10.66 7.01 11.32 6.02 12 5 C12.66 5.66 13.32 6.32 14 7 C13.01 8.98 12.02 10.96 11 13 C10.67 12.34 10.34 11.68 10 11 C9.4225 10.731875 8.845 10.46375 8.25 10.1875 C4.56685578 8.24361833 1.58651037 5.66929875 0.1875 1.6875 C0.125625 1.130625 0.06375 0.57375 0 0 Z " fill="#E2B748" transform="translate(186,204)"/>
<path d="M0 0 C-0.33 0.99 -0.66 1.98 -1 3 C-5.39529916 4.98834962 -9.22037853 5.19118486 -14 5 C-13.67 4.01 -13.34 3.02 -13 2 C-8.56204759 0.5946484 -4.67869431 -0.29241839 0 0 Z " fill="#ACA6A0" transform="translate(113,151)"/>
<path d="M0 0 C1.98 0 3.96 0 6 0 C6 1.98 6 3.96 6 6 C4.35 6.33 2.7 6.66 1 7 C0.67 4.69 0.34 2.38 0 0 Z " fill="#EDCF93" transform="translate(246,344)"/>
<path d="M0 0 C1.4540625 0.0309375 1.4540625 0.0309375 2.9375 0.0625 C-0.0625 2.0625 -0.0625 2.0625 -2.0625 2.0625 C-2.165625 2.8875 -2.26875 3.7125 -2.375 4.5625 C-4.4115566 14.93042453 -4.4115566 14.93042453 -8.25 17.5625 C-9.1471875 17.81 -9.1471875 17.81 -10.0625 18.0625 C-9.77375 17.546875 -9.485 17.03125 -9.1875 16.5 C-7.77469973 13.43893275 -6.9376483 10.31305082 -6.0625 7.0625 C-5.4025 7.0625 -4.7425 7.0625 -4.0625 7.0625 C-4.083125 6.093125 -4.10375 5.12375 -4.125 4.125 C-4.0425 0.0825 -4.0425 0.0825 0 0 Z " fill="#E7BB46" transform="translate(241.0625,193.9375)"/>
<path d="M0 0 C3.3 0.66 6.6 1.32 10 2 C10 2.33 10 2.66 10 3 C9.030625 3.12375 8.06125 3.2475 7.0625 3.375 C6.051875 3.58125 5.04125 3.7875 4 4 C3.67 4.66 3.34 5.32 3 6 C6.3 5.67 9.6 5.34 13 5 C10.62959692 7.37040308 9.93697247 7.34465793 6.6875 7.4375 C2.78519677 7.38085366 2.14562097 7.11887426 -1.0625 4.5 C-1.701875 3.675 -2.34125 2.85 -3 2 C-2.01 2.33 -1.02 2.66 0 3 C0 2.01 0 1.02 0 0 Z " fill="#BEB5AC" transform="translate(96,150)"/>
<path d="M0 0 C0.66 0 1.32 0 2 0 C1.34 4.95 0.68 9.9 0 15 C1.32 15.33 2.64 15.66 4 16 C2.68 16 1.36 16 0 16 C-0.33 16.99 -0.66 17.98 -1 19 C-1 14.71 -1 10.42 -1 6 C-1.66 6 -2.32 6 -3 6 C-3 4.35 -3 2.7 -3 1 C-2.67 1.66 -2.34 2.32 -2 3 C-1.34 2.01 -0.68 1.02 0 0 Z " fill="#D1C8BD" transform="translate(193,183)"/>
<path d="M0 0 C3.63 0.33 7.26 0.66 11 1 C10.67 2.32 10.34 3.64 10 5 C5.94393835 4.53199289 2.53411321 4.12046792 -1 2 C-0.67 1.34 -0.34 0.68 0 0 Z " fill="#989494" transform="translate(218,154)"/>
<path d="M0 0 C3 1 3 1 4.1875 3.375 C5 6 5 6 5 9 C3.35 9.33 1.7 9.66 0 10 C0 6.7 0 3.4 0 0 Z " fill="#937B68" transform="translate(252,276)"/>
<path d="M0 0 C4.29 0 8.58 0 13 0 C13 0.33 13 0.66 13 1 C10.36 1.33 7.72 1.66 5 2 C5 4.31 5 6.62 5 9 C4.01 9.495 4.01 9.495 3 10 C3 7.69 3 5.38 3 3 C1.68 2.67 0.36 2.34 -1 2 C-0.67 1.34 -0.34 0.68 0 0 Z " fill="#D2C4B8" transform="translate(182,228)"/>
<path d="M0 0 C7.92 0.66 15.84 1.32 24 2 C24 2.33 24 2.66 24 3 C20.37 3.33 16.74 3.66 13 4 C13 3.34 13 2.68 13 2 C9.37 2.33 5.74 2.66 2 3 C2 2.34 2 1.68 2 1 C1.34 0.67 0.68 0.34 0 0 Z " fill="#A29992" transform="translate(221,113)"/>
<path d="M0 0 C0.33 0 0.66 0 1 0 C1.33 4.95 1.66 9.9 2 15 C1.01 15.33 0.02 15.66 -1 16 C-1.33 16.66 -1.66 17.32 -2 18 C-2.66 16.02 -3.32 14.04 -4 12 C-2.68 12 -1.36 12 0 12 C0 8.04 0 4.08 0 0 Z " fill="#D5CBC0" transform="translate(228,187)"/>
<path d="M0 0 C0.66 0 1.32 0 2 0 C1.67 2.64 1.34 5.28 1 8 C-0.32 8 -1.64 8 -3 8 C-3.33 6.02 -3.66 4.04 -4 2 C-2.68 2 -1.36 2 0 2 C0 1.34 0 0.68 0 0 Z " fill="#E4D1BC" transform="translate(209,139)"/>
<path d="M0 0 C-0.33 0.99 -0.66 1.98 -1 3 C-1.886875 3.144375 -2.77375 3.28875 -3.6875 3.4375 C-5.55250947 3.75419972 -7.4147737 4.10369343 -9.25 4.5625 C-13.48731832 5.23661882 -17.71858427 5.07482086 -22 5 C-22 4.67 -22 4.34 -22 4 C-20.83984375 3.81824219 -20.83984375 3.81824219 -19.65625 3.6328125 C-13.37763043 2.62263856 -6.29378831 0 0 0 Z " fill="#EADDCF" transform="translate(272,130)"/>
<path d="M0 0 C1.6875 2.53125 1.6875 2.53125 3.375 5.0625 C5.1088572 7.12979127 6.53058201 7.97817187 9 9 C7.02253397 9.73080266 5.01927511 10.39421747 3 11 C2.34 10.67 1.68 10.34 1 10 C0.23597322 6.56187949 0 3.53471921 0 0 Z " fill="#CDBFB3" transform="translate(147,219)"/>
<path d="M0 0 C0.66 0.33 1.32 0.66 2 1 C1.195625 1.61875 0.39125 2.2375 -0.4375 2.875 C-3.03874519 4.74164041 -3.03874519 4.74164041 -4 7 C-3.34 7 -2.68 7 -2 7 C-1.67 9.31 -1.34 11.62 -1 14 C-3.74762441 11.37183752 -4.88094659 9.93258507 -5.375 6.0625 C-5 3 -5 3 -2.625 1.0625 C-1.75875 0.711875 -0.8925 0.36125 0 0 Z " fill="#A59D95" transform="translate(53,140)"/>
<path d="M0 0 C-0.60328125 0.19335938 -1.2065625 0.38671875 -1.828125 0.5859375 C-2.62734375 0.84632813 -3.4265625 1.10671875 -4.25 1.375 C-5.03890625 1.63023437 -5.8278125 1.88546875 -6.640625 2.1484375 C-9.01062976 2.94423259 -9.01062976 2.94423259 -11.15625 4.125 C-13 5 -13 5 -15.25 4.625 C-15.8275 4.41875 -16.405 4.2125 -17 4 C-15.35 3.67 -13.7 3.34 -12 3 C-12 2.01 -12 1.02 -12 0 C-3.96428571 -1.20535714 -3.96428571 -1.20535714 0 0 Z " fill="#C4BAB0" transform="translate(89,129)"/>
<path d="M0 0 C1.21236328 0.02707031 1.21236328 0.02707031 2.44921875 0.0546875 C3.37154297 0.08949219 3.37154297 0.08949219 4.3125 0.125 C4.3125 0.785 4.3125 1.445 4.3125 2.125 C0.05683453 3.28563604 -3.3710078 2.88673392 -7.6875 2.125 C-4.48369983 -0.01086678 -3.66810033 -0.10632175 0 0 Z " fill="#8A8582" transform="translate(229.6875,114.875)"/>
<path d="M0 0 C7.425 0.99 7.425 0.99 15 2 C15 2.33 15 2.66 15 3 C13.25406097 3.27694205 11.50281592 3.52057383 9.75 3.75 C8.77546875 3.88921875 7.8009375 4.0284375 6.796875 4.171875 C4 4 4 4 0 0 Z " fill="#F3DEBE" transform="translate(203,210)"/>
<path d="M0 0 C0.97140086 3.02213602 1.19248372 5.0187907 0 8 C-3 10 -3 10 -5 11 C-5 9.68 -5 8.36 -5 7 C-4.34 7 -3.68 7 -3 7 C-2.690625 6.030625 -2.38125 5.06125 -2.0625 4.0625 C-1 1 -1 1 0 0 Z " fill="#F1E4D6" transform="translate(196,175)"/>
<path d="M0 0 C2.05078125 0.03255208 4.1015625 0.06510417 6.15234375 0.09765625 C5.16234375 1.58265625 5.16234375 1.58265625 4.15234375 3.09765625 C0.52734375 3.78515625 0.52734375 3.78515625 -2.84765625 4.09765625 C-2.84765625 0.15051037 -2.84765625 0.15051037 0 0 Z " fill="#A39D99" transform="translate(208.84765625,152.90234375)"/>
<path d="M0 0 C0.99 0.144375 1.98 0.28875 3 0.4375 C6.99409465 1.00925179 10.99532937 1.50819834 15 2 C15 2.66 15 3.32 15 4 C12.87465341 3.85930804 10.74972471 3.71229079 8.625 3.5625 C7.44164062 3.48128906 6.25828125 3.40007812 5.0390625 3.31640625 C2 3 2 3 0 2 C0 1.34 0 0.68 0 0 Z " fill="#A07F63" transform="translate(229,117)"/>
<path d="M0 0 C0.98484375 0.00902344 1.9696875 0.01804687 2.984375 0.02734375 C4.10585938 0.04474609 4.10585938 0.04474609 5.25 0.0625 C5.25 0.3925 5.25 0.7225 5.25 1.0625 C1.95 1.0625 -1.35 1.0625 -4.75 1.0625 C-5.08 2.7125 -5.41 4.3625 -5.75 6.0625 C-6.08 5.0725 -6.41 4.0825 -6.75 3.0625 C-8.07 3.3925 -9.39 3.7225 -10.75 4.0625 C-10.42 3.0725 -10.09 2.0825 -9.75 1.0625 C-6.58321116 -0.2085735 -3.37266213 -0.04015074 0 0 Z " fill="#E9DDCE" transform="translate(262.75,283.9375)"/>
<path d="M0 0 C-0.99 1.485 -0.99 1.485 -2 3 C-0.68 3.33 0.64 3.66 2 4 C0.68 4 -0.64 4 -2 4 C-2.33 5.32 -2.66 6.64 -3 8 C-3.33 6.02 -3.66 4.04 -4 2 C-6.64 1.67 -9.28 1.34 -12 1 C-12 0.67 -12 0.34 -12 0 C-10.56359829 -0.19573608 -9.12580496 -0.38127816 -7.6875 -0.5625 C-6.88699219 -0.66691406 -6.08648437 -0.77132812 -5.26171875 -0.87890625 C-3 -1 -3 -1 0 0 Z " fill="#BDB0A5" transform="translate(168,228)"/>
<path d="M0 0 C0 0.66 0 1.32 0 2 C0.66 2 1.32 2 2 2 C1.67 2.99 1.34 3.98 1 5 C-1.31 4.67 -3.62 4.34 -6 4 C-5.67 3.01 -5.34 2.02 -5 1 C-3 0 -3 0 0 0 Z " fill="#050102" transform="translate(215,175)"/>
<path d="M0 0 C3.96 1.98 3.96 1.98 8 4 C8 4.66 8 5.32 8 6 C5.125 6.1875 5.125 6.1875 2 6 C0 3 0 3 0 0 Z " fill="#CBB9A1" transform="translate(250,270)"/>
<path d="M0 0 C0.33 0 0.66 0 1 0 C1.12375 1.134375 1.2475 2.26875 1.375 3.4375 C1.58125 4.613125 1.7875 5.78875 2 7 C2.66 7.33 3.32 7.66 4 8 C4 9.32 4 10.64 4 12 C3.34 12 2.68 12 2 12 C1.67 12.99 1.34 13.98 1 15 C0.15318867 9.91913204 -0.09038099 5.15171623 0 0 Z " fill="#151011" transform="translate(250,318)"/>
<path d="M0 0 C2.64 0.33 5.28 0.66 8 1 C7.01 1.33 6.02 1.66 5 2 C5 2.66 5 3.32 5 4 C2.36 4 -0.28 4 -3 4 C-2.34 3.67 -1.68 3.34 -1 3 C-0.67 2.01 -0.34 1.02 0 0 Z " fill="#99908A" transform="translate(232,287)"/>
<path d="M0 0 C2 1 4 2 6 3 C5.67 4.32 5.34 5.64 5 7 C2.69 7 0.38 7 -2 7 C-0.68 6.34 0.64 5.68 2 5 C1.34 3.35 0.68 1.7 0 0 Z " fill="#E1CFB6" transform="translate(190,212)"/>
<path d="M0 0 C2.125 0.375 2.125 0.375 4 1 C3.0479279 2.00596297 2.08812654 3.00461563 1.125 4 C0.59132812 4.556875 0.05765625 5.11375 -0.4921875 5.6875 C-2 7 -2 7 -4 7 C-2.92598892 4.08482708 -2.22189824 2.22189824 0 0 Z " fill="#E9B930" transform="translate(191,169)"/>
<path d="M0 0 C3 3 3 3 3.1875 6.1875 C3.0946875 7.5796875 3.0946875 7.5796875 3 9 C2.01 9 1.02 9 0 9 C0 6.03 0 3.06 0 0 Z " fill="#151010" transform="translate(245,328)"/>
<path d="M0 0 C0 2.60148566 -0.2423797 4.6127626 -0.8125 7.125 C-0.96332031 7.82882813 -1.11414063 8.53265625 -1.26953125 9.2578125 C-1.51058594 9.83273438 -1.75164062 10.40765625 -2 11 C-2.99 11.33 -3.98 11.66 -5 12 C-4.52389341 7.00088076 -2.96837781 4.02167317 0 0 Z " fill="#EEE3D7" transform="translate(71,192)"/>
<path d="M0 0 C1.98 0 3.96 0 6 0 C5.67 1.65 5.34 3.3 5 5 C3.68 5 2.36 5 1 5 C0.67 3.35 0.34 1.7 0 0 Z " fill="#E8D6C1" transform="translate(211,157)"/>
<path d="M0 0 C0.99 0 1.98 0 3 0 C2.46930939 3.82097239 1.50298434 6.06171403 -1 9 C-1.125 2.25 -1.125 2.25 0 0 Z " fill="#E2D3C4" transform="translate(267,132)"/>
<path d="M0 0 C0.66 0.33 1.32 0.66 2 1 C1.60196439 3.88575819 1.20990931 4.82189513 -1.0625 6.75 C-1.701875 7.1625 -2.34125 7.575 -3 8 C-2.74438677 5.6568787 -2.40729228 3.32156597 -2 1 C-1.34 0.67 -0.68 0.34 0 0 Z " fill="#E2D8CD" transform="translate(199,174)"/>
<path d="M0 0 C-2.34914492 2.34914492 -3.95679446 2.73140357 -7.125 3.625 C-8.49011719 4.01558594 -8.49011719 4.01558594 -9.8828125 4.4140625 C-10.58148438 4.60742188 -11.28015625 4.80078125 -12 5 C-12 4.34 -12 3.68 -12 3 C-7.77050005 0.58314288 -4.87664009 -0.34833144 0 0 Z " fill="#EFDAB8" transform="translate(207,161)"/>
<path d="M0 0 C1.85776765 3.13498292 2.20140476 5.37471432 2 9 C1.01 9.33 0.02 9.66 -1 10 C-1.125 3.375 -1.125 3.375 0 0 Z " fill="#EDE0D4" transform="translate(87,150)"/>
<path d="M0 0 C0 0.66 0 1.32 0 2 C-0.66 2 -1.32 2 -2 2 C-2.33 2.66 -2.66 3.32 -3 4 C-3.99 3.67 -4.98 3.34 -6 3 C-6 2.01 -6 1.02 -6 0 C-3.50907189 -1.24546405 -2.58919267 -0.7767578 0 0 Z " fill="#E1CDB8" transform="translate(221,265)"/>
<path d="M0 0 C1.32 0 2.64 0 4 0 C4.33 0.99 4.66 1.98 5 3 C4 4 4 4 1.4375 4.0625 C0.2309375 4.0315625 0.2309375 4.0315625 -1 4 C-0.67 2.68 -0.34 1.36 0 0 Z " fill="#83766A" transform="translate(177,238)"/>
<path d="M0 0 C1.12758089 3.38274266 0.81750262 4.76778223 0.0625 8.1875 C-0.13214844 9.08855469 -0.32679688 9.98960937 -0.52734375 10.91796875 C-0.68332031 11.60503906 -0.83929688 12.29210937 -1 13 C-1.33 13 -1.66 13 -2 13 C-2.05391993 11.20866022 -2.09275571 9.41686101 -2.125 7.625 C-2.14820313 6.62726563 -2.17140625 5.62953125 -2.1953125 4.6015625 C-2 2 -2 2 0 0 Z " fill="#E8BB3C" transform="translate(189,181)"/>
<path d="M0 0 C-3.20336822 2.83374881 -5.78087253 3.5205537 -10 4 C-4.75 -1.425 -4.75 -1.425 0 0 Z " fill="#E6BE56" transform="translate(202,165)"/>
<path d="M0 0 C1.32 0.33 2.64 0.66 4 1 C3.34 2.65 2.68 4.3 2 6 C1.34 6 0.68 6 0 6 C0 4.02 0 2.04 0 0 Z " fill="#E6B748" transform="translate(248,344)"/>
<path d="M0 0 C0.66 0.33 1.32 0.66 2 1 C1.34 2.65 0.68 4.3 0 6 C-0.99 5.67 -1.98 5.34 -3 5 C-1.125 1.125 -1.125 1.125 0 0 Z " fill="#E3D0BB" transform="translate(208,283)"/>
<path d="M0 0 C-0.33 1.32 -0.66 2.64 -1 4 C-2.98 4 -4.96 4 -7 4 C-7 3.34 -7 2.68 -7 2 C-2.25 0 -2.25 0 0 0 Z " fill="#EFB206" transform="translate(227,211)"/>
<path d="M0 0 C1.5625 1.6875 1.5625 1.6875 3 4 C2.6875 6.75 2.6875 6.75 2 9 C1.34 8.67 0.68 8.34 0 8 C0 5.36 0 2.72 0 0 Z " fill="#EFB305" transform="translate(185,192)"/>
<path d="M0 0 C1.875 0.625 1.875 0.625 4 2 C5.25 5.125 5.25 5.125 6 8 C5.34 8 4.68 8 4 8 C0 2.58823529 0 2.58823529 0 0 Z " fill="#E9B92D" transform="translate(230,170)"/>
<path d="M0 0 C1.65 0 3.3 0 5 0 C5.33 0.99 5.66 1.98 6 3 C3.36 3 0.72 3 -2 3 C-1.34 2.67 -0.68 2.34 0 2 C0 1.34 0 0.68 0 0 Z " fill="#F0E5D9" transform="translate(215,171)"/>
<path d="M0 0 C2.97 0 5.94 0 9 0 C9.33 1.32 9.66 2.64 10 4 C6.7 3.01 3.4 2.02 0 1 C0 0.67 0 0.34 0 0 Z " fill="#E3C99D" transform="translate(218,163)"/>
<path d="M0 0 C1.22589844 0.29197266 1.22589844 0.29197266 2.4765625 0.58984375 C3.41628906 0.82380859 3.41628906 0.82380859 4.375 1.0625 C4.375 1.3925 4.375 1.7225 4.375 2.0625 C1.075 2.0625 -2.225 2.0625 -5.625 2.0625 C-5.955 1.4025 -6.285 0.7425 -6.625 0.0625 C-3.99249612 -1.25375194 -2.82320944 -0.68563658 0 0 Z " fill="#A59C95" transform="translate(222.625,289.9375)"/>
<path d="M0 0 C3.3 0.33 6.6 0.66 10 1 C10 1.33 10 1.66 10 2 C7.69 2 5.38 2 3 2 C3.33 2.99 3.66 3.98 4 5 C3.34 5 2.68 5 2 5 C2 4.01 2 3.02 2 2 C1.34 2 0.68 2 0 2 C0 1.34 0 0.68 0 0 Z " fill="#DDCDBC" transform="translate(100,284)"/>
<path d="M0 0 C1.65 0 3.3 0 5 0 C5 2 5 2 3.625 3.625 C2 5 2 5 0 5 C0 3.35 0 1.7 0 0 Z " fill="#887A6E" transform="translate(166,232)"/>
<path d="M0 0 C1.5 1 1.5 1 3 3 C3.27345479 5.71846235 3.13491285 8.25677199 3 11 C2.67 11 2.34 11 2 11 C1.814375 9.576875 1.814375 9.576875 1.625 8.125 C1.28312823 4.91332809 1.28312823 4.91332809 -1 3 C-0.67 2.01 -0.34 1.02 0 0 Z " fill="#A79C93" transform="translate(154,184)"/>
<path d="M0 0 C-1.75 1.5625 -1.75 1.5625 -4 3 C-6.25 2.6875 -6.25 2.6875 -8 2 C-5.14066998 -0.85933002 -3.8625627 -1.2875209 0 0 Z " fill="#AAA49F" transform="translate(184,156)"/>
<path d="M0 0 C-0.66 1.32 -1.32 2.64 -2 4 C-4.64 3.67 -7.28 3.34 -10 3 C-10 2.67 -10 2.34 -10 2 C-8.7090864 1.66376204 -7.41723903 1.33110751 -6.125 1 C-5.40570313 0.814375 -4.68640625 0.62875 -3.9453125 0.4375 C-2 0 -2 0 0 0 Z " fill="#C2B8AD" transform="translate(162,134)"/>
</svg>
