<?xml version="1.0" encoding="UTF-8"?>
<svg version="1.1" xmlns="http://www.w3.org/2000/svg" width="360" height="360">
<path d="M0 0 C2.69628591 0.98863817 3.79691111 1.62588888 5.1875 4.1875 C7.06164515 10.67492551 7.15776874 17.12025686 7.125 23.8125 C7.1252417 24.72451172 7.1254834 25.63652344 7.12573242 26.57617188 C7.10560808 31.13137677 6.99088298 35.65491898 6.66796875 40.19921875 C6.61044434 41.00963623 6.55291992 41.82005371 6.49365234 42.6550293 C6.37585012 44.17994893 6.24286901 45.70379796 6.09228516 47.22583008 C5.72280969 51.856192 6.35428803 54.2213806 9 58 C9.09320445 62.19420037 7.90808032 64.21357954 5.2421875 67.2265625 C1.07015835 72.67585809 -0.54861822 78.95566048 -2.3527832 85.46362305 C-2.93916651 87.56848204 -3.55830665 89.66168236 -4.18164062 91.75585938 C-4.56968596 93.10880935 -4.95582101 94.462309 -5.33984375 95.81640625 C-5.68394287 97.02756104 -6.02804199 98.23871582 -6.38256836 99.48657227 C-7.52342266 105.97847981 -5.94743215 110.72588926 -3.05859375 116.51953125 C-2.77146011 117.10417648 -2.48432648 117.68882172 -2.18849182 118.29118347 C-1.28064133 120.13631932 -0.35994009 121.97462079 0.5625 123.8125 C1.77738858 126.25397398 2.98520403 128.69873252 4.19140625 131.14453125 C4.72967041 132.22065674 5.26793457 133.29678223 5.82250977 134.40551758 C7 137 7 137 7 139 C10.75976097 137.74674634 11.24639843 136.10078765 12.95703125 132.67993164 C13.30121094 131.9605542 13.64539063 131.24117676 14 130.5 C14.35449219 129.76966553 14.70898438 129.03933105 15.07421875 128.28686523 C18.65618941 120.86841351 18.65618941 120.86841351 21 113 C21.15984375 112.25492187 21.3196875 111.50984375 21.484375 110.7421875 C21.78048421 108.17300464 21.77236043 106.47596686 21 104 C18.957554 101.67135138 16.76340393 99.83598685 14.33984375 97.91015625 C10.47934964 94.75860096 7.33744272 91.41833952 6.625 86.3125 C9.15032689 82.06535933 14.5871374 80.71779821 19.17724609 79.35229492 C21.40187225 78.8164342 23.62579388 78.35854056 25.875 77.9375 C26.73971924 77.77540039 27.60443848 77.61330078 28.49536133 77.44628906 C31.32639142 76.9375981 34.16120076 76.46327125 37 76 C38.37019287 75.76917725 38.37019287 75.76917725 39.76806641 75.53369141 C56.15302509 72.90379608 72.50858369 72.71038097 89.0625 72.6875 C90.63612808 72.68212219 90.63612808 72.68212219 92.24154663 72.67663574 C105.30400037 72.65263444 118.06003009 73.20391272 131 75 C132.2269458 75.16089111 133.4538916 75.32178223 134.71801758 75.48754883 C150.35603559 77.62122608 165.68609 80.64913274 181 84.4375 C181.74368835 84.61846222 182.48737671 84.79942444 183.25360107 84.98587036 C211.44828636 91.90025708 211.44828636 91.90025708 216 98 C216.140625 100.375 216.140625 100.375 215 103 C212.77207782 104.97356518 210.29401211 106.46688536 207.75 108 C198.2405703 113.65838479 198.2405703 113.65838479 193 123 C192.32669697 129.73303025 193.89085772 134.07541292 197 140 C197.38542969 140.74378906 197.77085937 141.48757812 198.16796875 142.25390625 C200.70714872 146.97891752 203.55231909 151.39652094 206.66796875 155.76171875 C208.24213155 158.40686621 209.11283282 161.06099594 210 164 C211.30710937 163.83951172 211.30710937 163.83951172 212.640625 163.67578125 C227.41725698 162.18852284 240.48221871 165.96775395 252.453125 174.8125 C259.98691272 181.71367959 265.38394499 192.45052586 266.21484375 202.6328125 C266.71275014 217.88866419 261.61224543 232.10283111 252.0625 244 C242.67827163 253.89285863 230.27042381 260.83732452 216.4375 261.375 C212.11100356 261.2346812 208.23974314 260.05362622 204.1640625 258.65625 C201.8984132 257.85490042 201.8984132 257.85490042 199 258 C198.608125 258.721875 198.21625 259.44375 197.8125 260.1875 C195.88189347 263.18326876 194.9932768 263.64306407 191.9375 265.1875 C189.16320688 266.76553829 188.18415487 267.51538193 187.03515625 270.5390625 C186.5540108 273.03259 186.1965786 275.46905047 186 278 C186.99 278 187.98 278 189 278 C189.33 279.32 189.66 280.64 190 282 C191.32 282 192.64 282 194 282 C192.08888448 288.71690692 189.86289994 295.21408707 187.27734375 301.69921875 C186.93119522 302.5785054 186.58504669 303.45779205 186.22840881 304.36372375 C185.13525691 307.13984086 184.03694222 309.91386866 182.9375 312.6875 C181.83477334 315.4719512 180.73332061 318.2568723 179.63587952 321.04341125 C178.95676748 322.76762651 178.27467773 324.49067301 177.58909607 326.21232605 C175.79621125 330.76267661 174.25634126 335.27240801 173 340 C171.35 339.67 169.7 339.34 168 339 C168.01252808 338.3935817 168.02505615 337.78716339 168.03796387 337.16236877 C168.16883149 330.81896154 168.29840506 324.47552879 168.42724609 318.13208008 C168.47542042 315.76846659 168.52391852 313.40485968 168.57275391 311.04125977 C168.64311629 307.63299228 168.71229282 304.22470242 168.78125 300.81640625 C168.80312378 299.76916885 168.82499756 298.72193146 168.84753418 297.64295959 C168.96526381 291.76047554 169.02138542 285.88366383 169 280 C167.88625 280.0928125 167.88625 280.0928125 166.75 280.1875 C164 280 164 280 162.11468506 278.49809265 C159.58767923 276.70790227 158.46571271 276.68020073 155.41503906 276.84301758 C154.51440735 276.88328568 153.61377563 276.92355377 152.68585205 276.96504211 C151.24033966 277.05388924 151.24033966 277.05388924 149.765625 277.14453125 C148.77246277 277.19316818 147.77930054 277.24180511 146.75604248 277.29191589 C143.58639074 277.45056678 140.41843183 277.63124784 137.25 277.8125 C135.10033531 277.92397968 132.95059562 278.03402314 130.80078125 278.14257812 C125.53287074 278.41173065 120.26618016 278.69897574 115 279 C113.84739787 286.24213548 113.81609089 293.30676938 113.8125 300.625 C113.80025391 301.91535156 113.78800781 303.20570313 113.77539062 304.53515625 C113.76424363 311.91446934 114.23924849 318.91833008 115.55078125 326.18408203 C116.1904403 330.1937709 116.2025855 333.94829004 116 338 C113.89868615 340.10131385 109.45853678 339.18514741 106.5625 339.1875 C105.77294922 339.19974609 104.98339844 339.21199219 104.16992188 339.22460938 C102.11192565 339.22987279 100.05437991 339.12206285 98 339 C97.34 338.34 96.68 337.68 96 337 C96.53571429 333.46428571 96.53571429 333.46428571 98 332 C100.97693155 331.22903663 103.99163058 330.635571 107 330 C106.8570752 329.06542969 106.71415039 328.13085938 106.56689453 327.16796875 C105.01747763 316.39975598 104.75844238 305.86405031 104.875 295 C104.88506744 293.33854717 104.89418653 291.67708831 104.90234375 290.015625 C104.92401889 286.01026319 104.95833257 282.00520165 105 278 C102.56183415 277.9190277 100.12635616 277.85953028 97.6875 277.8125 C96.99720703 277.78736328 96.30691406 277.76222656 95.59570312 277.73632812 C91.6958666 277.60922382 91.6958666 277.60922382 88.29988098 279.27072144 C85.98490549 282.35041685 86.59670717 286.23900189 86.63671875 289.9453125 C86.63622025 290.82976044 86.63572174 291.71420837 86.63520813 292.62545776 C86.63754963 294.50000245 86.64728267 296.37455022 86.66381836 298.24902344 C86.68723973 301.09339163 86.68440103 303.93681096 86.67773438 306.78125 C86.68331742 308.60677634 86.69043122 310.43229877 86.69921875 312.2578125 C86.69830734 313.09877472 86.69739594 313.93973694 86.69645691 314.80618286 C86.75444102 319.73645581 87.32304663 324.20015975 88.56086731 328.97702026 C89.22419178 332.03279814 89.13256301 334.88476918 89 338 C84.76782579 340.07981133 81.48744807 340.18042337 76.8125 339.875 C74.96591797 339.77832031 74.96591797 339.77832031 73.08203125 339.6796875 C70 339 70 339 68.57421875 336.9453125 C68.38472656 336.30335938 68.19523437 335.66140625 68 335 C68.66 334.01 69.32 333.02 70 332 C72.6015625 331.48828125 72.6015625 331.48828125 75.625 331.3125 C77.12933594 331.21388672 77.12933594 331.21388672 78.6640625 331.11328125 C79.43492187 331.07589844 80.20578125 331.03851563 81 331 C80.5359375 329.5459375 80.5359375 329.5459375 80.0625 328.0625 C77.98402199 320.75189865 77.84012015 313.14456502 77.68359375 305.58984375 C77.66281265 304.73693253 77.64203156 303.8840213 77.62062073 303.00526428 C77.55592801 300.31608089 77.496619 297.6268111 77.4375 294.9375 C77.39423816 293.09960091 77.35062161 291.26171014 77.30664062 289.42382812 C77.20033066 284.94930429 77.09884438 280.47469473 77 276 C76.34628418 275.93006836 75.69256836 275.86013672 75.01904297 275.78808594 C39.78452206 271.93440702 39.78452206 271.93440702 29.0625 262.25 C28 260 28 260 28.06640625 258.06640625 C28.13715037 255.34511571 27.99376285 253.55656832 27 251 C24.52453565 248.87072841 22.0360894 247.17800448 19.28686523 245.43994141 C3.87220347 235.6891351 -4.84708477 221.40613166 -9 204 C-9.60774289 200.64380793 -9.91819041 197.40678507 -10 194 C-10.03867188 193.21753906 -10.07734375 192.43507812 -10.1171875 191.62890625 C-10.47906322 179.06377719 -8.34499421 164.28607106 -0.7734375 153.96484375 C1.25100107 151.16398591 1.25100107 151.16398591 0.9765625 148.12109375 C-0.23691365 144.24282398 -1.83138617 140.70282531 -3.625 137.0625 C-4.34931381 135.56006715 -5.07326457 134.05745924 -5.796875 132.5546875 C-6.34698242 131.42111816 -6.34698242 131.42111816 -6.90820312 130.26464844 C-8.59989487 126.75567424 -10.23702208 123.22178282 -11.875 119.6875 C-13.87565808 115.31175582 -13.87565808 115.31175582 -16.09765625 111.04907227 C-19.66820894 102.9409422 -13.11565542 89.78316747 -10.70703125 81.953125 C-10.34738281 80.7465625 -9.98773438 79.54 -9.6171875 78.296875 C-9.28315918 77.20729492 -8.94913086 76.11771484 -8.60498047 74.99511719 C-7.8188847 71.1033404 -8.22586295 68.46100774 -10.07421875 64.97265625 C-11.21075341 62.55092629 -11.12065518 61.07691608 -10.8125 58.4375 C-10.73644531 57.67308594 -10.66039063 56.90867188 -10.58203125 56.12109375 C-9.90244442 53.64447867 -8.93887729 52.63576439 -7 51 C-9.09467629 49.74433683 -9.09467629 49.74433683 -12.125 50.1875 C-17.71386174 49.91707121 -21.73692886 48.15530585 -25.8046875 44.28125 C-30.91273683 38.51330913 -31.35838296 33.93737831 -31.2734375 26.30078125 C-30.82661576 20.90700456 -29.30665379 17.13539411 -25.31640625 13.44140625 C-19.97536678 9.3868107 -15.70716691 8.76466081 -9 9 C-7.32442621 9.28520405 -5.65182755 9.59955696 -4 10 C-3.896875 8.72125 -3.79375 7.4425 -3.6875 6.125 C-3.51171875 3.9453125 -3.51171875 3.9453125 -3 2 C-2.01 1.34 -1.02 0.68 0 0 Z M225 178 C224.608125 179.216875 224.21625 180.43375 223.8125 181.6875 C222.81008579 184.80025992 222.05851699 185.95146265 219.48046875 188.08984375 C215.84875221 192.35067655 215.94682469 196.42937917 215.5 201.875 C214.61092391 210.43792252 213.12346019 217.99422967 210.0859375 226.0390625 C209.10841044 228.70440605 208.46735116 231.2062786 208 234 C208.99 234.495 209.98 234.99 211 235.5 C214 238 214 238 214.3984375 240.046875 C214.375 242.25 214.375 242.25 214 246 C222.32883854 246.83288385 228.03413358 244.5622797 235 240 C242.24572686 234.05246587 249.30332194 226.55851305 251 217 C251.60682428 206.32222668 251.84538261 196.6302474 245.0625 187.8125 C240.63518381 183.09192141 235.01983936 180.24151987 229 178 C227.68 178 226.36 178 225 178 Z " fill="#E6D3C0" transform="translate(78,11)"/>
<path d="M0 0 C1.57362808 -0.00537781 1.57362808 -0.00537781 3.17904663 -0.01086426 C16.24150037 -0.03486556 28.99753009 0.51641272 41.9375 2.3125 C43.7779187 2.55383667 43.7779187 2.55383667 45.65551758 2.80004883 C61.29353559 4.93372608 76.62359 7.96163274 91.9375 11.75 C92.68118835 11.93096222 93.42487671 12.11192444 94.19110107 12.29837036 C122.38578636 19.21275708 122.38578636 19.21275708 126.9375 25.3125 C127.078125 27.6875 127.078125 27.6875 125.9375 30.3125 C123.70957782 32.28606518 121.23151211 33.77938536 118.6875 35.3125 C109.3070538 41.01005986 109.3070538 41.01005986 103.9375 50.3125 C103.6075 49.3225 103.2775 48.3325 102.9375 47.3125 C102.33421875 47.29832031 101.7309375 47.28414062 101.109375 47.26953125 C94.45430672 46.87237395 94.45430672 46.87237395 91.6875 43.875 C91.11 43.029375 90.5325 42.18375 89.9375 41.3125 C85.75991987 39.01671272 82.53364859 39.29431877 77.875 39.8125 C70.46514363 40.6349387 70.46514363 40.6349387 66.9375 38.3125 C66.9375 37.3225 66.9375 36.3325 66.9375 35.3125 C58.05054257 35.11644864 58.05054257 35.11644864 49.25 36.125 C45.35062805 36.68103476 43.33109696 35.67877247 39.9375 33.75 C36.29989965 31.70033045 34.39684667 30.96136889 30.3125 32 C29.5803125 32.22300781 28.848125 32.44601563 28.09375 32.67578125 C24.12929677 33.84644407 19.92625765 34.33909412 16.12890625 32.37890625 C15.55011719 32.00636719 14.97132813 31.63382813 14.375 31.25 C10.22002625 28.9081057 8.47371494 29.11425454 3.9375 30.3125 C3.256875 30.663125 2.57625 31.01375 1.875 31.375 C-0.92063171 32.72772502 -2.99354844 32.62565832 -6.0625 32.3125 C-6.866875 31.8175 -7.67125 31.3225 -8.5 30.8125 C-11.96030418 28.78695609 -14.09135477 28.90865472 -18.0625 29.3125 C-20.10327664 30.01288488 -22.07936786 30.81944366 -24.07421875 31.640625 C-28.21601665 33.04021093 -31.99224434 32.66925189 -36.0625 31.3125 C-39.43031469 30.9695339 -42.7006533 30.88320946 -46.0625 31.3125 C-47.43560707 32.60483607 -48.77284824 33.93687146 -50.0625 35.3125 C-54.31649367 35.66118801 -57.7261126 35.36675603 -61.9375 34.6875 C-62.96875 34.56375 -64 34.44 -65.0625 34.3125 C-65.7225 34.9725 -66.3825 35.6325 -67.0625 36.3125 C-67.2275 35.466875 -67.3925 34.62125 -67.5625 33.75 C-69.36569817 29.61767086 -71.6031633 27.92635406 -75.015625 25.10546875 C-78.66367478 21.90994423 -81.74499181 18.58797534 -82.4375 13.625 C-79.91217311 9.37785933 -74.4753626 8.03029821 -69.88525391 6.66479492 C-67.66062775 6.1289342 -65.43670612 5.67104056 -63.1875 5.25 C-61.89042114 5.00685059 -61.89042114 5.00685059 -60.56713867 4.75878906 C-57.73610858 4.2500981 -54.90129924 3.77577125 -52.0625 3.3125 C-51.14903809 3.15861816 -50.23557617 3.00473633 -49.29443359 2.84619141 C-32.90947491 0.21629608 -16.55391631 0.02288097 0 0 Z " fill="#EADCCC" transform="translate(167.0625,83.6875)"/>
<path d="M0 0 C9.68079768 6.99859502 15.88636474 16.4421544 18.1875 28.25 C19.4721595 44.43176875 14.39081845 59.6164664 4.25 72.25 C-5.13422837 82.14285863 -17.54207619 89.08732452 -31.375 89.625 C-35.70149644 89.4846812 -39.57275686 88.30362622 -43.6484375 86.90625 C-45.9140868 86.10490042 -45.9140868 86.10490042 -48.8125 86.25 C-49.4003125 87.3328125 -49.4003125 87.3328125 -50 88.4375 C-51.93060653 91.43326876 -52.8192232 91.89306407 -55.875 93.4375 C-58.64929312 95.01553829 -59.62834513 95.76538193 -60.77734375 98.7890625 C-61.2584892 101.28259 -61.6159214 103.71905047 -61.8125 106.25 C-60.8225 106.25 -59.8325 106.25 -58.8125 106.25 C-58.4825 107.57 -58.1525 108.89 -57.8125 110.25 C-56.4925 110.25 -55.1725 110.25 -53.8125 110.25 C-55.72361552 116.96690692 -57.94960006 123.46408707 -60.53515625 129.94921875 C-60.88130478 130.8285054 -61.22745331 131.70779205 -61.58409119 132.61372375 C-62.67724309 135.38984086 -63.77555778 138.16386866 -64.875 140.9375 C-65.97772666 143.7219512 -67.07917939 146.5068723 -68.17662048 149.29341125 C-68.85573252 151.01762651 -69.53782227 152.74067301 -70.22340393 154.46232605 C-72.01628875 159.01267661 -73.55615874 163.52240801 -74.8125 168.25 C-76.4625 167.92 -78.1125 167.59 -79.8125 167.25 C-79.79997192 166.6435817 -79.78744385 166.03716339 -79.77453613 165.41236877 C-79.64366851 159.06896154 -79.51409494 152.72552879 -79.38525391 146.38208008 C-79.33707958 144.01846659 -79.28858148 141.65485968 -79.23974609 139.29125977 C-79.16938371 135.88299228 -79.10020718 132.47470242 -79.03125 129.06640625 C-79.00937622 128.01916885 -78.98750244 126.97193146 -78.96496582 125.89295959 C-78.84723619 120.01047554 -78.79111458 114.13366383 -78.8125 108.25 C-79.92625 108.3428125 -79.92625 108.3428125 -81.0625 108.4375 C-84.28769908 108.21760006 -85.50973426 107.46747812 -87.8125 105.25 C-87.8125 104.59 -87.8125 103.93 -87.8125 103.25 C-89.1325 102.92 -90.4525 102.59 -91.8125 102.25 C-91.8125 101.92 -91.8125 101.59 -91.8125 101.25 C-94.54193537 101.19583259 -97.27028564 101.15624775 -100 101.125 C-100.76892578 101.10824219 -101.53785156 101.09148437 -102.33007812 101.07421875 C-106.71176193 101.03660773 -109.75470689 101.45297734 -113.8125 103.25 C-117.625 102.875 -117.625 102.875 -120.8125 102.25 C-117.8125 96.25 -117.8125 96.25 -115.8125 95.25 C-115.8125 94.26 -115.8125 93.27 -115.8125 92.25 C-116.4725 92.25 -117.1325 92.25 -117.8125 92.25 C-117.8125 91.26 -117.8125 90.27 -117.8125 89.25 C-117.1525 88.92 -116.4925 88.59 -115.8125 88.25 C-114.8225 86.765 -114.8225 86.765 -113.8125 85.25 C-113.1525 85.58 -112.4925 85.91 -111.8125 86.25 C-111.8125 85.59 -111.8125 84.93 -111.8125 84.25 C-110.8225 83.59 -109.8325 82.93 -108.8125 82.25 C-108.3175 80.765 -108.3175 80.765 -107.8125 79.25 C-109.09125 79.105625 -110.37 78.96125 -111.6875 78.8125 C-114.06942894 78.54357254 -115.65702691 78.32773654 -117.8125 77.25 C-120.5044085 77.03583711 -123.17866477 76.87275134 -125.875 76.75 C-127.53648755 76.6685626 -129.19794547 76.58651877 -130.859375 76.50390625 C-131.69791016 76.46281738 -132.53644531 76.42172852 -133.40039062 76.37939453 C-135.52357772 76.26549887 -137.64489552 76.11782127 -139.765625 75.96484375 C-162.94493406 74.29912417 -186.56200908 74.18194671 -209.47119141 78.3215332 C-210.23737793 78.45519287 -211.00356445 78.58885254 -211.79296875 78.7265625 C-212.81233521 78.913396 -212.81233521 78.913396 -213.85229492 79.10400391 C-216.04866057 79.26758924 -217.71649292 78.88848771 -219.8125 78.25 C-219.8125 77.59 -219.8125 76.93 -219.8125 76.25 C-212.79664706 74.1495002 -206.05064133 72.64682058 -198.75 72.0625 C-197.78666748 71.98354492 -196.82333496 71.90458984 -195.83081055 71.82324219 C-164.92598113 69.59976929 -134.03505398 71.53879701 -103.4375 76.0625 C-102.61101959 76.18111389 -101.78453918 76.29972778 -100.93301392 76.42193604 C-89.76311585 78.04622811 -79.00330602 80.15459699 -68.8125 85.25 C-68.8125 85.91 -68.8125 86.57 -68.8125 87.25 C-65.43257831 86.71228519 -62.12512111 86.10696068 -58.8125 85.25 C-59.15023437 84.115625 -59.48796875 82.98125 -59.8359375 81.8125 C-60.286547 80.29169294 -60.73706282 78.77085811 -61.1875 77.25 C-61.40921875 76.50621094 -61.6309375 75.76242187 -61.859375 74.99609375 C-66.33982928 59.84161603 -66.33982928 59.84161603 -65.8125 53.25 C-64.8225 52.26 -64.8225 52.26 -63.8125 51.25 C-60.87796739 51.61681658 -59.94812754 52.11437246 -57.8125 54.25 C-57.12646484 56.08178711 -57.12646484 56.08178711 -56.5234375 58.27734375 C-56.19472656 59.46553711 -56.19472656 59.46553711 -55.859375 60.67773438 C-55.63765625 61.50595703 -55.4159375 62.33417969 -55.1875 63.1875 C-54.95804688 64.01185547 -54.72859375 64.83621094 -54.4921875 65.68554688 C-52.8125 71.83940197 -52.8125 71.83940197 -52.8125 75.25 C-48.95583494 73.96444498 -48.78429186 72.73855482 -46.8125 69.25 C-45.18382584 66.88768884 -43.49765699 64.57278396 -41.8125 62.25 C-38.89736382 62.57390402 -36.46468387 62.89235078 -33.875 64.3125 C-32.07507132 67.59472289 -33.16290115 70.64767912 -33.8125 74.25 C-23.60757459 73.90983582 -15.27935901 69.97225706 -7.875 62.9375 C0.69242244 53.73257426 2.60642615 45.45893862 2.39453125 33.23828125 C1.9838863 25.327555 -0.19939088 19.8519287 -5.64453125 14.046875 C-10.61557185 9.92673324 -16.35266327 7.25 -22.8125 7.25 C-23.080625 8.343125 -23.34875 9.43625 -23.625 10.5625 C-25.20833333 15.47916667 -25.20833333 15.47916667 -27.8125 17.25 C-28.8025 17.25 -29.7925 17.25 -30.8125 17.25 C-31.00585938 16.15300781 -31.19921875 15.05601562 -31.3984375 13.92578125 C-31.66118175 12.47130418 -31.92421801 11.01687983 -32.1875 9.5625 C-32.31382812 8.84126953 -32.44015625 8.12003906 -32.5703125 7.37695312 C-33.29165555 3.42759993 -34.27832106 -0.02413687 -35.8125 -3.75 C-35.4375 -6.0625 -35.4375 -6.0625 -34.8125 -7.75 C-23.14913758 -11.38606023 -9.89149558 -6.09098956 0 0 Z " fill="#979494" transform="translate(325.8125,182.75)"/>
<path d="M0 0 C3.59342861 0.30865611 7.1092169 0.46871729 10.71484375 0.40625 C14.03678648 0.36413345 16.69007804 0.74205354 19.828125 1.9375 C20.95927734 2.35515625 20.95927734 2.35515625 22.11328125 2.78125 C22.65855469 2.9978125 23.20382813 3.214375 23.765625 3.4375 C23.453125 5.375 23.453125 5.375 22.765625 7.4375 C21.775625 7.7675 20.785625 8.0975 19.765625 8.4375 C19.765625 9.0975 19.765625 9.7575 19.765625 10.4375 C19.105625 10.4375 18.445625 10.4375 17.765625 10.4375 C17.105625 11.4275 16.445625 12.4175 15.765625 13.4375 C15.105625 13.4375 14.445625 13.4375 13.765625 13.4375 C13.765625 14.4275 13.765625 15.4175 13.765625 16.4375 C14.425625 16.4375 15.085625 16.4375 15.765625 16.4375 C16.260625 18.9125 16.260625 18.9125 16.765625 21.4375 C15.280625 21.9325 15.280625 21.9325 13.765625 22.4375 C13.270625 23.9225 13.270625 23.9225 12.765625 25.4375 C15.99188761 26.41515534 17.62297609 26.48172116 20.890625 25.46875 C25.18222239 24.16587315 29.25117067 24.21331336 33.703125 24.3125 C34.48236328 24.32152344 35.26160156 24.33054687 36.06445312 24.33984375 C37.96497947 24.36316309 39.86534508 24.39902414 41.765625 24.4375 C41.435625 25.0975 41.105625 25.7575 40.765625 26.4375 C41.755625 27.0975 42.745625 27.7575 43.765625 28.4375 C28.85571975 30.85595707 13.83656951 31.06164311 -1.234375 31.4375 C-2.38697713 38.67963548 -2.41828411 45.74426938 -2.421875 53.0625 C-2.43412109 54.35285156 -2.44636719 55.64320313 -2.45898438 56.97265625 C-2.47013137 64.35196934 -1.99512651 71.35583008 -0.68359375 78.62158203 C-0.0439347 82.6312709 -0.0317895 86.38579004 -0.234375 90.4375 C-2.33568885 92.53881385 -6.77583822 91.62264741 -9.671875 91.625 C-10.46142578 91.63724609 -11.25097656 91.64949219 -12.06445312 91.66210938 C-14.12244935 91.66737279 -16.17999509 91.55956285 -18.234375 91.4375 C-18.894375 90.7775 -19.554375 90.1175 -20.234375 89.4375 C-19.69866071 85.90178571 -19.69866071 85.90178571 -18.234375 84.4375 C-15.25744345 83.66653663 -12.24274442 83.073071 -9.234375 82.4375 C-9.3772998 81.50292969 -9.52022461 80.56835938 -9.66748047 79.60546875 C-11.21689737 68.83725598 -11.47593262 58.30155031 -11.359375 47.4375 C-11.34930756 45.77604717 -11.34018847 44.11458831 -11.33203125 42.453125 C-11.31035611 38.44776319 -11.27604243 34.44270165 -11.234375 30.4375 C-13.67254085 30.3565277 -16.10801884 30.29703028 -18.546875 30.25 C-19.58231445 30.21229492 -19.58231445 30.21229492 -20.63867188 30.17382812 C-24.5385084 30.04672382 -24.5385084 30.04672382 -27.93449402 31.70822144 C-30.24946951 34.78791685 -29.63766783 38.67650189 -29.59765625 42.3828125 C-29.59815475 43.26726044 -29.59865326 44.15170837 -29.59916687 45.06295776 C-29.59682537 46.93750245 -29.58709233 48.81205022 -29.57055664 50.68652344 C-29.54713527 53.53089163 -29.54997397 56.37431096 -29.55664062 59.21875 C-29.55105758 61.04427634 -29.54394378 62.86979877 -29.53515625 64.6953125 C-29.53606766 65.53627472 -29.53697906 66.37723694 -29.53791809 67.24368286 C-29.47993398 72.17395581 -28.91132837 76.63765975 -27.67350769 81.41452026 C-27.01018322 84.47029814 -27.10181199 87.32226918 -27.234375 90.4375 C-31.46654921 92.51731133 -34.74692693 92.61792337 -39.421875 92.3125 C-41.26845703 92.21582031 -41.26845703 92.21582031 -43.15234375 92.1171875 C-46.234375 91.4375 -46.234375 91.4375 -47.66015625 89.3828125 C-47.84964844 88.74085938 -48.03914063 88.09890625 -48.234375 87.4375 C-47.244375 85.9525 -47.244375 85.9525 -46.234375 84.4375 C-43.6328125 83.92578125 -43.6328125 83.92578125 -40.609375 83.75 C-39.60648438 83.68425781 -38.60359375 83.61851562 -37.5703125 83.55078125 C-36.41402344 83.49470703 -36.41402344 83.49470703 -35.234375 83.4375 C-35.54375 82.468125 -35.853125 81.49875 -36.171875 80.5 C-38.25035301 73.18939865 -38.39425485 65.58206502 -38.55078125 58.02734375 C-38.57156235 57.17443253 -38.59234344 56.3215213 -38.61375427 55.44276428 C-38.67844699 52.75358089 -38.737756 50.0643111 -38.796875 47.375 C-38.84013684 45.53710091 -38.88375339 43.69921014 -38.92773438 41.86132812 C-39.03404434 37.38680429 -39.13553062 32.91219473 -39.234375 28.4375 C-40.21494873 28.33260254 -40.21494873 28.33260254 -41.21533203 28.22558594 C-77.11963841 24.29865107 -77.11963841 24.29865107 -87.234375 14.5 C-89.0815016 10.69030139 -88.53738751 7.34653753 -87.234375 3.4375 C-86.06519531 3.23253906 -84.89601563 3.02757812 -83.69140625 2.81640625 C-82.14322378 2.54430145 -80.595047 2.27216433 -79.046875 2 C-78.27794922 1.86529297 -77.50902344 1.73058594 -76.71679688 1.59179688 C-73.65509384 1.05304226 -70.60108972 0.51459039 -67.55859375 -0.125 C-45.80578118 -4.21964707 -21.84809385 -1.89961361 0 0 Z " fill="#E3D0BE" transform="translate(194.234375,258.5625)"/>
<path d="M0 0 C5.95990788 3.56843224 9.24825185 8.0984924 11.6875 14.5625 C13.05124645 21.26758669 11.80661059 28.26735141 8.4375 34.25 C4.18959373 39.36364804 -1.11428067 41.94710637 -7.5625 43.25 C-11.06332467 43.57370639 -14.3420206 43.8602397 -17.5625 42.25 C-17.74425781 42.93707031 -17.92601562 43.62414062 -18.11328125 44.33203125 C-18.49033203 45.68361328 -18.49033203 45.68361328 -18.875 47.0625 C-19.11863281 47.95582031 -19.36226562 48.84914062 -19.61328125 49.76953125 C-20.60189883 52.35295579 -21.40297213 53.55970288 -23.5625 55.25 C-26.57740557 56.25496852 -28.60431692 56.35335303 -31.75 56.3125 C-32.65105469 56.30347656 -33.55210937 56.29445312 -34.48046875 56.28515625 C-35.16753906 56.27355469 -35.85460937 56.26195312 -36.5625 56.25 C-36.4078125 57.4565625 -36.4078125 57.4565625 -36.25 58.6875 C-36.73863322 64.25791866 -39.31433269 69.22072119 -43.48828125 72.98828125 C-46.72782815 74.9588531 -49.94434257 75.01814057 -53.5625 74.25 C-56.50738235 72.05700251 -58.12394024 70.46447319 -59.375 67 C-59.6422979 63.07963086 -59.63950931 59.17747505 -59.5625 55.25 C-60.59375 55.3325 -61.625 55.415 -62.6875 55.5 C-67.83245076 55.16806769 -70.2938396 53.09772823 -74.18359375 49.9296875 C-76.01557573 47.69809472 -76.12699303 46.04168192 -76.375 43.1875 C-76.46394531 42.30964844 -76.55289063 41.43179688 -76.64453125 40.52734375 C-76.5625 38.25 -76.5625 38.25 -74.5625 36.25 C-72.125 36.1875 -72.125 36.1875 -69.5625 37.25 C-67.75 40.8125 -67.75 40.8125 -66.5625 44.25 C-60.42088443 44.75135637 -57.45964909 43.73450993 -52.5625 40.25 C-50.62555417 37.66796279 -50.62555417 37.66796279 -49.5625 35.25 C-47.4375 35.25 -47.4375 35.25 -44.5625 36.25 C-42.89373315 38.15350387 -41.49260366 40.13610476 -40.08984375 42.2421875 C-37.59887373 45.51676189 -35.58002448 47.08387355 -31.5 47.75 C-28.38610794 47.5587012 -28.38610794 47.5587012 -26.75 44.9375 C-25.50434183 42.23248248 -25.50434183 42.23248248 -24.5625 39.25 C-25.94415055 37.42333807 -25.94415055 37.42333807 -27.875 35.625 C-32.25067663 30.85629852 -33.65695035 26.55536199 -33.515625 20.11328125 C-32.66417761 11.51693739 -30.05509625 6.72035769 -23.5625 1.25 C-17.13726489 -3.49243544 -7.10658127 -3.3732928 0 0 Z " fill="#F6F5F0" transform="translate(231.5625,129.75)"/>
<path d="M0 0 C2.69628591 0.98863817 3.79691111 1.62588888 5.1875 4.1875 C7.06164515 10.67492551 7.15776874 17.12025686 7.125 23.8125 C7.1252417 24.72451172 7.1254834 25.63652344 7.12573242 26.57617188 C7.10560808 31.13137677 6.99088298 35.65491898 6.66796875 40.19921875 C6.61044434 41.00963623 6.55291992 41.82005371 6.49365234 42.6550293 C6.37585012 44.17994893 6.24286901 45.70379796 6.09228516 47.22583008 C5.72280969 51.856192 6.35428803 54.2213806 9 58 C9.09320445 62.19420037 7.90808032 64.21357954 5.2421875 67.2265625 C1.07015835 72.67585809 -0.54861822 78.95566048 -2.3527832 85.46362305 C-2.93916651 87.56848204 -3.55830665 89.66168236 -4.18164062 91.75585938 C-4.56968596 93.10880935 -4.95582101 94.462309 -5.33984375 95.81640625 C-5.68394287 97.02756104 -6.02804199 98.23871582 -6.38256836 99.48657227 C-7.51329751 105.92086374 -5.97914688 110.66300332 -3.12890625 116.4140625 C-2.55462891 117.58710938 -1.98035156 118.76015625 -1.38867188 119.96875 C-0.78034272 121.18769711 -0.17161521 122.4064455 0.4375 123.625 C1.62683761 126.03231861 2.81123201 128.44203403 3.99609375 130.8515625 C4.52388428 131.91197754 5.0516748 132.97239258 5.59545898 134.06494141 C6.50024139 135.95565826 7.34885182 137.87481653 8.12524414 139.82177734 C8.81120482 141.94209099 8.81120482 141.94209099 10 143 C10.23728814 149.52542373 10.23728814 149.52542373 9 152 C6.25 152 6.25 152 3 151 C1.94824219 149.42919922 1.94824219 149.42919922 1.046875 147.4296875 C0.71010742 146.70620117 0.37333984 145.98271484 0.02636719 145.23730469 C-0.31233398 144.49899414 -0.65103516 143.76068359 -1 143 C-1.66013509 141.6868004 -2.32664903 140.37678485 -3 139.0703125 C-6.32381845 132.52725986 -9.55697985 126.04761915 -12.12109375 119.16015625 C-13.01844492 116.95466647 -14.12331683 114.99740712 -15.3125 112.9375 C-19.88899256 103.76517419 -13.48573769 90.98624426 -10.70703125 81.953125 C-10.34738281 80.7465625 -9.98773438 79.54 -9.6171875 78.296875 C-9.28315918 77.20729492 -8.94913086 76.11771484 -8.60498047 74.99511719 C-7.8188847 71.1033404 -8.22586295 68.46100774 -10.07421875 64.97265625 C-11.21075341 62.55092629 -11.12065518 61.07691608 -10.8125 58.4375 C-10.73644531 57.67308594 -10.66039063 56.90867188 -10.58203125 56.12109375 C-9.90244442 53.64447867 -8.93887729 52.63576439 -7 51 C-9.09467629 49.74433683 -9.09467629 49.74433683 -12.125 50.1875 C-17.71386174 49.91707121 -21.73692886 48.15530585 -25.8046875 44.28125 C-30.91273683 38.51330913 -31.35838296 33.93737831 -31.2734375 26.30078125 C-30.82661576 20.90700456 -29.30665379 17.13539411 -25.31640625 13.44140625 C-19.97536678 9.3868107 -15.70716691 8.76466081 -9 9 C-7.32442621 9.28520405 -5.65182755 9.59955696 -4 10 C-3.896875 8.72125 -3.79375 7.4425 -3.6875 6.125 C-3.51171875 3.9453125 -3.51171875 3.9453125 -3 2 C-2.01 1.34 -1.02 0.68 0 0 Z " fill="#847B74" transform="translate(78,11)"/>
<path d="M0 0 C1.23972061 0.17792084 1.23972061 0.17792084 2.50448608 0.35943604 C13.67438415 1.98372811 24.43419398 4.09209699 34.625 9.1875 C34.625 9.8475 34.625 10.5075 34.625 11.1875 C36.0171875 11.744375 36.0171875 11.744375 37.4375 12.3125 C41.35402783 14.6163399 42.35682473 15.82814751 43.625 20.1875 C43.27158759 23.61406381 42.53655826 26.86916561 41.625 30.1875 C42.615 30.1875 43.605 30.1875 44.625 30.1875 C44.955 31.5075 45.285 32.8275 45.625 34.1875 C46.945 34.1875 48.265 34.1875 49.625 34.1875 C47.71388448 40.90440692 45.48789994 47.40158707 42.90234375 53.88671875 C42.55619522 54.7660054 42.21004669 55.64529205 41.85340881 56.55122375 C40.76025691 59.32734086 39.66194222 62.10136866 38.5625 64.875 C37.45977334 67.6594512 36.35832061 70.4443723 35.26087952 73.23091125 C34.58176748 74.95512651 33.89967773 76.67817301 33.21409607 78.39982605 C31.42121125 82.95017661 29.88134126 87.45990801 28.625 92.1875 C26.975 91.8575 25.325 91.5275 23.625 91.1875 C23.63752808 90.5810817 23.65005615 89.97466339 23.66296387 89.34986877 C23.79383149 83.00646154 23.92340506 76.66302879 24.05224609 70.31958008 C24.10042042 67.95596659 24.14891852 65.59235968 24.19775391 63.22875977 C24.26811629 59.82049228 24.33729282 56.41220242 24.40625 53.00390625 C24.42812378 51.95666885 24.44999756 50.90943146 24.47253418 49.83045959 C24.59026381 43.94797554 24.64638542 38.07116383 24.625 32.1875 C23.51125 32.2803125 23.51125 32.2803125 22.375 32.375 C19.14980092 32.15510006 17.92776574 31.40497812 15.625 29.1875 C15.625 28.5275 15.625 27.8675 15.625 27.1875 C14.305 26.8575 12.985 26.5275 11.625 26.1875 C11.625 25.8575 11.625 25.5275 11.625 25.1875 C8.89556463 25.13333259 6.16721436 25.09374775 3.4375 25.0625 C2.66857422 25.04574219 1.89964844 25.02898437 1.10742188 25.01171875 C-3.27426193 24.97410773 -6.31720689 25.39047734 -10.375 27.1875 C-14.1875 26.8125 -14.1875 26.8125 -17.375 26.1875 C-14.375 20.1875 -14.375 20.1875 -12.375 19.1875 C-12.375 18.1975 -12.375 17.2075 -12.375 16.1875 C-13.035 16.1875 -13.695 16.1875 -14.375 16.1875 C-14.375 15.1975 -14.375 14.2075 -14.375 13.1875 C-13.385 12.6925 -13.385 12.6925 -12.375 12.1875 C-11.385 10.7025 -11.385 10.7025 -10.375 9.1875 C-9.385 9.6825 -9.385 9.6825 -8.375 10.1875 C-8.375 9.5275 -8.375 8.8675 -8.375 8.1875 C-7.385 7.5275 -6.395 6.8675 -5.375 6.1875 C-5.045 5.1975 -4.715 4.2075 -4.375 3.1875 C-5.65375 3.043125 -6.9325 2.89875 -8.25 2.75 C-10.63192894 2.48107254 -12.21952691 2.26523654 -14.375 1.1875 C-17.0669085 0.97333711 -19.74116477 0.81025134 -22.4375 0.6875 C-24.09898755 0.6060626 -25.76044547 0.52401877 -27.421875 0.44140625 C-28.26041016 0.40031738 -29.09894531 0.35922852 -29.96289062 0.31689453 C-32.08607772 0.20299887 -34.20739552 0.05532127 -36.328125 -0.09765625 C-59.50743406 -1.76337583 -83.12450908 -1.88055329 -106.03369141 2.2590332 C-106.79987793 2.39269287 -107.56606445 2.52635254 -108.35546875 2.6640625 C-109.03504639 2.78861816 -109.71462402 2.91317383 -110.41479492 3.04150391 C-112.61116057 3.20508924 -114.27899292 2.82598771 -116.375 2.1875 C-116.375 1.5275 -116.375 0.8675 -116.375 0.1875 C-109.35914706 -1.9129998 -102.61314133 -3.41567942 -95.3125 -4 C-93.86750122 -4.11843262 -93.86750122 -4.11843262 -92.39331055 -4.23925781 C-61.48848113 -6.46273071 -30.59755398 -4.52370299 0 0 Z " fill="#DBC6B4" transform="translate(222.375,258.8125)"/>
<path d="M0 0 C2.125 0 2.125 0 5 1 C6.66876685 2.90350387 8.06989634 4.88610476 9.47265625 6.9921875 C11.96362627 10.26676189 13.98247552 11.83387355 18.0625 12.5 C21.17680001 12.31490809 21.17680001 12.31490809 22.75 9.6875 C23.36875 8.3571875 23.36875 8.3571875 24 7 C24.66 6.01 25.32 5.02 26 4 C28.475 4.495 28.475 4.495 31 5 C31.31378312 10.22971874 30.90940049 13.58573719 28 18 C24.04262565 21.59761305 20.08971459 21.26114453 15.01171875 21.10546875 C14.34785156 21.07066406 13.68398437 21.03585938 13 21 C13.1546875 22.2065625 13.1546875 22.2065625 13.3125 23.4375 C12.82386678 29.00791866 10.24816731 33.97072119 6.07421875 37.73828125 C2.83467185 39.7088531 -0.38184257 39.76814057 -4 39 C-6.94488235 36.80700251 -8.56144024 35.21447319 -9.8125 31.75 C-10.0797979 27.82963086 -10.07700931 23.92747505 -10 20 C-11.546875 20.12375 -11.546875 20.12375 -13.125 20.25 C-18.26995076 19.91806769 -20.7313396 17.84772823 -24.62109375 14.6796875 C-26.45307573 12.44809472 -26.56449303 10.79168192 -26.8125 7.9375 C-26.90144531 7.05964844 -26.99039063 6.18179688 -27.08203125 5.27734375 C-27 3 -27 3 -25 1 C-22.5625 0.9375 -22.5625 0.9375 -20 2 C-18.1875 5.5625 -18.1875 5.5625 -17 9 C-10.85838443 9.50135637 -7.89714909 8.48450993 -3 5 C-1.06305417 2.41796279 -1.06305417 2.41796279 0 0 Z " fill="#100B0C" transform="translate(182,165)"/>
<path d="M0 0 C4.1431368 4.44602931 6.31912075 10.23934222 7.55859375 16.10546875 C8.11489474 19.67596298 8.11489474 19.67596298 10.62109375 21.10546875 C11.23984375 21.27046875 11.85859375 21.43546875 12.49609375 21.60546875 C12.49609375 23.25546875 12.49609375 24.90546875 12.49609375 26.60546875 C9.52609375 27.10046875 9.52609375 27.10046875 6.49609375 27.60546875 C6.33753906 28.19714844 6.17898437 28.78882813 6.015625 29.3984375 C4.45526982 34.68295532 2.93250814 38.05633724 -1.50390625 41.60546875 C-2.49390625 41.93546875 -3.48390625 42.26546875 -4.50390625 42.60546875 C-4.50390625 43.26546875 -4.50390625 43.92546875 -4.50390625 44.60546875 C-5.75126192 45.25639465 -7.00192457 45.90098544 -8.25390625 46.54296875 C-8.95 46.90261719 -9.64609375 47.26226562 -10.36328125 47.6328125 C-14.88137892 49.68574374 -18.79450438 49.71388914 -23.75390625 49.66796875 C-25.0171875 49.65894531 -26.28046875 49.64992187 -27.58203125 49.640625 C-28.54625 49.62902344 -29.51046875 49.61742187 -30.50390625 49.60546875 C-30.17390625 46.96546875 -29.84390625 44.32546875 -29.50390625 41.60546875 C-28.01890625 42.10046875 -28.01890625 42.10046875 -26.50390625 42.60546875 C-19.71885132 43.20064901 -14.53711747 41.77183492 -8.50390625 38.60546875 C-6.08318413 36.5241022 -6.08318413 36.5241022 -4.50390625 34.60546875 C-3.84390625 34.60546875 -3.18390625 34.60546875 -2.50390625 34.60546875 C-2.31828125 33.55359375 -2.31828125 33.55359375 -2.12890625 32.48046875 C-1.50390625 29.60546875 -1.50390625 29.60546875 -0.37890625 26.79296875 C1.47993183 20.02148716 -0.69631166 14.68859036 -3.50390625 8.60546875 C-3.64828125 7.84234375 -3.79265625 7.07921875 -3.94140625 6.29296875 C-4.3581028 4.46072569 -4.3581028 4.46072569 -6.12890625 3.54296875 C-6.91265625 3.23359375 -7.69640625 2.92421875 -8.50390625 2.60546875 C-9.47328125 2.06921875 -10.44265625 1.53296875 -11.44140625 0.98046875 C-17.39482242 -1.50867508 -24.92839229 -1.78469108 -30.9453125 0.5546875 C-32.96637161 1.77039099 -34.713381 3.0737635 -36.50390625 4.60546875 C-37.92703125 5.71921875 -37.92703125 5.71921875 -39.37890625 6.85546875 C-43.05375669 11.61115756 -43.86644054 16.87180396 -43.25390625 22.79296875 C-42.57990216 26.21915623 -41.71972793 29.337948 -40.50390625 32.60546875 C-40.17390625 33.59546875 -39.84390625 34.58546875 -39.50390625 35.60546875 C-38.84390625 35.93546875 -38.18390625 36.26546875 -37.50390625 36.60546875 C-36.84390625 36.93546875 -36.18390625 37.26546875 -35.50390625 37.60546875 C-35.17390625 38.59546875 -34.84390625 39.58546875 -34.50390625 40.60546875 C-35.16390625 41.59546875 -35.82390625 42.58546875 -36.50390625 43.60546875 C-39.49347264 43.2811768 -41.07121833 43.05211435 -43.19921875 40.85546875 C-49.02612556 31.68525475 -51.69185172 24.49897188 -49.50390625 13.60546875 C-47.44852383 4.92863283 -42.69292079 -0.26913399 -35.50390625 -5.39453125 C-24.28330789 -10.58925271 -9.56688465 -7.45620507 0 0 Z " fill="#E9B62A" transform="translate(242.50390625,129.39453125)"/>
<path d="M0 0 C3.51227679 3.48372169 5.91307413 6.59736884 6.09765625 11.69921875 C6.08605469 12.68535156 6.07445312 13.67148438 6.0625 14.6875 C6.05347656 15.68136719 6.04445312 16.67523438 6.03515625 17.69921875 C6.02355469 18.45847656 6.01195312 19.21773437 6 20 C5.34 20 4.68 20 4 20 C3.855625 20.61875 3.71125 21.2375 3.5625 21.875 C3 24 3 24 2 26 C1.34 26 0.68 26 0 26 C0 26.66 0 27.32 0 28 C-0.99 28 -1.98 28 -3 28 C-3 28.66 -3 29.32 -3 30 C-8.79295414 31.49495591 -14.54738044 31.80181793 -20.25 29.9375 C-24.46049597 26.9710142 -27.32151789 23.77475788 -28.56640625 18.68359375 C-29.06818203 14.82817731 -29.10131478 11.75294192 -28 8 C-27.34 8 -26.68 8 -26 8 C-25.7525 7.21625 -25.505 6.4325 -25.25 5.625 C-23.80505715 2.59062001 -22.94434181 2.32970275 -20 1 C-19.67 0.01 -19.34 -0.98 -19 -2 C-12.7108666 -4.36185796 -5.50127054 -3.75086628 0 0 Z " fill="#F4F3ED" transform="translate(169,130)"/>
<path d="M0 0 C0.66 0 1.32 0 2 0 C2 1.65 2 3.3 2 5 C4.31 5.33 6.62 5.66 9 6 C9.33 4.35 9.66 2.7 10 1 C10.99 1 11.98 1 13 1 C13.33 2.32 13.66 3.64 14 5 C15.32 5 16.64 5 18 5 C16.08888448 11.71690692 13.86289994 18.21408707 11.27734375 24.69921875 C10.75812096 26.01814873 10.75812096 26.01814873 10.22840881 27.36372375 C9.13525691 30.13984086 8.03694222 32.91386866 6.9375 35.6875 C5.83477334 38.4719512 4.73332061 41.2568723 3.63587952 44.04341125 C2.95676748 45.76762651 2.27467773 47.49067301 1.58909607 49.21232605 C-0.20378875 53.76267661 -1.74365874 58.27240801 -3 63 C-4.65 62.67 -6.3 62.34 -8 62 C-7.88176544 55.04391467 -7.75695215 48.08796908 -7.62768555 41.13208008 C-7.58452326 38.76850015 -7.54283601 36.40489278 -7.50268555 34.04125977 C-7.44452716 30.63289136 -7.38096674 27.22465869 -7.31640625 23.81640625 C-7.29969376 22.76916885 -7.28298126 21.72193146 -7.26576233 20.64295959 C-7.14723544 14.69821228 -6.75310653 8.89888782 -6 3 C-4.35 3.33 -2.7 3.66 -1 4 C-0.67 2.68 -0.34 1.36 0 0 Z " fill="#282325" transform="translate(254,288)"/>
<path d="M0 0 C1.74195198 1.74195198 1.12825863 4.00040086 1.13894653 6.3213501 C1.1369223 7.06608582 1.13489807 7.81082153 1.1328125 8.578125 C1.13424759 9.72350739 1.13424759 9.72350739 1.13571167 10.89202881 C1.13639373 12.51281822 1.13453763 14.13361033 1.13037109 15.75439453 C1.12505241 18.22564931 1.13029992 20.69671989 1.13671875 23.16796875 C1.1360574 24.7421879 1.13477506 26.31640693 1.1328125 27.890625 C1.13483673 28.62726379 1.13686096 29.36390259 1.13894653 30.12286377 C1.12198619 33.87375507 0.89967835 37.35304169 0 41 C-5.95088051 41.49590671 -10.06526492 40.43633374 -15 37 C-19.04909586 33.14371823 -21.7591849 29.88583341 -22.23828125 24.14453125 C-22.39076887 17.29863967 -22.45976119 11.49993873 -18 6 C-12.3826436 0.79970951 -7.61994408 -0.28754506 0 0 Z " fill="#0B0608" transform="translate(69,20)"/>
<path d="M0 0 C1.67739862 0.98189187 3.34467377 1.98133771 5 3 C8.8928088 3.50775767 10.83306107 3.07588133 14.4375 1.4375 C18.59995422 -0.24208679 20.69864876 -0.13620599 25 1 C25.639375 1.515625 26.27875 2.03125 26.9375 2.5625 C30.09847905 4.76560661 33.31558674 4.43192056 37 4 C38.4615544 3.57338412 39.91989515 3.13562079 41.375 2.6875 C44.23269008 1.97065571 45.49201676 1.76498996 48.1953125 3.015625 C48.95585937 3.48484375 49.71640625 3.9540625 50.5 4.4375 C56.65396537 8.03296638 62.3366512 7.01699951 69.14453125 6.296875 C72.46199139 6.04142721 74.82723486 6.12733375 78 7 C78.33 7.99 78.66 8.98 79 10 C83.45974808 10.72977696 87.15297541 11.08110915 91.625 10.375 C95.92026988 9.79736026 98.32728366 10.55152244 102 13 C103.875 14.5625 103.875 14.5625 105 16 C105 16.66 105 17.32 105 18 C108.3 18 111.6 18 115 18 C114.67 19.32 114.34 20.64 114 22 C104.27702532 22.94944057 104.27702532 22.94944057 101.203125 20.6640625 C100.70296875 20.11492187 100.2028125 19.56578125 99.6875 19 C97.26341006 16.48222543 96.31268347 16.02474474 92.7421875 15.7421875 C90.28980461 15.83070238 87.83789733 15.9335623 85.38671875 16.05078125 C80.57606517 15.97864919 78.05811686 14.4799603 74 12 C69.22083352 10.46928921 64.24047041 11.0192604 59.28710938 11.21484375 C54.47656629 11.30792374 52.1207323 10.64653506 48 8 C45.39754111 7.85125768 45.39754111 7.85125768 42.75 8.3125 C29.22924729 9.93426144 29.22924729 9.93426144 23 6 C19.45978619 5.68390948 16.94136209 5.56748228 13.6875 7.0625 C9.47668599 8.53138861 5.32594144 7.87222234 1 7 C-0.33954963 6.3459136 -1.67409813 5.68132697 -3 5 C-5.48938051 5.20744838 -7.55232857 5.81205356 -9.8515625 6.77734375 C-14.74837075 8.82870937 -17.66761944 9.12260643 -23 8 C-29.25044061 6.61806057 -29.25044061 6.61806057 -34.9375 8.9375 C-35.948125 9.618125 -36.95875 10.29875 -38 11 C-41.3703493 11.43814541 -44.61957593 11.27192686 -48 11 C-49.07121094 10.91685547 -49.07121094 10.91685547 -50.1640625 10.83203125 C-52.0625 10.625 -52.0625 10.625 -55 10 C-55.33 9.34 -55.66 8.68 -56 8 C-55.34 7.01 -54.68 6.02 -54 5 C-52.515 5.2475 -52.515 5.2475 -51 5.5 C-45.93214662 6.22103605 -40.91147474 6.63715825 -36 5 C-35.67 4.01 -35.34 3.02 -35 2 C-33.39592672 1.97291433 -31.7917215 1.95356517 -30.1875 1.9375 C-29.29417969 1.92589844 -28.40085937 1.91429688 -27.48046875 1.90234375 C-25 2 -25 2 -22 3 C-17.88351444 3.32286161 -14.78143754 3.0566306 -11 1.5 C-7.18550639 -0.04940746 -4.15362299 -0.47022147 0 0 Z " fill="#AEA8A4" transform="translate(156,112)"/>
<path d="M0 0 C5.95990788 3.56843224 9.24825185 8.0984924 11.6875 14.5625 C13.05124645 21.26758669 11.80661059 28.26735141 8.4375 34.25 C3.691626 39.96310376 -2.50620477 42.60679637 -9.7734375 43.53125 C-14.13955516 43.72602105 -16.30994321 43.05392826 -19.5625 40.25 C-20.74199219 40.06244141 -20.74199219 40.06244141 -21.9453125 39.87109375 C-26.61900164 38.76196454 -29.00996291 35.13458086 -31.5625 31.25 C-34.39855962 24.35729814 -33.39006844 18.30508537 -31.9375 11.1875 C-29.51151868 6.00472172 -25.48292927 2.6674597 -20.9375 -0.6875 C-14.19577018 -2.80989642 -6.48590491 -3.07867532 0 0 Z M-24.3125 7.1875 C-27.64542171 11.72397677 -28.07548878 16.01502394 -28.05078125 21.57421875 C-27.16169533 26.44640962 -24.00134975 29.83324136 -20.5625 33.25 C-15.65780449 36.51979701 -10.36344604 36.7529722 -4.5625 36.25 C-0.04552031 34.10237572 3.36588978 31.36886567 5.640625 26.87109375 C7.12693273 21.98230706 7.3136563 17.27978615 6.4375 12.25 C4.55876934 9.03702721 2.39023107 6.52133159 -0.5625 4.25 C-1.2225 4.25 -1.8825 4.25 -2.5625 4.25 C-2.5625 3.59 -2.5625 2.93 -2.5625 2.25 C-11.14300393 -0.20723438 -18.24397461 0.39694043 -24.3125 7.1875 Z " fill="#F0E6D6" transform="translate(231.5625,129.75)"/>
<path d="M0 0 C3.125 0.375 3.125 0.375 6 1 C6.01213028 2.00358803 6.01213028 2.00358803 6.02450562 3.02745056 C6.11086885 10.01987022 6.21038497 17.0120167 6.31738281 24.00415039 C6.35555755 26.61022334 6.39043006 29.21634692 6.421875 31.82250977 C6.46777562 35.57847123 6.52572918 39.33408764 6.5859375 43.08984375 C6.59748871 44.24645004 6.60903992 45.40305634 6.62094116 46.5947113 C6.72395172 52.29984127 7.0812673 57.5657194 8.56484985 63.08839417 C9.24942002 66.09569713 9.13067636 68.92910543 9 72 C4.76782579 74.07981133 1.48744807 74.18042337 -3.1875 73.875 C-5.03408203 73.77832031 -5.03408203 73.77832031 -6.91796875 73.6796875 C-10 73 -10 73 -11.42578125 70.9453125 C-11.61527344 70.30335938 -11.80476562 69.66140625 -12 69 C-11.34 68.01 -10.68 67.02 -10 66 C-7.3984375 65.48828125 -7.3984375 65.48828125 -4.375 65.3125 C-3.37210938 65.24675781 -2.36921875 65.18101562 -1.3359375 65.11328125 C-0.17964844 65.05720703 -0.17964844 65.05720703 1 65 C0.5359375 63.5459375 0.5359375 63.5459375 0.0625 62.0625 C-2.17005463 54.17537588 -2.15868065 46.05077596 -2.16796875 37.91015625 C-2.17129715 36.88442001 -2.17462555 35.85868378 -2.17805481 34.80186462 C-2.18308617 32.65136154 -2.18546432 30.50085076 -2.18530273 28.3503418 C-2.18750977 25.0478871 -2.20576092 21.74575602 -2.22460938 18.44335938 C-2.22753992 16.34895947 -2.22952698 14.25455799 -2.23046875 12.16015625 C-2.23765427 11.17064468 -2.24483978 10.18113312 -2.25224304 9.16163635 C-2.24916641 8.2498613 -2.24608978 7.33808624 -2.24291992 6.39868164 C-2.24434494 5.59531876 -2.24576996 4.79195587 -2.24723816 3.96424866 C-2 2 -2 2 0 0 Z " fill="#867D76" transform="translate(158,277)"/>
<path d="M0 0 C1.99954746 -0.04254356 4.00041636 -0.04080783 6 0 C7 1 7 1 7.10679626 2.77911377 C7.09854324 3.55486755 7.09029022 4.33062134 7.08178711 5.12988281 C7.0752562 6.00880188 7.06872528 6.88772095 7.06199646 7.79327393 C7.05056107 8.75352478 7.03912567 9.71377563 7.02734375 10.703125 C7.01467645 12.73697734 7.0023171 14.77083161 6.99023438 16.8046875 C6.96561071 20.01015262 6.93786374 23.21551658 6.90405273 26.42089844 C6.66073576 42.0269212 6.66073576 42.0269212 8.54638672 57.47851562 C9.24747134 61.37561036 9.19741378 65.05172437 9 69 C6.89868615 71.10131385 2.45853678 70.18514741 -0.4375 70.1875 C-1.22705078 70.19974609 -2.01660156 70.21199219 -2.83007812 70.22460938 C-4.88807435 70.22987279 -6.94562009 70.12206285 -9 70 C-9.66 69.34 -10.32 68.68 -11 68 C-10.46428571 64.46428571 -10.46428571 64.46428571 -9 63 C-7.48834346 62.60851239 -5.96530368 62.26027543 -4.4375 61.9375 C-3.61121094 61.76089844 -2.78492188 61.58429688 -1.93359375 61.40234375 C-0.97646484 61.20318359 -0.97646484 61.20318359 0 61 C-0.144375 60.13503906 -0.28875 59.27007812 -0.4375 58.37890625 C-2.99554021 41.02331398 -5.62723627 16.88170882 0 0 Z " fill="#857C75" transform="translate(185,280)"/>
<path d="M0 0 C1.23972061 0.17792084 1.23972061 0.17792084 2.50448608 0.35943604 C13.67438415 1.98372811 24.43419398 4.09209699 34.625 9.1875 C34.295 10.1775 33.965 11.1675 33.625 12.1875 C-4.08787129 6.33106436 -4.08787129 6.33106436 -14.375 1.1875 C-17.0669085 0.97333711 -19.74116477 0.81025134 -22.4375 0.6875 C-24.09898755 0.6060626 -25.76044547 0.52401877 -27.421875 0.44140625 C-28.26041016 0.40031738 -29.09894531 0.35922852 -29.96289062 0.31689453 C-32.08607772 0.20299887 -34.20739552 0.05532127 -36.328125 -0.09765625 C-59.50743406 -1.76337583 -83.12450908 -1.88055329 -106.03369141 2.2590332 C-106.79987793 2.39269287 -107.56606445 2.52635254 -108.35546875 2.6640625 C-109.03504639 2.78861816 -109.71462402 2.91317383 -110.41479492 3.04150391 C-112.61116057 3.20508924 -114.27899292 2.82598771 -116.375 2.1875 C-116.375 1.5275 -116.375 0.8675 -116.375 0.1875 C-109.35914706 -1.9129998 -102.61314133 -3.41567942 -95.3125 -4 C-93.86750122 -4.11843262 -93.86750122 -4.11843262 -92.39331055 -4.23925781 C-61.48848113 -6.46273071 -30.59755398 -4.52370299 0 0 Z " fill="#D1BDAD" transform="translate(222.375,258.8125)"/>
<path d="M0 0 C6.27464335 -0.40724849 12.21265172 0.2033615 18.375 1.3125 C19.40947266 1.48906128 19.40947266 1.48906128 20.46484375 1.66918945 C24.34562888 2.41107634 27.06630584 3.3145415 30 6 C29.34 6.33 28.68 6.66 28 7 C27.97291433 8.60407328 27.95356517 10.2082785 27.9375 11.8125 C27.92589844 12.70582031 27.91429687 13.59914063 27.90234375 14.51953125 C27.88990033 17.13413791 27.88990033 17.13413791 29 20 C28.34 20 27.68 20 27 20 C27 19.34 27 18.68 27 18 C25.68 17.67 24.36 17.34 23 17 C23 16.67 23 16.34 23 16 C20.27056463 15.94583259 17.54221436 15.90624775 14.8125 15.875 C14.04357422 15.85824219 13.27464844 15.84148437 12.48242188 15.82421875 C8.10073807 15.78660773 5.05779311 16.20297734 1 18 C-2.8125 17.625 -2.8125 17.625 -6 17 C-3 11 -3 11 -1 10 C-1 9.01 -1 8.02 -1 7 C-1.66 7 -2.32 7 -3 7 C-3 6.01 -3 5.02 -3 4 C-2.34 3.67 -1.68 3.34 -1 3 C-0.67 2.01 -0.34 1.02 0 0 Z " fill="#C5AD98" transform="translate(211,268)"/>
<path d="M0 0 C2.60660388 0.67026957 3.85597097 1.88384756 5.9375 3.5625 C8.29598047 5.20628942 10.17748429 5.60798393 13 6 C11.99075625 12.50736266 10.1825258 17.82458974 6 23 C2.31929796 25.45380136 -0.72574782 25.81652381 -5 25 C-7.94488235 22.80700251 -9.56144024 21.21447319 -10.8125 17.75 C-11.0797979 13.82963086 -11.07700931 9.92747505 -11 6 C-13.31 6 -15.62 6 -18 6 C-18 5.67 -18 5.34 -18 5 C-17.28714844 4.97421875 -16.57429687 4.9484375 -15.83984375 4.921875 C-9.10399364 4.55247519 -9.10399364 4.55247519 -3.0625 1.8125 C-2.051875 1.214375 -1.04125 0.61625 0 0 Z " fill="#6E645B" transform="translate(183,179)"/>
<path d="M0 0 C0.66 0 1.32 0 2 0 C2 1.65 2 3.3 2 5 C3.98 5.66 5.96 6.32 8 7 C6.77854877 13.97512937 5.00642615 20.7097675 3.01953125 27.50390625 C1.61544187 32.31869552 0.30452051 37.15746173 -1 42 C-1.66 41.67 -2.32 41.34 -3 41 C-3.33 43.64 -3.66 46.28 -4 49 C-4.99 49 -5.98 49 -7 49 C-7.0248966 43.89542996 -7.04295235 38.79089603 -7.05493164 33.6862793 C-7.05993075 31.95320011 -7.06673224 30.22012507 -7.07543945 28.48706055 C-7.08770027 25.98224862 -7.09327266 23.47749292 -7.09765625 20.97265625 C-7.10539818 19.82833885 -7.10539818 19.82833885 -7.11329651 18.66090393 C-7.11383644 13.3703667 -6.65827807 8.25028011 -6 3 C-4.35 3.33 -2.7 3.66 -1 4 C-0.67 2.68 -0.34 1.36 0 0 Z " fill="#151011" transform="translate(254,288)"/>
<path d="M0 0 C2.681866 1.84378287 3.10059916 3.26168939 4 6.375 C4.99677659 12.03062371 5.19171316 17.52695256 5.1875 23.25 C5.18814453 24.16096436 5.18878906 25.07192871 5.18945312 26.01049805 C5.12396381 34.56355152 4.24093412 42.9211363 3 51.375 C2.34 51.375 1.68 51.375 1 51.375 C1 50.715 1 50.055 1 49.375 C-0.65 49.375 -2.3 49.375 -4 49.375 C-3.99476318 48.28558105 -3.98952637 47.19616211 -3.98413086 46.07373047 C-3.96596977 42.01465686 -3.95452749 37.95558682 -3.94506836 33.89648438 C-3.94005349 32.14289749 -3.93323998 30.38931476 -3.92456055 28.63574219 C-3.91237 26.1087135 -3.90674312 23.58174032 -3.90234375 21.0546875 C-3.89718246 20.27632538 -3.89202118 19.49796326 -3.88670349 18.6960144 C-3.88627157 14.46252014 -4.25570549 10.55576698 -5 6.375 C-4.6875 3.0625 -4.6875 3.0625 -4 0.375 C-2 -0.625 -2 -0.625 0 0 Z " fill="#0F0A0B" transform="translate(80,11.625)"/>
<path d="M0 0 C2.93453261 0.36681658 3.86437246 0.86437246 6 3 C6.65429688 4.73657227 6.65429688 4.73657227 7.21875 6.81640625 C7.42886719 7.58146484 7.63898438 8.34652344 7.85546875 9.13476562 C8.06816406 9.93591797 8.28085937 10.73707031 8.5 11.5625 C8.71269531 12.33658203 8.92539062 13.11066406 9.14453125 13.90820312 C14.53669726 33.77320735 14.53669726 33.77320735 13 39 C10.24530464 41.68582797 6.94322303 44 3 44 C1.9935725 42.33720673 0.99414593 40.67016516 0 39 C-0.99 38.34 -1.98 37.68 -3 37 C2.75 34 2.75 34 5 34 C4.66226562 32.865625 4.32453125 31.73125 3.9765625 30.5625 C3.525953 29.04169294 3.07543718 27.52085811 2.625 26 C2.40328125 25.25621094 2.1815625 24.51242187 1.953125 23.74609375 C-2.52732928 8.59161603 -2.52732928 8.59161603 -2 2 C-1.34 1.34 -0.68 0.68 0 0 Z " fill="#847A72" transform="translate(262,234)"/>
<path d="M0 0 C2.8125 1.9375 2.8125 1.9375 5 4 C5.99 4.33 6.98 4.66 8 5 C8 6.32 8 7.64 8 9 C7.34 9 6.68 9 6 9 C5.87625 10.134375 5.7525 11.26875 5.625 12.4375 C5.315625 14.2009375 5.315625 14.2009375 5 16 C4.34 16.33 3.68 16.66 3 17 C2.67 17.99 2.34 18.98 2 20 C0.35 19.67 -1.3 19.34 -3 19 C-3.33 20.32 -3.66 21.64 -4 23 C-4 21.68 -4 20.36 -4 19 C-4.7425 19.12375 -5.485 19.2475 -6.25 19.375 C-9 19 -9 19 -11.3125 16.625 C-13.47913632 11.9707442 -14.00733002 8.05447894 -13 3 C-9.58333276 -0.63020894 -4.74553255 -0.90482771 0 0 Z " fill="#827970" transform="translate(251,272)"/>
<path d="M0 0 C0.33 0 0.66 0 1 0 C0.979375 1.0725 0.95875 2.145 0.9375 3.25 C0.85130943 6.72745881 0.85130943 6.72745881 1.4934082 8.93774414 C4.14388047 19.72740159 3.87769756 39.00474906 -1.57421875 48.83984375 C-2.04472656 49.55269531 -2.51523438 50.26554687 -3 51 C-3.66 50.67 -4.32 50.34 -5 50 C-5 49.34 -5 48.68 -5 48 C-5.16749756 47.30173096 -5.33499512 46.60346191 -5.50756836 45.8840332 C-6.13972685 42.18165923 -6.01541191 38.59075074 -5.87890625 34.85546875 C-5.85529526 34.08568192 -5.83168427 33.31589508 -5.80735779 32.52278137 C-5.73112309 30.07748095 -5.6469275 27.63252989 -5.5625 25.1875 C-5.50923899 23.52410532 -5.4564989 21.86069387 -5.40429688 20.19726562 C-5.2755628 16.13129151 -5.13969106 12.06561182 -5 8 C-3.68 8 -2.36 8 -1 8 C-0.67 5.36 -0.34 2.72 0 0 Z " fill="#999493" transform="translate(75,13)"/>
<path d="M0 0 C4.77247406 -0.46788961 7.95087582 -0.68514232 12.0625 2 C14.66445438 6.02883259 14.39999378 8.28007343 14 13 C13.34 13 12.68 13 12 13 C11.67 13.99 11.34 14.98 11 16 C7.46172722 17.42891785 5.02685401 18.21003832 1.25 17.4375 C-1.61524386 15.60692753 -2.65303927 14.11927748 -4 11 C-4.41291057 6.87089433 -4.33909307 5.5086396 -2 2 C-1.34 2 -0.68 2 0 2 C0 1.34 0 0.68 0 0 Z " fill="#140F10" transform="translate(215,140)"/>
<path d="M0 0 C3.4375 1.4375 3.4375 1.4375 6 4 C6.82686849 7.16572506 6.74068309 9.822413 6 13 C4 16.0625 4 16.0625 1 18 C-1.9673885 18.59463233 -3.90320193 18.39958685 -7 18 C-9.67431489 16.18836733 -9.95920359 15.12238923 -11 12 C-11.56338028 4.90140845 -11.56338028 4.90140845 -9.4375 1.5 C-6.02095736 -0.60248778 -3.95351948 -0.54531303 0 0 Z " fill="#080305" transform="translate(161,136)"/>
<path d="M0 0 C2.875 -0.125 2.875 -0.125 6 0 C6.66 0.66 7.32 1.32 8 2 C7.67 2.66 7.34 3.32 7 4 C7.66 4 8.32 4 9 4 C9 3.34 9 2.68 9 2 C9.66 2 10.32 2 11 2 C11 2.99 11 3.98 11 5 C11.66 5.33 12.32 5.66 13 6 C13.33 5.34 13.66 4.68 14 4 C15.0209375 4.2165625 15.0209375 4.2165625 16.0625 4.4375 C17.031875 4.623125 18.00125 4.80875 19 5 C20.11375 5.226875 21.2275 5.45375 22.375 5.6875 C25.97057994 6.22542212 25.97057994 6.22542212 29.16796875 5.02734375 C33.57607033 3.84555913 37.41027807 3.77413644 41.9375 3.875 C42.71673828 3.88402344 43.49597656 3.89304687 44.29882812 3.90234375 C46.19935447 3.92566309 48.09972008 3.96152414 50 4 C49.67 4.66 49.34 5.32 49 6 C49.99 6.66 50.98 7.32 52 8 C37.09009475 10.41845707 22.07094451 10.62414311 7 11 C6.67 13.31 6.34 15.62 6 18 C5.67 18 5.34 18 5 18 C5 12.72 5 7.44 5 2 C3.35 1.67 1.7 1.34 0 1 C0 0.67 0 0.34 0 0 Z " fill="#DDCAB8" transform="translate(186,279)"/>
<path d="M0 0 C6.85900111 -0.22312413 13.35740901 0.60401241 20.125 1.6875 C21.22851807 1.86321533 22.33203613 2.03893066 23.46899414 2.2199707 C32.43428631 3.73383091 40.82043555 5.91021777 49 10 C48.67 10.99 48.34 11.98 48 13 C34.78630862 10.94804451 21.63419261 7.95515817 8.625 4.875 C7.37976563 4.58367187 6.13453125 4.29234375 4.8515625 3.9921875 C2 3 2 3 0 0 Z " fill="#B0A195" transform="translate(208,258)"/>
<path d="M0 0 C0.83917969 0.23396484 0.83917969 0.23396484 1.6953125 0.47265625 C8.29917725 2.07584528 13.97704115 1.85587596 20.703125 0.99609375 C25.30846808 1.00155032 28.37738964 2.6478247 31.875 5.5625 C33 7 33 7 33 9 C36.3 9 39.6 9 43 9 C42.67 10.32 42.34 11.64 42 13 C32.27702532 13.94944057 32.27702532 13.94944057 29.203125 11.6640625 C28.70296875 11.11492187 28.2028125 10.56578125 27.6875 10 C25.26911163 7.48837256 24.34042183 7.02352005 20.77734375 6.77734375 C18.3396155 6.88423879 15.90210546 6.99623026 13.46484375 7.11328125 C8.45774713 6.94957685 4.84530424 5.1487603 1 2 C0.67 1.34 0.34 0.68 0 0 Z " fill="#9E9998" transform="translate(228,121)"/>
<path d="M0 0 C3.64576392 -0.05878077 7.29140352 -0.0938558 10.9375 -0.125 C12.46987305 -0.15013672 12.46987305 -0.15013672 14.03320312 -0.17578125 C20.33229621 -0.21603105 25.9587933 0.12877495 32 2 C32.495 3.485 32.495 3.485 33 5 C32.34 5 31.68 5 31 5 C31 5.66 31 6.32 31 7 C30.22914063 6.98839844 29.45828125 6.97679687 28.6640625 6.96484375 C27.66117188 6.95582031 26.65828125 6.94679688 25.625 6.9375 C24.12839844 6.92009766 24.12839844 6.92009766 22.6015625 6.90234375 C20.01567547 6.81993398 20.01567547 6.81993398 18 8 C18 7.34 18 6.68 18 6 C11.73 5.67 5.46 5.34 -1 5 C-0.67 3.35 -0.34 1.7 0 0 Z " fill="#E9D8C6" transform="translate(177,259)"/>
<path d="M0 0 C2.10546875 0.62109375 2.10546875 0.62109375 4.4453125 3.125 C6.60886697 7.68119117 6.03237711 10.24550744 4.85546875 14.99609375 C4.69433594 15.73214844 4.53320312 16.46820313 4.3671875 17.2265625 C3.96906082 19.02984216 3.54030866 20.82631336 3.10546875 22.62109375 C0.79546875 22.29109375 -1.51453125 21.96109375 -3.89453125 21.62109375 C-4.03738839 13.04966518 -4.03738839 13.04966518 -2.89453125 9.62109375 C-2.23453125 9.62109375 -1.57453125 9.62109375 -0.89453125 9.62109375 C-0.89453125 8.30109375 -0.89453125 6.98109375 -0.89453125 5.62109375 C-1.51328125 5.51796875 -2.13203125 5.41484375 -2.76953125 5.30859375 C-4.89453125 4.62109375 -4.89453125 4.62109375 -6.89453125 1.62109375 C-5.0502456 -0.2231919 -2.46835908 0.21766018 0 0 Z " fill="#EBB522" transform="translate(259.89453125,271.37890625)"/>
<path d="M0 0 C1.80859375 1.63671875 1.80859375 1.63671875 3 3 C1.02 2.67 -0.96 2.34 -3 2 C-3 2.99 -3 3.98 -3 5 C-3.99128906 4.67257813 -4.98257813 4.34515625 -6.00390625 4.0078125 C-10.01822678 2.86086378 -13.75860244 2.80103721 -17.9375 2.875 C-18.62134766 2.88402344 -19.30519531 2.89304688 -20.00976562 2.90234375 C-21.67333287 2.92561042 -23.33671631 2.96146833 -25 3 C-25 2.34 -25 1.68 -25 1 C-27.97 0.505 -27.97 0.505 -31 0 C-24.17436341 -8.26261271 -8.14638663 -4.17799246 0 0 Z " fill="#E8B838" transform="translate(237,126)"/>
<path d="M0 0 C3.53814003 1.17938001 3.67980861 1.79172537 5.375 4.9375 C7.09821156 7.86538833 7.73384763 8.85805207 10.8125 10.5 C11.534375 10.665 12.25625 10.83 13 11 C11.125 14.875 11.125 14.875 10 16 C6.98458946 16.50256842 4.86418017 16.47867908 2.15234375 14.9765625 C-2.83360543 11.14447417 -4.59280594 7.0308317 -6 1 C-5.34 1 -4.68 1 -4 1 C-4 1.66 -4 2.32 -4 3 C-3.34 3 -2.68 3 -2 3 C-1.67 2.34 -1.34 1.68 -1 1 C-0.67 0.67 -0.34 0.34 0 0 Z " fill="#E8D5BE" transform="translate(193,162)"/>
<path d="M0 0 C1.81783709 5.45351128 -1.68780259 10.94509416 -3.6875 16.125 C-4.35942383 17.95224609 -4.35942383 17.95224609 -5.04492188 19.81640625 C-5.48771484 20.97269531 -5.93050781 22.12898438 -6.38671875 23.3203125 C-6.79108154 24.38523926 -7.19544434 25.45016602 -7.61206055 26.54736328 C-9 29 -9 29 -11.16333008 29.85498047 C-11.76943115 29.90283691 -12.37553223 29.95069336 -13 30 C-11.31205041 20.48610229 -8.6488796 11.28118882 -6 2 C-4.35 2 -2.7 2 -1 2 C-0.67 1.34 -0.34 0.68 0 0 Z " fill="#201B1B" transform="translate(268,300)"/>
<path d="M0 0 C1.65 0.33 3.3 0.66 5 1 C3.77854877 7.97512937 2.00642615 14.7097675 0.01953125 21.50390625 C-1.38455813 26.31869552 -2.69547949 31.15746173 -4 36 C-4.33 36 -4.66 36 -5 36 C-4.58181139 27.72426751 -4.04150065 19.48050251 -3.0625 11.25 C-2.90910156 9.95578125 -2.75570312 8.6615625 -2.59765625 7.328125 C-2.0796168 4.44335632 -1.49832248 2.48257616 0 0 Z " fill="#080305" transform="translate(257,294)"/>
<path d="M0 0 C0.66 0.66 1.32 1.32 2 2 C1.01 2.66 0.02 3.32 -1 4 C-0.34 4.66 0.32 5.32 1 6 C0.01 6.495 0.01 6.495 -1 7 C-1 7.66 -1 8.32 -1 9 C-0.34 9.33 0.32 9.66 1 10 C0.01 10.33 -0.98 10.66 -2 11 C-2 11.99 -2 12.98 -2 14 C-7.41538462 15.23076923 -7.41538462 15.23076923 -10.375 14.0625 C-10.91125 13.711875 -11.4475 13.36125 -12 13 C-11.34 12.67 -10.68 12.34 -10 12 C-9.835 11.34 -9.67 10.68 -9.5 10 C-9.335 9.34 -9.17 8.68 -9 8 C-8.34 7.67 -7.68 7.34 -7 7 C-7 6.01 -7 5.02 -7 4 C-7.66 4 -8.32 4 -9 4 C-9 3.01 -9 2.02 -9 1 C-5.98675805 -0.50662097 -3.31713623 -0.17770373 0 0 Z " fill="#D3BFAE" transform="translate(217,271)"/>
<path d="M0 0 C0.99 0.33 1.98 0.66 3 1 C2.55761615 8.53216715 1.86094772 15.6802723 0 23 C-1.65 22.67 -3.3 22.34 -5 22 C-5.02696365 20.20841511 -5.04637917 18.41671527 -5.0625 16.625 C-5.07410156 15.62726563 -5.08570313 14.62953125 -5.09765625 13.6015625 C-5 11 -5 11 -4 9 C-3.01 9 -2.02 9 -1 9 C-1.020625 7.700625 -1.04125 6.40125 -1.0625 5.0625 C-1.08399454 3.70834367 -1.07148199 2.35243917 -1 1 C-0.67 0.67 -0.34 0.34 0 0 Z " fill="#322D2E" transform="translate(251,328)"/>
<path d="M0 0 C0.99 0 1.98 0 3 0 C3.33 1.32 3.66 2.64 4 4 C5.32 4 6.64 4 8 4 C7.34 6.31 6.68 8.62 6 11 C5.34 11 4.68 11 4 11 C3.67 11.99 3.34 12.98 3 14 C0.13275314 13.42655063 -0.8614515 13.1385485 -3 11 C-2.625 8.375 -2.625 8.375 -2 6 C-2.99 5.67 -3.98 5.34 -5 5 C-3.68 5 -2.36 5 -1 5 C-0.67 3.35 -0.34 1.7 0 0 Z " fill="#211C1C" transform="translate(264,289)"/>
<path d="M0 0 C3.4375 1.4375 3.4375 1.4375 6 4 C6.82686849 7.16572506 6.74068309 9.822413 6 13 C4 16.0625 4 16.0625 1 18 C-1.80717625 18.39435378 -4.14231773 18.24217646 -7 18 C-7.33 17.34 -7.66 16.68 -8 16 C-5.03 16 -2.06 16 1 16 C2.46132217 13.07735566 3.34099246 11.07536854 4 8 C2.68 7.67 1.36 7.34 0 7 C-0.33 5.02 -0.66 3.04 -1 1 C-3.37233611 1.03780298 -3.37233611 1.03780298 -6 2 C-8.33414647 4.95849927 -8.33414647 4.95849927 -10 8 C-10.75 6.25 -10.75 6.25 -11 4 C-8.02029285 -0.46956072 -5.13236778 -0.7079128 0 0 Z " fill="#151011" transform="translate(161,136)"/>
<path d="M0 0 C7.5273523 3.13347921 7.5273523 3.13347921 9.5 6.75 C9.665 7.4925 9.83 8.235 10 9 C6.48812804 11.40814077 4.27343092 12.36629408 0 12 C0.33 10.68 0.66 9.36 1 8 C0.34 8 -0.32 8 -1 8 C-1.04241723 5.66705225 -1.04092937 3.33297433 -1 1 C-0.67 0.67 -0.34 0.34 0 0 Z " fill="#EAD9C9" transform="translate(177,154)"/>
<path d="M0 0 C2.10546875 0.62109375 2.10546875 0.62109375 4.4453125 3.125 C6.60886697 7.68119117 6.03237711 10.24550744 4.85546875 14.99609375 C4.69433594 15.73214844 4.53320312 16.46820313 4.3671875 17.2265625 C3.96906082 19.02984216 3.54030866 20.82631336 3.10546875 22.62109375 C0.79546875 22.29109375 -1.51453125 21.96109375 -3.89453125 21.62109375 C-4.08984375 15.56640625 -4.08984375 15.56640625 -3.89453125 13.62109375 C-3.23453125 12.96109375 -2.57453125 12.30109375 -1.89453125 11.62109375 C-1.89453125 14.59109375 -1.89453125 17.56109375 -1.89453125 20.62109375 C-0.57453125 20.62109375 0.74546875 20.62109375 2.10546875 20.62109375 C2.18621078 17.99548266 2.24583105 15.37233699 2.29296875 12.74609375 C2.31810547 11.99972656 2.34324219 11.25335938 2.36914062 10.484375 C2.43534515 8.05887547 2.43534515 8.05887547 2.10546875 4.62109375 C-0.70963118 2.34374365 -0.70963118 2.34374365 -3.89453125 2.62109375 C-3.89453125 3.61109375 -3.89453125 4.60109375 -3.89453125 5.62109375 C-4.88453125 4.30109375 -5.87453125 2.98109375 -6.89453125 1.62109375 C-5.0502456 -0.2231919 -2.46835908 0.21766018 0 0 Z " fill="#DDBA63" transform="translate(259.89453125,271.37890625)"/>
<path d="M0 0 C1.80859375 1.63671875 1.80859375 1.63671875 3 3 C-0.10236799 2.52994424 -2.39566964 1.80977421 -5.25 0.4375 C-13.04378962 -2.99109844 -22.7965393 -0.71003678 -31 0 C-24.16726529 -8.27120517 -8.15887416 -4.18439687 0 0 Z " fill="#E3BA51" transform="translate(237,126)"/>
<path d="M0 0 C0.66 0.33 1.32 0.66 2 1 C2.12190678 9.39802254 1.84327749 17.64251778 1 26 C0.34 26 -0.32 26 -1 26 C-1.02886751 21.85418113 -1.04675327 17.70838784 -1.0625 13.5625 C-1.07087891 12.37849609 -1.07925781 11.19449219 -1.08789062 9.97460938 C-1.09111328 8.84990234 -1.09433594 7.72519531 -1.09765625 6.56640625 C-1.10289307 5.52427979 -1.10812988 4.48215332 -1.11352539 3.40844727 C-1 1 -1 1 0 0 Z " fill="#070204" transform="translate(249,311)"/>
<path d="M0 0 C1.65 0.33 3.3 0.66 5 1 C5.17835515 5.54805635 4.99785435 8.8794254 3 13 C2.5875 12.38125 2.175 11.7625 1.75 11.125 C-0.05573879 8.93231719 -1.4090534 8.07211583 -4 7 C-2.68 4.69 -1.36 2.38 0 0 Z " fill="#181313" transform="translate(208,169)"/>
<path d="M0 0 C0.33 0 0.66 0 1 0 C1.20468663 7.46692704 0.60828428 14.66423128 -0.375 22.0625 C-0.50132812 23.10599609 -0.62765625 24.14949219 -0.7578125 25.22460938 C-0.88671875 26.21396484 -1.015625 27.20332031 -1.1484375 28.22265625 C-1.26364746 29.11734619 -1.37885742 30.01203613 -1.49755859 30.93383789 C-1.74626709 31.95658813 -1.74626709 31.95658813 -2 33 C-2.99 33.495 -2.99 33.495 -4 34 C-3.69052199 29.99976025 -3.37687011 25.99985802 -3.0625 22 C-2.97548828 20.87464844 -2.88847656 19.74929688 -2.79882812 18.58984375 C-1.4453125 1.4453125 -1.4453125 1.4453125 0 0 Z " fill="#272224" transform="translate(254,295)"/>
<path d="M0 0 C6.49850211 0.51553879 12.66226532 1.46667709 19 3 C19 3.33 19 3.66 19 4 C16.69 4.66 14.38 5.32 12 6 C11.67 5.67 11.34 5.34 11 5 C8.98035801 4.92755947 6.95832876 4.91622812 4.9375 4.9375 C3.83277344 4.94652344 2.72804687 4.95554687 1.58984375 4.96484375 C0.73519531 4.97644531 -0.11945313 4.98804688 -1 5 C-0.67 3.35 -0.34 1.7 0 0 Z " fill="#D7C2B0" transform="translate(240,268)"/>
<path d="M0 0 C1 1 1 1 1.11352539 4.32641602 C1.11336629 5.80225556 1.10767314 7.27810069 1.09765625 8.75390625 C1.0962413 9.52935287 1.09482635 10.3047995 1.09336853 11.10374451 C1.08775345 13.59003494 1.07519846 16.0762366 1.0625 18.5625 C1.05748694 20.24413933 1.0529237 21.92578006 1.04882812 23.60742188 C1.03777913 27.73831566 1.02050445 31.86914276 1 36 C0.67 36 0.34 36 0 36 C-0.33 25.11 -0.66 14.22 -1 3 C-4.3 2.67 -7.6 2.34 -11 2 C-6.77484052 -0.11257974 -4.61982692 -0.26149964 0 0 Z " fill="#342F2F" transform="translate(69,20)"/>
<path d="M0 0 C5.15171623 -0.09038099 9.91913204 0.15318867 15 1 C14.34 1.66 13.68 2.32 13 3 C16.3 3.99 19.6 4.98 23 6 C23 6.33 23 6.66 23 7 C18.1958839 6.34629486 13.4442988 5.57533789 8.6875 4.625 C7.47449219 4.39039063 6.26148438 4.15578125 5.01171875 3.9140625 C2 3 2 3 0 0 Z " fill="#C2AE9D" transform="translate(208,258)"/>
<path d="M0 0 C0.99 0 1.98 0 3 0 C3.36923077 7.38461538 3.36923077 7.38461538 1.5 10.5 C1.005 10.995 0.51 11.49 0 12 C-1.32 10.68 -2.64 9.36 -4 8 C-2.87548273 5.0280615 -1.77706209 2.66559313 0 0 Z " fill="#685E55" transform="translate(191,186)"/>
<path d="M0 0 C3.16115776 1.36983503 3.9927092 1.9890638 6 5 C2.54970958 7.30019361 1.05445642 7.43132515 -3 7 C-3.66 6.01 -4.32 5.02 -5 4 C-3.35 2.68 -1.7 1.36 0 0 Z " fill="#D7C8BB" transform="translate(183,179)"/>
<path d="M0 0 C0.66 0 1.32 0 2 0 C1.67 1.32 1.34 2.64 1 4 C-0.32 4.33 -1.64 4.66 -3 5 C-3.33 6.98 -3.66 8.96 -4 11 C-4.99 11 -5.98 11 -7 11 C-7.33 10.01 -7.66 9.02 -8 8 C-10.00016466 6.79117904 -10.00016466 6.79117904 -12 6 C-10.3767313 5.3291288 -8.75132422 4.66342971 -7.125 4 C-6.22007812 3.62875 -5.31515625 3.2575 -4.3828125 2.875 C-2 2 -2 2 0 2 C0 1.34 0 0.68 0 0 Z " fill="#E7D2BC" transform="translate(238,172)"/>
<path d="M0 0 C2.875 -0.125 2.875 -0.125 6 0 C6.66 0.66 7.32 1.32 8 2 C7.67 2.66 7.34 3.32 7 4 C7.66 4 8.32 4 9 4 C9 3.34 9 2.68 9 2 C9.66 2 10.32 2 11 2 C11 3.65 11 5.3 11 7 C10.34 7 9.68 7 9 7 C9 7.99 9 8.98 9 10 C8.01 10.495 8.01 10.495 7 11 C6.59270772 13.32156597 6.25561323 15.6568787 6 18 C5.67 18 5.34 18 5 18 C5 12.72 5 7.44 5 2 C3.35 1.67 1.7 1.34 0 1 C0 0.67 0 0.34 0 0 Z " fill="#C8B9AB" transform="translate(186,279)"/>
<path d="M0 0 C6.09830157 0.0811304 9.79014885 1.05028963 14.875 4.375 C15.205 5.035 15.535 5.695 15.875 6.375 C13.565 6.375 11.255 6.375 8.875 6.375 C8.875 5.715 8.875 5.055 8.875 4.375 C8.215 4.045 7.555 3.715 6.875 3.375 C6.545 3.045 6.215 2.715 5.875 2.375 C3.52186445 2.30228259 1.16666332 2.29129132 -1.1875 2.3125 C-2.47785156 2.32152344 -3.76820313 2.33054688 -5.09765625 2.33984375 C-6.09667969 2.35144531 -7.09570312 2.36304688 -8.125 2.375 C-5.4008438 -0.3491562 -3.8031266 0.0441198 0 0 Z " fill="#EEDDC4" transform="translate(220.125,127.625)"/>
<path d="M0 0 C1.2065625 0.0309375 1.2065625 0.0309375 2.4375 0.0625 C2.1075 2.3725 1.7775 4.6825 1.4375 7.0625 C-0.2125 6.7325 -1.8625 6.4025 -3.5625 6.0625 C-3.605221 4.39638095 -3.60313832 2.72867115 -3.5625 1.0625 C-2.5625 0.0625 -2.5625 0.0625 0 0 Z " fill="#E4C377" transform="translate(249.5625,343.9375)"/>
<path d="M0 0 C0.99 0.33 1.98 0.66 3 1 C3 1.66 3 2.32 3 3 C3.99 2.67 4.98 2.34 6 2 C7.0625 3.8125 7.0625 3.8125 8 6 C7.67 6.99 7.34 7.98 7 9 C6.34 9 5.68 9 5 9 C5 8.01 5 7.02 5 6 C2.03 5.505 2.03 5.505 -1 5 C-0.67 3.35 -0.34 1.7 0 0 Z " fill="#E8D9CB" transform="translate(191,166)"/>
<path d="M0 0 C1.32 0.33 2.64 0.66 4 1 C3.01 1.66 2.02 2.32 1 3 C0.17632667 4.8207141 0.17632667 4.8207141 -0.375 6.875 C-1.71961663 10.82975481 -3.44055343 12.69116979 -7 15 C-7.66 14.67 -8.32 14.34 -9 14 C-7.71937515 12.2925002 -6.38232443 10.62626404 -5 9 C-4.34 9 -3.68 9 -3 9 C-2.01 6.03 -1.02 3.06 0 0 Z " fill="#E1C38D" transform="translate(249,157)"/>
<path d="M0 0 C0.8971875 0.5259375 0.8971875 0.5259375 1.8125 1.0625 C-3.12951908 3.03930763 -6.93899341 3.49270546 -12.1875 3.0625 C-13.92578125 1.54296875 -13.92578125 1.54296875 -15.1875 0.0625 C-14.50042969 0.07410156 -13.81335938 0.08570312 -13.10546875 0.09765625 C-11.75388672 0.11119141 -11.75388672 0.11119141 -10.375 0.125 C-9.03501953 0.14240234 -9.03501953 0.14240234 -7.66796875 0.16015625 C-0.30288462 -0.12980769 -0.30288462 -0.12980769 0 0 Z " fill="#E1D4C6" transform="translate(197.1875,113.9375)"/>
<path d="M0 0 C1.18851563 0.00902344 2.37703125 0.01804687 3.6015625 0.02734375 C4.51679687 0.03894531 5.43203125 0.05054688 6.375 0.0625 C3.3280371 1.75683918 0.54678534 2.55717112 -2.875 3.1875 C-4.21304688 3.43886719 -4.21304688 3.43886719 -5.578125 3.6953125 C-6.59132813 3.87707031 -6.59132813 3.87707031 -7.625 4.0625 C-7.955 3.0725 -8.285 2.0825 -8.625 1.0625 C-5.74084117 -0.37957941 -3.20778472 -0.03144887 0 0 Z " fill="#CCBAAA" transform="translate(114.625,257.9375)"/>
<path d="M0 0 C0 3 0 3 -1.375 4.4375 C-1.91125 4.953125 -2.4475 5.46875 -3 6 C-4.17574711 8.09989652 -4.17574711 8.09989652 -5 10 C-5.99 10 -6.98 10 -8 10 C-8.33 8.02 -8.66 6.04 -9 4 C-8.67 4.66 -8.34 5.32 -8 6 C-7.38125 5.505 -6.7625 5.01 -6.125 4.5 C-4 3 -4 3 -2 3 C-2 2.34 -2 1.68 -2 1 C-1.34 0.67 -0.68 0.34 0 0 Z " fill="#CEBFB1" transform="translate(281,248)"/>
<path d="M0 0 C2.64 0 5.28 0 8 0 C7.67 1.32 7.34 2.64 7 4 C4.03 4 1.06 4 -2 4 C-2 3.34 -2 2.68 -2 2 C-1.34 2 -0.68 2 0 2 C0 1.34 0 0.68 0 0 Z " fill="#969395" transform="translate(263,130)"/>
<path d="M0 0 C1.32 0 2.64 0 4 0 C4 2.31 4 4.62 4 7 C2.35 6.67 0.7 6.34 -1 6 C-0.67 4.02 -0.34 2.04 0 0 Z " fill="#67605C" transform="translate(247,337)"/>
<path d="M0 0 C1.33332095 2.6666419 0.67102033 4.16680303 0 7 C-0.66 7 -1.32 7 -2 7 C-2 8.98 -2 10.96 -2 13 C-2.99 13.33 -3.98 13.66 -5 14 C-4.74279326 12.41439607 -4.46861201 10.83154076 -4.1875 9.25 C-3.96126953 7.92742187 -3.96126953 7.92742187 -3.73046875 6.578125 C-2.94585752 3.8089089 -1.85404641 2.1740599 0 0 Z " fill="#080305" transform="translate(260,316)"/>
<path d="M0 0 C0.66 0.66 1.32 1.32 2 2 C1.01 2.66 0.02 3.32 -1 4 C-0.34 4.66 0.32 5.32 1 6 C-3 6 -3 6 -4.5625 4.625 C-5.036875 4.08875 -5.51125 3.5525 -6 3 C-6.99 2.34 -7.98 1.68 -9 1 C-5.98675805 -0.50662097 -3.31713623 -0.17770373 0 0 Z " fill="#D2BEAE" transform="translate(217,271)"/>
<path d="M0 0 C5.24503174 6.15593361 6.53864231 15.09991283 6 23 C5.67 23 5.34 23 5 23 C4.80664062 22.13117188 4.61328125 21.26234375 4.4140625 20.3671875 C4.15367187 19.21476562 3.89328125 18.06234375 3.625 16.875 C3.36976563 15.73804688 3.11453125 14.60109375 2.8515625 13.4296875 C2.05764901 10.01219892 2.05764901 10.01219892 0.8984375 6.8203125 C0 4 0 4 0 0 Z " fill="#C5B8AC" transform="translate(289,176)"/>
<path d="M0 0 C5.95703125 -0.29296875 5.95703125 -0.29296875 8 0 C8.99 0.99 9.98 1.98 11 3 C7.04 3 3.08 3 -1 3 C-0.67 2.01 -0.34 1.02 0 0 Z " fill="#EDB51B" transform="translate(220,124)"/>
<path d="M0 0 C3.34373475 0.55728913 6.03312999 1.35173889 9 3 C8.34 3 7.68 3 7 3 C7 3.66 7 4.32 7 5 C4.36 4.67 1.72 4.34 -1 4 C-0.67 2.68 -0.34 1.36 0 0 Z " fill="#D9C3B0" transform="translate(200,283)"/>
<path d="M0 0 C0.66 0 1.32 0 2 0 C1.62951193 2.5934165 0.94398898 4.08065587 -0.5625 6.25 C-4.13143823 8.81231463 -6.67081014 8.28861266 -11 8 C-11.33 7.34 -11.66 6.68 -12 6 C-9.03 6 -6.06 6 -3 6 C-2.34 4.68 -1.68 3.36 -1 2 C-0.67 1.34 -0.34 0.68 0 0 Z " fill="#342F2E" transform="translate(165,146)"/>
<path d="M0 0 C0.66 0.33 1.32 0.66 2 1 C2 1.66 2 2.32 2 3 C2.33 3.99 2.66 4.98 3 6 C5.97 6 8.94 6 12 6 C12 6.33 12 6.66 12 7 C8.04 7 4.08 7 0 7 C-0.66 5.68 -1.32 4.36 -2 3 C-1.34 2.01 -0.68 1.02 0 0 Z " fill="#948D87" transform="translate(148,343)"/>
<path d="M0 0 C2.33317216 0.77772405 4.61435923 1.42415568 7 2 C5.58622218 2.36552803 4.16879424 2.71695495 2.75 3.0625 C1.96109375 3.25972656 1.1721875 3.45695312 0.359375 3.66015625 C-2.10394822 4.01497267 -3.65604132 3.76877544 -6 3 C-5.01 3 -4.02 3 -3 3 C-3 2.34 -3 1.68 -3 1 C-4.98 1 -6.96 1 -9 1 C-9 0.67 -9 0.34 -9 0 C-2.25 -1.125 -2.25 -1.125 0 0 Z " fill="#B8B0A9" transform="translate(195,117)"/>
<path d="M0 0 C0.66 0 1.32 0 2 0 C2.268125 0.804375 2.53625 1.60875 2.8125 2.4375 C3.204375 3.283125 3.59625 4.12875 4 5 C4.99 5.33 5.98 5.66 7 6 C6.34 6 5.68 6 5 6 C5.350625 6.763125 5.70125 7.52625 6.0625 8.3125 C7 11 7 11 6 14 C5.54625 12.88625 5.0925 11.7725 4.625 10.625 C3.27534014 7.03800992 3.27534014 7.03800992 1 5 C0.375 2.375 0.375 2.375 0 0 Z " fill="#D9CBBC" transform="translate(284,170)"/>
<path d="M0 0 C0.66 0 1.32 0 2 0 C2.2475 0.804375 2.495 1.60875 2.75 2.4375 C3.72238859 5.171081 3.72238859 5.171081 6.125 5.8125 C7.053125 5.9053125 7.053125 5.9053125 8 6 C8 6.99 8 7.98 8 9 C9.65 8.67 11.3 8.34 13 8 C12.67 8.99 12.34 9.98 12 11 C7.68819268 10.51594564 5.9410446 9.37995134 3.1875 6.0625 C2.58292969 5.35222656 1.97835937 4.64195312 1.35546875 3.91015625 C0 2 0 2 0 0 Z " fill="#E5D3B8" transform="translate(200,159)"/>
<path d="M0 0 C1 1 1 1 1.09765625 2.84765625 C1.04882812 5.92382812 1.04882812 5.92382812 1 9 C0.67 9 0.34 9 0 9 C-0.33 7.02 -0.66 5.04 -1 3 C-4.3 2.67 -7.6 2.34 -11 2 C-6.77484052 -0.11257974 -4.61982692 -0.26149964 0 0 Z " fill="#504C4B" transform="translate(69,20)"/>
<path d="M0 0 C0.99 0.33 1.98 0.66 3 1 C2.67 1.33 2.34 1.66 2 2 C2.99 2.66 3.98 3.32 5 4 C1.32612505 4.85298376 -2.0447393 5.10789471 -5.8125 5.0625 C-7.27623047 5.04896484 -7.27623047 5.04896484 -8.76953125 5.03515625 C-9.87361328 5.01775391 -9.87361328 5.01775391 -11 5 C-11 4.67 -11 4.34 -11 4 C-10.37351563 3.96261719 -9.74703125 3.92523438 -9.1015625 3.88671875 C-8.28429687 3.82097656 -7.46703125 3.75523437 -6.625 3.6875 C-5.81289062 3.62949219 -5.00078125 3.57148438 -4.1640625 3.51171875 C-1.62078662 3.17009472 -1.62078662 3.17009472 0 0 Z " fill="#E5D5C5" transform="translate(233,283)"/>
<path d="M0 0 C0.66 0 1.32 0 2 0 C5.12940055 3.97193147 5.29162929 7.04230204 5 12 C5.66 12.33 6.32 12.66 7 13 C5.68 12.67 4.36 12.34 3 12 C2.01 8.04 1.02 4.08 0 0 Z " fill="#E0C59F" transform="translate(247,137)"/>
<path d="M0 0 C2.475 0.495 2.475 0.495 5 1 C6 4 6 4 6 8 C5.01 7.67 4.02 7.34 3 7 C2.67 5.35 2.34 3.7 2 2 C1.34 2 0.68 2 0 2 C0 1.34 0 0.68 0 0 Z " fill="#CCB49D" transform="translate(208,273)"/>
<path d="M0 0 C0.99 0.33 1.98 0.66 3 1 C3.75 3 3.75 3 4 5 C3 6 3 6 -0.0625 6.0625 C-1.5165625 6.0315625 -1.5165625 6.0315625 -3 6 C-2 4 -1 2 0 0 Z " fill="#CCB49A" transform="translate(208,279)"/>
<path d="M0 0 C5.94 0.99 5.94 0.99 12 2 C12 2.33 12 2.66 12 3 C6.40693931 5.05459372 3.59306069 5.05459372 -2 3 C-1.34 2.01 -0.68 1.02 0 0 Z " fill="#D1BA9E" transform="translate(247,269)"/>
<path d="M0 0 C2.875 0.25 2.875 0.25 6 1 C6.69937532 2.31647119 7.36729133 3.65022151 8 5 C10.55519921 5.81171228 10.55519921 5.81171228 13 6 C13 6.33 13 6.66 13 7 C9.83773737 7.46277014 7.75107761 7.49921925 5.04296875 5.69921875 C3.27789416 4.19297384 1.58608787 2.69401693 0 1 C0 0.67 0 0.34 0 0 Z " fill="#B7AB9F" transform="translate(190,171)"/>
<path d="M0 0 C2.97 0 5.94 0 9 0 C8.34 1.32 7.68 2.64 7 4 C4.61435923 3.42415568 2.33317216 2.77772405 0 2 C0 1.34 0 0.68 0 0 Z " fill="#CFC1B4" transform="translate(261,134)"/>
<path d="M0 0 C0.66 0.66 1.32 1.32 2 2 C1.96712417 4.72869407 1.43602229 7.2966618 1 10 C0.34 10 -0.32 10 -1 10 C-0.67 6.7 -0.34 3.4 0 0 Z " fill="#201C1C" transform="translate(253,332)"/>
<path d="M0 0 C4.29 0 8.58 0 13 0 C13 0.33 13 0.66 13 1 C12.32453125 1.03738281 11.6490625 1.07476562 10.953125 1.11328125 C10.06109375 1.17902344 9.1690625 1.24476563 8.25 1.3125 C7.36828125 1.37050781 6.4865625 1.42851562 5.578125 1.48828125 C2.67696226 2.0641181 1.20774393 3.07596148 -1 5 C-0.67 3.35 -0.34 1.7 0 0 Z " fill="#EFE7DB" transform="translate(165,287)"/>
<path d="M0 0 C0.66 0 1.32 0 2 0 C1.67 1.32 1.34 2.64 1 4 C-1.97 4.66 -4.94 5.32 -8 6 C-7.67 5.34 -7.34 4.68 -7 4 C-4.6859378 3.26924352 -2.35171131 2.59861742 0 2 C0 1.34 0 0.68 0 0 Z " fill="#E0C080" transform="translate(238,172)"/>
<path d="M0 0 C0 0.33 0 0.66 0 1 C-0.9075 1.04125 -1.815 1.0825 -2.75 1.125 C-6.27994174 1.72464389 -6.27994174 1.72464389 -8.375 5.0625 C-8.91125 6.031875 -9.4475 7.00125 -10 8 C-10.75 6.25 -10.75 6.25 -11 4 C-8.00042166 -0.49936751 -5.13756651 -0.39519742 0 0 Z " fill="#3D3837" transform="translate(161,136)"/>
<path d="M0 0 C0.33 0.66 0.66 1.32 1 2 C1.99 2 2.98 2 4 2 C4 1.34 4 0.68 4 0 C4.66 0 5.32 0 6 0 C5.34 1.32 4.68 2.64 4 4 C2.02 4 0.04 4 -2 4 C-2.33 3.34 -2.66 2.68 -3 2 C-2.01 2 -1.02 2 0 2 C0 1.34 0 0.68 0 0 Z " fill="#DACAB3" transform="translate(200,173)"/>
<path d="M0 0 C0.66 0.99 1.32 1.98 2 3 C1.71125 3.53625 1.4225 4.0725 1.125 4.625 C-0.16711808 7.35280484 -1.08558592 10.12612718 -2 13 C-3.18771723 9.57056481 -2.80226223 7.62215325 -1.5625 4.25 C-1.27503906 3.45078125 -0.98757812 2.6515625 -0.69140625 1.828125 C-0.46324219 1.22484375 -0.23507813 0.6215625 0 0 Z " fill="#A09891" transform="translate(67,94)"/>
<path d="M0 0 C0.99 0 1.98 0 3 0 C3 0.66 3 1.32 3 2 C0.25 4.6875 0.25 4.6875 -3 7 C-5.375 6.8125 -5.375 6.8125 -7 6 C-6.21625 5.566875 -5.4325 5.13375 -4.625 4.6875 C-1.78301625 3.10779753 -1.78301625 3.10779753 0 0 Z " fill="#C5B8AB" transform="translate(212,179)"/>
<path d="M0 0 C-0.7425 0.7115625 -0.7425 0.7115625 -1.5 1.4375 C-3.11542197 2.75923698 -3.11542197 2.75923698 -3 4 C-4.65 4 -6.3 4 -8 4 C-7.1875 2.0625 -7.1875 2.0625 -6 0 C-3 -1 -3 -1 0 0 Z " fill="#EADED1" transform="translate(164,161)"/>
<path d="M0 0 C1.1484375 1.703125 1.1484375 1.703125 2 4 C1.1015625 6.359375 1.1015625 6.359375 -0.375 8.75 C-0.85710937 9.54921875 -1.33921875 10.3484375 -1.8359375 11.171875 C-2.22007813 11.77515625 -2.60421875 12.3784375 -3 13 C-4 11 -4 11 -3.22265625 8.3984375 C-2.83980469 7.40070313 -2.45695312 6.40296875 -2.0625 5.375 C-1.68222656 4.37210938 -1.30195312 3.36921875 -0.91015625 2.3359375 C-0.60980469 1.56507812 -0.30945313 0.79421875 0 0 Z " fill="#F0E9DE" transform="translate(99,124)"/>
<path d="M0 0 C1.125 3.75 1.125 3.75 0 6 C-0.99 6 -1.98 6 -3 6 C-3 4.35 -3 2.7 -3 1 C-2.01 0.67 -1.02 0.34 0 0 Z " fill="#655C55" transform="translate(176,183)"/>
<path d="M0 0 C2.97 0.495 2.97 0.495 6 1 C5.34 2.32 4.68 3.64 4 5 C2 3.625 2 3.625 0 2 C0 1.34 0 0.68 0 0 Z " fill="#F1EADE" transform="translate(231,133)"/>
<path d="M0 0 C0.99 0.33 1.98 0.66 3 1 C3.33 1.99 3.66 2.98 4 4 C1.69 4 -0.62 4 -3 4 C-2.01 2.68 -1.02 1.36 0 0 Z " fill="#E0D2C4" transform="translate(225,114)"/>
<path d="M0 0 C0.33 1.32 0.66 2.64 1 4 C-1.97 6.475 -1.97 6.475 -5 9 C-5 6 -5 6 -3.0625 3.9375 C-2.381875 3.298125 -1.70125 2.65875 -1 2 C-0.67 1.34 -0.34 0.68 0 0 Z " fill="#D2C3B5" transform="translate(192,196)"/>
</svg>
