<?xml version="1.0" encoding="UTF-8"?>
<svg version="1.1" xmlns="http://www.w3.org/2000/svg" width="360" height="360">
<path d="M0 0 C2.5 0.3125 2.5 0.3125 5 1 C10.25345613 11.50691226 3.8965505 30.14498678 0.75 40.875 C-1.06599313 47.30664235 -1.11696732 52.46833524 0 59 C0.76876465 58.80301514 1.5375293 58.60603027 2.32958984 58.40307617 C10.73428723 56.34443572 19.01328797 55.10252061 27.625 54.3125 C28.64013672 54.21819199 28.64013672 54.21819199 29.67578125 54.12197876 C54.379505 51.88012442 79.3633301 52.12745551 104 55 C105.07217773 55.11827148 106.14435547 55.23654297 107.24902344 55.35839844 C122.35464962 57.06380237 137.16212793 59.68657434 152 62.9375 C153.13447571 63.18212982 153.13447571 63.18212982 154.29187012 63.43170166 C180.23140955 69.07242334 180.23140955 69.07242334 186 76 C186.20703125 78.34375 186.20703125 78.34375 185 81 C182.7494121 83.39940603 180.2453897 85.43741728 177.6875 87.5 C168.23966049 94.93881376 168.23966049 94.93881376 163.59375 105.62890625 C163.18031701 118.56591363 170.44613079 127.08794319 178 137 C178.90878906 136.7834375 178.90878906 136.7834375 179.8359375 136.5625 C194.77241103 133.25349663 208.91039023 135.76907589 222 144 C230.67676253 149.88473499 236.36607097 158.69537608 238.6640625 168.96875 C240.58203733 186.27512756 237.55423337 200.90407758 227 215 C225.96552734 216.38638672 225.96552734 216.38638672 224.91015625 217.80078125 C224.27980469 218.52652344 223.64945312 219.25226563 223 220 C222.34 220 221.68 220 221 220 C221 220.66 221 221.32 221 222 C209.71587036 230.21456733 199.18949775 234.66410864 185 233 C180.16852918 231.78120804 175.58042147 229.94911552 171 228 C171.33 228.78117188 171.66 229.56234375 172 230.3671875 C173 233 173 233 173 235.125 C171.36819978 238.18462542 169.18155233 238.78522547 166 240 C163.32135313 240.50014232 160.72177338 240.76536436 158 241 C158 242.98 158 244.96 158 247 C158.66 247 159.32 247 160 247 C160 246.34 160 245.68 160 245 C160.99 245 161.98 245 163 245 C162.3954035 251.68238242 161.19365486 257.97321712 159.56640625 264.4765625 C159.32840805 265.44604828 159.09040985 266.41553406 158.84519958 267.41439819 C158.08961564 270.48593822 157.32603093 273.55542704 156.5625 276.625 C156.05354306 278.69258694 155.54507506 280.7602943 155.03710938 282.828125 C154.54731001 284.81521144 154.05708994 286.80219424 153.56640625 288.7890625 C153.3392543 289.70902008 153.11210236 290.62897766 152.87806702 291.57681274 C151.67431022 296.41381027 150.40324786 301.21696091 149 306 C147.35 305.67 145.7 305.34 144 305 C143.97421875 304.071875 143.9484375 303.14375 143.921875 302.1875 C143.45895366 289.9754832 141.96555856 277.92556005 140.37207031 265.8203125 C140.28266678 265.13653534 140.19326324 264.45275818 140.10115051 263.7482605 C139.85419085 261.86709848 139.60288826 259.98650807 139.35131836 258.10595703 C139 255 139 255 139 251 C138.41734375 251.19335938 137.8346875 251.38671875 137.234375 251.5859375 C125.12671246 255.43145296 112.29194568 257.37449061 99.57421875 256.84765625 C98.81584717 256.82300293 98.05747559 256.79834961 97.27612305 256.77294922 C95.79063785 256.71718178 94.30583757 256.63533075 92.82348633 256.52392578 C89.97171695 256.42117747 87.71399825 256.42193239 85.43676758 258.265625 C80.44568819 264.12288018 79.32034912 270.17949951 79.4140625 277.6953125 C80.70739405 284.98970246 85.60301855 291.11111627 90.24609375 296.70703125 C92 299 92 299 92.3125 301.75 C92 304 92 304 91 305 C88.17583618 305.12663091 85.38705207 305.18520548 82.5625 305.1875 C81.77294922 305.19974609 80.98339844 305.21199219 80.16992188 305.22460938 C78.11192565 305.22987279 76.05437991 305.12206285 74 305 C73.34 304.34 72.68 303.68 72 303 C72.375 300.375 72.375 300.375 73 298 C74.98 298 76.96 298 79 298 C78.67386719 297.34773438 78.34773438 296.69546875 78.01171875 296.0234375 C77.10520201 294.21040402 76.2057963 292.39380241 75.3125 290.57421875 C74.00757099 287.90799842 74.00757099 287.90799842 72.1875 285.1875 C68.77678097 276.03241208 71.26578609 266.03267095 74 257 C71.39472895 256.89207163 68.79391689 256.81275122 66.1875 256.75 C65.08051758 256.69972656 65.08051758 256.69972656 63.95117188 256.6484375 C59.66870926 256.52621207 59.66870926 256.52621207 56.11328125 258.640625 C52.46232965 266.37808033 51.40370156 274.95831351 53.6171875 283.3359375 C55.94398992 288.38077461 59.73452821 292.47568059 63.390625 296.60546875 C65.23192254 299.34506921 65.34443362 300.76806452 65 304 C60.51763131 305.75219867 57.04416565 306.2174404 52.25 305.875 C51.12078125 305.81054688 49.9915625 305.74609375 48.828125 305.6796875 C46 305 46 305 44.609375 302.9453125 C44.40828125 302.30335938 44.2071875 301.66140625 44 301 C46 298 46 298 48.625 297.3125 C49.40875 297.209375 50.1925 297.10625 51 297 C50.13443613 294.56068365 49.24675746 292.3511846 47.75390625 290.2265625 C42.98641356 283.1766158 42.80260118 275.25706272 44 267 C44.88051753 263.29571167 45.90212319 259.64532033 47 256 C46.00371582 255.88724731 46.00371582 255.88724731 44.98730469 255.7722168 C11.19942655 251.89592797 11.19942655 251.89592797 3 245 C0.97649676 241.96474514 0.67875982 240.80573798 0.375 237.3125 C0.30023438 236.50425781 0.22546875 235.69601562 0.1484375 234.86328125 C0.09945312 234.24839844 0.05046875 233.63351562 0 233 C-0.71671875 232.74347656 -1.4334375 232.48695313 -2.171875 232.22265625 C-15.82660384 226.31943784 -26.43039634 214.0054371 -33 201 C-39.4856707 184.14850302 -40.70205622 164.98624594 -34 148 C-32.22864206 144.77731939 -30.37691357 141.71283313 -28.29296875 138.68359375 C-26.62127596 135.21394739 -27.08070987 133.70963929 -28 130 C-29.48326643 126.99009586 -29.48326643 126.99009586 -31.421875 124.0078125 C-32.46601562 122.33138672 -32.46601562 122.33138672 -33.53125 120.62109375 C-34.27059609 119.45557864 -35.01018097 118.29021497 -35.75 117.125 C-36.47485982 115.96801221 -37.1988261 114.81046412 -37.921875 113.65234375 C-41.68441364 107.58797537 -41.68441364 107.58797537 -45.63085938 101.64355469 C-47.86371634 98.37615115 -48.94940877 96.29386637 -49.6328125 92.32421875 C-48.80044328 87.95171133 -47.25797724 86.6610905 -43.875 83.8125 C-43.08041382 83.12583252 -43.08041382 83.12583252 -42.26977539 82.42529297 C-40.53001098 80.92900961 -38.76749303 79.4633879 -37 78 C-35.09432266 76.40284686 -33.19236639 74.80159488 -31.29541016 73.1940918 C-30.08249465 72.16972807 -28.86236994 71.15382318 -27.63427734 70.14770508 C-23.8441066 66.98052392 -20.59048026 63.99782287 -19.59375 58.9375 C-19.54734375 57.9784375 -19.54734375 57.9784375 -19.5 57 C-19.17550775 53.35464023 -18.16536661 51.01268398 -16 48 C-16.66386719 47.75765625 -17.32773438 47.5153125 -18.01171875 47.265625 C-25.57323661 44.39555983 -30.8194905 41.80729644 -34.26953125 34.203125 C-36.43175894 27.68175378 -35.19515147 22.04172613 -32.19921875 16.0078125 C-29.23946197 11.0523891 -25.41337614 7.90470642 -20 6 C-14.88863635 5.59138808 -9.94990174 5.55918353 -5 7 C-4.0409375 5.5459375 -4.0409375 5.5459375 -3.0625 4.0625 C-1 1 -1 1 0 0 Z M-27.125 80.875 C-28.03507812 81.59429687 -28.94515625 82.31359375 -29.8828125 83.0546875 C-30.58148438 83.69664062 -31.28015625 84.33859375 -32 85 C-32 85.66 -32 86.32 -32 87 C-32.598125 87.268125 -33.19625 87.53625 -33.8125 87.8125 C-36.1097636 89.05958595 -37.52829405 89.83117019 -39 92 C-38.6347636 96.40718585 -37.62224362 99.02634538 -34.9375 102.5 C-31.43022377 107.23410124 -28.57016034 112.14466751 -25.84155273 117.35351562 C-24.01546518 120.70911038 -22.69799293 122.75366979 -19 124 C-9.95881261 109.04990077 -9.95881261 109.04990077 -8.15234375 92.1640625 C-9.5676242 88.55085804 -12.21167342 86.34225587 -15.0625 83.796875 C-17.24619716 81.77167199 -18.54763918 79.58197479 -20 77 C-23.14703761 77 -24.7141464 78.94494342 -27.125 80.875 Z M195 149 C194.87625 149.70125 194.7525 150.4025 194.625 151.125 C192.81355932 159.45762712 192.81355932 159.45762712 189 162 C188.85369512 164.7310245 188.87100938 167.27954808 189 170 C189.31430114 182.63209504 186.94814036 194.7538785 184 207 C185.134375 207.391875 186.26875 207.78375 187.4375 208.1875 C191 210 191 210 191.875 212.4375 C191.91625 213.283125 191.9575 214.12875 192 215 C192.31451475 216.33789737 192.64482398 217.67231823 193 219 C202.59346967 217.60739956 210.54058668 212.90259217 216.55078125 205.1875 C223.82636443 194.20548766 226.88134497 185.10306682 224.3984375 171.76953125 C222.29526913 164.01532639 218.45772425 158.76257163 212 154 C206.57915405 151.02514551 201.13265069 149.53327397 195 149 Z " fill="#EAD9C7" transform="translate(102,45)"/>
<path d="M0 0 C1.67016516 0.99414593 3.33720673 1.9935725 5 3 C8.35205511 2.82357605 10.97391301 2.56269287 13.9375 0.9375 C17.20861092 -0.5493686 20.5029644 -0.46762685 24 0 C26.01586684 0.96761608 28.01753602 1.96567096 30 3 C33.10501675 3.31050168 35.1241199 3.45674729 37.91015625 2.00390625 C41.49898708 0.27992583 45.10991162 0.4168181 49 1 C50.82421875 1.96875 50.82421875 1.96875 52.5 3.125 C56.80928457 5.43354531 58.30774842 4.86680299 62.8046875 3.6015625 C66.02370125 2.719484 68.68670008 2.63185556 72 3 C73.71267593 4.01491907 75.42496791 5.03199303 77.1015625 6.10546875 C81.48988288 8.17321642 86.53319951 7.4889335 91 6 C95.74014647 5.43118242 98.40899461 6.04551415 102.375 8.5 C107.14499211 11.41453907 110.48576441 11.43763775 116 11 C116.00257813 11.95519531 116.00515625 12.91039062 116.0078125 13.89453125 C116.4353606 28.18888935 122.41252163 36.73165909 131 48 C131.60585938 47.855625 132.21171875 47.71125 132.8359375 47.5625 C147.77241103 44.25349663 161.91039023 46.76907589 175 55 C183.67676253 60.88473499 189.36607097 69.69537608 191.6640625 79.96875 C193.58203733 97.27512756 190.55423337 111.90407758 180 126 C179.31035156 126.92425781 178.62070312 127.84851563 177.91015625 128.80078125 C177.27980469 129.52652344 176.64945313 130.25226563 176 131 C175.34 131 174.68 131 174 131 C174 131.66 174 132.32 174 133 C162.71587036 141.21456733 152.18949775 145.66410864 138 144 C133.16852918 142.78120804 128.58042147 140.94911552 124 139 C124.33 139.78117188 124.66 140.56234375 125 141.3671875 C126 144 126 144 126 146.125 C124.36819978 149.18462542 122.18155233 149.78522547 119 151 C116.32135313 151.50014232 113.72177338 151.76536436 111 152 C111 153.98 111 155.96 111 158 C111.66 158 112.32 158 113 158 C113 157.34 113 156.68 113 156 C113.99 156 114.98 156 116 156 C115.3954035 162.68238242 114.19365486 168.97321712 112.56640625 175.4765625 C112.32840805 176.44604828 112.09040985 177.41553406 111.84519958 178.41439819 C111.08961564 181.48593822 110.32603093 184.55542704 109.5625 187.625 C109.05354306 189.69258694 108.54507506 191.7602943 108.03710938 193.828125 C107.54731001 195.81521144 107.05708994 197.80219424 106.56640625 199.7890625 C106.3392543 200.70902008 106.11210236 201.62897766 105.87806702 202.57681274 C104.67431022 207.41381027 103.40324786 212.21696091 102 217 C100.35 216.67 98.7 216.34 97 216 C96.96132813 214.6078125 96.96132813 214.6078125 96.921875 213.1875 C96.45895366 200.9754832 94.96555856 188.92556005 93.37207031 176.8203125 C93.28266678 176.13653534 93.19326324 175.45275818 93.10115051 174.7482605 C92.85419085 172.86709848 92.60288826 170.98650807 92.35131836 169.10595703 C92 166 92 166 92 162 C91.41734375 162.19335938 90.8346875 162.38671875 90.234375 162.5859375 C78.12671246 166.43145296 65.29194568 168.37449061 52.57421875 167.84765625 C51.43666138 167.81067627 51.43666138 167.81067627 50.27612305 167.77294922 C48.79063785 167.71718178 47.30583757 167.63533075 45.82348633 167.52392578 C42.97171695 167.42117747 40.71399825 167.42193239 38.43676758 169.265625 C33.44568819 175.12288018 32.32034912 181.17949951 32.4140625 188.6953125 C33.70739405 195.98970246 38.60301855 202.11111627 43.24609375 207.70703125 C45 210 45 210 45.3125 212.75 C45 215 45 215 44 216 C41.17583618 216.12663091 38.38705207 216.18520548 35.5625 216.1875 C34.77294922 216.19974609 33.98339844 216.21199219 33.16992188 216.22460938 C31.11192565 216.22987279 29.05437991 216.12206285 27 216 C26.34 215.34 25.68 214.68 25 214 C25.375 211.375 25.375 211.375 26 209 C27.98 209 29.96 209 32 209 C31.67386719 208.34773437 31.34773438 207.69546875 31.01171875 207.0234375 C30.10520201 205.21040402 29.2057963 203.39380241 28.3125 201.57421875 C27.00757099 198.90799842 27.00757099 198.90799842 25.1875 196.1875 C21.77678097 187.03241208 24.26578609 177.03267095 27 168 C24.39472895 167.89207163 21.79391689 167.81275122 19.1875 167.75 C18.08051758 167.69972656 18.08051758 167.69972656 16.95117188 167.6484375 C12.66870926 167.52621207 12.66870926 167.52621207 9.11328125 169.640625 C5.46232965 177.37808033 4.40370156 185.95831351 6.6171875 194.3359375 C8.94398992 199.38077461 12.73452821 203.47568059 16.390625 207.60546875 C18.23192254 210.34506921 18.34443362 211.76806452 18 215 C13.51763131 216.75219867 10.04416565 217.2174404 5.25 216.875 C4.12078125 216.81054688 2.9915625 216.74609375 1.828125 216.6796875 C-1 216 -1 216 -2.390625 213.9453125 C-2.59171875 213.30335938 -2.7928125 212.66140625 -3 212 C-1 209 -1 209 1.625 208.3125 C2.40875 208.209375 3.1925 208.10625 4 208 C3.13443613 205.56068365 2.24675746 203.3511846 0.75390625 201.2265625 C-4.01358644 194.1766158 -4.19739882 186.25706272 -3 178 C-2.11948247 174.29571167 -1.09787681 170.64532033 0 167 C-0.99628418 166.88724731 -0.99628418 166.88724731 -2.01269531 166.7722168 C-35.80057345 162.89592797 -35.80057345 162.89592797 -44 156 C-46.20914 152.68629 -46.22481553 151.6553979 -46.125 147.8125 C-46.10695313 146.91144531 -46.08890625 146.01039063 -46.0703125 145.08203125 C-46.04710938 144.39496094 -46.02390625 143.70789063 -46 143 C-30.87150857 139.81992935 -15.7625519 139.85861662 -0.3828125 139.90234375 C1.57015954 139.90421324 3.52313206 139.90563463 5.47610474 139.90663147 C10.56900369 139.91041491 15.66187325 139.9202086 20.75476074 139.93133545 C25.9706177 139.94164024 31.1864795 139.94614835 36.40234375 139.95117188 C46.60157528 139.96183541 56.80078518 139.97886049 67 140 C67.495 137.03 67.495 137.03 68 134 C68.66 134 69.32 134 70 134 C70.33 132.68 70.66 131.36 71 130 C70.01 130 69.02 130 68 130 C68 129.34 68 128.68 68 128 C67.01 128 66.02 128 65 128 C65.495 126.515 65.495 126.515 66 125 C66.66 125 67.32 125 68 125 C68.495 123.02 68.495 123.02 69 121 C69.66 121 70.32 121 71 121 C71 119.35 71 117.7 71 116 C71.66 115.67 72.32 115.34 73 115 C73 115.66 73 116.32 73 117 C73.66 117 74.32 117 75 117 C74.34 115.35 73.68 113.7 73 112 C73.66 112 74.32 112 75 112 C75 111.34 75 110.68 75 110 C73.35 109.34 71.7 108.68 70 108 C70.66 107.67 71.32 107.34 72 107 C71.67 105.35 71.34 103.7 71 102 C71.66 102 72.32 102 73 102 C73 100.68 73 99.36 73 98 C73.66 98 74.32 98 75 98 C74.79375 97.13375 74.5875 96.2675 74.375 95.375 C73.95952378 91.63571398 74.60333724 89.45057859 76 86 C74.68 86 73.36 86 72 86 C71.875 83.625 71.875 83.625 72 81 C72.66 80.34 73.32 79.68 74 79 C73.01 75.535 73.01 75.535 72 72 C70.02 72.99 70.02 72.99 68 74 C67.34 73.01 66.68 72.02 66 71 C66.99 70.34 67.98 69.68 69 69 C66.03 68.34 63.06 67.68 60 67 C59.2575 67.94875 58.515 68.8975 57.75 69.875 C54.43886644 73.78564243 52.53997293 74.86949382 47.3125 75.3125 C42.04084164 75.17429173 36.21577368 74.01925273 32.23828125 70.39453125 C31.82964844 69.93433594 31.42101562 69.47414063 31 69 C30.195625 69.4021875 30.195625 69.4021875 29.375 69.8125 C28.59125 70.204375 27.8075 70.59625 27 71 C26.13375 71.53625 25.2675 72.0725 24.375 72.625 C19.27711832 74.70191476 14.12780675 75.11912352 8.87109375 73.23828125 C5.33972406 71.37306929 3.40594473 69.69562616 2 66 C1.8046875 63.640625 1.8046875 63.640625 1.875 61.25 C1.89304688 60.45078125 1.91109375 59.6515625 1.9296875 58.828125 C1.95289063 58.22484375 1.97609375 57.6215625 2 57 C4.375 56.375 4.375 56.375 7 56 C9.6855594 58.6855594 10.06049974 61.37621328 11 65 C17.47729878 64.03560218 21.33945363 62.66054637 26 58 C26.53625 57.236875 27.0725 56.47375 27.625 55.6875 C28.07875 55.130625 28.5325 54.57375 29 54 C30.32 54 31.64 54 33 54 C33.53625 55.0725 34.0725 56.145 34.625 57.25 C36.80968852 61.02912786 39.01665784 63.04738129 43 65 C46.66925632 65.58478294 46.66925632 65.58478294 50 65 C50.99 63.515 50.99 63.515 52 62 C51.24074219 61.76152344 50.48148437 61.52304688 49.69921875 61.27734375 C46.55027924 59.7871799 45.61203466 58.50061423 43.8125 55.5625 C43.32394531 54.78003906 42.83539063 53.99757812 42.33203125 53.19140625 C41.89246094 52.46824219 41.45289063 51.74507812 41 51 C40.34 50.01 39.68 49.02 39 48 C37.89092271 36.52233965 38.90395001 27.88267012 46.25 18.6875 C49.87903564 14.40272277 54.73330568 11.44200876 60.33300781 10.68432617 C62.73498956 10.60886481 65.09921958 10.64833829 67.5 10.75 C68.73363281 10.77707031 68.73363281 10.77707031 69.9921875 10.8046875 C71.99530804 10.8512717 73.99781821 10.92299301 76 11 C72.62217569 8.56092497 72.62217569 8.56092497 68.60546875 8.14453125 C67.80753906 8.36496094 67.00960937 8.58539063 66.1875 8.8125 C59.08463675 10.50365792 54.40559473 10.94190445 48 7 C44.41837609 6.68021215 41.85119355 6.65952258 38.5 8 C35.13790548 9.34483781 32.5971582 9.31554019 29 9 C26.99187074 8.01642648 24.99145391 7.01691264 23 6 C19.75346274 5.66872069 17.68757801 5.70266897 14.6875 7 C10.29151151 8.63571665 5.40287965 8.97704639 0.9921875 7.18359375 C0.35539062 6.87550781 -0.28140625 6.56742188 -0.9375 6.25 C-3.6158355 5.08689813 -4.62905322 4.89117334 -7.4765625 5.7265625 C-9.19346383 6.48905342 -10.90331244 7.26763745 -12.60546875 8.0625 C-16.03949557 9.40698032 -18.50187179 8.9794759 -22 8 C-23.0209375 7.443125 -23.0209375 7.443125 -24.0625 6.875 C-26.99575522 5.55030409 -28.93020544 6.20185342 -32 7 C-32.928125 7.53625 -33.85625 8.0725 -34.8125 8.625 C-40.53872847 11.09513777 -45.88106622 9.53912772 -51.5625 7.4375 C-52.696875 6.963125 -53.83125 6.48875 -55 6 C-55 4.68 -55 3.36 -55 2 C-47.25 2.875 -47.25 2.875 -45 4 C-41.41258221 4.32612889 -39.44563627 4.24307433 -36.25 2.5 C-31.85003521 0.46924702 -27.78285703 0.39227724 -23 1 C-21.66078933 1.65478012 -20.32666209 2.32015449 -19 3 C-16.03255351 2.75271279 -13.72241229 2.38853667 -11.08984375 0.97265625 C-7.51698405 -0.69022612 -3.85945229 -0.48677777 0 0 Z M148 60 C147.87625 60.70125 147.7525 61.4025 147.625 62.125 C145.81355932 70.45762712 145.81355932 70.45762712 142 73 C141.85369512 75.7310245 141.87100938 78.27954808 142 81 C142.31430114 93.63209504 139.94814036 105.7538785 137 118 C138.134375 118.391875 139.26875 118.78375 140.4375 119.1875 C144 121 144 121 144.875 123.4375 C144.91625 124.283125 144.9575 125.12875 145 126 C145.31451475 127.33789737 145.64482398 128.67231823 146 130 C155.59346967 128.60739956 163.54058668 123.90259217 169.55078125 116.1875 C176.82636443 105.20548766 179.88134497 96.10306682 177.3984375 82.76953125 C175.29526913 75.01532639 171.45772425 69.76257163 165 65 C159.57915405 62.02514551 154.13265069 60.53327397 148 60 Z " fill="#DDC6B1" transform="translate(149,134)"/>
<path d="M0 0 C1.07217773 0.11827148 2.14435547 0.23654297 3.24902344 0.35839844 C18.35464962 2.06380237 33.16212793 4.68657434 48 7.9375 C48.75631714 8.10058655 49.51263428 8.2636731 50.29187012 8.43170166 C76.23140955 14.07242334 76.23140955 14.07242334 82 21 C82.20703125 23.34375 82.20703125 23.34375 81 26 C78.7494121 28.39940603 76.2453897 30.43741728 73.6875 32.5 C69.32828225 36.07530514 65.34362615 39.40552089 62 44 C61.4225 44.763125 60.845 45.52625 60.25 46.3125 C59.63125 47.1478125 59.63125 47.1478125 59 48 C59 47.01 59 46.02 59 45 C58.45472656 45.13019531 57.90945313 45.26039063 57.34765625 45.39453125 C51.2402865 46.51160572 48.31505465 45.418024 43.140625 42.15234375 C40.02266904 40.47388206 37.45796879 40.58504374 34 41 C33.01 41.33 32.02 41.66 31 42 C26.29133086 42.55664499 22.44481517 42.60578663 18.375 40 C14.39818828 37.64337083 12.55394357 37.52890239 8 38 C6.49855468 38.41142808 4.99860892 38.82835749 3.5 39.25 C-0.34514594 40.19829613 -0.75018644 40.13382869 -4.5 38.125 C-5.32951172 37.55265625 -5.32951172 37.55265625 -6.17578125 36.96875 C-9.54655833 35.17870136 -13.30146245 35.41206242 -17 36 C-18.3437152 36.64548562 -19.67821278 37.31072446 -21 38 C-24.67482275 38.39943726 -26.57245526 38.22306682 -29.875 36.5 C-33.67081953 34.67800663 -36.89285045 34.37119222 -41 35 C-42.89567836 35.68822457 -42.89567836 35.68822457 -44.6875 36.5625 C-48.24935639 38.10821126 -49.41936144 38.2580622 -53 37 C-53.61746094 36.6596875 -54.23492187 36.319375 -54.87109375 35.96875 C-58.48297023 34.32518052 -62.10991119 34.52394018 -66 35 C-67.03125 35.515625 -68.0625 36.03125 -69.125 36.5625 C-72.83373618 38.41686809 -75.03247295 37.93353578 -79 37 C-79.33 36.67 -79.66 36.34 -80 36 C-86.24794862 35.38814816 -90.45335532 35.97455745 -96 39 C-101.6235017 39.76684114 -106.71967914 37.75315001 -112 36 C-112.33 36.99 -112.66 37.98 -113 39 C-113.185625 38.319375 -113.37125 37.63875 -113.5625 36.9375 C-115.27984096 33.42815109 -117.48975914 31.36426757 -120.34375 28.74609375 C-122.06930376 26.92693684 -122.93268824 25.24963555 -124 23 C-124.66 22.34 -125.32 21.68 -126 21 C-125.43410156 20.50628906 -124.86820312 20.01257813 -124.28515625 19.50390625 C-123.55167969 18.86324219 -122.81820312 18.22257812 -122.0625 17.5625 C-121.33160156 16.92441406 -120.60070312 16.28632812 -119.84765625 15.62890625 C-118.87860647 14.77458541 -117.91348825 13.91348825 -117 13 C-115.56357336 12.78439032 -114.1258403 12.57745052 -112.6875 12.375 C-110.19628793 11.94152502 -110.19628793 11.94152502 -108 11 C-107.10106519 9.2342352 -106.20530331 7.46586053 -105.37353516 5.66748047 C-100.73883488 0.04092468 -87.09275335 0.37391494 -80.2578125 -0.33129883 C-78.97648437 -0.44884521 -77.69515625 -0.5663916 -76.375 -0.6875 C-75.69824219 -0.75037201 -75.02148438 -0.81324402 -74.32421875 -0.87802124 C-49.620495 -3.11987558 -24.6366699 -2.87254449 0 0 Z " fill="#EBDECE" transform="translate(206,100)"/>
<path d="M0 0 C3.0625 0.1875 3.0625 0.1875 5.0625 2.1875 C5.1875 4.8125 5.1875 4.8125 5.0625 7.1875 C5.7225 7.1875 6.3825 7.1875 7.0625 7.1875 C7.30484375 7.8165625 7.5471875 8.445625 7.796875 9.09375 C10.41998901 15.79277963 13.37168827 22.15569965 16.875 28.4375 C18.0625 31.1875 18.0625 31.1875 18.125 33.375 C16.39037323 36.33406919 14.2199383 36.98193265 11.0625 38.1875 C8.38385313 38.68764232 5.78427338 38.95286436 3.0625 39.1875 C3.0625 41.1675 3.0625 43.1475 3.0625 45.1875 C3.7225 45.1875 4.3825 45.1875 5.0625 45.1875 C5.0625 44.5275 5.0625 43.8675 5.0625 43.1875 C6.0525 43.1875 7.0425 43.1875 8.0625 43.1875 C7.4579035 49.86988242 6.25615486 56.16071712 4.62890625 62.6640625 C4.39090805 63.63354828 4.15290985 64.60303406 3.90769958 65.60189819 C3.15211564 68.67343822 2.38853093 71.74292704 1.625 74.8125 C1.11604306 76.88008694 0.60757506 78.9477943 0.09960938 81.015625 C-0.39018999 83.00271144 -0.88041006 84.98969424 -1.37109375 86.9765625 C-1.5982457 87.89652008 -1.82539764 88.81647766 -2.05943298 89.76431274 C-3.26318978 94.60131027 -4.53425214 99.40446091 -5.9375 104.1875 C-7.5875 103.8575 -9.2375 103.5275 -10.9375 103.1875 C-10.97617187 101.7953125 -10.97617187 101.7953125 -11.015625 100.375 C-11.47854634 88.1629832 -12.97194144 76.11306005 -14.56542969 64.0078125 C-14.65483322 63.32403534 -14.74423676 62.64025818 -14.83634949 61.9357605 C-15.08330915 60.05459848 -15.33461174 58.17400807 -15.58618164 56.29345703 C-15.9375 53.1875 -15.9375 53.1875 -15.9375 49.1875 C-16.52015625 49.38085938 -17.1028125 49.57421875 -17.703125 49.7734375 C-29.81078754 53.61895296 -42.64555432 55.56199061 -55.36328125 55.03515625 C-56.12165283 55.01050293 -56.88002441 54.98584961 -57.66137695 54.96044922 C-59.14686215 54.90468178 -60.63166243 54.82283075 -62.11401367 54.71142578 C-64.96578305 54.60867747 -67.22350175 54.60943239 -69.50073242 56.453125 C-74.49181181 62.31038018 -75.61715088 68.36699951 -75.5234375 75.8828125 C-74.23010595 83.17720246 -69.33448145 89.29861627 -64.69140625 94.89453125 C-62.9375 97.1875 -62.9375 97.1875 -62.625 99.9375 C-62.9375 102.1875 -62.9375 102.1875 -63.9375 103.1875 C-66.76166382 103.31413091 -69.55044793 103.37270548 -72.375 103.375 C-73.16455078 103.38724609 -73.95410156 103.39949219 -74.76757812 103.41210938 C-76.82557435 103.41737279 -78.88312009 103.30956285 -80.9375 103.1875 C-81.5975 102.5275 -82.2575 101.8675 -82.9375 101.1875 C-82.5625 98.5625 -82.5625 98.5625 -81.9375 96.1875 C-79.9575 96.1875 -77.9775 96.1875 -75.9375 96.1875 C-76.26363281 95.53523438 -76.58976562 94.88296875 -76.92578125 94.2109375 C-77.83229799 92.39790402 -78.7317037 90.58130241 -79.625 88.76171875 C-80.92992901 86.09549842 -80.92992901 86.09549842 -82.75 83.375 C-86.16071903 74.21991208 -83.67171391 64.22017095 -80.9375 55.1875 C-83.54277105 55.07957163 -86.14358311 55.00025122 -88.75 54.9375 C-89.48798828 54.90398437 -90.22597656 54.87046875 -90.98632812 54.8359375 C-95.26879074 54.71371207 -95.26879074 54.71371207 -98.82421875 56.828125 C-102.47517035 64.56558033 -103.53379844 73.14581351 -101.3203125 81.5234375 C-98.99351008 86.56827461 -95.20297179 90.66318059 -91.546875 94.79296875 C-89.70557746 97.53256921 -89.59306638 98.95556452 -89.9375 102.1875 C-94.41986869 103.93969867 -97.89333435 104.4049404 -102.6875 104.0625 C-103.81671875 103.99804688 -104.9459375 103.93359375 -106.109375 103.8671875 C-108.9375 103.1875 -108.9375 103.1875 -110.328125 101.1328125 C-110.62976563 100.16988281 -110.62976563 100.16988281 -110.9375 99.1875 C-108.9375 96.1875 -108.9375 96.1875 -106.3125 95.5 C-105.52875 95.396875 -104.745 95.29375 -103.9375 95.1875 C-104.80306387 92.74818365 -105.69074254 90.5386846 -107.18359375 88.4140625 C-111.95108644 81.3641158 -112.13489882 73.44456272 -110.9375 65.1875 C-110.05698247 61.48321167 -109.03537681 57.83282033 -107.9375 54.1875 C-108.60168945 54.11233154 -109.26587891 54.03716309 -109.95019531 53.9597168 C-143.73807345 50.08342797 -143.73807345 50.08342797 -151.9375 43.1875 C-154.14664 39.87379 -154.16231553 38.8428979 -154.0625 35 C-154.04445313 34.09894531 -154.02640625 33.19789063 -154.0078125 32.26953125 C-153.98460937 31.58246094 -153.96140625 30.89539063 -153.9375 30.1875 C-140.35024206 27.33140292 -126.74983891 27.03752399 -112.9140625 27.08984375 C-111.43191578 27.09171509 -109.94976842 27.0931356 -108.46762085 27.09413147 C-104.61757619 27.09790036 -100.7675709 27.1076806 -96.9175415 27.11883545 C-92.96847058 27.12917253 -89.01939313 27.13365509 -85.0703125 27.13867188 C-77.3593573 27.14930956 -69.64843422 27.16631585 -61.9375 27.1875 C-61.9375 27.8475 -61.9375 28.5075 -61.9375 29.1875 C-57.36600243 29.26207894 -52.79486491 29.31630276 -48.22290039 29.35229492 C-46.6701032 29.36731105 -45.11734791 29.38773028 -43.56469727 29.41381836 C-41.32297376 29.45052073 -39.08181461 29.46729787 -36.83984375 29.48046875 C-35.81128517 29.50369453 -35.81128517 29.50369453 -34.76194763 29.52738953 C-29.68438973 29.52913236 -26.43685264 28.28729031 -21.9375 26.1875 C-19.3203125 26.2265625 -19.3203125 26.2265625 -17.0625 26.8125 C-16.30195313 26.99039062 -15.54140625 27.16828125 -14.7578125 27.3515625 C-13.85675781 27.76535156 -13.85675781 27.76535156 -12.9375 28.1875 C-12.6075 29.1775 -12.2775 30.1675 -11.9375 31.1875 C-9.9575 31.1875 -7.9775 31.1875 -5.9375 31.1875 C-5.85416643 36.0208472 -5.98488513 40.42442563 -6.9375 45.1875 C-5.2875 45.1875 -3.6375 45.1875 -1.9375 45.1875 C-1.9684375 44.011875 -1.9684375 44.011875 -2 42.8125 C-1.9375 40.1875 -1.9375 40.1875 -0.9375 38.1875 C-0.8685528 36.81407169 -0.85282292 35.43747898 -0.875 34.0625 C-0.9059375 32.144375 -0.9059375 32.144375 -0.9375 30.1875 C1.70988916 28.7268715 2.95698334 28.1875 6.0625 28.1875 C5.82015625 27.6527002 5.5778125 27.11790039 5.328125 26.56689453 C4.23572535 24.15048549 3.14905096 21.73154421 2.0625 19.3125 C1.6809375 18.47074219 1.299375 17.62898438 0.90625 16.76171875 C0.5453125 15.95605469 0.184375 15.15039062 -0.1875 14.3203125 C-0.52265625 13.57668457 -0.8578125 12.83305664 -1.203125 12.06689453 C-1.9375 10.1875 -1.9375 10.1875 -1.9375 8.1875 C-2.5975 8.1875 -3.2575 8.1875 -3.9375 8.1875 C-3.97991723 5.85455225 -3.97842937 3.52047433 -3.9375 1.1875 C-2.9375 0.1875 -2.9375 0.1875 0 0 Z " fill="#E7D5C2" transform="translate(256.9375,246.8125)"/>
<path d="M0 0 C2.5 0.3125 2.5 0.3125 5 1 C10.23311291 11.46622582 3.91605529 30.08654989 0.75 40.75 C-1.02774102 46.97872693 -0.86866945 51.8699794 -0.1328125 58.2421875 C0 61 0 61 -1.375 64.6875 C-4.53223067 67.46886987 -6.62967138 67.67924412 -10.6796875 68.30078125 C-14.27869359 69.38533022 -16.18425372 71.75244521 -18.58984375 74.5390625 C-19.05519531 75.02117187 -19.52054688 75.50328125 -20 76 C-20.66 76 -21.32 76 -22 76 C-22 76.66 -22 77.32 -22 78 C-23.6796875 79.7265625 -23.6796875 79.7265625 -25.875 81.625 C-26.95394531 82.57246094 -26.95394531 82.57246094 -28.0546875 83.5390625 C-30 85 -30 85 -32 85 C-32 85.66 -32 86.32 -32 87 C-33.57540352 88.15743932 -35.15519275 89.31137479 -36.78515625 90.390625 C-38.30504615 92.04912266 -38.30504615 92.04912266 -37.875 94.890625 C-36.97390704 98.09272321 -35.95657673 99.88761826 -33.9375 102.5 C-30.46929973 107.20531089 -27.57557283 112.07188072 -24.75366211 117.17773438 C-23.37588184 119.65555917 -22.01030185 121.98677466 -20.265625 124.2265625 C-19 126 -19 126 -19 129 C-18.34 129 -17.68 129 -17 129 C-17 130.98 -17 132.96 -17 135 C-20.25 135.3125 -20.25 135.3125 -24 135 C-27.07606074 131.69513825 -29.3691438 127.95009085 -31.71484375 124.10546875 C-32.40126953 122.98462891 -33.08769531 121.86378906 -33.79492188 120.70898438 C-34.50923301 119.53522831 -35.22342499 118.36139973 -35.9375 117.1875 C-36.64746479 116.02519408 -37.35774879 114.86308308 -38.06835938 113.70117188 C-39.43444869 111.46703331 -40.79579136 109.22998387 -42.15185547 106.98974609 C-43.269201 105.1822146 -44.41652617 103.39212073 -45.61767578 101.63916016 C-47.8543046 98.37048352 -48.94867847 96.29810841 -49.6328125 92.32421875 C-48.80044328 87.95171133 -47.25797724 86.6610905 -43.875 83.8125 C-43.08041382 83.12583252 -43.08041382 83.12583252 -42.26977539 82.42529297 C-40.53001098 80.92900961 -38.76749303 79.4633879 -37 78 C-35.09432266 76.40284686 -33.19236639 74.80159488 -31.29541016 73.1940918 C-30.08249465 72.16972807 -28.86236994 71.15382318 -27.63427734 70.14770508 C-23.8441066 66.98052392 -20.59048026 63.99782287 -19.59375 58.9375 C-19.54734375 57.9784375 -19.54734375 57.9784375 -19.5 57 C-19.17550775 53.35464023 -18.16536661 51.01268398 -16 48 C-16.66386719 47.75765625 -17.32773438 47.5153125 -18.01171875 47.265625 C-25.57323661 44.39555983 -30.8194905 41.80729644 -34.26953125 34.203125 C-36.43175894 27.68175378 -35.19515147 22.04172613 -32.19921875 16.0078125 C-29.23946197 11.0523891 -25.41337614 7.90470642 -20 6 C-14.88863635 5.59138808 -9.94990174 5.55918353 -5 7 C-4.0409375 5.5459375 -4.0409375 5.5459375 -3.0625 4.0625 C-1 1 -1 1 0 0 Z " fill="#847C72" transform="translate(102,45)"/>
<path d="M0 0 C7.32933593 5.78696726 12.25503538 14.23505708 14.296875 23.36328125 C16.21484983 40.66965881 13.18704587 55.29860883 2.6328125 69.39453125 C1.94316406 70.31878906 1.25351562 71.24304688 0.54296875 72.1953125 C-0.40255859 73.28392578 -0.40255859 73.28392578 -1.3671875 74.39453125 C-2.0271875 74.39453125 -2.6871875 74.39453125 -3.3671875 74.39453125 C-3.3671875 75.05453125 -3.3671875 75.71453125 -3.3671875 76.39453125 C-14.75768468 84.68653152 -25.07595163 88.83632999 -39.3671875 87.39453125 C-49.1660295 85.11437112 -49.1660295 85.11437112 -51.7421875 81.42578125 C-52.3671875 79.39453125 -52.3671875 79.39453125 -51.1171875 76.64453125 C-50.5396875 75.90203125 -49.9621875 75.15953125 -49.3671875 74.39453125 C-48.7071875 74.39453125 -48.0471875 74.39453125 -47.3671875 74.39453125 C-47.0990625 73.71390625 -46.8309375 73.03328125 -46.5546875 72.33203125 C-45.20665444 68.99742316 -43.79182452 65.69709888 -42.3671875 62.39453125 C-36.09132543 61.91177263 -36.09132543 61.91177263 -32.9296875 64.01953125 C-30.97074145 66.99712925 -31.04932844 68.89808162 -31.3671875 72.39453125 C-21.7205806 70.99421734 -14.78227779 66.66897331 -8.5546875 59.14453125 C-1.73522791 49.56173614 1.0213821 41.23043407 -0.3671875 29.39453125 C-2.00902375 20.83862682 -5.1811935 14.50977569 -12.3671875 9.39453125 C-17.81080788 6.47252532 -23.23467948 4.92779282 -29.3671875 4.39453125 C-29.41617187 5.02101562 -29.46515625 5.6475 -29.515625 6.29296875 C-29.59039062 7.11023438 -29.66515625 7.9275 -29.7421875 8.76953125 C-29.81179688 9.58164063 -29.88140625 10.39375 -29.953125 11.23046875 C-30.3671875 13.39453125 -30.3671875 13.39453125 -32.3671875 15.39453125 C-33.6871875 15.39453125 -35.0071875 15.39453125 -36.3671875 15.39453125 C-36.58761719 14.52054688 -36.58761719 14.52054688 -36.8125 13.62890625 C-38.79091023 6.39747576 -41.8585839 0.0029691 -45.3671875 -6.60546875 C-31.24050317 -15.6308504 -12.81732302 -8.6929369 0 0 Z " fill="#969393" transform="translate(326.3671875,190.60546875)"/>
<path d="M0 0 C5.94 0.66 11.88 1.32 18 2 C17.67 3.65 17.34 5.3 17 7 C15.35 7 13.7 7 12 7 C11.67 7.66 11.34 8.32 11 9 C9.68 8.67 8.36 8.34 7 8 C6.67 9.65 6.34 11.3 6 13 C6.66 13 7.32 13 8 13 C8.495 14.485 8.495 14.485 9 16 C8.67 16.66 8.34 17.32 8 18 C19.6812214 17.57090603 19.6812214 17.57090603 31 15 C31.66 14.01 32.32 13.02 33 12 C34.32 12.33 35.64 12.66 37 13 C37 11.35 37 9.7 37 8 C37.99 8 38.98 8 40 8 C40 9.98 40 11.96 40 14 C43.465 13.505 43.465 13.505 47 13 C47.33 11.68 47.66 10.36 48 9 C48.66 9 49.32 9 50 9 C50 10.65 50 12.3 50 14 C50.99 14 51.98 14 53 14 C53 13.01 53 12.02 53 11 C53.99 11 54.98 11 56 11 C55.3954035 17.68238242 54.19365486 23.97321712 52.56640625 30.4765625 C52.20940895 31.93079117 52.20940895 31.93079117 51.84519958 33.41439819 C51.08961564 36.48593822 50.32603093 39.55542704 49.5625 42.625 C49.05354306 44.69258694 48.54507506 46.7602943 48.03710938 48.828125 C47.54731001 50.81521144 47.05708994 52.80219424 46.56640625 54.7890625 C46.22567833 56.16899887 46.22567833 56.16899887 45.87806702 57.57681274 C44.67431022 62.41381027 43.40324786 67.21696091 42 72 C40.35 71.67 38.7 71.34 37 71 C36.97421875 70.071875 36.9484375 69.14375 36.921875 68.1875 C36.45895366 55.9754832 34.96555856 43.92556005 33.37207031 31.8203125 C33.28266678 31.13653534 33.19326324 30.45275818 33.10115051 29.7482605 C32.85419085 27.86709848 32.60288826 25.98650807 32.35131836 24.10595703 C32 21 32 21 32 17 C31.41734375 17.19335938 30.8346875 17.38671875 30.234375 17.5859375 C18.12671246 21.43145296 5.29194568 23.37449061 -7.42578125 22.84765625 C-8.18415283 22.82300293 -8.94252441 22.79834961 -9.72387695 22.77294922 C-11.20936215 22.71718178 -12.69416243 22.63533075 -14.17651367 22.52392578 C-17.02828305 22.42117747 -19.28600175 22.42193239 -21.56323242 24.265625 C-26.55431181 30.12288018 -27.67965088 36.17949951 -27.5859375 43.6953125 C-26.29260595 50.98970246 -21.39698145 57.11111627 -16.75390625 62.70703125 C-15 65 -15 65 -14.6875 67.75 C-15 70 -15 70 -16 71 C-18.82416382 71.12663091 -21.61294793 71.18520548 -24.4375 71.1875 C-25.22705078 71.19974609 -26.01660156 71.21199219 -26.83007812 71.22460938 C-28.88807435 71.22987279 -30.94562009 71.12206285 -33 71 C-33.66 70.34 -34.32 69.68 -35 69 C-34.625 66.375 -34.625 66.375 -34 64 C-32.02 64 -30.04 64 -28 64 C-28.32613281 63.34773438 -28.65226563 62.69546875 -28.98828125 62.0234375 C-29.89479799 60.21040402 -30.7942037 58.39380241 -31.6875 56.57421875 C-32.99242901 53.90799842 -32.99242901 53.90799842 -34.8125 51.1875 C-38.30770762 41.8056269 -35.86383884 31.88400902 -32 23 C-31.34 22.01 -30.68 21.02 -30 20 C-29.34 20 -28.68 20 -28 20 C-27.87625 19.360625 -27.7525 18.72125 -27.625 18.0625 C-27.41875 17.381875 -27.2125 16.70125 -27 16 C-26.34 15.67 -25.68 15.34 -25 15 C-25 14.01 -25 13.02 -25 12 C-27.31 11.67 -29.62 11.34 -32 11 C-29 9 -29 9 -25 9 C-25 8.34 -25 7.68 -25 7 C-27.97 7 -30.94 7 -34 7 C-34 6.67 -34 6.34 -34 6 C-28.55586012 5.83180148 -23.11156683 5.67130577 -17.66699219 5.51782227 C-15.81634471 5.46458136 -13.96575564 5.40926709 -12.11523438 5.35180664 C-9.44934681 5.26939345 -6.78333551 5.19453475 -4.1171875 5.12109375 C-3.29507782 5.09405869 -2.47296814 5.06702362 -1.62594604 5.03916931 C2.7248056 4.92712568 6.71156887 5.10431502 11 6 C11 4.68 11 3.36 11 2 C9.948125 2.5259375 9.948125 2.5259375 8.875 3.0625 C5.49731414 4.1639193 3.41919407 3.79516141 0 3 C0 2.01 0 1.02 0 0 Z " fill="#DAC4B0" transform="translate(209,279)"/>
<path d="M0 0 C1.051875 0.226875 2.10375 0.45375 3.1875 0.6875 C7.09762213 2.51222366 8.27791087 5.2498307 10 9 C10.37382812 9.73089844 10.74765625 10.46179688 11.1328125 11.21484375 C13.50764095 16.0724474 14.45939126 19.60215265 14 25 C15.65 25 17.3 25 19 25 C19 26.32 19 27.64 19 29 C18.22785156 29.1959375 17.45570313 29.391875 16.66015625 29.59375 C12.9578088 31.55093808 12.68386143 33.57417864 11.4375 37.5 C9.4418993 43.74229424 9.4418993 43.74229424 6.91015625 45.21875 C6.27980469 45.4765625 5.64945312 45.734375 5 46 C4.67 46.99 4.34 47.98 4 49 C-2.98634394 54.30181939 -11.72939264 53.39228177 -20 53 C-20 51.68 -20 50.36 -20 49 C-19.29875 48.97421875 -18.5975 48.9484375 -17.875 48.921875 C-11.58595787 48.54589966 -6.11068676 47.92593665 -1 44 C0.88005274 41.76503935 2.39671608 39.45208128 4 37 C4.66 37 5.32 37 6 37 C6.2165625 35.824375 6.2165625 35.824375 6.4375 34.625 C7 32 7 32 8 30 C8.80138809 22.71045067 7.65452959 15.60257587 3.25 9.625 C0.30686575 7.49940304 -2.61158494 6.30323656 -6 5 C-6 4.34 -6 3.68 -6 3 C-16.50323847 3.46431999 -25.33792292 3.98154724 -33 12 C-36.07071204 17.29552983 -36.88531807 22.98561095 -36 29 C-33.96605301 36.86013704 -33.96605301 36.86013704 -29 43 C-26.68234271 43.71927295 -24.34904126 44.3909893 -22 45 C-21 46 -21 46 -20.98046875 47.890625 C-21.43539575 53.07507605 -22.05436735 56.27983208 -26 60 C-29.57748898 62.68311673 -33.71423913 62.496246 -38 62 C-42.81129665 60.86335063 -46.65273504 59.76963278 -50 56 C-50.53625 56.268125 -51.0725 56.53625 -51.625 56.8125 C-52.40875 57.204375 -53.1925 57.59625 -54 58 C-54.86625 58.53625 -55.7325 59.0725 -56.625 59.625 C-61.72288168 61.70191476 -66.87219325 62.11912352 -72.12890625 60.23828125 C-75.66027594 58.37306929 -77.59405527 56.69562616 -79 53 C-79.1953125 50.640625 -79.1953125 50.640625 -79.125 48.25 C-79.10695312 47.45078125 -79.08890625 46.6515625 -79.0703125 45.828125 C-79.04710937 45.22484375 -79.02390625 44.6215625 -79 44 C-76.625 43.375 -76.625 43.375 -74 43 C-71.3144406 45.6855594 -70.93950026 48.37621328 -70 52 C-63.52270122 51.03560218 -59.66054637 49.66054637 -55 45 C-54.46375 44.236875 -53.9275 43.47375 -53.375 42.6875 C-52.92125 42.130625 -52.4675 41.57375 -52 41 C-50.68 41 -49.36 41 -48 41 C-47.46375 42.0725 -46.9275 43.145 -46.375 44.25 C-44.19031148 48.02912786 -41.98334216 50.04738129 -38 52 C-34.33074368 52.58478294 -34.33074368 52.58478294 -31 52 C-30.34 51.01 -29.68 50.02 -29 49 C-29.75925781 48.76152344 -30.51851562 48.52304688 -31.30078125 48.27734375 C-34.44972076 46.7871799 -35.38796534 45.50061423 -37.1875 42.5625 C-37.67605469 41.78003906 -38.16460937 40.99757812 -38.66796875 40.19140625 C-39.10753906 39.46824219 -39.54710937 38.74507812 -40 38 C-40.66 37.01 -41.32 36.02 -42 35 C-43.10907729 23.52233965 -42.09604999 14.88267012 -34.75 5.6875 C-25.33617301 -4.19997867 -12.48427833 -3.97365444 0 0 Z " fill="#EFB620" transform="translate(230,147)"/>
<path d="M0 0 C1.11375 0.495 1.11375 0.495 2.25 1 C5.13883312 2.22782871 5.13883312 2.22782871 9 2 C9 2.99 9 3.98 9 5 C9.66 5 10.32 5 11 5 C11 5.99 11 6.98 11 8 C11.61875 8.04125 12.2375 8.0825 12.875 8.125 C15 9 15 9 16.25 11.5 C17.82545492 18.85212298 17.42356782 24.29551303 14 31 C13.34 31 12.68 31 12 31 C12 31.66 12 32.32 12 33 C5.92882383 37.33655441 0.16008058 37.12067552 -7 37 C-7.99 37 -8.98 37 -10 37 C-10.33 37.66 -10.66 38.32 -11 39 C-12.8125 38.9375 -12.8125 38.9375 -15 38 C-16.03485877 35.68191636 -17.0355414 33.34824702 -18 31 C-18.99 30.67 -19.98 30.34 -21 30 C-22.18629883 22.26326849 -22.72186088 16.52589411 -18 10 C-16 7.5 -16 7.5 -14 6 C-12.68 6 -11.36 6 -10 6 C-9.67 4.68 -9.34 3.36 -9 2 C-6.03 2 -3.06 2 0 2 C0 1.34 0 0.68 0 0 Z " fill="#F6F4F0" transform="translate(216,151)"/>
<path d="M0 0 C2.04110969 0.97716712 3.97785087 2.04913349 5.92578125 3.19921875 C6.70953125 3.61171875 7.49328125 4.02421875 8.30078125 4.44921875 C10.90307183 7.25168552 11.37476367 10.53888769 11.92578125 14.19921875 C12.0340625 14.87726563 12.14234375 15.5553125 12.25390625 16.25390625 C12.60226942 20.32342146 11.87806994 22.82388344 9.42578125 25.94921875 C5.04734589 30.4407123 0.15471528 33.34569887 -6.19921875 33.63671875 C-11.7351263 33.01169693 -15.2110465 31.40997743 -18.88671875 27.26171875 C-22.64981067 21.99339007 -22.6676126 16.5321635 -22.07421875 10.19921875 C-20.69921875 7.07421875 -20.69921875 7.07421875 -19.07421875 5.19921875 C-18.41421875 5.19921875 -17.75421875 5.19921875 -17.07421875 5.19921875 C-17.07421875 4.53921875 -17.07421875 3.87921875 -17.07421875 3.19921875 C-11.43134136 -0.08390991 -6.55095942 -2.52908979 0 0 Z " fill="#F6F4F0" transform="translate(158.07421875,151.80078125)"/>
<path d="M0 0 C0.99 0 1.98 0 3 0 C3 1.98 3 3.96 3 6 C6.465 5.505 6.465 5.505 10 5 C10.33 3.68 10.66 2.36 11 1 C11.66 1 12.32 1 13 1 C13 2.65 13 4.3 13 6 C13.99 6 14.98 6 16 6 C16 5.01 16 4.02 16 3 C16.99 3 17.98 3 19 3 C18.3954035 9.68238242 17.19365486 15.97321712 15.56640625 22.4765625 C15.32840805 23.44604828 15.09040985 24.41553406 14.84519958 25.41439819 C14.08961564 28.48593822 13.32603093 31.55542704 12.5625 34.625 C12.05354306 36.69258694 11.54507506 38.7602943 11.03710938 40.828125 C10.54731001 42.81521144 10.05708994 44.80219424 9.56640625 46.7890625 C9.3392543 47.70902008 9.11210236 48.62897766 8.87806702 49.57681274 C7.67431022 54.41381027 6.40324786 59.21696091 5 64 C3.35 63.67 1.7 63.34 0 63 C-0.03867188 61.6078125 -0.03867188 61.6078125 -0.078125 60.1875 C-0.53693272 48.09001913 -2.01231408 36.15874576 -3.62792969 24.171875 C-4.48342025 17.74679747 -5.25860082 11.49004636 -5 5 C-4.01 4.67 -3.02 4.34 -2 4 C-1.34 4.33 -0.68 4.66 0 5 C0 3.35 0 1.7 0 0 Z " fill="#252120" transform="translate(246,287)"/>
<path d="M0 0 C1.67016516 0.99414593 3.33720673 1.9935725 5 3 C8.35205511 2.82357605 10.97391301 2.56269287 13.9375 0.9375 C17.20861092 -0.5493686 20.5029644 -0.46762685 24 0 C26.01586684 0.96761608 28.01753602 1.96567096 30 3 C33.10501675 3.31050168 35.1241199 3.45674729 37.91015625 2.00390625 C41.49898708 0.27992583 45.10991162 0.4168181 49 1 C50.82421875 1.96875 50.82421875 1.96875 52.5 3.125 C56.80928457 5.43354531 58.30774842 4.86680299 62.8046875 3.6015625 C66.02370125 2.719484 68.68670008 2.63185556 72 3 C73.71267593 4.01491907 75.42496791 5.03199303 77.1015625 6.10546875 C81.48988288 8.17321642 86.53319951 7.4889335 91 6 C95.74014647 5.43118242 98.40899461 6.04551415 102.375 8.5 C107.14499211 11.41453907 110.48576441 11.43763775 116 11 C115.67 12.32 115.34 13.64 115 15 C105.4691767 16.53655975 105.4691767 16.53655975 101 14 C100.113125 13.236875 99.22625 12.47375 98.3125 11.6875 C95.25227598 9.70343717 95.25227598 9.70343717 92.640625 10.4453125 C90.9061519 11.02872618 89.17694542 11.62801196 87.453125 12.2421875 C83.93755587 13.32820726 81.5156509 12.99499554 78 12 C76.906875 11.278125 75.81375 10.55625 74.6875 9.8125 C71.51217248 7.82614041 69.68985053 7.94577091 66.0625 8.75 C65.21429688 8.96527344 64.36609375 9.18054688 63.4921875 9.40234375 C58.89374453 10.50510515 54.65011548 10.96592126 50.4375 8.5 C49.633125 8.005 48.82875 7.51 48 7 C44.41837609 6.68021215 41.85119355 6.65952258 38.5 8 C35.13790548 9.34483781 32.5971582 9.31554019 29 9 C26.99187074 8.01642648 24.99145391 7.01691264 23 6 C19.75346274 5.66872069 17.68757801 5.70266897 14.6875 7 C10.29151151 8.63571665 5.40287965 8.97704639 0.9921875 7.18359375 C0.35539062 6.87550781 -0.28140625 6.56742188 -0.9375 6.25 C-3.6158355 5.08689813 -4.62905322 4.89117334 -7.4765625 5.7265625 C-9.19346383 6.48905342 -10.90331244 7.26763745 -12.60546875 8.0625 C-16.03949557 9.40698032 -18.50187179 8.9794759 -22 8 C-23.0209375 7.443125 -23.0209375 7.443125 -24.0625 6.875 C-26.99575522 5.55030409 -28.93020544 6.20185342 -32 7 C-32.928125 7.53625 -33.85625 8.0725 -34.8125 8.625 C-40.53872847 11.09513777 -45.88106622 9.53912772 -51.5625 7.4375 C-52.696875 6.963125 -53.83125 6.48875 -55 6 C-55 4.68 -55 3.36 -55 2 C-47.25 2.875 -47.25 2.875 -45 4 C-41.41258221 4.32612889 -39.44563627 4.24307433 -36.25 2.5 C-31.85003521 0.46924702 -27.78285703 0.39227724 -23 1 C-21.66078933 1.65478012 -20.32666209 2.32015449 -19 3 C-16.03255351 2.75271279 -13.72241229 2.38853667 -11.08984375 0.97265625 C-7.51698405 -0.69022612 -3.85945229 -0.48677777 0 0 Z " fill="#B8B0A9" transform="translate(149,134)"/>
<path d="M0 0 C3.0625 0.1875 3.0625 0.1875 5.0625 2.1875 C5.1875 4.8125 5.1875 4.8125 5.0625 7.1875 C5.7225 7.1875 6.3825 7.1875 7.0625 7.1875 C7.30484375 7.8165625 7.5471875 8.445625 7.796875 9.09375 C10.41998901 15.79277963 13.37168827 22.15569965 16.875 28.4375 C18.0625 31.1875 18.0625 31.1875 18.125 33.375 C16.39037323 36.33406919 14.2199383 36.98193265 11.0625 38.1875 C8.38385313 38.68764232 5.78427338 38.95286436 3.0625 39.1875 C3.0625 41.1675 3.0625 43.1475 3.0625 45.1875 C4.0525 45.6825 4.0525 45.6825 5.0625 46.1875 C4.0725 46.1875 3.0825 46.1875 2.0625 46.1875 C2.0625 44.5375 2.0625 42.8875 2.0625 41.1875 C1.4025 41.1875 0.7425 41.1875 0.0625 41.1875 C-0.2675 42.8375 -0.5975 44.4875 -0.9375 46.1875 C-3.2475 46.1875 -5.5575 46.1875 -7.9375 46.1875 C-7.9375 44.2075 -7.9375 42.2275 -7.9375 40.1875 C-8.9275 40.1875 -9.9175 40.1875 -10.9375 40.1875 C-10.9375 41.8375 -10.9375 43.4875 -10.9375 45.1875 C-16.64885886 46.57207184 -21.07761092 47.20198495 -26.375 44.3125 C-29.04582804 41.81352148 -29.40810337 39.72936265 -29.5625 36.125 C-29.34926231 32.86827894 -29.08451637 31.41933351 -27.3125 28.625 C-24.32281341 26.81545285 -22.44849373 26.25634301 -18.9375 26.1875 C-16.44039354 26.98134873 -14.29533682 28.00858159 -11.9375 29.1875 C-11.9375 29.8475 -11.9375 30.5075 -11.9375 31.1875 C-9.9575 31.1875 -7.9775 31.1875 -5.9375 31.1875 C-5.85416643 36.0208472 -5.98488513 40.42442563 -6.9375 45.1875 C-5.2875 45.1875 -3.6375 45.1875 -1.9375 45.1875 C-1.958125 44.40375 -1.97875 43.62 -2 42.8125 C-1.9375 40.1875 -1.9375 40.1875 -0.9375 38.1875 C-0.8685528 36.81407169 -0.85282292 35.43747898 -0.875 34.0625 C-0.895625 32.78375 -0.91625 31.505 -0.9375 30.1875 C1.70988916 28.7268715 2.95698334 28.1875 6.0625 28.1875 C5.82015625 27.6527002 5.5778125 27.11790039 5.328125 26.56689453 C4.23572535 24.15048549 3.14905096 21.73154421 2.0625 19.3125 C1.6809375 18.47074219 1.299375 17.62898438 0.90625 16.76171875 C0.5453125 15.95605469 0.184375 15.15039062 -0.1875 14.3203125 C-0.52265625 13.57668457 -0.8578125 12.83305664 -1.203125 12.06689453 C-1.9375 10.1875 -1.9375 10.1875 -1.9375 8.1875 C-2.5975 8.1875 -3.2575 8.1875 -3.9375 8.1875 C-3.97991723 5.85455225 -3.97842937 3.52047433 -3.9375 1.1875 C-2.9375 0.1875 -2.9375 0.1875 0 0 Z " fill="#857D73" transform="translate(256.9375,246.8125)"/>
<path d="M0 0 C0.02698189 1.62490954 0.04638757 3.24994633 0.0625 4.875 C0.07410156 5.77992187 0.08570312 6.68484375 0.09765625 7.6171875 C0 10 0 10 -1 12 C-1.29804051 13.87086813 -1.56318961 15.74701703 -1.8125 17.625 C-2.97806001 25.57038233 -4.94979949 33.2470573 -7 41 C-13.29802513 40.06229404 -17.50255575 38.81121943 -22 34 C-25.74840493 28.65180854 -27.08667579 23.46517211 -26 17 C-23.85278442 9.96126657 -20.46023501 5.38920988 -14.375 1.1875 C-9.57310406 -0.50205598 -5.03958278 -0.24211519 0 0 Z " fill="#0B0809" transform="translate(93,51)"/>
<path d="M0 0 C1.32 0 2.64 0 4 0 C4.804375 1.60875 4.804375 1.60875 5.625 3.25 C7.80968852 7.02912786 10.01665784 9.04738129 14 11 C17.66857722 11.50125283 17.66857722 11.50125283 21 11 C23.22189824 8.77810176 23.92598892 6.91517292 25 4 C26.66611905 3.957279 28.33382885 3.95936168 30 4 C31 5 31 5 31.01953125 6.890625 C30.56460425 12.07507605 29.94563265 15.27983208 26 19 C22.42251102 21.68311673 18.28576087 21.496246 14 21 C9.18870335 19.86335063 5.34726496 18.76963278 2 15 C1.46375 15.268125 0.9275 15.53625 0.375 15.8125 C-0.40875 16.204375 -1.1925 16.59625 -2 17 C-2.86625 17.53625 -3.7325 18.0725 -4.625 18.625 C-9.72288168 20.70191476 -14.87219325 21.11912352 -20.12890625 19.23828125 C-23.66027594 17.37306929 -25.59405527 15.69562616 -27 12 C-27.1953125 9.640625 -27.1953125 9.640625 -27.125 7.25 C-27.10695312 6.45078125 -27.08890625 5.6515625 -27.0703125 4.828125 C-27.04710937 4.22484375 -27.02390625 3.6215625 -27 3 C-24.625 2.375 -24.625 2.375 -22 2 C-19.3144406 4.6855594 -18.93950026 7.37621328 -18 11 C-11.52270122 10.03560218 -7.66054637 8.66054637 -3 4 C-2.46375 3.236875 -1.9275 2.47375 -1.375 1.6875 C-0.92125 1.130625 -0.4675 0.57375 0 0 Z " fill="#110D0E" transform="translate(178,188)"/>
<path d="M0 0 C1.48214672 0.00187134 2.96429408 0.00329185 4.44644165 0.00428772 C8.29648631 0.00805661 12.1464916 0.01783685 15.996521 0.0289917 C19.94559192 0.03932878 23.89466937 0.04381134 27.84375 0.04882812 C35.5547052 0.05946581 43.26562828 0.0764721 50.9765625 0.09765625 C50.9765625 0.75765625 50.9765625 1.41765625 50.9765625 2.09765625 C51.96052002 2.09765625 52.94447754 2.09765625 53.95825195 2.09765625 C64.96435547 2.09765625 75.97045898 2.09765625 86.9765625 2.09765625 C86.3165625 2.75765625 85.6565625 3.41765625 84.9765625 4.09765625 C84.41628993 7.48288209 84.45104129 10.70913929 84.9765625 14.09765625 C87.72376712 17.51084987 89.49718198 18.00335189 93.7890625 18.84765625 C94.8409375 18.93015625 95.8928125 19.01265625 96.9765625 19.09765625 C96.6465625 19.75765625 96.3165625 20.41765625 95.9765625 21.09765625 C93.04712331 21.77071566 90.18928403 22.3167509 87.2265625 22.78515625 C86.00839844 22.99881836 86.00839844 22.99881836 84.765625 23.21679688 C80.57391677 23.90289895 77.12961323 24.35538909 72.9765625 23.09765625 C72.9765625 21.44765625 72.9765625 19.79765625 72.9765625 18.09765625 C72.3165625 18.09765625 71.6565625 18.09765625 70.9765625 18.09765625 C70.9765625 17.43765625 70.9765625 16.77765625 70.9765625 16.09765625 C69.9865625 15.60265625 69.9865625 15.60265625 68.9765625 15.09765625 C69.9665625 15.09765625 70.9565625 15.09765625 71.9765625 15.09765625 C71.9765625 14.43765625 71.9765625 13.77765625 71.9765625 13.09765625 C70.9865625 12.60265625 70.9865625 12.60265625 69.9765625 12.09765625 C72.14530502 12.60369617 73.97623877 13.09749438 75.9765625 14.09765625 C76.3065625 13.10765625 76.6365625 12.11765625 76.9765625 11.09765625 C78.6265625 11.09765625 80.2765625 11.09765625 81.9765625 11.09765625 C82.3065625 9.77765625 82.6365625 8.45765625 82.9765625 7.09765625 C49.49987812 4.81801401 16.67742267 3.60347093 -16.86206055 5.38574219 C-18.17035576 5.4547171 -18.17035576 5.4547171 -19.50508118 5.52508545 C-21.14604941 5.61228642 -22.78691853 5.70138282 -24.42765808 5.79278564 C-38.16705297 6.52584852 -38.16705297 6.52584852 -41.0234375 5.09765625 C-41.0234375 4.43765625 -41.0234375 3.77765625 -41.0234375 3.09765625 C-27.43617956 0.24155917 -13.83577641 -0.05231976 0 0 Z " fill="#CEC0B2" transform="translate(144.0234375,273.90234375)"/>
<path d="M0 0 C0.86625 0.309375 1.7325 0.61875 2.625 0.9375 C2.13127891 5.28224555 1.28225482 7.53621383 -1.375 10.9375 C-4.16451791 17.93665403 -4.69397829 25.94541762 -2.7578125 33.2734375 C-0.43101008 38.31827461 3.35952821 42.41318059 7.015625 46.54296875 C8.85692254 49.28256921 8.96943362 50.70556452 8.625 53.9375 C4.14263131 55.68969867 0.66916565 56.1549404 -4.125 55.8125 C-5.25421875 55.74804688 -6.3834375 55.68359375 -7.546875 55.6171875 C-10.375 54.9375 -10.375 54.9375 -11.765625 52.8828125 C-11.96671875 52.24085938 -12.1678125 51.59890625 -12.375 50.9375 C-10.375 47.9375 -10.375 47.9375 -7.75 47.25 C-6.574375 47.0953125 -6.574375 47.0953125 -5.375 46.9375 C-6.24056387 44.49818365 -7.12824254 42.2886846 -8.62109375 40.1640625 C-14.01577077 32.18666475 -13.35276076 23.10861297 -11.8984375 13.9296875 C-10.30872133 7.66658885 -7.28728657 -0.13494975 0 0 Z " fill="#877F76" transform="translate(158.375,295.0625)"/>
<path d="M0 0 C0.33 0.66 0.66 1.32 1 2 C0.0625 4.625 0.0625 4.625 -1 7 C0.32 7.33 1.64 7.66 3 8 C2.34 8 1.68 8 1 8 C1.33 8.99 1.66 9.98 2 11 C1.319375 11.53625 0.63875 12.0725 -0.0625 12.625 C-2.33605153 14.86131862 -2.33605153 14.86131862 -1.8125 17.8671875 C-0.96711402 21.12680075 0.02057614 22.85805751 2.0625 25.5 C5.53070027 30.20531089 8.42442717 35.07188072 11.24633789 40.17773438 C12.62411816 42.65555917 13.98969815 44.98677466 15.734375 47.2265625 C17 49 17 49 17 52 C17.66 52 18.32 52 19 52 C19 53.98 19 55.96 19 58 C15.75 58.3125 15.75 58.3125 12 58 C8.92393926 54.69513825 6.6308562 50.95009085 4.28515625 47.10546875 C3.59873047 45.98462891 2.91230469 44.86378906 2.20507812 43.70898438 C1.49076699 42.53522831 0.77657501 41.36139973 0.0625 40.1875 C-0.64746479 39.02519408 -1.35774879 37.86308308 -2.06835938 36.70117188 C-3.43444869 34.46703331 -4.79579136 32.22998387 -6.15185547 29.98974609 C-7.269201 28.1822146 -8.41652617 26.39212073 -9.61767578 24.63916016 C-11.82817365 21.40867208 -12.94793067 19.27671127 -13.68359375 15.3671875 C-12.74759833 10.75674148 -10.61673725 9.0135742 -7.0625 6.125 C-6.49853516 5.6403125 -5.93457031 5.155625 -5.35351562 4.65625 C-3.91492227 3.42267773 -2.45873731 2.2096846 -1 1 C-0.67 0.67 -0.34 0.34 0 0 Z " fill="#878076" transform="translate(66,122)"/>
<path d="M0 0 C0.75 3.1875 0.75 3.1875 1 7 C-0.8125 9.5625 -0.8125 9.5625 -3 12 C-5.74374442 17.62467606 -6.08088287 23.90382064 -5 30 C-2.28708991 35.74725502 1.18388087 40.81118164 5.24609375 45.70703125 C7 48 7 48 7.3125 50.75 C7 53 7 53 6 54 C3.17583618 54.12663091 0.38705207 54.18520548 -2.4375 54.1875 C-3.22705078 54.19974609 -4.01660156 54.21199219 -4.83007812 54.22460938 C-6.88807435 54.22987279 -8.94562009 54.12206285 -11 54 C-11.66 53.34 -12.32 52.68 -13 52 C-12.625 49.375 -12.625 49.375 -12 47 C-10.02 47 -8.04 47 -6 47 C-6.32613281 46.34773438 -6.65226563 45.69546875 -6.98828125 45.0234375 C-7.89479799 43.21040402 -8.7942037 41.39380241 -9.6875 39.57421875 C-10.99242901 36.90799842 -10.99242901 36.90799842 -12.8125 34.1875 C-16.30770762 24.8056269 -13.86383884 14.88400902 -10 6 C-9.34 5.01 -8.68 4.02 -8 3 C-7.34 3 -6.68 3 -6 3 C-6 2.34 -6 1.68 -6 1 C-4 0 -4 0 0 0 Z " fill="#877F76" transform="translate(187,296)"/>
<path d="M0 0 C0 0.66 0 1.32 0 2 C1.051875 2.226875 2.10375 2.45375 3.1875 2.6875 C7.25515645 3.88725322 9.3805025 5.58010049 12 9 C15.03096816 15.26886988 16.48721771 22.35885507 14.3203125 29.12109375 C13.61939123 30.77994076 12.81898586 32.39615269 12 34 C11.34 34 10.68 34 10 34 C9.773125 34.556875 9.54625 35.11375 9.3125 35.6875 C7.19856987 39.41204357 4.48396467 42.1096212 0.8125 44.3125 C-4.38179337 45.58221616 -9.84294195 46.1036111 -14.6875 43.625 C-15.450625 43.08875 -16.21375 42.5525 -17 42 C-18.175625 41.71125 -19.35125 41.4225 -20.5625 41.125 C-24.58492204 39.80857097 -25.79910478 38.55529228 -28 35 C-28.75 32.6875 -28.75 32.6875 -29 31 C-27.1875 31.0625 -27.1875 31.0625 -25 32 C-23.25 35.5625 -23.25 35.5625 -22 39 C-20.02463255 38.65213292 -20.02463255 38.65213292 -18 38 C-17.67 37.34 -17.34 36.68 -17 36 C-16.34 36.33 -15.68 36.66 -15 37 C-9.31508852 37.49786394 -4.42416535 36.84421622 1 35 C1.99 34.67 2.98 34.34 4 34 C4 33.34 4 32.68 4 32 C4.66 32 5.32 32 6 32 C8.5402337 24.53806351 8.58566564 17.73011999 7 10 C5.68 9.67 4.36 9.34 3 9 C3 8.01 3 7.02 3 6 C2.34 6 1.68 6 1 6 C0.67 5.34 0.34 4.68 0 4 C-2.7696959 3.27113266 -5.12862585 3 -8 3 C-11 3 -14 3 -17 3 C-17.11730469 3.64066406 -17.23460937 4.28132812 -17.35546875 4.94140625 C-17.56816406 5.62074219 -17.78085938 6.30007812 -18 7 C-19.6635479 7.67441131 -21.33066942 8.3400321 -23 9 C-28.39732151 14.70573988 -29.22586569 19.37728592 -29.0703125 26.98828125 C-29.04710937 27.65214844 -29.02390625 28.31601563 -29 29 C-32.02057166 24.46914251 -31.5834527 20.13678033 -30.60546875 14.87890625 C-28.81766751 8.96186087 -25.04529776 5.40439718 -20 2 C-13.68329684 -0.84870927 -6.80228094 -0.18412189 0 0 Z " fill="#EEE2CB" transform="translate(224,150)"/>
<path d="M0 0 C2.375 0.8125 2.375 0.8125 3.375 2.8125 C4.72007194 18.97923002 0.20094389 34.57167325 -4.625 49.8125 C-7.46467231 49.8125 -9.86235711 49.40982819 -12.625 48.8125 C-12.21233518 43.6541897 -11.16798041 39.02678748 -9.6875 34.0625 C-6.84146257 24.35492507 -5.29611383 15.43814106 -5.84765625 5.30859375 C-5.625 2.8125 -5.625 2.8125 -4.28515625 0.9609375 C-2.625 -0.1875 -2.625 -0.1875 0 0 Z " fill="#120E0E" transform="translate(104.625,45.1875)"/>
<path d="M0 0 C0.99 0 1.98 0 3 0 C3 1.98 3 3.96 3 6 C5.31 6.33 7.62 6.66 10 7 C9.60903257 13.656735 9.1538522 20.10997423 7.54296875 26.58984375 C6.39864568 31.669321 5.74825169 36.84979952 5 42 C4.67 42 4.34 42 4 42 C3.67 39.69 3.34 37.38 3 35 C2.67 39.95 2.34 44.9 2 50 C1.34 50 0.68 50 0 50 C-1.57222341 41.97035836 -2.70145857 33.94060697 -3.625 25.8125 C-3.7590625 24.68908203 -3.893125 23.56566406 -4.03125 22.40820312 C-4.70402681 16.56259648 -5.15804866 10.8837204 -5 5 C-4.01 4.67 -3.02 4.34 -2 4 C-1.34 4.33 -0.68 4.66 0 5 C0 3.35 0 1.7 0 0 Z " fill="#120E0E" transform="translate(246,287)"/>
<path d="M0 0 C0.79664063 0.15984375 1.59328125 0.3196875 2.4140625 0.484375 C3.06117188 0.73703125 3.70828125 0.9896875 4.375 1.25 C4.705 2.24 5.035 3.23 5.375 4.25 C7.355 4.25 9.335 4.25 11.375 4.25 C11.45833357 9.0833472 11.32761487 13.48692563 10.375 18.25 C12.355 18.25 14.335 18.25 16.375 18.25 C16.375 18.58 16.375 18.91 16.375 19.25 C14.065 19.25 11.755 19.25 9.375 19.25 C9.375 17.27 9.375 15.29 9.375 13.25 C8.385 13.25 7.395 13.25 6.375 13.25 C6.375 14.9 6.375 16.55 6.375 18.25 C0.66364114 19.63457184 -3.76511092 20.26448495 -9.0625 17.375 C-11.73332804 14.87602148 -12.09560337 12.79186265 -12.25 9.1875 C-12.04283664 5.79204208 -11.8135533 4.51657536 -9.8125 1.6875 C-6.23798237 -0.66146873 -4.07017858 -0.87502211 0 0 Z " fill="#80786E" transform="translate(239.625,273.75)"/>
<path d="M0 0 C3.3125 0.125 3.3125 0.125 6.25 0.6875 C9.428246 1.29086133 9.428246 1.29086133 13.0625 0.5625 C14.67125 0.3459375 14.67125 0.3459375 16.3125 0.125 C18.3125 2.125 18.3125 2.125 18.75 5.375 C18.17336354 10.31759827 16.79023249 11.64726751 13.3125 15.125 C9.77120816 17.48586122 8.48499782 17.69769578 4.3125 17.125 C0.7491795 14.65808581 -2.43382675 12.38748906 -3.6875 8.125 C-3.875 4.4375 -3.875 4.4375 -3.6875 1.125 C-2.6875 0.125 -2.6875 0.125 0 0 Z " fill="#66615D" transform="translate(171.6875,208.875)"/>
<path d="M0 0 C3.69265378 5.53898066 1.88503074 12.12729376 0.7578125 18.3984375 C-0.16310617 22.77517466 -1.18759981 27.10897509 -2.3125 31.4375 C-2.50094482 32.20682861 -2.68938965 32.97615723 -2.88354492 33.76879883 C-4.22824274 38.72143436 -5.81773865 41.73848456 -10 45 C-10.99 45 -11.98 45 -13 45 C-12.67 44.34 -12.34 43.68 -12 43 C-11.79171187 41.43783906 -11.58470013 39.875501 -11.3828125 38.3125 C-10.90026071 35.39749325 -10.1974435 32.55852957 -9.5 29.6875 C-8.32655919 24.75449155 -7.55846428 19.98146841 -7.2109375 14.92578125 C-7 13 -7 13 -6 11 C-5.77532169 9.46331135 -5.59203195 7.92031946 -5.4375 6.375 C-5.35371094 5.55773438 -5.26992187 4.74046875 -5.18359375 3.8984375 C-5.12300781 3.27195313 -5.06242187 2.64546875 -5 2 C-3.68 2 -2.36 2 -1 2 C-0.67 1.34 -0.34 0.68 0 0 Z " fill="#8F8882" transform="translate(98,50)"/>
<path d="M0 0 C0.66 0.33 1.32 0.66 2 1 C1.34 1.66 0.68 2.32 0 3 C-0.56027257 6.38522584 -0.52552121 9.61148304 0 13 C2.74720462 16.41319362 4.52061948 16.90569564 8.8125 17.75 C9.864375 17.8325 10.91625 17.915 12 18 C11.67 18.66 11.34 19.32 11 20 C8.07056081 20.67305941 5.21272153 21.21909465 2.25 21.6875 C1.43789062 21.82994141 0.62578125 21.97238281 -0.2109375 22.11914062 C-4.40264573 22.8052427 -7.84694927 23.25773284 -12 22 C-12 20.35 -12 18.7 -12 17 C-12.66 17 -13.32 17 -14 17 C-14 16.34 -14 15.68 -14 15 C-14.66 14.67 -15.32 14.34 -16 14 C-15.01 14 -14.02 14 -13 14 C-13 13.34 -13 12.68 -13 12 C-13.66 11.67 -14.32 11.34 -15 11 C-12.83125748 11.50603992 -11.00032373 11.99983813 -9 13 C-8.67 12.01 -8.34 11.02 -8 10 C-6.35 10 -4.7 10 -3 10 C-2.67 8.68 -2.34 7.36 -2 6 C-2.99 5.96261719 -3.98 5.92523438 -5 5.88671875 C-12.1317897 5.55372743 -18.44288463 5.07782966 -25 2 C-25 1.67 -25 1.34 -25 1 C-23.91730835 1.00785522 -23.91730835 1.00785522 -22.81274414 1.01586914 C-19.56267151 1.03657358 -16.31261272 1.04963918 -13.0625 1.0625 C-11.35803711 1.07506836 -11.35803711 1.07506836 -9.61914062 1.08789062 C-8.53955078 1.09111328 -7.45996094 1.09433594 -6.34765625 1.09765625 C-5.34742432 1.10289307 -4.34719238 1.10812988 -3.31665039 1.11352539 C-1.03792772 1.26181095 -1.03792772 1.26181095 0 0 Z " fill="#BBA695" transform="translate(229,275)"/>
<path d="M0 0 C0.65871094 0.34289062 1.31742188 0.68578125 1.99609375 1.0390625 C4.55802867 2.2675927 6.13994911 2.04527615 8.9375 1.6875 C10.25621094 1.52701172 10.25621094 1.52701172 11.6015625 1.36328125 C13.34956692 1.09851837 15.08665792 0.75852046 16.8125 0.375 C19.44091261 -0.07558502 21.4358265 0.3406411 24 1 C24.495 2.485 24.495 2.485 25 4 C24.05125 3.9175 23.1025 3.835 22.125 3.75 C18.63686833 3.71469502 16.17222016 4.65100755 13 6.0625 C8.57244514 7.96675232 5.75790986 8.33221476 1 7 C-0.0209375 6.443125 -0.0209375 6.443125 -1.0625 5.875 C-3.99575522 4.55030409 -5.93020544 5.20185342 -9 6 C-9.928125 6.53625 -10.85625 7.0725 -11.8125 7.625 C-17.53872847 10.09513777 -22.88106622 8.53912772 -28.5625 6.4375 C-29.696875 5.963125 -30.83125 5.48875 -32 5 C-32 3.68 -32 2.36 -32 1 C-24.25 1.875 -24.25 1.875 -22 3 C-18.41258221 3.32612889 -16.44563627 3.24307433 -13.25 1.5 C-8.85003521 -0.53075298 -4.78285703 -0.60772276 0 0 Z " fill="#B6AFA8" transform="translate(126,135)"/>
<path d="M0 0 C3.99590648 0.55115952 7.68630759 1.56130759 10.625 4.5 C10.64453125 6.71484375 10.64453125 6.71484375 10.4375 9.4375 C10.38207031 10.33339844 10.32664063 11.22929687 10.26953125 12.15234375 C9.625 14.5 9.625 14.5 7.57421875 15.81640625 C6.60935547 16.15478516 6.60935547 16.15478516 5.625 16.5 C5.625 17.16 5.625 17.82 5.625 18.5 C2.69593421 18.7978711 0.48147449 19.00159903 -2.375 18.5 C-5.94742969 15.44854964 -7.20356498 13.58575513 -7.9375 8.9375 C-7.05771878 3.56105919 -5.58434915 0.82731099 0 0 Z " fill="#151011" transform="translate(151.375,159.5)"/>
<path d="M0 0 C3.375 2.125 3.375 2.125 6 5 C6.67818179 8.61696953 6.26562024 10.41563546 4.75 13.75 C2.11870158 17.13309797 0.23782188 17.78930691 -3.9375 18.5 C-7.48424749 17.92093918 -8.95919903 16.7437168 -11.0859375 13.85546875 C-12.78727247 10.40190418 -12.49820331 7.79880023 -12 4 C-9.15875461 -0.19421939 -4.75687779 -0.55963268 0 0 Z " fill="#130F0F" transform="translate(218,162)"/>
<path d="M0 0 C5.94 0.66 11.88 1.32 18 2 C17.67 3.65 17.34 5.3 17 7 C15.35 7 13.7 7 12 7 C11.67 7.66 11.34 8.32 11 9 C9.68 8.67 8.36 8.34 7 8 C6.67 9.65 6.34 11.3 6 13 C6.66 13 7.32 13 8 13 C8.33 13.99 8.66 14.98 9 16 C8.67 16.66 8.34 17.32 8 18 C9.98 18.33 11.96 18.66 14 19 C14 19.33 14 19.66 14 20 C4.37402528 21.30521691 -5.40719244 21.78470838 -15 20 C-14.67 18.68 -14.34 17.36 -14 16 C-10.04 16 -6.08 16 -2 16 C-1.01 13.69 -0.02 11.38 1 9 C0.01 8.67 -0.98 8.34 -2 8 C-2 7.34 -2 6.68 -2 6 C2.29 6 6.58 6 11 6 C11 4.68 11 3.36 11 2 C10.29875 2.350625 9.5975 2.70125 8.875 3.0625 C5.49731414 4.1639193 3.41919407 3.79516141 0 3 C0 2.01 0 1.02 0 0 Z " fill="#D0BFAF" transform="translate(209,279)"/>
<path d="M0 0 C1.71267593 1.01491907 3.42496791 2.03199303 5.1015625 3.10546875 C9.48988288 5.17321642 14.53319951 4.4889335 19 3 C23.74014647 2.43118242 26.40899461 3.04551415 30.375 5.5 C35.14499211 8.41453907 38.48576441 8.43763775 44 8 C43.67 9.32 43.34 10.64 43 12 C33.4691767 13.53655975 33.4691767 13.53655975 29 11 C28.113125 10.236875 27.22625 9.47375 26.3125 8.6875 C23.25227598 6.70343717 23.25227598 6.70343717 20.640625 7.4453125 C18.9061519 8.02872618 17.17694542 8.62801196 15.453125 9.2421875 C11.26618945 10.5356039 7.90993329 9.93240838 4.015625 8.03125 C2.31119665 7.07677012 0.65084974 6.04441514 -1 5 C-1 4.34 -1 3.68 -1 3 C-1.55429688 3.16757813 -2.10859375 3.33515625 -2.6796875 3.5078125 C-3.76636719 3.81332031 -3.76636719 3.81332031 -4.875 4.125 C-5.95394531 4.43824219 -5.95394531 4.43824219 -7.0546875 4.7578125 C-7.69664062 4.83773437 -8.33859375 4.91765625 -9 5 C-9.66 4.34 -10.32 3.68 -11 3 C-8.92061742 -1.15876515 -4.06515766 -0.33876314 0 0 Z " fill="#9D9794" transform="translate(221,137)"/>
<path d="M0 0 C1.6875 1.5 1.6875 1.5 3 3 C3.33 2.01 3.66 1.02 4 0 C5.65 0 7.3 0 9 0 C9.495 1.485 9.495 1.485 10 3 C10.66 3.45375 11.32 3.9075 12 4.375 C14 6 14 6 14.875 8.5625 C14.91625 9.366875 14.9575 10.17125 15 11 C14.34 11.66 13.68 12.32 13 13 C13 12.01 13 11.02 13 10 C12.18208984 10.19529297 12.18208984 10.19529297 11.34765625 10.39453125 C5.2402865 11.51160572 2.31505465 10.418024 -2.859375 7.15234375 C-5.97733096 5.47388206 -8.54203121 5.58504374 -12 6 C-12.99 6.33 -13.98 6.66 -15 7 C-16.56118428 7.06740865 -18.1250252 7.08514456 -19.6875 7.0625 C-20.89986328 7.04896484 -20.89986328 7.04896484 -22.13671875 7.03515625 C-23.05904297 7.01775391 -23.05904297 7.01775391 -24 7 C-24.33 6.34 -24.66 5.68 -25 5 C-24.1646875 5.03480469 -24.1646875 5.03480469 -23.3125 5.0703125 C-17.8234393 5.20012137 -13.24606298 4.65665147 -8 3 C-7.34 2.34 -6.68 1.68 -6 1 C-3 0 -3 0 0 0 Z " fill="#D6C5B5" transform="translate(252,135)"/>
<path d="M0 0 C2.3125 1.3125 2.3125 1.3125 4 4 C4.74928422 9.9295208 4.39121548 15.4703142 2 21 C0.35 21 -1.3 21 -3 21 C-2.67 16.38 -2.34 11.76 -2 7 C-3.98 7 -5.96 7 -8 7 C-8.66 5.35 -9.32 3.7 -10 2 C-6.53269093 0.41494443 -3.81875349 -0.58750054 0 0 Z " fill="#EFB419" transform="translate(253,271)"/>
<path d="M0 0 C3.96 0.33 7.92 0.66 12 1 C12 1.33 12 1.66 12 2 C8.37 2 4.74 2 1 2 C1 3.32 1 4.64 1 6 C9.48260844 5.67589507 17.05180937 5.20716464 25 2 C25 2.66 25 3.32 25 4 C24.01 4.495 24.01 4.495 23 5 C23.99 6.485 23.99 6.485 25 8 C24.34 8 23.68 8 23 8 C23 8.66 23 9.32 23 10 C21.68 10 20.36 10 19 10 C18.67 10.99 18.34 11.98 18 13 C14.33333333 13 10.66666667 13 7 13 C7 11.66666667 7 10.33333333 7 9 C4.36 8.01 1.72 7.02 -1 6 C-0.67 4.02 -0.34 2.04 0 0 Z " fill="#E6CDA1" transform="translate(209,194)"/>
<path d="M0 0 C0.33 0 0.66 0 1 0 C1 3.3 1 6.6 1 10 C1.66 10 2.32 10 3 10 C3 12.97 3 15.94 3 19 C3.66 19 4.32 19 5 19 C4.01 23.29 3.02 27.58 2 32 C0.35 31.67 -1.3 31.34 -3 31 C-3 26.71 -3 22.42 -3 18 C-2.34 18 -1.68 18 -1 18 C-1.01160156 16.95199219 -1.02320313 15.90398437 -1.03515625 14.82421875 C-1.04453655 13.44531428 -1.0536365 12.06640789 -1.0625 10.6875 C-1.07087891 9.99720703 -1.07925781 9.30691406 -1.08789062 8.59570312 C-1.10307906 5.4516975 -1.00193327 3.00579981 0 0 Z " fill="#403B39" transform="translate(249,319)"/>
<path d="M0 0 C2.97 0.33 5.94 0.66 9 1 C8.60903257 7.656735 8.1538522 14.10997423 6.54296875 20.58984375 C5.39864568 25.669321 4.74825169 30.84979952 4 36 C3.67 36 3.34 36 3 36 C2.505 18.675 2.505 18.675 2 1 C1.34 0.67 0.68 0.34 0 0 Z " fill="#060305" transform="translate(247,293)"/>
<path d="M0 0 C1 2 1 2 0.4765625 4.0234375 C0.19554687 4.79945313 -0.08546875 5.57546875 -0.375 6.375 C-1.39800186 9.23366874 -2.31105361 12.04158316 -3 15 C-2.38125 15.061875 -1.7625 15.12375 -1.125 15.1875 C1 16 1 16 2.125 18.25 C2.70833333 20.08333333 3.29166667 21.91666667 3.875 23.75 C4.77795791 26.18940766 4.77795791 26.18940766 7.125 26.8125 C8.053125 26.9053125 8.053125 26.9053125 9 27 C5.65671642 30.94029851 5.65671642 30.94029851 2.9375 31.1875 C-0.12488171 29.31055637 -0.66973689 26.23890148 -2 23 C-2.99 22.67 -3.98 22.34 -5 22 C-6.17907539 14.31037791 -6.71852884 8.50256625 -2 2 C-1.34 1.34 -0.68 0.68 0 0 Z " fill="#F1EADD" transform="translate(200,159)"/>
<path d="M0 0 C0.99 0 1.98 0 3 0 C3 0.66 3 1.32 3 2 C2.34 2 1.68 2 1 2 C1.3403125 2.8971875 1.3403125 2.8971875 1.6875 3.8125 C1.790625 4.534375 1.89375 5.25625 2 6 C0.5625 7.75 0.5625 7.75 -1 9 C-0.67 9.66 -0.34 10.32 0 11 C0.25600421 16.1200842 0.25130597 20.28297796 -2 25 C-4.625 27.375 -4.625 27.375 -7 29 C-7.66 28.67 -8.32 28.34 -9 28 C-8.67 27.34 -8.34 26.68 -8 26 C-7.86464844 24.97390625 -7.72929688 23.9478125 -7.58984375 22.890625 C-6.94943908 18.66649881 -5.8608179 14.8077166 -4.5625 10.75 C-4.34529297 10.04359375 -4.12808594 9.3371875 -3.90429688 8.609375 C-2.8863357 5.38124587 -1.89002022 2.83503033 0 0 Z " fill="#A49C95" transform="translate(94,67)"/>
<path d="M0 0 C1.84923797 3.69847593 2.25033796 4.80202304 2.23046875 8.66015625 C2.22853516 9.53607422 2.22660156 10.41199219 2.22460938 11.31445312 C2.21236328 12.22130859 2.20011719 13.12816406 2.1875 14.0625 C2.18685547 14.97322266 2.18621094 15.88394531 2.18554688 16.82226562 C2.14074248 23.57777256 2.14074248 23.57777256 1 27 C0.77281504 29.56634861 0.58391816 32.11678107 0.4375 34.6875 C0.39431641 35.38939453 0.35113281 36.09128906 0.30664062 36.81445312 C0.2008264 38.54275206 0.09993419 40.2713511 0 42 C-0.66 42 -1.32 42 -2 42 C-3.32388229 35.56971459 -4.24794402 29.5705166 -4 23 C-3.01 22.67 -2.02 22.34 -1 22 C-0.67 14.74 -0.34 7.48 0 0 Z " fill="#241F1E" transform="translate(248,295)"/>
<path d="M0 0 C1.32946534 0.88073595 2.63606299 1.79639808 3.92578125 2.734375 C8.33783106 4.98733661 12.99611545 5.50984069 17.86328125 6.234375 C17.86328125 6.564375 17.86328125 6.894375 17.86328125 7.234375 C16.44015625 7.6365625 16.44015625 7.6365625 14.98828125 8.046875 C11.61060852 8.98424088 11.61060852 8.98424088 9.86328125 12.234375 C9.20328125 10.584375 8.54328125 8.934375 7.86328125 7.234375 C7.15042969 7.32976562 6.43757813 7.42515625 5.703125 7.5234375 C-0.19016082 8.20556749 -4.5683983 8.33796272 -10.13671875 6.234375 C-10.13671875 5.574375 -10.13671875 4.914375 -10.13671875 4.234375 C-8.52734375 2.875 -8.52734375 2.875 -6.38671875 1.484375 C-5.690625 1.01515625 -4.99453125 0.5459375 -4.27734375 0.0625 C-2.13671875 -0.765625 -2.13671875 -0.765625 0 0 Z " fill="#DDCFC2" transform="translate(180.13671875,202.765625)"/>
<path d="M0 0 C0 0.33 0 0.66 0 1 C-2.64 1 -5.28 1 -8 1 C-8 1.66 -8 2.32 -8 3 C-10.97 3 -13.94 3 -17 3 C-17.33 4.32 -17.66 5.64 -18 7 C-19.6635479 7.67441131 -21.33066942 8.3400321 -23 9 C-28.39732151 14.70573988 -29.22586569 19.37728592 -29.0703125 26.98828125 C-29.04710937 27.65214844 -29.02390625 28.31601563 -29 29 C-32.02057166 24.46914251 -31.5834527 20.13678033 -30.60546875 14.87890625 C-28.81766751 8.96186087 -25.04529776 5.40439718 -20 2 C-13.68329684 -0.84870927 -6.80228094 -0.18412189 0 0 Z " fill="#EDDAB1" transform="translate(224,150)"/>
<path d="M0 0 C-12.77125578 8.51417052 -35.09306545 8.13778672 -50 7 C-50.66 6.34 -51.32 5.68 -52 5 C-49.01504821 4.13202318 -46.40024937 3.89293619 -43.296875 3.9375 C-42.39839844 3.94523437 -41.49992188 3.95296875 -40.57421875 3.9609375 C-38.70702825 3.98676309 -36.83984067 4.01280112 -34.97265625 4.0390625 C-29.53903014 4.08557 -24.37552817 3.80759109 -19 3 C-19 2.67 -19 2.34 -19 2 C-16.39740876 1.46989799 -13.793443 0.95062205 -11.1875 0.4375 C-10.44951172 0.28603516 -9.71152344 0.13457031 -8.95117188 -0.02148438 C-3.33984375 -1.11328125 -3.33984375 -1.11328125 0 0 Z " fill="#E6D7C7" transform="translate(241,295)"/>
<path d="M0 0 C2.61353187 0.50260228 4.35559746 1.20674271 6.6875 2.5625 C10.92812148 4.4027697 14.45078829 4.2729527 19 4 C18.67 5.32 18.34 6.64 18 8 C8.37454279 9.55181663 8.37454279 9.55181663 4 7 C2.29705213 5.71332828 0.62053812 4.38903267 -1 3 C-0.67 2.01 -0.34 1.02 0 0 Z " fill="#979392" transform="translate(246,141)"/>
<path d="M0 0 C1.32 0 2.64 0 4 0 C4.07654536 4.51617599 4.10228696 8.59085217 3 13 C2.360625 13.103125 1.72125 13.20625 1.0625 13.3125 C0.0415625 13.6528125 0.0415625 13.6528125 -1 14 C-1.33 14.99 -1.66 15.98 -2 17 C-2.33 17 -2.66 17 -3 17 C-2.22095672 5.47835991 -2.22095672 5.47835991 0 0 Z " fill="#0D090A" transform="translate(259,294)"/>
<path d="M0 0 C2.50286401 1.19184 4.44319634 2.5602627 6.625 4.25 C6.06627197 4.22381592 5.50754395 4.19763184 4.93188477 4.1706543 C-9.62301046 3.18590916 -9.62301046 3.18590916 -22.375 9.25 C-23.365 9.745 -23.365 9.745 -24.375 10.25 C-23.30098892 7.33482708 -22.59689824 5.47189824 -20.375 3.25 C-17.70110838 2.64779812 -15.07461169 2.13350228 -12.375 1.6875 C-0.86761993 -0.27398524 -0.86761993 -0.27398524 0 0 Z " fill="#EAC982" transform="translate(220.375,141.75)"/>
<path d="M0 0 C0.845625 0.495 1.69125 0.99 2.5625 1.5 C2.5625 3.15 2.5625 4.8 2.5625 6.5 C-2.1875 4.625 -2.1875 4.625 -4.4375 3.5 C-4.4375 2.84 -4.4375 2.18 -4.4375 1.5 C-4.99179688 1.66757813 -5.54609375 1.83515625 -6.1171875 2.0078125 C-7.20386719 2.31332031 -7.20386719 2.31332031 -8.3125 2.625 C-9.39144531 2.93824219 -9.39144531 2.93824219 -10.4921875 3.2578125 C-11.13414062 3.33773437 -11.77609375 3.41765625 -12.4375 3.5 C-13.0975 2.84 -13.7575 2.18 -14.4375 1.5 C-11.85685035 -3.66129929 -4.31416796 -1.88254602 0 0 Z " fill="#ABA39C" transform="translate(224.4375,138.5)"/>
<path d="M0 0 C0.433125 0.474375 0.86625 0.94875 1.3125 1.4375 C3.02309613 3.23686957 3.02309613 3.23686957 6 4 C6 3.01 6 2.02 6 1 C8.375 0.375 8.375 0.375 11 0 C11.66 0.66 12.32 1.32 13 2 C7.84290377 6.20710482 5.71792803 7.12440607 -1 7 C-1.66 5.35 -2.32 3.7 -3 2 C-2.01 1.34 -1.02 0.68 0 0 Z " fill="#DACDC0" transform="translate(161,192)"/>
<path d="M0 0 C0.33 0 0.66 0 1 0 C1 1.98 1 3.96 1 6 C2.65 6 4.3 6 6 6 C6 8.64 6 11.28 6 14 C4.35 14 2.7 14 1 14 C1 15.65 1 17.3 1 19 C0.34 19 -0.32 19 -1 19 C-1 20.65 -1 22.3 -1 24 C-1.99 24 -2.98 24 -4 24 C-3.27771105 20.21115095 -2.4751853 16.57178566 -1 13 C2.1875 11.3125 2.1875 11.3125 5 11 C5 9.68 5 8.36 5 7 C3.35 7 1.7 7 0 7 C0 4.69 0 2.38 0 0 Z " fill="#E9C473" transform="translate(244,165)"/>
<path d="M0 0 C4.21827202 1.51307583 8.24510939 1.24238136 12.6875 1.15625 C14.01297852 1.14271484 14.01297852 1.14271484 15.36523438 1.12890625 C17.53527359 1.10544637 19.70517247 1.06957865 21.875 1.03125 C22.205 2.35125 22.535 3.67125 22.875 5.03125 C0.07372014 3.05626099 0.07372014 3.05626099 -9.125 1.03125 C-9.125 0.70125 -9.125 0.37125 -9.125 0.03125 C-2.69642857 -1.2292542 -2.69642857 -1.2292542 0 0 Z " fill="#EADDCF" transform="translate(128.125,295.96875)"/>
<path d="M0 0 C5.94 0.66 11.88 1.32 18 2 C17.67 3.65 17.34 5.3 17 7 C14.03 6.505 14.03 6.505 11 6 C11 4.68 11 3.36 11 2 C10.29875 2.350625 9.5975 2.70125 8.875 3.0625 C5.49731414 4.1639193 3.41919407 3.79516141 0 3 C0 2.01 0 1.02 0 0 Z " fill="#DAC6B3" transform="translate(209,279)"/>
<path d="M0 0 C0.5775 0.66 1.155 1.32 1.75 2 C3.99653977 4.44290923 3.99653977 4.44290923 8 4 C9.5638537 8.8870428 9.5638537 14.1129572 8 19 C8.99 19.33 9.98 19.66 11 20 C9.35 20 7.7 20 6 20 C6.33 15.38 6.66 10.76 7 6 C5.02 6 3.04 6 1 6 C0.34 4.35 -0.32 2.7 -1 1 C-0.67 0.67 -0.34 0.34 0 0 Z " fill="#E9B93F" transform="translate(244,272)"/>
<path d="M0 0 C0.66 0 1.32 0 2 0 C2 1.65 2 3.3 2 5 C2.99 5 3.98 5 5 5 C5 4.01 5 3.02 5 2 C5.99 2 6.98 2 8 2 C7.67 4.97 7.34 7.94 7 11 C6.67 11 6.34 11 6 11 C6 9.35 6 7.7 6 6 C4.68 6.33 3.36 6.66 2 7 C1.67 8.65 1.34 10.3 1 12 C-1 8.25 -1 8.25 -1 6 C-2.65 6 -4.3 6 -6 6 C-6 5.67 -6 5.34 -6 5 C-4.35 4.67 -2.7 4.34 -1 4 C-0.67 2.68 -0.34 1.36 0 0 Z " fill="#120D0D" transform="translate(257,288)"/>
<path d="M0 0 C0.66 0 1.32 0 2 0 C3.26582219 3.86723631 3.1118765 7.73151262 3.0625 11.75 C3.05798828 12.44738281 3.05347656 13.14476562 3.04882812 13.86328125 C3.0371002 15.57555803 3.01916653 17.28779033 3 19 C2.34 19 1.68 19 1 19 C-0.00926479 14.84373632 -0.10239579 10.95634906 -0.0625 6.6875 C-0.05347656 5.43324219 -0.04445312 4.17898438 -0.03515625 2.88671875 C-0.01775391 1.45779297 -0.01775391 1.45779297 0 0 Z " fill="#0C0708" transform="translate(245,318)"/>
<path d="M0 0 C2.14309145 3.21463718 2.46579085 5.23061882 2.40234375 9.05859375 C2 11 2 11 -0.5 13.5 C-1.325 13.995 -2.15 14.49 -3 15 C-3.66 14.67 -4.32 14.34 -5 14 C-4.67 13.34 -4.34 12.68 -4 12 C-3.9603287 10.33380554 -3.95615553 8.66608987 -4 7 C-3.01 6.67 -2.02 6.34 -1 6 C-0.67 4.02 -0.34 2.04 0 0 Z " fill="#B5ACA4" transform="translate(90,81)"/>
<path d="M0 0 C2.97 0.33 5.94 0.66 9 1 C9.33 2.32 9.66 3.64 10 5 C9.01 5.33 8.02 5.66 7 6 C5.79117904 8.00016466 5.79117904 8.00016466 5 10 C4.87625 9.38125 4.7525 8.7625 4.625 8.125 C4.12802644 5.80879168 4.12802644 5.80879168 2 4 C1 3 1 3 0 0 Z " fill="#E0CEBA" transform="translate(175,289)"/>
<path d="M0 0 C1.8871875 0.061875 1.8871875 0.061875 3.8125 0.125 C3.8125 0.785 3.8125 1.445 3.8125 2.125 C4.8025 2.125 5.7925 2.125 6.8125 2.125 C6.4825 3.445 6.1525 4.765 5.8125 6.125 C5.8125 5.465 5.8125 4.805 5.8125 4.125 C-0.26529232 2.98487332 -0.26529232 2.98487332 -6.1875 4.125 C-6.8475 4.785 -7.5075 5.445 -8.1875 6.125 C-9.5075 5.465 -10.8275 4.805 -12.1875 4.125 C-11.424375 3.83625 -10.66125 3.5475 -9.875 3.25 C-1.95777027 -0.06418919 -1.95777027 -0.06418919 0 0 Z " fill="#DFBF8A" transform="translate(250.1875,268.875)"/>
<path d="M0 0 C1.66611905 -0.042721 3.33382885 -0.04063832 5 0 C6 1 6 1 6.0625 4.0625 C6.041875 5.031875 6.02125 6.00125 6 7 C5.34 6.01 4.68 5.02 4 4 C3.236875 4.680625 2.47375 5.36125 1.6875 6.0625 C0.800625 6.701875 -0.08625 7.34125 -1 8 C-1.99 7.67 -2.98 7.34 -4 7 C-3.34 6.34 -2.68 5.68 -2 5 C-1.29289322 3.35008418 -0.62056011 1.68437744 0 0 Z " fill="#1A1716" transform="translate(203,192)"/>
<path d="M0 0 C-5.76240474 3.84160316 -11.29157865 4.23538321 -18 4 C-18.33 3.34 -18.66 2.68 -19 2 C-16.39740876 1.46989799 -13.793443 0.95062205 -11.1875 0.4375 C-10.44951172 0.28603516 -9.71152344 0.13457031 -8.95117188 -0.02148438 C-3.33984375 -1.11328125 -3.33984375 -1.11328125 0 0 Z " fill="#DBCAB9" transform="translate(241,295)"/>
<path d="M0 0 C3.96 0 7.92 0 12 0 C12 0.33 12 0.66 12 1 C9.36 1.33 6.72 1.66 4 2 C4 3.98 4 5.96 4 8 C4.66 8.33 5.32 8.66 6 9 C5.01 9 4.02 9 3 9 C3 7.35 3 5.7 3 4 C2.34 4 1.68 4 1 4 C1 5.32 1 6.64 1 8 C0.34 8 -0.32 8 -1 8 C-1.08226668 4.95613276 -0.97608217 2.92824652 0 0 Z " fill="#A89672" transform="translate(256,284)"/>
<path d="M0 0 C1 3 1 3 -0.14453125 5.8828125 C-0.69496094 6.95273438 -1.24539063 8.02265625 -1.8125 9.125 C-2.35519531 10.20007813 -2.89789063 11.27515625 -3.45703125 12.3828125 C-5 15 -5 15 -7 16 C-7.36666667 10.5 -7.36666667 10.5 -5.625 8.125 C-4 7 -4 7 -2 7 C-2.33 5.35 -2.66 3.7 -3 2 C-2.01 2 -1.02 2 0 2 C0 1.34 0 0.68 0 0 Z " fill="#B1AAA5" transform="translate(337,241)"/>
<path d="M0 0 C1.65 0 3.3 0 5 0 C4.67 2.31 4.34 4.62 4 7 C2.35 6.67 0.7 6.34 -1 6 C-0.67 4.02 -0.34 2.04 0 0 Z " fill="#EBC873" transform="translate(247,344)"/>
<path d="M0 0 C1.32 0.66 2.64 1.32 4 2 C3.34 3.65 2.68 5.3 2 7 C2.66 7.33 3.32 7.66 4 8 C3.01 8 2.02 8 1 8 C1 9.98 1 11.96 1 14 C-2 12 -2 12 -2.6875 9.375 C-2.790625 8.59125 -2.89375 7.8075 -3 7 C-2.34 7 -1.68 7 -1 7 C-1 5.68 -1 4.36 -1 3 C-0.34 3 0.32 3 1 3 C0.67 2.01 0.34 1.02 0 0 Z " fill="#E2CFB9" transform="translate(223,229)"/>
<path d="M0 0 C0.99 0 1.98 0 3 0 C5 3 5 3 5 6 C4.01 5.67 3.02 5.34 2 5 C2 5.66 2 6.32 2 7 C0.68 7 -0.64 7 -2 7 C-2.125 4.625 -2.125 4.625 -2 2 C-1.34 1.34 -0.68 0.68 0 0 Z " fill="#7D756A" transform="translate(258,277)"/>
<path d="M0 0 C0 0.99 0 1.98 0 3 C-2 5 -2 5 -5.4375 5.3125 C-9 5 -9 5 -10.9375 3.5 C-11.4634375 2.7575 -11.4634375 2.7575 -12 2 C-9.525 2.495 -9.525 2.495 -7 3 C-7 2.34 -7 1.68 -7 1 C-3.535 0.505 -3.535 0.505 0 0 Z " fill="#CFC1AF" transform="translate(201,195)"/>
<path d="M0 0 C0.33 0 0.66 0 1 0 C1.22823248 9.28145408 0.90427108 17.86970027 -1 27 C-1.33 27 -1.66 27 -2 27 C-2.02685412 24.68756208 -2.04632841 22.3750373 -2.0625 20.0625 C-2.07410156 18.77472656 -2.08570313 17.48695313 -2.09765625 16.16015625 C-2 13 -2 13 -1 12 C-0.76572222 9.98405418 -0.58663876 7.961526 -0.4375 5.9375 C-0.35371094 4.83277344 -0.26992188 3.72804687 -0.18359375 2.58984375 C-0.12300781 1.73519531 -0.06242187 0.88054687 0 0 Z " fill="#EADED0" transform="translate(291,210)"/>
<path d="M0 0 C1.32 0 2.64 0 4 0 C4 1.32 4 2.64 4 4 C0.04 3.67 -3.92 3.34 -8 3 C-8 2.34 -8 1.68 -8 1 C-5.36 1 -2.72 1 0 1 C0 0.67 0 0.34 0 0 Z " fill="#E2CFBC" transform="translate(216,281)"/>
<path d="M0 0 C1.859375 0.21484375 1.859375 0.21484375 4 1 C5.265625 3.06640625 5.265625 3.06640625 6.25 5.5625 C6.58515625 6.38878906 6.9203125 7.21507812 7.265625 8.06640625 C7.50796875 8.70449219 7.7503125 9.34257812 8 10 C3.86124946 8.19147035 2.27866791 5.90628784 0 2 C0 1.34 0 0.68 0 0 Z " fill="#EED8A5" transform="translate(195,181)"/>
<path d="M0 0 C1.32 0 2.64 0 4 0 C5.0326802 2.78823655 5.04509293 3.8677274 4.0625 6.75 C3.711875 7.4925 3.36125 8.235 3 9 C1 8 1 8 0 7 C-0.04092937 4.66702567 -0.04241723 2.33294775 0 0 Z " fill="#B6AEA6" transform="translate(94,52)"/>
<path d="M0 0 C2.97 0.495 2.97 0.495 6 1 C4.10595266 4.34243648 3.05908409 4.97997149 -0.6875 6.25 C-2.3271875 6.62125 -2.3271875 6.62125 -4 7 C-3.67 6.01 -3.34 5.02 -3 4 C-2.34 4 -1.68 4 -1 4 C-0.67 2.68 -0.34 1.36 0 0 Z " fill="#E2CFB9" transform="translate(218,255)"/>
<path d="M0 0 C2.02910711 0.25327449 4.04962145 0.57730068 6.0625 0.9375 C7.16722656 1.13214844 8.27195313 1.32679688 9.41015625 1.52734375 C10.69212891 1.76130859 10.69212891 1.76130859 12 2 C12 2.33 12 2.66 12 3 C11.05125 3.268125 10.1025 3.53625 9.125 3.8125 C5.74732727 4.74986588 5.74732727 4.74986588 4 8 C3.731875 7.21625 3.46375 6.4325 3.1875 5.625 C2.15185568 2.71885077 2.15185568 2.71885077 -1 1 C-0.67 0.67 -0.34 0.34 0 0 Z " fill="#BCB3AA" transform="translate(186,207)"/>
<path d="M0 0 C1.134375 0.020625 2.26875 0.04125 3.4375 0.0625 C3.1075 1.3825 2.7775 2.7025 2.4375 4.0625 C0.4575 4.0625 -1.5225 4.0625 -3.5625 4.0625 C-3.8925 3.0725 -4.2225 2.0825 -4.5625 1.0625 C-3.5625 0.0625 -3.5625 0.0625 0 0 Z " fill="#B4ACA4" transform="translate(155.5625,137.9375)"/>
<path d="M0 0 C2.475 0.99 2.475 0.99 5 2 C5 2.33 5 2.66 5 3 C4.00419922 3.07347656 4.00419922 3.07347656 2.98828125 3.1484375 C-3.7112236 3.71125812 -3.7112236 3.71125812 -10 6 C-9.67 4.68 -9.34 3.36 -9 2 C-6.03 2 -3.06 2 0 2 C0 1.34 0 0.68 0 0 Z " fill="#F4EFE6" transform="translate(216,151)"/>
<path d="M0 0 C2.31 0 4.62 0 7 0 C7 1.32 7 2.64 7 4 C4.69 4 2.38 4 0 4 C0 2.68 0 1.36 0 0 Z " fill="#CCBBAB" transform="translate(194,295)"/>
<path d="M0 0 C4.62 0 9.24 0 14 0 C14 0.33 14 0.66 14 1 C12.02 1 10.04 1 8 1 C8 1.66 8 2.32 8 3 C5.6568787 2.74438677 3.32156597 2.40729228 1 2 C0.67 1.34 0.34 0.68 0 0 Z " fill="#B9ABA0" transform="translate(204,276)"/>
<path d="M0 0 C0.66 0.33 1.32 0.66 2 1 C-0.68058098 4.57410797 -3.42589203 7.31941902 -7 10 C-7.66 9.34 -8.32 8.68 -9 8 C-8.43410156 7.50628906 -7.86820312 7.01257813 -7.28515625 6.50390625 C-6.55167969 5.86324219 -5.81820312 5.22257812 -5.0625 4.5625 C-4.33160156 3.92441406 -3.60070312 3.28632812 -2.84765625 2.62890625 C-1.87860647 1.77458541 -0.91348825 0.91348825 0 0 Z " fill="#E0D5C8" transform="translate(89,113)"/>
<path d="M0 0 C2.97 0.495 2.97 0.495 6 1 C5 4 5 4 2 6 C1.34 5.67 0.68 5.34 0 5 C0 3.35 0 1.7 0 0 Z " fill="#E3D0BA" transform="translate(238,206)"/>
<path d="M0 0 C2.97 0.495 2.97 0.495 6 1 C4.68 1.33 3.36 1.66 2 2 C2.33 2.99 2.66 3.98 3 5 C-0.3 5 -3.6 5 -7 5 C-7 4.34 -7 3.68 -7 3 C-4.69 3 -2.38 3 0 3 C0 2.01 0 1.02 0 0 Z " fill="#BDB5AE" transform="translate(196,136)"/>
<path d="M0 0 C1.46373047 0.02707031 1.46373047 0.02707031 2.95703125 0.0546875 C3.69308594 0.07789063 4.42914063 0.10109375 5.1875 0.125 C5.1875 0.455 5.1875 0.785 5.1875 1.125 C2.5475 1.125 -0.0925 1.125 -2.8125 1.125 C-2.8125 1.785 -2.8125 2.445 -2.8125 3.125 C-7.2675 3.62 -7.2675 3.62 -11.8125 4.125 C-10.8125 2.125 -10.8125 2.125 -8.61328125 1.0078125 C-5.57167697 0.04909205 -3.17866882 -0.07659443 0 0 Z " fill="#59544F" transform="translate(87.8125,50.875)"/>
<path d="M0 0 C2.97 0 5.94 0 9 0 C9 0.99 9 1.98 9 3 C6.69 3 4.38 3 2 3 C2 2.34 2 1.68 2 1 C1.34 0.67 0.68 0.34 0 0 Z " fill="#AC9F94" transform="translate(219,278)"/>
<path d="M0 0 C0.66 0.33 1.32 0.66 2 1 C-1.08290155 5.22797927 -1.08290155 5.22797927 -3 7 C-5.8125 7.375 -5.8125 7.375 -8 7 C-8 6.34 -8 5.68 -8 5 C-6.3203125 3.67578125 -6.3203125 3.67578125 -4.125 2.3125 C-3.40570313 1.85488281 -2.68640625 1.39726562 -1.9453125 0.92578125 C-1.30335938 0.62027344 -0.66140625 0.31476563 0 0 Z " fill="#B7ADA2" transform="translate(178,202)"/>
<path d="M0 0 C1.0194119 0.98020375 2.02246356 1.97803008 3 3 C-0.4019487 5.09350689 -3.05272412 5.17942163 -7 5 C-7 4.67 -7 4.34 -7 4 C-5.35 4 -3.7 4 -2 4 C-2 3.01 -2 2.02 -2 1 C-3.32 0.67 -4.64 0.34 -6 0 C-2.25 -1.125 -2.25 -1.125 0 0 Z " fill="#BEB7AF" transform="translate(112,139)"/>
<path d="M0 0 C0 0.33 0 0.66 0 1 C-11.52164009 0.03644647 -11.52164009 0.03644647 -17 -1 C-17 -1.33 -17 -1.66 -17 -2 C-10.6447755 -3.5197276 -6.08291273 -2.1663492 0 0 Z " fill="#EDE4D8" transform="translate(136,298)"/>
<path d="M0 0 C2.0625 0.4375 2.0625 0.4375 4 1 C4.33 2.65 4.66 4.3 5 6 C4.67 5.01 4.34 4.02 4 3 C2.68 3.99 1.36 4.98 0 6 C-0.38218767 4.34385343 -0.71395102 2.67542976 -1 1 C-0.67 0.67 -0.34 0.34 0 0 Z " fill="#2A2625" transform="translate(157,162)"/>
<path d="M0 0 C0 1.65 0 3.3 0 5 C-1.32 5.33 -2.64 5.66 -4 6 C-4.33 4.68 -4.66 3.36 -5 2 C-2 0 -2 0 0 0 Z " fill="#E0CEBB" transform="translate(273,133)"/>
<path d="M0 0 C0.99 0 1.98 0 3 0 C3 0.66 3 1.32 3 2 C2.34 2 1.68 2 1 2 C1.33 3.32 1.66 4.64 2 6 C-0.475 7.485 -0.475 7.485 -3 9 C-2.5020163 5.26512223 -2.12508244 3.18762365 0 0 Z " fill="#B3ABA3" transform="translate(94,67)"/>
<path d="M0 0 C2.31 0.66 4.62 1.32 7 2 C7 2.66 7 3.32 7 4 C4.03 3.67 1.06 3.34 -2 3 C-1.34 2.67 -0.68 2.34 0 2 C0 1.34 0 0.68 0 0 Z " fill="#BEA897" transform="translate(207,295)"/>
<path d="M0 0 C0 0.33 0 0.66 0 1 C-4.29 1 -8.58 1 -13 1 C-13 0.67 -13 0.34 -13 0 C-4.57142857 -2.57142857 -4.57142857 -2.57142857 0 0 Z " fill="#E4CFAD" transform="translate(223,143)"/>
<path d="M0 0 C0.66 0.33 1.32 0.66 2 1 C1.67 1.66 1.34 2.32 1 3 C2.32 3.33 3.64 3.66 5 4 C2.69 4.33 0.38 4.66 -2 5 C-2.33 4.34 -2.66 3.68 -3 3 C-2.01 2.01 -1.02 1.02 0 0 Z " fill="#B9B0A7" transform="translate(114,136)"/>
<path d="M0 0 C1.2065625 0.0309375 1.2065625 0.0309375 2.4375 0.0625 C2.4375 0.7225 2.4375 1.3825 2.4375 2.0625 C3.0975 2.3925 3.7575 2.7225 4.4375 3.0625 C2.6875 3.75 2.6875 3.75 0.4375 4.0625 C-1.8125 2.625 -1.8125 2.625 -3.5625 1.0625 C-2.5625 0.0625 -2.5625 0.0625 0 0 Z " fill="#B1A9A1" transform="translate(127.5625,136.9375)"/>
<path d="M0 0 C0.66 1.32 1.32 2.64 2 4 C0.68 5.65 -0.64 7.3 -2 9 C-1.125 1.125 -1.125 1.125 0 0 Z " fill="#080304" transform="translate(256,313)"/>
<path d="M0 0 C0.99 0 1.98 0 3 0 C2.67 2.97 2.34 5.94 2 9 C1.67 9 1.34 9 1 9 C0.67 6.03 0.34 3.06 0 0 Z " fill="#383432" transform="translate(262,290)"/>
<path d="M0 0 C1.32 0.33 2.64 0.66 4 1 C3.67 2.32 3.34 3.64 3 5 C1.02 4.34 -0.96 3.68 -3 3 C-2.01 2.67 -1.02 2.34 0 2 C0 1.34 0 0.68 0 0 Z " fill="#D4C6B7" transform="translate(224,135)"/>
<path d="M0 0 C0.66 0 1.32 0 2 0 C2.66 1.32 3.32 2.64 4 4 C3.01 5.485 3.01 5.485 2 7 C1.01 5.02 0.02 3.04 -1 1 C-0.67 0.67 -0.34 0.34 0 0 Z " fill="#948D86" transform="translate(151,333)"/>
<path d="M0 0 C3.96 0 7.92 0 12 0 C12 0.33 12 0.66 12 1 C9.02148438 1.34179688 9.02148438 1.34179688 6.04296875 1.68359375 C3.80603607 1.97170735 3.80603607 1.97170735 1 3 C0.67 2.01 0.34 1.02 0 0 Z " fill="#D0C6BC" transform="translate(256,284)"/>
<path d="M0 0 C0.66 0 1.32 0 2 0 C1.25 2.875 1.25 2.875 0 6 C-1.98 6.99 -1.98 6.99 -4 8 C-2.68 5.36 -1.36 2.72 0 0 Z " fill="#221E1D" transform="translate(203,192)"/>
<path d="M0 0 C0 0.66 0 1.32 0 2 C-0.66 2.66 -1.32 3.32 -2 4 C-5.625 3.625 -5.625 3.625 -9 3 C-3 0 -3 0 0 0 Z " fill="#D7C4AE" transform="translate(239,145)"/>
<path d="M0 0 C1.65 0.33 3.3 0.66 5 1 C5 1.99 5 2.98 5 4 C2.03 3.505 2.03 3.505 -1 3 C-0.67 2.01 -0.34 1.02 0 0 Z " fill="#9E9894" transform="translate(218,137)"/>
</svg>
