<?xml version="1.0" encoding="UTF-8"?>
<svg version="1.1" xmlns="http://www.w3.org/2000/svg" width="360" height="360">
<path d="M0 0 C3.16081662 1.88341892 5.09121545 3.47828341 7.078125 6.62133789 C9.30285725 9.3800803 9.30285725 9.3800803 12.91943359 9.60253906 C14.31384433 9.59509305 15.70827638 9.56039095 17.1015625 9.50390625 C18.23609108 9.48898888 18.23609108 9.48898888 19.39353943 9.47377014 C21.02253204 9.44996752 22.65139203 9.41499609 24.27993774 9.37002563 C27.72517055 9.27640495 31.17025303 9.24054616 34.61647034 9.20185852 C36.36897487 9.18181655 38.12145067 9.15908715 39.87388611 9.13371277 C60.86832401 8.83898015 81.68563213 9.90292519 102.453125 13.05078125 C103.41669922 13.19386719 104.38027344 13.33695313 105.37304688 13.484375 C116.05774812 15.12371138 126.36109062 16.78658433 135.453125 23.05078125 C137.04251847 26.22956819 136.86889211 28.54645845 136.453125 32.05078125 C133.828125 34.36328125 133.828125 34.36328125 132.17578125 35.5546875 C128.61287558 38.6490024 126.58327854 42.903247 124.453125 47.05078125 C124.09734375 47.73914063 123.7415625 48.4275 123.375 49.13671875 C119.71207418 57.82784274 121.19836931 69.43840302 124.453125 78.05078125 C125.24976563 77.70144531 126.04640625 77.35210937 126.8671875 76.9921875 C127.92679688 76.53714844 128.98640625 76.08210938 130.078125 75.61328125 C131.12226563 75.16082031 132.16640625 74.70835937 133.2421875 74.2421875 C144.14712771 70.19595056 158.77651613 70.59833811 169.40625 75.37890625 C174.04368008 77.83401629 178.65666244 80.38523119 182.453125 84.05078125 C182.453125 84.71078125 182.453125 85.37078125 182.453125 86.05078125 C183.113125 86.05078125 183.773125 86.05078125 184.453125 86.05078125 C193.87239934 98.61855955 195.50394485 112.51329612 193.765625 127.86328125 C191.43766454 142.56618939 184.3992339 154.07624201 172.453125 163.05078125 C166.35242193 166.98735048 161.58218294 169.32291321 154.2421875 168.8671875 C153.24445313 168.82787109 152.24671875 168.78855469 151.21875 168.74804688 C149.13144411 168.65847964 147.04512961 168.54143759 144.9609375 168.39648438 C139.27083429 168.13582767 139.27083429 168.13582767 134.42480469 170.72216797 C131.87062117 174.01058395 130.28753276 176.95873049 129.453125 181.05078125 C130.773125 181.71078125 132.093125 182.37078125 133.453125 183.05078125 C133.453125 184.70078125 133.453125 186.35078125 133.453125 188.05078125 C128.48319306 190.48503363 125.10707131 191.39694123 119.453125 191.05078125 C119.49155518 191.71835449 119.52998535 192.38592773 119.56958008 193.07373047 C119.86238804 202.47041938 118.10209349 211.0527655 116.140625 220.17578125 C115.49221411 223.27757735 114.85186479 226.38102525 114.2109375 229.484375 C113.97713127 230.60786095 113.97713127 230.60786095 113.73860168 231.75404358 C112.06846713 239.8142339 110.68612305 247.91299415 109.453125 256.05078125 C107.803125 256.38078125 106.153125 256.71078125 104.453125 257.05078125 C103.16695627 254.47844378 103.23355922 252.4497996 103.08203125 249.5703125 C102.46807462 240.84876419 100.92181384 232.33500197 99.390625 223.73828125 C99.10555635 222.11142675 98.82104753 220.48447406 98.53710938 218.85742188 C97.84888017 214.92071598 97.15314645 210.98540662 96.453125 207.05078125 C95.00244629 207.18709961 95.00244629 207.18709961 93.52246094 207.32617188 C89.87745566 207.66719424 86.23180667 208.00087178 82.5859375 208.33251953 C81.01870023 208.4760759 79.45163545 208.62153016 77.88476562 208.76904297 C68.7164943 209.63076668 59.67479807 210.29381217 50.453125 210.05078125 C50.48341797 210.59677979 50.51371094 211.14277832 50.54492188 211.70532227 C51.14219454 222.75831242 51.5571202 233.79287393 51.578125 244.86328125 C51.58489258 246.36580444 51.58489258 246.36580444 51.59179688 247.89868164 C51.58986328 248.82156982 51.58792969 249.74445801 51.5859375 250.6953125 C51.58480957 251.51362549 51.58368164 252.33193848 51.58251953 253.17504883 C51.453125 255.05078125 51.453125 255.05078125 50.453125 256.05078125 C47.62896118 256.17741216 44.84017707 256.23598673 42.015625 256.23828125 C41.22607422 256.25052734 40.43652344 256.26277344 39.62304688 256.27539062 C37.56505065 256.28065404 35.50750491 256.1728441 33.453125 256.05078125 C32.793125 255.39078125 32.133125 254.73078125 31.453125 254.05078125 C31.783125 252.40078125 32.113125 250.75078125 32.453125 249.05078125 C37.898125 248.06078125 37.898125 248.06078125 43.453125 247.05078125 C43.123125 234.84078125 42.793125 222.63078125 42.453125 210.05078125 C36.513125 210.38078125 30.573125 210.71078125 24.453125 211.05078125 C24.453125 225.57078125 24.453125 240.09078125 24.453125 255.05078125 C19.22156775 256.79463367 16.92487728 257.29876356 11.703125 256.92578125 C10.57390625 256.86132812 9.4446875 256.796875 8.28125 256.73046875 C5.453125 256.05078125 5.453125 256.05078125 4.0625 253.99609375 C3.86140625 253.35414063 3.6603125 252.7121875 3.453125 252.05078125 C5.453125 249.05078125 5.453125 249.05078125 7.29296875 248.50390625 C7.98519531 248.436875 8.67742187 248.36984375 9.390625 248.30078125 C10.08027344 248.2234375 10.76992187 248.14609375 11.48046875 248.06640625 C13.453125 248.05078125 13.453125 248.05078125 16.453125 249.05078125 C16.19259413 243.65699578 15.92595804 238.26356075 15.65356445 232.87036133 C15.5616986 231.0341824 15.47152578 229.19791798 15.38305664 227.36157227 C15.25587894 224.72778598 15.12269033 222.09436339 14.98828125 219.4609375 C14.94969498 218.63489517 14.9111087 217.80885284 14.87135315 216.95777893 C15.01647994 213.19319293 15.01647994 213.19319293 13.453125 210.05078125 C11.37486511 209.86916362 9.29109941 209.75010641 7.20703125 209.65625 C5.90241943 209.59002441 4.59780762 209.52379883 3.25366211 209.45556641 C2.21458206 209.40326874 2.21458206 209.40326874 1.1545105 209.34991455 C-18.51093542 208.32353018 -18.51093542 208.32353018 -28.109375 206.17578125 C-29.13985962 205.95184692 -29.13985962 205.95184692 -30.19116211 205.72338867 C-34.60993036 204.62613325 -37.94899403 202.818382 -41.546875 200.05078125 C-42.79184274 197.20514071 -42.546875 195.26004405 -42.546875 192.05078125 C-43.21332031 191.71046875 -43.87976563 191.37015625 -44.56640625 191.01953125 C-61.39063166 182.17210642 -73.59804014 171.38283189 -79.58203125 152.84375 C-84.0828359 134.86146539 -82.37052359 117.68212395 -73.609375 101.36328125 C-73.16722656 100.63753906 -72.72507812 99.91179687 -72.26953125 99.1640625 C-71.24938484 96.18082354 -72.26717414 94.88634392 -73.546875 92.05078125 C-74.39140434 90.38796784 -75.26268584 88.73854794 -76.15625 87.1015625 C-76.66414063 86.17021484 -77.17203125 85.23886719 -77.6953125 84.27929688 C-78.22382812 83.31701172 -78.75234375 82.35472656 -79.296875 81.36328125 C-79.80992188 80.42033203 -80.32296875 79.47738281 -80.8515625 78.50585938 C-84.76361466 71.35506052 -88.85976818 64.33032141 -93.19433594 57.42700195 C-94.77563386 54.64888414 -95.12570849 53.19302021 -94.546875 50.05078125 C-91.66324226 47.48160498 -88.61004493 46.10296491 -85.046875 44.67578125 C-83.47679687 44.03962891 -83.47679687 44.03962891 -81.875 43.390625 C-80.77671875 42.94847656 -79.6784375 42.50632813 -78.546875 42.05078125 C-76.29567136 41.11617522 -74.04561172 40.17880739 -71.796875 39.23828125 C-70.046875 38.50911458 -68.296875 37.77994792 -66.546875 37.05078125 C-67.20272689 33.44085746 -67.20272689 33.44085746 -68.546875 30.05078125 C-68.984375 26.73828125 -68.984375 26.73828125 -68.546875 23.05078125 C-63.87804971 17.47412882 -57.36641817 15.96379596 -50.546875 14.05078125 C-49.78117187 13.83421875 -49.01546875 13.61765625 -48.2265625 13.39453125 C-41.76589563 11.77340451 -35.17742158 11.44021057 -28.546875 11.05078125 C-28.25296875 10.26960938 -27.9590625 9.4884375 -27.65625 8.68359375 C-23.24422568 -1.78719636 -9.73713833 -3.62902548 0 0 Z M-66.0859375 45.73046875 C-66.91351563 46.08238281 -67.74109375 46.43429688 -68.59375 46.796875 C-69.44453125 47.16941406 -70.2953125 47.54195312 -71.171875 47.92578125 C-72.03039062 48.29058594 -72.88890625 48.65539062 -73.7734375 49.03125 C-77.25630429 50.52779432 -80.38168658 51.94065564 -83.546875 54.05078125 C-82.50689623 59.5165834 -79.38561367 64.17294346 -76.7097168 68.97875977 C-75.73552688 70.73620325 -74.78083692 72.50337692 -73.82617188 74.27148438 C-72.90481445 75.93147461 -72.90481445 75.93147461 -71.96484375 77.625 C-71.40563232 78.64166748 -70.8464209 79.65833496 -70.27026367 80.70581055 C-68.76675325 83.19679021 -68.76675325 83.19679021 -66.33325195 83.88989258 C-65.44899536 83.96953247 -65.44899536 83.96953247 -64.546875 84.05078125 C-57.95337358 72.07979302 -54.41372912 60.83429341 -55.546875 47.05078125 C-55.876875 46.06078125 -56.206875 45.07078125 -56.546875 44.05078125 C-60.19467552 43.87799493 -62.73715207 44.29219452 -66.0859375 45.73046875 Z M143.453125 86.05078125 C143.49953125 86.6540625 143.5459375 87.25734375 143.59375 87.87890625 C143.70424714 90.3256286 143.74466074 92.61709158 143.453125 95.05078125 C141.390625 97.30078125 141.390625 97.30078125 139.453125 99.05078125 C139.84326289 102.63754508 141.071232 105.59915836 142.5 108.8828125 C145.1755535 116.08817967 144.89546511 123.15627043 144.703125 130.73828125 C144.68300645 132.13343758 144.66476525 133.52862229 144.6484375 134.92382812 C144.60170541 138.30022192 144.53619855 141.67511931 144.453125 145.05078125 C145.09121094 145.18355469 145.72929687 145.31632812 146.38671875 145.453125 C147.21300781 145.62972656 148.03929687 145.80632812 148.890625 145.98828125 C149.71433594 146.16230469 150.53804687 146.33632812 151.38671875 146.515625 C153.453125 147.05078125 153.453125 147.05078125 154.453125 148.05078125 C154.82073231 150.37896089 155.15554081 152.71261975 155.453125 155.05078125 C165.35875734 151.92268683 170.59132769 146.8694161 175.94140625 137.97265625 C180.95114432 128.28975166 182.00604396 117.51873721 179.453125 106.92578125 C176.59717781 98.73961004 171.33410943 92.69487253 163.828125 88.42578125 C157.10536804 85.36529343 150.70935746 85.47114138 143.453125 86.05078125 Z " fill="#E6D3C1" transform="translate(142.546875,93.94921875)"/>
<path d="M0 0 C0.69104324 -0.00145523 1.38208649 -0.00291046 2.09407043 -0.00440979 C4.36875716 -0.00667052 6.64329665 -0.0003327 8.91796875 0.0078125 C9.69912048 0.00969574 10.48027222 0.01157898 11.28509521 0.01351929 C35.36421204 0.08135211 59.25266645 0.5172972 83.10546875 4.1328125 C84.06904297 4.27589844 85.03261719 4.41898437 86.02539062 4.56640625 C96.71009187 6.20574263 107.01343437 7.86861558 116.10546875 14.1328125 C117.69486222 17.31159944 117.52123586 19.6284897 117.10546875 23.1328125 C114.48046875 25.4453125 114.48046875 25.4453125 112.83203125 26.62890625 C107.5246785 31.25182663 104.57184466 38.38748331 103.10546875 45.1328125 C102.77546875 43.8128125 102.44546875 42.4928125 102.10546875 41.1328125 C101.11546875 41.7928125 100.12546875 42.4528125 99.10546875 43.1328125 C98.11546875 43.1328125 97.12546875 43.1328125 96.10546875 43.1328125 C96.10546875 43.7928125 96.10546875 44.4528125 96.10546875 45.1328125 C92.97021531 47.00107996 91.07819347 47.30664988 87.48046875 46.8203125 C86.61421875 46.71203125 85.74796875 46.60375 84.85546875 46.4921875 C83.94796875 46.37359375 83.04046875 46.255 82.10546875 46.1328125 C80.23108368 45.93926187 78.35609115 45.75148057 76.48046875 45.5703125 C74.29296875 45.3515625 74.29296875 45.3515625 72.10546875 45.1328125 C72.10546875 45.7928125 72.10546875 46.4528125 72.10546875 47.1328125 C67.50837837 49.76282638 63.85770538 51.73464447 58.54296875 50.3828125 C57.80046875 50.16882813 57.05796875 49.95484375 56.29296875 49.734375 C51.11363385 48.3100579 46.78132018 48.56188257 42.04296875 51.1953125 C38.04906432 53.40720086 35.59333013 53.29633212 31.10546875 52.1328125 C30.11546875 51.7615625 29.12546875 51.3903125 28.10546875 51.0078125 C23.8813749 49.77578513 20.06923979 50.0559058 16.16796875 52.1953125 C12.17761976 54.0091075 7.91453672 53.72651006 3.83203125 52.38671875 C3.07664062 52.09667969 2.32125 51.80664062 1.54296875 51.5078125 C-3.02859084 49.81229473 -5.4322558 50.27353106 -9.89453125 52.1328125 C-10.22453125 52.4628125 -10.55453125 52.7928125 -10.89453125 53.1328125 C-14.96807379 52.80027842 -18.15588693 52.08506878 -21.89453125 50.4453125 C-26.0967592 48.7627957 -28.65054229 49.53130723 -32.89453125 51.1328125 C-35.60192191 52.10469633 -37.07813527 52.50201068 -39.734375 51.30078125 C-40.40597656 50.93597656 -41.07757813 50.57117188 -41.76953125 50.1953125 C-46.31118234 47.73348294 -49.94248278 47.56593363 -55.05078125 48.546875 C-59.6812042 49.35561325 -62.18176789 49.36899635 -66.20703125 46.7578125 C-66.82191406 46.29632813 -67.43679687 45.83484375 -68.0703125 45.359375 C-70.01480042 44.05194629 -71.60795859 43.56690797 -73.89453125 43.1328125 C-73.32108188 46.00005936 -73.03307975 46.994264 -70.89453125 49.1328125 C-71.34054688 49.63296875 -71.7865625 50.133125 -72.24609375 50.6484375 C-74.37277388 53.85357628 -75.25240507 57.21895721 -76.26953125 60.8828125 C-78.05617364 66.99344716 -80.10739264 71.9390224 -83.89453125 77.1328125 C-84.88453125 76.8028125 -85.87453125 76.4728125 -86.89453125 76.1328125 C-85.40953125 75.6378125 -85.40953125 75.6378125 -83.89453125 75.1328125 C-82.78879312 72.39679471 -82.78879312 72.39679471 -81.89453125 69.1328125 C-80.62335161 65.79844099 -79.32019561 62.47767903 -78.015625 59.15625 C-76.59535432 55.32597297 -75.76590037 52.11208886 -75.796875 48.0234375 C-75.80009766 47.26933594 -75.80332031 46.51523438 -75.80664062 45.73828125 C-75.81501953 44.96097656 -75.82339844 44.18367188 -75.83203125 43.3828125 C-75.83654297 42.59003906 -75.84105469 41.79726562 -75.84570312 40.98046875 C-75.8574456 39.03121742 -75.87537979 37.08200512 -75.89453125 35.1328125 C-76.88453125 34.8028125 -77.87453125 34.4728125 -78.89453125 34.1328125 C-77.1716252 33.42977028 -75.44085659 32.74597759 -73.70703125 32.0703125 C-72.74410156 31.68746094 -71.78117187 31.30460937 -70.7890625 30.91015625 C-67.61197924 30.05693146 -66.03001864 30.30981017 -62.89453125 31.1328125 C-61.35634175 31.26567937 -59.81312045 31.35098592 -58.26953125 31.3828125 C-57.13644531 31.42148438 -57.13644531 31.42148438 -55.98046875 31.4609375 C-53.79913555 31.35951331 -53.79913555 31.35951331 -52.71269226 29.63833618 C-49.88219919 27.29455346 -47.3395666 27.73852915 -43.71801758 27.71630859 C-42.98869522 27.70772324 -42.25937286 27.69913788 -41.50794983 27.69029236 C-39.08072367 27.66509552 -36.65390806 27.6608297 -34.2265625 27.65625 C-32.51387833 27.64190846 -30.80120554 27.6261459 -29.08854675 27.60903931 C-24.54865865 27.56704294 -20.00884041 27.54219687 -15.46881104 27.52154541 C-8.32984303 27.48604699 -1.19101212 27.42454666 5.94779396 27.36552811 C7.70928472 27.35098685 9.47077849 27.33680491 11.23227501 27.32297897 C33.97630781 27.14082348 56.75769254 26.8636612 79.41796875 24.7578125 C80.81701471 24.64271044 82.21610383 24.52813174 83.61523438 24.4140625 C96.16762411 23.97779543 96.16762411 23.97779543 107.10546875 19.1328125 C98.98121343 16.16309421 91.09399887 14.19861747 82.54296875 12.9453125 C81.49689453 12.78095703 80.45082031 12.61660156 79.37304688 12.44726562 C68.34743295 10.75680837 57.35228561 9.98141939 46.21216011 9.50205994 C44.12234795 9.4119264 42.03271774 9.31828273 39.94309998 9.22375488 C34.01118862 8.95601477 28.07901167 8.69441876 22.14672852 8.43505859 C18.49642764 8.2752283 14.84632088 8.11144568 11.19630241 7.94529724 C9.81250822 7.88314386 8.42864307 7.82254924 7.04471016 7.76356506 C5.11631588 7.68135228 3.1881547 7.5937259 1.26000977 7.50585938 C0.16511734 7.45780151 -0.92977509 7.40974365 -2.05784607 7.36022949 C-4.47032328 7.16682124 -6.58125148 6.81545762 -8.89453125 6.1328125 C-9.38953125 3.6578125 -9.38953125 3.6578125 -9.89453125 1.1328125 C-6.40839102 -0.02923424 -3.67873833 0.00329404 0 0 Z " fill="#E6D5C4" transform="translate(161.89453125,102.8671875)"/>
<path d="M0 0 C2.57421875 0.46484375 2.57421875 0.46484375 5.26171875 2.83984375 C6.57421875 5.46484375 6.57421875 5.46484375 6.57421875 7.46484375 C9.54421875 7.79484375 12.51421875 8.12484375 15.57421875 8.46484375 C15.57421875 7.80484375 15.57421875 7.14484375 15.57421875 6.46484375 C16.89421875 6.46484375 18.21421875 6.46484375 19.57421875 6.46484375 C19.67673547 11.59067986 19.61012074 16.41482153 18.57421875 21.46484375 C21.54421875 20.96984375 21.54421875 20.96984375 24.57421875 20.46484375 C24.90421875 19.14484375 25.23421875 17.82484375 25.57421875 16.46484375 C26.56421875 16.46484375 27.55421875 16.46484375 28.57421875 16.46484375 C28.57421875 18.11484375 28.57421875 19.76484375 28.57421875 21.46484375 C29.23421875 21.46484375 29.89421875 21.46484375 30.57421875 21.46484375 C30.90421875 20.47484375 31.23421875 19.48484375 31.57421875 18.46484375 C32.23421875 18.46484375 32.89421875 18.46484375 33.57421875 18.46484375 C33.71294799 23.93267628 33.30155826 28.91197905 32.1484375 34.26953125 C32.00095062 34.98744339 31.85346375 35.70535553 31.70150757 36.44502258 C31.38862635 37.96512008 31.07238129 39.48452866 30.75296021 41.00326538 C29.92989645 44.91814869 29.13160529 48.83807592 28.33203125 52.7578125 C28.09822502 53.89984886 28.09822502 53.89984886 27.85969543 55.06495667 C26.21067919 63.16304945 24.81218218 71.29428512 23.57421875 79.46484375 C21.09921875 79.95984375 21.09921875 79.95984375 18.57421875 80.46484375 C17.28805002 77.89250628 17.35465297 75.8638621 17.203125 72.984375 C16.58916837 64.26282669 15.04290759 55.74906447 13.51171875 47.15234375 C13.2266501 45.52548925 12.94214128 43.89853656 12.65820312 42.27148438 C11.96997392 38.33477848 11.2742402 34.39946912 10.57421875 30.46484375 C9.60709961 30.55572266 8.63998047 30.64660156 7.64355469 30.74023438 C3.99854941 31.08125674 0.35290042 31.41493428 -3.29296875 31.74658203 C-4.86020602 31.8901384 -6.4272708 32.03559266 -7.99414062 32.18310547 C-17.16241195 33.04482918 -26.20410818 33.70787467 -35.42578125 33.46484375 C-35.39548828 34.01084229 -35.36519531 34.55684082 -35.33398438 35.11938477 C-34.73671171 46.17237492 -34.32178605 57.20693643 -34.30078125 68.27734375 C-34.29626953 69.27902588 -34.29175781 70.28070801 -34.28710938 71.31274414 C-34.28904297 72.23563232 -34.29097656 73.15852051 -34.29296875 74.109375 C-34.29409668 74.92768799 -34.29522461 75.74600098 -34.29638672 76.58911133 C-34.42578125 78.46484375 -34.42578125 78.46484375 -35.42578125 79.46484375 C-38.24994507 79.59147466 -41.03872918 79.65004923 -43.86328125 79.65234375 C-44.65283203 79.66458984 -45.44238281 79.67683594 -46.25585938 79.68945312 C-48.3138556 79.69471654 -50.37140134 79.5869066 -52.42578125 79.46484375 C-53.08578125 78.80484375 -53.74578125 78.14484375 -54.42578125 77.46484375 C-54.09578125 75.81484375 -53.76578125 74.16484375 -53.42578125 72.46484375 C-47.98078125 71.47484375 -47.98078125 71.47484375 -42.42578125 70.46484375 C-42.75578125 58.25484375 -43.08578125 46.04484375 -43.42578125 33.46484375 C-49.36578125 33.79484375 -55.30578125 34.12484375 -61.42578125 34.46484375 C-61.42578125 48.98484375 -61.42578125 63.50484375 -61.42578125 78.46484375 C-66.6573385 80.20869617 -68.95402897 80.71282606 -74.17578125 80.33984375 C-75.305 80.27539062 -76.43421875 80.2109375 -77.59765625 80.14453125 C-80.42578125 79.46484375 -80.42578125 79.46484375 -81.81640625 77.41015625 C-82.11804688 76.44722656 -82.11804688 76.44722656 -82.42578125 75.46484375 C-80.42578125 72.46484375 -80.42578125 72.46484375 -78.5859375 71.91796875 C-77.89371094 71.8509375 -77.20148438 71.78390625 -76.48828125 71.71484375 C-75.45380859 71.59882813 -75.45380859 71.59882813 -74.3984375 71.48046875 C-72.42578125 71.46484375 -72.42578125 71.46484375 -69.42578125 72.46484375 C-69.68631212 67.07105828 -69.95294821 61.67762325 -70.2253418 56.28442383 C-70.31720765 54.4482449 -70.40738047 52.61198048 -70.49584961 50.77563477 C-70.62302731 48.14184848 -70.75621592 45.50842589 -70.890625 42.875 C-70.92921127 42.04895767 -70.96779755 41.22291534 -71.0075531 40.37184143 C-70.86242631 36.60725543 -70.86242631 36.60725543 -72.42578125 33.46484375 C-74.50404114 33.28322612 -76.58780684 33.16416891 -78.671875 33.0703125 C-80.62879272 32.97097412 -80.62879272 32.97097412 -82.62524414 32.86962891 C-83.31796417 32.83476379 -84.0106842 32.79989868 -84.72439575 32.76397705 C-104.38984167 31.73759268 -104.38984167 31.73759268 -113.98828125 29.58984375 C-114.675271 29.4405542 -115.36226074 29.29126465 -116.07006836 29.13745117 C-120.48905823 28.04014072 -123.82311824 26.22525523 -127.42578125 23.46484375 C-128.90368092 20.29791588 -128.43518628 16.91649106 -128.42578125 13.46484375 C-127.5234375 13.58601563 -126.62109375 13.7071875 -125.69140625 13.83203125 C-102.51381285 16.81873337 -79.30843858 17.80107942 -55.95336914 17.72558594 C-52.58695778 17.71646568 -49.22114645 17.72096857 -45.85478306 17.73273087 C-42.5880731 17.74166875 -39.32140145 17.7354364 -36.0546875 17.73046875 C-34.25651329 17.73654144 -34.25651329 17.73654144 -32.42201233 17.74273682 C-31.31152023 17.7364325 -30.20102814 17.73012817 -29.05688477 17.72363281 C-28.086548 17.72204163 -27.11621124 17.72045044 -26.11647034 17.71881104 C-23.22914847 17.44628408 -21.05136719 16.66738169 -18.42578125 15.46484375 C-18.42578125 16.12484375 -18.42578125 16.78484375 -18.42578125 17.46484375 C-16.44578125 17.13484375 -14.46578125 16.80484375 -12.42578125 16.46484375 C-12.4721875 15.645 -12.51859375 14.82515625 -12.56640625 13.98046875 C-12.6025 12.9028125 -12.63859375 11.82515625 -12.67578125 10.71484375 C-12.7221875 9.6475 -12.76859375 8.58015625 -12.81640625 7.48046875 C-12.42578125 4.46484375 -12.42578125 4.46484375 -10.75390625 2.109375 C-7.17787484 -0.41664719 -4.2564389 -0.14207072 0 0 Z " fill="#E6D5C4" transform="translate(228.42578125,270.53515625)"/>
<path d="M0 0 C7.50780296 5.21375206 9.74998641 11.47384498 11.515625 20.16015625 C12.1951979 23.83986375 12.1951979 23.83986375 15.203125 25.16015625 C15.986875 25.32515625 16.770625 25.49015625 17.578125 25.66015625 C17.248125 26.98015625 16.918125 28.30015625 16.578125 29.66015625 C15.98902344 29.68464844 15.39992188 29.70914063 14.79296875 29.734375 C11.34774865 31.17444054 10.54811133 34.22335487 9.140625 37.47265625 C7.02444261 42.33738611 5.01302554 45.56450785 0.578125 48.66015625 C0.10375 49.19640625 -0.370625 49.73265625 -0.859375 50.28515625 C-5.17744024 54.08505366 -10.8497098 53.92239103 -16.296875 53.78515625 C-16.98523438 53.77613281 -17.67359375 53.76710937 -18.3828125 53.7578125 C-20.06265338 53.73448138 -21.74231246 53.69861951 -23.421875 53.66015625 C-23.53789062 54.26472656 -23.65390625 54.86929688 -23.7734375 55.4921875 C-24.75904633 58.78744593 -26.88475845 60.42507738 -29.421875 62.66015625 C-34.50851954 64.35570443 -39.84972617 64.7666344 -44.85546875 62.61328125 C-46.86135778 61.39759093 -48.69666873 60.25043019 -50.421875 58.66015625 C-50.421875 58.00015625 -50.421875 57.34015625 -50.421875 56.66015625 C-51.10894531 57.08167969 -51.79601562 57.50320312 -52.50390625 57.9375 C-53.40496094 58.48535156 -54.30601562 59.03320312 -55.234375 59.59765625 C-56.12769531 60.14292969 -57.02101562 60.68820313 -57.94140625 61.25 C-62.6499863 63.92684629 -67.10988178 64.46692655 -72.421875 63.66015625 C-75.78977635 61.94778447 -77.90014096 59.56133322 -79.796875 56.28515625 C-80.57444975 53.01934229 -80.55301855 50.0043168 -80.421875 46.66015625 C-77.946875 46.16515625 -77.946875 46.16515625 -75.421875 45.66015625 C-75.13054687 46.23765625 -74.83921875 46.81515625 -74.5390625 47.41015625 C-73.29623844 49.66130927 -72.06304857 51.67868685 -70.421875 53.66015625 C-66.48939439 54.66419385 -64.87137299 53.8938952 -61.296875 52.03515625 C-58.26030082 49.77634067 -58.26030082 49.77634067 -56.359375 46.41015625 C-55.72 45.50265625 -55.080625 44.59515625 -54.421875 43.66015625 C-52.02734375 43.24609375 -52.02734375 43.24609375 -49.421875 43.66015625 C-47.5078125 45.33984375 -47.5078125 45.33984375 -45.796875 47.53515625 C-43.69863094 50.18407069 -42.27978818 51.7548808 -39.421875 53.66015625 C-37.08988112 53.73920689 -34.75354878 53.74814394 -32.421875 53.66015625 C-31.761875 52.34015625 -31.101875 51.02015625 -30.421875 49.66015625 C-31.47375 49.62921875 -31.47375 49.62921875 -32.546875 49.59765625 C-36.92217982 48.17092642 -38.97450149 45.47537687 -41.421875 41.66015625 C-45.8899847 32.40773216 -46.67051124 24.42636893 -43.421875 14.66015625 C-41.51083473 10.01905845 -39.20290704 6.96855928 -35.421875 3.66015625 C-34.431875 3.33015625 -33.441875 3.00015625 -32.421875 2.66015625 C-31.41920479 1.66283361 -30.41933372 0.66269109 -29.421875 -0.33984375 C-20.20495517 -4.70575314 -9.09463395 -5.0313862 0 0 Z " fill="#EAB726" transform="translate(227.421875,164.33984375)"/>
<path d="M0 0 C3.92939919 2.31357149 7.07654147 5.126153 9.46484375 9.04296875 C9.84162686 11.03524022 10.18041934 13.03542949 10.46484375 15.04296875 C11.26345825 15.07389114 12.06207275 15.10481354 12.8848877 15.13667297 C20.53025097 15.43455087 28.17511713 15.74253248 35.81964874 16.06098652 C39.74676526 16.22424808 43.67394949 16.38402593 47.6015625 16.53491211 C105.60829301 18.7722676 105.60829301 18.7722676 126.46484375 27.04296875 C126.79484375 27.70296875 127.12484375 28.36296875 127.46484375 29.04296875 C118.94474296 32.77051284 110.26095665 33.63299177 101.09277344 34.4206543 C99.0515103 34.59794161 97.01227988 34.79120979 94.97265625 34.98632812 C67.8289638 37.45953011 40.43907614 37.20974981 13.20776367 37.17333984 C8.80770397 37.16750201 4.40770341 37.17103113 0.00764561 37.17691231 C-3.41767333 37.18050444 -6.84297785 37.17938802 -10.2682972 37.17678452 C-11.89467437 37.17611864 -13.52105287 37.17693178 -15.14742851 37.17926407 C-17.38535019 37.18178309 -19.62316999 37.17796733 -21.86108398 37.17236328 C-23.76482033 37.17116989 -23.76482033 37.17116989 -25.70701599 37.16995239 C-28.53515625 37.04296875 -28.53515625 37.04296875 -29.53515625 36.04296875 C-29.79655624 33.88206217 -29.99501816 31.71335504 -30.16015625 29.54296875 C-30.25554687 28.35703125 -30.3509375 27.17109375 -30.44921875 25.94921875 C-30.47757812 24.99015625 -30.5059375 24.03109375 -30.53515625 23.04296875 C-30.20515625 22.71296875 -29.87515625 22.38296875 -29.53515625 22.04296875 C-29.28860508 18.81040899 -29.15094534 15.57869383 -29.01171875 12.33984375 C-28.38560963 8.00840031 -27.02774896 5.37740594 -23.765625 2.4609375 C-16.56798062 -1.8741638 -7.98954589 -3.01608435 0 0 Z " fill="#A6917E" transform="translate(142.53515625,93.95703125)"/>
<path d="M0 0 C0.598125 0.5775 1.19625 1.155 1.8125 1.75 C1.8125 2.41 1.8125 3.07 1.8125 3.75 C2.4725 3.75 3.1325 3.75 3.8125 3.75 C13.23177434 16.3177783 14.86331985 30.21251487 13.125 45.5625 C10.79703954 60.26540814 3.7586089 71.77546076 -8.1875 80.75 C-15.30852133 85.34494474 -20.57809192 86.92971614 -29.0625 86.9375 C-29.75730469 86.94974609 -30.45210938 86.96199219 -31.16796875 86.97460938 C-35.56442393 86.98702874 -39.10459235 86.36908407 -43.1875 84.75 C-37.69399351 64.25649351 -37.69399351 64.25649351 -36.1875 62.75 C-32.6570811 62.48355329 -30.04651342 62.3430989 -26.8125 63.875 C-24.64093313 66.38065408 -24.4763159 68.50082115 -24.1875 71.75 C-22.95450366 71.17480568 -21.72629474 70.58934683 -20.5 70 C-19.81550781 69.67515625 -19.13101563 69.3503125 -18.42578125 69.015625 C-10.08495159 64.29934435 -5.01881868 56.36693076 -2.25 47.3125 C0.12150184 36.97216279 -0.32748765 26.71382345 -5.5234375 17.33984375 C-9.99563547 10.80607159 -15.69546433 7.17466346 -23.1875 4.75 C-27.86748153 4.04447515 -32.45736382 3.76399449 -37.1875 3.75 C-37.08050781 4.35328125 -36.97351563 4.9565625 -36.86328125 5.578125 C-35.88531312 12.09791252 -35.88531312 12.09791252 -37.375 15.3125 C-39.1875 16.75 -39.1875 16.75 -43.1875 16.75 C-47.1875 10 -47.1875 10 -47.1875 7.75 C-47.8475 7.75 -48.5075 7.75 -49.1875 7.75 C-51.22919485 4.84451118 -52.1875 3.34857954 -52.1875 -0.25 C-53.1775 -0.58 -54.1675 -0.91 -55.1875 -1.25 C-54.19956088 -3.75663276 -53.5448248 -5.02488538 -51.234375 -6.48046875 C-50.47640625 -6.79628906 -49.7184375 -7.11210937 -48.9375 -7.4375 C-48.18984375 -7.76105469 -47.4421875 -8.08460938 -46.671875 -8.41796875 C-30.30506067 -13.89930751 -13.62078834 -9.61467412 0 0 Z " fill="#969494" transform="translate(323.1875,176.25)"/>
<path d="M0 0 C0.69104324 -0.00145523 1.38208649 -0.00291046 2.09407043 -0.00440979 C4.36875716 -0.00667052 6.64329665 -0.0003327 8.91796875 0.0078125 C9.69912048 0.00969574 10.48027222 0.01157898 11.28509521 0.01351929 C35.36421204 0.08135211 59.25266645 0.5172972 83.10546875 4.1328125 C84.06904297 4.27589844 85.03261719 4.41898437 86.02539062 4.56640625 C96.71009187 6.20574263 107.01343437 7.86861558 116.10546875 14.1328125 C117.69486222 17.31159944 117.52123586 19.6284897 117.10546875 23.1328125 C112.86642525 28.43161688 108.2680702 28.95835958 101.71484375 29.7734375 C99.12893019 29.98733222 99.12893019 29.98733222 97.10546875 31.1328125 C94.59463706 31.40698378 92.0996962 31.63023716 89.58203125 31.81640625 C88.81810562 31.87624695 88.05417999 31.93608765 87.2671051 31.9977417 C84.75522446 32.19322569 82.24291905 32.38229997 79.73046875 32.5703125 C77.97956607 32.70278177 76.22867094 32.83535093 74.4777832 32.96801758 C71.83345765 33.16812796 69.18909599 33.36765167 66.54457092 33.56510925 C61.62523268 33.93399962 56.71054798 34.33417962 51.796875 34.7734375 C37.73761667 35.98592744 23.77233596 36.31607841 9.66796875 36.3203125 C8.34954483 36.32180801 8.34954483 36.32180801 7.00448608 36.32333374 C-2.03829328 36.32216771 -10.97851409 36.1490978 -19.99194336 35.34887695 C-24.64911122 35.0022041 -29.29042379 35.0640342 -33.95703125 35.1328125 C-35.76035585 35.15837344 -37.56375206 35.17938813 -39.3671875 35.1953125 C-40.14328369 35.20691406 -40.91937988 35.21851563 -41.71899414 35.23046875 C-45.5674939 35.05771598 -48.51973339 33.94073993 -51.89453125 32.1328125 C-50.92089844 30.67382812 -50.92089844 30.67382812 -48.89453125 29.1328125 C-46.02337297 28.74673594 -43.35543937 28.54890282 -40.47265625 28.4765625 C-39.59804749 28.44405396 -38.72343872 28.41154541 -37.82232666 28.37805176 C-34.84661415 28.27591841 -31.87121532 28.20078714 -28.89453125 28.1328125 C-27.82952393 28.10799805 -26.7645166 28.08318359 -25.66723633 28.05761719 C-18.58758216 27.90205458 -11.50762154 27.78875396 -4.42700195 27.68780518 C2.01628721 27.59412733 8.45929796 27.48396778 14.90234375 27.375 C16.78143433 27.34338272 16.78143433 27.34338272 18.69848633 27.31112671 C38.98542801 26.96789486 59.19077519 26.44760318 79.41796875 24.7578125 C80.13275391 24.70054993 80.84753906 24.64328735 81.58398438 24.58428955 C95.25184617 24.26005135 95.25184617 24.26005135 107.10546875 19.1328125 C98.98121343 16.16309421 91.09399887 14.19861747 82.54296875 12.9453125 C81.49689453 12.78095703 80.45082031 12.61660156 79.37304688 12.44726562 C68.34743295 10.75680837 57.35228561 9.98141939 46.21216011 9.50205994 C44.12234795 9.4119264 42.03271774 9.31828273 39.94309998 9.22375488 C34.01118862 8.95601477 28.07901167 8.69441876 22.14672852 8.43505859 C18.49642764 8.2752283 14.84632088 8.11144568 11.19630241 7.94529724 C9.81250822 7.88314386 8.42864307 7.82254924 7.04471016 7.76356506 C5.11631588 7.68135228 3.1881547 7.5937259 1.26000977 7.50585938 C0.16511734 7.45780151 -0.92977509 7.40974365 -2.05784607 7.36022949 C-4.47032328 7.16682124 -6.58125148 6.81545762 -8.89453125 6.1328125 C-9.38953125 3.6578125 -9.38953125 3.6578125 -9.89453125 1.1328125 C-6.40839102 -0.02923424 -3.67873833 0.00329404 0 0 Z " fill="#EEE4D5" transform="translate(161.89453125,102.8671875)"/>
<path d="M0 0 C2.57421875 0.46484375 2.57421875 0.46484375 5.26171875 2.83984375 C6.57421875 5.46484375 6.57421875 5.46484375 6.57421875 7.46484375 C9.54421875 7.79484375 12.51421875 8.12484375 15.57421875 8.46484375 C15.57421875 7.80484375 15.57421875 7.14484375 15.57421875 6.46484375 C16.89421875 6.46484375 18.21421875 6.46484375 19.57421875 6.46484375 C19.67673547 11.59067986 19.61012074 16.41482153 18.57421875 21.46484375 C21.54421875 20.96984375 21.54421875 20.96984375 24.57421875 20.46484375 C24.90421875 19.14484375 25.23421875 17.82484375 25.57421875 16.46484375 C26.56421875 16.46484375 27.55421875 16.46484375 28.57421875 16.46484375 C28.57421875 18.11484375 28.57421875 19.76484375 28.57421875 21.46484375 C29.23421875 21.46484375 29.89421875 21.46484375 30.57421875 21.46484375 C30.90421875 20.47484375 31.23421875 19.48484375 31.57421875 18.46484375 C32.23421875 18.46484375 32.89421875 18.46484375 33.57421875 18.46484375 C33.71294799 23.93267628 33.30155826 28.91197905 32.1484375 34.26953125 C32.00095062 34.98744339 31.85346375 35.70535553 31.70150757 36.44502258 C31.38862635 37.96512008 31.07238129 39.48452866 30.75296021 41.00326538 C29.92989645 44.91814869 29.13160529 48.83807592 28.33203125 52.7578125 C28.09822502 53.89984886 28.09822502 53.89984886 27.85969543 55.06495667 C26.21067919 63.16304945 24.81218218 71.29428512 23.57421875 79.46484375 C21.09921875 79.95984375 21.09921875 79.95984375 18.57421875 80.46484375 C17.28715959 77.89072542 17.35458491 75.857945 17.203125 72.9765625 C16.59233761 64.29764416 15.04483939 55.83012453 13.51171875 47.27734375 C13.08874966 44.88902481 12.66753751 42.50040952 12.24794006 40.11149597 C11.9887227 38.63868594 11.72728797 37.166264 11.46336365 35.69429016 C10.57421875 30.68470648 10.57421875 30.68470648 10.57421875 28.46484375 C8.92421875 28.13484375 7.27421875 27.80484375 5.57421875 27.46484375 C6.23421875 25.48484375 6.89421875 23.50484375 7.57421875 21.46484375 C7.0052739 21.49448212 6.43632904 21.52412048 5.85014343 21.55465698 C-10.34405394 22.37297412 -26.50399704 22.62174255 -42.7175293 22.59521484 C-46.61966813 22.58983494 -50.52169265 22.59520922 -54.42382812 22.6015625 C-73.27180951 22.60722383 -92.02536776 22.40848373 -110.73046875 19.921875 C-114.63553163 19.43890211 -118.5125993 19.19204971 -122.4453125 19.1015625 C-125.46215357 18.13165107 -126.64398166 15.98338744 -128.42578125 13.46484375 C-127.5234375 13.58601563 -126.62109375 13.7071875 -125.69140625 13.83203125 C-102.51381285 16.81873337 -79.30843858 17.80107942 -55.95336914 17.72558594 C-52.58695778 17.71646568 -49.22114645 17.72096857 -45.85478306 17.73273087 C-42.5880731 17.74166875 -39.32140145 17.7354364 -36.0546875 17.73046875 C-34.25651329 17.73654144 -34.25651329 17.73654144 -32.42201233 17.74273682 C-31.31152023 17.7364325 -30.20102814 17.73012817 -29.05688477 17.72363281 C-28.086548 17.72204163 -27.11621124 17.72045044 -26.11647034 17.71881104 C-23.22914847 17.44628408 -21.05136719 16.66738169 -18.42578125 15.46484375 C-18.42578125 16.12484375 -18.42578125 16.78484375 -18.42578125 17.46484375 C-16.44578125 17.13484375 -14.46578125 16.80484375 -12.42578125 16.46484375 C-12.4721875 15.645 -12.51859375 14.82515625 -12.56640625 13.98046875 C-12.6025 12.9028125 -12.63859375 11.82515625 -12.67578125 10.71484375 C-12.7221875 9.6475 -12.76859375 8.58015625 -12.81640625 7.48046875 C-12.42578125 4.46484375 -12.42578125 4.46484375 -10.75390625 2.109375 C-7.17787484 -0.41664719 -4.2564389 -0.14207072 0 0 Z " fill="#D1BDAD" transform="translate(228.42578125,270.53515625)"/>
<path d="M0 0 C-0.33 3.63 -0.66 7.26 -1 11 C6.92 11 14.84 11 23 11 C23 11.33 23 11.66 23 12 C15.08 12.33 7.16 12.66 -1 13 C-0.505 19.435 -0.505 19.435 0 26 C-1.65 26.99 -3.3 27.98 -5 29 C-5.495 29.495 -5.495 29.495 -6 30 C-7.41379519 30.09931619 -8.83272849 30.12969295 -10.25 30.125 C-11.01828125 30.12757813 -11.7865625 30.13015625 -12.578125 30.1328125 C-15 30 -15 30 -17.375 29.3359375 C-21.0752691 28.86239116 -23.33651171 30.03920588 -26.75 31.5 C-27.7105127 31.90351685 -27.7105127 31.90351685 -28.69042969 32.31518555 C-30.06790445 32.89432846 -31.44317031 33.47874776 -32.81640625 34.06787109 C-35.85857505 35.3665071 -38.91772024 36.62253975 -41.97753906 37.87890625 C-43.47017403 38.49212457 -44.96174885 39.10793101 -46.45214844 39.7265625 C-49.28282407 40.9000939 -52.09180924 42.03060308 -55 43 C-53.36658505 46.00493215 -51.7283444 49.00720587 -50.08789062 52.00830078 C-49.29672588 53.45675724 -48.50648417 54.90571799 -47.71679688 56.35498047 C-46.29279405 58.96715442 -44.86534937 61.57742692 -43.4375 64.1875 C-42.97883545 65.03022461 -42.5201709 65.87294922 -42.04760742 66.74121094 C-39.50941371 71.37328953 -36.87378486 75.87186536 -33.93920898 80.26538086 C-32.51344577 82.89861393 -32.58425469 85.0897828 -33 88 C-33.33 88.66 -33.66 89.32 -34 90 C-37.77828641 89.48942075 -39.52662912 88.88884525 -42 86 C-42.882843 84.528595 -43.70956144 83.02304016 -44.5 81.5 C-47.36571354 76.11874738 -50.37596788 70.8347063 -53.4375 65.5625 C-53.91227783 64.74120605 -54.38705566 63.91991211 -54.8762207 63.07373047 C-56.97186936 59.45577439 -59.0784575 55.84866295 -61.265625 52.28515625 C-61.89984375 51.24230469 -62.5340625 50.19945312 -63.1875 49.125 C-63.73792969 48.24070313 -64.28835937 47.35640625 -64.85546875 46.4453125 C-66.16439105 43.64877544 -66.54751611 42.04398866 -66 39 C-63.29184387 36.27906955 -60.02770037 35.03797676 -56.5 33.625 C-54.92992187 32.98884766 -54.92992187 32.98884766 -53.328125 32.33984375 C-52.22984375 31.89769531 -51.1315625 31.45554688 -50 31 C-47.74879636 30.06539397 -45.49873672 29.12802614 -43.25 28.1875 C-41.5 27.45833333 -39.75 26.72916667 -38 26 C-38.65585189 22.39007621 -38.65585189 22.39007621 -40 19 C-40.4375 15.6875 -40.4375 15.6875 -40 12 C-32.69760796 3.2776984 -17.87524135 1.40010405 -7.0625 0.375 C-4.69745095 0.18207054 -2.37240414 0 0 0 Z " fill="#847C73" transform="translate(114,105)"/>
<path d="M0 0 C4 4.09756098 4 4.09756098 4 7 C4.66 7 5.32 7 6 7 C8.35392266 13.91464782 9.50822844 20.43850669 6.25 27.25 C2.51281843 33.81285543 -1.48461167 38.27502258 -8.8984375 40.59375 C-11.33481239 41.0647221 -13.643872 41.20556189 -16.125 41.25 C-16.99382812 41.27578125 -17.86265625 41.3015625 -18.7578125 41.328125 C-19.49773437 41.21984375 -20.23765625 41.1115625 -21 41 C-21.66 40.01 -22.32 39.02 -23 38 C-23.9075 37.7525 -24.815 37.505 -25.75 37.25 C-30.82319161 35.29877246 -33.49161133 31.73805335 -36.078125 27.04296875 C-39.23987426 19.75657385 -37.32743668 13.27323962 -35 6 C-34 4 -34 4 -31 3 C-30.4225 2.195625 -29.845 1.39125 -29.25 0.5625 C-22.31310236 -7.33785564 -8.05817892 -5.19936441 0 0 Z " fill="#ECE2D4" transform="translate(226,172)"/>
<path d="M0 0 C3.11752483 0.3597144 6.14593385 0.76540014 9.17578125 1.59765625 C13.19802153 2.1706725 16.92470938 1.56497865 20.9375 1.0625 C43.64064304 -1.47845889 76.6003618 -3.5156494 98 6 C98.33 6.99 98.66 7.98 99 9 C96.43789564 9.31604401 93.87537871 9.62784627 91.3125 9.9375 C90.61060547 10.02451172 89.90871094 10.11152344 89.18554688 10.20117188 C77.7295343 11.57589338 66.24320633 12.20058324 54.71484375 12.5546875 C54.04267256 12.57562344 53.37050137 12.59655937 52.67796135 12.61812973 C35.70215815 13.13413086 18.72517283 13.15312236 1.74291992 13.13037109 C-2.65713978 13.12453326 -7.05714034 13.12806238 -11.45719814 13.13394356 C-14.88251708 13.13753569 -18.3078216 13.13641927 -21.73314095 13.13381577 C-23.35951812 13.13314989 -24.98589662 13.13396303 -26.61227226 13.13629532 C-28.85019394 13.13881434 -31.08801374 13.13499858 -33.32592773 13.12939453 C-35.22966408 13.12820114 -35.22966408 13.12820114 -37.17185974 13.12698364 C-40 13 -40 13 -41 12 C-41.14115161 9.32941149 -41.04247107 6.67567762 -41 4 C-40.28569824 4.01571045 -39.57139648 4.0314209 -38.83544922 4.04760742 C-19.67419758 4.70343036 -19.67419758 4.70343036 -1 1 C-0.67 0.67 -0.34 0.34 0 0 Z " fill="#F85405" transform="translate(154,118)"/>
<path d="M0 0 C0.99 0 1.98 0 3 0 C3 1.98 3 3.96 3 6 C5.31 6 7.62 6 10 6 C10.33 4.02 10.66 2.04 11 0 C11.99 0 12.98 0 14 0 C14 1.65 14 3.3 14 5 C14.66 5 15.32 5 16 5 C16.33 4.01 16.66 3.02 17 2 C17.66 2 18.32 2 19 2 C19.13872924 7.46783253 18.72733951 12.4471353 17.57421875 17.8046875 C17.42673187 18.52259964 17.279245 19.24051178 17.12728882 19.98017883 C16.8144076 21.50027633 16.49816254 23.01968491 16.17874146 24.53842163 C15.3556777 28.45330494 14.55738654 32.37323217 13.7578125 36.29296875 C13.60194168 37.05432632 13.44607086 37.8156839 13.28547668 38.60011292 C11.63646044 46.6982057 10.23796343 54.82944137 9 63 C6.525 63.495 6.525 63.495 4 64 C2.70867648 61.41735297 2.77768624 59.36301594 2.625 56.47265625 C2.02916577 48.01111191 0.51579524 39.77170517 -1 31.4375 C-2.77890859 21.63366751 -4.43873713 11.968464 -5 2 C-4.01 2 -3.02 2 -2 2 C-2 2.99 -2 3.98 -2 5 C-1.34 5 -0.68 5 0 5 C0 3.35 0 1.7 0 0 Z " fill="#181314" transform="translate(243,287)"/>
<path d="M0 0 C3.07469523 1.70251719 5.40613254 3.81226508 7 7 C7.07033769 8.87379605 7.0843022 10.75001102 7.0625 12.625 C7.05347656 13.62789062 7.04445312 14.63078125 7.03515625 15.6640625 C7.02355469 16.43492187 7.01195312 17.20578125 7 18 C9.31 18 11.62 18 14 18 C11.9692817 22.59583615 9.68020321 25.59581203 6 29 C5.484375 29.5775 4.96875 30.155 4.4375 30.75 C1.48919474 33.3137437 -2.36864282 33.18272196 -6.125 33.25 C-6.99382812 33.27578125 -7.86265625 33.3015625 -8.7578125 33.328125 C-9.49773437 33.21984375 -10.23765625 33.1115625 -11 33 C-11.66 32.01 -12.32 31.02 -13 30 C-13.928125 29.71125 -14.85625 29.4225 -15.8125 29.125 C-19.64635517 27.77187465 -21.49887726 26.18324712 -24 23 C-23.8125 20.6875 -23.8125 20.6875 -23 19 C-21.68 18.67 -20.36 18.34 -19 18 C-18.84144531 17.19175781 -18.68289062 16.38351563 -18.51953125 15.55078125 C-16.18425522 4.85495901 -16.18425522 4.85495901 -11 1 C-7.51556578 -0.74221711 -3.80112955 -0.58675154 0 0 Z " fill="#ECE3D7" transform="translate(216,180)"/>
<path d="M0 0 C2.03490521 1.19812176 3.71806134 2.4589847 5.46484375 4.04296875 C6.26921875 4.76484375 7.07359375 5.48671875 7.90234375 6.23046875 C10.1836488 10.33681784 10.28484181 14.40791891 10.46484375 19.04296875 C1.19517044 21.88062384 -7.29822756 22.17408172 -16.97265625 22.10546875 C-18.18115234 22.10095703 -19.38964844 22.09644531 -20.63476562 22.09179688 C-23.60161414 22.0800702 -26.56835895 22.06365771 -29.53515625 22.04296875 C-28.84813335 8.43991531 -28.84813335 8.43991531 -25.53515625 4.04296875 C-18.70077992 -2.06723526 -8.46776676 -3.19661457 0 0 Z " fill="#0C0608" transform="translate(142.53515625,93.95703125)"/>
<path d="M0 0 C0 1.98 0 3.96 0 6 C-10.32564962 11.81726739 -10.32564962 11.81726739 -17 11 C-17.99 10.67 -18.98 10.34 -20 10 C-24.82104047 9.59143725 -27.68799059 9.59955329 -31.875 12.0625 C-36.56100104 14.70827395 -40.87091576 14.16979114 -46 13 C-46.33 12.67 -46.66 12.34 -47 12 C-52.11433318 11.53506062 -55.1884648 11.94196214 -59.8125 14.1875 C-65.04080555 16.499555 -68.24194859 15.58954464 -73.52734375 13.8203125 C-76.53443727 12.82269854 -78.85866001 12.56167349 -82 13 C-82.928125 13.495 -83.85625 13.99 -84.8125 14.5 C-88.91791669 16.4319608 -92.52384892 16.62666115 -97 16 C-98.33538933 15.33746128 -99.66877801 14.67087274 -101 14 C-104.5219395 13.53224241 -107.87234257 13.41908557 -111.0625 15.0625 C-114.21145185 16.58618638 -116.65662115 15.7366767 -120 15 C-121.19625 14.46375 -122.3925 13.9275 -123.625 13.375 C-128.54014518 11.37253345 -130.82307077 12.56114503 -135.6875 14.375 C-140.55857288 15.6733389 -143.49145995 13.48276912 -147.68359375 11.12109375 C-150.85007591 9.58858046 -152.68789545 9.96956747 -156 11 C-160.91800362 12.2990953 -163.35648414 12.09580905 -167.6875 9.625 C-168.41324219 9.16351563 -169.13898438 8.70203125 -169.88671875 8.2265625 C-171.95056487 7.02869248 -173.67099321 6.45213224 -176 6 C-176 4.68 -176 3.36 -176 2 C-172.28282195 2.35401696 -170.28942934 2.77876953 -167.28125 5.078125 C-163.26473365 7.43065601 -160.53658655 7.12627515 -156.125 6.5 C-149.39120466 5.77608441 -145.77855247 6.51106266 -140 10 C-136.85202733 9.84644036 -134.73911141 8.89257529 -131.8125 7.6875 C-127.04902108 6.828512 -124.69235795 7.99825543 -120.4296875 10.0546875 C-117.73110662 11.10461768 -115.87023523 11.31891503 -113 11 C-112.34 10.34 -111.68 9.68 -111 9 C-104.70036322 7.61194444 -101.94507327 8.34594943 -96 11 C-91.91185737 11.62955803 -88.72725795 11.37878018 -85 9.4375 C-80.99336059 7.51765195 -78.2327314 7.98856418 -74 9 C-72.96875 9.37125 -71.9375 9.7425 -70.875 10.125 C-67.40403071 11.18138196 -65.48708517 10.9444189 -62 10 C-61.05125 9.484375 -60.1025 8.96875 -59.125 8.4375 C-53.72099504 5.95165772 -49.08445679 6.6482786 -43.5625 8.1875 C-38.46589326 9.47497034 -34.70037934 8.06683347 -30 6 C-30 5.34 -30 4.68 -30 4 C-23.99443933 3.8849999 -18.18536539 4.0928101 -12.2265625 4.87890625 C-9.92231284 5.00422509 -8.19411104 4.6762671 -6 4 C-6 3.34 -6 2.68 -6 2 C-2.25 0 -2.25 0 0 0 Z " fill="#ADA6A4" transform="translate(264,144)"/>
<path d="M0 0 C2.39453125 -0.4140625 2.39453125 -0.4140625 5 0 C6.9140625 1.6796875 6.9140625 1.6796875 8.625 3.875 C11.57941516 7.60478204 13.50320038 9.72281488 18.375 10.625 C21.98669394 10.39392878 21.98669394 10.39392878 23.56640625 8.2109375 C24.82517741 6.18112417 25.9591317 4.1488894 27 2 C29.475 2.495 29.475 2.495 32 3 C32.47220881 8.78455797 31.66760057 12.56449556 28 17 C23.76688582 20.12444142 19.67782292 20.56962244 14.546875 20.4296875 C10.42993281 19.73511136 7.06290453 17.82334775 4 15 C4 14.34 4 13.68 4 13 C3.31292969 13.42152344 2.62585938 13.84304687 1.91796875 14.27734375 C1.01691406 14.82519531 0.11585938 15.37304688 -0.8125 15.9375 C-1.70582031 16.48277344 -2.59914062 17.02804688 -3.51953125 17.58984375 C-8.2281113 20.26669004 -12.68800678 20.8067703 -18 20 C-21.36790135 18.28762822 -23.47826596 15.90117697 -25.375 12.625 C-26.15257475 9.35918604 -26.13114355 6.34416055 -26 3 C-24.35 2.67 -22.7 2.34 -21 2 C-20.70867187 2.5775 -20.41734375 3.155 -20.1171875 3.75 C-18.87436344 6.00115302 -17.64117357 8.0185306 -16 10 C-12.06751939 11.0040376 -10.44949799 10.23373895 -6.875 8.375 C-3.83842582 6.11618442 -3.83842582 6.11618442 -1.9375 2.75 C-1.298125 1.8425 -0.65875 0.935 0 0 Z " fill="#140E0F" transform="translate(173,208)"/>
<path d="M0 0 C1.37562854 1.28965176 2.70766393 2.62689293 4 4 C5.65583225 4.69313908 7.32110979 5.36474424 9 6 C9.33 6.66 9.66 7.32 10 8 C12.02463255 8.65213292 12.02463255 8.65213292 14 9 C14 9.66 14 10.32 14 11 C14.61875 11.103125 15.2375 11.20625 15.875 11.3125 C18 12 18 12 20 15 C20.78375 15.309375 21.5675 15.61875 22.375 15.9375 C25.38120698 17.15429806 26.76010106 18.69010421 29 21 C29.9075 21.474375 30.815 21.94875 31.75 22.4375 C34 24 34 24 34.5 26.5625 C34 29 34 29 31 31 C28.82348633 31.22705078 28.82348633 31.22705078 26.33203125 31.1953125 C25.43935547 31.18886719 24.54667969 31.18242187 23.62695312 31.17578125 C22.23379883 31.15064453 22.23379883 31.15064453 20.8125 31.125 C19.87212891 31.11597656 18.93175781 31.10695313 17.96289062 31.09765625 C15.64167032 31.07409056 13.32096356 31.04119116 11 31 C11 28.36 11 25.72 11 23 C11.99 22.67 12.98 22.34 14 22 C14 21.34 14 20.68 14 20 C13.38125 19.855625 12.7625 19.71125 12.125 19.5625 C10 19 10 19 8 18 C8 17.34 8 16.68 8 16 C6.68 15.67 5.36 15.34 4 15 C4 14.34 4 13.68 4 13 C3.37351563 12.82984375 2.74703125 12.6596875 2.1015625 12.484375 C1.28429687 12.24203125 0.46703125 11.9996875 -0.375 11.75 C-1.18710938 11.51796875 -1.99921875 11.2859375 -2.8359375 11.046875 C-5.50034586 9.75795543 -6.03944322 8.75638034 -7 6 C-7.125 3.25 -7.125 3.25 -7 1 C-4.4086487 -0.29567565 -2.87704151 -0.34250494 0 0 Z " fill="#857B71" transform="translate(242,253)"/>
<path d="M0 0 C2.64 0 5.28 0 8 0 C9.01258452 15.00794906 9.1144481 29.96152009 9 45 C4.51763131 46.75219867 1.04416565 47.2174404 -3.75 46.875 C-4.87921875 46.81054688 -6.0084375 46.74609375 -7.171875 46.6796875 C-10 46 -10 46 -11.390625 43.9453125 C-11.59171875 43.30335938 -11.7928125 42.66140625 -12 42 C-10 39 -10 39 -8.16015625 38.453125 C-7.46792969 38.38609375 -6.77570313 38.3190625 -6.0625 38.25 C-5.37285156 38.17265625 -4.68320313 38.0953125 -3.97265625 38.015625 C-2 38 -2 38 1 39 C0.96970703 38.31599121 0.93941406 37.63198242 0.90820312 36.92724609 C-0.19008061 11.80611778 -0.19008061 11.80611778 0 0 Z " fill="#888077" transform="translate(158,304)"/>
<path d="M0 0 C2.31 0 4.62 0 7 0 C7.64378133 11.60347355 8.10294697 23.18963546 8.125 34.8125 C8.12951172 35.81418213 8.13402344 36.81586426 8.13867188 37.84790039 C8.13673828 38.77078857 8.13480469 39.69367676 8.1328125 40.64453125 C8.13168457 41.46284424 8.13055664 42.28115723 8.12939453 43.12426758 C8 45 8 45 7 46 C4.17583618 46.12663091 1.38705207 46.18520548 -1.4375 46.1875 C-2.22705078 46.19974609 -3.01660156 46.21199219 -3.83007812 46.22460938 C-5.88807435 46.22987279 -7.94562009 46.12206285 -10 46 C-10.66 45.34 -11.32 44.68 -12 44 C-11.67 42.35 -11.34 40.7 -11 39 C-7.37 38.34 -3.74 37.68 0 37 C-0.03552979 36.05680908 -0.07105957 35.11361816 -0.10766602 34.1418457 C-0.23719613 30.62896316 -0.36145079 27.11597507 -0.48217773 23.6027832 C-0.5354146 22.08480439 -0.59072853 20.5668969 -0.64819336 19.04907227 C-0.73061847 16.86229831 -0.80547122 14.67537334 -0.87890625 12.48828125 C-0.9260376 11.17384033 -0.97316895 9.85939941 -1.02172852 8.50512695 C-1.00297596 5.48006575 -0.72984472 2.92183626 0 0 Z " fill="#867E76" transform="translate(186,304)"/>
<path d="M0 0 C2.6875 2.375 2.6875 2.375 4 5 C4 5.66 4 6.32 4 7 C6.97 7.33 9.94 7.66 13 8 C13 7.34 13 6.68 13 6 C14.32 6 15.64 6 17 6 C17.10251672 11.12583611 17.03590199 15.94997778 16 21 C17.98 21 19.96 21 22 21 C22 21.33 22 21.66 22 22 C19.69 22 17.38 22 15 22 C15 20.02 15 18.04 15 16 C10.71 15.67 6.42 15.34 2 15 C1.67 15.99 1.34 16.98 1 18 C-2.49474739 19.7473737 -6.18678856 19.55225821 -10 19 C-13.0625 17.125 -13.0625 17.125 -15 14 C-15.82484377 9.44126524 -15.77456415 5.5491283 -13.6875 1.375 C-9.27690991 -0.88158097 -4.83296392 -0.87272034 0 0 Z " fill="#81786F" transform="translate(231,271)"/>
<path d="M0 0 C1.09658936 3.28976808 0.79953138 4.71303767 0 8 C-6.03236689 9.63376603 -12.11905246 10.80115184 -18.27539062 11.85864258 C-22.06660987 12.53531833 -25.48547318 13.41675685 -29 15 C-29 15.99 -29 16.98 -29 18 C-27.02 18.66 -25.04 19.32 -23 20 C-23 20.66 -23 21.32 -23 22 C-24.6232687 22.6708712 -26.24867578 23.33657029 -27.875 24 C-28.77992187 24.37125 -29.68484375 24.7425 -30.6171875 25.125 C-33 26 -33 26 -35 26 C-37.36160512 21.17838955 -38.91319071 17.47914428 -38 12 C-30.6710289 3.24595119 -15.78389558 1.38493224 -4.9375 0.375 C-3.29212602 0.24409233 -1.64642547 0.11694237 0 0 Z " fill="#EDE4D8" transform="translate(112,105)"/>
<path d="M0 0 C6.72 0.72 6.72 0.72 8 2 C8.04063832 3.66617115 8.042721 5.33388095 8 7 C2.83795262 9.42799857 -1.93367939 10.81749385 -7.5625 11.6875 C-8.7697876 11.87747559 -8.7697876 11.87747559 -10.00146484 12.07128906 C-19.80529856 13.46033711 -30.12201706 13.86903076 -40 13 C-41 12 -41 12 -41.09765625 10.15234375 C-41.06510417 8.1015625 -41.03255208 6.05078125 -41 4 C-40.28569824 4.01571045 -39.57139648 4.0314209 -38.83544922 4.04760742 C-19.67419758 4.70343036 -19.67419758 4.70343036 -1 1 C-0.67 0.67 -0.34 0.34 0 0 Z " fill="#0B0608" transform="translate(154,118)"/>
<path d="M0 0 C0.99 0 1.98 0 3 0 C3 1.98 3 3.96 3 6 C5.64 6 8.28 6 11 6 C10.59448025 10.46605809 10.18543972 14.93177578 9.77319336 19.3972168 C9.63356272 20.91503255 9.4948793 22.43293576 9.35717773 23.95092773 C9.1586048 26.13809748 8.9565805 28.32492571 8.75390625 30.51171875 C8.63345947 31.82615967 8.5130127 33.14060059 8.38891602 34.49487305 C8.06791898 37.38787648 7.63251441 40.16203911 7 43 C6.67 43 6.34 43 6 43 C4.66737093 31.28000331 3.67811442 19.80247133 4 8 C3.34 8 2.68 8 2 8 C2.06058594 8.57854736 2.12117187 9.15709473 2.18359375 9.75317383 C4.38016122 30.98173114 4.38016122 30.98173114 4 40 C2.09277344 39.42504883 2.09277344 39.42504883 0 38 C-0.91308594 35.0065918 -0.91308594 35.0065918 -1.484375 31.19921875 C-1.58969543 30.52582962 -1.69501587 29.85244049 -1.80352783 29.15864563 C-2.13585524 27.00376949 -2.44269755 24.84607125 -2.75 22.6875 C-2.97109509 21.24520253 -3.19373406 19.80314082 -3.41796875 18.36132812 C-5.14539723 7.0036909 -5.14539723 7.0036909 -5 2 C-4.01 2 -3.02 2 -2 2 C-2 2.99 -2 3.98 -2 5 C-1.34 5 -0.68 5 0 5 C0 3.35 0 1.7 0 0 Z " fill="#130E0E" transform="translate(243,287)"/>
<path d="M0 0 C4.36157032 2.01089888 7.11871947 4.8433193 10 8.625 C11.51089413 13.72426769 11.23061636 18.72144768 11 24 C9.35 24 7.7 24 6 24 C5.84144531 22.94039062 5.68289062 21.88078125 5.51953125 20.7890625 C5.2850345 19.40084177 5.04929233 18.01283101 4.8125 16.625 C4.71130859 15.92632812 4.61011719 15.22765625 4.50585938 14.5078125 C4.14522046 12.20258368 4.14522046 12.20258368 3 9 C0.61702756 7.46384127 0.61702756 7.46384127 -2 7 C-2.7425 6.731875 -3.485 6.46375 -4.25 6.1875 C-8.6208068 5.88949045 -12.31527702 6.54588914 -16 9 C-17.72749177 12.21536372 -18.39109071 15.4226579 -19 19 C-19.33244534 20.66684402 -19.66551811 22.33356346 -20 24 C-21.65 23.67 -23.3 23.34 -25 23 C-25.50453712 16.03458478 -25.20796217 11.68643536 -21 6 C-14.55748387 0.04067258 -8.66786963 -1.26522041 0 0 Z " fill="#1C1515" transform="translate(152,174)"/>
<path d="M0 0 C2.65494707 0.00502892 5.30989506 0.00958935 7.96484375 0.01367188 C14.39324988 0.02455819 20.82162042 0.04118421 27.25 0.0625 C27.25 0.3925 27.25 0.7225 27.25 1.0625 C3.46122564 2.25638403 3.46122564 2.25638403 -6.75 2.0625 C-6.75 2.7225 -6.75 3.3825 -6.75 4.0625 C-6.09 4.0625 -5.43 4.0625 -4.75 4.0625 C-4.75 4.7225 -4.75 5.3825 -4.75 6.0625 C-1.45 6.0625 1.85 6.0625 5.25 6.0625 C5.25 6.3925 5.25 6.7225 5.25 7.0625 C-3.30212286 7.77609177 -11.47579209 8.1684193 -20.0390625 7.31640625 C-25.88753288 6.91624775 -31.73320843 7.02112548 -37.5925293 7.09985352 C-38.46047119 7.10815186 -39.32841309 7.1164502 -40.22265625 7.125 C-41.38680054 7.14240234 -41.38680054 7.14240234 -42.57446289 7.16015625 C-46.42296265 6.98740348 -49.37520214 5.87042743 -52.75 4.0625 C-51.77050781 2.60522461 -51.77050781 2.60522461 -49.75 1.0625 C-46.90744172 0.66263352 -44.27762993 0.45687106 -41.421875 0.37890625 C-40.55294617 0.34567764 -39.68401733 0.31244904 -38.78875732 0.2782135 C-25.86566321 -0.1528591 -12.92809665 -0.0430233 0 0 Z " fill="#F0E0CB" transform="translate(162.75,130.9375)"/>
<path d="M0 0 C4.72336849 2.13972144 7.67291272 4.41005991 9.703125 9.31640625 C10.01698231 14.00334215 9.93437575 18.62715499 9.703125 23.31640625 C8.053125 23.31640625 6.403125 23.31640625 4.703125 23.31640625 C4.67734375 22.58035156 4.6515625 21.84429687 4.625 21.0859375 C4.2338755 13.37222462 4.2338755 13.37222462 -0.296875 7.31640625 C-3.75725714 5.58621518 -7.50690748 5.97484938 -11.296875 6.31640625 C-14.34224978 7.37566704 -15.71989755 8.21820967 -17.2265625 11.0859375 C-18.82873673 15.07611428 -19.76267018 19.04276772 -20.296875 23.31640625 C-21.946875 23.31640625 -23.596875 23.31640625 -25.296875 23.31640625 C-25.64025771 16.9956209 -25.71782269 11.87544624 -22.296875 6.31640625 C-15.5162775 0.18752262 -9.17279785 -2.72999936 0 0 Z " fill="#1B1516" transform="translate(218.296875,174.68359375)"/>
<path d="M0 0 C1 1 2 2 3 3 C5.03232242 4.19599068 5.03232242 4.19599068 7.1875 5.1875 C8.26064453 5.70376953 8.26064453 5.70376953 9.35546875 6.23046875 C9.89816406 6.48441406 10.44085938 6.73835937 11 7 C11 7.66 11 8.32 11 9 C10.34 9.66 9.68 10.32 9 11 C8.896875 11.94875 8.79375 12.8975 8.6875 13.875 C8 17 8 17 6 19.375 C1.9227349 21.5835186 -1.45609404 21.82384837 -6 21 C-8.5 19.4375 -8.5 19.4375 -10 17 C-10.75 13.25 -10.75 13.25 -11 10 C-9.35 9.67 -7.7 9.34 -6 9 C-8.31 8.34 -10.62 7.68 -13 7 C-10.65704057 5.43802705 -8.30985802 3.89153541 -5.9375 2.375 C-5.24527344 1.92898437 -4.55304688 1.48296875 -3.83984375 1.0234375 C-2 0 -2 0 0 0 Z " fill="#E3D3C4" transform="translate(177,221)"/>
<path d="M0 0 C3.5625 1.3125 3.5625 1.3125 6 3 C6.33 3.99 6.66 4.98 7 6 C5.68 6 4.36 6 3 6 C3 8.64 3 11.28 3 14 C8.28 14 13.56 14 19 14 C19 14.33 19 14.66 19 15 C16.69 15 14.38 15 12 15 C12 16.32 12 17.64 12 19 C10.625 20.75 10.625 20.75 9 22 C8.34 22 7.68 22 7 22 C7 20.35 7 18.7 7 17 C6.01 17 5.02 17 4 17 C3.67 18.65 3.34 20.3 3 22 C1.02 22 -0.96 22 -3 22 C-2.67 17.05 -2.34 12.1 -2 7 C-3.32 7 -4.64 7 -6 7 C-6 7.66 -6 8.32 -6 9 C-9.10148341 8.9867458 -12.0002855 8.82092015 -15 8 C-17.5625 4.9375 -17.5625 4.9375 -19 2 C-16.525 2.495 -16.525 2.495 -14 3 C-14 3.66 -14 4.32 -14 5 C-13.34 5 -12.68 5 -12 5 C-12.33 4.01 -12.66 3.02 -13 2 C-8.73847759 -0.84101494 -5.00166053 -0.51259254 0 0 Z " fill="#E5B024" transform="translate(250,270)"/>
<path d="M0 0 C3.625 1.4375 3.625 1.4375 4.625 3.4375 C-0.92055486 5.86368025 -6.3164281 7.4375 -12.375 7.4375 C-12.705 6.7775 -13.035 6.1175 -13.375 5.4375 C-21.74593755 2.12882903 -32.3797777 0.4375 -41.375 0.4375 C-41 -1.5 -41 -1.5 -40.375 -3.5625 C-29.70351332 -8.89824334 -10.48979124 -3.23779383 0 0 Z " fill="#837B71" transform="translate(265.375,119.5625)"/>
<path d="M0 0 C0 1.98 0 3.96 0 6 C-12.85861912 9.86448661 -25.70971047 9.305254 -39 9 C-39.66 7.02 -40.32 5.04 -41 3 C-40.28980713 2.98018066 -39.57961426 2.96036133 -38.84790039 2.93994141 C-35.5857696 2.84384804 -32.32420672 2.7345145 -29.0625 2.625 C-27.38704102 2.57859375 -27.38704102 2.57859375 -25.67773438 2.53125 C-19.90335871 2.32804616 -14.50008227 1.91763008 -8.90625 0.42773438 C-5.9013238 -0.24652673 -3.06663306 -0.13049502 0 0 Z " fill="#9E9795" transform="translate(153,114)"/>
<path d="M0 0 C-1.20381448 2.49361571 -2.45428722 4.68143083 -4 7 C-3.34 7.33 -2.68 7.66 -2 8 C-2 9.66666667 -2 11.33333333 -2 13 C-2.99 13.33 -3.98 13.66 -5 14 C-4.39769761 15.37581764 -3.79304888 16.75060816 -3.1875 18.125 C-2.82527344 18.94742188 -2.46304688 19.76984375 -2.08984375 20.6171875 C-1.21524252 22.52939807 -0.24690427 24.39860635 0.75 26.25 C2.04884428 29.10745741 2.27318437 30.90391053 2 34 C3.65 34.33 5.3 34.66 7 35 C7.66 36.98 8.32 38.96 9 41 C4.25 44 4.25 44 2 44 C1.5978125 45.3303125 1.5978125 45.3303125 1.1875 46.6875 C0.0749365 49.7909666 -1.10195778 52.31110685 -3 55 C-3.66 55 -4.32 55 -5 55 C-3.9358345 51.45278168 -2.66488382 48.05220677 -1.125 44.6875 C-0.81820312 44.01074219 -0.51140625 43.33398438 -0.1953125 42.63671875 C1 41 1 41 3.1328125 40.26953125 C3.74898437 40.18058594 4.36515625 40.09164062 5 40 C5 39.01 5 38.02 5 37 C3.83017578 36.70029297 3.83017578 36.70029297 2.63671875 36.39453125 C0 35 0 35 -1.29296875 32.13671875 C-1.58816406 30.99847656 -1.88335937 29.86023438 -2.1875 28.6875 C-4.16573518 20.08665377 -4.16573518 20.08665377 -9.875 13.8125 C-10.55304688 13.32394531 -11.23109375 12.83539063 -11.9296875 12.33203125 C-13.90097782 11.0637105 -15.88272915 10.0016685 -18 9 C-18 7.68 -18 6.36 -18 5 C-18.66 4.67 -19.32 4.34 -20 4 C-19.443125 4.04640625 -18.88625 4.0928125 -18.3125 4.140625 C-12.88319763 4.39741633 -9.40954164 3.65009875 -4.7265625 0.875 C-3 0 -3 0 0 0 Z " fill="#DDCBBA" transform="translate(239,153)"/>
<path d="M0 0 C0 1.98 0 3.96 0 6 C-10.32564962 11.81726739 -10.32564962 11.81726739 -17 11 C-17.99 10.67 -18.98 10.34 -20 10 C-25.91236637 9.61230384 -28.68913962 10.2880713 -34 13 C-38.44020228 13.38277606 -41.1350831 13.11810948 -45 11 C-40 9.33333333 -35 7.66666667 -30 6 C-30 5.34 -30 4.68 -30 4 C-23.99443933 3.8849999 -18.18536539 4.0928101 -12.2265625 4.87890625 C-9.92231284 5.00422509 -8.19411104 4.6762671 -6 4 C-6 3.34 -6 2.68 -6 2 C-2.25 0 -2.25 0 0 0 Z " fill="#9B9797" transform="translate(264,144)"/>
<path d="M0 0 C0.66 0 1.32 0 2 0 C2.33748053 4.5205337 2.66924739 9.04146945 3 13.5625 C3.09539062 14.83931641 3.19078125 16.11613281 3.2890625 17.43164062 C3.42441406 19.29272461 3.42441406 19.29272461 3.5625 21.19140625 C3.64628906 22.32779541 3.73007813 23.46418457 3.81640625 24.63500977 C4.00528625 28.09688882 4.0308288 31.53368718 4 35 C4.66 35 5.32 35 6 35 C6.144375 36.216875 6.28875 37.43375 6.4375 38.6875 C6.72292612 41.04536798 7.06128786 43.25128022 7.625 45.5625 C8.13042637 48.84777137 7.57407674 51.74689845 7 55 C4.525 55.495 4.525 55.495 2 56 C0.65828267 53.31656534 0.69772365 50.994101 0.5 48 C0.10194726 42.31985061 -0.39929152 36.66199699 -1 31 C-0.34 31 0.32 31 1 31 C1.06907756 23.94065677 0.86632713 16.92432203 0.5 9.875 C0.42845703 8.44027344 0.42845703 8.44027344 0.35546875 6.9765625 C0.23918667 4.65092089 0.12066754 2.32541747 0 0 Z " fill="#2A2525" transform="translate(245,295)"/>
<path d="M0 0 C2.64 0 5.28 0 8 0 C8.65764731 11.01559238 9.16207546 21.96086055 9 33 C8.67 33 8.34 33 8 33 C7.96261719 32.16855469 7.92523438 31.33710938 7.88671875 30.48046875 C7.78810547 28.85044922 7.78810547 28.85044922 7.6875 27.1875 C7.62949219 26.10855469 7.57148438 25.02960938 7.51171875 23.91796875 C6.96931493 20.82502483 6.44710376 19.86977097 4 18 C3.34 18.33 2.68 18.66 2 19 C-0.04898287 14.78103134 -0.21207997 11.34627854 -0.125 6.6875 C-0.10695312 5.43324219 -0.08890625 4.17898438 -0.0703125 2.88671875 C-0.03550781 1.45779297 -0.03550781 1.45779297 0 0 Z " fill="#8D837A" transform="translate(158,304)"/>
<path d="M0 0 C2.05078125 0.03255208 4.1015625 0.06510417 6.15234375 0.09765625 C5.746824 4.56371434 5.33778347 9.02943203 4.92553711 13.49487305 C4.78590647 15.0126888 4.64722305 16.53059201 4.50952148 18.04858398 C4.31094855 20.23575373 4.10892425 22.42258196 3.90625 24.609375 C3.78580322 25.92381592 3.66535645 27.23825684 3.54125977 28.5925293 C3.22026273 31.48553273 2.78485816 34.25969536 2.15234375 37.09765625 C1.82234375 37.09765625 1.49234375 37.09765625 1.15234375 37.09765625 C-0.18028532 25.37765956 -1.16954183 13.90012758 -0.84765625 2.09765625 C-1.50765625 1.76765625 -2.16765625 1.43765625 -2.84765625 1.09765625 C-1.84765625 0.09765625 -1.84765625 0.09765625 0 0 Z " fill="#090407" transform="translate(247.84765625,292.90234375)"/>
<path d="M0 0 C0.474375 0.495 0.94875 0.99 1.4375 1.5 C5.10560943 3.64718601 8.83575725 3.78223344 13 3 C13.71929687 2.25169922 13.71929687 2.25169922 14.453125 1.48828125 C16 0 16 0 18.48046875 -0.29296875 C19.37378906 -0.25816406 20.26710937 -0.22335937 21.1875 -0.1875 C22.08855469 -0.16042969 22.98960937 -0.13335937 23.91796875 -0.10546875 C24.94857422 -0.05326172 24.94857422 -0.05326172 26 0 C26 1.98 26 3.96 26 6 C25.34 6 24.68 6 24 6 C24 5.01 24 4.02 24 3 C23.01 3 22.02 3 21 3 C21.495 7.95 21.495 7.95 22 13 C19.525 12.505 19.525 12.505 17 12 C17.66 10.02 18.32 8.04 19 6 C17.85144531 6.08378906 16.70289063 6.16757812 15.51953125 6.25390625 C-3.93064792 7.57017849 -3.93064792 7.57017849 -12 6 C-12.33 5.34 -12.66 4.68 -13 4 C-11.39658445 3.66307215 -9.79223445 3.33058907 -8.1875 3 C-7.29417969 2.814375 -6.40085938 2.62875 -5.48046875 2.4375 C-3 2 -3 2 0 2 C0 1.34 0 0.68 0 0 Z " fill="#BAACA0" transform="translate(217,286)"/>
<path d="M0 0 C2.97 0.495 2.97 0.495 6 1 C6.33 1.99 6.66 2.98 7 4 C8.98 4 10.96 4 13 4 C13.66 2.68 14.32 1.36 15 0 C17.475 0.495 17.475 0.495 20 1 C19.75210718 4.63576129 19.37473207 6.55500567 17 9.375 C12.9227349 11.5835186 9.54390596 11.82384837 5 11 C2.5 9.4375 2.5 9.4375 1 7 C0.25 3.25 0.25 3.25 0 0 Z " fill="#887E74" transform="translate(166,231)"/>
<path d="M0 0 C0.99 1.485 0.99 1.485 2 3 C2.99 3 3.98 3 5 3 C7.08745045 6.13117567 7.27653996 7.06946224 7.4140625 10.66796875 C7.45273438 11.56064453 7.49140625 12.45332031 7.53125 13.37304688 C7.5621875 14.30181641 7.593125 15.23058594 7.625 16.1875 C7.66367188 17.12787109 7.70234375 18.06824219 7.7421875 19.03710938 C7.83643187 21.3578771 7.92204025 23.67863748 8 26 C7.071875 25.4740625 7.071875 25.4740625 6.125 24.9375 C5.42375 24.628125 4.7225 24.31875 4 24 C3.34 24.33 2.68 24.66 2 25 C-0.21462689 16.59628191 -0.20705918 8.6274658 0 0 Z M2 20 C2 20.66 2 21.32 2 22 C2.66 21.67 3.32 21.34 4 21 C3.34 20.67 2.68 20.34 2 20 Z " fill="#80776E" transform="translate(159,319)"/>
<path d="M0 0 C9.97038529 -0.1234298 19.91110369 0.04607448 29.875 0.4375 C30.9074585 0.47673584 31.93991699 0.51597168 33.00366211 0.55639648 C39.69285464 0.83526896 46.33870428 1.33058495 53 2 C53 2.33 53 2.66 53 3 C47.39 3 41.78 3 36 3 C35.67 3.66 35.34 4.32 35 5 C21.50600423 5.17275386 21.50600423 5.17275386 15.8125 4.4375 C12.08315527 3.73765853 12.08315527 3.73765853 9 5 C9 3.68 9 2.36 9 1 C6.03 1 3.06 1 0 1 C0 0.67 0 0.34 0 0 Z " fill="#A79A93" transform="translate(179,111)"/>
<path d="M0 0 C1.18625977 -0.00580078 1.18625977 -0.00580078 2.39648438 -0.01171875 C7.13939943 -0.00388569 11.63519057 0.33605624 16.3125 1.125 C16.3125 1.455 16.3125 1.785 16.3125 2.125 C14.6625 2.125 13.0125 2.125 11.3125 2.125 C11.6425 3.445 11.9725 4.765 12.3125 6.125 C4.24220447 6.24047323 -3.66417603 6.02541311 -11.6875 5.125 C-11.3125 3.1875 -11.3125 3.1875 -10.6875 1.125 C-7.3606134 -0.5384433 -3.65388428 -0.01744098 0 0 Z " fill="#857E77" transform="translate(235.6875,114.875)"/>
<path d="M0 0 C1.42904663 0.00507568 1.42904663 0.00507568 2.88696289 0.01025391 C42.38526409 0.29334866 42.38526409 0.29334866 55.5 6.125 C55.995 7.61 55.995 7.61 56.5 9.125 C55.18 9.125 53.86 9.125 52.5 9.125 C52.5 8.465 52.5 7.805 52.5 7.125 C46.34970904 5.61957484 40.30656846 4.60884506 34 4.0625 C32.59899048 3.9389917 32.59899048 3.9389917 31.16967773 3.81298828 C13.99715603 2.46544365 -3.28424706 2.42922205 -20.5 2.125 C-20.5 1.795 -20.5 1.465 -20.5 1.125 C-13.64459873 0.31685791 -6.90082235 -0.03601617 0 0 Z " fill="#D96423" transform="translate(196.5,117.875)"/>
<path d="M0 0 C3.96 0 7.92 0 12 0 C12 0.33 12 0.66 12 1 C8.7 1.33 5.4 1.66 2 2 C1.67 3.32 1.34 4.64 1 6 C-0.65 6.99 -2.3 7.98 -4 9 C12.335 9.495 12.335 9.495 29 10 C29 10.33 29 10.66 29 11 C10.85 11 -7.3 11 -26 11 C-26 10.67 -26 10.34 -26 10 C-24.69804687 9.80664062 -23.39609375 9.61328125 -22.0546875 9.4140625 C-20.32808288 9.15131832 -18.60152269 8.88828205 -16.875 8.625 C-16.0190625 8.49867188 -15.163125 8.37234375 -14.28125 8.2421875 C-9.66830052 7.53250297 -5.39004435 6.65526263 -1 5 C-0.67 3.35 -0.34 1.7 0 0 Z " fill="#D06C28" transform="translate(162,120)"/>
<path d="M0 0 C4.04190048 3.62377284 6.82568758 7.32720955 7.1875 12.875 C7.125625 13.57625 7.06375 14.2775 7 15 C8.65 15.33 10.3 15.66 12 16 C12.66 17.98 13.32 19.96 14 22 C9.25 25 9.25 25 7 25 C6.5978125 26.3303125 6.5978125 26.3303125 6.1875 27.6875 C5.0749365 30.7909666 3.89804222 33.31110685 2 36 C1.34 36 0.68 36 0 36 C1.0641655 32.45278168 2.33511618 29.05220677 3.875 25.6875 C4.18179688 25.01074219 4.48859375 24.33398438 4.8046875 23.63671875 C6 22 6 22 8.1328125 21.26953125 C8.74898437 21.18058594 9.36515625 21.09164062 10 21 C10 20.01 10 19.02 10 18 C9.22140625 17.80277344 8.4428125 17.60554688 7.640625 17.40234375 C5 16 5 16 3.671875 13.06640625 C3.21554688 11.33197266 3.21554688 11.33197266 2.75 9.5625 C2.43546875 8.40878906 2.1209375 7.25507813 1.796875 6.06640625 C1.40242187 4.54853516 1.40242187 4.54853516 1 3 C0.67 2.01 0.34 1.02 0 0 Z " fill="#E8C479" transform="translate(234,172)"/>
<path d="M0 0 C1.32 0 2.64 0 4 0 C5.85855729 5.57567187 5.83212678 10.91360465 3.25 16.25 C0.31473031 21.42019434 -2.09605064 25.19601547 -8 27 C-5.375 22.125 -5.375 22.125 -2 21 C0.10254829 16.41895109 0.24975163 12.07668002 0.125 7.125 C0.11146484 6.09246094 0.11146484 6.09246094 0.09765625 5.0390625 C0.07432513 3.35922162 0.03846326 1.67956254 0 0 Z " fill="#F2E1CA" transform="translate(229,183)"/>
<path d="M0 0 C3.58790575 0.29899215 4.78166776 0.76986601 7.3125 3.4375 C9 6 9 6 9 8 C9.66 8 10.32 8 11 8 C11.33 9.32 11.66 10.64 12 12 C10.68 12 9.36 12 8 12 C8 16.95 8 21.9 8 27 C7.67 27 7.34 27 7 27 C6.97421875 26.05898437 6.9484375 25.11796875 6.921875 24.1484375 C6.79773391 14.64668685 6.79773391 14.64668685 2 7 C-0.31443698 5.71364983 -2.47840799 4.87285877 -5 4 C-4.0409375 3.8453125 -4.0409375 3.8453125 -3.0625 3.6875 C-2.381875 3.460625 -1.70125 3.23375 -1 3 C-0.67 2.01 -0.34 1.02 0 0 Z " fill="#E7D8C5" transform="translate(221,171)"/>
<path d="M0 0 C-0.763125 0.7425 -1.52625 1.485 -2.3125 2.25 C-4.95571199 4.823554 -4.95571199 4.823554 -6.6875 7.3125 C-7.3371875 8.1478125 -7.3371875 8.1478125 -8 9 C-8.66 9 -9.32 9 -10 9 C-10.33 9.66 -10.66 10.32 -11 11 C-11.33 10.34 -11.66 9.68 -12 9 C-13.97888961 8.27306096 -15.97954558 7.60183749 -18 7 C-17.89453125 5.14453125 -17.89453125 5.14453125 -17 3 C-14.19921875 1.69921875 -14.19921875 1.69921875 -10.6875 0.6875 C-8.96080078 0.16736328 -8.96080078 0.16736328 -7.19921875 -0.36328125 C-4.2310317 -0.95401933 -2.77279094 -1.0611916 0 0 Z " fill="#A5978F" transform="translate(100,116)"/>
<path d="M0 0 C1.98 0 3.96 0 6 0 C6.02692484 2.29160319 6.04636124 4.58329546 6.0625 6.875 C6.07410156 8.15117187 6.08570313 9.42734375 6.09765625 10.7421875 C6 14 6 14 5 16 C2.9375 16.625 2.9375 16.625 1 17 C-1.20927172 11.02197063 -0.93213141 6.26039609 0 0 Z " fill="#827A71" transform="translate(186,304)"/>
<path d="M0 0 C2.31 0.33 4.62 0.66 7 1 C8.16063604 5.25566547 7.76173392 8.6835078 7 13 C5.35 13.33 3.7 13.66 2 14 C0.64908472 11.29816945 0.66141942 8.88191794 0.4375 5.875 C0.35371094 4.77929688 0.26992187 3.68359375 0.18359375 2.5546875 C0.12300781 1.71164062 0.06242188 0.86859375 0 0 Z " fill="#584A44" transform="translate(245,337)"/>
<path d="M0 0 C1.32 0 2.64 0 4 0 C4.10251672 5.12583611 4.03590199 9.94997778 3 15 C4.98 15 6.96 15 9 15 C9 15.33 9 15.66 9 16 C6.69 16 4.38 16 2 16 C2 14.02 2 12.04 2 10 C1.360625 9.87625 0.72125 9.7525 0.0625 9.625 C-0.618125 9.41875 -1.29875 9.2125 -2 9 C-3.24546405 6.50907189 -2.7767578 5.58919267 -2 3 C-3.32 3 -4.64 3 -6 3 C-5.67 2.34 -5.34 1.68 -5 1 C-3.35 1.33 -1.7 1.66 0 2 C0 1.34 0 0.68 0 0 Z " fill="#886D5A" transform="translate(244,277)"/>
<path d="M0 0 C3.5625 1.3125 3.5625 1.3125 6 3 C6.33 3.99 6.66 4.98 7 6 C5.35 6 3.7 6 2 6 C1.67 5.01 1.34 4.02 1 3 C-3.51718381 1.63115642 -6.58774263 2.52924754 -11 4 C-11.33 5.32 -11.66 6.64 -12 8 C-12.99 8 -13.98 8 -15 8 C-17.1875 5 -17.1875 5 -19 2 C-16.525 2.495 -16.525 2.495 -14 3 C-14 3.66 -14 4.32 -14 5 C-13.34 5 -12.68 5 -12 5 C-12.33 4.01 -12.66 3.02 -13 2 C-8.73847759 -0.84101494 -5.00166053 -0.51259254 0 0 Z " fill="#E4C177" transform="translate(250,270)"/>
<path d="M0 0 C0.33 0.99 0.66 1.98 1 3 C7.6 3.33 14.2 3.66 21 4 C21 4.33 21 4.66 21 5 C19.02 5 17.04 5 15 5 C15.33 5.99 15.66 6.98 16 8 C15.01 8.66 14.02 9.32 13 10 C6.55555556 8.55555556 6.55555556 8.55555556 5 7 C4.01 7 3.02 7 2 7 C2 6.01 2 5.02 2 4 C1.34 4 0.68 4 0 4 C0 2.68 0 1.36 0 0 Z " fill="#A69B96" transform="translate(152,106)"/>
<path d="M0 0 C1.1446875 0.10634766 1.1446875 0.10634766 2.3125 0.21484375 C8.87008257 1.22808133 13.11381913 4.67983062 18 9 C17.67 9.66 17.34 10.32 17 11 C16.30132812 10.50628906 15.60265625 10.01257813 14.8828125 9.50390625 C13.97273438 8.86324219 13.06265625 8.22257813 12.125 7.5625 C11.22007812 6.92441406 10.31515625 6.28632813 9.3828125 5.62890625 C5.2594615 2.81015647 2.06379483 2.8168422 -2.8125 2.8125 C-3.52470703 2.80025391 -4.23691406 2.78800781 -4.97070312 2.77539062 C-9.17815186 2.76371408 -12.15588235 3.41002464 -16 5 C-18.3125 4.625 -18.3125 4.625 -20 4 C-13.15398219 0.73721704 -7.57758275 -0.76504441 0 0 Z " fill="#ECC262" transform="translate(216,161)"/>
<path d="M0 0 C1.16337891 0.00322266 2.32675781 0.00644531 3.52539062 0.00976562 C4.74033203 0.01814453 5.95527344 0.02652344 7.20703125 0.03515625 C8.43357422 0.03966797 9.66011719 0.04417969 10.92382812 0.04882812 C13.95577793 0.0606256 16.98763031 0.07708704 20.01953125 0.09765625 C20.01953125 0.42765625 20.01953125 0.75765625 20.01953125 1.09765625 C4.6389771 2.62072403 -10.52584024 3.37145872 -25.98046875 3.09765625 C-25.98046875 2.76765625 -25.98046875 2.43765625 -25.98046875 2.09765625 C-24.78808594 2.03707031 -23.59570312 1.97648438 -22.3671875 1.9140625 C-20.8007695 1.82964476 -19.23436387 1.74499738 -17.66796875 1.66015625 C-16.88228516 1.62083984 -16.09660156 1.58152344 -15.28710938 1.54101562 C-14.52978516 1.49912109 -13.77246094 1.45722656 -12.9921875 1.4140625 C-12.29569092 1.37740479 -11.59919434 1.34074707 -10.8815918 1.30297852 C-7.07003645 0.89132858 -3.94165543 -0.01922759 0 0 Z " fill="#E3651C" transform="translate(226.98046875,126.90234375)"/>
<path d="M0 0 C1.0209375 1.051875 1.0209375 1.051875 2.0625 2.125 C-4.05841419 4.70661007 -7.49888996 5.46631274 -13.9375 3.125 C-16.60027395 2.68277252 -19.25127221 2.40776082 -21.9375 2.125 C-21.9375 1.795 -21.9375 1.465 -21.9375 1.125 C-20.50010487 1.09787934 -19.06256137 1.07854933 -17.625 1.0625 C-16.42423828 1.04509766 -16.42423828 1.04509766 -15.19921875 1.02734375 C-12.9375 1.125 -12.9375 1.125 -9.9375 2.125 C-9.9375 1.465 -9.9375 0.805 -9.9375 0.125 C-3.66057692 -2.33653846 -3.66057692 -2.33653846 0 0 Z " fill="#D9C8B8" transform="translate(229.9375,148.875)"/>
<path d="M0 0 C0.66 0 1.32 0 2 0 C1.67 1.32 1.34 2.64 1 4 C0.34 4 -0.32 4 -1 4 C-0.67 6.97 -0.34 9.94 0 13 C0.33 13 0.66 13 1 13 C1 15.97 1 18.94 1 22 C2.32 22.33 3.64 22.66 5 23 C3.02 23.66 1.04 24.32 -1 25 C-4.80715103 16.47198168 -3.78063685 10.68949015 -1 2 C-0.67 1.34 -0.34 0.68 0 0 Z " fill="#F3DCB2" transform="translate(192,176)"/>
<path d="M0 0 C0.80566406 0.00322266 1.61132812 0.00644531 2.44140625 0.00976562 C3.70404297 0.02233398 3.70404297 0.02233398 4.9921875 0.03515625 C5.84167969 0.03966797 6.69117188 0.04417969 7.56640625 0.04882812 C9.66669659 0.06062751 11.7669508 0.07856319 13.8671875 0.09765625 C13.8671875 0.42765625 13.8671875 0.75765625 13.8671875 1.09765625 C9.99034663 2.29053036 6.95096827 3.09765625 2.8671875 3.09765625 C2.5371875 3.75765625 2.2071875 4.41765625 1.8671875 5.09765625 C-1.1028125 5.09765625 -4.0728125 5.09765625 -7.1328125 5.09765625 C-6.8028125 3.77765625 -6.4728125 2.45765625 -6.1328125 1.09765625 C-3.8362755 -0.05061225 -2.54968083 -0.0179555 0 0 Z " fill="#8C857D" transform="translate(231.1328125,114.90234375)"/>
<path d="M0 0 C0.33 0 0.66 0 1 0 C0.85929844 3.16691607 0.71148731 6.33346378 0.5625 9.5 C0.50352539 10.8303125 0.50352539 10.8303125 0.44335938 12.1875 C0.18945753 17.49990774 -0.09176393 22.75508708 -1 28 C-1.66 28.33 -2.32 28.66 -3 29 C-3.26374585 22.21587063 -2.84882501 15.60693381 -2.0625 8.875 C-1.97564941 8.11646729 -1.88879883 7.35793457 -1.79931641 6.57641602 C-1.12899845 1.12899845 -1.12899845 1.12899845 0 0 Z " fill="#272323" transform="translate(254,295)"/>
<path d="M0 0 C5.28 0 10.56 0 16 0 C16 0.33 16 0.66 16 1 C13.69 1 11.38 1 9 1 C9 2.32 9 3.64 9 5 C7.625 6.75 7.625 6.75 6 8 C5.34 8 4.68 8 4 8 C4 6.35 4 4.7 4 3 C2.68 3.33 1.36 3.66 0 4 C0 2.68 0 1.36 0 0 Z " fill="#DBCFC2" transform="translate(253,284)"/>
<path d="M0 0 C0 3 0 3 -2.1875 5.5 C-8.03881081 10.70116516 -12.18186471 11.48834099 -19.8125 11.6875 C-21.13797852 11.73874023 -21.13797852 11.73874023 -22.49023438 11.79101562 C-24.65972167 11.87310433 -26.8298389 11.93823879 -29 12 C-29 11.34 -29 10.68 -29 10 C-28.01 9.95101562 -27.02 9.90203125 -26 9.8515625 C-15.83044748 9.40299941 -15.83044748 9.40299941 -6 7 C-5.67 6.01 -5.34 5.02 -5 4 C-3.37667033 2.61423077 -1.71275535 1.27358732 0 0 Z " fill="#E8C376" transform="translate(233,208)"/>
<path d="M0 0 C1.33998047 0.06960938 1.33998047 0.06960938 2.70703125 0.140625 C3.60808594 0.17671875 4.50914062 0.2128125 5.4375 0.25 C6.46810547 0.31960938 6.46810547 0.31960938 7.51953125 0.390625 C7.51953125 2.370625 7.51953125 4.350625 7.51953125 6.390625 C6.85953125 6.390625 6.19953125 6.390625 5.51953125 6.390625 C5.51953125 5.400625 5.51953125 4.410625 5.51953125 3.390625 C4.52953125 3.390625 3.53953125 3.390625 2.51953125 3.390625 C2.51953125 5.040625 2.51953125 6.690625 2.51953125 8.390625 C2.18953125 7.070625 1.85953125 5.750625 1.51953125 4.390625 C-0.79046875 4.390625 -3.10046875 4.390625 -5.48046875 4.390625 C-3.17521711 0.50003419 -3.17521711 0.50003419 0 0 Z " fill="#A1928A" transform="translate(235.48046875,285.609375)"/>
<path d="M0 0 C19.88538172 2.28104919 19.88538172 2.28104919 26 5 C26.33 5.99 26.66 6.98 27 8 C25.68 8 24.36 8 23 8 C23 7.34 23 6.68 23 6 C17.36967134 4.63782371 12.05005612 3.73035707 6.26171875 3.44140625 C3.53671613 2.90958363 2.08576348 1.7898428 0 0 Z " fill="#B36539" transform="translate(226,119)"/>
<path d="M0 0 C4.08718695 -0.24042276 7.17679443 0.57741188 11 2 C10.67 2.99 10.34 3.98 10 5 C6.04 4.67 2.08 4.34 -2 4 C-1.34 2.68 -0.68 1.36 0 0 Z " fill="#F0E6D9" transform="translate(210,169)"/>
<path d="M0 0 C0.33 0 0.66 0 1 0 C0.40477711 7.14267474 -0.68928132 14.18946074 -3 21 C-3.66 21.33 -4.32 21.66 -5 22 C-4.65259661 14.14868332 -2.71548094 7.35074375 0 0 Z " fill="#D2C3B6" transform="translate(285,237)"/>
<path d="M0 0 C1.98 0 3.96 0 6 0 C6 1.98 6 3.96 6 6 C4.35 6.33 2.7 6.66 1 7 C0.67 4.69 0.34 2.38 0 0 Z " fill="#EDC872" transform="translate(246,344)"/>
<path d="M0 0 C2.00378805 3.00568207 2.29045938 4.00515765 2.5625 7.4375 C2.80832358 10.40243333 3.21230462 13.12968577 4 16 C4.6875 18.625 4.6875 18.625 5 21 C4.34 21.66 3.68 22.32 3 23 C1.14060121 15.21930149 -0.41467342 8.01701946 0 0 Z " fill="#EDE2D7" transform="translate(61,227)"/>
<path d="M0 0 C0.66 0 1.32 0 2 0 C5 5.75 5 5.75 5 8 C5.66 8 6.32 8 7 8 C11 13.41176471 11 13.41176471 11 16 C10.01 16 9.02 16 8 16 C7.34 14.02 6.68 12.04 6 10 C5.34 10 4.68 10 4 10 C3.32845067 8.71086513 2.66291141 7.41859796 2 6.125 C1.62875 5.40570313 1.2575 4.68640625 0.875 3.9453125 C0 2 0 2 0 0 Z " fill="#CCBEB2" transform="translate(269,176)"/>
<path d="M0 0 C0.33 0.66 0.66 1.32 1 2 C1.66 2.33 2.32 2.66 3 3 C2.34 3 1.68 3 1 3 C1 3.99 1 4.98 1 6 C3.475 6.99 3.475 6.99 6 8 C6 8.33 6 8.66 6 9 C2.7 9 -0.6 9 -4 9 C-3.16244776 6.48734329 -2.20811696 4.34072661 -1 2 C-0.67 1.34 -0.34 0.68 0 0 Z " fill="#F3E3CA" transform="translate(209,204)"/>
<path d="M0 0 C-0.1875 1.875 -0.1875 1.875 -1 4 C-3.4375 5.125 -3.4375 5.125 -6 6 C-6.66 6.66 -7.32 7.32 -8 8 C-8 7.34 -8 6.68 -8 6 C-8.86625 6.309375 -8.86625 6.309375 -9.75 6.625 C-12.53731028 7.08955171 -13.58030999 6.33184618 -16 5 C-14.98679688 4.83564453 -14.98679688 4.83564453 -13.953125 4.66796875 C-12.61507812 4.43013672 -12.61507812 4.43013672 -11.25 4.1875 C-10.36828125 4.03667969 -9.4865625 3.88585937 -8.578125 3.73046875 C-5.32666201 2.8092209 -3.28483237 0 0 0 Z " fill="#D7C7B9" transform="translate(263,150)"/>
<path d="M0 0 C0.99 0.33 1.98 0.66 3 1 C2.54625 1.4125 2.0925 1.825 1.625 2.25 C-0.05950374 4.06408095 -0.99265971 5.75285627 -2 8 C-2.99 8 -3.98 8 -5 8 C-7.1875 5 -7.1875 5 -9 2 C-6.525 2.495 -6.525 2.495 -4 3 C-4 3.66 -4 4.32 -4 5 C-3.34 5 -2.68 5 -2 5 C-2.33 4.01 -2.66 3.02 -3 2 C-2.01 1.34 -1.02 0.68 0 0 Z " fill="#D2BB9E" transform="translate(240,270)"/>
<path d="M0 0 C2.31 0 4.62 0 7 0 C7 1.32 7 2.64 7 4 C7.66 4 8.32 4 9 4 C9 5.65 9 7.3 9 9 C7.35 8.67 5.7 8.34 4 8 C4.66 6.02 5.32 4.04 6 2 C3.03 1.505 3.03 1.505 0 1 C0 0.67 0 0.34 0 0 Z " fill="#C9B9AA" transform="translate(230,290)"/>
<path d="M0 0 C0.474375 0.474375 0.94875 0.94875 1.4375 1.4375 C5.11644797 3.68076096 8.7621112 3.73739578 13 4 C13 4.33 13 4.66 13 5 C7.72 5 2.44 5 -3 5 C-3 4.01 -3 3.02 -3 2 C-2.01 2 -1.02 2 0 2 C0 1.34 0 0.68 0 0 Z " fill="#AD9E93" transform="translate(217,286)"/>
<path d="M0 0 C8.08095819 0.12826918 12.06925173 2.63007899 18 8 C17.67 8.66 17.34 9.32 17 10 C16.35933594 9.51789063 15.71867188 9.03578125 15.05859375 8.5390625 C10.1085213 4.9242555 6.04379942 2.1824825 0 1 C0 0.67 0 0.34 0 0 Z " fill="#EBC57A" transform="translate(216,162)"/>
<path d="M0 0 C2.475 0.99 2.475 0.99 5 2 C5 2.66 5 3.32 5 4 C6.32 4.66 7.64 5.32 9 6 C6.69 6 4.38 6 2 6 C2 5.34 2 4.68 2 4 C1.01 4 0.02 4 -1 4 C-0.67 2.68 -0.34 1.36 0 0 Z " fill="#D5C0A9" transform="translate(241,264)"/>
<path d="M0 0 C-3.68087353 2.45391569 -6.44355588 2.22802759 -10.6875 2.125 C-11.7403418 2.11146484 -11.7403418 2.11146484 -12.81445312 2.09765625 C-14.54311525 2.07413704 -16.27160145 2.03826713 -18 2 C-18 1.67 -18 1.34 -18 1 C-15.75152519 0.63627613 -13.50113812 0.28435904 -11.25 -0.0625 C-9.99703125 -0.25972656 -8.7440625 -0.45695313 -7.453125 -0.66015625 C-4.49983411 -0.95080818 -2.7397586 -0.98935727 0 0 Z " fill="#955C3B" transform="translate(154,129)"/>
<path d="M0 0 C0.33 0 0.66 0 1 0 C1.05429959 1.74965358 1.09292823 3.49979787 1.125 5.25 C1.14820313 6.22453125 1.17140625 7.1990625 1.1953125 8.203125 C0.99862781 11.0196498 0.44568916 12.60949036 -1 15 C-2.125 12.75 -2.125 12.75 -3 10 C-2.1875 8.0625 -2.1875 8.0625 -1 6 C-0.61709538 4.00889599 -0.27395385 2.00899487 0 0 Z " fill="#B2AAA6" transform="translate(335,214)"/>
<path d="M0 0 C1.32 0 2.64 0 4 0 C4 2.31 4 4.62 4 7 C2.68 7 1.36 7 0 7 C0 4.69 0 2.38 0 0 Z " fill="#0B0708" transform="translate(224,191)"/>
<path d="M0 0 C0.33 0 0.66 0 1 0 C0.56826373 5.09448798 0.24599784 8.84512277 -3 13 C-3.66 13 -4.32 13 -5 13 C-3.58192622 8.52761347 -1.88695626 4.28853694 0 0 Z " fill="#ECC36C" transform="translate(239,195)"/>
<path d="M0 0 C0.66 0 1.32 0 2 0 C2.33 1.32 2.66 2.64 3 4 C1.68 3.67 0.36 3.34 -1 3 C-0.67 2.01 -0.34 1.02 0 0 Z M-2 4 C-1.67 4 -1.34 4 -1 4 C-1 8.95 -1 13.9 -1 19 C-1.33 19 -1.66 19 -2 19 C-2 14.05 -2 9.1 -2 4 Z " fill="#C5B49A" transform="translate(230,179)"/>
<path d="M0 0 C2.97 0 5.94 0 9 0 C9 0.99 9 1.98 9 3 C5.7 2.67 2.4 2.34 -1 2 C-0.67 1.34 -0.34 0.68 0 0 Z " fill="#949293" transform="translate(220,154)"/>
<path d="M0 0 C0 1.98 0 3.96 0 6 C-1.32 6.33 -2.64 6.66 -4 7 C-4.66 5.35 -5.32 3.7 -6 2 C-2.25 0 -2.25 0 0 0 Z " fill="#9E9A98" transform="translate(264,144)"/>
<path d="M0 0 C-2.46115371 2.27183419 -3.73620199 2.9736202 -7.125 3.3125 C-10 3 -10 3 -12 1 C-3.96428571 -1.27678571 -3.96428571 -1.27678571 0 0 Z " fill="#A99B92" transform="translate(100,116)"/>
<path d="M0 0 C1.625 2 1.625 2 3 4 C0.1875 4.625 0.1875 4.625 -3 5 C-3.99 4.34 -4.98 3.68 -6 3 C-2.25 0 -2.25 0 0 0 Z M-5 5 C-4.01 5.495 -4.01 5.495 -3 6 C-3.99 6.495 -3.99 6.495 -5 7 C-5 6.34 -5 5.68 -5 5 Z " fill="#D4C6B9" transform="translate(177,221)"/>
<path d="M0 0 C1 3 1 3 0.00390625 5.48046875 C-0.47175781 6.37378906 -0.94742188 7.26710937 -1.4375 8.1875 C-1.91058594 9.08855469 -2.38367188 9.98960937 -2.87109375 10.91796875 C-3.24363281 11.60503906 -3.61617188 12.29210937 -4 13 C-5 11 -5 11 -4.2578125 8.65234375 C-3.88398437 7.75644531 -3.51015625 6.86054688 -3.125 5.9375 C-2.75632812 5.03902344 -2.38765625 4.14054688 -2.0078125 3.21484375 C-1 1 -1 1 0 0 Z " fill="#EEE4D9" transform="translate(70,193)"/>
<path d="M0 0 C0 1.32 0 2.64 0 4 C-3.63 3.34 -7.26 2.68 -11 2 C-11 1.67 -11 1.34 -11 1 C-7.26513121 0.4254048 -3.78706732 0 0 0 Z " fill="#7D756B" transform="translate(252,120)"/>
<path d="M0 0 C2.31 0 4.62 0 7 0 C6.01 0.495 6.01 0.495 5 1 C5 1.66 5 2.32 5 3 C5.66 3 6.32 3 7 3 C6.67 3.99 6.34 4.98 6 6 C4.68 5.34 3.36 4.68 2 4 C2 3.01 2 2.02 2 1 C1.34 0.67 0.68 0.34 0 0 Z " fill="#A0948E" transform="translate(172,111)"/>
<path d="M0 0 C0.33 0 0.66 0 1 0 C1 3.3 1 6.6 1 10 C-0.32 10 -1.64 10 -3 10 C-3 8.68 -3 7.36 -3 6 C-2.01 6 -1.02 6 0 6 C0 4.02 0 2.04 0 0 Z " fill="#D7C3B2" transform="translate(215,275)"/>
<path d="M0 0 C1.72880982 -0.05449838 3.45812712 -0.09301688 5.1875 -0.125 C6.15042969 -0.14820313 7.11335937 -0.17140625 8.10546875 -0.1953125 C11.12812778 0.0086456 13.26769985 0.73125368 16 2 C16 2.33 16 2.66 16 3 C14.00045254 3.04254356 11.99958364 3.04080783 10 3 C9.67 2.67 9.34 2.34 9 2 C7.48530552 1.76807135 5.96245438 1.58784762 4.4375 1.4375 C3.61121094 1.35371094 2.78492188 1.26992187 1.93359375 1.18359375 C1.29550781 1.12300781 0.65742188 1.06242188 0 1 C0 0.67 0 0.34 0 0 Z " fill="#F5DFBE" transform="translate(206,168)"/>
<path d="M0 0 C1.26823485 3.65393537 0.75715321 6.49070026 0.0625 10.25 C-0.13214844 11.32765625 -0.32679688 12.4053125 -0.52734375 13.515625 C-0.68332031 14.33546875 -0.83929688 15.1553125 -1 16 C-1.33 16 -1.66 16 -2 16 C-2.33 13.03 -2.66 10.06 -3 7 C-2.34 7 -1.68 7 -1 7 C-0.67 4.69 -0.34 2.38 0 0 Z " fill="#463F3E" transform="translate(255,323)"/>
<path d="M0 0 C0.66 0.33 1.32 0.66 2 1 C2 3.31 2 5.62 2 8 C1.01 7.67 0.02 7.34 -1 7 C-1.04254356 5.00045254 -1.04080783 2.99958364 -1 1 C-0.67 0.67 -0.34 0.34 0 0 Z " fill="#140F10" transform="translate(246,329)"/>
<path d="M0 0 C4.05606165 0.46800711 7.46588679 0.87953208 11 3 C11 3.66 11 4.32 11 5 C9.68 5 8.36 5 7 5 C7 4.34 7 3.68 7 3 C4.69 2.34 2.38 1.68 0 1 C0 0.67 0 0.34 0 0 Z " fill="#A6653F" transform="translate(242,122)"/>
<path d="M0 0 C0.99 0 1.98 0 3 0 C3 1.65 3 3.3 3 5 C3.66 5.33 4.32 5.66 5 6 C3.02 6 1.04 6 -1 6 C-0.67 4.02 -0.34 2.04 0 0 Z " fill="#372E2B" transform="translate(254,287)"/>
<path d="M0 0 C0.66 0.33 1.32 0.66 2 1 C-0.46153846 5.8 -0.46153846 5.8 -3.1875 6.8125 C-3.785625 6.874375 -4.38375 6.93625 -5 7 C-3.75023244 3.34683329 -3.32901247 2.21934164 0 0 Z " fill="#C0B4AB" transform="translate(139,181)"/>
<path d="M0 0 C-5.17578125 3.22265625 -5.17578125 3.22265625 -7 4 C-7.99 3.67 -8.98 3.34 -10 3 C-6.86618053 -0.60389239 -4.59270471 -1.53090157 0 0 Z " fill="#F3D9AA" transform="translate(206,170)"/>
<path d="M0 0 C0.33 0 0.66 0 1 0 C1 2.97 1 5.94 1 9 C2.32 9.33 3.64 9.66 5 10 C3.02 10.66 1.04 11.32 -1 12 C-0.67 8.04 -0.34 4.08 0 0 Z " fill="#E2D3C1" transform="translate(192,189)"/>
<path d="M0 0 C1.485 0.99 1.485 0.99 3 2 C2.625 3.9375 2.625 3.9375 2 6 C1.01 6.495 1.01 6.495 0 7 C-0.38133299 5.0085944 -0.71325582 3.00720923 -1 1 C-0.67 0.67 -0.34 0.34 0 0 Z " fill="#EDE2D4" transform="translate(227,177)"/>
<path d="M0 0 C-1.41780293 2.83560586 -3.04785458 2.99358679 -6 4 C-7.65919896 4.36871088 -9.3247643 4.71281674 -11 5 C-9.04754573 1.09509146 -4.11653518 0 0 0 Z " fill="#9D948E" transform="translate(69,135)"/>
<path d="M0 0 C0.33 0 0.66 0 1 0 C1 2.64 1 5.28 1 8 C0.01 8 -0.98 8 -2 8 C-2 6.35 -2 4.7 -2 3 C-1.34 3 -0.68 3 0 3 C0 2.01 0 1.02 0 0 Z " fill="#3A322F" transform="translate(250,330)"/>
</svg>
