<?xml version="1.0" encoding="UTF-8"?>
<svg version="1.1" xmlns="http://www.w3.org/2000/svg" width="360" height="360">
<path d="M0 0 C1.75390625 1.265625 1.75390625 1.265625 3.36035156 3.32250977 C6.70405963 6.03697045 9.69370163 5.75076964 13.8046875 5.62109375 C14.6025618 5.61251846 15.4004361 5.60394318 16.2224884 5.59510803 C17.94086566 5.57495011 19.65915763 5.54599027 21.3772583 5.50915527 C25.01298968 5.43340227 28.64855402 5.40640253 32.28491211 5.37753296 C34.13046954 5.36278954 35.97601198 5.34603635 37.8215332 5.32730103 C115.16178923 4.56346156 115.16178923 4.56346156 132.81640625 20.078125 C134.32609586 23.6007341 133.88201764 25.63059942 132.75390625 29.265625 C131.13753037 30.85174786 129.39700957 32.16021814 127.6015625 33.5390625 C121.90714658 38.86027146 119.03620523 48.01097616 118.53515625 55.5625 C118.36675608 62.2143067 118.42100787 67.43305284 121.75390625 73.265625 C122.6459375 72.91628906 123.53796875 72.56695312 124.45703125 72.20703125 C125.6275 71.75199219 126.79796875 71.29695313 128.00390625 70.828125 C129.1640625 70.37566406 130.32421875 69.92320312 131.51953125 69.45703125 C143.32611628 65.10798725 157.02129379 66.46392733 168.47265625 71.44921875 C179.48346013 77.44738815 185.89575683 86.51893791 189.75390625 98.265625 C194.04570531 113.13260329 190.71567359 129.61791399 184.00390625 143.078125 C178.66158715 152.32289381 170.2372171 160.01381812 160.13525391 163.70532227 C155.53276598 164.78823284 150.87039643 164.12522167 146.19140625 163.828125 C138.52357218 163.39359028 138.52357218 163.39359028 131.734375 166.375 C129.94427878 168.98288754 128.74473976 171.2695332 127.75390625 174.265625 C127.42390625 175.255625 127.09390625 176.245625 126.75390625 177.265625 C128.07390625 177.925625 129.39390625 178.585625 130.75390625 179.265625 C130.94140625 181.640625 130.94140625 181.640625 130.75390625 184.265625 C125.39543678 187.83793798 119.98813125 187.38786471 113.75390625 187.265625 C113.42390625 188.585625 113.09390625 189.905625 112.75390625 191.265625 C113.08390625 190.935625 113.41390625 190.605625 113.75390625 190.265625 C114.74390625 190.595625 115.73390625 190.925625 116.75390625 191.265625 C116.24376439 199.41096056 114.90618195 207.27075055 113.284729 215.26315308 C112.59451515 218.66891053 111.9232727 222.0783736 111.25390625 225.48828125 C111.12243195 226.15739029 110.99095764 226.82649933 110.85549927 227.5158844 C109.2548077 235.72983324 107.95639539 243.98532699 106.75390625 252.265625 C105.10390625 252.595625 103.45390625 252.925625 101.75390625 253.265625 C100.66267161 251.08315573 100.44065679 249.48218388 100.140625 247.06640625 C100.02904053 246.19741699 99.91745605 245.32842773 99.80249023 244.43310547 C99.68333252 243.49096191 99.5641748 242.54881836 99.44140625 241.578125 C98.34252408 233.23828266 97.10650564 224.93285533 95.69140625 216.640625 C95.52922607 215.66391846 95.3670459 214.68721191 95.19995117 213.6809082 C95.04115479 212.76784912 94.8823584 211.85479004 94.71875 210.9140625 C94.58073975 210.11145996 94.44272949 209.30885742 94.30053711 208.48193359 C93.73476735 206.18802654 92.88896885 204.33050115 91.75390625 202.265625 C91.09390625 202.595625 90.43390625 202.925625 89.75390625 203.265625 C85.66398115 203.83563818 81.55405973 204.21715119 77.44482422 204.62280273 C75.42073359 204.82396797 73.39792674 205.0355379 71.375 205.24804688 C63.46995666 206.04011193 55.69775504 206.45903557 47.75390625 206.265625 C47.78419922 206.91821289 47.81449219 207.57080078 47.84570312 208.24316406 C48.36957856 219.74827466 48.85331882 231.24701692 48.87890625 242.765625 C48.88567383 244.03647949 48.88567383 244.03647949 48.89257812 245.33300781 C48.87802657 251.14150468 48.87802657 251.14150468 47.75390625 252.265625 C44.92974243 252.39225591 42.14095832 252.45083048 39.31640625 252.453125 C38.52685547 252.46537109 37.73730469 252.47761719 36.92382812 252.49023438 C34.8658319 252.49549779 32.80828616 252.38768785 30.75390625 252.265625 C30.09390625 251.605625 29.43390625 250.945625 28.75390625 250.265625 C29.08390625 248.615625 29.41390625 246.965625 29.75390625 245.265625 C35.19890625 244.275625 35.19890625 244.275625 40.75390625 243.265625 C40.42390625 231.055625 40.09390625 218.845625 39.75390625 206.265625 C33.81390625 206.595625 27.87390625 206.925625 21.75390625 207.265625 C21.75390625 221.785625 21.75390625 236.305625 21.75390625 251.265625 C16.522349 253.00947742 14.22565853 253.51360731 9.00390625 253.140625 C7.8746875 253.07617188 6.74546875 253.01171875 5.58203125 252.9453125 C2.75390625 252.265625 2.75390625 252.265625 1.36328125 250.2109375 C1.1621875 249.56898438 0.96109375 248.92703125 0.75390625 248.265625 C2.75390625 245.265625 2.75390625 245.265625 4.59375 244.71875 C5.28597656 244.65171875 5.97820312 244.5846875 6.69140625 244.515625 C7.38105469 244.43828125 8.07070312 244.3609375 8.78125 244.28125 C10.75390625 244.265625 10.75390625 244.265625 13.75390625 245.265625 C13.09390625 232.725625 12.43390625 220.185625 11.75390625 207.265625 C8.62235572 206.22177482 6.08219157 206.00225786 2.79296875 205.80078125 C1.59800781 205.72279297 0.40304688 205.64480469 -0.828125 205.56445312 C-3.31761738 205.40934057 -5.80719871 205.25564781 -8.296875 205.10351562 C-38.3828995 203.12881925 -38.3828995 203.12881925 -44.24609375 197.265625 C-44.44140625 195.1015625 -44.44140625 195.1015625 -44.37109375 192.640625 C-44.35304687 191.82335937 -44.335 191.00609375 -44.31640625 190.1640625 C-44.29320312 189.53757812 -44.27 188.91109375 -44.24609375 188.265625 C-45.12007812 187.99492187 -45.9940625 187.72421875 -46.89453125 187.4453125 C-60.50053376 182.65625334 -71.62819737 172.9667988 -78.30859375 160.265625 C-87.43541484 139.96899611 -86.2282518 122.27873946 -78.62109375 102.015625 C-76.48190288 96.64720971 -76.48190288 96.64720971 -75.0625 94.3503418 C-74.01374034 92.30548785 -74.01374034 92.30548785 -74.83837891 90.30883789 C-75.23331543 89.6255542 -75.62825195 88.94227051 -76.03515625 88.23828125 C-76.47690186 87.45598145 -76.91864746 86.67368164 -77.3737793 85.86767578 C-77.86789307 85.02962402 -78.36200684 84.19157227 -78.87109375 83.328125 C-79.6132312 82.02077393 -79.6132312 82.02077393 -80.37036133 80.68701172 C-83.08268516 75.92483864 -85.86963396 71.20722812 -88.65625 66.48828125 C-89.20394043 65.55169678 -89.75163086 64.6151123 -90.31591797 63.65014648 C-91.37630491 61.84127936 -92.44915953 60.03965076 -93.53564453 58.24633789 C-96.16334013 53.77664075 -97.9887457 50.63019323 -97.24609375 45.265625 C-96.45344116 44.93353027 -96.45344116 44.93353027 -95.64477539 44.59472656 C-93.19896558 43.56934834 -90.75377832 42.54249328 -88.30859375 41.515625 C-87.47779297 41.16757813 -86.64699219 40.81953125 -85.79101562 40.4609375 C-80.24486365 38.13025885 -74.73365201 35.73108579 -69.24609375 33.265625 C-69.57609375 32.440625 -69.90609375 31.615625 -70.24609375 30.765625 C-72.42553119 23.13759396 -72.42553119 23.13759396 -71.24609375 19.265625 C-65.22809595 11.79561029 -52.21596864 9.89422275 -43.24609375 8.265625 C-40.97859238 8.09027797 -38.70692552 7.95598329 -36.43359375 7.890625 C-32.59676783 7.75911136 -32.59676783 7.75911136 -29.46875 5.765625 C-28.4981587 4.52985888 -27.55678261 3.27049595 -26.6484375 1.98828125 C-20.59079526 -5.45300072 -7.5236215 -4.09493006 0 0 Z M-67.91015625 42.453125 C-69.59238281 43.12988281 -69.59238281 43.12988281 -71.30859375 43.8203125 C-73.07203125 44.53574219 -73.07203125 44.53574219 -74.87109375 45.265625 C-76.64613281 45.98105469 -76.64613281 45.98105469 -78.45703125 46.7109375 C-81.38797219 47.89276852 -84.31758107 49.07779246 -87.24609375 50.265625 C-83.54398098 57.84637513 -79.6513531 65.24616278 -75.37109375 72.515625 C-74.87351562 73.36769531 -74.3759375 74.21976563 -73.86328125 75.09765625 C-72.66087365 77.15562311 -71.45516101 79.21156625 -70.24609375 81.265625 C-66.48731514 79.66763641 -65.40660466 78.1405325 -63.86181641 74.31469727 C-63.61737793 73.65912842 -63.37293945 73.00355957 -63.12109375 72.328125 C-62.7331665 71.31866821 -62.7331665 71.31866821 -62.33740234 70.28881836 C-59.12452208 61.63994202 -56.22942674 51.31562602 -59.24609375 42.265625 C-59.57609375 41.605625 -59.90609375 40.945625 -60.24609375 40.265625 C-63.11473385 40.265625 -65.25234444 41.37926164 -67.91015625 42.453125 Z M140.75390625 81.265625 C139.94532973 84.07403964 139.78270556 85.81281183 139.94140625 88.828125 C139.75390625 92.265625 139.75390625 92.265625 137.75390625 94.203125 C137.09390625 94.55375 136.43390625 94.904375 135.75390625 95.265625 C136.61994872 98.00809281 137.47112549 100.69056293 138.7421875 103.27539062 C142.36086877 110.92725666 142.21901508 118.05102106 142.00390625 126.390625 C141.98379218 127.74216076 141.96555015 129.09372574 141.94921875 130.4453125 C141.90244447 133.71951191 141.83690765 136.99217748 141.75390625 140.265625 C143.67203125 140.45125 143.67203125 140.45125 145.62890625 140.640625 C149.50390625 141.015625 149.50390625 141.015625 151.75390625 143.265625 C152.15154888 145.25383813 152.49165974 147.25506839 152.75390625 149.265625 C159.15855493 149.10550878 162.51593818 145.63920805 166.75390625 141.265625 C174.553745 132.6070884 178.15995667 122.30062511 177.96484375 110.69140625 C177.13174243 101.11074104 172.90210993 93.69744571 165.69140625 87.453125 C159.1415157 82.57554693 154.61296829 81.11332761 146.44140625 81.203125 C145.37277344 81.21214844 144.30414063 81.22117187 143.203125 81.23046875 C142.39488281 81.24207031 141.58664062 81.25367188 140.75390625 81.265625 Z " fill="#EAD8C6" transform="translate(145.24609375,97.734375)"/>
<path d="M0 0 C-0.01571045 0.56920166 -0.0314209 1.13840332 -0.04760742 1.72485352 C-0.11048439 4.33729874 -0.14915532 6.9495841 -0.1875 9.5625 C-0.21263672 10.45775391 -0.23777344 11.35300781 -0.26367188 12.27539062 C-0.32655603 17.99784892 0.34201469 21.91424859 3 27 C3.89203125 26.65066406 4.7840625 26.30132812 5.703125 25.94140625 C6.87359375 25.48636719 8.0440625 25.03132813 9.25 24.5625 C10.41015625 24.11003906 11.5703125 23.65757812 12.765625 23.19140625 C24.57221003 18.84236225 38.26738754 20.19830233 49.71875 25.18359375 C60.72955388 31.18176315 67.14185058 40.25331291 71 52 C75.29179906 66.86697829 71.96176734 83.35228899 65.25 96.8125 C59.9076809 106.05726881 51.48331085 113.74819312 41.38134766 117.43969727 C36.77885973 118.52260784 32.11649018 117.85959667 27.4375 117.5625 C19.76966593 117.12796528 19.76966593 117.12796528 12.98046875 120.109375 C11.19037253 122.71726254 9.99083351 125.0039082 9 128 C8.67 128.99 8.34 129.98 8 131 C9.32 131.66 10.64 132.32 12 133 C12.1875 135.375 12.1875 135.375 12 138 C6.64153053 141.57231298 1.234225 141.12223971 -5 141 C-5.33 142.32 -5.66 143.64 -6 145 C-5.67 144.67 -5.34 144.34 -5 144 C-4.01 144.33 -3.02 144.66 -2 145 C-2.51014186 153.14533556 -3.8477243 161.00512555 -5.46917725 168.99752808 C-6.1593911 172.40328553 -6.83063355 175.8127486 -7.5 179.22265625 C-7.6314743 179.89176529 -7.76294861 180.56087433 -7.89840698 181.2502594 C-9.49909855 189.46420824 -10.79751086 197.71970199 -12 206 C-13.65 206.33 -15.3 206.66 -17 207 C-18.09123464 204.81753073 -18.31324946 203.21655888 -18.61328125 200.80078125 C-18.72486572 199.93179199 -18.8364502 199.06280273 -18.95141602 198.16748047 C-19.07057373 197.22533691 -19.18973145 196.28319336 -19.3125 195.3125 C-20.41138217 186.97265766 -21.64740061 178.66723033 -23.0625 170.375 C-23.22468018 169.39829346 -23.38686035 168.42158691 -23.55395508 167.4152832 C-23.71275146 166.50222412 -23.87154785 165.58916504 -24.03515625 164.6484375 C-24.1731665 163.84583496 -24.31117676 163.04323242 -24.45336914 162.21630859 C-25.0191389 159.92240154 -25.8649374 158.06487615 -27 156 C-27.66 156.33 -28.32 156.66 -29 157 C-33.0899251 157.57001318 -37.19984652 157.95152619 -41.30908203 158.35717773 C-43.33317266 158.55834297 -45.35597951 158.7699129 -47.37890625 158.98242188 C-55.28394959 159.77448693 -63.05615121 160.19341057 -71 160 C-70.96970703 160.65258789 -70.93941406 161.30517578 -70.90820312 161.97753906 C-70.38432769 173.48264966 -69.90058743 184.98139192 -69.875 196.5 C-69.87048828 197.34723633 -69.86597656 198.19447266 -69.86132812 199.06738281 C-69.87587968 204.87587968 -69.87587968 204.87587968 -71 206 C-73.82416382 206.12663091 -76.61294793 206.18520548 -79.4375 206.1875 C-80.22705078 206.19974609 -81.01660156 206.21199219 -81.83007812 206.22460938 C-83.88807435 206.22987279 -85.94562009 206.12206285 -88 206 C-88.66 205.34 -89.32 204.68 -90 204 C-89.67 202.35 -89.34 200.7 -89 199 C-83.555 198.01 -83.555 198.01 -78 197 C-78.33 184.79 -78.66 172.58 -79 160 C-84.94 160.33 -90.88 160.66 -97 161 C-97 175.52 -97 190.04 -97 205 C-102.23155725 206.74385242 -104.52824772 207.24798231 -109.75 206.875 C-110.87921875 206.81054688 -112.0084375 206.74609375 -113.171875 206.6796875 C-116 206 -116 206 -117.390625 203.9453125 C-117.59171875 203.30335938 -117.7928125 202.66140625 -118 202 C-116 199 -116 199 -114.16015625 198.453125 C-113.46792969 198.38609375 -112.77570313 198.3190625 -112.0625 198.25 C-111.37285156 198.17265625 -110.68320313 198.0953125 -109.97265625 198.015625 C-108 198 -108 198 -105 199 C-105.66 186.46 -106.32 173.92 -107 161 C-110.13155053 159.95614982 -112.67171468 159.73663286 -115.9609375 159.53515625 C-117.15589844 159.45716797 -118.35085937 159.37917969 -119.58203125 159.29882812 C-122.07152363 159.14371557 -124.56110496 158.99002281 -127.05078125 158.83789062 C-157.13680575 156.86319425 -157.13680575 156.86319425 -163 151 C-163.4140625 148.3984375 -163.4140625 148.3984375 -163.625 145.375 C-163.69976562 144.37210938 -163.77453125 143.36921875 -163.8515625 142.3359375 C-163.90054688 141.56507813 -163.94953125 140.79421875 -164 140 C-162.52128418 140.17390259 -162.52128418 140.17390259 -161.01269531 140.35131836 C-157.24847267 140.79219538 -153.48327563 141.22425374 -149.71777344 141.65405273 C-148.10813352 141.8389352 -146.49874307 142.02600658 -144.88964844 142.21557617 C-123.99163808 144.67378002 -103.28050094 145.14480812 -82.25 145.0625 C-79.98046975 145.05746814 -77.71093841 145.05290826 -75.44140625 145.04882812 C-69.96091296 145.03797177 -64.48046187 145.02137095 -59 145 C-59 144.01 -59 143.02 -59 142 C-57.68 142 -56.36 142 -55 142 C-55.66 141.67 -56.32 141.34 -57 141 C-57 140.01 -57 139.02 -57 138 C-56.01 137.67 -55.02 137.34 -54 137 C-54.495 134.525 -54.495 134.525 -55 132 C-54.01 132 -53.02 132 -52 132 C-49.84515194 125.00470312 -49.84515194 125.00470312 -51.5 118.25 C-51.995 117.5075 -52.49 116.765 -53 116 C-52.505 114.515 -52.505 114.515 -52 113 C-49 112 -49 112 -47 112 C-47.165 111.236875 -47.33 110.47375 -47.5 109.6875 C-48 107 -48 107 -48 104 C-49.485 103.505 -49.485 103.505 -51 103 C-51.34833144 98.12335991 -50.41685712 95.22949995 -48 91 C-47.34 91.66 -46.68 92.32 -46 93 C-46 92.01 -46 91.02 -46 90 C-44.68 89.34 -43.36 88.68 -42 88 C-42.66 87.67 -43.32 87.34 -44 87 C-44.31426769 84.7058459 -44.37924576 82.44226779 -44.4609375 80.12890625 C-44.79475147 77.87001968 -44.79475147 77.87001968 -46.73046875 76.7109375 C-50.86994299 75.41423473 -54.84205209 75.93003946 -59 77 C-61.83411155 79.333492 -61.83411155 79.333492 -64 82 C-69.43253056 84.71626528 -75.05523977 84.83888068 -81 84 C-83.40938064 82.58776897 -84.97948489 80.97000223 -87 79 C-89.95171513 79.33393141 -92.05270755 80.55011967 -94.5625 82.0625 C-99.58919459 84.63232701 -104.46431375 84.8589858 -110 84 C-113.2215705 82.22484891 -114.4839615 80.88463743 -116.3125 77.75 C-117.23391867 74.06432532 -117.12867983 70.79605497 -117 67 C-114.525 66.505 -114.525 66.505 -112 66 C-110.47551369 68.9826906 -109.06059933 71.818202 -108 75 C-103.69351876 75.15624422 -100.27791027 75.07080879 -96.87890625 72.22265625 C-94.61013178 69.61427312 -92.54957582 67.09915163 -91 64 C-88.69140625 63.7578125 -88.69140625 63.7578125 -86 64 C-84.33984375 65.6796875 -84.33984375 65.6796875 -82.9375 67.875 C-80.92254396 70.9895304 -79.51917468 72.68787942 -76 74 C-72.41600593 74.41692853 -72.41600593 74.41692853 -69 74 C-68.01 72.515 -68.01 72.515 -67 71 C-67.53625 70.938125 -68.0725 70.87625 -68.625 70.8125 C-73.58020845 69.11729711 -76.1190255 66.69064296 -78.49609375 62.12890625 C-82.86484753 51.62162025 -83.37308995 44.00629966 -79.1484375 33.4296875 C-77.7835311 30.54202837 -76.30200283 28.2252694 -74 26 C-73.34 26 -72.68 26 -72 26 C-71.505 24.515 -71.505 24.515 -71 23 C-69.2578125 21.8671875 -69.2578125 21.8671875 -67.125 20.875 C-66.42632812 20.54242188 -65.72765625 20.20984375 -65.0078125 19.8671875 C-60.81136435 18.05471379 -57.48952456 17.86558526 -52.9375 17.875 C-51.06384766 17.87113281 -51.06384766 17.87113281 -49.15234375 17.8671875 C-46 18 -46 18 -44 19 C-44 17.35 -44 15.7 -44 14 C-47.70479057 12.81446702 -51.13216874 12.72857324 -55 13 C-57.67676547 14.37249963 -57.67676547 14.37249963 -60 16 C-65.56852059 18.04179088 -70.67661263 17.18395379 -76 15 C-79.82108177 14.57543536 -82.40658521 15.08282402 -85.875 16.5625 C-91.20969194 18.7434777 -95.57891601 17.807028 -101 16 C-101 15.34 -101 14.68 -101 14 C-105.71064469 14.19350856 -105.71064469 14.19350856 -109.5 16.5625 C-111 18 -111 18 -114.1875 18.4375 C-117.69943309 18.03449129 -119.00883852 17.59784352 -121.9375 15.9375 C-126.34745399 13.49135364 -129.14395498 13.89248096 -134 15 C-134.33 15.33 -134.66 15.66 -135 16 C-139.61005123 16.39741821 -142.57935535 16.55654939 -146.5 14 C-150.33916646 11.53071793 -153.53549614 11.47736959 -158 12 C-159.7325 12.433125 -159.7325 12.433125 -161.5 12.875 C-166.11058206 13.03966365 -167.80347685 11.36900991 -171.203125 8.4453125 C-173.04606915 6.79120666 -173.04606915 6.79120666 -176 6 C-176 4.68 -176 3.36 -176 2 C-172.67241857 2.39148017 -170.96053265 3.02806567 -168.1875 5 C-164.22772366 7.48456554 -161.61386688 7.68180228 -157 8 C-157 7.34 -157 6.68 -157 6 C-150.86976372 5.57722508 -147.96715495 6.00204602 -143 10 C-142.505 10.495 -142.505 10.495 -142 11 C-137.91212985 11.30932933 -137.91212985 11.30932933 -134.125 10 C-130.84008706 8.45415862 -127.53262299 8.51666325 -124 9 C-122.31503702 9.96885372 -120.64821244 10.96986723 -119 12 C-116.32396333 12.54223632 -113.72859027 12.76876354 -111 13 C-111 12.34 -111 11.68 -111 11 C-107.92009655 9.46004827 -105.41257239 9.77622476 -102 10 C-99.6603447 10.98511802 -97.32671865 11.98470459 -95 13 C-90.81389189 13.4025104 -89.55008317 13.36672211 -86 11 C-85.01 11 -84.02 11 -83 11 C-83 10.34 -83 9.68 -83 9 C-79.09835316 8.76590119 -76.58505374 8.70124915 -73.0625 10.5 C-69.23341714 12.37546915 -66.19442752 12.80336818 -62 12 C-61.01 11.34 -60.02 10.68 -59 10 C-55.23826323 7.49217548 -52.34138482 7.42166277 -48 8 C-46.35315106 8.43366135 -44.70735145 8.87132279 -43.0625 9.3125 C-38.92064405 10.2420463 -37.08304643 9.8809922 -33.5 7.625 C-32.778125 7.150625 -32.05625 6.67625 -31.3125 6.1875 C-27.392919 4.17474219 -23.29499713 4.40347262 -19 5 C-18.67 5.33 -18.34 5.66 -18 6 C-12.59965491 6.66320027 -9.96894236 6.37509233 -5.625 3 C-4.97789062 2.443125 -4.33078125 1.88625 -3.6640625 1.3125 C-2 0 -2 0 0 0 Z M22 35 C21.19142348 37.80841464 21.02879931 39.54718683 21.1875 42.5625 C21 46 21 46 19 47.9375 C18.34 48.288125 17.68 48.63875 17 49 C17.86604247 51.74246781 18.71721924 54.42493793 19.98828125 57.00976562 C23.60696252 64.66163166 23.46510883 71.78539606 23.25 80.125 C23.22988593 81.47653576 23.2116439 82.82810074 23.1953125 84.1796875 C23.14853822 87.45388691 23.0830014 90.72655248 23 94 C24.918125 94.185625 24.918125 94.185625 26.875 94.375 C30.75 94.75 30.75 94.75 33 97 C33.39764263 98.98821313 33.73775349 100.98944339 34 103 C40.40464868 102.83988378 43.76203193 99.37358305 48 95 C55.79983875 86.3414634 59.40605042 76.03500011 59.2109375 64.42578125 C58.37783618 54.84511604 54.14820368 47.43182071 46.9375 41.1875 C40.38760945 36.30992193 35.85906204 34.84770261 27.6875 34.9375 C26.61886719 34.94652344 25.55023438 34.95554688 24.44921875 34.96484375 C23.64097656 34.97644531 22.83273437 34.98804688 22 35 Z " fill="#DCC6B2" transform="translate(264,144)"/>
<path d="M0 0 C3.90956039 2.75697773 5.70565089 5.80234218 7.65625 10.16796875 C7.65625 10.82796875 7.65625 11.48796875 7.65625 12.16796875 C8.73922363 12.15709229 9.82219727 12.14621582 10.93798828 12.13500977 C23.41385035 12.05076584 35.84717028 12.43237974 48.31054688 12.9675293 C51.5479966 13.10618599 54.78567153 13.23809749 58.0234375 13.36914062 C88.09743544 14.60915419 88.09743544 14.60915419 89.65625 16.16796875 C91.04873041 16.4170865 92.45111235 16.61141348 93.85546875 16.78125 C94.72913086 16.89275391 95.60279297 17.00425781 96.50292969 17.11914062 C97.44040039 17.23837891 98.37787109 17.35761719 99.34375 17.48046875 C117.21112417 19.90172 117.21112417 19.90172 124.65625 23.16796875 C124.98625 24.15796875 125.31625 25.14796875 125.65625 26.16796875 C115.26273208 29.25158777 104.86806662 30.74414868 94.08203125 31.734375 C93.04812224 31.830441 93.04812224 31.830441 91.99332619 31.92844772 C76.5120814 33.3485488 61.03625798 33.87967029 45.49978638 34.24118042 C41.80952053 34.32982118 38.11963878 34.43244896 34.4296875 34.53320312 C21.23152118 34.8888211 8.03262074 35.1901713 -5.16796875 35.44140625 C-6.18997879 35.46171906 -7.21198883 35.48203186 -8.26496887 35.50296021 C-12.89574656 35.59490718 -17.52617326 35.67811907 -22.1574707 35.73876953 C-23.75081941 35.7669369 -25.34416296 35.795399 -26.9375 35.82421875 C-27.9933857 35.83199844 -27.9933857 35.83199844 -29.07060242 35.8399353 C-32.69690912 35.91600512 -35.21674585 36.32244185 -38.34375 38.16796875 C-40.66796875 38.3984375 -40.66796875 38.3984375 -43.03125 38.35546875 C-43.81886719 38.34902344 -44.60648438 38.34257812 -45.41796875 38.3359375 C-47.34375 38.16796875 -47.34375 38.16796875 -48.34375 37.16796875 C-51.83752838 36.62206588 -54.17224757 37.43265847 -57.27734375 38.890625 C-62.90230618 41.45576744 -68.64284628 43.6853316 -74.40625 45.91796875 C-75.99083008 46.53478516 -75.99083008 46.53478516 -77.60742188 47.1640625 C-80.18546017 48.16728102 -82.76424041 49.16854075 -85.34375 50.16796875 C-85.34375 53.81863193 -84.32202685 55.34450678 -82.52734375 58.5078125 C-81.92728516 59.57193359 -81.32722656 60.63605469 -80.70898438 61.73242188 C-80.07283203 62.84552734 -79.43667969 63.95863281 -78.78125 65.10546875 C-78.17216797 66.18376953 -77.56308594 67.26207031 -76.93554688 68.37304688 C-74.44148904 72.77789612 -71.94199882 77.17362242 -69.33227539 81.51123047 C-68.69668701 82.56971191 -68.06109863 83.62819336 -67.40625 84.71875 C-66.82875 85.66532471 -66.25125 86.61189941 -65.65625 87.5871582 C-63.87180547 91.09596831 -63.73270406 93.32710856 -64.34375 97.16796875 C-67.21875 97.29296875 -67.21875 97.29296875 -70.34375 97.16796875 C-71.00375 96.50796875 -71.66375 95.84796875 -72.34375 95.16796875 C-72.34375 94.17796875 -72.34375 93.18796875 -72.34375 92.16796875 C-73.00375 92.16796875 -73.66375 92.16796875 -74.34375 92.16796875 C-74.61413086 91.67208252 -74.88451172 91.17619629 -75.16308594 90.6652832 C-76.47119489 88.26918505 -77.78238602 85.87478699 -79.09375 83.48046875 C-79.57948486 82.59085449 -80.06521973 81.70124023 -80.56567383 80.78466797 C-83.22415469 75.9388187 -85.93293762 71.13293474 -88.74609375 66.375 C-89.56932129 64.97350708 -89.56932129 64.97350708 -90.40917969 63.54370117 C-91.47323218 61.73926418 -92.54778496 59.94096936 -93.63378906 58.1496582 C-96.26015801 53.67899268 -98.08644969 50.53288179 -97.34375 45.16796875 C-96.55109741 44.83587402 -96.55109741 44.83587402 -95.74243164 44.49707031 C-93.29662183 43.47169209 -90.85143457 42.44483703 -88.40625 41.41796875 C-87.57544922 41.06992188 -86.74464844 40.721875 -85.88867188 40.36328125 C-80.3425199 38.0326026 -74.83130826 35.63342954 -69.34375 33.16796875 C-69.67375 32.34296875 -70.00375 31.51796875 -70.34375 30.66796875 C-72.52318744 23.03993771 -72.52318744 23.03993771 -71.34375 19.16796875 C-65.3257522 11.69795404 -52.31362489 9.7965665 -43.34375 8.16796875 C-41.07624863 7.99262172 -38.80458177 7.85832704 -36.53125 7.79296875 C-32.69442408 7.66145511 -32.69442408 7.66145511 -29.56640625 5.66796875 C-28.59581495 4.43220263 -27.65443886 3.1728397 -26.74609375 1.890625 C-20.64136111 -5.6085034 -7.53553446 -4.16689511 0 0 Z " fill="#A59784" transform="translate(145.34375,97.83203125)"/>
<path d="M0 0 C110.59647008 -0.53643538 110.59647008 -0.53643538 128.0625 14.8125 C129.57218961 18.3351091 129.12811139 20.36497442 128 24 C126.38416979 25.58558739 124.64781717 26.89034359 122.84765625 28.26171875 C119.43240612 31.47479763 117.86378788 35.76982976 116 40 C115.34059439 41.33693921 114.67644333 42.67159997 114 44 C114 43.01 114 42.02 114 41 C113.05640625 41.75796875 113.05640625 41.75796875 112.09375 42.53125 C104.23015873 48.5 104.23015873 48.5 99.4375 48.5 C96 48 96 48 95 47 C89.41603282 46.224449 85.25460685 46.50054407 80.5 49.625 C76.91695357 51.8809922 75.07935595 52.2420463 70.9375 51.3125 C69.69033203 50.97798828 69.69033203 50.97798828 68.41796875 50.63671875 C64.71034022 49.66039654 61.83205872 49.61679413 58 50 C57.01 50.66 56.02 51.32 55 52 C51.17806865 54.54795423 48.47255555 54.77392309 44 54 C41.97582866 53.04987876 39.97416268 52.05008653 38 51 C34.26228166 50.2863276 34.26228166 50.2863276 31 50 C31 50.66 31 51.32 31 52 C26.77337887 54.41521207 23.87496654 55.59693468 19 55 C17.906875 54.505 16.81375 54.01 15.6875 53.5 C11.24622643 51.69338024 7.71630497 51.71124663 3 52 C3 52.66 3 53.32 3 54 C-2.73221582 54.2914686 -5.07244427 53.95653344 -10 51 C-14.49770417 50.37557025 -18.00492973 50.86929585 -22 53 C-24.9375 53.375 -24.9375 53.375 -28 53 C-28.7425 52.38125 -29.485 51.7625 -30.25 51.125 C-34.15394939 48.10831183 -38.1987631 47.70853205 -43 47 C-43 47.66 -43 48.32 -43 49 C-47.89048937 49.4289903 -50.75936683 49.57495194 -54.75 46.5625 C-55.28109375 46.11003906 -55.8121875 45.65757812 -56.359375 45.19140625 C-58.21506688 43.84382048 -59.76352022 43.42298639 -62 43 C-61.9071875 44.60875 -61.9071875 44.60875 -61.8125 46.25 C-61.802201 51.99684218 -63.17903538 57.57051834 -65 63 C-65.99 63.99 -65.99 63.99 -67 65 C-66.68985608 62.91631462 -66.3767948 60.83306332 -66.0625 58.75 C-65.88847656 57.58984375 -65.71445313 56.4296875 -65.53515625 55.234375 C-65 52 -65 52 -64.44140625 49.8203125 C-63.19129176 44.6649731 -63.97468745 39.12656276 -65 34 C-57.5 30.47058824 -57.5 30.47058824 -53 31 C-52.67 31.33 -52.34 31.66 -52 32 C-50.00009484 32.19989763 -50.00009484 32.19989763 -47.6875 32.1875 C-46.90761719 32.20167969 -46.12773438 32.21585938 -45.32421875 32.23046875 C-43.01365901 32.16738649 -43.01365901 32.16738649 -41.33827209 31.01026917 C-38.03199366 29.58176512 -34.80747961 29.65356996 -31.26342773 29.60522461 C-30.4869136 29.58703171 -29.71039948 29.56883881 -28.91035461 29.5500946 C-26.33487424 29.49192642 -23.75933743 29.4472059 -21.18359375 29.40234375 C-19.3706727 29.36364839 -17.5577708 29.32404619 -15.74488831 29.28358459 C-10.95004377 29.17873165 -6.15504729 29.08494588 -1.35992432 28.99383545 C6.21318577 28.84784893 13.78596012 28.68453725 21.35876656 28.52368164 C23.2064431 28.48443691 25.05412354 28.44537459 26.90180779 28.40649414 C57.89794826 27.80558584 57.89794826 27.80558584 88.8125 25.625 C90.74319336 25.45484375 90.74319336 25.45484375 92.71289062 25.28125 C100.37689022 24.55392445 107.68852087 23.35132423 115.1784668 21.59912109 C118 21 118 21 121 21 C120.67 20.34 120.34 19.68 120 19 C117.14552215 18.05756922 114.34458277 17.24431198 111.4375 16.5 C110.59010254 16.27860352 109.74270508 16.05720703 108.86962891 15.82910156 C101.92338682 14.08378854 95.04946376 13.06430334 87.9296875 12.359375 C85 12 85 12 84 11 C81.70476958 10.79136014 79.40336596 10.65054301 77.1015625 10.53515625 C76.37551315 10.49778351 75.64946381 10.46041077 74.90141296 10.42190552 C73.31309375 10.34089215 71.72466129 10.26207718 70.13613892 10.18515015 C67.61017055 10.06177569 65.0847695 9.929804 62.55932617 9.79614258 C54.04781777 9.35329568 45.53775677 8.96906469 37.0189209 8.69807434 C33.07564714 8.57152062 29.13304778 8.42815105 25.19036865 8.28439331 C23.27337292 8.21985108 21.35605419 8.16427287 19.4385376 8.1177063 C16.74558251 8.05191101 14.05510333 7.95668874 11.36328125 7.85546875 C10.55871994 7.84387726 9.75415863 7.83228577 8.92521667 7.82034302 C6.68481445 7.71948242 6.68481445 7.71948242 3 7 C0.97419886 4.56781606 0 3.17939784 0 0 Z " fill="#E9D8C8" transform="translate(150,103)"/>
<path d="M0 0 C0 0.66 0 1.32 0 2 C1.98 2.99 1.98 2.99 4 4 C4 4.66 4 5.32 4 6 C8.455 6.99 8.455 6.99 13 8 C13 7.34 13 6.68 13 6 C14.65 6 16.3 6 18 6 C18.02715383 7.74991334 18.04646551 9.49994945 18.0625 11.25 C18.07410156 12.22453125 18.08570313 13.1990625 18.09765625 14.203125 C18.01195577 16.65758678 17.70706066 18.66168914 17 21 C18.98 21 20.96 21 23 21 C23.33 19.35 23.66 17.7 24 16 C24.66 16 25.32 16 26 16 C26 17.98 26 19.96 26 22 C26.99 22 27.98 22 29 22 C29 20.35 29 18.7 29 17 C29.99 17.33 30.98 17.66 32 18 C31.48985814 26.14533556 30.1522757 34.00512555 28.53082275 41.99752808 C27.8406089 45.40328553 27.16936645 48.8127486 26.5 52.22265625 C26.3685257 52.89176529 26.23705139 53.56087433 26.10159302 54.2502594 C24.50090145 62.46420824 23.20248914 70.71970199 22 79 C19.525 79.495 19.525 79.495 17 80 C15.90876536 77.81753073 15.68675054 76.21655888 15.38671875 73.80078125 C15.27513428 72.93179199 15.1635498 72.06280273 15.04858398 71.16748047 C14.92942627 70.22533691 14.81026855 69.28319336 14.6875 68.3125 C13.58861783 59.97265766 12.35259939 51.66723033 10.9375 43.375 C10.77531982 42.39829346 10.61313965 41.42158691 10.44604492 40.4152832 C10.28724854 39.50222412 10.12845215 38.58916504 9.96484375 37.6484375 C9.8268335 36.84583496 9.68882324 36.04323242 9.54663086 35.21630859 C8.9808611 32.92240154 8.1350626 31.06487615 7 29 C6.34 29.33 5.68 29.66 5 30 C0.9100749 30.57001318 -3.19984652 30.95152619 -7.30908203 31.35717773 C-9.33317266 31.55834297 -11.35597951 31.7699129 -13.37890625 31.98242188 C-21.28394959 32.77448693 -29.05615121 33.19341057 -37 33 C-36.96970703 33.65258789 -36.93941406 34.30517578 -36.90820312 34.97753906 C-36.38432769 46.48264966 -35.90058743 57.98139192 -35.875 69.5 C-35.87048828 70.34723633 -35.86597656 71.19447266 -35.86132812 72.06738281 C-35.87587968 77.87587968 -35.87587968 77.87587968 -37 79 C-39.82416382 79.12663091 -42.61294793 79.18520548 -45.4375 79.1875 C-46.22705078 79.19974609 -47.01660156 79.21199219 -47.83007812 79.22460938 C-49.88807435 79.22987279 -51.94562009 79.12206285 -54 79 C-54.66 78.34 -55.32 77.68 -56 77 C-55.67 75.35 -55.34 73.7 -55 72 C-49.555 71.01 -49.555 71.01 -44 70 C-44.33 57.79 -44.66 45.58 -45 33 C-50.94 33.33 -56.88 33.66 -63 34 C-63 48.52 -63 63.04 -63 78 C-68.23155725 79.74385242 -70.52824772 80.24798231 -75.75 79.875 C-76.87921875 79.81054688 -78.0084375 79.74609375 -79.171875 79.6796875 C-82 79 -82 79 -83.390625 76.9453125 C-83.69226563 75.98238281 -83.69226563 75.98238281 -84 75 C-82 72 -82 72 -80.16015625 71.453125 C-79.46792969 71.38609375 -78.77570313 71.3190625 -78.0625 71.25 C-77.02802734 71.13398438 -77.02802734 71.13398438 -75.97265625 71.015625 C-74 71 -74 71 -71 72 C-71.99 53.19 -71.99 53.19 -73 34 C-76.13155053 32.95614982 -78.67171468 32.73663286 -81.9609375 32.53515625 C-83.15589844 32.45716797 -84.35085937 32.37917969 -85.58203125 32.29882812 C-88.07152363 32.14371557 -90.56110496 31.99002281 -93.05078125 31.83789062 C-123.13680575 29.86319425 -123.13680575 29.86319425 -129 24 C-129.4140625 21.3984375 -129.4140625 21.3984375 -129.625 18.375 C-129.69976562 17.37210937 -129.77453125 16.36921875 -129.8515625 15.3359375 C-129.90054688 14.56507813 -129.94953125 13.79421875 -130 13 C-129.01418945 13.11593506 -128.02837891 13.23187012 -127.01269531 13.35131836 C-123.24847267 13.79219538 -119.48327563 14.22425374 -115.71777344 14.65405273 C-114.10813352 14.8389352 -112.49874307 15.02600658 -110.88964844 15.21557617 C-88.70626506 17.82497666 -66.66291208 18.14135118 -44.34942627 18.06866455 C-40.8019675 18.05824814 -37.25450106 18.0538286 -33.70703125 18.04882812 C-26.80466942 18.0382531 -19.90233691 18.02129397 -13 18 C-13 16.68 -13 15.36 -13 14 C-13.66 14 -14.32 14 -15 14 C-15.46105691 9.29721953 -15.64522502 6.05386753 -13.125 1.9375 C-8.74285731 -0.77942847 -5.02458408 -0.43904133 0 0 Z " fill="#CEBDAB" transform="translate(230,271)"/>
<path d="M0 0 C1.20269531 -0.01417969 2.40539062 -0.02835938 3.64453125 -0.04296875 C11.9187943 0.49526887 17.45208444 4.44252541 23.1875 10.1875 C26.83135231 15.4959303 28.76985411 20.78359643 29.1875 27.1875 C30.8375 27.5175 32.4875 27.8475 34.1875 28.1875 C33.6925 30.6625 33.6925 30.6625 33.1875 33.1875 C31.5375 33.5175 29.8875 33.8475 28.1875 34.1875 C28.001875 35.54875 28.001875 35.54875 27.8125 36.9375 C26.70895005 42.67595973 24.351387 45.12771018 20.1875 49.1875 C19.5275 50.1775 18.8675 51.1675 18.1875 52.1875 C15.5625 52.875 15.5625 52.875 13.1875 53.1875 C13.1875 53.8475 13.1875 54.5075 13.1875 55.1875 C10.45500659 55.94027515 7.90649317 56.35391703 5.078125 56.50390625 C4.32402344 56.54580078 3.56992188 56.58769531 2.79296875 56.63085938 C2.01566406 56.67017578 1.23835938 56.70949219 0.4375 56.75 C-0.35527344 56.79318359 -1.14804688 56.83636719 -1.96484375 56.88085938 C-3.91387815 56.98652991 -5.86316748 57.08747966 -7.8125 57.1875 C-7.93882812 57.97640625 -8.06515625 58.7653125 -8.1953125 59.578125 C-8.8125 62.1875 -8.8125 62.1875 -10.6875 63.9375 C-15.95577646 67.03648615 -21.87887303 66.93411531 -27.8125 66.1875 C-30.23000008 64.7808678 -31.78855903 63.16084245 -33.8125 61.1875 C-36.76421513 61.52143141 -38.86520755 62.73761967 -41.375 64.25 C-46.40169459 66.81982701 -51.27681375 67.0464858 -56.8125 66.1875 C-60.0340705 64.41234891 -61.2964615 63.07213743 -63.125 59.9375 C-64.04641867 56.25182532 -63.94117983 52.98355497 -63.8125 49.1875 C-61.3375 48.6925 -61.3375 48.6925 -58.8125 48.1875 C-57.28801369 51.1701906 -55.87309933 54.005702 -54.8125 57.1875 C-50.50601876 57.34374422 -47.09041027 57.25830879 -43.69140625 54.41015625 C-41.42263178 51.80177312 -39.36207582 49.28665163 -37.8125 46.1875 C-35.50390625 45.9453125 -35.50390625 45.9453125 -32.8125 46.1875 C-31.15234375 47.8671875 -31.15234375 47.8671875 -29.75 50.0625 C-27.73504396 53.1770304 -26.33167468 54.87537942 -22.8125 56.1875 C-19.22850593 56.60442853 -19.22850593 56.60442853 -15.8125 56.1875 C-15.1525 55.1975 -14.4925 54.2075 -13.8125 53.1875 C-14.34875 53.125625 -14.885 53.06375 -15.4375 53 C-20.39270845 51.30479711 -22.9315255 48.87814296 -25.30859375 44.31640625 C-29.67734753 33.80912025 -30.18558995 26.19379966 -25.9609375 15.6171875 C-24.5960311 12.72952837 -23.11450283 10.4127694 -20.8125 8.1875 C-20.1525 8.1875 -19.4925 8.1875 -18.8125 8.1875 C-18.4825 7.1975 -18.1525 6.2075 -17.8125 5.1875 C-16.0703125 4.0546875 -16.0703125 4.0546875 -13.9375 3.0625 C-13.23882812 2.72992188 -12.54015625 2.39734375 -11.8203125 2.0546875 C-7.71800215 0.28287252 -4.44956737 0.02369312 0 0 Z " fill="#E9B627" transform="translate(210.8125,161.8125)"/>
<path d="M0 0 C9.26603681 7.2925714 14.85506022 16.31030858 17.34765625 27.84765625 C18.71018175 45.30113804 17.13328344 62.1886096 5.4296875 76.1328125 C-1.86469141 83.68115431 -9.84191484 89.82311062 -20.703125 90.2109375 C-22.45711244 90.20962758 -24.21115428 90.19251214 -25.96484375 90.16015625 C-26.85751953 90.16337891 -27.75019531 90.16660156 -28.66992188 90.16992188 C-35.25064732 90.11545387 -35.25064732 90.11545387 -38.65234375 87.84765625 C-33.64219147 68.83750397 -33.64219147 68.83750397 -30.65234375 65.84765625 C-24.599942 65.29743791 -24.599942 65.29743791 -21.71484375 66.97265625 C-20.20749512 69.63268325 -20.45248122 71.8497183 -20.65234375 74.84765625 C-12.41260527 72.49344526 -7.38456006 68.29657485 -2.88671875 60.97265625 C2.57499951 50.57948363 5.21150623 40.35147511 2.22265625 28.78515625 C-0.79113356 19.64427489 -7.21521408 13.27714933 -15.65234375 8.84765625 C-19.46981314 7.87186097 -23.03423271 7.74196272 -26.96484375 7.78515625 C-28.03347656 7.79417969 -29.10210937 7.80320313 -30.203125 7.8125 C-31.01136719 7.82410156 -31.81960938 7.83570313 -32.65234375 7.84765625 C-32.62914062 8.54632813 -32.6059375 9.245 -32.58203125 9.96484375 C-32.55496094 11.32996094 -32.55496094 11.32996094 -32.52734375 12.72265625 C-32.50414062 13.62757813 -32.4809375 14.5325 -32.45703125 15.46484375 C-32.65234375 17.84765625 -32.65234375 17.84765625 -34.65234375 19.84765625 C-37.27734375 19.97265625 -37.27734375 19.97265625 -39.65234375 19.84765625 C-39.98234375 18.52765625 -40.31234375 17.20765625 -40.65234375 15.84765625 C-41.31234375 15.84765625 -41.97234375 15.84765625 -42.65234375 15.84765625 C-42.96171875 14.85765625 -42.96171875 14.85765625 -43.27734375 13.84765625 C-44.88799215 10.33351429 -47.06482265 7.80043255 -49.60546875 4.91015625 C-50.65234375 2.84765625 -50.65234375 2.84765625 -50.12890625 0.23828125 C-48.30712366 -2.71127151 -47.0156654 -3.26845071 -43.77734375 -4.40234375 C-42.91367187 -4.716875 -42.05 -5.03140625 -41.16015625 -5.35546875 C-27.76245935 -9.61268085 -11.78839593 -7.80142625 0 0 Z " fill="#969493" transform="translate(318.65234375,172.15234375)"/>
<path d="M0 0 C110.59647008 -0.53643538 110.59647008 -0.53643538 128.0625 14.8125 C129.57218961 18.3351091 129.12811139 20.36497442 128 24 C126.38385018 25.7728174 124.69982673 27.19332273 122.7890625 28.640625 C121.0316082 29.97598329 119.52564595 31.40883551 118 33 C118 32.34 118 31.68 118 31 C116.3900415 31.16604736 116.3900415 31.16604736 114.74755859 31.33544922 C80.07687281 34.88478755 45.73783987 37.16892267 10.875 37.1875 C9.78020325 37.18858765 8.68540649 37.18967529 7.55743408 37.1907959 C-3.33988517 37.18956514 -14.22898143 37.08403369 -25.1171875 36.61328125 C-25.91681915 36.58316452 -26.71645081 36.55304779 -27.54031372 36.52201843 C-32.3178401 36.28153075 -36.44963063 35.48598118 -41 34 C-40.34 32.68 -39.68 31.36 -39 30 C-37.51139717 29.96574669 -37.51139717 29.96574669 -35.99272156 29.93080139 C-26.50917109 29.71233254 -17.02566938 29.49184093 -7.54220867 29.26950932 C-2.67000671 29.15534596 2.20220826 29.04182664 7.07446289 28.92993164 C47.99628476 28.29329228 47.99628476 28.29329228 88.8125 25.625 C90.74319336 25.45484375 90.74319336 25.45484375 92.71289062 25.28125 C100.37689022 24.55392445 107.68852087 23.35132423 115.1784668 21.59912109 C118 21 118 21 121 21 C120.67 20.34 120.34 19.68 120 19 C117.14552215 18.05756922 114.34458277 17.24431198 111.4375 16.5 C110.59010254 16.27860352 109.74270508 16.05720703 108.86962891 15.82910156 C101.92338682 14.08378854 95.04946376 13.06430334 87.9296875 12.359375 C85 12 85 12 84 11 C81.70476958 10.79136014 79.40336596 10.65054301 77.1015625 10.53515625 C76.01248848 10.47909714 76.01248848 10.47909714 74.90141296 10.42190552 C73.31309375 10.34089215 71.72466129 10.26207718 70.13613892 10.18515015 C67.61017055 10.06177569 65.0847695 9.929804 62.55932617 9.79614258 C54.04781777 9.35329568 45.53775677 8.96906469 37.0189209 8.69807434 C33.07564714 8.57152062 29.13304778 8.42815105 25.19036865 8.28439331 C23.27337292 8.21985108 21.35605419 8.16427287 19.4385376 8.1177063 C16.74558251 8.05191101 14.05510333 7.95668874 11.36328125 7.85546875 C10.55871994 7.84387726 9.75415863 7.83228577 8.92521667 7.82034302 C6.68481445 7.71948242 6.68481445 7.71948242 3 7 C0.97419886 4.56781606 0 3.17939784 0 0 Z " fill="#EEE5D9" transform="translate(150,103)"/>
<path d="M0 0 C0.66 0 1.32 0 2 0 C2 0.66 2 1.32 2 2 C8.50468748 3.34678551 15.02873909 4.31171775 21.625 5.0625 C22.29708496 5.14161621 22.96916992 5.22073242 23.66162109 5.30224609 C36.79972481 6.74059254 49.94748639 7.08582642 63.15234375 7.24609375 C63.82855774 7.25448336 64.50477173 7.26287296 65.20147705 7.2715168 C71.56545772 7.34947085 77.92949375 7.42016942 84.29370117 7.47680664 C87.80823789 7.50851555 91.32255604 7.54970635 94.83691597 7.59700203 C96.81006266 7.62073554 98.78332893 7.63374559 100.75657654 7.64659119 C101.94284134 7.66323318 103.12910614 7.67987518 104.35131836 7.69702148 C105.39702499 7.70732895 106.44273163 7.71763641 107.52012634 7.72825623 C110 8 110 8 112 10 C110.02 10.33 108.04 10.66 106 11 C106 11.99 106 12.98 106 14 C106.66 14 107.32 14 108 14 C108 14.66 108 15.32 108 16 C109.98 16 111.96 16 114 16 C114 16.33 114 16.66 114 17 C108.53098023 17.67757767 103.15492828 18.06180016 97.640625 18.03125 C96.04782715 18.02448242 96.04782715 18.02448242 94.42285156 18.01757812 C93.62331055 18.01177734 92.82376953 18.00597656 92 18 C92.03029297 18.65258789 92.06058594 19.30517578 92.09179688 19.97753906 C92.61567231 31.48264966 93.09941257 42.98139192 93.125 54.5 C93.12951172 55.34723633 93.13402344 56.19447266 93.13867188 57.06738281 C93.12412032 62.87587968 93.12412032 62.87587968 92 64 C89.17583618 64.12663091 86.38705207 64.18520548 83.5625 64.1875 C82.77294922 64.19974609 81.98339844 64.21199219 81.16992188 64.22460938 C79.11192565 64.22987279 77.05437991 64.12206285 75 64 C74.34 63.34 73.68 62.68 73 62 C73.33 60.35 73.66 58.7 74 57 C77.63 56.34 81.26 55.68 85 55 C84.67 42.79 84.34 30.58 84 18 C78.06 18.33 72.12 18.66 66 19 C66 33.52 66 48.04 66 63 C60.76844275 64.74385242 58.47175228 65.24798231 53.25 64.875 C52.12078125 64.81054688 50.9915625 64.74609375 49.828125 64.6796875 C47 64 47 64 45.609375 61.9453125 C45.30773437 60.98238281 45.30773437 60.98238281 45 60 C47 57 47 57 48.83984375 56.453125 C49.53207031 56.38609375 50.22429687 56.3190625 50.9375 56.25 C51.62714844 56.17265625 52.31679687 56.0953125 53.02734375 56.015625 C55 56 55 56 58 57 C57.01 38.19 57.01 38.19 56 19 C52.86844947 17.95614982 50.32828532 17.73663286 47.0390625 17.53515625 C45.84410156 17.45716797 44.64914063 17.37917969 43.41796875 17.29882812 C40.92847637 17.14371557 38.43889504 16.99002281 35.94921875 16.83789062 C5.86319425 14.86319425 5.86319425 14.86319425 0 9 C-0.1953125 6.8359375 -0.1953125 6.8359375 -0.125 4.375 C-0.10695313 3.55773437 -0.08890625 2.74046875 -0.0703125 1.8984375 C-0.04710938 1.27195312 -0.02390625 0.64546875 0 0 Z " fill="#EAD9C8" transform="translate(101,286)"/>
<path d="M0 0 C-0.33 3.63 -0.66 7.26 -1 11 C4.28 11.33 9.56 11.66 15 12 C15 12.33 15 12.66 15 13 C13.083412 13.02712153 11.1667127 13.04645097 9.25 13.0625 C8.18265625 13.07410156 7.1153125 13.08570312 6.015625 13.09765625 C3.46631499 13.01510087 1.42066409 12.74617558 -1 12 C-0.98839844 12.67546875 -0.97679688 13.3509375 -0.96484375 14.046875 C-0.95582031 14.93890625 -0.94679688 15.8309375 -0.9375 16.75 C-0.92589844 17.63171875 -0.91429688 18.5134375 -0.90234375 19.421875 C-0.99173802 21.7818838 -1.33087179 23.74498524 -2 26 C-0.02 26 1.96 26 4 26 C4 26.33 4 26.66 4 27 C3.37351562 27.13277344 2.74703125 27.26554687 2.1015625 27.40234375 C1.28429687 27.57894531 0.46703125 27.75554687 -0.375 27.9375 C-1.18710938 28.11152344 -1.99921875 28.28554687 -2.8359375 28.46484375 C-5.029463 28.92330693 -5.029463 28.92330693 -7 30 C-8.51845202 30.09472912 -10.04110384 30.1298841 -11.5625 30.125 C-12.77099609 30.12886719 -12.77099609 30.12886719 -14.00390625 30.1328125 C-16 30 -16 30 -17 29 C-20.49377838 28.45409713 -22.82849757 29.26468972 -25.93359375 30.72265625 C-31.55855618 33.28779869 -37.29909628 35.51736285 -43.0625 37.75 C-44.64708008 38.36681641 -44.64708008 38.36681641 -46.26367188 38.99609375 C-48.84171017 39.99931227 -51.42049041 41.000572 -54 42 C-54 45.65066318 -52.97827685 47.17653803 -51.18359375 50.33984375 C-50.58353516 51.40396484 -49.98347656 52.46808594 -49.36523438 53.56445312 C-48.72908203 54.67755859 -48.09292969 55.79066406 -47.4375 56.9375 C-46.82841797 58.01580078 -46.21933594 59.09410156 -45.59179688 60.20507812 C-43.09773904 64.60992737 -40.59824882 69.00565367 -37.98852539 73.34326172 C-37.35293701 74.40174316 -36.71734863 75.46022461 -36.0625 76.55078125 C-35.485 77.49735596 -34.9075 78.44393066 -34.3125 79.41918945 C-32.52805547 82.92799956 -32.38895406 85.15913981 -33 89 C-35.875 89.125 -35.875 89.125 -39 89 C-39.66 88.34 -40.32 87.68 -41 87 C-41 86.01 -41 85.02 -41 84 C-41.66 84 -42.32 84 -43 84 C-43.27038086 83.50411377 -43.54076172 83.00822754 -43.81933594 82.49731445 C-45.12744489 80.1012163 -46.43863602 77.70681824 -47.75 75.3125 C-48.23573486 74.42288574 -48.72146973 73.53327148 -49.22192383 72.61669922 C-51.88040469 67.77084995 -54.58918762 62.96496599 -57.40234375 58.20703125 C-57.95116211 57.27270264 -58.49998047 56.33837402 -59.06542969 55.37573242 C-60.12948218 53.57129543 -61.20403496 51.77300061 -62.29003906 49.98168945 C-64.91640801 45.51102393 -66.74269969 42.36491304 -66 37 C-65.20734741 36.66790527 -65.20734741 36.66790527 -64.39868164 36.32910156 C-61.95287183 35.30372334 -59.50768457 34.27686828 -57.0625 33.25 C-56.23169922 32.90195313 -55.40089844 32.55390625 -54.54492188 32.1953125 C-48.9987699 29.86463385 -43.48755826 27.46546079 -38 25 C-38.33 24.175 -38.66 23.35 -39 22.5 C-41.17943744 14.87196896 -41.17943744 14.87196896 -40 11 C-31.90757568 0.95504307 -11.75554199 -0.76334688 0 0 Z " fill="#83796F" transform="translate(114,106)"/>
<path d="M0 0 C1.17804199 0.17390259 1.17804199 0.17390259 2.37988281 0.35131836 C6.00270287 0.88388249 9.62633461 1.41071967 13.25 1.9375 C15.10238281 2.21110352 15.10238281 2.21110352 16.9921875 2.49023438 C23.89004979 3.48860918 30.74213732 4.30129928 37.69824219 4.75610352 C40 5 40 5 42 6 C43.4931334 6.11744359 44.99088007 6.17884297 46.48828125 6.2109375 C47.87539307 6.25045532 47.87539307 6.25045532 49.29052734 6.29077148 C50.28777832 6.31856689 51.2850293 6.3463623 52.3125 6.375 C60.56729893 6.66836748 68.69401486 7.28621305 76.875 8.4375 C78.22911987 8.62094971 78.22911987 8.62094971 79.6105957 8.80810547 C81.7532296 9.12907274 83.87981867 9.55420735 86 10 C86.33 10.66 86.66 11.32 87 12 C70.49540572 14.19057802 53.9395433 14.62752014 37.31723785 15.06505966 C35.04385025 15.12549579 32.77054873 15.18854195 30.49725342 15.25234985 C13.04252847 15.74056492 -4.41221845 16.18893736 -21.875 16.1875 C-22.94994217 16.18885956 -22.94994217 16.18885956 -24.04660034 16.19024658 C-30.15927398 16.18934894 -35.97758013 16.12492564 -42 15 C-41.67 12.36 -41.34 9.72 -41 7 C-40.32122803 7.00523682 -39.64245605 7.01047363 -38.94311523 7.01586914 C-26.25378262 7.10071529 -13.6459125 7.15149772 -1 6 C-0.67 4.02 -0.34 2.04 0 0 Z " fill="#F15506" transform="translate(154,117)"/>
<path d="M0 0 C0 0.33 0 0.66 0 1 C-5.94 2.485 -5.94 2.485 -12 4 C-12 4.33 -12 4.66 -12 5 C-9.36 5.33 -6.72 5.66 -4 6 C-6.76909357 8.76909357 -8.73374482 8.47292019 -12.61328125 8.81640625 C-13.28523529 8.87756622 -13.95718933 8.9387262 -14.64950562 9.0017395 C-16.86970881 9.19960891 -19.09079638 9.3823028 -21.3125 9.5625 C-22.08139557 9.62692291 -22.85029114 9.69134583 -23.64248657 9.75772095 C-46.77688459 11.68621102 -69.85868541 12.0824676 -93.0625 12.125 C-94.54814957 12.12915421 -94.54814957 12.12915421 -96.06381226 12.13339233 C-106.3815111 12.15448492 -116.68694044 12.06393406 -126.99609375 11.6171875 C-128.20641014 11.5716423 -128.20641014 11.5716423 -129.44117737 11.525177 C-134.25454337 11.28413775 -138.41659984 10.50024352 -143 9 C-142.34 7.68 -141.68 6.36 -141 5 C-139.51139717 4.96574669 -139.51139717 4.96574669 -137.99272156 4.93080139 C-128.50917109 4.71233254 -119.02566938 4.49184093 -109.54220867 4.26950932 C-104.67000671 4.15534596 -99.79779174 4.04182664 -94.92553711 3.92993164 C-68.20772754 3.32561512 -68.20772754 3.32561512 -41.49609375 2.5 C-40.47360031 2.4653212 -39.45110687 2.4306424 -38.39762878 2.39491272 C-30.06947922 2.07884633 -21.80431079 1.32622011 -13.5234375 0.40234375 C-8.99909733 -0.06267426 -4.54601862 -0.06805417 0 0 Z " fill="#EEDEC3" transform="translate(252,128)"/>
<path d="M0 0 C0.99 0 1.98 0 3 0 C3 1.98 3 3.96 3 6 C5.31 6 7.62 6 10 6 C10 4.35 10 2.7 10 1 C10.99 0.67 11.98 0.34 13 0 C13 1.98 13 3.96 13 6 C13.99 6 14.98 6 16 6 C16 4.35 16 2.7 16 1 C16.99 1.33 17.98 1.66 19 2 C18.48985814 10.14533556 17.1522757 18.00512555 15.53082275 25.99752808 C14.8406089 29.40328553 14.16936645 32.8127486 13.5 36.22265625 C13.30278854 37.22631981 13.30278854 37.22631981 13.10159302 38.2502594 C11.50090145 46.46420824 10.20248914 54.71970199 9 63 C6.525 63.495 6.525 63.495 4 64 C2.31255072 60.62510145 2.27385993 56.77643076 1.8125 53.0625 C0.23425086 40.84342385 -1.88018716 28.72666393 -4.01831055 16.59594727 C-4.14874756 15.85125183 -4.27918457 15.1065564 -4.41357422 14.33929443 C-4.66062645 12.93046876 -4.90994165 11.52203745 -5.16186523 10.11407471 C-5.64504024 7.35932565 -6 4.80429114 -6 2 C-5.01 2 -4.02 2 -3 2 C-2.67 2.99 -2.34 3.98 -2 5 C-1.34 5.33 -0.68 5.66 0 6 C0 4.02 0 2.04 0 0 Z " fill="#0E080A" transform="translate(243,287)"/>
<path d="M0 0 C0.495 0.99 0.495 0.99 1 2 C2.32796291 2.35412344 3.66216607 2.68521554 5 3 C5.99 3.66 6.98 4.32 8 5 C8 5.99 8 6.98 8 8 C7.22140625 8.25007812 6.4428125 8.50015625 5.640625 8.7578125 C0.96645739 10.35264651 -3.63781195 12.1101656 -8.25 13.875 C-9.14074219 14.21402344 -10.03148438 14.55304688 -10.94921875 14.90234375 C-16.99059682 17.20841404 -23.00305093 19.58083139 -29 22 C-29 25.65066318 -27.97827685 27.17653803 -26.18359375 30.33984375 C-25.28350586 31.93602539 -25.28350586 31.93602539 -24.36523438 33.56445312 C-23.72908203 34.67755859 -23.09292969 35.79066406 -22.4375 36.9375 C-21.82841797 38.01580078 -21.21933594 39.09410156 -20.59179688 40.20507812 C-18.09773904 44.60992737 -15.59824882 49.00565367 -12.98852539 53.34326172 C-12.35293701 54.40174316 -11.71734863 55.46022461 -11.0625 56.55078125 C-10.485 57.49735596 -9.9075 58.44393066 -9.3125 59.41918945 C-7.52805547 62.92799956 -7.38895406 65.15913981 -8 69 C-10.875 69.125 -10.875 69.125 -14 69 C-14.66 68.34 -15.32 67.68 -16 67 C-16 66.01 -16 65.02 -16 64 C-16.66 64 -17.32 64 -18 64 C-18.40557129 63.25617065 -18.40557129 63.25617065 -18.81933594 62.49731445 C-20.12744489 60.1012163 -21.43863602 57.70681824 -22.75 55.3125 C-23.23573486 54.42288574 -23.72146973 53.53327148 -24.22192383 52.61669922 C-26.88040469 47.77084995 -29.58918762 42.96496599 -32.40234375 38.20703125 C-32.95116211 37.27270264 -33.49998047 36.33837402 -34.06542969 35.37573242 C-35.12948218 33.57129543 -36.20403496 31.77300061 -37.29003906 29.98168945 C-39.91640801 25.51102393 -41.74269969 22.36491304 -41 17 C-31.16019103 12.78599486 -21.32864483 8.61707863 -11.25390625 4.99169922 C-7.35357847 3.57368111 -3.67823561 1.92079379 0 0 Z " fill="#867E74" transform="translate(89,126)"/>
<path d="M0 0 C3.27951915 1.28013424 6.21188056 2.76872922 8.16015625 5.8125 C9.12952192 8.33735942 9.4123992 10.5570566 9.625 13.25 C9.69976562 14.14203125 9.77453125 15.0340625 9.8515625 15.953125 C9.90054688 16.62859375 9.94953125 17.3040625 10 18 C11.65 18.33 13.3 18.66 15 19 C15.33 17.35 15.66 15.7 16 14 C16.99 14.33 17.98 14.66 19 15 C18.1680733 20.97091692 15.14217931 24.75466297 11 29 C4.7292683 33.27761809 -1.52075695 34.48253181 -9 34 C-9.66 33.01 -10.32 32.02 -11 31 C-11.928125 30.71125 -12.85625 30.4225 -13.8125 30.125 C-17.66864918 28.76400617 -19.47379865 27.19490171 -22 24 C-22.3125 21.1875 -22.3125 21.1875 -22 19 C-20.35 18.67 -18.7 18.34 -17 18 C-16.91363281 17.34773438 -16.82726562 16.69546875 -16.73828125 16.0234375 C-15.744074 9.83928597 -14.50060438 6.39083354 -10 2 C-6.22786948 -0.51475368 -4.47964158 -0.44796416 0 0 Z " fill="#ECE4D7" transform="translate(214,180)"/>
<path d="M0 0 C0.5 2.6875 0.5 2.6875 0 6 C-2.97008519 9.21967218 -6.38106156 10.79382549 -10.69921875 11.34375 C-15.00669741 11.39181113 -19.07982972 11.01074762 -23.3125 10.25 C-27.91428241 9.93801475 -29.45422551 11.19636435 -33 14 C-37.24076392 15.41358797 -41.96087793 15.98866525 -46.0625 14 C-46.701875 13.67 -47.34125 13.34 -48 13 C-53.13395503 12.53327682 -55.76913846 13.14130977 -60 16 C-65.56852059 18.04179088 -70.67661263 17.18395379 -76 15 C-79.82108177 14.57543536 -82.40658521 15.08282402 -85.875 16.5625 C-91.20969194 18.7434777 -95.57891601 17.807028 -101 16 C-101 15.34 -101 14.68 -101 14 C-105.71064469 14.19350856 -105.71064469 14.19350856 -109.5 16.5625 C-111 18 -111 18 -114.1875 18.4375 C-117.69943309 18.03449129 -119.00883852 17.59784352 -121.9375 15.9375 C-126.34745399 13.49135364 -129.14395498 13.89248096 -134 15 C-134.33 15.33 -134.66 15.66 -135 16 C-139.61005123 16.39741821 -142.57935535 16.55654939 -146.5 14 C-150.33916646 11.53071793 -153.53549614 11.47736959 -158 12 C-159.7325 12.433125 -159.7325 12.433125 -161.5 12.875 C-166.11058206 13.03966365 -167.80347685 11.36900991 -171.203125 8.4453125 C-173.04606915 6.79120666 -173.04606915 6.79120666 -176 6 C-176 4.68 -176 3.36 -176 2 C-172.67241857 2.39148017 -170.96053265 3.02806567 -168.1875 5 C-164.22772366 7.48456554 -161.61386688 7.68180228 -157 8 C-157 7.34 -157 6.68 -157 6 C-150.86976372 5.57722508 -147.96715495 6.00204602 -143 10 C-142.505 10.495 -142.505 10.495 -142 11 C-137.91212985 11.30932933 -137.91212985 11.30932933 -134.125 10 C-130.84008706 8.45415862 -127.53262299 8.51666325 -124 9 C-122.31503702 9.96885372 -120.64821244 10.96986723 -119 12 C-116.32396333 12.54223632 -113.72859027 12.76876354 -111 13 C-111 12.34 -111 11.68 -111 11 C-107.92009655 9.46004827 -105.41257239 9.77622476 -102 10 C-99.6603447 10.98511802 -97.32671865 11.98470459 -95 13 C-90.81389189 13.4025104 -89.55008317 13.36672211 -86 11 C-85.01 11 -84.02 11 -83 11 C-83 10.34 -83 9.68 -83 9 C-79.09835316 8.76590119 -76.58505374 8.70124915 -73.0625 10.5 C-69.23341714 12.37546915 -66.19442752 12.80336818 -62 12 C-61.01 11.34 -60.02 10.68 -59 10 C-55.23826323 7.49217548 -52.34138482 7.42166277 -48 8 C-46.35315106 8.43366135 -44.70735145 8.87132279 -43.0625 9.3125 C-38.92064405 10.2420463 -37.08304643 9.8809922 -33.5 7.625 C-32.778125 7.150625 -32.05625 6.67625 -31.3125 6.1875 C-27.392919 4.17474219 -23.29499713 4.40347262 -19 5 C-18.67 5.33 -18.34 5.66 -18 6 C-12.59965491 6.66320027 -9.96894236 6.37509233 -5.625 3 C-4.97789062 2.443125 -4.33078125 1.88625 -3.6640625 1.3125 C-2 0 -2 0 0 0 Z " fill="#B1ABA7" transform="translate(264,144)"/>
<path d="M0 0 C3.192984 2.25165617 5.2208512 4.50704337 6.65625 8.16796875 C7.0703125 10.96484375 7.0703125 10.96484375 7.28125 13.91796875 C7.35601562 14.9028125 7.43078125 15.88765625 7.5078125 16.90234375 C7.55679688 17.65 7.60578125 18.39765625 7.65625 19.16796875 C-5.71441255 21.06019117 -19.02663525 22.18170652 -32.34375 19.16796875 C-32.65117993 13.32680012 -32.30582376 9.40096573 -29.34375 4.16796875 C-21.25582414 -3.91995711 -10.05523277 -5.56020287 0 0 Z " fill="#0D070A" transform="translate(145.34375,97.83203125)"/>
<path d="M0 0 C2.23877274 1.55948699 4.02832543 3.07761729 6 5 C6 5.99 6 6.98 6 8 C6.66 8 7.32 8 8 8 C9.5912689 12.873261 10.21192221 16.80790596 10 22 C8.68 22.33 7.36 22.66 6 23 C5.67 24.32 5.34 25.64 5 27 C3.33388095 27.042721 1.66617115 27.04063832 0 27 C-1.98769494 25.01230506 -1.4339874 21.23809632 -1.62109375 18.54296875 C-2.01169265 15.92152663 -2.58476458 14.23021581 -4 12 C-8.37302187 9.15245088 -11.82075909 8.26010844 -17 9 C-20.66606182 11.11406768 -23.71381511 13.90759354 -25 18 C-25.39657455 20.66122394 -25.69317506 23.32623983 -26 26 C-27 27 -27 27 -29.5625 27.0625 C-30.366875 27.041875 -31.17125 27.02125 -32 27 C-32.495 28.485 -32.495 28.485 -33 30 C-36.25556205 22.26804014 -37.03249876 16.23677231 -34.1015625 8.2109375 C-31.52831031 3.04618311 -27.46331316 -0.6413465 -22.1875 -2.9375 C-14.10570597 -5.43863548 -7.03244738 -4.65824506 0 0 Z " fill="#EEE4D5" transform="translate(224,172)"/>
<path d="M0 0 C-1.32 4.29 -2.64 8.58 -4 13 C-4.495 11.515 -4.495 11.515 -5 10 C-5.6290625 10.5053125 -6.258125 11.010625 -6.90625 11.53125 C-14.76984127 17.5 -14.76984127 17.5 -19.5625 17.5 C-23 17 -23 17 -24 16 C-29.51319186 15.23427891 -33.56299182 15.3848879 -38.125 18.6875 C-42.76951136 21.69425419 -46.40563605 20.89075337 -51.5625 19.8125 C-54.05877925 19.25626687 -56.52475256 18.64690516 -59 18 C-57.68 17.34 -56.36 16.68 -55 16 C-55 15.34 -55 14.68 -55 14 C-55.66 13.67 -56.32 13.34 -57 13 C-57 11 -57 11 -55 9 C-55.3185177 6.89179203 -55.3185177 6.89179203 -56 5 C-53.69 5 -51.38 5 -49 5 C-49.020625 5.969375 -49.04125 6.93875 -49.0625 7.9375 C-49.35618499 10.87465895 -49.35618499 10.87465895 -48 12 C-48 9.69 -48 7.38 -48 5 C-46.35 5 -44.7 5 -43 5 C-43 4.34 -43 3.68 -43 3 C-42.00145996 2.91435791 -41.00291992 2.82871582 -39.97412109 2.74047852 C-36.25027796 2.42045676 -32.52671339 2.09728757 -28.80322266 1.77319336 C-27.19522343 1.6336696 -25.58715105 1.49498615 -23.97900391 1.35717773 C-21.66028159 1.15832755 -19.34184389 0.95640267 -17.0234375 0.75390625 C-16.31069672 0.6934462 -15.59795593 0.63298615 -14.86361694 0.57069397 C-11.76728314 0.29764983 -8.74468989 -0.04696547 -5.68603516 -0.60961914 C-3 -1 -3 -1 0 0 Z " fill="#DFCBB9" transform="translate(269,134)"/>
<path d="M0 0 C2.30859375 -0.2421875 2.30859375 -0.2421875 5 0 C6.66015625 1.6796875 6.66015625 1.6796875 8.0625 3.875 C10.07996905 6.99341477 11.48474005 8.67335975 15 10 C18.54230809 10.58342353 18.54230809 10.58342353 22 10 C23.91666667 7.75 23.91666667 7.75 25 5 C25.66 4.01 26.32 3.02 27 2 C28.32 2.33 29.64 2.66 31 3 C31.304 11.968 31.304 11.968 29 16 C24.16373307 20.36824109 19.20880837 20.37864452 12.94921875 20.37109375 C8.60088055 19.82395186 7.07331251 17.99647969 4 15 C1.04828487 15.33393141 -1.05270755 16.55011967 -3.5625 18.0625 C-8.58919459 20.63232701 -13.46431375 20.8589858 -19 20 C-22.2215705 18.22484891 -23.4839615 16.88463743 -25.3125 13.75 C-26.23391867 10.06432532 -26.12867983 6.79605497 -26 3 C-24.35 2.67 -22.7 2.34 -21 2 C-19.47551369 4.9826906 -18.06059933 7.818202 -17 11 C-12.69351876 11.15624422 -9.27791027 11.07080879 -5.87890625 8.22265625 C-3.61013178 5.61427312 -1.54957582 3.09915163 0 0 Z " fill="#110B0C" transform="translate(173,208)"/>
<path d="M0 0 C0.82790039 0.00088623 1.65580078 0.00177246 2.50878906 0.00268555 C14.44661079 0.22346576 26.642748 2.30925007 37.5 7.375 C37.5 8.035 37.5 8.695 37.5 9.375 C11.61552093 16.03986587 11.61552093 16.03986587 2.5 12.375 C-0.31839068 11.87610581 -3.15276977 11.59525602 -6 11.3125 C-15.09892658 10.3617486 -15.09892658 10.3617486 -19.5 9.375 C-19.314375 8.7975 -19.12875 8.22 -18.9375 7.625 C-18.45976454 5.16807475 -18.74270636 3.73102466 -19.5 1.375 C-18.84 1.375 -18.18 1.375 -17.5 1.375 C-17.5 2.035 -17.5 2.695 -17.5 3.375 C-14.01997227 2.82209267 -14.01997227 2.82209267 -10.859375 1.359375 C-7.31436186 -0.11967022 -3.78219844 -0.00728821 0 0 Z " fill="#887F76" transform="translate(233.5,114.625)"/>
<path d="M0 0 C0 0.66 0 1.32 0 2 C2.475 2.99 2.475 2.99 5 4 C5 4.66 5 5.32 5 6 C5.71414062 6.24878906 6.42828125 6.49757813 7.1640625 6.75390625 C10.2987676 8.13127667 12.6639918 9.85181031 15.375 11.9375 C19.48728755 15.0036305 23.17829837 17.2856172 28 19 C28 19.99 28 20.98 28 22 C28.9590625 22.2165625 28.9590625 22.2165625 29.9375 22.4375 C32 23 32 23 33 24 C33.25 26.4375 33.25 26.4375 33 29 C29.86882433 31.08745045 28.93053776 31.27653996 25.33203125 31.4140625 C24.43935547 31.45273437 23.54667969 31.49140625 22.62695312 31.53125 C21.23379883 31.57765625 21.23379883 31.57765625 19.8125 31.625 C18.87212891 31.66367187 17.93175781 31.70234375 16.96289062 31.7421875 C14.64224934 31.83642674 12.32115159 31.91930123 10 32 C10 29.03 10 26.06 10 23 C11.65 23 13.3 23 15 23 C15 22.34 15 21.68 15 21 C14.319375 20.7525 13.63875 20.505 12.9375 20.25 C9.43134917 18.75802092 6.28379632 16.93164489 3 15 C3 14.34 3 13.68 3 13 C2.113125 12.7525 1.22625 12.505 0.3125 12.25 C-3.22538088 10.91495061 -5.40249645 9.75029788 -8 7 C-8.3125 3.75 -8.3125 3.75 -8 1 C-5.29120665 -0.35439668 -2.99066732 -0.06501451 0 0 Z " fill="#857B71" transform="translate(243,253)"/>
<path d="M0 0 C0 0.66 0 1.32 0 2 C1.32 2.66 2.64 3.32 4 4 C4 4.66 4 5.32 4 6 C6.97 6.66 9.94 7.32 13 8 C13 7.34 13 6.68 13 6 C14.65 6 16.3 6 18 6 C18.02715383 7.74991334 18.04646551 9.49994945 18.0625 11.25 C18.07410156 12.22453125 18.08570313 13.1990625 18.09765625 14.203125 C18.01195577 16.65758678 17.70706066 18.66168914 17 21 C18.98 21 20.96 21 23 21 C23 21.33 23 21.66 23 22 C20.69 22 18.38 22 16 22 C16 20.02 16 18.04 16 16 C15.01 16 14.02 16 13 16 C13 17.98 13 19.96 13 22 C12.01 21.67 11.02 21.34 10 21 C10 20.01 10 19.02 10 18 C9.01 18.33 8.02 18.66 7 19 C4.3398959 19.14794162 1.72312785 19.23094447 -0.9375 19.25 C-1.65357422 19.270625 -2.36964844 19.29125 -3.10742188 19.3125 C-6.36442214 19.33664829 -8.62956417 19.20573347 -11.50390625 17.609375 C-13 16 -13 16 -13 14 C-13.66 14 -14.32 14 -15 14 C-15.46105691 9.29721953 -15.64522502 6.05386753 -13.125 1.9375 C-8.74285731 -0.77942847 -5.02458408 -0.43904133 0 0 Z " fill="#87796B" transform="translate(230,271)"/>
<path d="M0 0 C2.64 0 5.28 0 8 0 C9.01258452 15.00794906 9.1144481 29.96152009 9 45 C4.51763131 46.75219867 1.04416565 47.2174404 -3.75 46.875 C-4.87921875 46.81054688 -6.0084375 46.74609375 -7.171875 46.6796875 C-10 46 -10 46 -11.390625 43.9453125 C-11.59171875 43.30335938 -11.7928125 42.66140625 -12 42 C-10 39 -10 39 -8.16015625 38.453125 C-7.46792969 38.38609375 -6.77570313 38.3190625 -6.0625 38.25 C-5.37285156 38.17265625 -4.68320313 38.0953125 -3.97265625 38.015625 C-2 38 -2 38 1 39 C0.96970703 38.351521 0.93941406 37.70304199 0.90820312 37.03491211 C0.33956638 24.68346598 -0.1783581 12.36616134 0 0 Z " fill="#877F76" transform="translate(158,304)"/>
<path d="M0 0 C2.31 0 4.62 0 7 0 C7.55526142 12.51701013 8.09708067 25.03137522 8.125 37.5625 C8.12951172 38.40586914 8.13402344 39.24923828 8.13867188 40.11816406 C8.1241506 45.8758494 8.1241506 45.8758494 7 47 C4.17583618 47.12663091 1.38705207 47.18520548 -1.4375 47.1875 C-2.22705078 47.19974609 -3.01660156 47.21199219 -3.83007812 47.22460938 C-5.88807435 47.22987279 -7.94562009 47.12206285 -10 47 C-10.66 46.34 -11.32 45.68 -12 45 C-11.67 43.35 -11.34 41.7 -11 40 C-7.37 39.34 -3.74 38.68 0 38 C-0.05329468 36.64636353 -0.05329468 36.64636353 -0.10766602 35.26538086 C-0.23753248 31.89037042 -0.36172376 28.51524709 -0.48217773 25.13989258 C-0.53527189 23.68407983 -0.59057186 22.22834567 -0.64819336 20.77270508 C-0.73102362 18.67025702 -0.80569592 16.56764622 -0.87890625 14.46484375 C-0.9260376 13.202771 -0.97316895 11.94069824 -1.02172852 10.64038086 C-0.99999333 6.99888231 -0.60030977 3.58770992 0 0 Z " fill="#877F76" transform="translate(186,303)"/>
<path d="M0 0 C2.64 0.66 5.28 1.32 8 2 C8.495 4.475 8.495 4.475 9 7 C-4.3164152 14.30900985 -26.29998451 14.09865419 -41 11 C-40.67 8.36 -40.34 5.72 -40 3 C-39.32122803 3.00523682 -38.64245605 3.01047363 -37.94311523 3.01586914 C-25.25378262 3.10071529 -12.6459125 3.15149772 0 2 C0 1.34 0 0.68 0 0 Z " fill="#0C0608" transform="translate(153,121)"/>
<path d="M0 0 C-0.33 2.31 -0.66 4.62 -1 7 C-2.18142578 7.16435547 -2.18142578 7.16435547 -3.38671875 7.33203125 C-18.4404302 8.99398406 -18.4404302 8.99398406 -32 15 C-32 15.66 -32 16.32 -32 17 C-29.69 17.99 -27.38 18.98 -25 20 C-26.4022578 22.8045156 -28.06070622 23.0442118 -30.9375 24.1875 C-31.83339844 24.55230469 -32.72929688 24.91710937 -33.65234375 25.29296875 C-36 26 -36 26 -38 25 C-39.9396011 20.58201972 -41.44326755 15.73809543 -40 11 C-32.04360195 1.12388963 -11.64590638 -1.0460395 0 0 Z " fill="#EEE5D9" transform="translate(114,106)"/>
<path d="M0 0 C1.9375 1 1.9375 1 4 3 C8.35420125 5.96456255 12.77498218 5.81917626 17.9375 6 C17.9375 6.33 17.9375 6.66 17.9375 7 C13.4825 7.495 13.4825 7.495 8.9375 8 C9.123125 8.9075 9.30875 9.815 9.5 10.75 C10.14050752 15.50805585 10.14050752 15.50805585 8.9375 18 C4.73435904 21.56630142 1.19901572 21.41758061 -4.0625 21 C-6.5 20.1875 -6.5 20.1875 -8.0625 19 C-8.3925 18.01 -8.7225 17.02 -9.0625 16 C-9.7225 15.67 -10.3825 15.34 -11.0625 15 C-11.0625 12.36 -11.0625 9.72 -11.0625 7 C-13.7025 7 -16.3425 7 -19.0625 7 C-19.0625 6.67 -19.0625 6.34 -19.0625 6 C-18.33804688 5.90203125 -17.61359375 5.8040625 -16.8671875 5.703125 C-10.3543967 4.79862016 -10.3543967 4.79862016 -4.625 1.8125 C-2.0625 0 -2.0625 0 0 0 Z " fill="#DCCCBD" transform="translate(176.0625,222)"/>
<path d="M0 0 C41.44619217 -0.20638953 41.44619217 -0.20638953 57 1 C56.67 1.66 56.34 2.32 56 3 C56.99 4.32 57.98 5.64 59 7 C25.51406292 7.18953204 25.51406292 7.18953204 13.3125 6.625 C12.1692627 6.5787146 12.1692627 6.5787146 11.00292969 6.53149414 C6.37090673 6.27727198 2.38302865 5.41313899 -2 4 C-1.34 2.68 -0.68 1.36 0 0 Z " fill="#EEE3D5" transform="translate(111,133)"/>
<path d="M0 0 C1.24330078 0.01353516 1.24330078 0.01353516 2.51171875 0.02734375 C3.10597656 0.03894531 3.70023437 0.05054688 4.3125 0.0625 C6.4375 5.6875 6.4375 5.6875 5.3125 9.0625 C-4.45842772 10.93637655 -13.79105133 11.29117275 -23.6875 11.0625 C-23.6875 10.4025 -23.6875 9.7425 -23.6875 9.0625 C-24.3475 9.0625 -25.0075 9.0625 -25.6875 9.0625 C-25.6875 8.0725 -25.6875 7.0825 -25.6875 6.0625 C-24.3675 5.4025 -23.0475 4.7425 -21.6875 4.0625 C-42.1475 3.7325 -62.6075 3.4025 -83.6875 3.0625 C-83.6875 2.7325 -83.6875 2.4025 -83.6875 2.0625 C-82.87254562 2.05219254 -82.05759125 2.04188507 -81.21794128 2.03126526 C-73.49532814 1.9328283 -65.77278578 1.83025328 -58.0502882 1.72316074 C-54.08115832 1.66826088 -50.11202078 1.6148981 -46.14282227 1.56518555 C-42.30427222 1.51705045 -38.46579972 1.4646983 -34.62734413 1.40955925 C-33.17113518 1.38935572 -31.71490517 1.37060997 -30.25865746 1.35342598 C-22.76105538 1.26399701 -15.32186639 1.06770306 -7.85925293 0.27966309 C-5.23224962 0.01697752 -2.63888865 -0.03824476 0 0 Z " fill="#DCC8B7" transform="translate(232.6875,290.9375)"/>
<path d="M0 0 C4.6111706 2.99726089 6.1531489 4.19911413 7.5 9.625 C7.6953125 13.0546875 7.6953125 13.0546875 7.625 16.5 C7.60695312 17.65242188 7.58890625 18.80484375 7.5703125 19.9921875 C7.54710937 20.86101562 7.52390625 21.72984375 7.5 22.625 C5.85 22.295 4.2 21.965 2.5 21.625 C2.47421875 20.88894531 2.4484375 20.15289062 2.421875 19.39453125 C2.0879161 13.150337 2.0879161 13.150337 -0.375 7.5 C-3.17105904 5.03288908 -5.11881356 4.66096099 -8.8125 4.3125 C-13.18119458 4.68272835 -15.13102201 5.88280861 -18.5 8.625 C-20.50293347 11.62940021 -20.99271626 13.33493945 -21.625 16.8125 C-21.79257813 17.71355469 -21.96015625 18.61460937 -22.1328125 19.54296875 C-22.25398437 20.23003906 -22.37515625 20.91710937 -22.5 21.625 C-24.15 21.625 -25.8 21.625 -27.5 21.625 C-28.00490446 14.78073949 -27.74989161 9.25253231 -23.5 3.625 C-16.54404108 -1.91137547 -8.35396725 -3.28191571 0 0 Z " fill="#150E0F" transform="translate(154.5,176.375)"/>
<path d="M0 0 C3.82414212 2.70488101 6.07909586 5.36228759 7.5625 9.8125 C7.631491 11.87395107 7.64717727 13.93751401 7.625 16 C7.61597656 17.08667969 7.60695312 18.17335937 7.59765625 19.29296875 C7.58605469 20.12441406 7.57445312 20.95585937 7.5625 21.8125 C5.625 22.375 5.625 22.375 3.5625 22.8125 C1.57480506 20.82480506 2.1285126 17.05059632 1.94140625 14.35546875 C1.55080735 11.73402663 0.97773542 10.04271581 -0.4375 7.8125 C-4.81052187 4.96495088 -8.25825909 4.07260844 -13.4375 4.8125 C-17.10356182 6.92656768 -20.15131511 9.72009354 -21.4375 13.8125 C-21.87432364 16.47969376 -22.16822051 19.11970509 -22.4375 21.8125 C-24.0875 21.8125 -25.7375 21.8125 -27.4375 21.8125 C-27.78104682 15.48869376 -27.83027054 10.39415476 -24.4375 4.8125 C-17.44792385 -1.54917096 -8.99243015 -3.10647587 0 0 Z " fill="#140D0E" transform="translate(220.4375,176.1875)"/>
<path d="M0 0 C0.66 0 1.32 0 2 0 C2.06058594 1.27875 2.12117187 2.5575 2.18359375 3.875 C2.26807216 5.5833411 2.35271641 7.29167401 2.4375 9 C2.47681641 9.83917969 2.51613281 10.67835938 2.55664062 11.54296875 C2.35584595 20.35377713 2.35584595 20.35377713 5 28 C5.0501123 27.2886792 5.10022461 26.5773584 5.15185547 25.84448242 C5.3838082 22.62475764 5.62924177 19.4061992 5.875 16.1875 C5.99294922 14.50817383 5.99294922 14.50817383 6.11328125 12.79492188 C6.19707031 11.72177734 6.28085938 10.64863281 6.3671875 9.54296875 C6.44050293 8.55321045 6.51381836 7.56345215 6.58935547 6.54370117 C7 4 7 4 9 1 C9.37739565 14.08304907 8.21618838 26.98257939 7 40 C7.66 40 8.32 40 9 40 C8.38487182 45.00890086 7.7282448 50.00632136 7 55 C4.525 55.495 4.525 55.495 2 56 C0.84986807 53.69973614 0.70767601 51.98752064 0.46484375 49.4296875 C0.33432617 48.08583984 0.33432617 48.08583984 0.20117188 46.71484375 C0.11416016 45.77769531 0.02714844 44.84054687 -0.0625 43.875 C-0.15337891 42.93011719 -0.24425781 41.98523438 -0.33789062 41.01171875 C-0.56214099 38.67479389 -0.78269057 36.33757884 -1 34 C-0.34 34 0.32 34 1 34 C0.9278125 32.71867187 0.855625 31.43734375 0.78125 30.1171875 C0.23494032 20.06353126 -0.15006758 10.0712022 0 0 Z " fill="#2B2323" transform="translate(245,295)"/>
<path d="M0 0 C12.87 0 25.74 0 39 0 C39.495 2.475 39.495 2.475 40 5 C27.70294348 9.09901884 12.65649851 7.03469185 0 6 C-1.125 2.25 -1.125 2.25 0 0 Z " fill="#A49F9C" transform="translate(113,118)"/>
<path d="M0 0 C0.5 2.6875 0.5 2.6875 0 6 C-2.97008519 9.21967218 -6.38106156 10.79382549 -10.69921875 11.34375 C-15.00669741 11.39181113 -19.07982972 11.01074762 -23.3125 10.25 C-27.91428241 9.93801475 -29.45422551 11.19636435 -33 14 C-37.52741172 15.50913724 -42.06426798 15.77429281 -46.5 14 C-46.995 13.67 -47.49 13.34 -48 13 C-47.67 12.01 -47.34 11.02 -47 10 C-45.700625 10.103125 -44.40125 10.20625 -43.0625 10.3125 C-39.10405502 10.34342535 -36.8927359 9.61113168 -33.5625 7.5 C-28.78624219 4.51799777 -24.52874035 4.2321194 -19 5 C-18.67 5.33 -18.34 5.66 -18 6 C-12.59965491 6.66320027 -9.96894236 6.37509233 -5.625 3 C-4.65433594 2.1646875 -4.65433594 2.1646875 -3.6640625 1.3125 C-2 0 -2 0 0 0 Z " fill="#9B9896" transform="translate(264,144)"/>
<path d="M0 0 C0.66 0 1.32 0 2 0 C2 1.98 2 3.96 2 6 C2.99 6 3.98 6 5 6 C5 4.35 5 2.7 5 1 C5.99 1.33 6.98 1.66 8 2 C7.43932044 11.13641847 5.78859881 19.98295981 4 28.9375 C3.72347325 30.34691012 3.44742867 31.75641493 3.171875 33.16601562 C1.01925376 44.12070577 1.01925376 44.12070577 0 48 C-0.66 48 -1.32 48 -2 48 C-2.33 48.66 -2.66 49.32 -3 50 C-2.85582642 48.03994019 -2.85582642 48.03994019 -2.70874023 46.0402832 C-2.35346731 41.18594182 -2.00706903 36.33100069 -1.66333008 31.47583008 C-1.51340334 29.37572123 -1.36107968 27.27578206 -1.20629883 25.17602539 C-0.98406672 22.1555266 -0.77049956 19.13451988 -0.55859375 16.11328125 C-0.48781113 15.17664139 -0.4170285 14.24000153 -0.34410095 13.27497864 C-0.04842916 8.9457623 0.04076887 5.25289894 -1 1 C-0.67 0.67 -0.34 0.34 0 0 Z " fill="#1D1617" transform="translate(254,287)"/>
<path d="M0 0 C3.5 0.9375 3.5 0.9375 5.4375 2.9375 C6.87536295 6.99734832 6.75068755 10.67581163 6.5 14.9375 C7.04140625 14.77378906 7.5828125 14.61007812 8.140625 14.44140625 C10.90222593 13.85159413 13.42818139 13.84140692 16.25 13.875 C17.23484375 13.88402344 18.2196875 13.89304687 19.234375 13.90234375 C20.35585938 13.91974609 20.35585938 13.91974609 21.5 13.9375 C21.5 14.2675 21.5 14.5975 21.5 14.9375 C18.53 14.9375 15.56 14.9375 12.5 14.9375 C11.57461831 18.63902678 11.41825838 19.57208162 12.5 22.9375 C11.51 22.9375 10.52 22.9375 9.5 22.9375 C9.5 20.9575 9.5 18.9775 9.5 16.9375 C8.84 17.2675 8.18 17.5975 7.5 17.9375 C6.84786708 19.96213255 6.84786708 19.96213255 6.5 21.9375 C4.52 21.9375 2.54 21.9375 0.5 21.9375 C0.83 16.9875 1.16 12.0375 1.5 6.9375 C-0.15 6.9375 -1.8 6.9375 -3.5 6.9375 C-3.5 7.5975 -3.5 8.2575 -3.5 8.9375 C-5.15 8.9375 -6.8 8.9375 -8.5 8.9375 C-8.83 8.2775 -9.16 7.6175 -9.5 6.9375 C-7.1882641 2.3140282 -5.46195171 -0.09753485 0 0 Z " fill="#E8B417" transform="translate(246.5,270.0625)"/>
<path d="M0 0 C2.375 0.25 2.375 0.25 5 1 C6.3125 3.0625 6.3125 3.0625 7 5 C8.65 5 10.3 5 12 5 C12.66 3.68 13.32 2.36 14 1 C15.98 1 17.96 1 20 1 C19.63693271 8.38236828 19.63693271 8.38236828 16.9375 11 C12.40079956 12.54440866 8.27687235 12.71901232 3.625 11.25 C1.53245854 9.64035272 0.83721463 8.51164389 0 6 C-0.125 2.75 -0.125 2.75 0 0 Z " fill="#897F74" transform="translate(166,231)"/>
<path d="M0 0 C4.8 2.46153846 4.8 2.46153846 5.8125 5.1875 C5.874375 5.785625 5.93625 6.38375 6 7 C6.66 7 7.32 7 8 7 C9.5912689 11.873261 10.21192221 15.80790596 10 21 C8.68 21.33 7.36 21.66 6 22 C5.67 23.32 5.34 24.64 5 26 C4.34 25.67 3.68 25.34 3 25 C3.03480469 24.20335937 3.06960937 23.40671875 3.10546875 22.5859375 C3.41375384 14.33729554 3.41375384 14.33729554 0 7 C-1.92022703 5.22590192 -1.92022703 5.22590192 -4 4 C-4.99 3.34 -5.98 2.68 -7 2 C-4.69 2.33 -2.38 2.66 0 3 C0 2.01 0 1.02 0 0 Z " fill="#E5D7C1" transform="translate(224,173)"/>
<path d="M0 0 C0 1.32 0 2.64 0 4 C-0.75023438 4.01417969 -1.50046875 4.02835937 -2.2734375 4.04296875 C-9.65527611 4.38695871 -15.90932571 5.58202662 -22 10 C-22.33 10.99 -22.66 11.98 -23 13 C-26.37462715 12.45276317 -28.08235 11.9451 -31 10 C-29.51125289 6.28194954 -29.51125289 6.28194954 -27.29296875 5.05859375 C-24.86709489 4.34298347 -22.44680352 3.64189768 -20 3 C-18.93136719 2.71898438 -17.86273438 2.43796875 -16.76171875 2.1484375 C-11.07384682 0.74451063 -5.86301498 -0.40904756 0 0 Z " fill="#A79B8B" transform="translate(112,113)"/>
<path d="M0 0 C3.26023324 0.22484367 4.93132641 0.5260489 7.625 2.25 C7.625 3.9 7.625 5.55 7.625 7.25 C6.57441406 7.20359375 5.52382812 7.1571875 4.44140625 7.109375 C-6.37728101 6.77431143 -14.01073581 7.69518074 -22.375 15.25 C-22.705 14.26 -23.035 13.27 -23.375 12.25 C-21.89 11.3528125 -21.89 11.3528125 -20.375 10.4375 C-19.385 9.715625 -18.395 8.99375 -17.375 8.25 C-17.375 7.26 -17.375 6.27 -17.375 5.25 C-16.53195313 5.05664062 -15.68890625 4.86328125 -14.8203125 4.6640625 C-13.72460938 4.40367187 -12.62890625 4.14328125 -11.5 3.875 C-10.40945312 3.61976563 -9.31890625 3.36453125 -8.1953125 3.1015625 C-4.52755801 1.99412416 -3.96976974 0.29405702 0 0 Z " fill="#E6D4BD" transform="translate(212.375,155.75)"/>
<path d="M0 0 C1.62463842 -0.05395478 3.24978541 -0.09277195 4.875 -0.125 C6.23238281 -0.15980469 6.23238281 -0.15980469 7.6171875 -0.1953125 C10 0 10 0 12 2 C10.02 2.33 8.04 2.66 6 3 C6 3.99 6 4.98 6 6 C6.66 6 7.32 6 8 6 C8 6.66 8 7.32 8 8 C9.98 8 11.96 8 14 8 C14 8.33 14 8.66 14 9 C6.64206267 9.91160286 -0.58982977 10.11459026 -8 10 C-8 7 -8 7 -7 5 C-6.01 4.690625 -5.02 4.38125 -4 4.0625 C-2.515 3.5365625 -2.515 3.5365625 -1 3 C-0.67 2.01 -0.34 1.02 0 0 Z " fill="#E3D0BF" transform="translate(201,294)"/>
<path d="M0 0 C11.88 1.32 23.76 2.64 36 4 C36 4.33 36 4.66 36 5 C32.37 5 28.74 5 25 5 C25 5.66 25 6.32 25 7 C27.31 7 29.62 7 32 7 C32 7.33 32 7.66 32 8 C24.96134921 8.20462296 18.31624295 7.64144884 11.375 6.5 C10.46621094 6.35691406 9.55742188 6.21382813 8.62109375 6.06640625 C6.41288117 5.71774111 4.20602357 5.36221173 2 5 C2.33 4.01 2.66 3.02 3 2 C2.01 2 1.02 2 0 2 C0 1.34 0 0.68 0 0 Z " fill="#D2C1B1" transform="translate(100,284)"/>
<path d="M0 0 C2.10478604 0.11409682 4.20884577 0.24165361 6.3125 0.375 C7.48425781 0.44460937 8.65601563 0.51421875 9.86328125 0.5859375 C13 1 13 1 16 3 C16 4.32 16 5.64 16 7 C12.37435813 6.89045592 8.74978569 6.7597504 5.125 6.625 C4.09246094 6.5940625 3.05992187 6.563125 1.99609375 6.53125 C1.00996094 6.49257812 0.02382812 6.45390625 -0.9921875 6.4140625 C-1.90339355 6.3826416 -2.81459961 6.3512207 -3.75341797 6.31884766 C-6 6 -6 6 -8 4 C-6.865625 3.71125 -5.73125 3.4225 -4.5625 3.125 C-3.386875 2.75375 -2.21125 2.3825 -1 2 C-0.67 1.34 -0.34 0.68 0 0 Z " fill="#E5DBCC" transform="translate(208,169)"/>
<path d="M0 0 C0.66 0 1.32 0 2 0 C3.66666667 1.66666667 5.33333333 3.33333333 7 5 C8.63377642 6.05287814 10.29181597 7.0727001 12 8 C11.34 9.32 10.68 10.64 10 12 C4.29060212 12.45675183 1.44872541 11.62105556 -3 8 C-3.66 7.01 -4.32 6.02 -5 5 C-4.01 5 -3.02 5 -2 5 C-1.34 3.35 -0.68 1.7 0 0 Z " fill="#E1D0BB" transform="translate(185,207)"/>
<path d="M0 0 C0.66 0 1.32 0 2 0 C1.38487182 5.00890086 0.7282448 10.00632136 0 15 C-1.65 15.33 -3.3 15.66 -5 16 C-6.41634833 13.16730334 -6.3463005 10.52533562 -6.5625 7.375 C-6.64628906 6.18648438 -6.73007813 4.99796875 -6.81640625 3.7734375 C-6.87699219 2.85820312 -6.93757812 1.94296875 -7 1 C-4.69 1.33 -2.38 1.66 0 2 C0 1.34 0 0.68 0 0 Z " fill="#594C47" transform="translate(252,335)"/>
<path d="M0 0 C0.48984375 0.31710937 0.9796875 0.63421875 1.484375 0.9609375 C5.001677 2.41373615 8.49665393 2.46584752 12.25 2.625 C12.99507812 2.66367187 13.74015625 2.70234375 14.5078125 2.7421875 C16.3381524 2.83605108 18.16904143 2.91909718 20 3 C20 3.33 20 3.66 20 4 C-3.78877436 6.59415759 -3.78877436 6.59415759 -14 5 C-13.67 4.34 -13.34 3.68 -13 3 C-10.05859375 2.5859375 -10.05859375 2.5859375 -6.4375 2.375 C-5.23996094 2.30023438 -4.04242188 2.22546875 -2.80859375 2.1484375 C-1.88175781 2.09945313 -0.95492187 2.05046875 0 2 C0 1.34 0 0.68 0 0 Z " fill="#A99E90" transform="translate(217,287)"/>
<path d="M0 0 C0.33 0.99 0.66 1.98 1 3 C1.85754883 2.9592334 2.71509766 2.9184668 3.59863281 2.87646484 C6.78891551 2.72995904 9.97942667 2.59316576 13.17041016 2.46289062 C14.54981121 2.40459239 15.92905576 2.34245688 17.30810547 2.27636719 C19.29348773 2.18189334 21.2795687 2.10248452 23.265625 2.0234375 C25.05661621 1.94488525 25.05661621 1.94488525 26.88378906 1.86474609 C30 2 30 2 34 4 C16.18 4.33 -1.64 4.66 -20 5 C-20 4.67 -20 4.34 -20 4 C-18.97519531 3.87882813 -17.95039063 3.75765625 -16.89453125 3.6328125 C-15.53381021 3.46389541 -14.1731355 3.2946048 -12.8125 3.125 C-12.13896484 3.04636719 -11.46542969 2.96773437 -10.77148438 2.88671875 C-6.89672516 2.39528587 -3.54915277 1.64019099 0 0 Z " fill="#BE5E2B" transform="translate(161,128)"/>
<path d="M0 0 C0.66 0 1.32 0 2 0 C3.85776765 3.13498292 4.20140476 5.37471432 4 9 C5.65 9.33 7.3 9.66 9 10 C9 12.64 9 15.28 9 18 C7.35 18.33 5.7 18.66 4 19 C3.731875 19.928125 3.46375 20.85625 3.1875 21.8125 C2.05519579 24.85184289 1.30099489 25.90073617 -1 28 C-0.22104313 24.56752339 0.62122181 21.24418397 2 18 C4.625 16.625 4.625 16.625 7 16 C7.88693303 13.95894361 7.88693303 13.95894361 8 12 C7.195625 12.020625 6.39125 12.04125 5.5625 12.0625 C3 12 3 12 2 11 C1.60545777 9.15400312 1.25823134 7.29774178 0.9375 5.4375 C0.76089844 4.42558594 0.58429688 3.41367188 0.40234375 2.37109375 C0.26957031 1.58863281 0.13679687 0.80617187 0 0 Z " fill="#E5C381" transform="translate(237,178)"/>
<path d="M0 0 C3.5 0.9375 3.5 0.9375 5.4375 2.9375 C6.87536295 6.99734832 6.75068755 10.67581163 6.5 14.9375 C6.17 14.9375 5.84 14.9375 5.5 14.9375 C4.84 11.3075 4.18 7.6775 3.5 3.9375 C-1.22324645 2.39984223 -1.22324645 2.39984223 -3.8125 4.375 C-4.369375 4.890625 -4.92625 5.40625 -5.5 5.9375 C-4.84 6.2675 -4.18 6.5975 -3.5 6.9375 C-3.5 7.5975 -3.5 8.2575 -3.5 8.9375 C-5.15 8.9375 -6.8 8.9375 -8.5 8.9375 C-8.83 8.2775 -9.16 7.6175 -9.5 6.9375 C-7.1882641 2.3140282 -5.46195171 -0.09753485 0 0 Z " fill="#E1AF39" transform="translate(246.5,270.0625)"/>
<path d="M0 0 C6.80718045 -0.15344054 13.26721343 0.39568559 20 1.375 C20.95261719 1.50132813 21.90523437 1.62765625 22.88671875 1.7578125 C23.79035156 1.88671875 24.69398438 2.015625 25.625 2.1484375 C26.44226563 2.26364746 27.25953125 2.37885742 28.1015625 2.49755859 C29.04128906 2.74626709 29.04128906 2.74626709 30 3 C30.33 3.66 30.66 4.32 31 5 C27.7 5.33 24.4 5.66 21 6 C21 5.34 21 4.68 21 4 C20.07058594 3.95101562 19.14117187 3.90203125 18.18359375 3.8515625 C5.90509666 3.10896309 5.90509666 3.10896309 0 1 C0 0.67 0 0.34 0 0 Z " fill="#D75B1B" transform="translate(210,124)"/>
<path d="M0 0 C1.98 0 3.96 0 6 0 C5.67 1.98 5.34 3.96 5 6 C3.68 6.33 2.36 6.66 1 7 C1 7.66 1 8.32 1 9 C-0.98 9 -2.96 9 -5 9 C-5.33 8.01 -5.66 7.02 -6 6 C-4.68 6 -3.36 6 -2 6 C-1.34 4.02 -0.68 2.04 0 0 Z " fill="#867B70" transform="translate(180,232)"/>
<path d="M0 0 C0.66 0.66 1.32 1.32 2 2 C-1.3 1.67 -4.6 1.34 -8 1 C-8.33 1.99 -8.66 2.98 -9 4 C-10.175625 4 -11.35125 4 -12.5625 4 C-16.66748647 4.46098779 -18.33199935 5.9689287 -21 9.0625 C-22.02074242 10.35893402 -23.02804462 11.66659871 -24 13 C-24.66 12.67 -25.32 12.34 -26 12 C-19.24642034 3.05313563 -11.58446598 -1.88329693 0 0 Z " fill="#EFD8AB" transform="translate(216,168)"/>
<path d="M0 0 C1.32 0.33 2.64 0.66 4 1 C2.40909091 10.77272727 2.40909091 10.77272727 1 15 C0.13353333 13.56988027 -0.71781829 12.13059381 -1.5625 10.6875 C-2.03816406 9.88699219 -2.51382813 9.08648437 -3.00390625 8.26171875 C-4 6 -4 6 -3 3 C-2.34 3.33 -1.68 3.66 -1 4 C-0.67 2.68 -0.34 1.36 0 0 Z " fill="#8E857D" transform="translate(70,175)"/>
<path d="M0 0 C0.33 1.32 0.66 2.64 1 4 C6.28 4.33 11.56 4.66 17 5 C17 5.33 17 5.66 17 6 C15.083412 6.02712153 13.1667127 6.04645097 11.25 6.0625 C9.64898437 6.07990234 9.64898437 6.07990234 8.015625 6.09765625 C5 6 5 6 1 5 C1 7.97 1 10.94 1 14 C0.67 14 0.34 14 0 14 C0 12.35 0 10.7 0 9 C-1.32 8.67 -2.64 8.34 -4 8 C-3.67 6.68 -3.34 5.36 -3 4 C-2.01 4 -1.02 4 0 4 C0 2.68 0 1.36 0 0 Z " fill="#796559" transform="translate(112,113)"/>
<path d="M0 0 C4.29 0 8.58 0 13 0 C13 0.66 13 1.32 13 2 C12.01 2 11.02 2 10 2 C10 3.98 10 5.96 10 8 C9.34 8 8.68 8 8 8 C7.67 6.35 7.34 4.7 7 3 C4.36 3 1.72 3 -1 3 C-0.67 2.01 -0.34 1.02 0 0 Z " fill="#A59A8D" transform="translate(233,285)"/>
<path d="M0 0 C2 3 2 3 2 7 C2.99 7 3.98 7 5 7 C5 6.34 5 5.68 5 5 C5.99 4.67 6.98 4.34 8 4 C8 4.99 8 5.98 8 7 C8.66 7.33 9.32 7.66 10 8 C10 8.66 10 9.32 10 10 C4.25 10.125 4.25 10.125 2 9 C1.67 10.32 1.34 11.64 1 13 C0.67 12.34 0.34 11.68 0 11 C-2.01669827 9.86649466 -2.01669827 9.86649466 -4 9 C-2.35 9 -0.7 9 1 9 C0.67 6.03 0.34 3.06 0 0 Z " fill="#998A73" transform="translate(152,108)"/>
<path d="M0 0 C0.99 0.66 1.98 1.32 3 2 C0.01745874 3.98836084 -1.13808808 4.34336635 -4.5625 4.6875 C-5.34753906 4.77386719 -6.13257813 4.86023438 -6.94140625 4.94921875 C-9 5 -9 5 -11 4 C-10.67 3.01 -10.34 2.02 -10 1 C-6.87293041 -0.5635348 -3.42017557 -0.39958487 0 0 Z " fill="#ADA7A4" transform="translate(216,152)"/>
<path d="M0 0 C6.12446048 -0.10302831 12.05883938 -0.02432723 18.125 0.87890625 C20.22886938 1.13299469 20.22886938 1.13299469 23 0 C23.99 0.66 24.98 1.32 26 2 C26 2.66 26 3.32 26 4 C23.5032272 4.92473067 22.39350248 5.17032197 19.90625 4.09375 C16.0421957 2.63953602 12.27595171 2.29309816 8.1875 1.875 C7.39923828 1.78863281 6.61097656 1.70226562 5.79882812 1.61328125 C3.86656916 1.40248936 1.93336737 1.20037104 0 1 C0 0.67 0 0.34 0 0 Z " fill="#986C53" transform="translate(219,124)"/>
<path d="M0 0 C10.56 0 21.12 0 32 0 C32 0.33 32 0.66 32 1 C22.39165074 2.8123533 12.65661027 2.22070017 3 1 C3 1.66 3 2.32 3 3 C2.34 3 1.68 3 1 3 C0.67 4.65 0.34 6.3 0 8 C-1.08174162 4.63458162 -0.92538169 3.70152678 0 0 Z " fill="#2C2321" transform="translate(113,124)"/>
<path d="M0 0 C1.46373047 0.02707031 1.46373047 0.02707031 2.95703125 0.0546875 C3.69308594 0.07789063 4.42914063 0.10109375 5.1875 0.125 C5.1875 0.455 5.1875 0.785 5.1875 1.125 C2.2175 1.125 -0.7525 1.125 -3.8125 1.125 C-4.73788169 4.82652678 -4.89424162 5.75958162 -3.8125 9.125 C-4.8025 9.125 -5.7925 9.125 -6.8125 9.125 C-6.8125 7.145 -6.8125 5.165 -6.8125 3.125 C-9.32333114 4.38041557 -9.68375446 5.62563488 -10.8125 8.125 C-10.8125 6.145 -10.8125 4.165 -10.8125 2.125 C-7.04027911 0.37336544 -4.145861 -0.09990027 0 0 Z " fill="#D0C4B3" transform="translate(262.8125,283.875)"/>
<path d="M0 0 C1.32 0.33 2.64 0.66 4 1 C4.33 3.64 4.66 6.28 5 9 C2.69 9 0.38 9 -2 9 C-1.51421457 5.87709365 -1.0013988 3.00419641 0 0 Z " fill="#CCBBAD" transform="translate(234,291)"/>
<path d="M0 0 C2.125 0.9375 2.125 0.9375 4 2 C2.2421875 2.94401042 0.484375 3.88802083 -1.2734375 4.83203125 C-3.30502365 6.04763493 -3.30502365 6.04763493 -5 9 C-5.16713569 11.62531524 -5.16713569 11.62531524 -5 14 C-5.66 14 -6.32 14 -7 14 C-7.33 14.99 -7.66 15.98 -8 17 C-7.78955338 7.31945539 -7.78955338 7.31945539 -4.5625 3.4375 C-2 1 -2 1 0 0 Z " fill="#D1C4B9" transform="translate(140,181)"/>
<path d="M0 0 C0.66 0.33 1.32 0.66 2 1 C-0.11537716 6.35065987 -2.86615811 9.49806439 -8 12 C-11.4375 12.3125 -11.4375 12.3125 -14 12 C-12.68 11.67 -11.36 11.34 -10 11 C-10 10.34 -10 9.68 -10 9 C-9.278125 8.814375 -8.55625 8.62875 -7.8125 8.4375 C-3.95649225 6.46665159 -2.26330124 3.60201985 0 0 Z " fill="#E6C174" transform="translate(234,206)"/>
<path d="M0 0 C0 1.32 0 2.64 0 4 C-6.93 3.505 -6.93 3.505 -14 3 C-10.17190555 -0.82809445 -5.1539534 -0.10105791 0 0 Z " fill="#AEA292" transform="translate(112,113)"/>
<path d="M0 0 C1.98 0 3.96 0 6 0 C6 1.98 6 3.96 6 6 C4.35 6.33 2.7 6.66 1 7 C0.67 4.69 0.34 2.38 0 0 Z " fill="#E8C470" transform="translate(246,344)"/>
<path d="M0 0 C1.65 0 3.3 0 5 0 C4.01 0.495 4.01 0.495 3 1 C3.33 1.66 3.66 2.32 4 3 C4.33 3.66 4.66 4.32 5 5 C3.20991533 5.22151549 1.41781838 5.42682213 -0.375 5.625 C-1.37273437 5.74101562 -2.37046875 5.85703125 -3.3984375 5.9765625 C-4.25695312 5.98429688 -5.11546875 5.99203125 -6 6 C-6.66 5.34 -7.32 4.68 -8 4 C-6.865625 3.71125 -5.73125 3.4225 -4.5625 3.125 C-3.386875 2.75375 -2.21125 2.3825 -1 2 C-0.67 1.34 -0.34 0.68 0 0 Z " fill="#F0E8DD" transform="translate(208,169)"/>
<path d="M0 0 C0 1.98 0 3.96 0 6 C-1.98 6.99 -3.96 7.98 -6 9 C-6.66 7.68 -7.32 6.36 -8 5 C-2.25 0 -2.25 0 0 0 Z " fill="#9E9A98" transform="translate(264,144)"/>
<path d="M0 0 C0.33 0 0.66 0 1 0 C1.09038099 5.15171623 0.84681133 9.91913204 0 15 C-0.99 14.67 -1.98 14.34 -3 14 C-3.33 11.69 -3.66 9.38 -4 7 C-3.34 7 -2.68 7 -2 7 C-1.34 4.69 -0.68 2.38 0 0 Z " fill="#241C1C" transform="translate(248,322)"/>
<path d="M0 0 C0.66 0 1.32 0 2 0 C2.96070434 2.88211302 3.10581883 4.69850044 3.0625 7.6875 C3.05347656 8.49574219 3.04445312 9.30398437 3.03515625 10.13671875 C3.02355469 10.75160156 3.01195312 11.36648437 3 12 C1.68 11.34 0.36 10.68 -1 10 C-1.125 3.375 -1.125 3.375 0 0 Z " fill="#F1E1C1" transform="translate(189,184)"/>
<path d="M0 0 C0.33 0 0.66 0 1 0 C1 3.96 1 7.92 1 12 C-0.32 12.33 -1.64 12.66 -3 13 C-4 12 -4 12 -4.09765625 10.15234375 C-4.06510417 8.1015625 -4.03255208 6.05078125 -4 4 C-3.67 5.32 -3.34 6.64 -3 8 C-2.34 7.67 -1.68 7.34 -1 7 C-0.59270772 4.67843403 -0.25561323 2.3431213 0 0 Z " fill="#201918" transform="translate(227,186)"/>
<path d="M0 0 C6.27 0 12.54 0 19 0 C19 0.33 19 0.66 19 1 C17.75283203 1.09087891 17.75283203 1.09087891 16.48046875 1.18359375 C14.85044922 1.30927734 14.85044922 1.30927734 13.1875 1.4375 C12.10855469 1.51871094 11.02960938 1.59992188 9.91796875 1.68359375 C6.94010095 1.90212461 6.94010095 1.90212461 4 3 C4 3.66 4 4.32 4 5 C3.01 5 2.02 5 1 5 C0.67 3.35 0.34 1.7 0 0 Z " fill="#A8A099" transform="translate(153,110)"/>
<path d="M0 0 C0.66 0 1.32 0 2 0 C2 1.32 2 2.64 2 4 C-4.34241995 5.15316726 -10.56688704 5.09507063 -17 5 C-17 4.67 -17 4.34 -17 4 C-14.69 4 -12.38 4 -10 4 C-10 3.34 -10 2.68 -10 2 C-6.66666667 2 -3.33333333 2 0 2 C0 1.34 0 0.68 0 0 Z " fill="#D6C4B5" transform="translate(215,285)"/>
<path d="M0 0 C1.06671952 3.20015856 0.94845472 4.88544294 0.5625 8.1875 C0.46066406 9.08855469 0.35882813 9.98960937 0.25390625 10.91796875 C0.12822266 11.94857422 0.12822266 11.94857422 0 13 C1.32 13.33 2.64 13.66 4 14 C2.35 14 0.7 14 -1 14 C-1.33 14.99 -1.66 15.98 -2 17 C-4.125 12.375 -4.125 12.375 -3 9 C-2.67 9.33 -2.34 9.66 -2 10 C-2 7.03 -2 4.06 -2 1 C-1.34 0.67 -0.68 0.34 0 0 Z " fill="#D3C7B7" transform="translate(193,185)"/>
<path d="M0 0 C2.64 0 5.28 0 8 0 C7.67 2.31 7.34 4.62 7 7 C5.68 7 4.36 7 3 7 C0 2.92857143 0 2.92857143 0 0 Z " fill="#E6DED4" transform="translate(150,103)"/>
<path d="M0 0 C5.71695055 -0.59551568 8.69983599 0.59837554 13.49609375 3.7109375 C13.99238281 4.13632812 14.48867188 4.56171875 15 5 C15 5.66 15 6.32 15 7 C13.02 7 11.04 7 9 7 C8.814375 6.38125 8.62875 5.7625 8.4375 5.125 C6.28562767 1.94397134 3.62466237 1.80548053 0 1 C0 0.67 0 0.34 0 0 Z " fill="#D0BA97" transform="translate(243,269)"/>
<path d="M0 0 C0 1.98 0 3.96 0 6 C-1.65 6.33 -3.3 6.66 -5 7 C-5.33 5.68 -5.66 4.36 -6 3 C-2.25 0 -2.25 0 0 0 Z " fill="#BA6235" transform="translate(95,120)"/>
<path d="M0 0 C1.65 0.33 3.3 0.66 5 1 C4.67 1.99 4.34 2.98 4 4 C4.99 4.33 5.98 4.66 7 5 C7 5.33 7 5.66 7 6 C3.04 5.67 -0.92 5.34 -5 5 C-3.68 4.34 -2.36 3.68 -1 3 C-0.67 2.01 -0.34 1.02 0 0 Z " fill="#E3D1BF" transform="translate(215,147)"/>
<path d="M0 0 C0.99 0.66 1.98 1.32 3 2 C1.02 4.97 -0.96 7.94 -3 11 C-3.66 10.01 -4.32 9.02 -5 8 C-4.3125 5.375 -4.3125 5.375 -3 3 C-2.01 2.67 -1.02 2.34 0 2 C0 1.34 0 0.68 0 0 Z " fill="#DFCEBF" transform="translate(278,259)"/>
<path d="M0 0 C0.33 0.66 0.66 1.32 1 2 C-3.48074195 5.36055646 -6.60550707 5.27429625 -12 5 C-11.34 3.68 -10.68 2.36 -10 1 C-7.69 1.66 -5.38 2.32 -3 3 C-3 2.34 -3 1.68 -3 1 C-2.01 0.67 -1.02 0.34 0 0 Z " fill="#96887C" transform="translate(184,238)"/>
<path d="M0 0 C0.99 0.33 1.98 0.66 3 1 C2.5206753 5.31392226 1.2542015 7.16569547 -2 10 C-2.6875 8.375 -2.6875 8.375 -3 6 C-1.5625 2.75 -1.5625 2.75 0 0 Z " fill="#EFE0C8" transform="translate(230,194)"/>
<path d="M0 0 C0.98484375 0.00902344 1.9696875 0.01804688 2.984375 0.02734375 C4.10585937 0.04474609 4.10585937 0.04474609 5.25 0.0625 C0.22583178 3.41194548 -3.84951257 3.16084146 -9.75 3.0625 C-9.75 2.4025 -9.75 1.7425 -9.75 1.0625 C-6.43929162 0.06140485 -3.44915231 -0.04106134 0 0 Z " fill="#F0DEBD" transform="translate(214.75,210.9375)"/>
<path d="M0 0 C1.32 0.66 2.64 1.32 4 2 C-1.32886161 6.44071801 -4.07911053 7.60709557 -11 7 C-11 6.67 -11 6.34 -11 6 C-8.69 6 -6.38 6 -4 6 C-3.71125 5.38125 -3.4225 4.7625 -3.125 4.125 C-2 2 -2 2 0 0 Z " fill="#DED0C4" transform="translate(205,150)"/>
<path d="M0 0 C2.31 0.66 4.62 1.32 7 2 C6 4 6 4 3.625 5.125 C1 6 1 6 -2 6 C-1.34 4.02 -0.68 2.04 0 0 Z " fill="#EBDED0" transform="translate(82,124)"/>
<path d="M0 0 C1.64666203 0.1135629 3.29236082 0.24117381 4.9375 0.375 C5.85402344 0.44460937 6.77054688 0.51421875 7.71484375 0.5859375 C8.84599609 0.79089844 8.84599609 0.79089844 10 1 C10.33 1.66 10.66 2.32 11 3 C7.7 3.33 4.4 3.66 1 4 C0.67 2.68 0.34 1.36 0 0 Z " fill="#CE5D21" transform="translate(230,126)"/>
<path d="M0 0 C-0.33 0.99 -0.66 1.98 -1 3 C-4.63 3 -8.26 3 -12 3 C-11.67 2.34 -11.34 1.68 -11 1 C-7.29882394 0.15882362 -3.78728969 -0.11139087 0 0 Z " fill="#B5AA96" transform="translate(215,289)"/>
<path d="M0 0 C0 0.33 0 0.66 0 1 C-1.98 1 -3.96 1 -6 1 C-6 1.66 -6 2.32 -6 3 C-5.34 3.33 -4.68 3.66 -4 4 C-4.33 4.33 -4.66 4.66 -5 5 C-7.33944736 4.71269945 -9.6739143 4.38063221 -12 4 C-7.99899414 0.12023674 -5.51903037 -0.43286513 0 0 Z " fill="#DAC8B8" transform="translate(216,156)"/>
<path d="M0 0 C2.97 0.33 5.94 0.66 9 1 C7.68 1.33 6.36 1.66 5 2 C5 2.99 5 3.98 5 5 C3.35 4.67 1.7 4.34 0 4 C0 2.68 0 1.36 0 0 Z " fill="#C95C24" transform="translate(154,117)"/>
<path d="M0 0 C4.62 0 9.24 0 14 0 C14 0.33 14 0.66 14 1 C11.03 1 8.06 1 5 1 C5 1.99 5 2.98 5 4 C4.34 4 3.68 4 3 4 C3 3.34 3 2.68 3 2 C2.34 2 1.68 2 1 2 C0.67 2.66 0.34 3.32 0 4 C0 2.68 0 1.36 0 0 Z " fill="#A79C91" transform="translate(199,112)"/>
<path d="M0 0 C-1.96753204 1.54591803 -3.80598484 2.90593204 -6.0625 4 C-8.132649 5.068464 -9.44143253 6.28557579 -11 8 C-11.33 7.01 -11.66 6.02 -12 5 C-4.88610478 -0.74031891 -4.88610478 -0.74031891 0 0 Z " fill="#EED8B0" transform="translate(201,163)"/>
<path d="M0 0 C3.3 0 6.6 0 10 0 C10 1.65 10 3.3 10 5 C9.67 4.01 9.34 3.02 9 2 C8.01 2.33 7.02 2.66 6 3 C3.66700175 3.03954234 1.33291811 3.04401732 -1 3 C-0.67 2.01 -0.34 1.02 0 0 Z " fill="#938678" transform="translate(231,287)"/>
<path d="M0 0 C0.99 0.33 1.98 0.66 3 1 C3.33 3.97 3.66 6.94 4 10 C3.67 10 3.34 10 3 10 C3 8.35 3 6.7 3 5 C1.68 4.67 0.36 4.34 -1 4 C-0.67 2.68 -0.34 1.36 0 0 Z " fill="#945E43" transform="translate(109,117)"/>
<path d="M0 0 C0.66 0 1.32 0 2 0 C2 2.97 2 5.94 2 9 C1.34 9 0.68 9 0 9 C-0.33 9.66 -0.66 10.32 -1 11 C-0.67 7.37 -0.34 3.74 0 0 Z " fill="#0E080A" transform="translate(252,326)"/>
<path d="M0 0 C0.75667969 0.0825 1.51335937 0.165 2.29296875 0.25 C-0.70703125 3.25 -3.70703125 6.25 -6.70703125 9.25 C-7.36703125 8.92 -8.02703125 8.59 -8.70703125 8.25 C-7.83202308 6.90290838 -6.93112192 5.57261014 -6.01953125 4.25 C-5.52066406 3.5075 -5.02179688 2.765 -4.5078125 2 C-2.70703125 0.25 -2.70703125 0.25 0 0 Z " fill="#312927" transform="translate(175.70703125,207.75)"/>
<path d="M0 0 C0.99 1.32 1.98 2.64 3 4 C2.01 4.99 1.02 5.98 0 7 C-0.598125 6.54625 -1.19625 6.0925 -1.8125 5.625 C-3.50590652 4.36704087 -5.24477086 3.17015276 -7 2 C-4.69 2.33 -2.38 2.66 0 3 C0 2.01 0 1.02 0 0 Z " fill="#D2C8BC" transform="translate(224,173)"/>
<path d="M0 0 C0.66 0.33 1.32 0.66 2 1 C3.66392045 1.67349161 5.33032028 2.3409159 7 3 C4.68143083 4.54571278 2.49361571 5.79618552 0 7 C-0.93423645 3.98968256 -1.04449911 3.13349732 0 0 Z " fill="#DAD1C6" transform="translate(199,172)"/>
<path d="M0 0 C0 2.64 0 5.28 0 8 C-0.99 8 -1.98 8 -3 8 C-3 5.69 -3 3.38 -3 1 C-1 0 -1 0 0 0 Z " fill="#362E2E" transform="translate(251,329)"/>
<path d="M0 0 C1.65 0.33 3.3 0.66 5 1 C4.67 1.99 4.34 2.98 4 4 C2.35 4 0.7 4 -1 4 C-0.67 2.68 -0.34 1.36 0 0 Z " fill="#979494" transform="translate(224,155)"/>
<path d="M0 0 C0.99 0 1.98 0 3 0 C3 4 3 4 1.625 5.625 C1.08875 6.07875 0.5525 6.5325 0 7 C-0.66 7.66 -1.32 8.32 -2 9 C-1.51421457 5.87709365 -1.0013988 3.00419641 0 0 Z " fill="#EBE0D6" transform="translate(65,204)"/>
<path d="M0 0 C1.10348268 3.31044803 0.99444068 5.65506316 0 9 C-0.99 9.495 -0.99 9.495 -2 10 C-2.33 10.99 -2.66 11.98 -3 13 C-2.88557539 11.39504433 -2.75805306 9.79101881 -2.625 8.1875 C-2.55539063 7.29417969 -2.48578125 6.40085938 -2.4140625 5.48046875 C-2 3 -2 3 0 0 Z " fill="#C1B5AA" transform="translate(135,185)"/>
<path d="M0 0 C6.0546875 -0.1953125 6.0546875 -0.1953125 8 0 C8.66 0.66 9.32 1.32 10 2 C6.33694766 2.74926071 3.57644848 3.2380014 0 2 C0 1.34 0 0.68 0 0 Z " fill="#DC5A17" transform="translate(186,122)"/>
<path d="M0 0 C-0.66 1.65 -1.32 3.3 -2 5 C-2.33 4.34 -2.66 3.68 -3 3 C-5.64 3 -8.28 3 -11 3 C-7.4536218 1.02978989 -4.07768576 0 0 0 Z " fill="#E7D8C9" transform="translate(271,131)"/>
<path d="M0 0 C2.125 0.9375 2.125 0.9375 4 2 C4 2.66 4 3.32 4 4 C2.68 4.33 1.36 4.66 0 5 C-0.66 3.68 -1.32 2.36 -2 1 C-1.34 0.67 -0.68 0.34 0 0 Z " fill="#8F6E5B" transform="translate(241,124)"/>
<path d="M0 0 C0.33 0 0.66 0 1 0 C1 2.97 1 5.94 1 9 C0.01 8.01 -0.98 7.02 -2 6 C-1.34 4.02 -0.68 2.04 0 0 Z " fill="#F1EADE" transform="translate(191,187)"/>
<path d="M0 0 C1.05609899 3.16829698 1.13055309 3.98519175 0 7 C-1.5625 8.75 -1.5625 8.75 -3 10 C-3.66 9.67 -4.32 9.34 -5 9 C-4.319375 8.1646875 -4.319375 8.1646875 -3.625 7.3125 C-1.96266232 4.94686561 -0.97855457 2.70984342 0 0 Z " fill="#EEE4D8" transform="translate(81,170)"/>
<path d="M0 0 C1.65 0.33 3.3 0.66 5 1 C5 1.66 5 2.32 5 3 C1.25 4.125 1.25 4.125 -1 3 C-0.67 2.01 -0.34 1.02 0 0 Z " fill="#A6A09D" transform="translate(206,153)"/>
<path d="M0 0 C0.33 0.99 0.66 1.98 1 3 C-0.98 3.99 -0.98 3.99 -3 5 C-3.99 4.34 -4.98 3.68 -6 3 C-4.02 2.01 -2.04 1.02 0 0 Z " fill="#958B81" transform="translate(89,126)"/>
</svg>
