<?xml version="1.0" encoding="UTF-8"?>
<svg version="1.1" xmlns="http://www.w3.org/2000/svg" width="360" height="360">
<path d="M0 0 C6.55220219 4.7365317 8.8864985 10.42618983 11.625 17.8125 C12.18848145 17.73161133 12.75196289 17.65072266 13.33251953 17.56738281 C23.07590216 16.41451847 32.73373071 17.05996537 42.5 17.5625 C43.43897125 17.60917816 44.3779425 17.65585632 45.34536743 17.70394897 C96.89795208 20.28204121 96.89795208 20.28204121 116.3125 24.125 C117.23184326 24.30135986 118.15118652 24.47771973 119.09838867 24.65942383 C126.40114147 26.28477133 133.28107418 29.46857418 138.625 34.8125 C139.3125 38 139.3125 38 138.625 41.8125 C136.51466558 43.80828599 134.25000421 45.40125093 131.8828125 47.08203125 C125.56271978 51.92597775 123.66450207 60.24453632 122.625 67.8125 C122.76827961 75.07567388 125.99723252 81.05855847 129.3828125 87.34375 C130.625 89.8125 130.625 89.8125 130.625 91.8125 C132.04425781 91.32910156 132.04425781 91.32910156 133.4921875 90.8359375 C146.59654703 87.11722171 162.10653966 89.06069452 174.12890625 95.0625 C183.43617234 100.60591398 189.65181138 109.50022998 192.625 119.8125 C196.52310632 135.83058056 194.2170022 150.62664156 185.625 164.8125 C179.27937781 174.27987655 171.04677839 181.7564736 160.4375 186.125 C150.98878195 187.82886719 142.5551002 186.92500228 133.40234375 184.17578125 C130.5690884 183.51317897 130.5690884 183.51317897 128.25390625 185.23046875 C127.71636719 185.75253906 127.17882812 186.27460938 126.625 186.8125 C126.97379632 190.06793229 127.64633261 190.83123107 130.1875 193.0625 C130.991875 193.64 131.79625 194.2175 132.625 194.8125 C132.625 197.125 132.625 197.125 131.625 199.8125 C127.09251651 202.54304493 121.80409031 203.27301143 116.625 203.8125 C115.635 206.7825 115.635 206.7825 114.625 209.8125 C116.275 208.8225 117.925 207.8325 119.625 206.8125 C120.56087866 209.80883551 120.64010949 211.74310679 119.86816406 214.77636719 C119.5822641 215.92972565 119.5822641 215.92972565 119.29058838 217.10638428 C119.07610046 217.93237122 118.86161255 218.75835815 118.640625 219.609375 C118.31623444 220.90902191 118.31623444 220.90902191 117.98529053 222.23492432 C117.29067209 225.0130866 116.58371538 227.78790339 115.875 230.5625 C114.95740227 234.18076931 114.04584786 237.80048988 113.140625 241.421875 C112.92063843 242.30097534 112.70065186 243.18007568 112.47399902 244.08581543 C110.53657167 251.94249042 108.99144705 259.83731524 107.625 267.8125 C105.75 268.4375 105.75 268.4375 103.625 268.8125 C100.86468729 266.05218729 101.35936611 264.44920336 101.25 260.5625 C100.84285045 250.69832291 99.38278037 240.96158564 97.99658203 231.19824219 C97.73337158 229.31733887 97.73337158 229.31733887 97.46484375 227.3984375 C97.30363037 226.2748584 97.14241699 225.1512793 96.97631836 223.99365234 C96.63500703 220.90311266 96.56200672 217.91880121 96.625 214.8125 C95.88378906 215.08964844 95.14257812 215.36679687 94.37890625 215.65234375 C79.79103552 220.66971422 64.86547007 219.85176832 49.625 219.8125 C49.62722061 220.39909897 49.62944122 220.98569794 49.63172913 221.59007263 C49.6537821 227.67275384 49.66890664 233.75542377 49.67993164 239.83813477 C49.68497325 242.11092591 49.69180637 244.3837138 49.70043945 246.65649414 C49.71251261 249.91553551 49.71822987 253.17453417 49.72265625 256.43359375 C49.72781754 257.45650009 49.73297882 258.47940643 49.73829651 259.53330994 C49.73837204 260.47420975 49.73844757 261.41510956 49.73852539 262.38452148 C49.740746 263.21725082 49.74296661 264.04998016 49.74525452 264.90794373 C49.625 266.8125 49.625 266.8125 48.625 267.8125 C45.80083618 267.93913091 43.01205207 267.99770548 40.1875 268 C39.39794922 268.01224609 38.60839844 268.02449219 37.79492188 268.03710938 C35.73692565 268.04237279 33.67937991 267.93456285 31.625 267.8125 C30.965 267.1525 30.305 266.4925 29.625 265.8125 C29.955 264.1625 30.285 262.5125 30.625 260.8125 C34.255 260.4825 37.885 260.1525 41.625 259.8125 C41.295 246.6125 40.965 233.4125 40.625 219.8125 C31.35873114 219.62172308 31.35873114 219.62172308 22.625 220.8125 C22.63499275 221.67027542 22.63499275 221.67027542 22.64518738 222.54537964 C22.71141392 228.48218173 22.75674751 234.4188794 22.78979492 240.35595703 C22.80490753 242.57344828 22.82539826 244.79090953 22.85131836 247.00830078 C22.88759293 250.19050489 22.90470139 253.37231482 22.91796875 256.5546875 C22.93345261 257.55055878 22.94893646 258.54643005 22.96488953 259.57247925 C22.96511612 260.49328278 22.96534271 261.4140863 22.96557617 262.36279297 C22.97556892 263.58190872 22.97556892 263.58190872 22.98576355 264.82565308 C22.86671158 265.48131256 22.74765961 266.13697205 22.625 266.8125 C18.81394923 269.35320051 15.93935307 268.96613256 11.5625 268.6875 C10.46325195 268.65269531 10.46325195 268.65269531 9.34179688 268.6171875 C7.21484375 268.4921875 7.21484375 268.4921875 3.625 267.8125 C2.12890625 265.7578125 2.12890625 265.7578125 1.625 263.8125 C3.625 260.8125 3.625 260.8125 5.46484375 260.265625 C6.15707031 260.19859375 6.84929687 260.1315625 7.5625 260.0625 C8.25214844 259.98515625 8.94179687 259.9078125 9.65234375 259.828125 C11.625 259.8125 11.625 259.8125 14.625 260.8125 C14.13 240.0225 14.13 240.0225 13.625 218.8125 C10.325 218.8125 7.025 218.8125 3.625 218.8125 C-33.94283028 216.24466972 -33.94283028 216.24466972 -44.375 205.8125 C-44.28562197 204.28730724 -44.12962854 202.76568071 -43.9375 201.25 C-43.83566406 200.42371094 -43.73382813 199.59742188 -43.62890625 198.74609375 C-43.54511719 198.10800781 -43.46132812 197.46992188 -43.375 196.8125 C-44.35339844 196.26722656 -45.33179688 195.72195313 -46.33984375 195.16015625 C-60.8437701 186.89706644 -72.10821579 176.54651217 -77.52734375 160.21875 C-81.66679789 143.58463016 -83.4354881 126.8947229 -76.375 110.8125 C-75.04869021 108.68681971 -73.69648645 106.68338876 -72.1328125 104.7265625 C-70.91620963 101.65369959 -72.12488954 99.79186988 -73.375 96.8125 C-74.5262189 94.3471799 -75.70272554 91.92213889 -76.9375 89.5 C-77.28176025 88.81574951 -77.62602051 88.13149902 -77.98071289 87.42651367 C-79.89418713 83.64544056 -81.85717802 79.89470266 -83.8671875 76.1640625 C-84.27509521 75.40520752 -84.68300293 74.64635254 -85.10327148 73.86450195 C-85.89334562 72.40127764 -86.689486 70.94130824 -87.49243164 69.48510742 C-91.38102122 62.29878626 -91.38102122 62.29878626 -91.375 58.8125 C-88.57035325 54.88893906 -84.44381028 53.13308413 -80.1875 51.125 C-78.76599832 50.43550526 -77.34545921 49.74402328 -75.92578125 49.05078125 C-75.18666504 48.69064941 -74.44754883 48.33051758 -73.68603516 47.95947266 C-69.70934278 45.98583006 -65.79283599 43.8999363 -61.875 41.8125 C-60.75315308 41.21562378 -60.75315308 41.21562378 -59.60864258 40.60668945 C-57.86325462 39.67686884 -56.11899404 38.74493246 -54.375 37.8125 C-58.09227674 36.67666544 -59.84551709 37.14579974 -63.375 38.8125 C-65.24502294 36.19446788 -66.35805118 34.5074016 -66.4375 31.25 C-64.89346268 27.70779674 -62.6907591 26.73973756 -59.375 24.8125 C-56.77812567 23.94870337 -54.33764519 23.23136752 -51.6875 22.625 C-50.99140625 22.45774414 -50.2953125 22.29048828 -49.578125 22.11816406 C-43.88232101 20.80435292 -38.21947763 20.06014736 -32.375 19.8125 C-32.30023438 19.1834375 -32.22546875 18.554375 -32.1484375 17.90625 C-31.13656398 11.31915182 -29.42772019 6.34324496 -24.375 1.8125 C-16.89112535 -2.75524418 -7.83057528 -4.58233665 0 0 Z M-61.9375 51.7109375 C-62.81664063 52.10796875 -63.69578125 52.505 -64.6015625 52.9140625 C-65.51679687 53.33429688 -66.43203125 53.75453125 -67.375 54.1875 C-68.29023437 54.6 -69.20546875 55.0125 -70.1484375 55.4375 C-73.74255794 57.07119111 -77.08270148 58.61763432 -80.375 60.8125 C-79.78156235 65.4448566 -77.80142384 69.10553853 -75.5625 73.125 C-74.83228789 74.45645843 -74.10311113 75.78848523 -73.375 77.12109375 C-73.02695313 77.75644043 -72.67890625 78.39178711 -72.3203125 79.04638672 C-71.15460177 81.22426674 -70.1031754 83.44760881 -69.0625 85.6875 C-67.68611886 89.08906942 -67.68611886 89.08906942 -64.375 89.8125 C-63.07826398 87.27330994 -61.78752163 84.73135762 -60.5 82.1875 C-60.13519531 81.47464844 -59.77039063 80.76179688 -59.39453125 80.02734375 C-54.62412449 70.57326491 -51.72500746 60.41247014 -54.375 49.8125 C-57.58104048 49.8125 -59.0544563 50.40303987 -61.9375 51.7109375 Z M145.625 102.8125 C145.66625 104.05 145.7075 105.2875 145.75 106.5625 C145.83389207 109.07926209 145.80690801 110.47762388 144.59375 112.7109375 C143.27405144 115.57383197 143.65019583 117.57035616 144 120.6875 C145.28148782 134.59859065 144.18305957 147.98472134 142.625 161.8125 C143.759375 162.121875 144.89375 162.43125 146.0625 162.75 C149.625 163.8125 149.625 163.8125 150.625 164.8125 C150.99260731 167.14067964 151.32741581 169.4743385 151.625 171.8125 C159.14592289 171.49246073 164.45215512 168.13494857 169.61328125 162.73046875 C173.63856086 157.80876713 176.37867582 152.73873214 178.625 146.8125 C179.0375 145.8225 179.45 144.8325 179.875 143.8125 C182.19946876 134.51462497 180.13866162 124.73814749 175.375 116.5 C170.11490905 108.88998676 163.60383673 104.99146456 154.625 102.8125 C151.52900921 102.53551381 148.74023424 102.60822234 145.625 102.8125 Z " fill="#E6D3C1" transform="translate(144.375,82.1875)"/>
<path d="M0 0 C6.55220219 4.7365317 8.8864985 10.42618983 11.625 17.8125 C12.18848145 17.73161133 12.75196289 17.65072266 13.33251953 17.56738281 C23.07590216 16.41451847 32.73373071 17.05996537 42.5 17.5625 C43.43897125 17.60917816 44.3779425 17.65585632 45.34536743 17.70394897 C96.89795208 20.28204121 96.89795208 20.28204121 116.3125 24.125 C117.23184326 24.30135986 118.15118652 24.47771973 119.09838867 24.65942383 C126.40114147 26.28477133 133.28107418 29.46857418 138.625 34.8125 C139.125 38.125 139.125 38.125 138.625 41.8125 C136 44.8125 136 44.8125 132.625 46.8125 C129.25 46.625 129.25 46.625 126.625 45.8125 C127.285 44.8225 127.945 43.8325 128.625 42.8125 C129.615 42.8125 130.605 42.8125 131.625 42.8125 C131.295 39.8425 130.965 36.8725 130.625 33.8125 C129.305 34.4725 127.985 35.1325 126.625 35.8125 C127.615 36.1425 128.605 36.4725 129.625 36.8125 C129.625 37.4725 129.625 38.1325 129.625 38.8125 C124.27404116 40.55702156 119.41980741 41.22445523 113.80859375 41.4296875 C112.88372665 41.46722137 111.95885956 41.50475525 111.00596619 41.54342651 C95.46479371 42.08249014 79.9005219 41.96169541 64.35229492 41.94287109 C59.66008883 41.9372115 54.96793993 41.94053872 50.27573586 41.94630814 C23.69469779 41.97408308 -2.857347 41.85927653 -29.375 39.8125 C-29.643125 40.451875 -29.91125 41.09125 -30.1875 41.75 C-31.375 43.8125 -31.375 43.8125 -34.375 44.8125 C-36.230179 44.75602575 -38.08450812 44.6687994 -39.9375 44.5625 C-46.68926986 44.53023348 -50.63155469 46.51475256 -56.375 49.8125 C-59.10991664 51.21802159 -61.86798666 52.57594991 -64.625 53.9375 C-65.96392564 54.60600233 -67.30248084 55.27524724 -68.640625 55.9453125 C-69.27033203 56.25887695 -69.90003906 56.57244141 -70.54882812 56.89550781 C-72.2848003 57.76720721 -74.00993757 58.66038623 -75.734375 59.5546875 C-78.375 60.8125 -78.375 60.8125 -80.375 60.8125 C-79.08912011 63.58614913 -77.79772082 66.35688641 -76.5 69.125 C-76.10232422 69.97352539 -75.70464844 70.82205078 -75.29492188 71.69628906 C-71.96148854 78.73382523 -68.3700373 85.61052519 -64.56298828 92.40356445 C-62.0940128 96.93364502 -60.53340188 100.61163838 -60.375 105.8125 C-62.375 107.8125 -62.375 107.8125 -65.265625 107.8984375 C-68.375 106.8125 -68.375 106.8125 -70.359375 103.6640625 C-70.96915123 102.26426812 -71.55624257 100.85445672 -72.125 99.4375 C-72.79899313 97.88480476 -73.4775665 96.33409153 -74.16015625 94.78515625 C-74.51480957 93.97191895 -74.86946289 93.15868164 -75.23486328 92.32080078 C-77.16367539 88.07741414 -79.36432626 83.9834914 -81.5625 79.875 C-81.98660156 79.07191406 -82.41070312 78.26882812 -82.84765625 77.44140625 C-84.59686236 74.13001607 -86.36255899 70.83473329 -88.19140625 67.56640625 C-88.90103516 66.26509766 -88.90103516 66.26509766 -89.625 64.9375 C-90.22054687 63.88949219 -90.22054687 63.88949219 -90.828125 62.8203125 C-91.375 60.8125 -91.375 60.8125 -90.91796875 58.28515625 C-88.78918911 54.87371952 -85.98708514 53.71243443 -82.4375 52.125 C-81.00016763 51.44640814 -79.56402188 50.76529869 -78.12890625 50.08203125 C-77.36465332 49.72189941 -76.60040039 49.36176758 -75.81298828 48.99072266 C-71.4414626 46.87806664 -67.1627791 44.58907855 -62.875 42.3125 C-62.03203369 41.86688721 -61.18906738 41.42127441 -60.32055664 40.9621582 C-58.33784071 39.91388952 -56.35599706 38.8640122 -54.375 37.8125 C-58.09227674 36.67666544 -59.84551709 37.14579974 -63.375 38.8125 C-65.24502294 36.19446788 -66.35805118 34.5074016 -66.4375 31.25 C-64.89346268 27.70779674 -62.6907591 26.73973756 -59.375 24.8125 C-56.77812567 23.94870337 -54.33764519 23.23136752 -51.6875 22.625 C-50.99140625 22.45774414 -50.2953125 22.29048828 -49.578125 22.11816406 C-43.88232101 20.80435292 -38.21947763 20.06014736 -32.375 19.8125 C-32.30023438 19.1834375 -32.22546875 18.554375 -32.1484375 17.90625 C-31.13656398 11.31915182 -29.42772019 6.34324496 -24.375 1.8125 C-16.89112535 -2.75524418 -7.83057528 -4.58233665 0 0 Z " fill="#9E9289" transform="translate(144.375,82.1875)"/>
<path d="M0 0 C0.495 0.33 0.99 0.66 1.5 1 C1.5 1.66 1.5 2.32 1.5 3 C7.44 2.01 7.44 2.01 13.5 1 C13.57822869 6.16309352 13.54225175 10.91902274 12.5 16 C14.81 16 17.12 16 19.5 16 C19.5 14.35 19.5 12.7 19.5 11 C20.49 10.67 21.48 10.34 22.5 10 C22.5 11.65 22.5 13.3 22.5 15 C24.975 13.515 24.975 13.515 27.5 12 C28.43587866 14.99633551 28.51510949 16.93060679 27.74316406 19.96386719 C27.4572641 21.11722565 27.4572641 21.11722565 27.16558838 22.29388428 C26.84385651 23.53286469 26.84385651 23.53286469 26.515625 24.796875 C26.29936462 25.66330627 26.08310425 26.52973755 25.86029053 27.42242432 C25.16567209 30.2005866 24.45871538 32.97540339 23.75 35.75 C22.83240227 39.36826931 21.92084786 42.98798988 21.015625 46.609375 C20.79563843 47.48847534 20.57565186 48.36757568 20.34899902 49.27331543 C18.41157167 57.12999042 16.86644705 65.02481524 15.5 73 C13.625 73.625 13.625 73.625 11.5 74 C8.73968729 71.23968729 9.23436611 69.63670336 9.125 65.75 C8.71785045 55.88582291 7.25778037 46.14908564 5.87158203 36.38574219 C5.60837158 34.50483887 5.60837158 34.50483887 5.33984375 32.5859375 C5.17863037 31.4623584 5.01741699 30.3387793 4.85131836 29.18115234 C4.51000703 26.09061266 4.43700672 23.10630121 4.5 20 C3.38818359 20.41572266 3.38818359 20.41572266 2.25390625 20.83984375 C-12.33396448 25.85721422 -27.25952993 25.03926832 -42.5 25 C-42.49777939 25.58659897 -42.49555878 26.17319794 -42.49327087 26.77757263 C-42.4712179 32.86025384 -42.45609336 38.94292377 -42.44506836 45.02563477 C-42.44002675 47.29842591 -42.43319363 49.5712138 -42.42456055 51.84399414 C-42.41248739 55.10303551 -42.40677013 58.36203417 -42.40234375 61.62109375 C-42.39718246 62.64400009 -42.39202118 63.66690643 -42.38670349 64.72080994 C-42.38662796 65.66170975 -42.38655243 66.60260956 -42.38647461 67.57202148 C-42.384254 68.40475082 -42.38203339 69.23748016 -42.37974548 70.09544373 C-42.5 72 -42.5 72 -43.5 73 C-46.32416382 73.12663091 -49.11294793 73.18520548 -51.9375 73.1875 C-52.72705078 73.19974609 -53.51660156 73.21199219 -54.33007812 73.22460938 C-56.38807435 73.22987279 -58.44562009 73.12206285 -60.5 73 C-61.16 72.34 -61.82 71.68 -62.5 71 C-62.17 69.35 -61.84 67.7 -61.5 66 C-57.87 65.67 -54.24 65.34 -50.5 65 C-50.83 51.8 -51.16 38.6 -51.5 25 C-60.76626886 24.80922308 -60.76626886 24.80922308 -69.5 26 C-69.49000725 26.85777542 -69.49000725 26.85777542 -69.47981262 27.73287964 C-69.41358608 33.66968173 -69.36825249 39.6063794 -69.33520508 45.54345703 C-69.32009247 47.76094828 -69.29960174 49.97840953 -69.27368164 52.19580078 C-69.23740707 55.37800489 -69.22029861 58.55981482 -69.20703125 61.7421875 C-69.19154739 62.73805878 -69.17606354 63.73393005 -69.16011047 64.75997925 C-69.15988388 65.68078278 -69.15965729 66.6015863 -69.15942383 67.55029297 C-69.15276199 68.3630368 -69.14610016 69.17578064 -69.13923645 70.01315308 C-69.25828842 70.66881256 -69.37734039 71.32447205 -69.5 72 C-73.31105077 74.54070051 -76.18564693 74.15363256 -80.5625 73.875 C-81.29533203 73.85179687 -82.02816406 73.82859375 -82.78320312 73.8046875 C-84.91015625 73.6796875 -84.91015625 73.6796875 -88.5 73 C-89.99609375 70.9453125 -89.99609375 70.9453125 -90.5 69 C-88.5 66 -88.5 66 -86.66015625 65.453125 C-85.96792969 65.38609375 -85.27570313 65.3190625 -84.5625 65.25 C-83.52802734 65.13398438 -83.52802734 65.13398438 -82.47265625 65.015625 C-80.5 65 -80.5 65 -77.5 66 C-77.995 45.21 -77.995 45.21 -78.5 24 C-81.8 24 -85.1 24 -88.5 24 C-126.06783028 21.43216972 -126.06783028 21.43216972 -136.5 11 C-136.32364548 8.30917128 -135.88164079 5.67148554 -135.5 3 C-129.6121109 1.0373703 -123.42079177 2.04065506 -117.375 2.875 C-93.8802203 5.84629021 -70.3397173 6.29371142 -46.69921875 6.1373291 C-43.15757825 6.11627768 -39.61590473 6.10761341 -36.07421875 6.09765625 C-29.21607122 6.07667473 -22.35804489 6.04289135 -15.5 6 C-15.36722656 5.20207031 -15.23445313 4.40414063 -15.09765625 3.58203125 C-14.5 1 -14.5 1 -12.9375 -0.3125 C-8.55780818 -1.54779769 -4.25065266 -1.70026107 0 0 Z " fill="#E8D7C6" transform="translate(236.5,277)"/>
<path d="M0 0 C0.91058531 3.07322544 1.08886184 5.80097361 1 9 C-0.32 9.66 -1.64 10.32 -3 11 C-1.02 11.495 -1.02 11.495 1 12 C1 12.66 1 13.32 1 14 C0.236875 14.680625 -0.52625 15.36125 -1.3125 16.0625 C-4.68240796 19.74588777 -5.72798902 23.25322732 -7 28 C-7.66 27.67 -8.32 27.34 -9 27 C-10.71930952 27.72740018 -12.43715048 28.45890838 -14.140625 29.22265625 C-19.75112686 31.5682232 -23.32514537 30.6351276 -29 29 C-33.76308095 28.63928475 -38.35705093 28.8018196 -43 30 C-43 30.66 -43 31.32 -43 32 C-46.5868624 32.1434745 -49.46263777 32.1869086 -52.875 31 C-56.98593692 29.68450019 -60.71775149 29.45696124 -65 30 C-65.99 30.515625 -66.98 31.03125 -68 31.5625 C-72.20107118 33.57551328 -75.53365168 32.99344944 -80 32 C-80.825 31.62875 -81.65 31.2575 -82.5 30.875 C-86.35260304 29.52658894 -90.05746851 30.12544919 -94 31 C-94.66773438 31.350625 -95.33546875 31.70125 -96.0234375 32.0625 C-98.33944613 33.16100212 -99.55145341 33.11770624 -102.0625 32.75 C-102.73410156 32.66234375 -103.40570313 32.5746875 -104.09765625 32.484375 C-106 32 -106 32 -109 30 C-113.06412661 29.60921859 -116.02680329 29.8463024 -119.6875 31.5625 C-123 33 -123 33 -125.0625 32.875 C-126.70132248 32.13488662 -128.29506139 31.29616229 -129.875 30.4375 C-133.31283376 28.85609647 -135.26459246 28.60261622 -139 29 C-139.825 29.33 -140.65 29.66 -141.5 30 C-144.57820326 31.2312813 -146.70645526 31.34307758 -150 31 C-152.875 29.625 -152.875 29.625 -155 28 C-155 27.34 -155 26.68 -155 26 C-156.258125 26.12375 -157.51625 26.2475 -158.8125 26.375 C-159.52019531 26.44460937 -160.22789062 26.51421875 -160.95703125 26.5859375 C-163.29988142 26.92665391 -163.29988142 26.92665391 -166 29 C-168.33199388 29.07905064 -170.66832622 29.08798769 -173 29 C-173 28.34 -173 27.68 -173 27 C-173.515625 26.87625 -174.03125 26.7525 -174.5625 26.625 C-177.72702351 25.81358372 -180.86124985 24.9054087 -184 24 C-184 26.97 -184 29.94 -184 33 C-184.33 33 -184.66 33 -185 33 C-185 27.39 -185 21.78 -185 16 C-185.66 15.67 -186.32 15.34 -187 15 C-180.40104934 10.91215446 -175.43686451 9.47605037 -167.6640625 10.01953125 C-164.80057768 9.99853796 -163.36739801 9.57286032 -161 8 C-160.67 7.34 -160.34 6.68 -160 6 C-151.96896991 5.94616769 -143.96434605 6.03308722 -135.93943787 6.34939575 C-116.4788654 7.11638027 -97.02712565 7.15442112 -77.55395508 7.13037109 C-72.8514281 7.1246368 -68.14895724 7.12808938 -63.44643211 7.13380814 C-32.12587884 7.69420305 -32.12587884 7.69420305 -1 5 C-1 4.34 -1 3.68 -1 3 C-2.98 2.67 -4.96 2.34 -7 2 C-4.35261084 0.5393715 -3.10551666 0 0 0 Z " fill="#E6D5C3" transform="translate(275,116)"/>
<path d="M0 0 C0.639375 0.495 1.27875 0.99 1.9375 1.5 C1.9375 2.16 1.9375 2.82 1.9375 3.5 C3.2575 4.16 4.5775 4.82 5.9375 5.5 C5.9375 6.16 5.9375 6.82 5.9375 7.5 C6.5975 7.5 7.2575 7.5 7.9375 7.5 C10.87038591 14.89597315 10.87038591 14.89597315 11.3125 18.875 C11.621875 20.174375 11.621875 20.174375 11.9375 21.5 C14.40005685 22.95291273 14.40005685 22.95291273 16.9375 23.5 C16.980221 25.16611905 16.97813832 26.83382885 16.9375 28.5 C15.9375 29.5 15.9375 29.5 13.375 29.5625 C12.570625 29.541875 11.76625 29.52125 10.9375 29.5 C10.7725 30.61375 10.6075 31.7275 10.4375 32.875 C8.78141409 39.42936818 4.32005487 45.13531485 -1.19140625 48.98828125 C-6.81212259 51.92129262 -12.05828956 52.6319144 -18.375 52.5625 C-19.97794922 52.54896484 -19.97794922 52.54896484 -21.61328125 52.53515625 C-22.42152344 52.52355469 -23.22976562 52.51195312 -24.0625 52.5 C-24.31 53.263125 -24.5575 54.02625 -24.8125 54.8125 C-26.21276154 57.82306232 -27.20071016 58.87421616 -30.0625 60.5 C-35.60024358 61.86159042 -40.86701045 62.03733211 -46.0625 59.5 C-46.92875 58.778125 -47.795 58.05625 -48.6875 57.3125 C-50.82992196 55.28212399 -50.82992196 55.28212399 -53.0625 55.5625 C-55.14963563 56.46387588 -55.14963563 56.46387588 -57.125 58 C-62.06672317 60.52343311 -67.76373816 61.1668977 -73.2265625 60.0625 C-76.07399443 58.99622762 -77.96166448 57.61059379 -80 55.375 C-81.47632076 51.3802497 -81.31022058 47.71124988 -81.0625 43.5 C-78.5875 43.005 -78.5875 43.005 -76.0625 42.5 C-72.0625 49.25 -72.0625 49.25 -72.0625 51.5 C-66.09057646 51.13437203 -62.52559193 49.48805987 -58.0625 45.5 C-55.6921054 42.85367738 -55.6921054 42.85367738 -54.0625 40.5 C-51.9375 40.5 -51.9375 40.5 -49.0625 41.5 C-47.36115907 43.43527531 -45.92816927 45.45139522 -44.4921875 47.58984375 C-43.03328745 49.76051401 -43.03328745 49.76051401 -40.0625 51.5 C-37.02038569 51.9167552 -37.02038569 51.9167552 -34.0625 51.5 C-33.4025 50.51 -32.7425 49.52 -32.0625 48.5 C-32.64644531 48.25121094 -33.23039062 48.00242188 -33.83203125 47.74609375 C-36.37566284 46.32504563 -37.85657698 44.76807085 -39.75 42.5625 C-40.35199219 41.87285156 -40.95398438 41.18320313 -41.57421875 40.47265625 C-46.01346818 34.58861173 -44.60713395 24.57543575 -44.0625 17.5 C-42.52750226 9.1923433 -37.79919334 4.31027589 -31.0625 -0.5 C-22.02626427 -5.95584044 -9.25634967 -4.53372229 0 0 Z " fill="#F0B413" transform="translate(230.0625,162.5)"/>
<path d="M0 0 C9.30726609 5.54341398 15.52290513 14.43772998 18.49609375 24.75 C22.39420007 40.76808056 20.08809595 55.56414156 11.49609375 69.75 C5.15047156 79.21737655 -3.08212786 86.6939736 -13.69140625 91.0625 C-23.41581072 92.81608113 -32.18463129 91.88755149 -41.50390625 88.75 C-42.28964289 86.47860326 -42.69787395 85.24647304 -41.80712891 82.96655273 C-41.24324463 82.08398804 -41.24324463 82.08398804 -40.66796875 81.18359375 C-40.26320313 80.53326172 -39.8584375 79.88292969 -39.44140625 79.21289062 C-38.79171875 78.21032227 -38.79171875 78.21032227 -38.12890625 77.1875 C-37.2853325 75.85439785 -36.44409104 74.51981629 -35.60546875 73.18359375 C-35.03820068 72.30272095 -35.03820068 72.30272095 -34.45947266 71.40405273 C-33.34093747 69.59567074 -33.34093747 69.59567074 -32.50390625 66.75 C-29.32254231 66.53308882 -27.06421078 66.49933745 -24.12890625 67.8125 C-21.71595898 70.68947559 -22.23044195 73.12659799 -22.50390625 76.75 C-12.60685047 74.29328403 -5.9481633 69.64730417 -0.62890625 60.875 C4.82752443 50.70907463 7.05200613 42.55306556 4.30859375 31.1875 C1.66196214 22.41440633 -2.48263741 16.37487573 -10.50390625 11.75 C-16.34991928 9.09177738 -22.14285966 8.25484497 -28.50390625 7.75 C-28.29765625 8.9875 -28.09140625 10.225 -27.87890625 11.5 C-27.44283501 14.86909835 -27.46986986 16.87841921 -29.50390625 19.75 C-30.49390625 19.75 -31.48390625 19.75 -32.50390625 19.75 C-33.45279126 17.61500874 -34.40128045 15.47985537 -35.34765625 13.34375 C-36.11074986 11.63194541 -36.88144103 9.92350494 -37.66015625 8.21875 C-38.02109375 7.4246875 -38.38203125 6.630625 -38.75390625 5.8125 C-39.25664062 4.71615234 -39.25664062 4.71615234 -39.76953125 3.59765625 C-40.50390625 1.75 -40.50390625 1.75 -40.50390625 -0.25 C-41.16390625 -0.25 -41.82390625 -0.25 -42.50390625 -0.25 C-41.50390625 -3.25 -41.50390625 -3.25 -39.56640625 -4.4140625 C-26.76249112 -7.90900872 -11.71081578 -5.84627309 0 0 Z " fill="#969494" transform="translate(318.50390625,177.25)"/>
<path d="M0 0 C6.55220219 4.7365317 8.8864985 10.42618983 11.625 17.8125 C12.18848145 17.73161133 12.75196289 17.65072266 13.33251953 17.56738281 C23.07590216 16.41451847 32.73373071 17.05996537 42.5 17.5625 C43.43897125 17.60917816 44.3779425 17.65585632 45.34536743 17.70394897 C96.89795208 20.28204121 96.89795208 20.28204121 116.3125 24.125 C117.23184326 24.30135986 118.15118652 24.47771973 119.09838867 24.65942383 C126.40114147 26.28477133 133.28107418 29.46857418 138.625 34.8125 C139.125 38.125 139.125 38.125 138.625 41.8125 C136 44.8125 136 44.8125 132.625 46.8125 C129.25 46.625 129.25 46.625 126.625 45.8125 C127.285 44.8225 127.945 43.8325 128.625 42.8125 C129.615 42.8125 130.605 42.8125 131.625 42.8125 C131.295 39.8425 130.965 36.8725 130.625 33.8125 C129.26375 34.01875 127.9025 34.225 126.5 34.4375 C123.55220147 34.88413614 121.83373727 34.8839523 118.98608398 33.90917969 C104.07612194 29.04424546 87.45620503 29.02474181 71.9375 28.1875 C68.72348799 28.00661963 65.50965526 27.82302128 62.29594421 27.63687134 C60.31829267 27.52307991 58.340444 27.41264317 56.36238098 27.3062439 C51.0727623 27.0102843 45.87729492 26.50044655 40.625 25.8125 C38.90781705 25.68401683 37.1889098 25.57531164 35.46875 25.49609375 C34.5921875 25.45419922 33.715625 25.41230469 32.8125 25.36914062 C31.925625 25.32982422 31.03875 25.29050781 30.125 25.25 C29.2071875 25.20681641 28.289375 25.16363281 27.34375 25.11914062 C25.10427939 25.01416544 22.86471908 24.91200752 20.625 24.8125 C20.13 22.8325 20.13 22.8325 19.625 20.8125 C16.655 20.4825 13.685 20.1525 10.625 19.8125 C10.13 21.2975 10.13 21.2975 9.625 22.8125 C7.14838132 23.8278534 4.80957348 24.63711277 2.25 25.375 C1.52337158 25.59115967 0.79674316 25.80731934 0.0480957 26.0300293 C-9.51679461 28.81013948 -18.3919546 30.16007218 -28.375 29.8125 C-28.375 29.1525 -28.375 28.4925 -28.375 27.8125 C-31.58316776 26.98458574 -34.70022388 26.67015991 -38 26.5625 C-39.13308594 26.52382812 -39.13308594 26.52382812 -40.2890625 26.484375 C-42.92782113 26.89946063 -43.52994962 27.94871815 -45.375 29.8125 C-47.75 30.5078125 -47.75 30.5078125 -50.375 30.9375 C-53.18110945 31.41353642 -55.66544437 31.90931479 -58.375 32.8125 C-58.375 33.4725 -58.375 34.1325 -58.375 34.8125 C-57.715 35.1425 -57.055 35.4725 -56.375 35.8125 C-58.625 37.4375 -58.625 37.4375 -61.375 38.8125 C-63.625 38.375 -63.625 38.375 -65.375 36.8125 C-66.4375 34 -66.4375 34 -66.375 30.8125 C-62.55659451 24.87275813 -55.96892884 23.35439931 -49.375 21.8125 C-43.73802574 20.8866742 -38.06224383 20.32462148 -32.375 19.8125 C-32.30023438 19.1834375 -32.22546875 18.554375 -32.1484375 17.90625 C-31.13656398 11.31915182 -29.42772019 6.34324496 -24.375 1.8125 C-16.89112535 -2.75524418 -7.83057528 -4.58233665 0 0 Z " fill="#EFE6DA" transform="translate(144.375,82.1875)"/>
<path d="M0 0 C0.495 0.33 0.99 0.66 1.5 1 C1.5 1.66 1.5 2.32 1.5 3 C7.44 2.01 7.44 2.01 13.5 1 C13.57822869 6.16309352 13.54225175 10.91902274 12.5 16 C14.81 16 17.12 16 19.5 16 C19.5 14.35 19.5 12.7 19.5 11 C20.49 10.67 21.48 10.34 22.5 10 C22.5 11.65 22.5 13.3 22.5 15 C24.975 13.515 24.975 13.515 27.5 12 C28.43587866 14.99633551 28.51510949 16.93060679 27.74316406 19.96386719 C27.4572641 21.11722565 27.4572641 21.11722565 27.16558838 22.29388428 C26.84385651 23.53286469 26.84385651 23.53286469 26.515625 24.796875 C26.29936462 25.66330627 26.08310425 26.52973755 25.86029053 27.42242432 C25.16567209 30.2005866 24.45871538 32.97540339 23.75 35.75 C22.83240227 39.36826931 21.92084786 42.98798988 21.015625 46.609375 C20.79563843 47.48847534 20.57565186 48.36757568 20.34899902 49.27331543 C18.41157167 57.12999042 16.86644705 65.02481524 15.5 73 C13.625 73.625 13.625 73.625 11.5 74 C8.64413997 71.14413997 9.17905825 69.04819857 9.03515625 65.046875 C8.59664318 55.68703859 7.30182935 46.51262849 5.9375 37.25 C5.58528844 34.83111049 5.23494369 32.41197989 4.88771057 29.99237061 C4.67387257 28.50497258 4.45703078 27.01800219 4.23667908 25.53155518 C3.76807073 22.29643068 3.5 19.2803397 3.5 16 C2.84 16 2.18 16 1.5 16 C1.17 16.99 0.84 17.98 0.5 19 C0.17 18.67 -0.16 18.34 -0.5 18 C-3.03541298 18.09086451 -5.53554784 18.2370945 -8.0625 18.4375 C-9.12887695 18.51581055 -9.12887695 18.51581055 -10.21679688 18.59570312 C-11.97821999 18.72574107 -13.73916173 18.86226897 -15.5 19 C-15.78875 18.195625 -16.0775 17.39125 -16.375 16.5625 C-17.23262568 13.8673532 -17.23262568 13.8673532 -19.5 13 C-19.5 12.34 -19.5 11.68 -19.5 11 C-21.1564856 11.25015869 -21.1564856 11.25015869 -22.84643555 11.50537109 C-27.90190067 12.13339726 -32.87256568 12.04466131 -37.95703125 11.9140625 C-38.94064133 11.89282318 -39.9242514 11.87158386 -40.93766785 11.84970093 C-43.00937234 11.80365735 -45.08101494 11.75474897 -47.15258789 11.703125 C-50.29236036 11.62549793 -53.4322282 11.55812263 -56.57226562 11.4921875 C-58.59636823 11.44592356 -60.6204574 11.39906768 -62.64453125 11.3515625 C-63.56885452 11.33171295 -64.4931778 11.3118634 -65.44551086 11.29141235 C-71.01497865 11.14709784 -76.51905614 10.75991426 -82.06391907 10.22143555 C-84.85154139 9.9680455 -87.61940725 9.85987738 -90.41796875 9.82421875 C-105.42753286 9.50879175 -119.76963719 7.89023617 -134.5 5 C-134.5 4.34 -134.5 3.68 -134.5 3 C-129.62236301 0.5611815 -122.58172295 2.15645012 -117.375 2.875 C-93.8802203 5.84629021 -70.3397173 6.29371142 -46.69921875 6.1373291 C-43.15757825 6.11627768 -39.61590473 6.10761341 -36.07421875 6.09765625 C-29.21607122 6.07667473 -22.35804489 6.04289135 -15.5 6 C-15.36722656 5.20207031 -15.23445313 4.40414063 -15.09765625 3.58203125 C-14.5 1 -14.5 1 -12.9375 -0.3125 C-8.55780818 -1.54779769 -4.25065266 -1.70026107 0 0 Z " fill="#CFC0B2" transform="translate(236.5,277)"/>
<path d="M0 0 C2.97 0 5.94 0 9 0 C9.25 2.8125 9.25 2.8125 9 6 C5.52381239 9.56051561 0.53179 10.84757282 -4.0625 12.4375 C-4.93922363 12.74244385 -5.81594727 13.0473877 -6.71923828 13.36157227 C-17.2529111 16.91016335 -28.78084202 20.44520468 -40 20 C-40.268125 20.639375 -40.53625 21.27875 -40.8125 21.9375 C-42 24 -42 24 -45 25 C-46.855179 24.94352575 -48.70950812 24.8562994 -50.5625 24.75 C-57.31426986 24.71773348 -61.25655469 26.70225256 -67 30 C-69.73491664 31.40552159 -72.49298666 32.76344991 -75.25 34.125 C-76.58892564 34.79350233 -77.92748084 35.46274724 -79.265625 36.1328125 C-79.89533203 36.44637695 -80.52503906 36.75994141 -81.17382812 37.08300781 C-82.9098003 37.95470721 -84.63493757 38.84788623 -86.359375 39.7421875 C-89 41 -89 41 -91 41 C-89.71412011 43.77364913 -88.42272082 46.54438641 -87.125 49.3125 C-86.72732422 50.16102539 -86.32964844 51.00955078 -85.91992188 51.88378906 C-82.58648854 58.92132523 -78.9950373 65.79802519 -75.18798828 72.59106445 C-72.7190128 77.12114502 -71.15840188 80.79913838 -71 86 C-73 88 -73 88 -75.890625 88.0859375 C-79 87 -79 87 -80.984375 83.8515625 C-81.59415123 82.45176812 -82.18124257 81.04195672 -82.75 79.625 C-83.42399313 78.07230476 -84.1025665 76.52159153 -84.78515625 74.97265625 C-85.13980957 74.15941895 -85.49446289 73.34618164 -85.85986328 72.50830078 C-87.78867539 68.26491414 -89.98932626 64.1709914 -92.1875 60.0625 C-92.61160156 59.25941406 -93.03570312 58.45632812 -93.47265625 57.62890625 C-95.22186236 54.31751607 -96.98755899 51.02223329 -98.81640625 47.75390625 C-99.52603516 46.45259766 -99.52603516 46.45259766 -100.25 45.125 C-100.64703125 44.42632812 -101.0440625 43.72765625 -101.453125 43.0078125 C-102 41 -102 41 -101.54296875 38.47265625 C-99.41418911 35.06121952 -96.61208514 33.89993443 -93.0625 32.3125 C-91.62516763 31.63390814 -90.18902188 30.95279869 -88.75390625 30.26953125 C-87.98965332 29.90939941 -87.22540039 29.54926758 -86.43798828 29.17822266 C-82.0664626 27.06556664 -77.7877791 24.77657855 -73.5 22.5 C-72.65703369 22.05438721 -71.81406738 21.60877441 -70.94555664 21.1496582 C-68.96284071 20.10138952 -66.98099706 19.0515122 -65 18 C-65.66 17.54625 -66.32 17.0925 -67 16.625 C-67.66 16.08875 -68.32 15.5525 -69 15 C-69 14.34 -69 13.68 -69 13 C-65.42220029 10.61480019 -62.55847238 10.301373 -58.375 9.66015625 C-55.9393736 9.19384569 -55.9393736 9.19384569 -54.4609375 7.453125 C-53 6 -53 6 -50.9140625 5.63671875 C-46.52279737 5.73413589 -42.99217633 5.93952189 -39 8 C-39 8.66 -39 9.32 -39 10 C-27.87303428 9.04121384 -17.64225706 7.52903861 -7 4 C-5.90171875 3.67 -4.8034375 3.34 -3.671875 3 C-0.86360792 2.29464976 -0.86360792 2.29464976 0 0 Z " fill="#877C74" transform="translate(155,102)"/>
<path d="M0 0 C0.66 0 1.32 0 2 0 C2.33 1.65 2.66 3.3 3 5 C5.31 5.33 7.62 5.66 10 6 C10 4.35 10 2.7 10 1 C10.99 0.67 11.98 0.34 13 0 C13 1.65 13 3.3 13 5 C14.65 4.01 16.3 3.02 18 2 C18.93587866 4.99633551 19.01510949 6.93060679 18.24316406 9.96386719 C18.05256409 10.73277283 17.86196411 11.50167847 17.66558838 12.29388428 C17.45110046 13.11987122 17.23661255 13.94585815 17.015625 14.796875 C16.79936462 15.66330627 16.58310425 16.52973755 16.36029053 17.42242432 C15.66567209 20.2005866 14.95871538 22.97540339 14.25 25.75 C13.33240227 29.36826931 12.42084786 32.98798988 11.515625 36.609375 C11.29563843 37.48847534 11.07565186 38.36757568 10.84899902 39.27331543 C8.91157167 47.12999042 7.36644705 55.02481524 6 63 C4.125 63.625 4.125 63.625 2 64 C-0.76031271 61.23968729 -0.26563389 59.63670336 -0.375 55.75 C-0.77952762 46.11718594 -2.17902355 36.62554325 -3.54052734 27.08886719 C-4.71360247 18.72480864 -5.50721147 10.43089852 -6 2 C-5.01 2 -4.02 2 -3 2 C-2.67 2.99 -2.34 3.98 -2 5 C-1.34 5.33 -0.68 5.66 0 6 C0 4.02 0 2.04 0 0 Z " fill="#0D0809" transform="translate(246,287)"/>
<path d="M0 0 C3.02089981 1.7475743 5.41608883 3.83217766 7 7 C7.22950319 9.204364 7.41075933 11.41392173 7.5625 13.625 C7.68818359 15.40777344 7.68818359 15.40777344 7.81640625 17.2265625 C7.87699219 18.14179688 7.93757813 19.05703125 8 20 C9.65 20 11.3 20 13 20 C12.74922088 23.67809371 12.48503402 25.50070028 9.875 28.1875 C2.92970965 32.56605261 -2.74164661 34.05454927 -11 33 C-11.66 32.34 -12.32 31.68 -13 31 C-13.7425 30.773125 -14.485 30.54625 -15.25 30.3125 C-19.10660395 28.47184812 -21.76521112 25.64017158 -24 22 C-24 20.68 -24 19.36 -24 18 C-22.02 18 -20.04 18 -18 18 C-17.98582031 17.34773438 -17.97164062 16.69546875 -17.95703125 16.0234375 C-17.60684369 9.60648703 -16.74126976 6.4104835 -12 2 C-8.51038637 -0.6472931 -4.21304267 -0.81673188 0 0 Z " fill="#ECE4D8" transform="translate(218,176)"/>
<path d="M0 0 C0 0.66 0 1.32 0 2 C0.59554687 2.10054687 1.19109375 2.20109375 1.8046875 2.3046875 C5.70746877 3.54079972 7.76252873 6.70302028 10 10 C13.01404569 17.53511423 12.70031965 24.38811569 10 31.87890625 C8.47389716 35.11591344 6.45634085 37.41088397 4 40 C3.01 39.67 2.02 39.34 1 39 C1.61875 38.62875 2.2375 38.2575 2.875 37.875 C5.5510596 35.51377094 6.0936844 33.39868348 7 30 C5.35 30 3.7 30 2 30 C0.73537572 27.47075145 0.85694685 25.51013296 0.75 22.6875 C0.45448118 18.92948573 0.24977 16.55365526 -2.5 13.875 C-3.7375 12.946875 -3.7375 12.946875 -5 12 C-5.33 11.67 -5.66 11.34 -6 11 C-12.09086807 10.48382474 -15.13243768 10.94369807 -20 15 C-22.00293347 18.00440021 -22.49271626 19.70993945 -23.125 23.1875 C-23.37636719 24.53908203 -23.37636719 24.53908203 -23.6328125 25.91796875 C-23.75398437 26.60503906 -23.87515625 27.29210937 -24 28 C-25.98 28 -27.96 28 -30 28 C-30.33 28.66 -30.66 29.32 -31 30 C-33.57102047 24.05451516 -34.32978363 17.11024032 -32.3125 10.875 C-28.82991458 4.14200152 -22.35517272 1.29673713 -15.59765625 -1.3125 C-10.217566 -2.73640358 -5.26159215 -1.35668856 0 0 Z " fill="#E6DCCE" transform="translate(224,166)"/>
<path d="M0 0 C3.74939699 2.66623786 6.5548683 5.67223661 8.625 9.8125 C8.664992 11.81210012 8.66846799 13.81297242 8.625 15.8125 C-2.57073338 22.34334447 -17.59636611 24.31144883 -30.375 23.8125 C-32.40082464 19.76085072 -32.02250733 14.82188416 -30.65625 10.58203125 C-27.97772695 4.8253668 -24.5158961 1.60729266 -18.6875 -0.9375 C-12.2291208 -3.12678108 -6.00279548 -3.53696314 0 0 Z " fill="#0A0607" transform="translate(144.375,82.1875)"/>
<path d="M0 0 C0.8842012 0.05764023 1.7684024 0.11528046 2.67939758 0.17466736 C28.22173076 1.79742963 53.70072155 2.36929093 79.29034424 2.54260254 C87.0480861 2.59588216 94.80572142 2.65963712 102.56331825 2.73081779 C105.24566657 2.75350615 107.92800033 2.76982613 110.61039734 2.78553772 C112.2287923 2.79892263 113.84718539 2.81253546 115.46557617 2.82641602 C116.57384262 2.83033607 116.57384262 2.83033607 117.70449829 2.83433533 C122.77258631 2.88629316 122.77258631 2.88629316 125 4 C125 4.66 125 5.32 125 6 C126.65 6.33 128.3 6.66 130 7 C130 7.33 130 7.66 130 8 C125.63041275 9.07601726 121.3694384 9.14796098 116.8972168 9.14526367 C115.69039749 9.15030159 115.69039749 9.15030159 114.459198 9.15544128 C111.78918916 9.16495602 109.11924353 9.1668976 106.44921875 9.16796875 C104.55678788 9.17119133 102.66435726 9.17455611 100.77192688 9.17805481 C96.77966745 9.18405462 92.78742964 9.18589486 88.79516602 9.18530273 C84.78600412 9.18522287 80.77695988 9.19193148 76.76782227 9.20581055 C49.78018435 9.29802693 22.93848011 8.66005044 -4 7 C-4 6.34 -4 5.68 -4 5 C-3.01 4.67 -2.02 4.34 -1 4 C-0.26676204 1.98491642 -0.26676204 1.98491642 0 0 Z " fill="#F0E6D8" transform="translate(115,122)"/>
<path d="M0 0 C4.05606165 0.46800711 7.46588679 0.87953208 11 3 C11 3.66 11 4.32 11 5 C12.48011371 4.69201674 13.95907325 4.378482 15.4375 4.0625 C16.26121094 3.88847656 17.08492187 3.71445313 17.93359375 3.53515625 C19.97661204 3.19247006 19.97661204 3.19247006 21 2 C23.67058851 1.85884839 26.32432238 1.95752893 29 2 C29 2.66 29 3.32 29 4 C33.71400401 6.58509897 37.90548213 5.99087872 43 5 C43.66 4.67 44.32 4.34 45 4 C48.96788438 3.53861809 51.25491918 3.96818027 54.5625 6.0625 C57.72465142 8.24634304 57.72465142 8.24634304 60.625 7.875 C62.22955168 7.28384938 63.81409543 6.63579941 65.375 5.9375 C68.79195872 4.7171576 71.38892758 4.68323926 75 5 C75.99 5.515625 76.98 6.03125 78 6.5625 C81.85842371 8.41132803 83.87943975 7.95655863 88 7 C88.969375 6.62875 89.93875 6.2575 90.9375 5.875 C95.75572104 4.49836542 100.01377187 5.19605052 104.625 7.0625 C107.65051612 8.25678268 109.76503856 8.33009811 113 8 C113.928125 7.505 114.85625 7.01 115.8125 6.5 C120.93399925 4.08988271 125.75262611 4.32578783 131.125 5.9375 C132.07375 6.288125 133.0225 6.63875 134 7 C136.32694964 7.37531446 138.65976685 7.71917202 141 8 C141 7.34 141 6.68 141 6 C146.75059114 3.03195296 152.60483691 3.30986826 158.6875 5.0625 C164.87234929 6.81292904 169.41328421 4.51949928 175 2 C175.33 2 175.66 2 176 2 C176 3.98 176 5.96 176 8 C169.96430467 10.68253126 164.62923625 11.90666286 158 11 C157.01 10.34 156.02 9.68 155 9 C150.89905247 8.60567812 148.41270843 8.81657403 144.625 10.5 C138.28034645 13.12537388 133.23384985 12.55747686 127 10 C123.00824841 9.50000647 119.99944791 9.40033125 116.5 11.5 C113.05679543 13.56592274 109.87492766 13.59732086 106 13 C103.99187074 12.01642648 101.99145391 11.01691264 100 10 C95.48703787 9.61095154 92.9359633 9.97238254 89 12 C83.98012564 13.17130402 81.31938001 13.47223918 76.75 11 C76.12609375 10.608125 75.5021875 10.21625 74.859375 9.8125 C72.47806581 8.77192792 71.40394609 9.12807693 69 10 C68.2575 10.350625 67.515 10.70125 66.75 11.0625 C63.12488507 12.29833464 59.76126221 12.64251888 56 12 C54.24609375 10.99609375 54.24609375 10.99609375 52.5625 9.8125 C49.32425965 7.71131354 49.32425965 7.71131354 46.80859375 8.40234375 C45.26645471 8.96857754 43.73471687 9.56396231 42.21484375 10.1875 C39.08506788 11.33563648 36.29178858 11.26871744 33 11 C32.34 10.67 31.68 10.34 31 10 C31 9.34 31 8.68 31 8 C25.62205152 7.13296691 22.06314557 6.73490856 17 9 C12.79941476 9.4500627 10.81990335 9.60516675 7.375 7.0625 C6.59125 6.381875 5.8075 5.70125 5 5 C2.31492671 4.21053391 2.31492671 4.21053391 0 4 C0 2.68 0 1.36 0 0 Z " fill="#ADA7A6" transform="translate(91,140)"/>
<path d="M0 0 C2.125 0 2.125 0 5 1 C6.70134093 2.93527531 8.13433073 4.95139522 9.5703125 7.08984375 C11.02921255 9.26051401 11.02921255 9.26051401 14 11 C18.07490752 11.33957563 19.53001271 11.31332486 23 9 C24.21284876 5.94570927 24.21284876 5.94570927 25 3 C29.875 3.875 29.875 3.875 31 5 C31.45163044 9.85502728 30.56890981 12.87139494 28 17 C23.76797873 20.81065119 19.52304041 21 14 21 C10.1948935 20.21026091 8.36086301 19.30071917 5.375 16.8125 C3.23257804 14.78212399 3.23257804 14.78212399 1 15.0625 C-1.08713563 15.96387588 -1.08713563 15.96387588 -3.0625 17.5 C-8.00422317 20.02343311 -13.70123816 20.6668977 -19.1640625 19.5625 C-22.01149443 18.49622762 -23.89916448 17.11059379 -25.9375 14.875 C-27.41382076 10.8802497 -27.24772058 7.21124988 -27 3 C-25.35 2.67 -23.7 2.34 -22 2 C-18 8.75 -18 8.75 -18 11 C-12.02807646 10.63437203 -8.46309193 8.98805987 -4 5 C-1.6296054 2.35367738 -1.6296054 2.35367738 0 0 Z " fill="#120E0E" transform="translate(176,203)"/>
<path d="M0 0 C0.185625 0.61875 0.37125 1.2375 0.5625 1.875 C2.71437233 5.05602866 5.37533763 5.19451947 9 6 C9 6.33 9 6.66 9 7 C6.69 7 4.38 7 2 7 C1.67 7.99 1.34 8.98 1 10 C-1.47661868 11.0153534 -3.81542652 11.82461277 -6.375 12.5625 C-7.10162842 12.77865967 -7.82825684 12.99481934 -8.5769043 13.2175293 C-18.14179461 15.99763948 -27.0169546 17.34757218 -37 17 C-37 16.34 -37 15.68 -37 15 C-40.20816776 14.17208574 -43.32522388 13.85765991 -46.625 13.75 C-47.38039063 13.72421875 -48.13578125 13.6984375 -48.9140625 13.671875 C-51.55282113 14.08696063 -52.15494962 15.13621815 -54 17 C-56.375 17.6953125 -56.375 17.6953125 -59 18.125 C-61.80610945 18.60103642 -64.29044437 19.09681479 -67 20 C-67 20.66 -67 21.32 -67 22 C-66.34 22.33 -65.68 22.66 -65 23 C-67.25 24.625 -67.25 24.625 -70 26 C-72.25 25.5625 -72.25 25.5625 -74 24 C-75.0625 21.1875 -75.0625 21.1875 -75 18 C-71.18150737 12.06012258 -64.60181271 10.51597181 -58 9 C-52.02997901 8.06107966 -46.01960828 7.50832248 -40 7 C-39.505 8.98 -39.505 8.98 -39 11 C-19.48919507 8.98880205 -19.48919507 8.98880205 -1 3 C-0.67 2.01 -0.34 1.02 0 0 Z " fill="#9D9897" transform="translate(153,95)"/>
<path d="M0 0 C3.67303016 0.22956438 5.80354721 1.45034581 8.625 3.6484375 C11.53419843 5.88152651 14.46053497 8.07661251 17.4375 10.21875 C18.18773437 10.75886719 18.93796875 11.29898437 19.7109375 11.85546875 C20.46632813 12.39816406 21.22171875 12.94085938 22 13.5 C27.7143071 17.60532984 33.38753467 21.75624215 39 26 C39 28.3125 39 28.3125 38 31 C31.631663 34.36440446 25.10574207 34.6565558 18 35 C18 32.03 18 29.06 18 26 C18.99 25.67 19.98 25.34 21 25 C17.51707675 21.08171135 13.43743749 18.677764 9 16 C6.92783832 14.72785011 4.97230165 13.4299187 3 12 C3 11.34 3 10.68 3 10 C2.34 10 1.68 10 1 10 C1 9.34 1 8.68 1 8 C0.01 8 -0.98 8 -2 8 C-2 6.02 -2 4.04 -2 2 C-1.34 2 -0.68 2 0 2 C0 1.34 0 0.68 0 0 Z " fill="#887D74" transform="translate(238,251)"/>
<path d="M0 0 C11.66579766 1.84082553 23.27350018 2.31435113 35.06570435 2.46359253 C48.91568273 2.64716741 62.74263748 2.97861969 76.5625 3.9375 C78.28980347 4.04964844 78.28980347 4.04964844 80.05200195 4.1640625 C81.08800537 4.24269531 82.12400879 4.32132812 83.19140625 4.40234375 C84.08029541 4.46929443 84.96918457 4.53624512 85.88500977 4.60522461 C88 5 88 5 90 7 C79.45277352 7.02351423 68.90555361 7.04110881 58.35830593 7.05181217 C53.45704132 7.05695777 48.55579506 7.06389706 43.65454102 7.07543945 C6.00495207 7.16162281 6.00495207 7.16162281 -12.77734375 6.55859375 C-14.63801231 6.50011009 -14.63801231 6.50011009 -16.53627014 6.44044495 C-22.41604755 6.2261408 -28.17747454 5.85328956 -34 5 C-29.96305964 2.30870643 -26.02621462 1.7939191 -21.3125 0.875 C-20.00249023 0.60236328 -20.00249023 0.60236328 -18.66601562 0.32421875 C-12.38602954 -0.92333637 -6.21083862 -2.07027954 0 0 Z " fill="#ED7B10" transform="translate(155,117)"/>
<path d="M0 0 C2.31 0 4.62 0 7 0 C8.08364362 26.59538119 8.08364362 26.59538119 8.25 39.625 C8.27126953 40.45225586 8.29253906 41.27951172 8.31445312 42.13183594 C8.328125 44.4140625 8.328125 44.4140625 8 48 C4.18894923 50.54070051 1.31435307 50.15363256 -3.0625 49.875 C-4.16174805 49.84019531 -4.16174805 49.84019531 -5.28320312 49.8046875 C-7.41015625 49.6796875 -7.41015625 49.6796875 -11 49 C-12.49609375 46.9453125 -12.49609375 46.9453125 -13 45 C-11 42 -11 42 -9.16015625 41.453125 C-8.46792969 41.38609375 -7.77570313 41.3190625 -7.0625 41.25 C-6.37285156 41.17265625 -5.68320313 41.0953125 -4.97265625 41.015625 C-3 41 -3 41 0 42 C-0.05329468 40.19813232 -0.05329468 40.19813232 -0.10766602 38.35986328 C-0.23779805 33.91338938 -0.36104144 29.46674685 -0.48217773 25.02001953 C-0.53562804 23.09353392 -0.59095971 21.16709958 -0.64819336 19.24072266 C-0.73001986 16.4756984 -0.80513291 13.71056186 -0.87890625 10.9453125 C-0.90594131 10.0806839 -0.93297638 9.2160553 -0.96083069 8.32522583 C-1.11387171 2.22774341 -1.11387171 2.22774341 0 0 Z " fill="#887D76" transform="translate(159,301)"/>
<path d="M0 0 C2.31 0 4.62 0 7 0 C7.84923045 9.7216575 8.15866037 19.34815863 8.13037109 29.1003418 C8.12489591 31.35537094 8.13041506 33.61021036 8.13671875 35.86523438 C8.13605977 37.30208377 8.13478236 38.73893305 8.1328125 40.17578125 C8.13168457 41.46395752 8.13055664 42.75213379 8.12939453 44.0793457 C8 47 8 47 7 48 C4.17583618 48.12663091 1.38705207 48.18520548 -1.4375 48.1875 C-2.22705078 48.19974609 -3.01660156 48.21199219 -3.83007812 48.22460938 C-5.88807435 48.22987279 -7.94562009 48.12206285 -10 48 C-10.66 47.34 -11.32 46.68 -12 46 C-11.67 44.35 -11.34 42.7 -11 41 C-5.555 40.505 -5.555 40.505 0 40 C0 26.8 0 13.6 0 0 Z " fill="#877D75" transform="translate(186,302)"/>
<path d="M0 0 C0.495 0.33 0.99 0.66 1.5 1 C1.5 1.66 1.5 2.32 1.5 3 C5.46 2.34 9.42 1.68 13.5 1 C13.64285714 10.57142857 13.64285714 10.57142857 12.5 15 C12.17 15 11.84 15 11.5 15 C11.5 13.35 11.5 11.7 11.5 10 C10.84 10 10.18 10 9.5 10 C9.5 11.98 9.5 13.96 9.5 16 C6.5 15 6.5 15 4.5 12 C4.5 14.64 4.5 17.28 4.5 20 C4.17 18.68 3.84 17.36 3.5 16 C2.84 16 2.18 16 1.5 16 C1.17 16.99 0.84 17.98 0.5 19 C0.17 18.67 -0.16 18.34 -0.5 18 C-2.35287502 17.92773498 -4.20833878 17.9161878 -6.0625 17.9375 C-7.07441406 17.94652344 -8.08632812 17.95554687 -9.12890625 17.96484375 C-9.91136719 17.97644531 -10.69382813 17.98804688 -11.5 18 C-11.83 17.01 -12.16 16.02 -12.5 15 C-13.49 14.67 -14.48 14.34 -15.5 14 C-17.01361621 5.06966434 -17.01361621 5.06966434 -14.5 1 C-10.56095341 -2.18153763 -4.49347608 -1.79739043 0 0 Z " fill="#83786F" transform="translate(236.5,277)"/>
<path d="M0 0 C1.25393555 0.06731323 1.25393555 0.06731323 2.53320312 0.13598633 C3.46028076 0.18021729 4.3873584 0.22444824 5.3425293 0.27001953 C6.81363159 0.36802856 6.81363159 0.36802856 8.31445312 0.46801758 C9.31387939 0.52626709 10.31330566 0.5845166 11.34301758 0.64453125 C22.2566176 1.34027214 31.63359387 3.22392762 41.81445312 7.28051758 C41.81445312 7.94051758 41.81445312 8.60051758 41.81445312 9.28051758 C35.73100042 11.41268737 30.16606367 11.59153048 23.75195312 11.53051758 C22.70934326 11.5222998 21.6667334 11.51408203 20.5925293 11.50561523 C13.26105164 11.40282976 5.94221999 11.15716412 -1.37304688 10.65551758 C-2.28642822 10.61072266 -3.19980957 10.56592773 -4.14086914 10.51977539 C-10.31227868 10.00505456 -10.31227868 10.00505456 -12.90283203 7.85571289 C-14.29882812 6.19458008 -14.29882812 6.19458008 -16.18554688 3.28051758 C-14.53554687 2.95051758 -12.88554687 2.62051758 -11.18554688 2.28051758 C-11.18554688 2.94051758 -11.18554688 3.60051758 -11.18554688 4.28051758 C-7.0353554 3.99986267 -7.0353554 3.99986267 -3.78125 1.74658203 C-2.18554688 0.28051758 -2.18554688 0.28051758 0 0 Z " fill="#8A7F76" transform="translate(232.185546875,111.719482421875)"/>
<path d="M0 0 C2.97 0 5.94 0 9 0 C9.25 2.8125 9.25 2.8125 9 6 C5.49832161 9.60634812 0.38912992 10.89550529 -4.25 12.5 C-5.13518311 12.80752197 -6.02036621 13.11504395 -6.93237305 13.43188477 C-17.09168796 16.85236679 -27.21380677 19.2347827 -38 19 C-38 16.36 -38 13.72 -38 11 C-37.41621582 10.89453857 -36.83243164 10.78907715 -36.23095703 10.68041992 C-33.52786952 10.18863411 -30.82646686 9.68810875 -28.125 9.1875 C-27.2071875 9.02185547 -26.289375 8.85621094 -25.34375 8.68554688 C-19.08007763 7.5166221 -13.06857122 5.93326452 -7 4 C-5.824375 3.649375 -4.64875 3.29875 -3.4375 2.9375 C-0.84681777 2.25552668 -0.84681777 2.25552668 0 0 Z " fill="#0C0809" transform="translate(155,102)"/>
<path d="M0 0 C0.91058531 3.07322544 1.08886184 5.80097361 1 9 C-0.32 9.66 -1.64 10.32 -3 11 C-1.02 11.495 -1.02 11.495 1 12 C1 12.66 1 13.32 1 14 C-3.32330779 14.0496011 -7.64646285 14.0858144 -11.9699707 14.10986328 C-13.43940112 14.11989352 -14.90881171 14.13352101 -16.37817383 14.15087891 C-18.49565537 14.17525898 -20.61287199 14.18651286 -22.73046875 14.1953125 C-24.00301514 14.20578613 -25.27556152 14.21625977 -26.58666992 14.22705078 C-29.85835171 14.00942228 -32.06957366 13.41502625 -35 12 C-35 11.34 -35 10.68 -35 10 C-36.04917603 9.98969254 -37.09835205 9.97938507 -38.17932129 9.96876526 C-48.17886828 9.87002544 -58.17836674 9.76721877 -68.17783356 9.66066074 C-73.31580374 9.60603312 -78.45377981 9.5527258 -83.59179688 9.50268555 C-123.00556429 9.11702576 -123.00556429 9.11702576 -137.40625 8.52734375 C-138.3178186 8.49024796 -139.22938721 8.45315216 -140.1685791 8.41493225 C-144.83819934 8.19373641 -149.38412027 7.74328097 -154 7 C-154 6.67 -154 6.34 -154 6 C-152.57005455 6.04445755 -152.57005455 6.04445755 -151.11122131 6.08981323 C-126.3876731 6.84528993 -101.68507603 7.16150711 -76.95043945 7.13037109 C-72.31091592 7.12460208 -67.67144885 7.12811575 -63.03192711 7.13380814 C-31.91885821 7.68460063 -31.91885821 7.68460063 -1 5 C-1 4.34 -1 3.68 -1 3 C-2.98 2.67 -4.96 2.34 -7 2 C-4.35261084 0.5393715 -3.10551666 0 0 0 Z " fill="#ECDDC9" transform="translate(275,116)"/>
<path d="M0 0 C0.66 0.33 1.32 0.66 2 1 C1.360625 1.28875 0.72125 1.5775 0.0625 1.875 C-2.15206079 2.82823451 -2.15206079 2.82823451 -3 5 C-2.34 5.33 -1.68 5.66 -1 6 C-1 5.34 -1 4.68 -1 4 C8.01319115 0.79530981 16.29711917 1.05907283 25 5 C25 5.99 25 6.98 25 8 C24.01 7.67 23.02 7.34 22 7 C22 6.34 22 5.68 22 5 C11.27671188 3.45369513 4.92871573 4.76615505 -4.4375 9.875 C-8.18473137 12.98246016 -9.69575474 15.61486738 -10.31640625 20.48046875 C-10.61443541 27.29668414 -9.40159772 33.05262054 -6 39 C-5.071875 39.886875 -4.14375 40.77375 -3.1875 41.6875 C-1 44 -1 44 -1.0625 47.75 C-1.5265625 49.35875 -1.5265625 49.35875 -2 51 C-2.99 51.495 -2.99 51.495 -4 52 C-4 51.34 -4 50.68 -4 50 C-4.58394531 49.75121094 -5.16789063 49.50242188 -5.76953125 49.24609375 C-8.31316284 47.82504563 -9.79407698 46.26807085 -11.6875 44.0625 C-12.28949219 43.37285156 -12.89148438 42.68320313 -13.51171875 41.97265625 C-17.95096818 36.08861173 -16.54463395 26.07543575 -16 19 C-14.47835474 10.76460909 -9.73069165 5.74743076 -3 1 C-2.01 0.67 -1.02 0.34 0 0 Z " fill="#EEB61F" transform="translate(202,161)"/>
<path d="M0 0 C3.90263667 2.92697751 5.96910212 6.28230637 7.5 10.875 C7.5685495 12.76970816 7.58480372 14.6666834 7.5625 16.5625 C7.55347656 17.55636719 7.54445312 18.55023438 7.53515625 19.57421875 C7.52355469 20.33347656 7.51195312 21.09273437 7.5 21.875 C5.84385343 22.25718767 4.17542976 22.58895102 2.5 22.875 C0.81792448 21.19292448 1.33621409 18.92814773 1.25 16.625 C0.86221299 11.64431575 0.86221299 11.64431575 -2 7.75 C-2.825 7.13125 -3.65 6.5125 -4.5 5.875 C-4.83 5.545 -5.16 5.215 -5.5 4.875 C-11.59086807 4.35882474 -14.63243768 4.81869807 -19.5 8.875 C-21.50293347 11.87940021 -21.99271626 13.58493945 -22.625 17.0625 C-22.79257813 17.96355469 -22.96015625 18.86460937 -23.1328125 19.79296875 C-23.25398437 20.48003906 -23.37515625 21.16710937 -23.5 21.875 C-25.15 21.875 -26.8 21.875 -28.5 21.875 C-29.10812365 13.47951515 -28.0340353 9.09304214 -22.5625 2.5625 C-16.27484412 -2.58194572 -7.43667105 -2.39035855 0 0 Z " fill="#1A1616" transform="translate(223.5,172.125)"/>
<path d="M0 0 C3.11688198 2.16134152 5.07014663 4.18916286 6.953125 7.484375 C7.71230628 12.60884861 7.60368555 17.69012942 7.453125 22.859375 C5.803125 22.859375 4.153125 22.859375 2.453125 22.859375 C2.42734375 22.12332031 2.4015625 21.38726562 2.375 20.62890625 C1.9838755 12.91519337 1.9838755 12.91519337 -2.546875 6.859375 C-6.0396668 5.1129791 -9.72870635 5.44156193 -13.546875 5.859375 C-17.10187685 6.89554251 -17.10187685 6.89554251 -19.546875 9.859375 C-20.92947435 13.79768829 -21.8111912 17.75503382 -22.546875 21.859375 C-24.196875 21.859375 -25.846875 21.859375 -27.546875 21.859375 C-28.09669032 15.21271863 -28.1536227 10.02277148 -24.07421875 4.51953125 C-17.94245116 -2.14543352 -8.32791104 -3.72967795 0 0 Z " fill="#191514" transform="translate(157.546875,170.140625)"/>
<path d="M0 0 C0.33 0 0.66 0 1 0 C1.144375 0.94875 1.28875 1.8975 1.4375 2.875 C1.82935399 5.8934494 1.82935399 5.8934494 3 8 C2.01 8 1.02 8 0 8 C0 8.66 0 9.32 0 10 C0.99 10.33 1.98 10.66 3 11 C3 11.66 3 12.32 3 13 C7.14093698 13.20970559 7.14093698 13.20970559 11 12 C11 12.66 11 13.32 11 14 C16.80252883 14.23683791 21.47934304 13.8026635 27 12 C27.66 12 28.32 12 29 12 C29.495 13.98 29.495 13.98 30 16 C34.62 15.67 39.24 15.34 44 15 C43.24849977 11.72226496 43.24849977 11.72226496 40 10 C41.36125 10.061875 41.36125 10.061875 42.75 10.125 C45.87366642 10.25841125 45.87366642 10.25841125 47.78125 8.96875 C50.91420962 7.60083806 53.37521122 8.03752112 56.75 8.375 C57.92046875 8.48585938 59.0909375 8.59671875 60.296875 8.7109375 C61.18890625 8.80632812 62.0809375 8.90171875 63 9 C63.495 10.485 63.495 10.485 64 12 C63.360625 12.12375 62.72125 12.2475 62.0625 12.375 C61.381875 12.58125 60.70125 12.7875 60 13 C59.67 13.66 59.34 14.32 59 15 C59 14.34 59 13.68 59 13 C57.68 13.33 56.36 13.66 55 14 C55 13.34 55 12.68 55 12 C54.34 12.33 53.68 12.66 53 13 C54.95216435 14.95216435 56.53199953 15.84826645 59 17 C56.60910715 18.19544643 55.21019553 18.0991147 52.54467773 18.0534668 C51.61868271 18.0398259 50.69268768 18.026185 49.7386322 18.01213074 C48.73046951 17.99136978 47.72230682 17.97060883 46.68359375 17.94921875 C45.63913589 17.9303511 44.59467804 17.91148346 43.51856995 17.89204407 C41.29496116 17.85006422 39.0714032 17.80531749 36.84790039 17.75805664 C33.50351696 17.6888658 30.15911462 17.6338843 26.81445312 17.58007812 C11.96581027 17.30403775 -2.57253469 16.80330572 -17 13 C-13.75507402 9.75507402 -9.27942483 9.00176112 -4.96875 7.609375 C-1.719736 6.23892629 -1.719736 6.23892629 -0.59375 2.828125 C-0.3978125 1.89484375 -0.201875 0.9615625 0 0 Z " fill="#A08F82" transform="translate(164,103)"/>
<path d="M0 0 C2.0625 0.9375 2.0625 0.9375 4.4375 2.875 C6.97634228 5.12401018 6.97634228 5.12401018 10.3125 5.9375 C13.0625 6.9375 13.0625 6.9375 14 8.9375 C14.0625 10.9375 14.0625 10.9375 13.0625 12.9375 C12.44375 13.205625 11.825 13.47375 11.1875 13.75 C8.42164232 15.29562635 7.59691157 17.21740676 6.0625 19.9375 C2.32106257 21.80821872 -1.87384591 21.61371245 -5.9375 20.9375 C-8.5990019 19.18666652 -9.30434312 17.82274382 -10.9375 14.9375 C-11.3125 12.125 -11.3125 12.125 -10.9375 9.9375 C-9.9375 8.9375 -9.9375 8.9375 -6.875 8.875 C-5.4209375 8.9059375 -5.4209375 8.9059375 -3.9375 8.9375 C-3.9375 7.6175 -3.9375 6.2975 -3.9375 4.9375 C-4.5975 4.2775 -5.2575 3.6175 -5.9375 2.9375 C-2.55518369 -0.08242528 -2.55518369 -0.08242528 0 0 Z " fill="#E2D3C4" transform="translate(177.9375,217.0625)"/>
<path d="M0 0 C2 2 2 2 2.125 4.625 C2.08375 5.40875 2.0425 6.1925 2 7 C1.16855469 6.96519531 0.33710937 6.93039063 -0.51953125 6.89453125 C-1.60621094 6.86746094 -2.69289063 6.84039062 -3.8125 6.8125 C-4.89144531 6.77769531 -5.97039062 6.74289063 -7.08203125 6.70703125 C-10.44840179 7.04502026 -10.81854626 7.61534235 -13 10 C-15.375 10.6953125 -15.375 10.6953125 -18 11.125 C-20.80610945 11.60103642 -23.29044437 12.09681479 -26 13 C-26 13.66 -26 14.32 -26 15 C-25.34 15.33 -24.68 15.66 -24 16 C-26.25 17.625 -26.25 17.625 -29 19 C-31.25 18.5625 -31.25 18.5625 -33 17 C-34.0625 14.1875 -34.0625 14.1875 -34 11 C-30.17630773 5.05203424 -23.59612605 3.55999093 -17 2 C-13.9679806 1.44989536 -10.93196434 1.01115987 -7.875 0.625 C-7.12831055 0.52807861 -6.38162109 0.43115723 -5.61230469 0.33129883 C-3.74918621 0.12941093 -1.87323284 0.05447881 0 0 Z " fill="#EFE7DA" transform="translate(112,102)"/>
<path d="M0 0 C4.05606165 0.46800711 7.46588679 0.87953208 11 3 C11 3.66 11 4.32 11 5 C12.48011371 4.69201674 13.95907325 4.378482 15.4375 4.0625 C16.26121094 3.88847656 17.08492187 3.71445313 17.93359375 3.53515625 C19.97661204 3.19247006 19.97661204 3.19247006 21 2 C23.67058851 1.85884839 26.32432238 1.95752893 29 2 C29 2.66 29 3.32 29 4 C33.71400401 6.58509897 37.90548213 5.99087872 43 5 C43.66 4.67 44.32 4.34 45 4 C49.86758823 3.55749198 52.78389753 4.59079859 57 7 C56.67 8.32 56.34 9.64 56 11 C53 10 50 9 47 8 C45.29820465 8.75271717 43.59750621 9.50840475 41.91015625 10.29296875 C38.90889219 11.40386608 36.15087061 11.24712711 33 11 C32.34 10.67 31.68 10.34 31 10 C31 9.34 31 8.68 31 8 C25.62205152 7.13296691 22.06314557 6.73490856 17 9 C12.79941476 9.4500627 10.81990335 9.60516675 7.375 7.0625 C6.59125 6.381875 5.8075 5.70125 5 5 C2.31492671 4.21053391 2.31492671 4.21053391 0 4 C0 2.68 0 1.36 0 0 Z " fill="#AEA8A7" transform="translate(91,140)"/>
<path d="M0 0 C0.66 0 1.32 0 2 0 C3.125 5.75 3.125 5.75 2 8 C1.91097507 9.35845193 1.88239868 10.72115974 1.88647461 12.08251953 C1.88655014 12.92324005 1.88662567 13.76396057 1.88670349 14.63015747 C1.89186478 15.53853363 1.89702606 16.44690979 1.90234375 17.3828125 C1.9037587 18.31221649 1.90517365 19.24162048 1.90663147 20.19918823 C1.91223947 23.17449124 1.92479332 26.14971964 1.9375 29.125 C1.94251397 31.13932183 1.94707705 33.15364484 1.95117188 35.16796875 C1.9622115 40.11200802 1.97948151 45.05599135 2 50 C1.34 50 0.68 50 0 50 C-2.03874376 39.06886323 -3.5374801 28.11636779 -4.75 17.0625 C-4.88962158 15.8240332 -5.02924316 14.58556641 -5.1730957 13.30957031 C-5.29644287 12.14651367 -5.41979004 10.98345703 -5.546875 9.78515625 C-5.65870117 8.74238525 -5.77052734 7.69961426 -5.88574219 6.62524414 C-6 4 -6 4 -5 1 C-4.34 1.33 -3.68 1.66 -3 2 C-2.67 2.99 -2.34 3.98 -2 5 C-1.34 5.33 -0.68 5.66 0 6 C0 4.02 0 2.04 0 0 Z " fill="#0F0B0B" transform="translate(246,287)"/>
<path d="M0 0 C0 1.98 0 3.96 0 6 C-6.03569533 8.68253126 -11.37076375 9.90666286 -18 9 C-18.99 8.34 -19.98 7.68 -21 7 C-25.10094753 6.60567812 -27.58729157 6.81657403 -31.375 8.5 C-35.78406786 10.32444187 -39.30667752 10.28734627 -44 10 C-44 8.68 -44 7.36 -44 6 C-41.03 6 -38.06 6 -35 6 C-35 5.34 -35 4.68 -35 4 C-29.24940886 1.03195296 -23.39516309 1.30986826 -17.3125 3.0625 C-9.90754994 5.15824058 -6.58826201 0 0 0 Z " fill="#999595" transform="translate(267,142)"/>
<path d="M0 0 C15.63806391 -0.20668446 31.20420526 -0.20588979 46.8125 0.875 C48.6073584 0.99270752 48.6073584 0.99270752 50.43847656 1.11279297 C52.08734863 1.23871826 52.08734863 1.23871826 53.76953125 1.3671875 C54.73479736 1.44050293 55.70006348 1.51381836 56.69458008 1.58935547 C59 2 59 2 61 4 C32.95 4 4.9 4 -24 4 C-24 3.67 -24 3.34 -24 3 C-11.79 3 0.42 3 13 3 C13 2.34 13 1.68 13 1 C8.71 1 4.42 1 0 1 C0 0.67 0 0.34 0 0 Z " fill="#EA9036" transform="translate(184,120)"/>
<path d="M0 0 C3.35427672 0.55904612 4.57530103 1.16046608 7 3.5 C7.828125 6.19921875 7.828125 6.19921875 8.25 9.1875 C8.39953125 10.18136719 8.5490625 11.17523438 8.703125 12.19921875 C8.85007812 13.33810547 8.85007812 13.33810547 9 14.5 C10.32 14.83 11.64 15.16 13 15.5 C12.360625 15.726875 11.72125 15.95375 11.0625 16.1875 C8.72806339 17.35250896 8.72806339 17.35250896 8.25 20.125 C8.1675 20.90875 8.085 21.6925 8 22.5 C5.69 22.5 3.38 22.5 1 22.5 C1.33 17.55 1.66 12.6 2 7.5 C1.01 7.995 1.01 7.995 0 8.5 C-1.99960012 8.539992 -4.00047242 8.54346799 -6 8.5 C-6.33 7.51 -6.66 6.52 -7 5.5 C-5.00107888 2.06185567 -3.99266325 0.66544388 0 0 Z " fill="#ECB632" transform="translate(248,270.5)"/>
<path d="M0 0 C0.66 0 1.32 0 2 0 C2.33 11.22 2.66 22.44 3 34 C3.99 30.535 3.99 30.535 5 27 C5.33 27 5.66 27 6 27 C5.98839844 28.04800781 5.97679687 29.09601563 5.96484375 30.17578125 C5.95546345 31.55468572 5.9463635 32.93359211 5.9375 34.3125 C5.92912109 35.00279297 5.92074219 35.69308594 5.91210938 36.40429688 C5.89692094 39.5483025 5.99806673 41.99420019 7 45 C6.66015625 47.48046875 6.66015625 47.48046875 6.0625 50.1875 C5.86785156 51.08855469 5.67320312 51.98960937 5.47265625 52.91796875 C5.31667969 53.60503906 5.16070312 54.29210937 5 55 C3.125 55.625 3.125 55.625 1 56 C-1 54 -1 54 -1.1953125 51.1796875 C-1.17210937 50.08914063 -1.14890625 48.99859375 -1.125 47.875 C-1.10695312 46.77929688 -1.08890625 45.68359375 -1.0703125 44.5546875 C-1.04710937 43.71164062 -1.02390625 42.86859375 -1 42 C-0.34 42 0.32 42 1 42 C0.95456055 41.15743652 0.95456055 41.15743652 0.90820312 40.29785156 C0.19908563 26.85189295 -0.13142662 13.46392727 0 0 Z " fill="#2B2522" transform="translate(247,295)"/>
<path d="M0 0 C1.07822021 0.00012085 1.07822021 0.00012085 2.17822266 0.00024414 C7.98521724 0.06277695 13.06606252 0.56428126 18.3125 3.1875 C18.3125 3.8475 18.3125 4.5075 18.3125 5.1875 C18.90675781 5.27386719 19.50101563 5.36023438 20.11328125 5.44921875 C22.92559635 6.39331742 23.77798449 7.61396823 25.5 10 C26.00917969 10.68707031 26.51835937 11.37414062 27.04296875 12.08203125 C28.28982208 14.14988954 28.87245157 15.82820422 29.3125 18.1875 C29.9725 18.1875 30.6325 18.1875 31.3125 18.1875 C31.18875 19.095 31.065 20.0025 30.9375 20.9375 C31.06125 22.01 31.185 23.0825 31.3125 24.1875 C34.19759913 26.61172186 34.19759913 26.61172186 37.3125 28.1875 C37.125 31 37.125 31 36.3125 34.1875 C34.66916496 35.22539581 33.00006133 36.22317924 31.3125 37.1875 C30.28088392 39.17137708 29.27726382 41.17026656 28.3125 43.1875 C27.3225 43.5175 26.3325 43.8475 25.3125 44.1875 C26.3025 40.8875 27.2925 37.5875 28.3125 34.1875 C30.7875 33.6925 30.7875 33.6925 33.3125 33.1875 C33.6425 31.5375 33.9725 29.8875 34.3125 28.1875 C33.36117187 28.00445312 32.40984375 27.82140625 31.4296875 27.6328125 C28.3125 26.1875 28.3125 26.1875 27.0703125 22.9296875 C26.86148438 21.65351563 26.65265625 20.37734375 26.4375 19.0625 C26.10105469 17.14050781 26.10105469 17.14050781 25.7578125 15.1796875 C25.61085937 14.19226563 25.46390625 13.20484375 25.3125 12.1875 C24.6525 12.1875 23.9925 12.1875 23.3125 12.1875 C21.1875 10.3125 21.1875 10.3125 19.3125 8.1875 C19.3125 7.5275 19.3125 6.8675 19.3125 6.1875 C18.714375 6.06375 18.11625 5.94 17.5 5.8125 C15.3125 5.1875 15.3125 5.1875 12.3125 3.1875 C2.55003787 1.1103804 -5.97091474 1.18353439 -14.6875 6.1875 C-15.3475 5.8575 -16.0075 5.5275 -16.6875 5.1875 C-10.85120623 1.16694207 -7.00237353 -0.00719258 0 0 Z " fill="#E5C384" transform="translate(212.6875,157.8125)"/>
<path d="M0 0 C0.66 0 1.32 0 2 0 C1.67 4.95 1.34 9.9 1 15 C1.66 15 2.32 15 3 15 C4.38354795 21.18823265 3.3923332 25.83185144 1.6875 31.875 C1.46126953 32.74125 1.23503906 33.6075 1.00195312 34.5 C-0.27524654 39.1965613 -0.27524654 39.1965613 -1 41 C-1.99 41.495 -1.99 41.495 -3 42 C-2.98839844 41.10796875 -2.97679687 40.2159375 -2.96484375 39.296875 C-2.95582031 38.12640625 -2.94679687 36.9559375 -2.9375 35.75 C-2.92589844 34.58984375 -2.91429687 33.4296875 -2.90234375 32.234375 C-2.85367038 29.19675564 -2.85367038 29.19675564 -3.5546875 27.1640625 C-4.14446246 24.29796313 -3.70786936 22.02249681 -3.22265625 19.140625 C-3.03896484 18.02558594 -2.85527344 16.91054688 -2.66601562 15.76171875 C-2.46685547 14.60285156 -2.26769531 13.44398438 -2.0625 12.25 C-1.86720703 11.07566406 -1.67191406 9.90132813 -1.47070312 8.69140625 C-0.98763371 5.79298975 -0.49714131 2.89603033 0 0 Z " fill="#1C1717" transform="translate(255,296)"/>
<path d="M0 0 C1.32 0 2.64 0 4 0 C4.66 1.98 5.32 3.96 6 6 C9.48809191 5.22969878 9.48809191 5.22969878 13 4 C13.33 3.01 13.66 2.02 14 1 C15.65 1 17.3 1 19 1 C18.72409808 4.58672493 18.40452578 7.31406497 16.5625 10.4375 C12.5152795 12.90531738 8.59580458 12.9874669 4 12 C1.34971484 10.2311844 0.63504176 8.88857377 -1 6 C-1.375 3.1875 -1.375 3.1875 -1 1 C-0.67 0.67 -0.34 0.34 0 0 Z " fill="#8B7F75" transform="translate(168,226)"/>
<path d="M0 0 C4.22620089 0.31826945 8.07221417 1.1471217 12.1640625 2.23828125 C12.4940625 3.55828125 12.8240625 4.87828125 13.1640625 6.23828125 C14.1540625 6.23828125 15.1440625 6.23828125 16.1640625 6.23828125 C16.8240625 7.88828125 17.4840625 9.53828125 18.1640625 11.23828125 C15.7890625 10.92578125 15.7890625 10.92578125 13.1640625 10.23828125 C12.5040625 9.24828125 11.8440625 8.25828125 11.1640625 7.23828125 C3.21183597 4.02355138 -5.53302361 4.76220767 -13.8359375 6.23828125 C-13.8359375 6.89828125 -13.8359375 7.55828125 -13.8359375 8.23828125 C-14.8259375 7.90828125 -15.8159375 7.57828125 -16.8359375 7.23828125 C-14.8359375 4.23828125 -14.8359375 4.23828125 -11.8359375 3.23828125 C-11.39507812 2.72910156 -10.95421875 2.21992188 -10.5 1.6953125 C-7.49623407 -0.93474546 -3.80773009 -0.08801323 0 0 Z " fill="#F0B310" transform="translate(214.8359375,158.76171875)"/>
<path d="M0 0 C3.08020372 0.24731563 6.09234124 0.66382771 9.140625 1.171875 C8.480625 2.821875 7.820625 4.471875 7.140625 6.171875 C3.180625 5.841875 -0.779375 5.511875 -4.859375 5.171875 C-4.859375 6.161875 -4.859375 7.151875 -4.859375 8.171875 C-6.220625 8.1409375 -6.220625 8.1409375 -7.609375 8.109375 C-10.28610088 8.1608505 -12.32925552 8.3933767 -14.859375 9.171875 C-16.509375 7.191875 -18.159375 5.211875 -19.859375 3.171875 C-18.209375 2.841875 -16.559375 2.511875 -14.859375 2.171875 C-14.859375 2.831875 -14.859375 3.491875 -14.859375 4.171875 C-10.70174651 3.90267577 -10.70174651 3.90267577 -7.484375 1.609375 C-5.15465169 -0.45153408 -2.99194207 -0.11081267 0 0 Z " fill="#94877A" transform="translate(235.859375,111.828125)"/>
<path d="M0 0 C0.66 0 1.32 0 2 0 C1.67 2.64 1.34 5.28 1 8 C0.34 7.67 -0.32 7.34 -1 7 C-2.71930952 7.72740018 -4.43715048 8.45890838 -6.140625 9.22265625 C-11.75112686 11.5682232 -15.32514537 10.6351276 -21 9 C-25.76308095 8.63928475 -30.35705093 8.8018196 -35 10 C-35 10.66 -35 11.32 -35 12 C-37.31 12 -39.62 12 -42 12 C-41 10 -41 10 -38.1640625 9 C-36.41222656 8.505 -36.41222656 8.505 -34.625 8 C-30.91162815 6.94609402 -28.22324407 6.14882938 -25 4 C-25 4.66 -25 5.32 -25 6 C-23.35 5.67 -21.7 5.34 -20 5 C-20 5.99 -20 6.98 -20 8 C-18.58376784 8.05447047 -17.16691809 8.09300508 -15.75 8.125 C-14.56664062 8.15980469 -14.56664062 8.15980469 -13.359375 8.1953125 C-9.97722629 7.9153333 -7.82366165 6.82366165 -5.4375 4.4375 C-4 3 -4 3 -1 2 C-0.67 1.34 -0.34 0.68 0 0 Z " fill="#D4C7BC" transform="translate(267,136)"/>
<path d="M0 0 C0.33 0 0.66 0 1 0 C1.144375 0.94875 1.28875 1.8975 1.4375 2.875 C1.82935399 5.8934494 1.82935399 5.8934494 3 8 C2.01 8 1.02 8 0 8 C0 8.66 0 9.32 0 10 C0.99 10.33 1.98 10.66 3 11 C2.67 12.32 2.34 13.64 2 15 C-4.7281627 15.22262303 -10.53991163 14.95021536 -17 13 C-13.75507402 9.75507402 -9.27942483 9.00176112 -4.96875 7.609375 C-1.719736 6.23892629 -1.719736 6.23892629 -0.59375 2.828125 C-0.3978125 1.89484375 -0.201875 0.9615625 0 0 Z " fill="#988578" transform="translate(164,103)"/>
<path d="M0 0 C0.33 0 0.66 0 1 0 C1.33 6.6 1.66 13.2 2 20 C2.99 20.33 3.98 20.66 5 21 C5 21.66 5 22.32 5 23 C5.66 23 6.32 23 7 23 C7 23.99 7 24.98 7 26 C7.99 26 8.98 26 10 26 C10 27.32 10 28.64 10 30 C8.125 29.8125 8.125 29.8125 6 29 C4.75 26.4375 4.75 26.4375 4 24 C3.01 24 2.02 24 1 24 C-2.24914749 19.12627877 -2.15710269 14.58190937 -2.1875 8.8125 C-2.20167969 7.58144531 -2.21585938 6.35039062 -2.23046875 5.08203125 C-2 2 -2 2 0 0 Z " fill="#F1B30C" transform="translate(189,179)"/>
<path d="M0 0 C0.66 0.99 1.32 1.98 2 3 C1.01 4.485 1.01 4.485 0 6 C0.165 6.639375 0.33 7.27875 0.5 7.9375 C1 10 1 10 0.0625 11.80859375 C-1.50765841 15.04704547 -1.44551005 18.20684432 -1.65625 21.7578125 C-2 24 -2 24 -4 26 C-6.55128221 20.10015988 -7.48294918 12.93121434 -5.171875 6.8046875 C-3.72330586 4.22104552 -2.09263824 2.09263824 0 0 Z " fill="#EDE1CE" transform="translate(197,170)"/>
<path d="M0 0 C0.495 1.98 0.495 1.98 1 4 C-13.85 4 -28.7 4 -44 4 C-43.67 3.34 -43.34 2.68 -43 2 C-41.792229 1.96241577 -41.792229 1.96241577 -40.56005859 1.92407227 C-37.49959897 1.82748842 -34.43923338 1.7283739 -31.37890625 1.62768555 C-29.43235185 1.56436561 -27.4857078 1.50382035 -25.5390625 1.44335938 C-17.00380481 1.16030236 -8.51311642 0.67165439 0 0 Z " fill="#C4BCB3" transform="translate(219,283)"/>
<path d="M0 0 C0.66 0 1.32 0 2 0 C2.57298964 6.32744272 0.97364564 9.59776406 -2.375 14.6875 C-3.19635263 15.98241376 -4.01669648 17.27796803 -4.8359375 18.57421875 C-5.21975586 19.17097412 -5.60357422 19.76772949 -5.99902344 20.38256836 C-7.09048322 22.08855903 -7.09048322 22.08855903 -8.1640625 24.359375 C-9.30343277 26.59552226 -10.98354906 27.55067588 -13 29 C-13.66 29.99 -14.32 30.98 -15 32 C-16.65 30.35 -18.3 28.7 -20 27 C-18.35 27 -16.7 27 -15 27 C-15 26.34 -15 25.68 -15 25 C-13.35 24.67 -11.7 24.34 -10 24 C-10 23.01 -10 22.02 -10 21 C-9.34 21 -8.68 21 -8 21 C-7.87625 20.195625 -7.7525 19.39125 -7.625 18.5625 C-7.41875 17.716875 -7.2125 16.87125 -7 16 C-6.34 15.67 -5.68 15.34 -5 15 C-4.34227572 11.97065509 -4.34227572 11.97065509 -4 9 C-3.34 9 -2.68 9 -2 9 C-2 8.01 -2 7.02 -2 6 C-1.34 6 -0.68 6 0 6 C0 4.02 0 2.04 0 0 Z " fill="#D3C6B9" transform="translate(284,240)"/>
<path d="M0 0 C2.66666667 0 5.33333333 0 8 0 C7.34 4.29 6.68 8.58 6 13 C4.68 13.33 3.36 13.66 2 14 C0 12 0 12 -0.1953125 9.1796875 C-0.17210937 8.08914063 -0.14890625 6.99859375 -0.125 5.875 C-0.10695312 4.77929688 -0.08890625 3.68359375 -0.0703125 2.5546875 C-0.04710937 1.71164062 -0.02390625 0.86859375 0 0 Z " fill="#57514E" transform="translate(246,337)"/>
<path d="M0 0 C0 0.33 0 0.66 0 1 C-1.27875 0.98839844 -2.5575 0.97679688 -3.875 0.96484375 C-5.58333186 0.95545731 -7.29166532 0.94635803 -9 0.9375 C-9.83917969 0.92912109 -10.67835938 0.92074219 -11.54296875 0.91210938 C-16.79319339 0.89175967 -21.80455662 1.23631793 -27 2 C-27 2.66 -27 3.32 -27 4 C-22.05 4 -17.1 4 -12 4 C-12 4.33 -12 4.66 -12 5 C-15.0000624 5.02721831 -17.99987256 5.04694378 -21 5.0625 C-22.25876953 5.07506836 -22.25876953 5.07506836 -23.54296875 5.08789062 C-28.79319339 5.10824033 -33.80455662 4.76368207 -39 4 C-34.96305964 1.30870643 -31.02621462 0.7939191 -26.3125 -0.125 C-25.00249023 -0.39763672 -25.00249023 -0.39763672 -23.66601562 -0.67578125 C-15.24291556 -2.3490782 -8.29111697 -2.36889056 0 0 Z " fill="#EC7717" transform="translate(160,118)"/>
<path d="M0 0 C3.625 -0.1875 3.625 -0.1875 7 0 C10.18482809 5.55141971 9.5660349 11.93161477 8 18 C7.01 18 6.02 18 5 18 C5 14.66666667 5 11.33333333 5 8 C4.39238047 5.86747263 4.39238047 5.86747263 3 4 C0.44480079 3.18828772 0.44480079 3.18828772 -2 3 C-1.34 2.01 -0.68 1.02 0 0 Z " fill="#EEAF19" transform="translate(247,273)"/>
<path d="M0 0 C0.66 0.33 1.32 0.66 2 1 C0.875 2.5 0.875 2.5 -1 4 C-4.1875 4.1875 -4.1875 4.1875 -7 4 C-6.67 4.66 -6.34 5.32 -6 6 C-2.97065509 6.65772428 -2.97065509 6.65772428 0 7 C0 7.33 0 7.66 0 8 C-5.31166864 9.32791716 -10.75881575 9.74706142 -16 8 C-16 6.35 -16 4.7 -16 3 C-14.39318359 2.80083984 -14.39318359 2.80083984 -12.75390625 2.59765625 C-11.35674231 2.4194944 -9.95960841 2.24109681 -8.5625 2.0625 C-7.85544922 1.97548828 -7.14839844 1.88847656 -6.41992188 1.79882812 C-2.91182032 1.61783809 -2.91182032 1.61783809 0 0 Z " fill="#ECB736" transform="translate(223,206)"/>
<path d="M0 0 C0.33 0 0.66 0 1 0 C1.17015625 0.79664063 1.3403125 1.59328125 1.515625 2.4140625 C3.62706502 12.05043167 3.62706502 12.05043167 9.8125 19.4375 C11 21 11 21 10.8125 24.625 C10.544375 25.73875 10.27625 26.8525 10 28 C9.34 28.33 8.68 28.66 8 29 C8 28.34 8 27.68 8 27 C7.4225 26.7525 6.845 26.505 6.25 26.25 C3.67060021 24.81700012 1.93878408 23.21575324 0 21 C0 20.34 0 19.68 0 19 C0.99 19 1.98 19 3 19 C4.01866229 20.65532623 5.01810813 22.32260138 6 24 C6.99 24.33 7.98 24.66 9 25 C9 23.68 9 22.36 9 21 C8.01 21 7.02 21 6 21 C6 20.01 6 19.02 6 18 C5.34 18 4.68 18 4 18 C2.41796875 16.98046875 2.41796875 16.98046875 1 15 C0.62355152 12.37060795 0.39866913 9.94927528 0.3125 7.3125 C0.27833984 6.61060547 0.24417969 5.90871094 0.20898438 5.18554688 C0.12670053 3.45758613 0.0616676 1.72881928 0 0 Z " fill="#D6A33F" transform="translate(190,184)"/>
<path d="M0 0 C1.32 0.33 2.64 0.66 4 1 C4 1.66 4 2.32 4 3 C5.32 3.66 6.64 4.32 8 5 C8 5.66 8 6.32 8 7 C8.66 7 9.32 7 10 7 C10 7.66 10 8.32 10 9 C9.01 9.33 8.02 9.66 7 10 C7.144375 10.53367188 7.28875 11.06734375 7.4375 11.6171875 C9.26786571 18.96407207 10.71941074 27.02610486 7 34 C6 31 6 31 7 28 C7.59554046 19.21577822 5.11182356 13.05079112 0 6 C2.475 6.495 2.475 6.495 5 7 C4.34 5.35 3.68 3.7 3 2 C2.01 2 1.02 2 0 2 C0 1.34 0 0.68 0 0 Z " fill="#EBBB41" transform="translate(228,163)"/>
<path d="M0 0 C0.66 0 1.32 0 2 0 C2 1.32 2 2.64 2 4 C-1.70821628 6.35108558 -5.48605238 6.43155058 -9.75 6.625 C-10.44738281 6.66367187 -11.14476562 6.70234375 -11.86328125 6.7421875 C-13.57510818 6.83598624 -15.28751682 6.91906174 -17 7 C-13.83567165 2.18838208 -13.83567165 2.18838208 -10.01953125 1.328125 C-8.96121094 1.30234375 -7.90289062 1.2765625 -6.8125 1.25 C-3.09224539 1.46352908 -3.09224539 1.46352908 0 0 Z " fill="#D4C7BB" transform="translate(238,293)"/>
<path d="M0 0 C2.60623288 1.35625323 4.92182245 2.91550581 7 5 C7 5.66 7 6.32 7 7 C5.68 7.33 4.36 7.66 3 8 C2.71125 7.360625 2.4225 6.72125 2.125 6.0625 C1.17176549 3.84793921 1.17176549 3.84793921 -1 3 C-3.95788569 2.5832448 -3.95788569 2.5832448 -7 3 C-9.47206611 5.38682245 -10.40142752 7.6479941 -11 11 C-11.99 11 -12.98 11 -14 11 C-14 10.34 -14 9.68 -14 9 C-14.66 8.67 -15.32 8.34 -16 8 C-14.625 6.5 -14.625 6.5 -13 5 C-12.34 5 -11.68 5 -11 5 C-10.8453125 4.0409375 -10.8453125 4.0409375 -10.6875 3.0625 C-10.460625 2.381875 -10.23375 1.70125 -10 1 C-6.3315241 -0.2228253 -3.86340281 -0.38634028 0 0 Z " fill="#E0BF85" transform="translate(252,269)"/>
<path d="M0 0 C10.16825147 0.46566429 20.33652883 0.93845092 30.5 1.5 C31.52951782 1.55305298 31.52951782 1.55305298 32.57983398 1.60717773 C36.13496559 1.81044248 39.52877804 2.19894878 43 3 C43 3.33 43 3.66 43 4 C37.72 3.67 32.44 3.34 27 3 C26.67 4.32 26.34 5.64 26 7 C26 6.34 26 5.68 26 5 C25.34 5 24.68 5 24 5 C24 4.34 24 3.68 24 3 C22.24623047 3.01740234 22.24623047 3.01740234 20.45703125 3.03515625 C18.90885577 3.04453913 17.36067855 3.0536388 15.8125 3.0625 C15.04357422 3.07087891 14.27464844 3.07925781 13.48242188 3.08789062 C9.48226603 3.10505868 5.92791059 2.82108865 2 2 C1.01 2.495 1.01 2.495 0 3 C0 2.01 0 1.02 0 0 Z " fill="#A89E97" transform="translate(203,109)"/>
<path d="M0 0 C-0.625 3.375 -0.625 3.375 -2 7 C-5.125 8.4375 -5.125 8.4375 -8 9 C-9.37562854 7.71034824 -10.70766393 6.37310707 -12 5 C-12 4.34 -12 3.68 -12 3 C-7.87960164 0.25306776 -4.92304458 0 0 0 Z " fill="#BE9C7E" transform="translate(98,112)"/>
<path d="M0 0 C3.16664666 -0.02940458 6.33325747 -0.04693315 9.5 -0.0625 C10.386875 -0.07087891 11.27375 -0.07925781 12.1875 -0.08789062 C17.55823086 -0.10763596 22.68633663 0.21164107 28 1 C28 1.33 28 1.66 28 2 C23.38 2.33 18.76 2.66 14 3 C13.67 3.99 13.34 4.98 13 6 C10.69 5.34 8.38 4.68 6 4 C6 3.01 6 2.02 6 1 C4.02 1 2.04 1 0 1 C0 0.67 0 0.34 0 0 Z " fill="#ACA097" transform="translate(165,107)"/>
<path d="M0 0 C0.96160034 0.08979126 0.96160034 0.08979126 1.94262695 0.18139648 C9.35334559 0.86520822 16.76852615 1.47576217 24.1875 2.0625 C25.90163086 2.19881836 25.90163086 2.19881836 27.65039062 2.33789062 C30.43355039 2.559146 33.21675342 2.77983991 36 3 C36 3.66 36 4.32 36 5 C33.54159395 5.02691685 31.08348118 5.04679802 28.625 5.0625 C27.92632812 5.07087891 27.22765625 5.07925781 26.5078125 5.08789062 C21.2265625 5.11328125 21.2265625 5.11328125 19 4 C16.62876754 3.76970044 14.25258057 3.58880058 11.875 3.4375 C10.59367188 3.35371094 9.31234375 3.26992187 7.9921875 3.18359375 C6.51105469 3.09271484 6.51105469 3.09271484 5 3 C5 2.34 5 1.68 5 1 C3.35 1 1.7 1 0 1 C0 0.67 0 0.34 0 0 Z " fill="#EB7E1C" transform="translate(161,118)"/>
<path d="M0 0 C0.66 0 1.32 0 2 0 C3.15272364 2.39272922 4.29728845 4.78881621 5.4375 7.1875 C5.76298828 7.86103516 6.08847656 8.53457031 6.42382812 9.22851562 C8.13709695 12.8493415 9.23408049 16.05142465 10 20 C10.66 20.33 11.32 20.66 12 21 C11.34 21.99 10.68 22.98 10 24 C10 23.34 10 22.68 10 22 C9.34 22 8.68 22 8 22 C6.36230799 18.09473444 5.08933903 14.13915813 3.87890625 10.0859375 C2.91955423 7.80907537 1.7372186 6.71322387 0 5 C-0.1875 2.3125 -0.1875 2.3125 0 0 Z " fill="#CFC4B8" transform="translate(276,177)"/>
<path d="M0 0 C0 0.99 0 1.98 0 3 C-0.99 2.67 -1.98 2.34 -3 2 C-3 1.34 -3 0.68 -3 0 C-11.88746091 -1.28157743 -17.95233896 -1.00829449 -26 3 C-26.99 3.33 -27.98 3.66 -29 4 C-29 3.01 -29 2.02 -29 1 C-28.01 1 -27.02 1 -26 1 C-26 0.34 -26 -0.32 -26 -1 C-16.98680885 -4.20469019 -8.70288083 -3.94092717 0 0 Z " fill="#EABE57" transform="translate(227,166)"/>
<path d="M0 0 C0.99 0.66 1.98 1.32 3 2 C5.97449608 2.24219315 5.97449608 2.24219315 9.1875 2.125 C10.27417969 2.10695312 11.36085938 2.08890625 12.48046875 2.0703125 C13.31191406 2.04710937 14.14335937 2.02390625 15 2 C13 5 13 5 11.1875 5.36328125 C5.9978062 5.24280622 1.21292102 4.5659951 -3.8359375 3.33984375 C-6.17430338 2.80278095 -6.17430338 2.80278095 -9 4 C-9.66 3.34 -10.32 2.68 -11 2 C-7.3586453 -0.33046701 -4.2475253 -0.30891093 0 0 Z " fill="#D0C5BA" transform="translate(246,148)"/>
<path d="M0 0 C0.33 0 0.66 0 1 0 C1.33 3.3 1.66 6.6 2 10 C2.66 9.34 3.32 8.68 4 8 C3.75648872 14.94007154 1.93291958 18.17267808 -3 23 C-3.99 22.67 -4.98 22.34 -6 22 C-5.38125 21.62875 -4.7625 21.2575 -4.125 20.875 C-1.4489404 18.51377094 -0.9063156 16.39868348 0 13 C-1.65 13 -3.3 13 -5 13 C-4.35546875 12.78601563 -3.7109375 12.57203125 -3.046875 12.3515625 C-0.72160885 11.1526477 -0.72160885 11.1526477 -0.390625 8.3984375 C-0.34421875 7.40070313 -0.2978125 6.40296875 -0.25 5.375 C-0.19328125 4.37210938 -0.1365625 3.36921875 -0.078125 2.3359375 C-0.05234375 1.56507813 -0.0265625 0.79421875 0 0 Z " fill="#E5CFAC" transform="translate(231,183)"/>
<path d="M0 0 C0.66 0 1.32 0 2 0 C2.33 0.66 2.66 1.32 3 2 C3.928125 1.814375 4.85625 1.62875 5.8125 1.4375 C9 1 9 1 12 2 C12.33 3.32 12.66 4.64 13 6 C6.4 5.34 -0.2 4.68 -7 4 C-6.67 3.34 -6.34 2.68 -6 2 C-3.03 2.495 -3.03 2.495 0 3 C0 2.01 0 1.02 0 0 Z " fill="#80766D" transform="translate(231,117)"/>
<path d="M0 0 C0.33 1.32 0.66 2.64 1 4 C-4.28 4 -9.56 4 -15 4 C-14.67 3.01 -14.34 2.02 -14 1 C-9.38 0.67 -4.76 0.34 0 0 Z " fill="#B4A69D" transform="translate(219,283)"/>
<path d="M0 0 C5.4389165 -0.21755666 9.87080814 -0.10428384 15 2 C14.01 2.495 14.01 2.495 13 3 C13 3.99 13 4.98 13 6 C11.20763933 5.52343588 9.41613103 5.04366502 7.625 4.5625 C6.62726563 4.29566406 5.62953125 4.02882812 4.6015625 3.75390625 C2 3 2 3 0 2 C0 1.34 0 0.68 0 0 Z " fill="#A7A1A1" transform="translate(210,145)"/>
<path d="M0 0 C1.41623216 -0.05447047 2.83308191 -0.09300508 4.25 -0.125 C5.03890625 -0.14820313 5.8278125 -0.17140625 6.640625 -0.1953125 C9.20731941 0.0171622 10.7916067 0.71345895 13 2 C12.67 2.99 12.34 3.98 12 5 C10.02013918 4.88652381 8.04108402 4.7589065 6.0625 4.625 C4.96035156 4.55539063 3.85820312 4.48578125 2.72265625 4.4140625 C1.82417969 4.27742187 0.92570313 4.14078125 0 4 C-0.33 3.34 -0.66 2.68 -1 2 C-0.67 1.34 -0.34 0.68 0 0 Z " fill="#949192" transform="translate(237,144)"/>
<path d="M0 0 C0.66 0 1.32 0 2 0 C1.50877547 8.13105861 0.64733759 16.01920915 -1 24 C-1.33 24 -1.66 24 -2 24 C-2.29599372 15.7943963 -1.43794854 8.07562173 0 0 Z " fill="#292320" transform="translate(255,296)"/>
<path d="M0 0 C0.33 0 0.66 0 1 0 C1 2.31 1 4.62 1 7 C1.99 7 2.98 7 4 7 C4 5.35 4 3.7 4 2 C5.98 1.67 7.96 1.34 10 1 C9.67 1.66 9.34 2.32 9 3 C8.01 3.33 7.02 3.66 6 4 C5.67 5.65 5.34 7.3 5 9 C2.69 9 0.38 9 -2 9 C-2 7.02 -2 5.04 -2 3 C-1.34 3 -0.68 3 0 3 C0 2.01 0 1.02 0 0 Z " fill="#D3B16C" transform="translate(251,284)"/>
<path d="M0 0 C0 0.33 0 0.66 0 1 C-0.79664063 1.10957031 -1.59328125 1.21914062 -2.4140625 1.33203125 C-12.06620799 2.77633039 -17.84361995 5.45762889 -25 12 C-23.63600763 7.53602498 -21.90097811 5.54411616 -18 3 C-12.0567197 -0.09738884 -6.61363715 -0.36591845 0 0 Z " fill="#4A4643" transform="translate(140,80)"/>
<path d="M0 0 C0 0.99 0 1.98 0 3 C4.95 3 9.9 3 15 3 C15 3.33 15 3.66 15 4 C11.9999376 4.02721831 9.00012744 4.04694378 6 4.0625 C4.74123047 4.07506836 4.74123047 4.07506836 3.45703125 4.08789062 C-1.79319339 4.10824033 -6.80455662 3.76368207 -12 3 C-8.17936061 0.45290708 -4.56711438 0 0 0 Z " fill="#E9892B" transform="translate(133,119)"/>
<path d="M0 0 C-1 2 -1 2 -3.625 3.0625 C-7.08083902 4.02245528 -10.44209512 4.57305141 -14 5 C-14 5.66 -14 6.32 -14 7 C-14.99 6.67 -15.98 6.34 -17 6 C-14.40086713 2.10130069 -12.58704077 1.33766825 -8.0625 0.375 C-5.33075451 0.04050055 -2.74727387 -0.08080217 0 0 Z " fill="#F2B206" transform="translate(215,160)"/>
<path d="M0 0 C2.97 0.495 2.97 0.495 6 1 C6 2.98 6 4.96 6 7 C4.125 7.625 4.125 7.625 2 8 C0 6 0 6 -0.125 2.875 C-0.08375 1.92625 -0.0425 0.9775 0 0 Z " fill="#E9C476" transform="translate(246,343)"/>
<path d="M0 0 C0.33 0 0.66 0 1 0 C1.17015625 0.79664063 1.3403125 1.59328125 1.515625 2.4140625 C2.89595982 8.44935625 4.15267017 13.12671554 8 18 C8.33 18.66 8.66 19.32 9 20 C3.11513353 17.93234421 3.11513353 17.93234421 1 15 C0.62355152 12.37060795 0.39866913 9.94927528 0.3125 7.3125 C0.27833984 6.61060547 0.24417969 5.90871094 0.20898438 5.18554688 C0.12670053 3.45758613 0.0616676 1.72881928 0 0 Z " fill="#E9BE55" transform="translate(190,184)"/>
<path d="M0 0 C3.95447868 -0.08413784 7.70080807 0.04979151 11.625 0.5625 C14.98531697 0.97607747 17.70439061 0.95678982 21 0 C21 0.66 21 1.32 21 2 C17.72546403 4.31946298 15.09997166 4.02939764 11.23828125 3.42578125 C7.47034082 2.70901771 3.73072856 1.88950241 0 1 C0 0.67 0 0.34 0 0 Z " fill="#CAC0B7" transform="translate(240,143)"/>
<path d="M0 0 C2.2109885 0.42793326 3.98119242 0.99059621 6 2 C5.67 2.99 5.34 3.98 5 5 C3.02 5 1.04 5 -1 5 C-1 1 -1 1 0 0 Z " fill="#D4C5B7" transform="translate(191,210)"/>
<path d="M0 0 C0.99 0.33 1.98 0.66 3 1 C3 2.98 3 4.96 3 7 C2.67 5.68 2.34 4.36 2 3 C1.34 3 0.68 3 0 3 C-0.33 3.99 -0.66 4.98 -1 6 C-1.33 5.67 -1.66 5.34 -2 5 C-3.85287502 4.92773498 -5.70833878 4.9161878 -7.5625 4.9375 C-8.57441406 4.94652344 -9.58632812 4.95554687 -10.62890625 4.96484375 C-11.41136719 4.97644531 -12.19382813 4.98804688 -13 5 C-13 4.67 -13 4.34 -13 4 C-12.31292969 3.96261719 -11.62585938 3.92523438 -10.91796875 3.88671875 C-10.01691406 3.82097656 -9.11585938 3.75523437 -8.1875 3.6875 C-7.29417969 3.62949219 -6.40085938 3.57148438 -5.48046875 3.51171875 C-2.69396 2.93686419 -1.75864246 2.1793144 0 0 Z " fill="#A1968D" transform="translate(238,290)"/>
<path d="M0 0 C0.66 0 1.32 0 2 0 C2 1.65 2 3.3 2 5 C3.65 4.01 5.3 3.02 7 2 C7.93065133 4.60582371 8.14917407 5.64198224 7.0625 8.25 C6.711875 8.8275 6.36125 9.405 6 10 C5.67 8.68 5.34 7.36 5 6 C3.68 6 2.36 6 1 6 C1 4.68 1 3.36 1 2 C0.34 1.67 -0.32 1.34 -1 1 C-0.67 0.67 -0.34 0.34 0 0 Z " fill="#48413E" transform="translate(257,287)"/>
<path d="M0 0 C4.02992782 0.55312735 8.02022924 1.1558062 12 2 C11.67 2.66 11.34 3.32 11 4 C10.31292969 3.98839844 9.62585938 3.97679687 8.91796875 3.96484375 C8.01691406 3.95582031 7.11585938 3.94679688 6.1875 3.9375 C5.29417969 3.92589844 4.40085938 3.91429687 3.48046875 3.90234375 C0.86586209 3.88990033 0.86586209 3.88990033 -2 5 C-1.34 3.35 -0.68 1.7 0 0 Z " fill="#CBBAAC" transform="translate(225,273)"/>
<path d="M0 0 C3.38847145 1.12949048 4.19694184 2.12283218 6.4375 4.8125 C8.85689832 7.66759505 11.2971523 10.4052662 14 13 C9.76090342 11.6145759 7.29341975 9.67287988 4.1875 6.5 C3.39730469 5.7059375 2.60710937 4.911875 1.79296875 4.09375 C0 2 0 2 0 0 Z " fill="#EFE6DA" transform="translate(77,259)"/>
<path d="M0 0 C1.8125 0.8125 1.8125 0.8125 2.8125 2.8125 C1.8225 2.8125 0.8325 2.8125 -0.1875 2.8125 C-0.8475 4.1325 -1.5075 5.4525 -2.1875 6.8125 C-2.1875 6.1525 -2.1875 5.4925 -2.1875 4.8125 C-3.5075 4.1525 -4.8275 3.4925 -6.1875 2.8125 C-2.77144161 -0.23755214 -2.77144161 -0.23755214 0 0 Z " fill="#D0C3B7" transform="translate(178.1875,217.1875)"/>
<path d="M0 0 C0.66 1.32 1.32 2.64 2 4 C1.07544441 5.508013 0.1349253 7.00624917 -0.8125 8.5 C-1.33457031 9.3353125 -1.85664062 10.170625 -2.39453125 11.03125 C-2.92433594 11.6809375 -3.45414062 12.330625 -4 13 C-4.99 13 -5.98 13 -7 13 C-6.34 12.67 -5.68 12.34 -5 12 C-4.27544365 10.35767228 -3.62225605 8.68375165 -3 7 C-2.46474166 5.7264543 -1.9229052 4.45565616 -1.375 3.1875 C-0.694375 1.6096875 -0.694375 1.6096875 0 0 Z " fill="#EBE0D4" transform="translate(85,160)"/>
<path d="M0 0 C-1.75 3.875 -1.75 3.875 -4 5 C-6.35981813 4.06421005 -8.69631264 3.06652192 -11 2 C-11 1.67 -11 1.34 -11 1 C-3.375 0 -3.375 0 0 0 Z " fill="#D0C5BB" transform="translate(235,151)"/>
<path d="M0 0 C0 1.98 0 3.96 0 6 C-1.98 6.66 -3.96 7.32 -6 8 C-5.34 6.35 -4.68 4.7 -4 3 C-4.66 2.67 -5.32 2.34 -6 2 C-1.125 0 -1.125 0 0 0 Z " fill="#A6A09C" transform="translate(267,142)"/>
<path d="M0 0 C0.66 0.33 1.32 0.66 2 1 C0.125 7.75 0.125 7.75 -1 10 C-1.99 10 -2.98 10 -4 10 C-4 9.34 -4 8.68 -4 8 C-4.66 7.67 -5.32 7.34 -6 7 C-4.625 5.5 -4.625 5.5 -3 4 C-2.34 4 -1.68 4 -1 4 C-0.67 2.68 -0.34 1.36 0 0 Z " fill="#DCC09B" transform="translate(242,270)"/>
<path d="M0 0 C0.99 0.33 1.98 0.66 3 1 C3.1875 4.3125 3.1875 4.3125 3 8 C2.01 8.99 1.02 9.98 0 11 C0 7.37 0 3.74 0 0 Z " fill="#EFE6D8" transform="translate(232,183)"/>
<path d="M0 0 C1.6256807 0.30893932 3.25052748 0.6222695 4.875 0.9375 C5.77992188 1.11152344 6.68484375 1.28554687 7.6171875 1.46484375 C10 2 10 2 12 3 C12 3.66 12 4.32 12 5 C12.66 5 13.32 5 14 5 C14.33 5.99 14.66 6.98 15 8 C14.34 8 13.68 8 13 8 C13 7.34 13 6.68 13 6 C12.401875 5.87625 11.80375 5.7525 11.1875 5.625 C9 5 9 5 6 3 C4.01200182 2.29835358 2.01301483 1.62627128 0 1 C0 0.67 0 0.34 0 0 Z " fill="#E5C381" transform="translate(219,158)"/>
<path d="M0 0 C3.125 -0.1875 3.125 -0.1875 6 0 C6.33 1.98 6.66 3.96 7 6 C6.34 5.34 5.68 4.68 5 4 C2.67724823 3.59952556 0.34260643 3.2602896 -2 3 C-1.34 2.01 -0.68 1.02 0 0 Z " fill="#F2B206" transform="translate(247,273)"/>
<path d="M0 0 C1.6396875 0.0928125 1.6396875 0.0928125 3.3125 0.1875 C3.3125 1.1775 3.3125 2.1675 3.3125 3.1875 C0.0125 3.1875 -3.2875 3.1875 -6.6875 3.1875 C-3.6875 0.1875 -3.6875 0.1875 0 0 Z " fill="#DDC9B6" transform="translate(201.6875,297.8125)"/>
<path d="M0 0 C1 2 1 2 0.0625 5.125 C-0.288125 6.07375 -0.63875 7.0225 -1 8 C-2.65 8 -4.3 8 -6 8 C-4.02 5.36 -2.04 2.72 0 0 Z " fill="#E5C380" transform="translate(237,202)"/>
<path d="M0 0 C3.96 0.33 7.92 0.66 12 1 C11.67 1.66 11.34 2.32 11 3 C8.35139573 3.59355614 5.70802678 3.74209269 3 4 C3.33 3.01 3.66 2.02 4 1 C2.68 1.33 1.36 1.66 0 2 C0 1.34 0 0.68 0 0 Z " fill="#ECDDCC" transform="translate(115,122)"/>
<path d="M0 0 C0.33 0 0.66 0 1 0 C1.144375 0.94875 1.28875 1.8975 1.4375 2.875 C1.82935399 5.8934494 1.82935399 5.8934494 3 8 C2.01 8 1.02 8 0 8 C0 8.66 0 9.32 0 10 C-1.65 10 -3.3 10 -5 10 C-4.360625 9.278125 -3.72125 8.55625 -3.0625 7.8125 C-1.01326465 5.01808816 -0.38667054 3.38336726 0 0 Z " fill="#8C847F" transform="translate(164,103)"/>
<path d="M0 0 C-0.33 1.32 -0.66 2.64 -1 4 C-3.31 3.67 -5.62 3.34 -8 3 C-8 2.34 -8 1.68 -8 1 C-3.375 -1.125 -3.375 -1.125 0 0 Z " fill="#EAD9C9" transform="translate(175,222)"/>
<path d="M0 0 C0.66 0.99 1.32 1.98 2 3 C0.71034824 4.37562854 -0.62689293 5.70766393 -2 7 C-2.66 7 -3.32 7 -4 7 C-4.33 7.66 -4.66 8.32 -5 9 C-4.42647107 5.12867972 -2.51295648 2.91827204 0 0 Z " fill="#EAD09C" transform="translate(197,170)"/>
<path d="M0 0 C1 3 1 3 0 6 C-1.32 5.67 -2.64 5.34 -4 5 C-3.01 5 -2.02 5 -1 5 C-1 4.34 -1 3.68 -1 3 C-3.97 2.505 -3.97 2.505 -7 2 C-4.35261084 0.5393715 -3.10551666 0 0 0 Z " fill="#DCD1C5" transform="translate(275,116)"/>
<path d="M0 0 C0 0.66 0 1.32 0 2 C-2.97 2 -5.94 2 -9 2 C-9 1.34 -9 0.68 -9 0 C-5.93109813 -1.53445094 -3.29905734 -0.54984289 0 0 Z " fill="#C7BEB5" transform="translate(111,280)"/>
<path d="M0 0 C2.7839183 1.39195915 2.97898997 3.15575779 4 6 C3.01 6.495 3.01 6.495 2 7 C1.34 7.99 0.68 8.98 0 10 C0 6.7 0 3.4 0 0 Z " fill="#E79D2A" transform="translate(250,277)"/>
<path d="M0 0 C0.66 0.99 1.32 1.98 2 3 C1.01 4.485 1.01 4.485 0 6 C-1.65 4.35 -3.3 2.7 -5 1 C-3.35 0.67 -1.7 0.34 0 0 Z " fill="#D2C2B4" transform="translate(269,266)"/>
<path d="M0 0 C0.99 0 1.98 0 3 0 C4.90877584 2.58246143 6.56377246 5.12754491 8 8 C4.63820226 6.55922954 2.40843732 4.75249979 0 2 C0 1.34 0 0.68 0 0 Z " fill="#E9BF57" transform="translate(190,203)"/>
<path d="M0 0 C1.485 0.99 1.485 0.99 3 2 C3 2.66 3 3.32 3 4 C3.66 4 4.32 4 5 4 C5 6.64 5 9.28 5 12 C4.67 12 4.34 12 4 12 C4 9.69 4 7.38 4 5 C2.68 4.67 1.36 4.34 0 4 C0 2.68 0 1.36 0 0 Z " fill="#EEDFCC" transform="translate(231,179)"/>
<path d="M0 0 C4.02992782 0.55312735 8.02022924 1.1558062 12 2 C12 2.33 12 2.66 12 3 C8.7 3 5.4 3 2 3 C2 2.34 2 1.68 2 1 C1.34 0.67 0.68 0.34 0 0 Z " fill="#E9892C" transform="translate(148,116)"/>
<path d="M0 0 C0.99 0.33 1.98 0.66 3 1 C0.69 3.31 -1.62 5.62 -4 8 C-4 4.09161134 -2.49432124 2.88405893 0 0 Z " fill="#332E2D" transform="translate(120,84)"/>
<path d="M0 0 C2.97 0 5.94 0 9 0 C8.01 0.33 7.02 0.66 6 1 C6 1.66 6 2.32 6 3 C3.5625 2.625 3.5625 2.625 1 2 C0.67 1.34 0.34 0.68 0 0 Z " fill="#DBCABA" transform="translate(254,131)"/>
<path d="M0 0 C2.31 0.33 4.62 0.66 7 1 C5.68 1.33 4.36 1.66 3 2 C3 4.64 3 7.28 3 10 C2.67 10 2.34 10 2 10 C1.855625 8.906875 1.71125 7.81375 1.5625 6.6875 C1.11711896 3.06877013 1.11711896 3.06877013 0 0 Z " fill="#5C5653" transform="translate(114,111)"/>
<path d="M0 0 C2.49361571 1.20381448 4.68143083 2.45428722 7 4 C5.02 4.33 3.04 4.66 1 5 C1 4.34 1 3.68 1 3 C0.34 2.67 -0.32 2.34 -1 2 C-0.67 1.34 -0.34 0.68 0 0 Z " fill="#A6A09D" transform="translate(316,177)"/>
<path d="M0 0 C0.33 0 0.66 0 1 0 C1 1.65 1 3.3 1 5 C-1.64 4.67 -4.28 4.34 -7 4 C-7 3.67 -7 3.34 -7 3 C-5.5459375 2.5359375 -5.5459375 2.5359375 -4.0625 2.0625 C-1.15934208 1.30476658 -1.15934208 1.30476658 0 0 Z " fill="#DDD2C5" transform="translate(113,104)"/>
</svg>
