<?xml version="1.0" encoding="UTF-8"?>
<svg version="1.1" xmlns="http://www.w3.org/2000/svg" width="360" height="360">
<path d="M0 0 C2.06890419 1.04289755 2.06890419 1.04289755 4 1 C5.33849671 0.00692179 6.67151309 -0.99357052 8 -2 C10.6875 -2.25 10.6875 -2.25 13 -2 C14 -1 14 -1 14.0480957 0.76318359 C13.53138528 7.08247702 11.60605428 11.34631548 8.1875 16.625 C7.70410156 17.3991626 7.22070312 18.1733252 6.72265625 18.97094727 C2.8940386 24.96359287 -1.47357925 30.36056252 -6.05957031 35.78076172 C-9.66969185 40.19193152 -11.56361752 44.11416727 -12.47265625 49.828125 C-13 52 -13 52 -14.55859375 53.359375 C-16.88130398 56.00311022 -16.15262539 58.5705569 -16 62 C-15.61756735 64.6541993 -15.19021661 67.24499104 -14.671875 69.87109375 C-14.52680008 70.61868454 -14.38172516 71.36627533 -14.23225403 72.13652039 C-13.75076027 74.57291677 -13.25307257 77.00547148 -12.75 79.4375 C-12.57959198 80.26948914 -12.40918396 81.10147827 -12.23361206 81.9586792 C-8.81517318 98.38707808 -3.50058266 113.73501807 2.91186523 129.21142578 C3.79763041 131.48138536 4.4908695 133.62358063 5 136 C8.32031669 134.33984166 9.30983299 130.72614582 10.875 127.5 C11.23215088 126.77401611 11.58930176 126.04803223 11.95727539 125.30004883 C19.31440379 111.78064603 19.31440379 111.78064603 19.0625 97 C16.54661702 93.34053384 13.62490786 91.11569637 10.05859375 88.515625 C8 87 8 87 6 85 C6.0625 83.0625 6.0625 83.0625 7 81 C24.35697308 69.03608642 54.53836731 69.39158866 75 69 C75.82274414 68.97953613 76.64548828 68.95907227 77.49316406 68.93798828 C119.13362316 68.00596913 161.01048421 75.47088846 200.5625 88.25 C201.2524707 88.47171875 201.94244141 88.6934375 202.65332031 88.921875 C206.90492795 90.38031315 210.42890416 92.27073907 214 95 C215.0625 97.5625 215.0625 97.5625 215 100 C212.49431313 103.35009417 208.67297737 104.84872406 205 106.625 C204.3709375 106.93695313 203.741875 107.24890625 203.09375 107.5703125 C200.42237775 108.88335988 197.82729843 110.05756719 195 111 C192.32246136 116.27311182 191.99520439 121.2258663 193 127 C194.77162015 131.86870353 197.33157504 136.39006708 199.84033203 140.90966797 C201.38564551 143.69513618 202.88016426 146.50654449 204.375 149.31933594 C205.06889052 150.62101843 205.76789535 151.91999107 206.47265625 153.21582031 C207.87047155 155.79410768 209.06993964 158.20981891 210 161 C210.84820312 161.01417969 211.69640625 161.02835938 212.5703125 161.04296875 C228.28294926 161.6818342 242.59890884 166.95165496 253.484375 178.67578125 C261.82045476 189.43054109 263.38635824 200.70632935 262 214 C258.96909344 228.79493373 250.26664661 241.66659904 238.375 250.8125 C228.44572535 257.30886264 216.83597284 260.5313388 205 259 C202.11144616 258.23204611 199.71740716 257.27877984 197 256 C196.938125 256.886875 196.87625 257.77375 196.8125 258.6875 C196 262 196 262 193.5625 264.25 C189.95215103 268.12452085 189.73366841 271.89621974 189 277 C188.67558396 278.66842534 188.34475641 280.33565872 188 282 C188.66 282.33 189.32 282.66 190 283 C190.625 285.5625 190.625 285.5625 191 288 C191.99 287.34 192.98 286.68 194 286 C195.17187125 289.47694914 195.03802574 289.91516615 193.41015625 293.546875 C192.63882084 294.9541231 191.85544168 296.3548122 191.0625 297.75 C190.21850603 299.28821522 189.3760912 300.8272978 188.53515625 302.3671875 C188.10734863 303.14416992 187.67954102 303.92115234 187.23876953 304.72167969 C185.41833339 308.06978967 183.69848772 311.46376245 182 314.875 C181.6807959 315.51155518 181.3615918 316.14811035 181.03271484 316.80395508 C179.158219 320.57112312 177.36009836 324.36688946 175.60546875 328.19140625 C175.20263672 329.06361816 174.79980469 329.93583008 174.38476562 330.83447266 C173.59933962 332.54210154 172.82296398 334.25392846 172.05664062 335.97021484 C171.52393555 337.1277124 171.52393555 337.1277124 170.98046875 338.30859375 C170.67004639 338.99751709 170.35962402 339.68644043 170.03979492 340.39624023 C169 342 169 342 166 343 C165.34 342.67 164.68 342.34 164 342 C164.26915133 339.52064131 164.54011651 337.04150469 164.8125 334.5625 C164.89870605 333.77496338 164.98491211 332.98742676 165.07373047 332.17602539 C165.61417643 327.29749367 166.19036509 322.42498298 166.80078125 317.5546875 C167.00513794 315.91004517 167.00513794 315.91004517 167.21362305 314.23217773 C167.48266224 312.07746922 167.7560836 309.92330217 168.03442383 307.76977539 C168.77739956 301.79109026 169.13792239 296.02470069 169 290 C168.05125 289.566875 167.1025 289.13375 166.125 288.6875 C163 287 163 287 161 284 C160.60041513 280.57982443 160.4364652 277.12706959 162 274 C160.61941406 274.30744141 160.61941406 274.30744141 159.2109375 274.62109375 C147.30132568 277.15582783 135.72741654 278.05947076 123.55078125 278.01953125 C122.7246936 278.01812134 121.89860596 278.01671143 121.04748535 278.01525879 C119.03165378 278.01161352 117.01582591 278.00601021 115 278 C114.96241577 279.76706299 114.96241577 279.76706299 114.92407227 281.56982422 C114.82834801 286.03180878 114.72856328 290.49369563 114.62768555 294.95556641 C114.5849486 296.86960531 114.54324524 298.78366763 114.50268555 300.69775391 C114.29352667 310.53596773 114.04189185 320.3676757 113.52734375 330.1953125 C113.49024796 330.94328094 113.45315216 331.69124939 113.41493225 332.46188354 C113.24145564 335.52002137 112.97400888 338.07797336 112 341 C108.98138236 342.50930882 105.87008697 342.18438844 102.5625 342.1875 C101.88123047 342.19974609 101.19996094 342.21199219 100.49804688 342.22460938 C96.77170191 342.23555848 95.18008429 342.12005619 92 340 C92.875 336.125 92.875 336.125 94 335 C95.68183948 334.76712992 97.3712416 334.58735834 99.0625 334.4375 C100.44115234 334.31181641 100.44115234 334.31181641 101.84765625 334.18359375 C102.55792969 334.12300781 103.26820313 334.06242187 104 334 C105.09080241 327.84394905 105.12876053 321.83917721 105.09765625 315.59765625 C105.0962413 314.51995468 105.09482635 313.44225311 105.09336853 312.33189392 C105.08779611 308.90873371 105.07524868 305.48564025 105.0625 302.0625 C105.05748144 299.73372491 105.05291915 297.40494878 105.04882812 295.07617188 C105.0378357 289.38408908 105.02059011 283.69205584 105 278 C99.06 277.34 93.12 276.68 87 276 C87.01160156 277.31484375 87.02320313 278.6296875 87.03515625 279.984375 C87.10770712 292.24657077 86.97487384 304.50112767 86.68161011 316.75964355 C86.6439666 318.37407321 86.60954632 319.98858135 86.57839966 321.60314941 C86.53303177 323.89592518 86.47518797 326.1880655 86.4140625 328.48046875 C86.40250626 329.16604355 86.39095001 329.85161835 86.37904358 330.55796814 C86.25354601 334.62456651 86.03588707 338.96411293 83 342 C80.34346557 342.10002455 77.71870728 342.13877463 75.0625 342.125 C74.32064453 342.12886719 73.57878906 342.13273437 72.81445312 342.13671875 C67.25327002 342.12663501 67.25327002 342.12663501 65 341 C65.875 336.125 65.875 336.125 67 335 C68.68183948 334.76712992 70.3712416 334.58735834 72.0625 334.4375 C73.37045532 334.32160522 73.37045532 334.32160522 74.70483398 334.20336914 C75.46223877 334.13625732 76.21964355 334.06914551 77 334 C77.84540532 322.23654124 78.15864881 310.53044213 78.13037109 298.73754883 C78.12490087 296.01312971 78.1304128 293.28886797 78.13671875 290.56445312 C78.13605967 288.82552047 78.13478207 287.08658791 78.1328125 285.34765625 C78.13584885 284.13070824 78.13584885 284.13070824 78.13894653 282.88917542 C78.22062422 278.81321378 78.22062422 278.81321378 77 275 C74.90953063 274.40719784 74.90953063 274.40719784 72.36328125 274.0703125 C71.39986816 273.9170752 70.43645508 273.76383789 69.44384766 273.60595703 C68.41050293 273.44724121 67.3771582 273.28852539 66.3125 273.125 C39.27835101 268.65747469 39.27835101 268.65747469 28.5 258.6875 C26.95132725 255.91279465 26.76994359 254.53397502 26.5625 251.4375 C26.30410569 247.73787375 26.30410569 247.73787375 24 244.8125 C23.01 244.214375 22.02 243.61625 21 243 C5.96105068 233.6735198 -5.53963459 220.20364357 -10.25 202.875 C-13.82004962 184.42974364 -12.66197043 164.99295565 -2 149 C-1.74223693 142.86960403 -3.74549812 137.21739353 -6.01953125 131.625 C-6.31937424 130.85679932 -6.61921722 130.08859863 -6.92814636 129.29711914 C-8.19307077 126.05695667 -9.48257871 122.82677653 -10.77172852 119.59619141 C-17.5178507 102.61200008 -21.30001964 85.67291574 -24.27905273 67.68798828 C-24.61467837 65.67899851 -24.9751053 63.67575518 -25.33984375 61.671875 C-25.53956787 60.5075293 -25.73929199 59.34318359 -25.94506836 58.14355469 C-27.21260179 54.36647521 -29.09071502 52.65466028 -32 50 C-32.62122566 47.12274431 -32.01587617 44.74231052 -31 42 C-28.38393026 38.74758897 -25.87255015 36.57770562 -22 35 C-23.60875 33.948125 -23.60875 33.948125 -25.25 32.875 C-29.65758698 29.73437122 -32.27980208 26.16059375 -34 21 C-34.78214228 14.49924369 -33.88982965 9.33090861 -30 4 C-20.67157743 -5.89319137 -11.55644487 -7.39612471 0 0 Z M223 177 C222.690625 178.60875 222.690625 178.60875 222.375 180.25 C221 184 221 184 218.015625 185.61328125 C214.7175932 188.22351108 214.52716527 188.62363599 213.8984375 192.52734375 C213.70066712 194.32832371 213.52732693 196.13210851 213.375 197.9375 C213.16153967 199.83553982 212.94018755 201.73270877 212.7109375 203.62890625 C212.59975586 204.54945801 212.48857422 205.47000977 212.37402344 206.41845703 C211.38270075 213.2606542 209.05029362 219.76183935 206.25 226.0625 C204.73896322 229.08137006 204.73896322 229.08137006 205 233 C205.99 233.66 206.98 234.32 208 235 C208.29296875 237.1640625 208.29296875 237.1640625 208.1875 239.625 C208.16042969 240.44226563 208.13335937 241.25953125 208.10546875 242.1015625 C208.07066406 242.72804688 208.03585937 243.35453125 208 244 C215.88437556 245.78224657 223.01317108 243.45173413 229.8203125 239.265625 C238.63437706 232.52704353 245.74938355 224.075402 248 213 C248.79589879 201.428856 247.32570989 194.03281269 239.95703125 185.05078125 C235.02808244 179.88571513 230.08776878 177.44298555 223 177 Z M173.125 262.25 C171.63949494 264.21404988 171.63949494 264.21404988 172 268 C173.65 267.67 175.3 267.34 177 267 C177 266.34 177 265.68 177 265 C178.32 264.67 179.64 264.34 181 264 C181 263.01 181 262.02 181 261 C176.83296056 260.63982924 176.83296056 260.63982924 173.125 262.25 Z " fill="#E6D3C0" transform="translate(82,8)"/>
<path d="M0 0 C12.910584 5.05381413 23.01877518 12.72847357 29.2734375 25.38671875 C34.13055298 38.50984269 31.41807882 52.61511682 25.83984375 64.890625 C19.2090431 78.1152859 8.81771139 88.06838715 -5.1875 93 C-15.09693965 96.20131866 -24.38604851 96.52788894 -33.875 92.0625 C-33.936875 92.949375 -33.99875 93.83625 -34.0625 94.75 C-34.875 98.0625 -34.875 98.0625 -37.3125 100.3125 C-40.92284897 104.18702085 -41.14133159 107.95871974 -41.875 113.0625 C-42.19941604 114.73092534 -42.53024359 116.39815872 -42.875 118.0625 C-42.215 118.3925 -41.555 118.7225 -40.875 119.0625 C-40.25 121.625 -40.25 121.625 -39.875 124.0625 C-38.885 123.4025 -37.895 122.7425 -36.875 122.0625 C-35.70312875 125.53944914 -35.83697426 125.97766615 -37.46484375 129.609375 C-38.23617916 131.0166231 -39.01955832 132.4173122 -39.8125 133.8125 C-40.65649397 135.35071522 -41.4989088 136.8897978 -42.33984375 138.4296875 C-42.76765137 139.20666992 -43.19545898 139.98365234 -43.63623047 140.78417969 C-45.45666661 144.13228967 -47.17651228 147.52626245 -48.875 150.9375 C-49.1942041 151.57405518 -49.5134082 152.21061035 -49.84228516 152.86645508 C-51.716781 156.63362312 -53.51490164 160.42938946 -55.26953125 164.25390625 C-55.67236328 165.12611816 -56.07519531 165.99833008 -56.49023438 166.89697266 C-57.27566038 168.60460154 -58.05203602 170.31642846 -58.81835938 172.03271484 C-59.35106445 173.1902124 -59.35106445 173.1902124 -59.89453125 174.37109375 C-60.20495361 175.06001709 -60.51537598 175.74894043 -60.83520508 176.45874023 C-61.875 178.0625 -61.875 178.0625 -64.875 179.0625 C-65.535 178.7325 -66.195 178.4025 -66.875 178.0625 C-66.60584867 175.58314131 -66.33488349 173.10400469 -66.0625 170.625 C-65.97629395 169.83746338 -65.89008789 169.04992676 -65.80126953 168.23852539 C-65.26082357 163.35999367 -64.68463491 158.48748298 -64.07421875 153.6171875 C-63.86986206 151.97254517 -63.86986206 151.97254517 -63.66137695 150.29467773 C-63.39233776 148.13996922 -63.1189164 145.98580217 -62.84057617 143.83227539 C-62.09760044 137.85359026 -61.73707761 132.08720069 -61.875 126.0625 C-62.82375 125.629375 -63.7725 125.19625 -64.75 124.75 C-67.875 123.0625 -67.875 123.0625 -69.875 120.0625 C-70.27458487 116.64232443 -70.4385348 113.18956959 -68.875 110.0625 C-69.79539063 110.26746094 -70.71578125 110.47242188 -71.6640625 110.68359375 C-83.57367432 113.21832783 -95.14758346 114.12197076 -107.32421875 114.08203125 C-108.56335022 114.07991638 -108.56335022 114.07991638 -109.82751465 114.07775879 C-111.84334622 114.07411352 -113.85917409 114.06851021 -115.875 114.0625 C-115.91258423 115.82956299 -115.91258423 115.82956299 -115.95092773 117.63232422 C-116.04665199 122.09430878 -116.14643672 126.55619563 -116.24731445 131.01806641 C-116.2900514 132.93210531 -116.33175476 134.84616763 -116.37231445 136.76025391 C-116.58147333 146.59846773 -116.83310815 156.4301757 -117.34765625 166.2578125 C-117.38475204 167.00578094 -117.42184784 167.75374939 -117.46006775 168.52438354 C-117.63354436 171.58252137 -117.90099112 174.14047336 -118.875 177.0625 C-121.89361764 178.57180882 -125.00491303 178.24688844 -128.3125 178.25 C-128.99376953 178.26224609 -129.67503906 178.27449219 -130.37695312 178.28710938 C-134.10329809 178.29805848 -135.69491571 178.18255619 -138.875 176.0625 C-138 172.1875 -138 172.1875 -136.875 171.0625 C-135.19316052 170.82962992 -133.5037584 170.64985834 -131.8125 170.5 C-130.89339844 170.41621094 -129.97429687 170.33242188 -129.02734375 170.24609375 C-128.31707031 170.18550781 -127.60679687 170.12492188 -126.875 170.0625 C-125.78419759 163.90644905 -125.74623947 157.90167721 -125.77734375 151.66015625 C-125.7787587 150.58245468 -125.78017365 149.50475311 -125.78163147 148.39439392 C-125.78720389 144.97123371 -125.79975132 141.54814025 -125.8125 138.125 C-125.81751856 135.79622491 -125.82208085 133.46744878 -125.82617188 131.13867188 C-125.8371643 125.44658908 -125.85440989 119.75455584 -125.875 114.0625 C-131.815 113.4025 -137.755 112.7425 -143.875 112.0625 C-143.86339844 113.37734375 -143.85179687 114.6921875 -143.83984375 116.046875 C-143.76729288 128.30907077 -143.90012616 140.56362767 -144.19338989 152.82214355 C-144.2310334 154.43657321 -144.26545368 156.05108135 -144.29660034 157.66564941 C-144.34196823 159.95842518 -144.39981203 162.2505655 -144.4609375 164.54296875 C-144.47827187 165.57133095 -144.47827187 165.57133095 -144.49595642 166.62046814 C-144.62145399 170.68706651 -144.83911293 175.02661293 -147.875 178.0625 C-150.53153443 178.16252455 -153.15629272 178.20127463 -155.8125 178.1875 C-156.55435547 178.19136719 -157.29621094 178.19523438 -158.06054688 178.19921875 C-163.62172998 178.18913501 -163.62172998 178.18913501 -165.875 177.0625 C-165 172.1875 -165 172.1875 -163.875 171.0625 C-162.19316052 170.82962992 -160.5037584 170.64985834 -158.8125 170.5 C-157.50454468 170.38410522 -157.50454468 170.38410522 -156.17016602 170.26586914 C-155.41276123 170.19875732 -154.65535645 170.13164551 -153.875 170.0625 C-153.02959468 158.29904124 -152.71635119 146.59294213 -152.74462891 134.80004883 C-152.75009913 132.07562971 -152.7445872 129.35136797 -152.73828125 126.62695312 C-152.73894033 124.88802047 -152.74021793 123.14908791 -152.7421875 121.41015625 C-152.74016327 120.59885757 -152.73813904 119.7875589 -152.73605347 118.95167542 C-152.65437578 114.87571378 -152.65437578 114.87571378 -153.875 111.0625 C-155.96546937 110.46969784 -155.96546937 110.46969784 -158.51171875 110.1328125 C-159.47513184 109.9795752 -160.43854492 109.82633789 -161.43115234 109.66845703 C-162.46449707 109.50974121 -163.4978418 109.35102539 -164.5625 109.1875 C-191.59664899 104.71997469 -191.59664899 104.71997469 -202.375 94.75 C-204.17802682 91.51957695 -204.47749736 88.9013293 -204.69921875 85.24609375 C-204.87340356 83.08233134 -205.32529848 81.15729366 -205.875 79.0625 C-200.01497128 76.65543944 -194.52959918 75.2585941 -188.26171875 74.40234375 C-187.35137375 74.27641342 -186.44102875 74.15048309 -185.50309753 74.02073669 C-175.23663279 72.70747123 -165.02402483 72.56183089 -154.6875 72.625 C-153.21168457 72.62706955 -153.21168457 72.62706955 -151.70605469 72.62918091 C-131.16175324 72.6820084 -111.12607932 74.64104135 -90.875 78.0625 C-90.875 77.0725 -90.875 76.0825 -90.875 75.0625 C-91.535 75.0625 -92.195 75.0625 -92.875 75.0625 C-92.875 74.0725 -92.875 73.0825 -92.875 72.0625 C-92.2975 72.2275 -91.72 72.3925 -91.125 72.5625 C-88.60835631 73.20712031 -88.60835631 73.20712031 -84.875 73.0625 C-82.625 74.5625 -82.625 74.5625 -80.875 76.0625 C-81.205 76.3925 -81.535 76.7225 -81.875 77.0625 C-81.215 77.3925 -80.555 77.7225 -79.875 78.0625 C-79.875 78.7225 -79.875 79.3825 -79.875 80.0625 C-74.18101106 82.15820426 -68.92301071 83.51268084 -62.875 84.0625 C-62.875 84.7225 -62.875 85.3825 -62.875 86.0625 C-62.1325 85.815 -61.39 85.5675 -60.625 85.3125 C-57.875 85.0625 -57.875 85.0625 -55.5625 86.875 C-53.875 89.0625 -53.875 89.0625 -53.875 91.0625 C-56.35 91.5575 -56.35 91.5575 -58.875 92.0625 C-58.875 96.0225 -58.875 99.9825 -58.875 104.0625 C-56.4 103.5675 -56.4 103.5675 -53.875 103.0625 C-53.875 102.4025 -53.875 101.7425 -53.875 101.0625 C-52.946875 100.629375 -52.01875 100.19625 -51.0625 99.75 C-48.31632955 98.29614505 -46.74341447 97.45137107 -44.875 95.0625 C-44.36198438 88.95498724 -46.68260764 82.43232349 -48.375 76.625 C-48.60058594 75.82384766 -48.82617188 75.02269531 -49.05859375 74.19726562 C-50.21284221 70.035671 -50.21284221 70.035671 -51.875 66.0625 C-51.91522391 63.7295134 -51.91820247 61.39543334 -51.875 59.0625 C-48.905 58.5675 -48.905 58.5675 -45.875 58.0625 C-43.42235358 61.81525985 -41.97398338 65.39922206 -40.6875 69.6875 C-40.34332031 70.81414062 -39.99914062 71.94078125 -39.64453125 73.1015625 C-38.875 76.0625 -38.875 76.0625 -38.875 79.0625 C-33.65040259 76.09397875 -31.56147691 73.43545382 -28.875 68.0625 C-24.125 68.8125 -24.125 68.8125 -21.875 71.0625 C-21.8984375 73.2265625 -21.8984375 73.2265625 -22.25 75.6875 C-22.36085938 76.50476563 -22.47171875 77.32203125 -22.5859375 78.1640625 C-22.68132812 78.79054688 -22.77671875 79.41703125 -22.875 80.0625 C-11.33144382 79.57128484 -2.33600685 76.03724209 6.125 68.0625 C13.8927084 59.4467885 16.47281624 50.78007732 16.33203125 39.3125 C15.81286715 31.16260326 11.9400021 24.7369909 6.125 19.0625 C1.73392271 16.21843302 -2.763218 14.19061741 -7.875 13.0625 C-8.0296875 14.7021875 -8.0296875 14.7021875 -8.1875 16.375 C-8.875 20.0625 -8.875 20.0625 -10.1875 22 C-11.875 23.0625 -11.875 23.0625 -15.875 23.0625 C-15.99617187 22.08410156 -16.11734375 21.10570312 -16.2421875 20.09765625 C-17.14220693 12.9998169 -18.16623446 6.01961683 -19.875 -0.9375 C-13.81362876 -3.96818562 -6.09642592 -1.9844071 0 0 Z " fill="#DCC6B3" transform="translate(312.875,171.9375)"/>
<path d="M0 0 C41.6404591 -0.93201915 83.51732015 6.53290018 123.06933594 19.31201172 C124.10429199 19.64458984 124.10429199 19.64458984 125.16015625 19.98388672 C129.41176388 21.44232487 132.9357401 23.33275078 136.50683594 26.06201172 C137.56933594 28.62451172 137.56933594 28.62451172 137.50683594 31.06201172 C135.00114906 34.41210589 131.1798133 35.91073578 127.50683594 37.68701172 C126.87777344 37.99896484 126.24871094 38.31091797 125.60058594 38.63232422 C122.92921369 39.9453716 120.33413437 41.11957891 117.50683594 42.06201172 C117.21808594 42.88701172 116.92933594 43.71201172 116.63183594 44.56201172 C116.07496094 45.79951172 116.07496094 45.79951172 115.50683594 47.06201172 C111.95278726 48.4067869 109.10513655 48.1415019 105.50683594 47.06201172 C100.70683594 44.66201172 100.70683594 44.66201172 99.50683594 41.06201172 C98.92192383 41.07772217 98.33701172 41.09343262 97.734375 41.10961914 C95.07529429 41.17211439 92.4163683 41.21104741 89.75683594 41.24951172 C88.83644531 41.27464844 87.91605469 41.29978516 86.96777344 41.32568359 C86.07832031 41.33535156 85.18886719 41.34501953 84.27246094 41.35498047 C83.45551758 41.37069092 82.63857422 41.38640137 81.796875 41.40258789 C78.95652036 40.98016841 77.57914042 40.01809832 75.50683594 38.06201172 C75.50683594 37.40201172 75.50683594 36.74201172 75.50683594 36.06201172 C74.84683594 36.06201172 74.18683594 36.06201172 73.50683594 36.06201172 C73.50683594 35.40201172 73.50683594 34.74201172 73.50683594 34.06201172 C72.72179687 34.20638672 71.93675781 34.35076172 71.12792969 34.49951172 C55.4743637 37.26529516 55.4743637 37.26529516 47.50683594 32.06201172 C47.50683594 31.40201172 47.50683594 30.74201172 47.50683594 30.06201172 C44.53683594 30.06201172 41.56683594 30.06201172 38.50683594 30.06201172 C38.50683594 30.72201172 38.50683594 31.38201172 38.50683594 32.06201172 C32.56225981 33.15845576 28.82690157 33.4723102 23.50683594 30.06201172 C23.50683594 29.40201172 23.50683594 28.74201172 23.50683594 28.06201172 C18.1051614 28.46058188 13.53280338 28.96785862 8.50683594 31.06201172 C3.21161276 31.60234061 3.21161276 31.60234061 0.63183594 29.62451172 C-2.57021306 27.27006393 -5.56582176 27.38929024 -9.49316406 27.06201172 C-9.49316406 27.72201172 -9.49316406 28.38201172 -9.49316406 29.06201172 C-10.81316406 29.06201172 -12.13316406 29.06201172 -13.49316406 29.06201172 C-13.49316406 29.72201172 -13.49316406 30.38201172 -13.49316406 31.06201172 C-16.01370002 32.3222797 -17.34737386 31.98075617 -20.11816406 31.62451172 C-20.93542969 31.52267578 -21.75269531 31.42083984 -22.59472656 31.31591797 C-23.22121094 31.23212891 -23.84769531 31.14833984 -24.49316406 31.06201172 C-24.49316406 30.40201172 -24.49316406 29.74201172 -24.49316406 29.06201172 C-31.1029127 29.35577832 -35.66781841 30.23666607 -40.49316406 35.06201172 C-43.49481834 35.28101654 -46.48710035 35.1445692 -49.49316406 35.06201172 C-50.75128906 35.08263672 -52.00941406 35.10326172 -53.30566406 35.12451172 C-56.49316406 34.06201172 -56.49316406 34.06201172 -57.49707031 32.23779297 C-58.09501398 30.65847092 -58.68167874 29.07484635 -59.25878906 27.48779297 C-61.4907068 23.10165084 -65.54599661 20.81283691 -69.49316406 18.06201172 C-70.15316406 17.40201172 -70.81316406 16.74201172 -71.49316406 16.06201172 C-71.43066406 14.12451172 -71.43066406 14.12451172 -70.49316406 12.06201172 C-52.39397612 -0.41349997 -21.30766228 0.52997907 0 0 Z " fill="#EBDCCD" transform="translate(159.4931640625,76.93798828125)"/>
<path d="M0 0 C1.26789368 0.00040787 1.26789368 0.00040787 2.56140137 0.00082397 C44.37557292 0.06269097 44.37557292 0.06269097 62.75 6.1875 C62.75 8.1675 62.75 10.1475 62.75 12.1875 C62.255 11.1975 62.255 11.1975 61.75 10.1875 C61.09 10.1875 60.43 10.1875 59.75 10.1875 C59.75 10.8475 59.75 11.5075 59.75 12.1875 C58.76 12.1875 57.77 12.1875 56.75 12.1875 C53.94796924 17.23115537 53.52645922 22.53043998 52.75 28.1875 C51.265 28.6825 51.265 28.6825 49.75 29.1875 C49.255 29.6825 49.255 29.6825 48.75 30.1875 C47.76 30.1875 46.77 30.1875 45.75 30.1875 C45.255 31.6725 45.255 31.6725 44.75 33.1875 C47.39 33.5175 50.03 33.8475 52.75 34.1875 C52.75 34.5175 52.75 34.8475 52.75 35.1875 C51.1 35.5175 49.45 35.8475 47.75 36.1875 C51.71 36.5175 55.67 36.8475 59.75 37.1875 C59.75 37.5175 59.75 37.8475 59.75 38.1875 C53.81 38.1875 47.87 38.1875 41.75 38.1875 C41.68941406 41.01054687 41.62882812 43.83359375 41.56640625 46.7421875 C41.50421619 49.54249717 41.44099674 52.34278189 41.37768555 55.14306641 C41.3349486 57.05710531 41.29324524 58.97116763 41.25268555 60.88525391 C41.04352667 70.72346773 40.79189185 80.5551757 40.27734375 90.3828125 C40.24024796 91.13078094 40.20315216 91.87874939 40.16493225 92.64938354 C39.99145564 95.70752137 39.72400888 98.26547336 38.75 101.1875 C35.73138236 102.69680882 32.62008697 102.37188844 29.3125 102.375 C28.2905957 102.39336914 28.2905957 102.39336914 27.24804688 102.41210938 C23.52170191 102.42305848 21.93008429 102.30755619 18.75 100.1875 C19.625 96.3125 19.625 96.3125 20.75 95.1875 C22.43183948 94.95462992 24.1212416 94.77485834 25.8125 94.625 C26.73160156 94.54121094 27.65070313 94.45742188 28.59765625 94.37109375 C29.30792969 94.31050781 30.01820313 94.24992187 30.75 94.1875 C31.84080241 88.03144905 31.87876053 82.02667721 31.84765625 75.78515625 C31.8462413 74.70745468 31.84482635 73.62975311 31.84336853 72.51939392 C31.83779611 69.09623371 31.82524868 65.67314025 31.8125 62.25 C31.80748144 59.92122491 31.80291915 57.59244878 31.79882812 55.26367188 C31.7878357 49.57158908 31.77059011 43.87955584 31.75 38.1875 C25.81 37.5275 19.87 36.8675 13.75 36.1875 C13.76160156 37.50234375 13.77320313 38.8171875 13.78515625 40.171875 C13.85770712 52.43407077 13.72487384 64.68862767 13.43161011 76.94714355 C13.3939666 78.56157321 13.35954632 80.17608135 13.32839966 81.79064941 C13.28303177 84.08342518 13.22518797 86.3755655 13.1640625 88.66796875 C13.14672813 89.69633095 13.14672813 89.69633095 13.12904358 90.74546814 C13.00354601 94.81206651 12.78588707 99.15161293 9.75 102.1875 C7.09346557 102.28752455 4.46870728 102.32627463 1.8125 102.3125 C1.07064453 102.31636719 0.32878906 102.32023437 -0.43554688 102.32421875 C-5.99672998 102.31413501 -5.99672998 102.31413501 -8.25 101.1875 C-7.375 96.3125 -7.375 96.3125 -6.25 95.1875 C-4.56816052 94.95462992 -2.8787584 94.77485834 -1.1875 94.625 C-0.31552979 94.54773682 0.55644043 94.47047363 1.45483398 94.39086914 C2.21223877 94.32375732 2.96964355 94.25664551 3.75 94.1875 C4.59540532 82.42404124 4.90864881 70.71794213 4.88037109 58.92504883 C4.87490087 56.20062971 4.8804128 53.47636797 4.88671875 50.75195312 C4.88605967 49.01302047 4.88478207 47.27408791 4.8828125 45.53515625 C4.88483673 44.72385757 4.88686096 43.9125589 4.88894653 43.07667542 C4.97062422 39.00071378 4.97062422 39.00071378 3.75 35.1875 C1.65953063 34.59469784 1.65953063 34.59469784 -0.88671875 34.2578125 C-2.33183838 34.02795654 -2.33183838 34.02795654 -3.80615234 33.79345703 C-5.35616943 33.5553833 -5.35616943 33.5553833 -6.9375 33.3125 C-33.97164899 28.84497469 -33.97164899 28.84497469 -44.75 18.875 C-46.58061771 15.59514326 -46.85587545 12.88761741 -47.07421875 9.17578125 C-47.13404417 7.1138215 -47.13404417 7.1138215 -48.25 5.1875 C-47.363125 5.084375 -46.47625 4.98125 -45.5625 4.875 C-40.90504278 4.22446448 -36.38135146 3.04982157 -31.82421875 1.90625 C-21.3100689 -0.20807084 -10.67864842 -0.01284552 0 0 Z " fill="#E3D0BE" transform="translate(155.25,247.8125)"/>
<path d="M0 0 C0 0.66 0 1.32 0 2 C0.99 2.0825 1.98 2.165 3 2.25 C8.24149339 3.79350726 10.69717805 8.04553089 13.4375 12.50390625 C16.07531544 18.4060183 16.39654817 23.70802489 15 30 C13.13944912 33.56691246 10.83900071 36.17900564 8 39 C7.2575 39.969375 6.515 40.93875 5.75 41.9375 C0.66983672 45.74762246 -5.95936974 46.48755164 -12.1875 45.625 C-13.115625 45.41875 -14.04375 45.2125 -15 45 C-15.144375 45.7425 -15.28875 46.485 -15.4375 47.25 C-15.7159375 48.61125 -15.7159375 48.61125 -16 50 C-16.0928125 51.0209375 -16.0928125 51.0209375 -16.1875 52.0625 C-17.22480232 54.53606706 -18.7143086 55.83544853 -20.96875 57.25 C-25.13399482 58.78793655 -29.6326465 58.2797593 -34 58 C-33.8453125 59.485 -33.8453125 59.485 -33.6875 61 C-33.67585112 66.73124826 -37.10444734 70.90835569 -40.8125 75 C-44.20377766 76.55029836 -47.35303576 76.80293246 -51 76 C-55.18912915 72.14159157 -56.89668164 67.99748821 -57.1875 62.375 C-57 59 -57 59 -56 56 C-56.66386719 56.04640625 -57.32773438 56.0928125 -58.01171875 56.140625 C-65.27107062 56.43735763 -65.27107062 56.43735763 -69.125 54.125 C-71 52 -71 52 -71 50 C-71.66 50 -72.32 50 -73 50 C-73 46.37 -73 42.74 -73 39 C-70.525 38.505 -70.525 38.505 -68 38 C-64 44.75 -64 44.75 -64 47 C-56.18336675 45.98307878 -52.51353536 44.3919192 -47.5 38.125 C-46 37 -46 37 -43.6015625 37.15234375 C-40.28147307 38.23411463 -39.6161992 39.46414071 -37.875 42.4375 C-36.00640018 45.58381808 -35.11839449 46.92107034 -32 49 C-27.85223727 49.28662433 -27.85223727 49.28662433 -24 48 C-22.94647157 45.69034152 -21.94280904 43.3570226 -21 41 C-21.40992188 40.54109375 -21.81984375 40.0821875 -22.2421875 39.609375 C-22.78101563 38.99578125 -23.31984375 38.3821875 -23.875 37.75 C-24.40867188 37.14671875 -24.94234375 36.5434375 -25.4921875 35.921875 C-29.81555117 30.41126639 -30.37335029 24.07302802 -30.28125 17.24609375 C-29.79377522 13.35306597 -28.33731816 11.15853805 -26 8 C-23.625 6.375 -23.625 6.375 -21 5 C-20.21625 4.113125 -19.4325 3.22625 -18.625 2.3125 C-13.89341708 -1.89055504 -5.92875892 -0.33943276 0 0 Z " fill="#F6F5EF" transform="translate(231,124)"/>
<path d="M0 0 C12.910584 5.05381413 23.01877518 12.72847357 29.2734375 25.38671875 C34.13055298 38.50984269 31.41807882 52.61511682 25.83984375 64.890625 C19.2090431 78.1152859 8.81771139 88.06838715 -5.1875 93 C-15.09693965 96.20131866 -24.38604851 96.52788894 -33.875 92.0625 C-33.895625 92.92875 -33.91625 93.795 -33.9375 94.6875 C-35.24020281 99.37723013 -38.05667667 101.25109744 -41.875 104.0625 C-43.855 103.0725 -45.835 102.0825 -47.875 101.0625 C-47.30155063 98.19525314 -47.0135485 97.2010485 -44.875 95.0625 C-44.65560649 88.82557461 -46.64731554 82.55342583 -48.375 76.625 C-48.60058594 75.82384766 -48.82617188 75.02269531 -49.05859375 74.19726562 C-50.21284221 70.035671 -50.21284221 70.035671 -51.875 66.0625 C-51.91522391 63.7295134 -51.91820247 61.39543334 -51.875 59.0625 C-48.905 58.5675 -48.905 58.5675 -45.875 58.0625 C-43.42235358 61.81525985 -41.97398338 65.39922206 -40.6875 69.6875 C-40.34332031 70.81414062 -39.99914062 71.94078125 -39.64453125 73.1015625 C-38.875 76.0625 -38.875 76.0625 -38.875 79.0625 C-33.65040259 76.09397875 -31.56147691 73.43545382 -28.875 68.0625 C-24.125 68.8125 -24.125 68.8125 -21.875 71.0625 C-21.8984375 73.2265625 -21.8984375 73.2265625 -22.25 75.6875 C-22.36085938 76.50476563 -22.47171875 77.32203125 -22.5859375 78.1640625 C-22.68132812 78.79054688 -22.77671875 79.41703125 -22.875 80.0625 C-11.33144382 79.57128484 -2.33600685 76.03724209 6.125 68.0625 C13.8927084 59.4467885 16.47281624 50.78007732 16.33203125 39.3125 C15.81286715 31.16260326 11.9400021 24.7369909 6.125 19.0625 C1.73392271 16.21843302 -2.763218 14.19061741 -7.875 13.0625 C-7.978125 14.155625 -8.08125 15.24875 -8.1875 16.375 C-8.875 20.0625 -8.875 20.0625 -10.1875 22 C-11.875 23.0625 -11.875 23.0625 -15.875 23.0625 C-15.99617188 22.08410156 -16.11734375 21.10570312 -16.2421875 20.09765625 C-17.14220693 12.9998169 -18.16623446 6.01961683 -19.875 -0.9375 C-13.81362876 -3.96818562 -6.09642592 -1.9844071 0 0 Z " fill="#969393" transform="translate(312.875,171.9375)"/>
<path d="M0 0 C2.06890419 1.04289755 2.06890419 1.04289755 4 1 C5.33849671 0.00692179 6.67151309 -0.99357052 8 -2 C10.6875 -2.25 10.6875 -2.25 13 -2 C14 -1 14 -1 14.0480957 0.76318359 C13.53138528 7.08247702 11.60605428 11.34631548 8.1875 16.625 C7.70410156 17.3991626 7.22070312 18.1733252 6.72265625 18.97094727 C2.8940386 24.96359287 -1.47357925 30.36056252 -6.05957031 35.78076172 C-9.66969185 40.19193152 -11.56361752 44.11416727 -12.47265625 49.828125 C-13 52 -13 52 -14.55859375 53.359375 C-16.88130398 56.00311022 -16.15262539 58.5705569 -16 62 C-15.6175677 64.65419688 -15.19019395 67.24498892 -14.671875 69.87109375 C-14.52689072 70.61850327 -14.38190643 71.36591278 -14.23252869 72.13597107 C-13.75112293 74.57259441 -13.25341543 77.00533236 -12.75 79.4375 C-12.57892731 80.27081848 -12.40785461 81.10413696 -12.2315979 81.96270752 C-8.82174406 98.30712915 -3.56676864 113.53715241 2.76025391 128.95996094 C3.81482583 131.5459258 4.82291337 134.13930851 5.79296875 136.7578125 C6.87216357 139.83353561 6.87216357 139.83353561 8 142 C8.1875 145 8.1875 145 8 148 C7.34 148.66 6.68 149.32 6 150 C3.52514648 149.90576172 3.52514648 149.90576172 1 149 C-0.35131836 147.09814453 -0.35131836 147.09814453 -1.40234375 144.5078125 C-1.81468262 143.50911133 -2.22702148 142.51041016 -2.65185547 141.48144531 C-3.09674316 140.33256836 -3.54163086 139.18369141 -4 138 C-4.51567561 136.6962447 -5.03146856 135.3925358 -5.54736328 134.08886719 C-6.97111756 130.4557507 -8.34913958 126.80686086 -9.71166992 123.15039062 C-10.55474391 120.89574225 -11.41283739 118.64719291 -12.27148438 116.3984375 C-18.24521798 100.544147 -21.51708873 84.36243286 -24.27905273 67.68798828 C-24.61467837 65.67899851 -24.9751053 63.67575518 -25.33984375 61.671875 C-25.53956787 60.5075293 -25.73929199 59.34318359 -25.94506836 58.14355469 C-27.21260179 54.36647521 -29.09071502 52.65466028 -32 50 C-32.62122566 47.12274431 -32.01587617 44.74231052 -31 42 C-28.38393026 38.74758897 -25.87255015 36.57770562 -22 35 C-23.60875 33.948125 -23.60875 33.948125 -25.25 32.875 C-29.65758698 29.73437122 -32.27980208 26.16059375 -34 21 C-34.78214228 14.49924369 -33.88982965 9.33090861 -30 4 C-20.67157743 -5.89319137 -11.55644487 -7.39612471 0 0 Z " fill="#847C72" transform="translate(82,8)"/>
<path d="M0 0 C3.32008943 1.08177088 3.9853633 2.31179696 5.7265625 5.28515625 C7.59516232 8.43147433 8.48316801 9.76872659 11.6015625 11.84765625 C15.74932523 12.13428058 15.74932523 12.13428058 19.6015625 10.84765625 C20.0553125 9.85765625 20.5090625 8.86765625 20.9765625 7.84765625 C22.6015625 4.84765625 22.6015625 4.84765625 24.6640625 3.84765625 C25.3034375 3.84765625 25.9428125 3.84765625 26.6015625 3.84765625 C28.6015625 5.84765625 28.6015625 5.84765625 28.8515625 8.66015625 C28.47503568 13.46087319 27.69718323 15.8082212 24.1640625 19.16015625 C19.2560623 21.48499845 14.94095165 21.18968118 9.6015625 20.84765625 C9.75625 22.33265625 9.75625 22.33265625 9.9140625 23.84765625 C9.92571138 29.57890451 6.49711516 33.75601194 2.7890625 37.84765625 C-0.60221516 39.39795461 -3.75147326 39.65058871 -7.3984375 38.84765625 C-11.58756665 34.98924782 -13.29511914 30.84514446 -13.5859375 25.22265625 C-13.3984375 21.84765625 -13.3984375 21.84765625 -12.3984375 18.84765625 C-13.06230469 18.8940625 -13.72617188 18.94046875 -14.41015625 18.98828125 C-21.66950812 19.28501388 -21.66950812 19.28501388 -25.5234375 16.97265625 C-27.3984375 14.84765625 -27.3984375 14.84765625 -27.3984375 12.84765625 C-28.0584375 12.84765625 -28.7184375 12.84765625 -29.3984375 12.84765625 C-29.3984375 9.21765625 -29.3984375 5.58765625 -29.3984375 1.84765625 C-27.7484375 1.51765625 -26.0984375 1.18765625 -24.3984375 0.84765625 C-20.3984375 7.59765625 -20.3984375 7.59765625 -20.3984375 9.84765625 C-12.58180425 8.83073503 -8.91197286 7.23957545 -3.8984375 0.97265625 C-2.3984375 -0.15234375 -2.3984375 -0.15234375 0 0 Z " fill="#0E090B" transform="translate(187.3984375,161.15234375)"/>
<path d="M0 0 C0 0.66 0 1.32 0 2 C0.886875 2.2475 1.77375 2.495 2.6875 2.75 C9.11282529 5.17465105 12.1590703 8.99084454 15 15 C16.70450789 19.17604433 17.2144581 22.49637998 17 27 C18.65 27.33 20.3 27.66 22 28 C21.67 29.65 21.34 31.3 21 33 C20.38125 33.08765625 19.7625 33.1753125 19.125 33.265625 C16.8917607 33.79881328 16.8917607 33.79881328 15.875 35.671875 C15.58625 36.35765625 15.2975 37.0434375 15 37.75 C12.64934394 42.88287788 9.84359882 46.93238741 5 50 C4.34 50 3.68 50 3 50 C3 50.66 3 51.32 3 52 C-1.73898266 54.45153075 -6.12062333 54.23154206 -11.3125 54.125 C-12.14845703 54.11597656 -12.98441406 54.10695312 -13.84570312 54.09765625 C-15.89725969 54.07420989 -17.94866777 54.03834266 -20 54 C-19.67 52.35 -19.34 50.7 -19 49 C-17.95199219 48.93941406 -16.90398437 48.87882812 -15.82421875 48.81640625 C-14.44529952 48.73198262 -13.06639395 48.64733553 -11.6875 48.5625 C-10.99720703 48.52318359 -10.30691406 48.48386719 -9.59570312 48.44335938 C-3.01616565 48.03015171 -0.45492022 46.86933141 4 42 C4.5465625 41.46632812 5.093125 40.93265625 5.65625 40.3828125 C10.32313561 35.25364105 11.01329448 30.45843204 10.71875 23.625 C9.49315598 17.44374319 6.44838295 12.43350541 2 8 C-1.13545473 6.63678641 -1.13545473 6.63678641 -4 6 C-4 5.34 -4 4.68 -4 4 C-12.415 4.495 -12.415 4.495 -21 5 C-21.33 5.99 -21.66 6.98 -22 8 C-24.66137199 10.38122757 -26.5967577 11.8655859 -30 13 C-33.74281544 18.54491176 -33.62539957 23.76118068 -32.68359375 30.14453125 C-31.69271302 34.81327558 -29.88989892 38.14680143 -27 42 C-26.4225 42.78375 -25.845 43.5675 -25.25 44.375 C-24.8375 44.91125 -24.425 45.4475 -24 46 C-25.32 48.31 -26.64 50.62 -28 53 C-28.598125 52.236875 -29.19625 51.47375 -29.8125 50.6875 C-31.84004112 48.08664741 -31.84004112 48.08664741 -33.75 46.3125 C-35 45 -35 45 -35 43 C-35.66 43 -36.32 43 -37 43 C-41.32172368 33.04124542 -42.03614149 24.42748242 -38.51171875 14.02734375 C-36.04522599 9.08798486 -32.34489121 6.24866636 -28 3 C-27.24203125 2.18982422 -27.24203125 2.18982422 -26.46875 1.36328125 C-20.76449105 -3.93136336 -6.29604407 -3.76865346 0 0 Z " fill="#EBB823" transform="translate(235,120)"/>
<path d="M0 0 C4.03691255 2.95299111 6.35245325 6.78654174 7.26953125 11.66015625 C8.14473224 22.09083034 8.14473224 22.09083034 5.45703125 26.91015625 C3.26953125 28.66015625 3.26953125 28.66015625 0.26953125 28.66015625 C0.26953125 29.32015625 0.26953125 29.98015625 0.26953125 30.66015625 C-4.72625904 33.64093804 -10.09043539 33.29254591 -15.73046875 32.66015625 C-18.47812307 31.60513038 -20.32780662 30.40754689 -22.73046875 28.66015625 C-22.73046875 27.67015625 -22.73046875 26.68015625 -22.73046875 25.66015625 C-23.39046875 25.66015625 -24.05046875 25.66015625 -24.73046875 25.66015625 C-27.11481118 20.14636437 -27.70770562 14.56643872 -26.73046875 8.66015625 C-21.73875757 -0.85852058 -9.70884006 -4.76413754 0 0 Z " fill="#F4F3ED" transform="translate(169.73046875,124.33984375)"/>
<path d="M0 0 C0.66 0 1.32 0 2 0 C2.33 1.65 2.66 3.3 3 5 C3.99 4.34 4.98 3.68 6 3 C7.17187125 6.47694914 7.03802574 6.91516615 5.41015625 10.546875 C4.63882084 11.9541231 3.85544168 13.3548122 3.0625 14.75 C2.21850603 16.28821522 1.3760912 17.8272978 0.53515625 19.3671875 C0.10734863 20.14416992 -0.32045898 20.92115234 -0.76123047 21.72167969 C-2.58166661 25.06978967 -4.30151228 28.46376245 -6 31.875 C-6.3192041 32.51155518 -6.6384082 33.14811035 -6.96728516 33.80395508 C-8.841781 37.57112312 -10.63990164 41.36688946 -12.39453125 45.19140625 C-12.79736328 46.06361816 -13.20019531 46.93583008 -13.61523438 47.83447266 C-14.40066038 49.54210154 -15.17703602 51.25392846 -15.94335938 52.97021484 C-16.29849609 53.74187988 -16.65363281 54.51354492 -17.01953125 55.30859375 C-17.32995361 55.99751709 -17.64037598 56.68644043 -17.96020508 57.39624023 C-19 59 -19 59 -22 60 C-22.66 59.67 -23.32 59.34 -24 59 C-22.06176713 41.32637659 -20.02420722 23.66393345 -18 6 C-16.906875 5.690625 -15.81375 5.38125 -14.6875 5.0625 C-12.44592006 4.41662103 -10.2130649 3.7376883 -8 3 C-6.4840625 3.061875 -6.4840625 3.061875 -4.9375 3.125 C-3.968125 3.08375 -2.99875 3.0425 -2 3 C-1.34 2.01 -0.68 1.02 0 0 Z " fill="#1A1515" transform="translate(270,291)"/>
<path d="M0 0 C7.53295669 -0.37664783 7.53295669 -0.37664783 9.9375 1.5625 C12.97370836 3.67864522 15.42484151 2.91746398 18.9765625 2.421875 C21.05671019 2.07799576 21.05671019 2.07799576 23 1 C24.70702735 0.93003986 26.41668003 0.91559846 28.125 0.9375 C29.03507812 0.94652344 29.94515625 0.95554687 30.8828125 0.96484375 C31.93082031 0.98224609 31.93082031 0.98224609 33 1 C33 1.66 33 2.32 33 3 C38.12919186 5.10428384 42.5610835 5.21755666 48 5 C48 4.34 48 3.68 48 3 C50.97 3 53.94 3 57 3 C57 3.66 57 4.32 57 5 C58.175625 5.4640625 58.175625 5.4640625 59.375 5.9375 C62 7 62 7 64 8 C67.67329964 8.13357453 70.49852959 8.1671568 74 7 C75.56118428 6.93259135 77.1250252 6.91485544 78.6875 6.9375 C79.89986328 6.95103516 79.89986328 6.95103516 81.13671875 6.96484375 C82.05904297 6.98224609 82.05904297 6.98224609 83 7 C83 7.66 83 8.32 83 9 C83.66 9 84.32 9 85 9 C85 9.66 85 10.32 85 11 C88.12929178 12.83069903 90.37643146 13.23931181 93.984375 13.1953125 C94.91894531 13.18886719 95.85351562 13.18242188 96.81640625 13.17578125 C97.78449219 13.15902344 98.75257813 13.14226562 99.75 13.125 C100.73355469 13.11597656 101.71710938 13.10695313 102.73046875 13.09765625 C105.15389407 13.07412785 107.57682222 13.04125368 110 13 C110.30679688 13.78890625 110.61359375 14.5778125 110.9296875 15.390625 C112.2991978 18.7503391 112.2991978 18.7503391 115 21 C117.67992702 21.54659898 120.26328507 21.7756791 123 22 C123 23.32 123 24.64 123 26 C115.17647059 26.86928105 115.17647059 26.86928105 111.890625 24.44140625 C111.20484375 23.80074219 110.5190625 23.16007812 109.8125 22.5 C104.81210452 18.10385546 100.77383417 18.71956964 94.375 19.078125 C89.2490446 18.95946863 86.1610545 16.73978897 82 14 C77.5512083 12.0641895 77.5512083 12.0641895 73 13 C71.14772748 13.09357692 69.2921282 13.12993909 67.4375 13.125 C66.46683594 13.12757812 65.49617188 13.13015625 64.49609375 13.1328125 C62 13 62 13 60 12 C60 11.34 60 10.68 60 10 C55.59975574 7.7332075 52.79956235 8.12008024 48 9 C41.60438012 10.16799441 37.78987346 10.13618146 32 7 C31.505 6.505 31.505 6.505 31 6 C28.92522297 6.06440919 28.92522297 6.06440919 26.5625 6.375 C25.35787109 6.51035156 25.35787109 6.51035156 24.12890625 6.6484375 C21.95395868 6.89989241 21.95395868 6.89989241 20 8 C14.25382491 8.58703557 10.92346719 8.06053366 6 5 C2.42339063 5.15219614 0.29159172 5.83152478 -2.8125 7.625 C-7.10026984 9.4746262 -10.50538957 8.97083585 -15 8 C-15.66 7.67 -16.32 7.34 -17 7 C-19.95633516 6.58748812 -22.09773742 6.38266244 -24.6328125 8.1171875 C-25.18710938 8.57351562 -25.74140625 9.02984375 -26.3125 9.5 C-30.46163428 12.73522805 -33.9234759 12.53710665 -39 12 C-40.16402344 11.88011719 -40.16402344 11.88011719 -41.3515625 11.7578125 C-43.23845941 11.53778565 -45.12010043 11.27343994 -47 11 C-46.67 9.35 -46.34 7.7 -46 6 C-44.7934375 6.2475 -44.7934375 6.2475 -43.5625 6.5 C-35.45036849 7.80401223 -35.45036849 7.80401223 -28.0625 5.0625 C-27.381875 4.381875 -26.70125 3.70125 -26 3 C-23.59454362 1.79727181 -22.05003047 1.89928528 -19.375 1.9375 C-18.14910156 1.95103516 -18.14910156 1.95103516 -16.8984375 1.96484375 C-15.95871094 1.98224609 -15.95871094 1.98224609 -15 2 C-15 2.66 -15 3.32 -15 4 C-11.37 4 -7.74 4 -4 4 C-4 3.34 -4 2.68 -4 2 C-2.68 2 -1.36 2 0 2 C0 1.34 0 0.68 0 0 Z " fill="#B1ABA5" transform="translate(150,104)"/>
<path d="M0 0 C2.2539438 1.96311234 2.61008262 2.76062724 2.9375 5.6875 C2.08886719 7.73046875 2.08886719 7.73046875 0.734375 9.875 C0.24839844 10.65617188 -0.23757812 11.43734375 -0.73828125 12.2421875 C-1.25777344 13.04914062 -1.77726562 13.85609375 -2.3125 14.6875 C-2.81652344 15.49445312 -3.32054688 16.30140625 -3.83984375 17.1328125 C-8.700378 24.863741 -8.700378 24.863741 -11.0625 27.6875 C-11.7225 27.6875 -12.3825 27.6875 -13.0625 27.6875 C-13.330625 28.265 -13.59875 28.8425 -13.875 29.4375 C-15.07969859 31.7200868 -16.47048115 33.6612942 -18.0625 35.6875 C-20.1875 35.6875 -20.1875 35.6875 -23.0625 34.6875 C-28.12224858 29.2888209 -30.46407761 24.49644425 -30.33203125 17.08984375 C-29.53432165 9.97982339 -25.40637508 5.44964181 -19.99609375 1.1015625 C-13.77093589 -3.45097719 -6.97305904 -2.98845388 0 0 Z " fill="#0B0709" transform="translate(78.0625,5.3125)"/>
<path d="M0 0 C1.65 0 3.3 0 5 0 C5.70552263 19.71623789 6.2026849 39.39814814 5.6875 59.125 C5.67034943 59.89557739 5.65319885 60.66615479 5.63552856 61.46008301 C5.58443353 63.64314408 5.51957502 65.82529636 5.44921875 68.0078125 C5.41143311 69.24160645 5.37364746 70.47540039 5.3347168 71.74658203 C4.98732113 75.12323755 4.49472858 78.50527142 2 81 C-0.65653443 81.10002455 -3.28129272 81.13877463 -5.9375 81.125 C-7.0502832 81.13080078 -7.0502832 81.13080078 -8.18554688 81.13671875 C-13.74672998 81.12663501 -13.74672998 81.12663501 -16 80 C-15.125 75.125 -15.125 75.125 -14 74 C-12.31816052 73.76712992 -10.6287584 73.58735834 -8.9375 73.4375 C-8.06552979 73.36023682 -7.19355957 73.28297363 -6.29516602 73.20336914 C-5.53776123 73.13625732 -4.78035645 73.06914551 -4 73 C-3.27012106 63.03667061 -2.89638167 53.09469873 -2.75390625 43.10546875 C-2.73725922 41.97601837 -2.72061218 40.84656799 -2.70346069 39.68289185 C-2.63680441 34.98356161 -2.57446554 30.28424187 -2.52319336 25.5847168 C-2.48363439 22.1122919 -2.43215297 18.64020692 -2.37890625 15.16796875 C-2.3704921 14.10450729 -2.36207794 13.04104584 -2.35340881 11.94535828 C-2.32844582 10.46649895 -2.32844582 10.46649895 -2.30297852 8.95776367 C-2.29267105 8.09414719 -2.28236359 7.2305307 -2.27174377 6.34074402 C-1.98004955 3.82815098 -1.26200502 2.17413464 0 0 Z " fill="#847B72" transform="translate(163,269)"/>
<path d="M0 0 C3.53571429 0.53571429 3.53571429 0.53571429 5 2 C5.09971069 4.28452742 5.12799866 6.57218476 5.12939453 8.85888672 C5.13114685 9.57597809 5.13289917 10.29306946 5.13470459 11.03189087 C5.13912404 13.414514 5.13618419 15.79706354 5.1328125 18.1796875 C5.13348566 19.83016982 5.13445579 21.48065205 5.13571167 23.13113403 C5.13718889 26.59638408 5.13503387 30.0616084 5.13037109 33.52685547 C5.12468269 37.97132867 5.12794701 42.41574137 5.13394356 46.86021233 C5.13755612 50.27109229 5.13640722 53.6819579 5.13381577 57.09283829 C5.13314796 58.73151786 5.13396982 60.37019874 5.13629532 62.0088768 C5.13883223 64.30006104 5.13496613 66.59114728 5.12939453 68.88232422 C5.12859894 70.18724823 5.12780334 71.49217224 5.12698364 72.8366394 C5 76 5 76 4 79 C0.98138236 80.50930882 -2.12991303 80.18438844 -5.4375 80.1875 C-6.4594043 80.20586914 -6.4594043 80.20586914 -7.50195312 80.22460938 C-11.22829809 80.23555848 -12.81991571 80.12005619 -16 78 C-15.125 74.125 -15.125 74.125 -14 73 C-12.31816052 72.76712992 -10.6287584 72.58735834 -8.9375 72.4375 C-8.01839844 72.35371094 -7.09929687 72.26992188 -6.15234375 72.18359375 C-5.44207031 72.12300781 -4.73179687 72.06242187 -4 72 C-3.27966394 67.4483129 -2.8663371 63.06050576 -2.82641602 58.45385742 C-2.81292618 57.19953415 -2.79943634 55.94521088 -2.78553772 54.65287781 C-2.7779478 53.6632734 -2.7779478 53.6632734 -2.77020454 52.65367699 C-2.75364928 50.57317566 -2.7304144 48.49284453 -2.70530701 46.41242981 C-2.63487811 40.50266092 -2.57415518 34.59283007 -2.52319336 28.68286133 C-2.49146037 25.05666434 -2.45022248 21.43067801 -2.40299797 17.80465126 C-2.38697041 16.42475455 -2.3746523 15.04480965 -2.36609077 13.66484642 C-2.35397904 11.74287728 -2.32880132 9.82100375 -2.30297852 7.89916992 C-2.29267105 6.80553635 -2.28236359 5.71190277 -2.27174377 4.58512878 C-2 2 -2 2 0 0 Z " fill="#82796F" transform="translate(190,270)"/>
<path d="M0 0 C0.5775 0.165 1.155 0.33 1.75 0.5 C4.26664369 1.14462031 4.26664369 1.14462031 8 1 C10.25 2.5 10.25 2.5 12 4 C11.67 4.33 11.34 4.66 11 5 C11.99 5.495 11.99 5.495 13 6 C13 6.66 13 7.32 13 8 C18.69398894 10.09570426 23.95198929 11.45018084 30 12 C30 12.66 30 13.32 30 14 C31.11375 13.62875 31.11375 13.62875 32.25 13.25 C35 13 35 13 37.3125 14.8125 C39 17 39 17 39 19 C33.51053913 20.12029814 30.16569441 19.79217969 25 18 C25 17.34 25 16.68 25 16 C20.71 15.34 16.42 14.68 12 14 C12 13.34 12 12.68 12 12 C10.07027344 12.05800781 10.07027344 12.05800781 8.1015625 12.1171875 C3.00475443 12.11519578 -1.66726546 11.23034535 -6.625 10.125 C-24.80988171 6.28853417 -42.88354968 4.81286997 -61.44702148 4.81469727 C-63.93034921 4.81250631 -66.41323438 4.79426068 -68.89648438 4.77539062 C-82.429484 4.72717089 -95.05368171 6.39386417 -108.234375 9.51171875 C-111 10 -111 10 -113 9 C-112.67 8.01 -112.34 7.02 -112 6 C-96.83784695 -0.16904961 -78.20643243 0.59951252 -62.125 0.625 C-60.63045288 0.62332321 -60.63045288 0.62332321 -59.10571289 0.62161255 C-38.45236738 0.63295284 -18.35885579 2.56033231 2 6 C2 5.01 2 4.02 2 3 C1.34 3 0.68 3 0 3 C0 2.01 0 1.02 0 0 Z " fill="#CEBCAB" transform="translate(220,244)"/>
<path d="M0 0 C3.05824055 0.52553476 6.01550207 1.28020527 9 2.125 C9.78874512 2.34438232 10.57749023 2.56376465 11.39013672 2.78979492 C17.26918453 4.53569027 21.47555948 6.77063169 26 11 C25.67 12.32 25.34 13.64 25 15 C24.34 15 23.68 15 23 15 C22.67 15.66 22.34 16.32 22 17 C19.64350745 17.68313215 17.40725266 18.19410095 15 18.625 C14.27047119 18.75688721 13.54094238 18.88877441 12.78930664 19.0246582 C1.95925168 20.74390859 -9.07252649 20.25688455 -20 20 C-19.505 18.515 -19.505 18.515 -19 17 C-18.34 16.67 -17.68 16.34 -17 16 C-16.67 15.34 -16.34 14.68 -16 14 C-15.01 14 -14.02 14 -13 14 C-12.97421875 13.40832031 -12.9484375 12.81664062 -12.921875 12.20703125 C-12.64187889 8.30617635 -12.23272206 5.45613524 -10.4375 1.9375 C-7.07332205 -0.73659017 -4.09822334 -0.35935335 0 0 Z " fill="#C8AF92" transform="translate(220,261)"/>
<path d="M0 0 C0 0.66 0 1.32 0 2 C0.99 2.0825 1.98 2.165 3 2.25 C8.24149339 3.79350726 10.69717805 8.04553089 13.4375 12.50390625 C16.07531544 18.4060183 16.39654817 23.70802489 15 30 C13.13944912 33.56691246 10.83900071 36.17900564 8 39 C6.88625 40.4540625 6.88625 40.4540625 5.75 41.9375 C0.72363438 45.70727421 -5.87388589 46.42227959 -12.0625 45.8125 C-15 45 -15 45 -17 42 C-17.763125 41.731875 -18.52625 41.46375 -19.3125 41.1875 C-23.56781913 39.30724271 -25.82807909 35.87507345 -28.25 32 C-30.38076761 26.31795304 -31.34631118 18.79747557 -29.28125 12.97265625 C-27.17692592 8.95916718 -24.93374671 7.06053399 -21 5 C-20.21625 4.113125 -19.4325 3.22625 -18.625 2.3125 C-13.89341708 -1.89055504 -5.92875892 -0.33943276 0 0 Z M-21 8 C-22.88119456 10.5180573 -24.01174601 13.0290226 -25 16 C-25.33 16.99 -25.66 17.98 -26 19 C-26 19.99 -26 20.98 -26 22 C-26 25 -26 25 -27 28 C-26.50845783 30.02118336 -26.50845783 30.02118336 -25.625 32.0625 C-25.34914062 32.75472656 -25.07328125 33.44695312 -24.7890625 34.16015625 C-24.23249348 35.45789886 -23.63149109 36.73701783 -23 38 C-21.02111039 38.72693904 -19.02045442 39.39816251 -17 40 C-16.67 39.34 -16.34 38.68 -16 38 C-15.09378906 38.08121094 -14.18757812 38.16242188 -13.25390625 38.24609375 C-5.38982155 38.6538611 -0.7088534 38.22812727 5.328125 33.01953125 C8.75139122 28.88441761 9.26011421 25.14283083 9.1875 19.875 C9.17783203 18.32425781 9.17783203 18.32425781 9.16796875 16.7421875 C9.11257378 13.90833023 9.11257378 13.90833023 8 11 C7.34 11 6.68 11 6 11 C5.505 8.525 5.505 8.525 5 6 C4.484375 5.87625 3.96875 5.7525 3.4375 5.625 C1.46383087 5.11893099 -0.49085084 4.53919156 -2.4375 3.9375 C-9.75370518 2.01218285 -14.87197714 3.673119 -21 8 Z " fill="#EFE2CF" transform="translate(231,124)"/>
<path d="M0 0 C0.639375 0.45375 1.27875 0.9075 1.9375 1.375 C3.175 2.1175 3.175 2.1175 4.4375 2.875 C5.675 3.6175 5.675 3.6175 6.9375 4.375 C8.26695756 5.04936253 9.59966247 5.71741884 10.9375 6.375 C9.77934219 13.23251334 8.03908179 18.05187666 3.1875 23.25 C-0.21194827 24.94972414 -3.34875748 25.19263467 -7.0625 24.375 C-11.25162915 20.51659157 -12.95918164 16.37248821 -13.25 10.75 C-13.0625 7.375 -13.0625 7.375 -12.0625 4.375 C-10.7425 4.375 -9.4225 4.375 -8.0625 4.375 C-8.0625 3.715 -8.0625 3.055 -8.0625 2.375 C-2.67266949 -0.80989985 -2.67266949 -0.80989985 0 0 Z " fill="#685E58" transform="translate(187.0625,175.625)"/>
<path d="M0 0 C2.5 0.125 2.5 0.125 3.5 1.125 C3.67962858 8.03401194 1.42370474 13.00226214 -2.25 18.6875 C-2.72864502 19.4511084 -3.20729004 20.2147168 -3.70043945 21.00146484 C-8.98369823 29.22589303 -15.14788985 36.7125217 -21.5 44.125 C-24.12187494 43.07625002 -25.29371361 42.47568687 -26.75 40 C-26.9975 39.38125 -27.245 38.7625 -27.5 38.125 C-26.97212891 37.46250244 -26.97212891 37.46250244 -26.43359375 36.78662109 C-18.09338075 26.26064079 -10.81824065 15.85357648 -4.8515625 3.79296875 C-3.00623404 0.1503117 -3.00623404 0.1503117 0 0 Z " fill="#0E090A" transform="translate(92.5,5.875)"/>
<path d="M0 0 C6.1968266 8.62255806 9.72224144 26.28452778 10.41796875 36.78515625 C9.73081066 40.42645191 7.51045341 42.02894137 4.56640625 44.07421875 C4.04949219 44.37972656 3.53257812 44.68523437 3 45 C1.02 44.01 -0.96 43.02 -3 42 C-2.42655063 39.13275314 -2.1385485 38.1385485 0 36 C0.21939351 29.76307461 -1.77231554 23.49092583 -3.5 17.5625 C-3.72558594 16.76134766 -3.95117188 15.96019531 -4.18359375 15.13476562 C-5.33784221 10.973171 -5.33784221 10.973171 -7 7 C-7.04022391 4.6670134 -7.04320247 2.33293334 -7 0 C-4.25646895 -1.37176553 -2.87888524 -0.93113944 0 0 Z " fill="#837A70" transform="translate(268,231)"/>
<path d="M0 0 C1.67542976 0.28604898 3.34385343 0.61781233 5 1 C7.17932116 8.78328987 4.17964721 13.91239437 0.88916016 20.99707031 C-0.69302558 24.56111529 -2.02779398 28.21707209 -3.375 31.875 C-3.63740479 32.58333984 -3.89980957 33.29167969 -4.17016602 34.02148438 C-4.78303616 35.6799114 -5.39197519 37.33979042 -6 39 C-6.66 39 -7.32 39 -8 39 C-8.33 40.32 -8.66 41.64 -9 43 C-9.66 43 -10.32 43 -11 43 C-11.20786348 33.77413356 -10.61123717 24.84269274 -9.5 15.6875 C-9.35691406 14.45837891 -9.21382812 13.22925781 -9.06640625 11.96289062 C-8.71755683 8.97441396 -8.3620103 5.98690587 -8 3 C-6.865625 2.690625 -5.73125 2.38125 -4.5625 2.0625 C-1.21224901 1.37075469 -1.21224901 1.37075469 0 0 Z " fill="#0A0607" transform="translate(260,294)"/>
<path d="M0 0 C2.83021919 0.66706735 2.83021919 0.66706735 5.75 -0.5625 C6.4375 1.25 6.4375 1.25 6.75 3.4375 C6.02876953 4.10845703 6.02876953 4.10845703 5.29296875 4.79296875 C3.30481166 6.91199188 3.42262746 8.07985252 3.375 10.9375 C3.02310819 15.18780108 3.02310819 15.18780108 0.5625 17.4375 C-4.05599668 19.07963215 -6.79176831 19.99835834 -11.5 18.1875 C-14.25 16.4375 -14.25 16.4375 -16.25 13.4375 C-16.92226891 6.49072129 -16.92226891 6.49072129 -14.375 2.5 C-10.1037364 -1.6456382 -5.6535258 -0.97849485 0 0 Z " fill="#82786E" transform="translate(259.25,278.5625)"/>
<path d="M0 0 C3.06901303 0.01838613 6.13772437 0.02050797 9.20678711 0.02026367 C11.19441988 0.02517664 13.18205065 0.031004 15.16967773 0.0378418 C16.51851799 0.03951103 16.51851799 0.03951103 17.89460754 0.04121399 C35.85389431 0.17314277 35.85389431 0.17314277 43.74389648 4.20581055 C43.74389648 4.53581055 43.74389648 4.86581055 43.74389648 5.20581055 C42.01483165 5.23384944 40.28561775 5.25265136 38.55639648 5.26831055 C37.11200195 5.28571289 37.11200195 5.28571289 35.63842773 5.3034668 C32.39258338 5.22207652 29.23298204 4.99857724 26.00170898 4.71362305 C18.09861667 4.07999895 10.22059307 4.01972784 2.296875 4.02050781 C-0.18645272 4.01831686 -2.6693379 4.00007123 -5.15258789 3.98120117 C-18.68558751 3.93298143 -31.30978523 5.59967472 -44.49047852 8.7175293 C-47.25610352 9.20581055 -47.25610352 9.20581055 -49.25610352 8.20581055 C-48.92610352 7.21581055 -48.59610352 6.22581055 -48.25610352 5.20581055 C-33.50878533 -0.79445454 -15.62348422 -0.09675929 0 0 Z " fill="#CCBAAA" transform="translate(156.256103515625,244.794189453125)"/>
<path d="M0 0 C7.9245283 -0.39622642 7.9245283 -0.39622642 12 3 C15.15118325 3.72045367 15.15118325 3.72045367 18 4 C17.67 5.32 17.34 6.64 17 8 C13.48102354 8.24550999 11.54015618 8.33759761 8.5 6.4375 C6.05539479 4.73530187 6.05539479 4.73530187 3.0625 5.125 C-0.06089949 5.88315667 -0.06089949 5.88315667 -2.8125 7.625 C-7.10026984 9.4746262 -10.50538957 8.97083585 -15 8 C-15.66 7.67 -16.32 7.34 -17 7 C-19.95633516 6.58748812 -22.09773742 6.38266244 -24.6328125 8.1171875 C-25.18710938 8.57351562 -25.74140625 9.02984375 -26.3125 9.5 C-30.46163428 12.73522805 -33.9234759 12.53710665 -39 12 C-40.16402344 11.88011719 -40.16402344 11.88011719 -41.3515625 11.7578125 C-43.23845941 11.53778565 -45.12010043 11.27343994 -47 11 C-46.67 9.35 -46.34 7.7 -46 6 C-44.7934375 6.2475 -44.7934375 6.2475 -43.5625 6.5 C-35.45036849 7.80401223 -35.45036849 7.80401223 -28.0625 5.0625 C-27.381875 4.381875 -26.70125 3.70125 -26 3 C-23.59454362 1.79727181 -22.05003047 1.89928528 -19.375 1.9375 C-18.14910156 1.95103516 -18.14910156 1.95103516 -16.8984375 1.96484375 C-15.95871094 1.98224609 -15.95871094 1.98224609 -15 2 C-15 2.66 -15 3.32 -15 4 C-11.37 4 -7.74 4 -4 4 C-4 3.34 -4 2.68 -4 2 C-2.68 2 -1.36 2 0 2 C0 1.34 0 0.68 0 0 Z " fill="#B1AAA5" transform="translate(150,104)"/>
<path d="M0 0 C0.99 0.66 1.98 1.32 3 2 C5.62531524 2.16713569 5.62531524 2.16713569 8 2 C3.55837162 15.20800019 -5.42717722 28.80977712 -16 38 C-18.140625 38.609375 -18.140625 38.609375 -20.25 38.75 C-21.4875 38.8325 -22.725 38.915 -24 39 C-22.68 38.01 -21.36 37.02 -20 36 C-20.66 35.34 -21.32 34.68 -22 34 C-21.34 34 -20.68 34 -20 34 C-19.5978125 33.13375 -19.5978125 33.13375 -19.1875 32.25 C-17.97070811 29.94449957 -16.69666121 27.97943808 -15 26 C-14.34 26 -13.68 26 -13 26 C-12.72365723 25.42636719 -12.44731445 24.85273438 -12.16259766 24.26171875 C-11.01272516 22.02475554 -9.74845946 19.93389408 -8.3984375 17.8125 C-7.90859375 17.03132813 -7.41875 16.25015625 -6.9140625 15.4453125 C-5.88579811 13.81157262 -4.85190771 12.18136057 -3.8125 10.5546875 C-3.32523438 9.77351563 -2.83796875 8.99234375 -2.3359375 8.1875 C-1.88782715 7.47980469 -1.4397168 6.77210937 -0.97802734 6.04296875 C0.28786582 3.77618792 0.28786582 3.77618792 0 0 Z " fill="#9F9996" transform="translate(80,7)"/>
<path d="M0 0 C2.9375 1.5625 2.9375 1.5625 5 4 C6.14009771 7.91908586 6.40888632 10.03158504 4.8125 13.8125 C2.86322363 16.16507493 1.90567066 17.11215619 -1 18 C-7.22048998 18.54565702 -7.22048998 18.54565702 -9.875 16.6875 C-12.45081272 12.82378092 -12.62321363 8.48894455 -12 4 C-9.18445767 -0.69257054 -5.07569374 -0.97686963 0 0 Z " fill="#140F11" transform="translate(226,136)"/>
<path d="M0 0 C3.8534971 0.90800794 5.45715161 2.44672346 8.0390625 5.48046875 C8.90207422 9.87398295 8.5669226 11.68016473 6.1015625 15.41796875 C2.08375234 18.1238409 -1.23004344 18.32210721 -5.9609375 17.48046875 C-8.9609375 15.48046875 -8.9609375 15.48046875 -9.9609375 12.48046875 C-10.33011713 8.49332874 -10.29520897 6.13508371 -8.4609375 2.54296875 C-5.61415387 0.19437225 -3.68593456 -0.25539247 0 0 Z " fill="#130E10" transform="translate(161.9609375,131.51953125)"/>
<path d="M0 0 C0 0.66 0 1.32 0 2 C3.12929178 3.83069903 5.37643146 4.23931181 8.984375 4.1953125 C9.91894531 4.18886719 10.85351562 4.18242188 11.81640625 4.17578125 C12.78449219 4.15902344 13.75257813 4.14226562 14.75 4.125 C15.73355469 4.11597656 16.71710938 4.10695313 17.73046875 4.09765625 C20.15389407 4.07412785 22.57682222 4.04125368 25 4 C25.30679688 4.78890625 25.61359375 5.5778125 25.9296875 6.390625 C27.2991978 9.7503391 27.2991978 9.7503391 30 12 C32.67992702 12.54659898 35.26328507 12.7756791 38 13 C38 14.32 38 15.64 38 17 C30.17647059 17.86928105 30.17647059 17.86928105 26.890625 15.44140625 C26.20484375 14.80074219 25.5190625 14.16007812 24.8125 13.5 C19.81210452 9.10385546 15.77383417 9.71956964 9.375 10.078125 C4.98029916 9.97639581 2.49984198 8.61005392 -1.10546875 6.2421875 C-4.69748196 3.88701183 -8.85447686 2.95665919 -13 2 C-9.16001987 -2.17389144 -5.07563763 -0.9001665 0 0 Z " fill="#A8A29F" transform="translate(235,113)"/>
<path d="M0 0 C0.99 0.33 1.98 0.66 3 1 C2 4 2 4 0 5 C1.175625 5.3403125 1.175625 5.3403125 2.375 5.6875 C5 7 5 7 6.25 9.4375 C6.4975 10.283125 6.745 11.12875 7 12 C7.66868314 15.11332248 7.66868314 15.11332248 10.0625 16.1875 C10.701875 16.455625 11.34125 16.72375 12 17 C12 17.66 12 18.32 12 19 C9.49502996 20.25248502 7.79146726 20.11374406 4.9921875 20.09765625 C4.00605469 20.09443359 3.01992187 20.09121094 2.00390625 20.08789062 C0.97136719 20.07951172 -0.06117188 20.07113281 -1.125 20.0625 C-2.68541016 20.05573242 -2.68541016 20.05573242 -4.27734375 20.04882812 C-6.85161962 20.03701952 -9.42578146 20.02055075 -12 20 C-11.505 18.515 -11.505 18.515 -11 17 C-10.34 16.67 -9.68 16.34 -9 16 C-8.67 15.34 -8.34 14.68 -8 14 C-7.01 14 -6.02 14 -5 14 C-4.97421875 13.40832031 -4.9484375 12.81664062 -4.921875 12.20703125 C-4.54295586 6.9279987 -3.89363339 3.89363339 0 0 Z " fill="#CCB7A3" transform="translate(212,261)"/>
<path d="M0 0 C0.33 0.66 0.66 1.32 1 2 C2.66500443 2.34153937 4.33178677 2.67449498 6 3 C8 5 8 5 8.3125 7.9375 C8.19499086 12.56931848 7.36504854 20.63495146 4 24 C2.00041636 24.04080783 -0.00045254 24.04254356 -2 24 C-2.08121924 22.39667209 -2.13929134 20.79215974 -2.1875 19.1875 C-2.22230469 18.29417969 -2.25710938 17.40085937 -2.29296875 16.48046875 C-1.95081002 13.58352485 -1.24606427 12.77444972 1 11 C0.67 10.01 0.34 9.02 0 8 C-0.8971875 8.2784375 -0.8971875 8.2784375 -1.8125 8.5625 C-4 9 -4 9 -7 8 C-6.3125 5.125 -6.3125 5.125 -5 2 C-2.375 0.625 -2.375 0.625 0 0 Z " fill="#E8B937" transform="translate(264,271)"/>
<path d="M0 0 C1.81495662 0.44850658 3.62693134 0.90909571 5.4375 1.375 C6.44683594 1.63023438 7.45617187 1.88546875 8.49609375 2.1484375 C11 3 11 3 12 5 C11.67 5.66 11.34 6.32 11 7 C12.32 7.33 13.64 7.66 15 8 C15.0825 8.53625 15.165 9.0725 15.25 9.625 C15.92667904 12.22903763 15.92667904 12.22903763 18.125 14.8125 C20.44037658 18.74864019 20.04343325 20.65236144 19 25 C20.65 25.33 22.3 25.66 24 26 C24 28.64 24 31.28 24 34 C23.21625 34.0825 22.4325 34.165 21.625 34.25 C18.89432696 34.7037258 18.89432696 34.7037258 17.9375 36.80859375 C17.3559346 38.16800287 16.77942393 39.52960097 16.2109375 40.89453125 C13.67461088 46.71386009 9.96738666 50.1418356 5 54 C3.68 53.34 2.36 52.68 1 52 C1.66 52 2.32 52 3 52 C3 51.34 3 50.68 3 50 C4.5778125 48.9790625 4.5778125 48.9790625 6.1875 47.9375 C10.097985 45.28565288 11.86993085 42.26013831 13.95703125 38.0859375 C15 36 15 36 17 33 C19.125 32.3125 19.125 32.3125 21 32 C21.33 30.68 21.66 29.36 22 28 C20.35 27.67 18.7 27.34 17 27 C16.82984375 26.21496094 16.6596875 25.42992187 16.484375 24.62109375 C14.36818984 14.08910377 14.36818984 14.08910377 7.51953125 6.31640625 C5.7187526 5.25727409 3.89473589 4.23638526 2.046875 3.26171875 C1.37140625 2.84535156 0.6959375 2.42898437 0 2 C0 1.34 0 0.68 0 0 Z " fill="#E6C684" transform="translate(235,120)"/>
<path d="M0 0 C1.67542976 0.28604898 3.34385343 0.61781233 5 1 C7.17932116 8.78328987 4.17964721 13.91239437 0.88916016 20.99707031 C-0.69302558 24.56111529 -2.02779398 28.21707209 -3.375 31.875 C-3.63740479 32.58333984 -3.89980957 33.29167969 -4.17016602 34.02148438 C-4.78303616 35.6799114 -5.39197519 37.33979042 -6 39 C-7.37500542 35.20372604 -6.64211795 32.32262212 -5.78515625 28.44140625 C-5.51123047 27.16845703 -5.23730469 25.89550781 -4.95507812 24.58398438 C-4.65822922 23.24333947 -4.36069657 21.90284579 -4.0625 20.5625 C-3.48451037 17.94009845 -2.91458116 15.31625532 -2.34765625 12.69140625 C-2.08992432 11.52810791 -1.83219238 10.36480957 -1.56665039 9.16625977 C-1.06268933 6.35028776 -0.97116852 3.84524616 -1 1 C-0.67 0.67 -0.34 0.34 0 0 Z " fill="#070305" transform="translate(260,294)"/>
<path d="M0 0 C1.52519276 0.08937803 3.04681929 0.24537146 4.5625 0.4375 C5.80193359 0.59025391 5.80193359 0.59025391 7.06640625 0.74609375 C7.70449219 0.82988281 8.34257812 0.91367188 9 1 C9 1.66 9 2.32 9 3 C10.71509766 3.07347656 10.71509766 3.07347656 12.46484375 3.1484375 C13.95575473 3.22345189 15.44663892 3.29900028 16.9375 3.375 C18.06961914 3.42140625 18.06961914 3.42140625 19.22460938 3.46875 C21.15507395 3.5726315 23.07942081 3.77895614 25 4 C25.33 4.66 25.66 5.32 26 6 C26.7425 5.7525 27.485 5.505 28.25 5.25 C31 5 31 5 33.3125 6.8125 C35 9 35 9 35 11 C29.51053913 12.12029814 26.16569441 11.79217969 21 10 C21 9.34 21 8.68 21 8 C16.71 7.34 12.42 6.68 8 6 C8 5.34 8 4.68 8 4 C7.071875 4.061875 6.14375 4.12375 5.1875 4.1875 C2 4 2 4 0.125 2.5 C-0.24625 2.005 -0.6175 1.51 -1 1 C-0.67 0.67 -0.34 0.34 0 0 Z " fill="#A79F99" transform="translate(224,252)"/>
<path d="M0 0 C0.72936048 3.04342235 1.23574867 5.86716216 1 9 C-0.76106421 11.37337269 -2.4524267 12.38826995 -5 14 C-5 13.01 -5 12.02 -5 11 C-9.60742865 12.21044132 -9.60742865 12.21044132 -14 14 C-14 11.36 -14 8.72 -14 6 C-12.04414675 4.99515796 -10.08523763 3.99626195 -8.125 3 C-6.48917969 2.1646875 -6.48917969 2.1646875 -4.8203125 1.3125 C-2 0 -2 0 0 0 Z " fill="#F6F5EE" transform="translate(268,258)"/>
<path d="M0 0 C4.34464536 0.60825035 8.67551867 1.26167392 13 2 C11.68 2.33 10.36 2.66 9 3 C9.2784375 3.9590625 9.2784375 3.9590625 9.5625 4.9375 C9.706875 5.618125 9.85125 6.29875 10 7 C9.67 7.33 9.34 7.66 9 8 C8.95919217 9.99958364 8.95745644 12.00045254 9 14 C8.34 13.67 7.68 13.34 7 13 C5.68 13.99 4.36 14.98 3 16 C3.020625 15.2575 3.04125 14.515 3.0625 13.75 C3.00671312 11.29537721 2.6930096 9.33890739 2 7 C0.7934375 6.814375 0.7934375 6.814375 -0.4375 6.625 C-1.283125 6.41875 -2.12875 6.2125 -3 6 C-3.33 5.34 -3.66 4.68 -4 4 C-3.01 3.34 -2.02 2.68 -1 2 C-0.67 1.34 -0.34 0.68 0 0 Z " fill="#CAB39F" transform="translate(215,261)"/>
<path d="M0 0 C5.73662874 -0.4589303 8.50376662 0.42345072 13 4 C13.45375 4.556875 13.9075 5.11375 14.375 5.6875 C17.16589568 7.94168497 20.49454512 7.71266763 24 8 C24 9.32 24 10.64 24 12 C16.34598214 12.85044643 16.34598214 12.85044643 12.64453125 10.51171875 C11.13297418 9.25512312 9.63536453 7.98155613 8.15234375 6.69140625 C5.18260304 4.35765357 2.6716817 3.70308799 -1 3 C-0.67 2.01 -0.34 1.02 0 0 Z " fill="#989594" transform="translate(249,118)"/>
<path d="M0 0 C0.33 0 0.66 0 1 0 C1.48828125 1.98567708 1.9765625 3.97135417 2.46484375 5.95703125 C2.91010705 7.65683202 3.44433985 9.33301954 4 11 C2.87838002 15.16508003 1.26482879 16.98573321 -2.3125 19.3125 C-3.07175781 19.82425781 -3.83101562 20.33601563 -4.61328125 20.86328125 C-7.28768104 22.13701339 -9.07444515 22.22265285 -12 22 C-12.33 21.01 -12.66 20.02 -13 19 C-12.30132812 18.55269531 -11.60265625 18.10539062 -10.8828125 17.64453125 C-9.97273437 17.03996094 -9.06265625 16.43539062 -8.125 15.8125 C-7.22007812 15.22082031 -6.31515625 14.62914062 -5.3828125 14.01953125 C-0.92148565 10.2383739 -0.65853258 5.59752695 0 0 Z " fill="#F0E8DE" transform="translate(240,143)"/>
<path d="M0 0 C0.33 0 0.66 0 1 0 C1 1.65 1 3.3 1 5 C1.66 5 2.32 5 3 5 C3.33 3.68 3.66 2.36 4 1 C4.66 1 5.32 1 6 1 C6 1.99 6 2.98 6 4 C6.66 4 7.32 4 8 4 C7.39644592 7.85025879 6.23227397 10.86101159 4.4375 14.3125 C3.98246094 15.19550781 3.52742187 16.07851563 3.05859375 16.98828125 C2.53458984 17.98408203 2.53458984 17.98408203 2 19 C0.68 18.67 -0.64 18.34 -2 18 C-1.34 12.06 -0.68 6.12 0 0 Z " fill="#302A27" transform="translate(248,332)"/>
<path d="M0 0 C-0.75502526 6.91267571 -2.01944841 13.68189827 -3.375 20.5 C-3.58382813 21.58925781 -3.79265625 22.67851562 -4.0078125 23.80078125 C-5.19883523 29.80673124 -6.65179755 35.34234263 -9 41 C-9.66 41 -10.32 41 -11 41 C-11 36.71 -11 32.42 -11 28 C-10.67 28 -10.34 28 -10 28 C-9.67 29.65 -9.34 31.3 -9 33 C-8.18151779 29.33464273 -7.37131128 25.66750237 -6.5625 22 C-6.33240234 20.97003906 -6.10230469 19.94007813 -5.86523438 18.87890625 C-4.6300475 13.2579109 -3.59862473 7.724779 -3 2 C-4.32 2 -5.64 2 -7 2 C-7.33 2.99 -7.66 3.98 -8 5 C-8 3.68 -8 2.36 -8 1 C-5.23735711 0.40267181 -2.83967231 0 0 0 Z " fill="#231D1B" transform="translate(260,296)"/>
<path d="M0 0 C2 3 2 3 2 5 C2.66 5 3.32 5 4 5 C3.67 4.01 3.34 3.02 3 2 C5 2 5 2 6.54296875 3.390625 C7.08566406 4.00421875 7.62835938 4.6178125 8.1875 5.25 C8.73792969 5.85328125 9.28835937 6.4565625 9.85546875 7.078125 C11 9 11 9 10.67578125 11.234375 C10.45277344 11.81703125 10.22976562 12.3996875 10 13 C5.8499684 13.49405138 4.28084138 13.18902785 0.75 10.8125 C-1.83455255 8.16920762 -2.99933934 6.5023123 -4 3 C-2.68 2.01 -1.36 1.02 0 0 Z " fill="#DBCCBB" transform="translate(195,161)"/>
<path d="M0 0 C0.5775 0.165 1.155 0.33 1.75 0.5 C4.26664369 1.14462031 4.26664369 1.14462031 8 1 C10.25 2.5 10.25 2.5 12 4 C11.67 4.33 11.34 4.66 11 5 C11.66 5.33 12.32 5.66 13 6 C13 6.66 13 7.32 13 8 C13.61488281 8.19335938 14.22976562 8.38671875 14.86328125 8.5859375 C15.67152344 8.84632813 16.47976562 9.10671875 17.3125 9.375 C18.11300781 9.63023437 18.91351563 9.88546875 19.73828125 10.1484375 C22 11 22 11 25 13 C20.97007218 12.44687265 16.97977076 11.8441938 13 11 C13 10.34 13 9.68 13 9 C11.80375 8.855625 10.6075 8.71125 9.375 8.5625 C5.8994842 8.12960657 2.45049966 7.60383744 -1 7 C-0.01 6.67 0.98 6.34 2 6 C2 5.01 2 4.02 2 3 C1.34 3 0.68 3 0 3 C0 2.01 0 1.02 0 0 Z " fill="#D5C3B1" transform="translate(220,244)"/>
<path d="M0 0 C1.81495662 0.44850658 3.62693134 0.90909571 5.4375 1.375 C6.44683594 1.63023438 7.45617187 1.88546875 8.49609375 2.1484375 C11 3 11 3 12 5 C11.67 5.66 11.34 6.32 11 7 C12.32 7.33 13.64 7.66 15 8 C15.0825 8.53625 15.165 9.0725 15.25 9.625 C15.92667904 12.22903763 15.92667904 12.22903763 18.125 14.8125 C20.44037658 18.74864019 20.04343325 20.65236144 19 25 C19.99 25.33 20.98 25.66 22 26 C20.68 26 19.36 26 18 26 C17.68546875 25.04738281 17.3709375 24.09476563 17.046875 23.11328125 C16.61511908 21.84617149 16.18279723 20.57925447 15.75 19.3125 C15.33234375 18.07113281 14.9146875 16.82976562 14.484375 15.55078125 C12.18790716 10.05738844 9.53408303 6.90724862 4.25 4.1875 C3.45078125 3.76855469 2.6515625 3.34960938 1.828125 2.91796875 C1.22484375 2.61503906 0.6215625 2.31210938 0 2 C0 1.34 0 0.68 0 0 Z " fill="#DFC390" transform="translate(235,120)"/>
<path d="M0 0 C3.63 0.66 7.26 1.32 11 2 C11.10957031 2.86882812 11.21914063 3.73765625 11.33203125 4.6328125 C12.16843037 10.71200612 12.97327049 15.66719086 16 21 C15.67 21.66 15.34 22.32 15 23 C10.92055228 19.4768406 9.88624396 15.16975646 9 10 C5.7 9.67 2.4 9.34 -1 9 C-1 8.34 -1 7.68 -1 7 C-1.66 6.67 -2.32 6.34 -3 6 C-2.67 5.34 -2.34 4.68 -2 4 C-0.515 4.99 -0.515 4.99 1 6 C3.27912938 6.45394552 3.27912938 6.45394552 5.6875 6.625 C6.89986328 6.73714844 6.89986328 6.73714844 8.13671875 6.8515625 C8.75160156 6.90054688 9.36648438 6.94953125 10 7 C10 5.68 10 4.36 10 3 C7.98177083 3.09765625 5.96354167 3.1953125 3.9453125 3.29296875 C3.30335938 3.19628906 2.66140625 3.09960938 2 3 C1.34 2.01 0.68 1.02 0 0 Z " fill="#D6C7B9" transform="translate(263,123)"/>
<path d="M0 0 C1.49341969 2.98683937 0.40648676 4.95160978 -0.4375 8.125 C-0.72496094 9.22070312 -1.01242188 10.31640625 -1.30859375 11.4453125 C-1.53675781 12.28835937 -1.76492187 13.13140625 -2 14 C-1.01 14 -0.02 14 1 14 C0.773125 14.78375 0.54625 15.5675 0.3125 16.375 C-0.11695428 21.3566696 1.36764542 25.33349483 3 30 C-2.87446243 24.5171684 -3.92375735 19.44459235 -4.3125 11.5625 C-4.28790256 6.7250038 -2.69151426 3.95316156 0 0 Z " fill="#F0E4D2" transform="translate(205,132)"/>
<path d="M0 0 C3.83321853 2.37923909 5.08008671 4.99322444 7 9 C8.56102491 10.81554159 8.56102491 10.81554159 10 12 C9.67 12.99 9.34 13.98 9 15 C5.10786659 14.13508147 3.4241582 13.64355037 1.1875 10.25 C0.04246097 7.11620898 -0.69118989 4.31970869 -1 1 C-0.67 0.67 -0.34 0.34 0 0 Z " fill="#F1EAE2" transform="translate(205,149)"/>
<path d="M0 0 C0.33 0.66 0.66 1.32 1 2 C1.7425 1.7525 2.485 1.505 3.25 1.25 C6 1 6 1 8.3125 2.8125 C10 5 10 5 10 7 C4.51053913 8.12029814 1.16569441 7.79217969 -4 6 C-2.68 5.67 -1.36 5.34 0 5 C-0.95865509 2.66924071 -0.95865509 2.66924071 -4 1 C-2.68 0.67 -1.36 0.34 0 0 Z " fill="#A7A09B" transform="translate(249,256)"/>
<path d="M0 0 C-0.99 0.66 -1.98 1.32 -3 2 C-1.35 2 0.3 2 2 2 C-1.5536638 4.044696 -5.1335242 4.83337418 -9.125 5.6875 C-10.36507812 5.95949219 -11.60515625 6.23148438 -12.8828125 6.51171875 C-16 7 -16 7 -18 6 C-17.67 5.01 -17.34 4.02 -17 3 C-14.453125 2.05078125 -14.453125 2.05078125 -11.25 1.3125 C-9.67992188 0.93544922 -9.67992188 0.93544922 -8.078125 0.55078125 C-5.29722504 0.05318367 -2.81457462 -0.10945568 0 0 Z " fill="#CFBEAD" transform="translate(125,247)"/>
<path d="M0 0 C-0.78375 0.20625 -1.5675 0.4125 -2.375 0.625 C-5.25862067 1.78110346 -5.25862067 1.78110346 -6.1875 4.8125 C-6.5896875 6.3903125 -6.5896875 6.3903125 -7 8 C-7.37125 8.886875 -7.7425 9.77375 -8.125 10.6875 C-9.17694605 13.05555895 -9.17694605 13.05555895 -9 16 C-9.99 16 -10.98 16 -12 16 C-11.1259135 5.44195519 -11.1259135 5.44195519 -9 2 C-3.8540146 -1.28467153 -3.8540146 -1.28467153 0 0 Z " fill="#F1E8DD" transform="translate(215,130)"/>
<path d="M0 0 C1.65 0.33 3.3 0.66 5 1 C4.6875 4.375 4.6875 4.375 4 8 C3.01 8.66 2.02 9.32 1 10 C0.34 9.67 -0.32 9.34 -1 9 C-1 8.34 -1 7.68 -1 7 C-1.99 6.67 -2.98 6.34 -4 6 C-2.68 4.02 -1.36 2.04 0 0 Z " fill="#0A0607" transform="translate(91,8)"/>
<path d="M0 0 C1.5994868 3.98811031 0.30093746 6.46293548 -1.30859375 10.296875 C-1.80810547 11.50214844 -2.30761719 12.70742188 -2.82226562 13.94921875 C-3.36043406 15.21624909 -3.89884868 16.48317488 -4.4375 17.75 C-4.97303875 19.03212087 -5.50755609 20.31466888 -6.04101562 21.59765625 C-7.35067672 24.73612338 -8.67065858 27.86982973 -10 31 C-11.24183436 27.27449693 -10.58285749 26.20802733 -9.19921875 22.59765625 C-8.79896484 21.54255859 -8.39871094 20.48746094 -7.98632812 19.40039062 C-7.55771484 18.29888672 -7.12910156 17.19738281 -6.6875 16.0625 C-6.06198242 14.41604492 -6.06198242 14.41604492 -5.42382812 12.73632812 C-2.07028448 3.97004737 -2.07028448 3.97004737 0 0 Z " fill="#2B2521" transform="translate(265,303)"/>
<path d="M0 0 C0.61875 0.433125 1.2375 0.86625 1.875 1.3125 C2.865 1.9725 3.855 2.6325 4.875 3.3125 C4.875 3.9725 4.875 4.6325 4.875 5.3125 C-3.69642857 6.74107143 -3.69642857 6.74107143 -7.125 4.3125 C-7.125 3.6525 -7.125 2.9925 -7.125 2.3125 C-2.93212166 -0.9486276 -2.93212166 -0.9486276 0 0 Z " fill="#D2C4B8" transform="translate(187.125,175.6875)"/>
<path d="M0 0 C-0.72362927 6.39205856 -1.80343362 12.68027076 -3 19 C-3.66 19 -4.32 19 -5 19 C-4.34 13.39 -3.68 7.78 -3 2 C-4.32 2 -5.64 2 -7 2 C-7.33 2.99 -7.66 3.98 -8 5 C-8 3.68 -8 2.36 -8 1 C-5.23735711 0.40267181 -2.83967231 0 0 0 Z " fill="#292320" transform="translate(260,296)"/>
<path d="M0 0 C0.66 0 1.32 0 2 0 C2.40863281 0.50144531 2.81726563 1.00289062 3.23828125 1.51953125 C4.98903276 3.30322906 4.98903276 3.30322906 7.91796875 3.07421875 C8.99691406 2.94660156 10.07585937 2.81898438 11.1875 2.6875 C12.27417969 2.56761719 13.36085937 2.44773438 14.48046875 2.32421875 C15.31191406 2.21722656 16.14335937 2.11023438 17 2 C16.67 2.66 16.34 3.32 16 4 C9.90285717 5.80382599 4.19690934 6.37709097 -2 5 C-1.34 3.35 -0.68 1.7 0 0 Z " fill="#EDDBB9" transform="translate(218,164)"/>
<path d="M0 0 C0.33 0 0.66 0 1 0 C1 3.3 1 6.6 1 10 C1.99 10 2.98 10 4 10 C4.33 9.01 4.66 8.02 5 7 C5.33 7.66 5.66 8.32 6 9 C5.01 10.485 5.01 10.485 4 12 C0.875 12.1875 0.875 12.1875 -2 12 C-2.05395478 10.37536158 -2.09277195 8.75021459 -2.125 7.125 C-2.14820313 6.22007812 -2.17140625 5.31515625 -2.1953125 4.3828125 C-2 2 -2 2 0 0 Z " fill="#D6B979" transform="translate(264,283)"/>
<path d="M0 0 C0 0.99 0 1.98 0 3 C-0.639375 2.814375 -1.27875 2.62875 -1.9375 2.4375 C-2.618125 2.293125 -3.29875 2.14875 -4 2 C-5.94090826 3.94090826 -5.39919435 7.47293902 -5.5625 10.0625 C-5.64628906 11.35285156 -5.73007813 12.64320313 -5.81640625 13.97265625 C-5.87699219 14.97167969 -5.93757812 15.97070312 -6 17 C-6.33 17 -6.66 17 -7 17 C-7.33 13.37 -7.66 9.74 -8 6 C-9.32 5.67 -10.64 5.34 -12 5 C-11 2 -11 2 -8.8125 0.8125 C-5.74609689 -0.07334979 -3.17561845 -0.14770318 0 0 Z " fill="#D0BFB0" transform="translate(194,269)"/>
<path d="M0 0 C0.99 0.33 1.98 0.66 3 1 C2 4 2 4 0 5 C0.804375 5.226875 1.60875 5.45375 2.4375 5.6875 C3.283125 6.120625 4.12875 6.55375 5 7 C5.8125 9.625 5.8125 9.625 6 12 C5.01 11.67 4.02 11.34 3 11 C2.67 10.34 2.34 9.68 2 9 C-1.02934491 8.34227572 -1.02934491 8.34227572 -4 8 C-3.50168276 4.31245243 -2.89932357 2.39509338 0 0 Z " fill="#D5C1AA" transform="translate(212,261)"/>
<path d="M0 0 C0.33 0 0.66 0 1 0 C1 1.65 1 3.3 1 5 C2.65 5.33 4.3 5.66 6 6 C5.01 8.31 4.02 10.62 3 13 C1.68 12.67 0.36 12.34 -1 12 C-0.67 8.04 -0.34 4.08 0 0 Z " fill="#D0B570" transform="translate(247,338)"/>
<path d="M0 0 C0.99 0 1.98 0 3 0 C3 1.65 3 3.3 3 5 C-2.32932432 6.70084819 -7.43109483 7.52013969 -13 8 C-9.91190305 6.23537317 -8.76687864 6 -5 6 C-4.67 5.01 -4.34 4.02 -4 3 C-3.34 3 -2.68 3 -2 3 C-1.67 2.34 -1.34 1.68 -1 1 C-0.67 0.67 -0.34 0.34 0 0 Z " fill="#E1CEBC" transform="translate(243,276)"/>
<path d="M0 0 C3.63 0.33 7.26 0.66 11 1 C10.67 1.99 10.34 2.98 10 4 C10.66 4.66 11.32 5.32 12 6 C8.37 5.34 4.74 4.68 1 4 C0.67 2.68 0.34 1.36 0 0 Z " fill="#C1B2A4" transform="translate(214,250)"/>
<path d="M0 0 C2.64752004 2.57784846 4.94432065 4.91648098 7 8 C5.68 10.31 4.36 12.62 3 15 C2.401875 14.236875 1.80375 13.47375 1.1875 12.6875 C-0.46959332 10.6516425 -2.10297674 8.8021721 -4 7 C-3.67 6.34 -3.34 5.68 -3 5 C-2.1028125 5.9590625 -2.1028125 5.9590625 -1.1875 6.9375 C0.90810337 9.20310389 0.90810337 9.20310389 4 10 C2.88145414 6.27385847 2.88145414 6.27385847 0 4 C0 2.68 0 1.36 0 0 Z " fill="#DFBA5C" transform="translate(204,158)"/>
<path d="M0 0 C0.33 0 0.66 0 1 0 C0.979375 1.11375 0.95875 2.2275 0.9375 3.375 C0.73619282 6.83215921 0.73619282 6.83215921 2 9 C1.26711523 11.23601706 0.44009385 13.44171775 -0.4375 15.625 C-0.91058594 16.81351562 -1.38367188 18.00203125 -1.87109375 19.2265625 C-2.24363281 20.14179688 -2.61617187 21.05703125 -3 22 C-3.9867097 18.88925167 -3.96838493 16.83557243 -3.22265625 13.671875 C-3.03896484 12.87265625 -2.85527344 12.0734375 -2.66601562 11.25 C-2.46685547 10.425 -2.26769531 9.6 -2.0625 8.75 C-1.86720703 7.90953125 -1.67191406 7.0690625 -1.47070312 6.203125 C-0.98857714 4.13351102 -0.49536137 2.06648605 0 0 Z " fill="#100B0C" transform="translate(257,311)"/>
<path d="M0 0 C2.68191633 2.68191633 3.1339305 5.18015751 4.1875 8.8125 C4.55230469 10.03582031 4.91710937 11.25914062 5.29296875 12.51953125 C5.97222817 15.86328895 5.96456542 17.7745424 5 21 C4.34 21 3.68 21 3 21 C2.67 16.05 2.34 11.1 2 6 C1.01 6 0.02 6 -1 6 C-0.67 4.02 -0.34 2.04 0 0 Z " fill="#C8B9AC" transform="translate(261,238)"/>
<path d="M0 0 C0.33 0.66 0.66 1.32 1 2 C2.64363134 2.72159424 4.31050386 3.39351421 6 4 C6.33 3.34 6.66 2.68 7 2 C7.99 2.33 8.98 2.66 10 3 C5.375 7.875 5.375 7.875 2 9 C0.50178941 5.62902617 0 3.79557881 0 0 Z " fill="#CABCB0" transform="translate(272,242)"/>
<path d="M0 0 C1.875 1.625 1.875 1.625 3 3 C2.48566406 2.83371094 1.97132813 2.66742188 1.44140625 2.49609375 C-2.91564013 1.61074192 -7.35889023 2.04404224 -11.78515625 2.16015625 C-15 2 -15 2 -18 0 C-5.05651596 -2.72273936 -5.05651596 -2.72273936 0 0 Z " fill="#DDCAB0" transform="translate(232,117)"/>
<path d="M0 0 C2.91517292 1.07401108 4.77810176 1.77810176 7 4 C7 4.99 7 5.98 7 7 C4.36 7 1.72 7 -1 7 C-0.01 6.67 0.98 6.34 2 6 C2 5.01 2 4.02 2 3 C1.34 3 0.68 3 0 3 C0 2.01 0 1.02 0 0 Z " fill="#DEC9B7" transform="translate(220,244)"/>
<path d="M0 0 C0.33 0.66 0.66 1.32 1 2 C0.21496094 1.97679688 -0.57007813 1.95359375 -1.37890625 1.9296875 C-7.41843032 1.82594107 -12.28051169 2.13241198 -18 4 C-20.9375 4.125 -20.9375 4.125 -23 4 C-16.88615187 -1.62474028 -7.7495581 -0.11452549 0 0 Z " fill="#E9C35C" transform="translate(231,118)"/>
<path d="M0 0 C2.3828125 0.2421875 2.3828125 0.2421875 5.125 0.875 C6.03507813 1.07867187 6.94515625 1.28234375 7.8828125 1.4921875 C8.58148438 1.65976562 9.28015625 1.82734375 10 2 C10.33 2.99 10.66 3.98 11 5 C6.428721 4.45144652 2.32564205 3.58255197 -2 2 C-1.34 1.34 -0.68 0.68 0 0 Z " fill="#9A9695" transform="translate(238,256)"/>
<path d="M0 0 C0.78375 0.04125 1.5675 0.0825 2.375 0.125 C2.375 1.115 2.375 2.105 2.375 3.125 C1.611875 3.145625 0.84875 3.16625 0.0625 3.1875 C-3.03889118 3.92160949 -3.03889118 3.92160949 -4.4375 7.6875 C-4.829375 8.821875 -5.22125 9.95625 -5.625 11.125 C-6.285 11.125 -6.945 11.125 -7.625 11.125 C-7.17417531 9.66432801 -6.71406463 8.20651968 -6.25 6.75 C-5.99476562 5.93789062 -5.73953125 5.12578125 -5.4765625 4.2890625 C-4.23312676 1.12913865 -3.45188259 0.16437536 0 0 Z " fill="#2D2726" transform="translate(92.625,5.875)"/>
<path d="M0 0 C0.33 0.99 0.66 1.98 1 3 C0.05125 2.979375 -0.8975 2.95875 -1.875 2.9375 C-4.90666283 2.77448174 -4.90666283 2.77448174 -7 4 C-8.67654729 3.72057545 -10.34608154 3.39171753 -12 3 C-8.2391768 -0.7608232 -5.0273023 -0.25136512 0 0 Z " fill="#DCC8B6" transform="translate(175,266)"/>
<path d="M0 0 C2.375 0.1875 2.375 0.1875 5 1 C6.94925061 4.34157247 7.21821974 7.18115446 7 11 C5.45428722 8.68143083 4.20381448 6.49361571 3 4 C1.02 4 -0.96 4 -3 4 C-2.01 2.68 -1.02 1.36 0 0 Z " fill="#C3B6A9" transform="translate(264,227)"/>
<path d="M0 0 C0.53367188 0.27714844 1.06734375 0.55429688 1.6171875 0.83984375 C7.43425414 3.66786404 12.5548024 4.73088945 19 5 C19 5.33 19 5.66 19 6 C11.43801103 6.44701413 6.23664375 6.53574091 0 2 C0 1.34 0 0.68 0 0 Z " fill="#F2EBE1" transform="translate(147,151)"/>
<path d="M0 0 C2.31 0.66 4.62 1.32 7 2 C6.67 2.66 6.34 3.32 6 4 C4.25 4.5625 4.25 4.5625 2 5 C1.0925 5.185625 0.185 5.37125 -0.75 5.5625 C-1.4925 5.706875 -2.235 5.85125 -3 6 C-2.67 5.01 -2.34 4.02 -2 3 C-1.34 2.67 -0.68 2.34 0 2 C0 1.34 0 0.68 0 0 Z " fill="#D6C1A9" transform="translate(203,275)"/>
<path d="M0 0 C0.33 0.66 0.66 1.32 1 2 C1.7425 1.7525 2.485 1.505 3.25 1.25 C6 1 6 1 8.3125 2.8125 C10 5 10 5 10 7 C9.34 7 8.68 7 8 7 C8 6.34 8 5.68 8 5 C7.38511719 4.87882812 6.77023438 4.75765625 6.13671875 4.6328125 C5.32847656 4.46523438 4.52023438 4.29765625 3.6875 4.125 C2.88699219 3.96257812 2.08648437 3.80015625 1.26171875 3.6328125 C-1 3 -1 3 -4 1 C-2.68 0.67 -1.36 0.34 0 0 Z " fill="#C9B8A7" transform="translate(249,256)"/>
<path d="M0 0 C3.69230769 0.69230769 3.69230769 0.69230769 5 2 C5.04080783 3.99958364 5.04254356 6.00045254 5 8 C4.67 8 4.34 8 4 8 C4 6.35 4 4.7 4 3 C2.02463255 3.34786708 2.02463255 3.34786708 0 4 C-0.33 4.66 -0.66 5.32 -1 6 C-1.66 6 -2.32 6 -3 6 C-1.125 1.125 -1.125 1.125 0 0 Z " fill="#362F2D" transform="translate(211,165)"/>
<path d="M0 0 C4 5 4 5 3.75 8.8125 C3.5025 9.864375 3.255 10.91625 3 12 C3.99 12.33 4.98 12.66 6 13 C4.68 13 3.36 13 2 13 C1.34 8.71 0.68 4.42 0 0 Z " fill="#E0C6A5" transform="translate(251,133)"/>
<path d="M0 0 C0.94875 0.04125 1.8975 0.0825 2.875 0.125 C2.875 1.115 2.875 2.105 2.875 3.125 C0.26917629 4.05565133 -0.76698224 4.27417407 -3.375 3.1875 C-3.9525 2.836875 -4.53 2.48625 -5.125 2.125 C-3.125 0.125 -3.125 0.125 0 0 Z " fill="#EBDCCE" transform="translate(137.125,274.875)"/>
<path d="M0 0 C0.33 0 0.66 0 1 0 C1.19622241 4.21878192 0.80230168 7.17010894 -1 11 C-1.66 11 -2.32 11 -3 11 C-2.53199289 6.94393835 -2.12046792 3.53411321 0 0 Z " fill="#EDB50C" transform="translate(268,282)"/>
<path d="M0 0 C1.32 0 2.64 0 4 0 C4.91657981 5.38490641 5.11138159 10.54230189 5 16 C4.67 16 4.34 16 4 16 C3.81824219 14.77023438 3.81824219 14.77023438 3.6328125 13.515625 C3.46523437 12.43796875 3.29765625 11.3603125 3.125 10.25 C2.96257812 9.18265625 2.80015625 8.1153125 2.6328125 7.015625 C2.06776118 4.32291129 1.36577086 2.36427561 0 0 Z " fill="#ECE1D5" transform="translate(173,128)"/>
<path d="M0 0 C0.33 0 0.66 0 1 0 C1 1.65 1 3.3 1 5 C1.66 5 2.32 5 3 5 C3 6.98 3 8.96 3 11 C2.01 11 1.02 11 0 11 C0 7.37 0 3.74 0 0 Z " fill="#4B433D" transform="translate(248,332)"/>
<path d="M0 0 C1.65 0.33 3.3 0.66 5 1 C3.515 3.475 3.515 3.475 2 6 C1.01 5.01 0.02 4.02 -1 3 C-0.67 2.01 -0.34 1.02 0 0 Z " fill="#EAD8C7" transform="translate(208,253)"/>
<path d="M0 0 C1.65 0.33 3.3 0.66 5 1 C4.67 1.66 4.34 2.32 4 3 C0.9375 3.625 0.9375 3.625 -2 4 C-2.33 4.99 -2.66 5.98 -3 7 C-3.66 6.67 -4.32 6.34 -5 6 C-3.35 4.02 -1.7 2.04 0 0 Z " fill="#352E2B" transform="translate(185,161)"/>
<path d="M0 0 C0.66 0 1.32 0 2 0 C2.33 3.3 2.66 6.6 3 10 C2.34 10 1.68 10 1 10 C-0.60725635 6.78548731 -0.05748185 3.56387464 0 0 Z " fill="#EABF4C" transform="translate(199,143)"/>
<path d="M0 0 C3 1 3 1 4.6875 4.25 C5.83944321 7.54126631 6.31025348 9.5872117 6 13 C3.29024273 8.9353641 1.54210281 4.62630843 0 0 Z " fill="#E8C77A" transform="translate(246,128)"/>
<path d="M0 0 C1.36125 0.12375 1.36125 0.12375 2.75 0.25 C1.76 0.745 1.76 0.745 0.75 1.25 C0.75 2.24 0.75 3.23 0.75 4.25 C-1.89 4.25 -4.53 4.25 -7.25 4.25 C-4.83923194 1.28290085 -3.90322061 0.30024774 0 0 Z " fill="#A9A4A0" transform="translate(229.25,111.75)"/>
<path d="M0 0 C0 0.33 0 0.66 0 1 C-1.6396875 1.4021875 -1.6396875 1.4021875 -3.3125 1.8125 C-6.61692663 2.87663739 -7.94960422 3.34654664 -10 6 C-10 5.34 -10 4.68 -10 4 C-11.32 4.33 -12.64 4.66 -14 5 C-10.05572558 0.43294541 -5.8595807 -0.27253864 0 0 Z " fill="#544E4B" transform="translate(71,3)"/>
<path d="M0 0 C0.33 0.66 0.66 1.32 1 2 C1.66 2 2.32 2 3 2 C3.99 5.3 4.98 8.6 6 12 C3.34930567 9.52601863 1.28384156 7.42357749 0 4 C0 2.68 0 1.36 0 0 Z " fill="#EEE0CC" transform="translate(202,150)"/>
<path d="M0 0 C0.6875 1.75 0.6875 1.75 1 4 C-0.4375 6.25 -0.4375 6.25 -2 8 C-2.66 7.67 -3.32 7.34 -4 7 C-2.92598892 4.08482708 -2.22189824 2.22189824 0 0 Z " fill="#201B1A" transform="translate(258,329)"/>
<path d="M0 0 C1 2 1 2 0.44140625 4.1640625 C0.15136719 4.97617188 -0.13867188 5.78828125 -0.4375 6.625 C-0.72496094 7.44226563 -1.01242188 8.25953125 -1.30859375 9.1015625 C-1.53675781 9.72804687 -1.76492187 10.35453125 -2 11 C-2.66 11 -3.32 11 -4 11 C-3.48964169 6.6109185 -2.47785723 3.66291938 0 0 Z " fill="#EACF92" transform="translate(205,132)"/>
<path d="M0 0 C2.97 0.33 5.94 0.66 9 1 C9 1.33 9 1.66 9 2 C7.35 2 5.7 2 4 2 C4 2.66 4 3.32 4 4 C1.525 3.01 1.525 3.01 -1 2 C-0.67 1.34 -0.34 0.68 0 0 Z " fill="#B0A79F" transform="translate(224,252)"/>
<path d="M0 0 C0.33 0.66 0.66 1.32 1 2 C-1 5 -1 5 -4 6 C-6.3406065 5.72230092 -8.67624308 5.39460023 -11 5 C-11 4.67 -11 4.34 -11 4 C-10.37351563 3.87882813 -9.74703125 3.75765625 -9.1015625 3.6328125 C-8.28429687 3.46523437 -7.46703125 3.29765625 -6.625 3.125 C-5.81289062 2.96257812 -5.00078125 2.80015625 -4.1640625 2.6328125 C-1.81326077 2.13341068 -1.81326077 2.13341068 0 0 Z " fill="#C9BCB0" transform="translate(192,196)"/>
<path d="M0 0 C1.65 0.33 3.3 0.66 5 1 C2.66666667 3.33333333 0.33333333 5.66666667 -2 8 C-2 6.68 -2 5.36 -2 4 C-1.34 4 -0.68 4 0 4 C0 2.68 0 1.36 0 0 Z " fill="#DECAB8" transform="translate(152,255)"/>
<path d="M0 0 C-0.33 2.64 -0.66 5.28 -1 8 C-1.33 7.01 -1.66 6.02 -2 5 C-2.66 5 -3.32 5 -4 5 C-4 4.01 -4 3.02 -4 2 C-1 0 -1 0 0 0 Z " fill="#211C1C" transform="translate(263,320)"/>
<path d="M0 0 C1.423125 0.2784375 1.423125 0.2784375 2.875 0.5625 C5.89868793 1.28686632 5.89868793 1.28686632 8 0 C8 1.65 8 3.3 8 5 C1.125 2.25 1.125 2.25 0 0 Z " fill="#E7DACA" transform="translate(208,162)"/>
<path d="M0 0 C0.99 0.99 1.98 1.98 3 3 C2.6875 6.6875 2.6875 6.6875 2 10 C1.67 10 1.34 10 1 10 C0.67 6.7 0.34 3.4 0 0 Z " fill="#403937" transform="translate(229,139)"/>
<path d="M0 0 C0.33 0.99 0.66 1.98 1 3 C2.32 2.67 3.64 2.34 5 2 C4.34 3.32 3.68 4.64 3 6 C0.525 5.01 0.525 5.01 -2 4 C-1.34 2.68 -0.68 1.36 0 0 Z " fill="#F6F1E7" transform="translate(253,273)"/>
<path d="M0 0 C0.66 0 1.32 0 2 0 C2 0.99 2 1.98 2 3 C2.66 3 3.32 3 4 3 C4 3.66 4 4.32 4 5 C4.66 5.33 5.32 5.66 6 6 C2.64404172 5.40072174 0.62198774 4.15377564 -2 2 C-1.34 2 -0.68 2 0 2 C0 1.34 0 0.68 0 0 Z " fill="#ECDFD2" transform="translate(119,269)"/>
<path d="M0 0 C0.66 0 1.32 0 2 0 C1.71125 0.53625 1.4225 1.0725 1.125 1.625 C-0.16711808 4.35280484 -1.08558592 7.12612718 -2 10 C-2.33 10 -2.66 10 -3 10 C-2.25 2.25 -2.25 2.25 0 0 Z " fill="#9F978F" transform="translate(53,48)"/>
</svg>
