<?xml version="1.0" encoding="UTF-8"?>
<svg version="1.1" xmlns="http://www.w3.org/2000/svg" width="360" height="360">
<path d="M0 0 C5.73600306 3.95586418 8.5506323 8.58989513 9.92578125 15.328125 C10.55226562 15.37710938 11.17875 15.42609375 11.82421875 15.4765625 C12.64148438 15.55132812 13.45875 15.62609375 14.30078125 15.703125 C15.11289063 15.77273437 15.925 15.84234375 16.76171875 15.9140625 C18.92578125 16.328125 18.92578125 16.328125 20.92578125 18.328125 C20.86328125 20.203125 20.86328125 20.203125 19.92578125 22.328125 C11.39808358 29.8579006 -0.57736923 34.74097447 -11.55859375 37.47265625 C-12.36216309 37.67689209 -13.16573242 37.88112793 -13.99365234 38.09155273 C-15.60067923 38.49179159 -17.21309739 38.87110938 -18.83056641 39.22680664 C-22.61682416 40.16582792 -24.73397192 41.01571655 -27.65234375 43.6953125 C-29.82388535 49.24348196 -29.05748045 54.23292756 -28.44921875 60.078125 C-28.33731201 61.29604736 -28.22540527 62.51396973 -28.11010742 63.76879883 C-27.88292592 66.20113826 -27.64607864 68.63259695 -27.39892578 71.06298828 C-27.13648224 73.70202583 -26.91347739 76.33541264 -26.7265625 78.98046875 C-25.80191077 90.66812232 -23.09568974 102.02733976 -20.4621582 113.42651367 C-20.30637802 114.10753143 -20.15059784 114.78854919 -19.99009705 115.49020386 C-19.56005345 117.36416406 -19.12277693 119.23646016 -18.68505859 121.10864258 C-18.14511152 123.95447873 -17.94713503 126.44495568 -18.07421875 129.328125 C-17.08421875 129.328125 -16.09421875 129.328125 -15.07421875 129.328125 C-14.94732666 128.74490479 -14.82043457 128.16168457 -14.68969727 127.56079102 C-14.08423557 125.36446131 -13.29245672 123.61257751 -12.2265625 121.60546875 C-6.04246463 110.08610706 -6.04246463 110.08610706 -6.07421875 97.328125 C-7.61756904 94.37764947 -7.61756904 94.37764947 -10.07421875 92.328125 C-14.01364387 88.59072168 -18.16387473 84.52219549 -20.07421875 79.328125 C-19.640625 77.26953125 -19.640625 77.26953125 -18.07421875 75.328125 C-6.96993414 69.61147478 6.41311705 68.13426566 18.61328125 66.140625 C20.12510986 65.89034546 20.12510986 65.89034546 21.66748047 65.63500977 C35.83040392 63.408099 49.99595265 63.08943632 64.30078125 63.078125 C65.19196655 63.07711792 66.08315186 63.07611084 67.00134277 63.07507324 C90.54296807 63.09290383 113.7360831 64.85562526 136.78857422 69.87255859 C139.86371574 70.52805483 142.95848188 71.07236705 146.05078125 71.640625 C153.422576 73.12813319 160.70195956 74.97062881 167.98828125 76.828125 C169.16729004 77.12501221 170.34629883 77.42189941 171.56103516 77.7277832 C185.62306903 81.37405667 185.62306903 81.37405667 188.92578125 86.328125 C188.75335447 89.30284927 188.46859358 90.79765492 186.31518555 92.90209961 C185.63367432 93.34046143 184.95216309 93.77882324 184.25 94.23046875 C183.50427734 94.72869141 182.75855469 95.22691406 181.99023438 95.74023438 C181.20583984 96.24361328 180.42144531 96.74699219 179.61328125 97.265625 C173.60013254 101.15235582 168.631914 104.39633503 166.17578125 111.49609375 C164.5141977 124.91857336 173.80324361 135.82935435 180.92578125 146.328125 C182.26229536 148.32602326 183.59388678 150.32714203 184.92578125 152.328125 C185.73015625 152.163125 186.53453125 151.998125 187.36328125 151.828125 C200.79090431 149.94354632 213.74071554 153.64724127 224.92578125 161.328125 C234.35906148 169.11381176 240.00781986 178.52174811 241.28125 190.73828125 C241.88506791 206.2580335 236.76947073 220.75674353 226.61328125 232.515625 C218.81765127 240.81212742 208.73235401 248.54102015 196.92578125 249.328125 C195.72953125 249.410625 194.53328125 249.493125 193.30078125 249.578125 C187.22053766 249.51920791 180.37246779 248.05146827 174.92578125 245.328125 C174.87421875 246.06675781 174.82265625 246.80539062 174.76953125 247.56640625 C173.61195766 251.35531611 171.65485512 252.2977173 168.42578125 254.515625 C164.26682788 257.63639773 164.26682788 257.63639773 161.9765625 262.1328125 C161.76455597 264.58652746 161.70576457 266.87724153 161.92578125 269.328125 C162.58578125 269.658125 163.24578125 269.988125 163.92578125 270.328125 C164.55078125 272.390625 164.55078125 272.390625 164.92578125 274.328125 C166.24578125 274.328125 167.56578125 274.328125 168.92578125 274.328125 C165.29710956 285.67865219 161.12192148 296.75102526 156.73828125 307.828125 C155.79167801 310.22234624 154.84632562 312.61702262 153.904953 315.01330566 C153.32594664 316.48710065 152.74405242 317.95976588 152.15864563 319.43103027 C150.48846511 323.68113621 149.11343643 327.91796304 147.92578125 332.328125 C146.27578125 331.998125 144.62578125 331.668125 142.92578125 331.328125 C143.25578125 313.508125 143.58578125 295.688125 143.92578125 277.328125 C141.94578125 276.668125 139.96578125 276.008125 137.92578125 275.328125 C136.05078125 273.640625 136.05078125 273.640625 134.92578125 271.328125 C134.88077355 268.99522578 134.87689792 266.66094622 134.92578125 264.328125 C134.07242188 264.53308594 133.2190625 264.73804688 132.33984375 264.94921875 C123.30964097 266.89490162 114.55973132 267.65014699 105.32421875 267.92578125 C104.12756592 267.966427 102.93091309 268.00707275 101.69799805 268.0489502 C98.77406019 268.1474853 95.85006059 268.24042019 92.92578125 268.328125 C92.91365097 269.37929001 92.91365097 269.37929001 92.90127563 270.45169067 C92.82317073 277.07223809 92.73583272 283.69259279 92.63825417 290.31288338 C92.58841623 293.71603484 92.54208581 297.11915713 92.50390625 300.52246094 C92.4598055 304.43962762 92.40020595 308.35648632 92.33984375 312.2734375 C92.32829254 313.48927521 92.31674133 314.70511292 92.30484009 315.95779419 C92.2849704 317.09852386 92.26510071 318.23925354 92.24462891 319.41455078 C92.23130524 320.41382599 92.21798157 321.4131012 92.20425415 322.44265747 C91.89597349 325.63698563 91.04325532 328.32895194 89.92578125 331.328125 C87.1338592 331.38193078 84.34296715 331.42170169 81.55078125 331.453125 C80.75671875 331.46988281 79.96265625 331.48664063 79.14453125 331.50390625 C77.0708611 331.52147973 74.99694884 331.43147668 72.92578125 331.328125 C72.26578125 330.668125 71.60578125 330.008125 70.92578125 329.328125 C71.46149554 325.79241071 71.46149554 325.79241071 72.92578125 324.328125 C74.60762073 324.09525492 76.29702285 323.91548334 77.98828125 323.765625 C79.36693359 323.63994141 79.36693359 323.63994141 80.7734375 323.51171875 C81.48371094 323.45113281 82.19398438 323.39054687 82.92578125 323.328125 C83.68275599 304.59600417 84.15427018 286.05785616 82.92578125 267.328125 C77.31578125 267.328125 71.70578125 267.328125 65.92578125 267.328125 C65.88819702 269.92433716 65.88819702 269.92433716 65.84985352 272.57299805 C65.76585371 278.30067621 65.67759201 284.02827816 65.58644199 289.75584698 C65.53134978 293.22741828 65.47795234 296.69899819 65.4284668 300.1706543 C65.3714608 304.16464047 65.30701387 308.1584768 65.2421875 312.15234375 C65.22547501 313.39521652 65.20876251 314.63808929 65.19154358 315.91862488 C65.17159836 317.07945084 65.15165314 318.24027679 65.13110352 319.4362793 C65.11555923 320.45554001 65.10001495 321.47480072 65.08399963 322.52494812 C64.93054446 325.24373464 64.65781791 327.70420446 63.92578125 330.328125 C60.61583412 331.98309856 56.93455125 331.42896835 53.30078125 331.390625 C52.09808594 331.38385742 52.09808594 331.38385742 50.87109375 331.37695312 C48.88929119 331.36515668 46.90752692 331.34722105 44.92578125 331.328125 C44.26578125 330.008125 43.60578125 328.688125 42.92578125 327.328125 C43.58578125 326.338125 44.24578125 325.348125 44.92578125 324.328125 C48.55578125 323.998125 52.18578125 323.668125 55.92578125 323.328125 C55.92578125 304.518125 55.92578125 285.708125 55.92578125 266.328125 C50.97578125 265.998125 46.02578125 265.668125 40.92578125 265.328125 C12.8261682 262.84946918 12.8261682 262.84946918 3.92578125 253.328125 C2.72305306 250.92266862 2.82506653 249.37815547 2.86328125 246.703125 C2.87230469 245.88585937 2.88132813 245.06859375 2.890625 244.2265625 C2.90222656 243.60007812 2.91382813 242.97359375 2.92578125 242.328125 C2.2090625 242.07160156 1.49234375 241.81507813 0.75390625 241.55078125 C-13.273603 235.48640225 -24.90017881 222.55354608 -30.5222168 208.54956055 C-37.43629005 190.47615202 -38.07280793 171.67208337 -31.07421875 153.328125 C-29.54440602 150.7924604 -27.95631916 148.37988794 -26.18359375 146.0078125 C-23.58898917 139.7405634 -26.57228245 131.49921043 -28 125.08203125 C-28.38806311 123.27613814 -28.77446604 121.46988769 -29.15942383 119.66333008 C-29.3601651 118.72196198 -29.56090637 117.78059387 -29.76773071 116.81069946 C-33.76179956 97.96869 -36.47611623 79.37875863 -37.75708008 60.15649414 C-37.81984131 59.30524963 -37.88260254 58.45400513 -37.94726562 57.57696533 C-38.06256853 55.98881824 -38.16146855 54.39936246 -38.2409668 52.809021 C-38.36789403 50.47146283 -38.36789403 50.47146283 -39.07421875 47.328125 C-40.95903618 45.86255829 -40.95903618 45.86255829 -43.07421875 45.328125 C-45.62088832 41.89012108 -45.58373736 38.47706225 -45.07421875 34.328125 C-43.05628261 31.42734181 -41.53134261 29.73634647 -38.06640625 28.765625 C-34.71964389 28.27163794 -32.29653372 28.25402001 -29.07421875 29.328125 C-29.39519531 28.63332031 -29.71617188 27.93851563 -30.046875 27.22265625 C-32.09382613 21.45539089 -32.18511948 14.70936169 -30.26953125 8.87890625 C-26.98502759 2.93282204 -21.42545886 -0.39354457 -15 -2.28125 C-9.31664568 -3.43406021 -4.99727998 -2.75578158 0 0 Z M197.92578125 166.328125 C197.86390625 167.58625 197.80203125 168.844375 197.73828125 170.140625 C197.6328125 172.28515625 197.6328125 172.28515625 196.92578125 174.328125 C196.1061792 174.75802734 195.28657715 175.18792969 194.44213867 175.63085938 C191.73466876 177.07949846 191.73466876 177.07949846 191.16210938 179.7097168 C191.09443359 180.63953369 191.02675781 181.56935059 190.95703125 182.52734375 C190.86341309 183.56479736 190.76979492 184.60225098 190.67333984 185.67114258 C190.59164551 186.77482178 190.50995117 187.87850098 190.42578125 189.015625 C189.43834242 199.45265867 187.47460883 208.48587298 183.92578125 218.328125 C183.56978948 219.65558828 183.22392365 220.98648421 182.92578125 222.328125 C185.23578125 223.318125 187.54578125 224.308125 189.92578125 225.328125 C190.25578125 228.298125 190.58578125 231.268125 190.92578125 234.328125 C200.12296195 235.17971581 206.62095675 231.48249525 213.61328125 225.703125 C221.5383672 218.21363774 226.00287138 210.21504326 226.92578125 199.328125 C227.02890625 198.1525 227.13203125 196.976875 227.23828125 195.765625 C226.32877035 185.76100514 222.44691466 178.21642935 214.98828125 171.515625 C209.34852844 167.48723014 204.87180521 165.90285823 197.92578125 166.328125 Z " fill="#E6D3C0" transform="translate(103.07421875,18.671875)"/>
<path d="M0 0 C0.8911853 -0.00100708 1.78237061 -0.00201416 2.70056152 -0.00305176 C26.24218682 0.01477883 49.43530185 1.77750026 72.48779297 6.79443359 C75.56293449 7.44992983 78.65770063 7.99424205 81.75 8.5625 C89.12179475 10.05000819 96.40117831 11.89250381 103.6875 13.75 C104.86650879 14.04688721 106.04551758 14.34377441 107.26025391 14.6496582 C121.32228778 18.29593167 121.32228778 18.29593167 124.625 23.25 C124.45257322 26.22472427 124.16781233 27.71952992 122.0144043 29.82397461 C121.33289307 30.26233643 120.65138184 30.70069824 119.94921875 31.15234375 C119.20349609 31.65056641 118.45777344 32.14878906 117.68945312 32.66210938 C116.51286133 33.41717773 116.51286133 33.41717773 115.3125 34.1875 C109.8708318 37.70484183 105.80926566 40.52173657 102.625 46.25 C102.295 45.59 101.965 44.93 101.625 44.25 C101.01011719 44.26160156 100.39523437 44.27320313 99.76171875 44.28515625 C98.95347656 44.29417969 98.14523437 44.30320313 97.3125 44.3125 C96.51199219 44.32410156 95.71148437 44.33570313 94.88671875 44.34765625 C92.625 44.25 92.625 44.25 89.625 43.25 C88.903125 42.404375 88.18125 41.55875 87.4375 40.6875 C84.48620798 38.12971358 84.02557591 37.89459164 80.375 37.875 C76.83461344 37.8293073 76.83461344 37.8293073 75.625 39.25 C72.59129428 39.62536724 69.65560185 39.65479041 66.625 39.25 C64.25 37.3125 64.25 37.3125 62.625 35.25 C59.85447819 34.32649273 58.05811242 34.08670415 55.1875 34.0625 C54.42566406 34.04832031 53.66382813 34.03414062 52.87890625 34.01953125 C50.38343133 34.27470113 48.82250215 35.0863438 46.625 36.25 C43.96247148 36.09785551 41.95708964 35.41858957 39.5859375 34.21484375 C34.59271716 31.68391592 31.82654639 30.83672706 26.453125 32.58203125 C25.84984375 32.80246094 25.2465625 33.02289063 24.625 33.25 C20.27795298 34.54486507 18.2557801 34.22846233 14.3125 32.25 C9.56124752 29.91859016 5.70399769 29.80177174 0.625 31.25 C-0.365 31.91 -1.355 32.57 -2.375 33.25 C-6.28311246 32.99786371 -9.38071522 32.6524486 -13 31.1875 C-16.07344255 29.97429899 -18.08534375 29.85524125 -21.375 30.25 C-22.54488103 30.8957311 -23.69034681 31.58699156 -24.8125 32.3125 C-27.77184029 34.17603136 -28.3524663 34.25112669 -32.125 34.0625 C-35.375 33.25 -35.375 33.25 -38.375 32.25 C-40.10295352 32.18197033 -41.83335365 32.16504355 -43.5625 32.1875 C-44.46355469 32.19652344 -45.36460938 32.20554687 -46.29296875 32.21484375 C-47.32357422 32.23224609 -47.32357422 32.23224609 -48.375 32.25 C-48.375 32.91 -48.375 33.57 -48.375 34.25 C-51.43831793 36.78082712 -53.17911211 37.24658802 -57.1875 37.31640625 C-58.58548219 37.16737607 -59.9815081 36.99889882 -61.375 36.8125 C-62.07367188 36.75384766 -62.77234375 36.69519531 -63.4921875 36.63476562 C-67.43554241 36.14742648 -69.72737157 35.31442642 -72.21875 32.30078125 C-72.9303125 31.29402344 -73.641875 30.28726563 -74.375 29.25 C-75.2 28.46625 -76.025 27.6825 -76.875 26.875 C-79.86151771 23.7391564 -82.86333931 20.36008284 -84.375 16.25 C-83.94140625 14.19140625 -83.94140625 14.19140625 -82.375 12.25 C-71.27071539 6.53334978 -57.8876642 5.05614066 -45.6875 3.0625 C-44.67961426 2.89564697 -43.67172852 2.72879395 -42.63330078 2.55688477 C-28.47037733 0.329974 -14.3048286 0.01131132 0 0 Z " fill="#E8D6C5" transform="translate(167.375,81.75)"/>
<path d="M0 0 C10.13324268 5.93092733 17.59812144 14.95531529 20.61328125 26.37109375 C23.1178735 40.46181504 20.09097474 54.93391916 12.62890625 67.16796875 C4.28903507 78.71381638 -6.05256357 87.49133973 -20.0625 91.0625 C-20.990625 91.124375 -21.91875 91.18625 -22.875 91.25 C-24.07125 91.3325 -25.2675 91.415 -26.5 91.5 C-32.58024359 91.44108291 -39.42831346 89.97334327 -44.875 87.25 C-44.9265625 87.98863281 -44.978125 88.72726562 -45.03125 89.48828125 C-46.18882359 93.27719111 -48.14592613 94.2195923 -51.375 96.4375 C-55.53395337 99.55827273 -55.53395337 99.55827273 -57.82421875 104.0546875 C-58.03622528 106.50840246 -58.09501668 108.79911653 -57.875 111.25 C-57.215 111.58 -56.555 111.91 -55.875 112.25 C-55.25 114.3125 -55.25 114.3125 -54.875 116.25 C-53.555 116.25 -52.235 116.25 -50.875 116.25 C-54.50367169 127.60052719 -58.67885977 138.67290026 -63.0625 149.75 C-64.00910324 152.14422124 -64.95445563 154.53889762 -65.89582825 156.93518066 C-66.47483461 158.40897565 -67.05672883 159.88164088 -67.64213562 161.35290527 C-69.31231614 165.60301121 -70.68734482 169.83983804 -71.875 174.25 C-73.525 173.92 -75.175 173.59 -76.875 173.25 C-76.545 155.43 -76.215 137.61 -75.875 119.25 C-78.845 118.26 -78.845 118.26 -81.875 117.25 C-84.24444739 115.00268907 -84.85490622 113.94799443 -84.94921875 110.671875 C-84.82160156 109.79015625 -84.69398438 108.9084375 -84.5625 108 C-84.44261719 107.10796875 -84.32273438 106.2159375 -84.19921875 105.296875 C-84.03873047 104.28367187 -84.03873047 104.28367187 -83.875 103.25 C-85.01775391 103.4665625 -85.01775391 103.4665625 -86.18359375 103.6875 C-92.53519336 104.8293606 -98.42670937 105.45470764 -104.875 105.25 C-107.76719751 105.12547948 -107.76719751 105.12547948 -110.0625 105.8125 C-113.86686184 106.40428962 -117.07224993 105.83008052 -120.875 105.25 C-117.875 103.25 -117.875 103.25 -113.875 103.25 C-114.535 101.27 -115.195 99.29 -115.875 97.25 C-115.215 96.59 -114.555 95.93 -113.875 95.25 C-113.875 94.59 -113.875 93.93 -113.875 93.25 C-112.885 92.59 -111.895 91.93 -110.875 91.25 C-112.525 90.59 -114.175 89.93 -115.875 89.25 C-115.875 88.92 -115.875 88.59 -115.875 88.25 C-114.225 88.25 -112.575 88.25 -110.875 88.25 C-111.205 87.26 -111.535 86.27 -111.875 85.25 C-111.215 84.59 -110.555 83.93 -109.875 83.25 C-110.205 82.26 -110.535 81.27 -110.875 80.25 C-137.65951414 77.79686559 -164.9303175 75.64898853 -191.71142578 78.99023438 C-194.88579684 79.37135949 -198.06272477 79.62443964 -201.25 79.875 C-202.62285156 79.98714844 -202.62285156 79.98714844 -204.0234375 80.1015625 C-204.63445312 80.15054688 -205.24546875 80.19953125 -205.875 80.25 C-205.875 80.91 -205.875 81.57 -205.875 82.25 C-207.49824086 82.47162329 -209.123721 82.67689803 -210.75 82.875 C-211.65492188 82.99101562 -212.55984375 83.10703125 -213.4921875 83.2265625 C-214.67167969 83.23816406 -214.67167969 83.23816406 -215.875 83.25 C-216.535 82.59 -217.195 81.93 -217.875 81.25 C-211.16524592 78.3454148 -204.80851258 77.37449599 -197.5625 76.625 C-196.40532471 76.50092773 -195.24814941 76.37685547 -194.0559082 76.24902344 C-190.66382214 75.89658671 -187.27061081 75.5665224 -183.875 75.25 C-182.59109375 75.12963379 -182.59109375 75.12963379 -181.28125 75.00683594 C-159.99581037 73.14615773 -138.49380562 74.90511338 -117.25 76.625 C-116.50951416 76.6820813 -115.76902832 76.7391626 -115.00610352 76.79797363 C-107.19290473 77.4102701 -99.73351327 78.26655377 -92.19482422 80.54980469 C-89.08670237 81.48793281 -85.93729153 82.08093506 -82.75 82.6875 C-77.25468445 83.84218126 -71.59784754 85.06237089 -66.875 88.25 C-66.545 89.24 -66.215 90.23 -65.875 91.25 C-66.535 91.25 -67.195 91.25 -67.875 91.25 C-67.875 92.57 -67.875 93.89 -67.875 95.25 C-61.26018335 92.71109202 -61.26018335 92.71109202 -55.875 88.25 C-55.875 83.32576422 -57.24314018 80.29901511 -59.875 76.25 C-60.89029541 73.92328135 -61.88988198 71.5896553 -62.875 69.25 C-63.41125 68.30125 -63.9475 67.3525 -64.5 66.375 C-66.24287093 62.4139297 -66.83858529 58.57424681 -66.875 54.25 C-65.875 53.25 -65.875 53.25 -63.5 53.0625 C-60.875 53.25 -60.875 53.25 -57.875 55.25 C-57.1875 58.875 -57.1875 58.875 -56.875 62.25 C-56.215 62.25 -55.555 62.25 -54.875 62.25 C-54.36940092 63.68554025 -53.8707251 65.1235202 -53.375 66.5625 C-52.95734375 67.76326172 -52.95734375 67.76326172 -52.53125 68.98828125 C-51.875 71.25 -51.875 71.25 -51.875 74.25 C-50.885 74.58 -49.895 74.91 -48.875 75.25 C-48.875 75.91 -48.875 76.57 -48.875 77.25 C-48.215 77.25 -47.555 77.25 -46.875 77.25 C-46.545 76.26 -46.215 75.27 -45.875 74.25 C-45.215 74.25 -44.555 74.25 -43.875 74.25 C-43.606875 73.5075 -43.33875 72.765 -43.0625 72 C-40.8704023 66.92356322 -40.8704023 66.92356322 -38.875 65.25 C-35.79486892 65.16645214 -32.8732079 65.55121449 -29.875 66.25 C-28.875 67.25 -28.875 67.25 -28.77734375 69.31640625 C-28.79474609 70.55197266 -28.79474609 70.55197266 -28.8125 71.8125 C-28.82152344 72.63878906 -28.83054687 73.46507812 -28.83984375 74.31640625 C-28.85144531 74.95449219 -28.86304688 75.59257812 -28.875 76.25 C-17.1052287 74.95219252 -9.11492051 70.61606295 -1.5625 61.46484375 C4.53511955 53.4617181 7.04431988 44.36251864 6.125 34.25 C4.46317265 25.78724896 0.91150242 19.84232281 -5.3125 13.9375 C-10.60172563 10.45435141 -15.5981813 8.8904917 -21.875 8.25 C-21.648125 8.971875 -21.42125 9.69375 -21.1875 10.4375 C-20.875 13.25 -20.875 13.25 -22 16 C-24.26283272 18.71539927 -25.48370451 18.73852593 -28.875 19.25 C-29.14054688 18.15300781 -29.40609375 17.05601562 -29.6796875 15.92578125 C-30.03626815 14.47130753 -30.3930496 13.01688302 -30.75 11.5625 C-30.92402344 10.84126953 -31.09804688 10.12003906 -31.27734375 9.37695312 C-32.03899452 6.28803613 -32.82397942 3.37755146 -34.0078125 0.41796875 C-34.875 -1.75 -34.875 -1.75 -34.875 -4.75 C-23.16019506 -9.55607382 -10.83903347 -5.50984202 0 0 Z " fill="#969393" transform="translate(322.875,176.75)"/>
<path d="M0 0 C0.75903625 0.02328369 1.51807251 0.04656738 2.30010986 0.07055664 C31.75584535 0.98362486 31.75584535 0.98362486 43.875 3.6875 C43.875 4.3475 43.875 5.0075 43.875 5.6875 C44.865 6.0175 45.855 6.3475 46.875 6.6875 C46.38 7.1 45.885 7.5125 45.375 7.9375 C43.44113908 9.80952338 43.44113908 9.80952338 43.875 13.6875 C43.875 14.6775 43.875 15.6675 43.875 16.6875 C42.885 16.6875 41.895 16.6875 40.875 16.6875 C41.37 18.1725 41.37 18.1725 41.875 19.6875 C41.215 20.3475 40.555 21.0075 39.875 21.6875 C40.19541397 24.29030568 40.19541397 24.29030568 40.875 26.6875 C39.555 27.0175 38.235 27.3475 36.875 27.6875 C38.793125 27.996875 38.793125 27.996875 40.75 28.3125 C41.46929687 28.42851562 42.18859375 28.54453125 42.9296875 28.6640625 C43.89261719 28.67566406 43.89261719 28.67566406 44.875 28.6875 C45.535 28.0275 46.195 27.3675 46.875 26.6875 C48.90058903 26.92782412 50.92549137 27.17617583 52.9453125 27.4609375 C58.90985754 27.92219565 64.92750298 27.19683769 70.875 26.6875 C70.875 28.9975 70.875 31.3075 70.875 33.6875 C70.545 32.3675 70.215 31.0475 69.875 29.6875 C69.02164063 29.89246094 68.16828125 30.09742188 67.2890625 30.30859375 C58.25885972 32.25427662 49.50895007 33.00952199 40.2734375 33.28515625 C39.07678467 33.325802 37.88013184 33.36644775 36.6472168 33.4083252 C33.72327894 33.5068603 30.79927934 33.59979519 27.875 33.6875 C27.86691315 34.38827667 27.85882629 35.08905334 27.85049438 35.81106567 C27.77238948 42.43161309 27.68505147 49.05196779 27.58747292 55.67225838 C27.53763498 59.07540984 27.49130456 62.47853213 27.453125 65.88183594 C27.40902425 69.79900262 27.3494247 73.71586132 27.2890625 77.6328125 C27.27751129 78.84865021 27.26596008 80.06448792 27.25405884 81.31716919 C27.23418915 82.45789886 27.21431946 83.59862854 27.19384766 84.77392578 C27.18052399 85.77320099 27.16720032 86.7724762 27.1534729 87.80203247 C26.84519224 90.99636063 25.99247407 93.68832694 24.875 96.6875 C22.08307795 96.74130578 19.2921859 96.78107669 16.5 96.8125 C15.7059375 96.82925781 14.911875 96.84601563 14.09375 96.86328125 C12.02007985 96.88085473 9.94616759 96.79085168 7.875 96.6875 C7.215 96.0275 6.555 95.3675 5.875 94.6875 C6.41071429 91.15178571 6.41071429 91.15178571 7.875 89.6875 C9.55683948 89.45462992 11.2462416 89.27485834 12.9375 89.125 C13.85660156 89.04121094 14.77570313 88.95742188 15.72265625 88.87109375 C16.43292969 88.81050781 17.14320313 88.74992187 17.875 88.6875 C18.63197474 69.95537917 19.10348893 51.41723116 17.875 32.6875 C12.265 32.6875 6.655 32.6875 0.875 32.6875 C0.83741577 35.28371216 0.83741577 35.28371216 0.79907227 37.93237305 C0.71507246 43.66005121 0.62681076 49.38765316 0.53566074 55.11522198 C0.48056853 58.58679328 0.42717109 62.05837319 0.37768555 65.5300293 C0.32067955 69.52401547 0.25623262 73.5178518 0.19140625 77.51171875 C0.17469376 78.75459152 0.15798126 79.99746429 0.14076233 81.27799988 C0.12081711 82.43882584 0.10087189 83.59965179 0.08032227 84.7956543 C0.06477798 85.81491501 0.0492337 86.83417572 0.03321838 87.88432312 C-0.12023679 90.60310964 -0.39296334 93.06357946 -1.125 95.6875 C-4.43494713 97.34247356 -8.11623 96.78834335 -11.75 96.75 C-12.55179688 96.74548828 -13.35359375 96.74097656 -14.1796875 96.73632812 C-16.16149006 96.72453168 -18.14325433 96.70659605 -20.125 96.6875 C-20.785 95.3675 -21.445 94.0475 -22.125 92.6875 C-21.135 91.2025 -21.135 91.2025 -20.125 89.6875 C-16.495 89.3575 -12.865 89.0275 -9.125 88.6875 C-9.125 69.8775 -9.125 51.0675 -9.125 31.6875 C-14.075 31.3575 -19.025 31.0275 -24.125 30.6875 C-52.22461305 28.20884418 -52.22461305 28.20884418 -61.125 18.6875 C-62.32772819 16.28204362 -62.22571472 14.73753047 -62.1875 12.0625 C-62.17847656 11.24523437 -62.16945313 10.42796875 -62.16015625 9.5859375 C-62.14855469 8.95945312 -62.13695313 8.33296875 -62.125 7.6875 C-62.785 7.6875 -63.445 7.6875 -64.125 7.6875 C-63.795 6.6975 -63.465 5.7075 -63.125 4.6875 C-62.135 5.0175 -61.145 5.3475 -60.125 5.6875 C-58.56381572 5.75490865 -56.9999748 5.77264456 -55.4375 5.75 C-54.62925781 5.74097656 -53.82101563 5.73195313 -52.98828125 5.72265625 C-52.37339844 5.71105469 -51.75851563 5.69945312 -51.125 5.6875 C-51.125 5.0275 -51.125 4.3675 -51.125 3.6875 C-48.27214436 3.19922869 -45.41807398 2.721905 -42.5625 2.25 C-41.78197266 2.11529297 -41.00144531 1.98058594 -40.19726562 1.84179688 C-26.80214029 -0.34625149 -13.51374339 -0.45394526 0 0 Z " fill="#E4D1BF" transform="translate(168.125,253.3125)"/>
<path d="M0 0 C4.6086054 3.67477917 7.99909566 8.83792189 9.08203125 14.66015625 C9.64114108 21.2576522 8.4606794 25.94160291 5.08203125 31.66015625 C2.58203125 34.53515625 2.58203125 34.53515625 0.08203125 36.66015625 C-0.53671875 37.21703125 -1.15546875 37.77390625 -1.79296875 38.34765625 C-7.79567763 42.05521173 -13.25726826 41.77782481 -19.91796875 40.66015625 C-19.99273437 41.25183594 -20.0675 41.84351563 -20.14453125 42.453125 C-20.93830625 47.22355711 -21.7789382 50.79040465 -25.921875 53.796875 C-30.02815586 55.57278121 -34.49848831 55.57365396 -38.91796875 55.66015625 C-38.93214844 56.24023438 -38.94632813 56.8203125 -38.9609375 57.41796875 C-39.33390909 63.52663858 -40.4703554 66.41940864 -44.91796875 70.66015625 C-47.45209247 72.51851364 -49.20144767 72.70654371 -52.35546875 73.22265625 C-56.10367551 72.63083413 -56.57423926 72.50089144 -58.79296875 69.72265625 C-61.32569317 65.64030438 -62.05401104 61.43135361 -61.91796875 56.66015625 C-61.58796875 56.00015625 -61.25796875 55.34015625 -60.91796875 54.66015625 C-61.57023437 54.55058594 -62.2225 54.44101563 -62.89453125 54.328125 C-72.82240561 52.52705045 -72.82240561 52.52705045 -76.91796875 49.66015625 C-79.06088189 45.37432996 -79.28291869 41.40450547 -78.91796875 36.66015625 C-78.25796875 36.00015625 -77.59796875 35.34015625 -76.91796875 34.66015625 C-73.38225446 35.19587054 -73.38225446 35.19587054 -71.91796875 36.66015625 C-71.87733043 38.3263274 -71.87524775 39.9940372 -71.91796875 41.66015625 C-71.25796875 41.66015625 -70.59796875 41.66015625 -69.91796875 41.66015625 C-69.58796875 42.32015625 -69.25796875 42.98015625 -68.91796875 43.66015625 C-63.18560277 44.11874553 -60.36500328 43.31660686 -55.91796875 39.66015625 C-55.23734375 38.75265625 -54.55671875 37.84515625 -53.85546875 36.91015625 C-51.91796875 34.66015625 -51.91796875 34.66015625 -49.48828125 34.28125 C-46.91796875 34.66015625 -46.91796875 34.66015625 -45.2578125 36.3046875 C-44.79503906 37.02011719 -44.33226562 37.73554688 -43.85546875 38.47265625 C-41.83829191 41.54032962 -40.04415367 43.6834829 -36.91796875 45.66015625 C-33.87517503 46.32695993 -33.87517503 46.32695993 -30.91796875 45.66015625 C-28.87488464 43.05346273 -27.96350457 40.79676372 -26.91796875 37.66015625 C-28.29150479 35.54079701 -28.29150479 35.54079701 -30.23046875 33.41015625 C-34.6161259 27.9740423 -36.19446317 23.66517725 -35.79296875 16.66015625 C-34.72759424 8.74765568 -31.09067442 4.11964245 -24.98828125 -0.890625 C-17.05453667 -6.44424621 -7.84527862 -4.71266299 0 0 Z " fill="#F3F4ED" transform="translate(232.91796875,138.33984375)"/>
<path d="M0 0 C5.73600306 3.95586418 8.5506323 8.58989513 9.92578125 15.328125 C10.55226562 15.37710938 11.17875 15.42609375 11.82421875 15.4765625 C12.64148438 15.55132812 13.45875 15.62609375 14.30078125 15.703125 C15.11289063 15.77273437 15.925 15.84234375 16.76171875 15.9140625 C18.92578125 16.328125 18.92578125 16.328125 20.92578125 18.328125 C20.86328125 20.203125 20.86328125 20.203125 19.92578125 22.328125 C11.39808358 29.8579006 -0.57736923 34.74097447 -11.55859375 37.47265625 C-12.36216309 37.67689209 -13.16573242 37.88112793 -13.99365234 38.09155273 C-15.60067923 38.49179159 -17.21309739 38.87110938 -18.83056641 39.22680664 C-22.61682416 40.16582792 -24.73397192 41.01571655 -27.65234375 43.6953125 C-29.82421626 49.24432744 -29.05537518 54.23164845 -28.44921875 60.078125 C-28.35253906 61.18800781 -28.25585938 62.29789062 -28.15625 63.44140625 C-27.82973751 67.07437434 -27.45246867 70.70019686 -27.07421875 74.328125 C-26.94371373 75.73796467 -26.81402166 77.14787978 -26.68505859 78.55786133 C-25.61124193 89.76500953 -23.48264334 100.55561651 -20.94921875 111.515625 C-20.38691337 113.96075741 -19.82773617 116.40641941 -19.27761841 118.85432434 C-18.93989799 120.3563743 -18.59540675 121.85692569 -18.24264526 123.35551453 C-17.23723061 127.81736731 -16.915006 131.79204262 -17.07421875 136.328125 C-16.41421875 136.328125 -15.75421875 136.328125 -15.07421875 136.328125 C-14.94921875 139.703125 -14.94921875 139.703125 -15.07421875 143.328125 C-17.07421875 145.328125 -17.07421875 145.328125 -19.69921875 145.453125 C-20.48296875 145.411875 -21.26671875 145.370625 -22.07421875 145.328125 C-24.94846626 138.40263842 -26.49984113 131.40892683 -28.01171875 124.078125 C-28.25083984 122.94632812 -28.48996094 121.81453125 -28.73632812 120.6484375 C-29.24442724 118.22993932 -29.74449456 115.80974401 -30.23779297 113.38818359 C-30.82735188 110.49420471 -31.45029162 107.60917979 -32.08642578 104.72509766 C-34.9848437 91.31534517 -36.29086563 77.99253307 -37.28320312 64.32470703 C-37.48912771 61.55086503 -37.71779388 58.77962534 -37.94921875 56.0078125 C-38.00352051 55.16217743 -38.05782227 54.31654236 -38.11376953 53.44528198 C-38.29371642 50.84123744 -38.29371642 50.84123744 -39.07421875 47.328125 C-40.95407745 45.79832892 -40.95407745 45.79832892 -43.07421875 45.328125 C-45.62088832 41.89012108 -45.58373736 38.47706225 -45.07421875 34.328125 C-43.05628261 31.42734181 -41.53134261 29.73634647 -38.06640625 28.765625 C-34.71964389 28.27163794 -32.29653372 28.25402001 -29.07421875 29.328125 C-29.39519531 28.63332031 -29.71617188 27.93851563 -30.046875 27.22265625 C-32.09382613 21.45539089 -32.18511948 14.70936169 -30.26953125 8.87890625 C-26.98502759 2.93282204 -21.42545886 -0.39354457 -15 -2.28125 C-9.31664568 -3.43406021 -4.99727998 -2.75578158 0 0 Z " fill="#857D74" transform="translate(103.07421875,18.671875)"/>
<path d="M0 0 C0.73862274 0.0570813 1.47724548 0.1141626 2.23825073 0.17297363 C10.03197299 0.78550933 17.47029641 1.64865393 24.99047852 3.92480469 C28.09947231 4.86230802 31.24955135 5.45581001 34.4375 6.0625 C39.93281555 7.21718126 45.58965246 8.43737089 50.3125 11.625 C50.6425 12.615 50.9725 13.605 51.3125 14.625 C50.6525 14.625 49.9925 14.625 49.3125 14.625 C49.3125 15.945 49.3125 17.265 49.3125 18.625 C50.034375 18.356875 50.75625 18.08875 51.5 17.8125 C54.3125 17.625 54.3125 17.625 57.0625 19.9375 C60.35109529 23.86554437 60.35109529 23.86554437 60.19140625 27.0078125 C60.08699219 27.91273438 59.98257813 28.81765625 59.875 29.75 C59.77316406 30.66007812 59.67132813 31.57015625 59.56640625 32.5078125 C59.48261719 33.20648438 59.39882813 33.90515625 59.3125 34.625 C59.9725 34.955 60.6325 35.285 61.3125 35.625 C61.9375 37.6875 61.9375 37.6875 62.3125 39.625 C63.6325 39.625 64.9525 39.625 66.3125 39.625 C62.68382831 50.97552719 58.50864023 62.04790026 54.125 73.125 C53.17839676 75.51922124 52.23304437 77.91389762 51.29167175 80.31018066 C50.71266539 81.78397565 50.13077117 83.25664088 49.54536438 84.72790527 C47.87518386 88.97801121 46.50015518 93.21483804 45.3125 97.625 C43.6625 97.295 42.0125 96.965 40.3125 96.625 C40.6425 78.805 40.9725 60.985 41.3125 42.625 C38.3425 41.635 38.3425 41.635 35.3125 40.625 C32.94305261 38.37768907 32.33259378 37.32299443 32.23828125 34.046875 C32.42970703 32.72429687 32.42970703 32.72429687 32.625 31.375 C32.74488281 30.48296875 32.86476562 29.5909375 32.98828125 28.671875 C33.09527344 27.99640625 33.20226562 27.3209375 33.3125 26.625 C32.55066406 26.769375 31.78882813 26.91375 31.00390625 27.0625 C24.65230664 28.2043606 18.76079063 28.82970764 12.3125 28.625 C9.42030249 28.50047948 9.42030249 28.50047948 7.125 29.1875 C3.32063816 29.77928962 0.11525007 29.20508052 -3.6875 28.625 C-0.6875 26.625 -0.6875 26.625 3.3125 26.625 C2.3225 23.655 2.3225 23.655 1.3125 20.625 C1.9725 19.965 2.6325 19.305 3.3125 18.625 C3.3125 17.965 3.3125 17.305 3.3125 16.625 C4.3025 15.965 5.2925 15.305 6.3125 14.625 C4.6625 13.965 3.0125 13.305 1.3125 12.625 C1.3125 12.295 1.3125 11.965 1.3125 11.625 C2.9625 11.625 4.6125 11.625 6.3125 11.625 C5.8175 10.14 5.8175 10.14 5.3125 8.625 C5.9725 7.965 6.6325 7.305 7.3125 6.625 C6.8175 5.14 6.8175 5.14 6.3125 3.625 C-20.47201414 1.17186559 -47.7428175 -0.97601147 -74.52392578 2.36523438 C-77.69829684 2.74635949 -80.87522477 2.99943964 -84.0625 3.25 C-84.97773437 3.32476562 -85.89296875 3.39953125 -86.8359375 3.4765625 C-87.75246094 3.55003906 -87.75246094 3.55003906 -88.6875 3.625 C-88.6875 4.285 -88.6875 4.945 -88.6875 5.625 C-90.31074086 5.84662329 -91.936221 6.05189803 -93.5625 6.25 C-94.46742187 6.36601562 -95.37234375 6.48203125 -96.3046875 6.6015625 C-97.09101562 6.60929687 -97.87734375 6.61703125 -98.6875 6.625 C-99.3475 5.965 -100.0075 5.305 -100.6875 4.625 C-93.95946898 1.70897687 -87.57931296 0.74895912 -80.3125 0 C-79.15202148 -0.12407227 -77.99154297 -0.24814453 -76.79589844 -0.37597656 C-73.42785685 -0.72613337 -70.05858217 -1.05559023 -66.6875 -1.375 C-65.86926758 -1.45524414 -65.05103516 -1.53548828 -64.20800781 -1.61816406 C-42.91176833 -3.60300043 -21.26409245 -1.72593847 0 0 Z " fill="#DCC7B2" transform="translate(205.6875,253.375)"/>
<path d="M0 0 C0.8911853 -0.00100708 1.78237061 -0.00201416 2.70056152 -0.00305176 C26.24218682 0.01477883 49.43530185 1.77750026 72.48779297 6.79443359 C75.56293449 7.44992983 78.65770063 7.99424205 81.75 8.5625 C89.12179475 10.05000819 96.40117831 11.89250381 103.6875 13.75 C104.86650879 14.04688721 106.04551758 14.34377441 107.26025391 14.6496582 C121.32228778 18.29593167 121.32228778 18.29593167 124.625 23.25 C124.625 25.75 124.625 25.75 123.625 28.25 C120.5625 30.0625 120.5625 30.0625 117.625 31.25 C116.635 30.26 116.635 30.26 115.625 29.25 C113.78546512 28.45848753 113.78546512 28.45848753 111.66796875 27.8125 C110.49331055 27.42964844 110.49331055 27.42964844 109.29492188 27.0390625 C108.47572266 26.77867188 107.65652344 26.51828125 106.8125 26.25 C105.20138165 25.73053327 103.59069205 25.20973458 101.98046875 24.6875 C101.21420166 24.4407251 100.44793457 24.1939502 99.65844727 23.93969727 C97.625 23.25 97.625 23.25 95.1015625 22.15234375 C91.42507519 20.81280342 87.67526924 20.36460111 83.8125 19.8125 C77.78240863 18.91054605 71.79449786 17.93033222 65.8125 16.75 C49.36751555 13.61840276 32.76763205 11.83054098 16.09008789 10.49951172 C14.17497056 10.30566702 12.26871386 10.02344365 10.37011719 9.70629883 C6.15334814 9.19253472 2.20938601 9.28344665 -2.01953125 9.51953125 C-3.23427376 9.58112679 -3.23427376 9.58112679 -4.47355652 9.64396667 C-6.17891946 9.73233696 -7.88410788 9.82413531 -9.58911133 9.91918945 C-12.16900413 10.06147989 -14.74933254 10.18870115 -17.33007812 10.31445312 C-28.51091357 10.88037777 -28.51091357 10.88037777 -39.51416016 12.86035156 C-41.375 13.25 -41.375 13.25 -44.9375 13.1875 C-48.71974147 13.25626803 -51.33252874 14.17926682 -54.84765625 15.453125 C-60.22297786 17.14797138 -65.94910198 17.93074069 -71.5546875 18.453125 C-74.82833102 18.76222439 -76.25258145 19.14641507 -78.8125 21.3125 C-79.328125 21.951875 -79.84375 22.59125 -80.375 23.25 C-84.47607817 16.9777628 -84.47607817 16.9777628 -84.0625 14 C-75.88182045 5.51633232 -56.75214331 4.87058409 -45.6875 3.0625 C-44.67961426 2.89564697 -43.67172852 2.72879395 -42.63330078 2.55688477 C-28.47037733 0.329974 -14.3048286 0.01131132 0 0 Z " fill="#F1E8DC" transform="translate(167.375,81.75)"/>
<path d="M0 0 C3.53571429 0.53571429 3.53571429 0.53571429 5 2 C5.04063832 3.66617115 5.042721 5.33388095 5 7 C5.66 7 6.32 7 7 7 C7.33 7.66 7.66 8.32 8 9 C13.73236598 9.45858928 16.55296547 8.65645061 21 5 C22.0209375 3.63875 22.0209375 3.63875 23.0625 2.25 C25 0 25 0 27.4296875 -0.37890625 C30 0 30 0 31.66015625 1.64453125 C32.12292969 2.35996094 32.58570313 3.07539063 33.0625 3.8125 C35.07967684 6.88017337 36.87381508 9.02332665 40 11 C43.04279372 11.66680368 43.04279372 11.66680368 46 11 C47.84425989 8.73183699 47.84425989 8.73183699 49 6 C49.66 5.01 50.32 4.02 51 3 C53.475 3.495 53.475 3.495 56 4 C56.44223108 12.69721116 56.44223108 12.69721116 53 17 C49.82493952 19.89157294 47.5002573 20.43450849 43.25 20.6875 C42.26515625 20.75324219 41.2803125 20.81898438 40.265625 20.88671875 C39.51796875 20.92410156 38.7703125 20.96148437 38 21 C37.98582031 21.58007812 37.97164062 22.16015625 37.95703125 22.7578125 C37.58405966 28.86648233 36.44761335 31.75925239 32 36 C29.46587628 37.85835739 27.71652108 38.04638746 24.5625 38.5625 C20.81429324 37.97067788 20.34372949 37.84073519 18.125 35.0625 C15.59227558 30.98014813 14.86395771 26.77119736 15 22 C15.33 21.34 15.66 20.68 16 20 C15.34773438 19.89042969 14.69546875 19.78085938 14.0234375 19.66796875 C4.09556314 17.8668942 4.09556314 17.8668942 0 15 C-2.14291314 10.71417371 -2.36494994 6.74434922 -2 2 C-1.34 1.34 -0.68 0.68 0 0 Z " fill="#0D0809" transform="translate(156,173)"/>
<path d="M0 0 C0 0.66 0 1.32 0 2 C0.99 2.061875 1.98 2.12375 3 2.1875 C9.22326533 3.09453462 15.04107121 7.00377421 18.91796875 11.91796875 C21.02913265 15.98024441 21.89395742 20.51369417 22.91015625 24.953125 C23.69535989 28.10042965 23.69535989 28.10042965 26.12109375 29.421875 C27.05115234 29.70804688 27.05115234 29.70804688 28 30 C28 31.65 28 33.3 28 35 C27.38382813 35.07476562 26.76765625 35.14953125 26.1328125 35.2265625 C23.83698055 35.80762087 23.83698055 35.80762087 22.8046875 37.9609375 C22.49789062 38.75757813 22.19109375 39.55421875 21.875 40.375 C20.74558754 43.24053409 19.72920134 45.40619799 18 48 C17.01 48 16.02 48 15 48 C14.95875 48.5775 14.9175 49.155 14.875 49.75 C13.517614 53.24042115 11.21937126 54.23845723 8 56 C1.5672369 57.7951897 -6.56807348 57.9024008 -13 56 C-13 54.02 -13 52.04 -13 50 C-12.38253906 50.10699219 -11.76507813 50.21398437 -11.12890625 50.32421875 C-4.7654513 51.22498178 0.20485744 50.93904981 6 48 C8.37791979 45.95955036 8.37791979 45.95955036 10 44 C10.66 44 11.32 44 12 44 C12.68346682 42.34015202 13.34588315 40.67163195 14 39 C14.37125 38.071875 14.7425 37.14375 15.125 36.1875 C17.05942584 29.14066301 16.19874955 23.43904129 13 17 C9.63506935 11.51640931 4.87407824 8.99387348 -1.23828125 7.42578125 C-7.70040795 6.38782308 -12.56526219 7.65969769 -17.94921875 11.328125 C-23.34577799 15.62727073 -25.85687409 19.95075559 -26.875 26.8125 C-27.2976516 32.80156311 -26.34349927 38.22420475 -22.390625 42.90625 C-21.82859375 43.4940625 -21.2665625 44.081875 -20.6875 44.6875 C-19.09765625 46.359375 -19.09765625 46.359375 -18 48 C-18.625 51.4375 -18.625 51.4375 -20 54 C-20.33 53.34 -20.66 52.68 -21 52 C-21.5775 51.731875 -22.155 51.46375 -22.75 51.1875 C-27.40711503 48.72957818 -30.81907526 44.73149775 -33 40 C-34.26932134 31.26473607 -34.9262629 19.8911379 -30.5625 12 C-25.93253561 5.98649331 -19.59576403 1.74283112 -12.12890625 0.234375 C-8.08747014 -0.21055375 -4.05781734 -0.14967359 0 0 Z " fill="#EDBA36" transform="translate(225,128)"/>
<path d="M0 0 C4.24955734 3.57645961 6.46959976 7.7913884 7.57421875 13.19921875 C8.02387273 18.92481276 6.15091213 22.58246256 2.76171875 27.1171875 C-0.85596402 31.2788178 -4.33636889 32.51091981 -9.828125 32.99609375 C-14.72287934 33.00543488 -18.50468559 31.51422499 -22.3125 28.5625 C-23.158125 27.716875 -24.00375 26.87125 -24.875 26 C-24.875 25.01 -24.875 24.02 -24.875 23 C-25.535 23 -26.195 23 -26.875 23 C-28.00980527 19.39006828 -27.97515767 16.0157673 -27.9375 12.25 C-27.92847656 11.07953125 -27.91945312 9.9090625 -27.91015625 8.703125 C-27.89855469 7.81109375 -27.88695312 6.9190625 -27.875 6 C-27.215 6 -26.555 6 -25.875 6 C-25.545 5.34 -25.215 4.68 -24.875 4 C-24.215 4 -23.555 4 -22.875 4 C-22.875 3.34 -22.875 2.68 -22.875 2 C-21.555 1.67 -20.235 1.34 -18.875 1 C-18.875 0.34 -18.875 -0.32 -18.875 -1 C-12.71804858 -2.64185371 -5.57127979 -3.57810642 0 0 Z " fill="#F5F5ED" transform="translate(167.875,137)"/>
<path d="M0 0 C0.99 0 1.98 0 3 0 C3.33 1.32 3.66 2.64 4 4 C5.32 4 6.64 4 8 4 C4.37132831 15.35052719 0.19614023 26.42290026 -4.1875 37.5 C-5.13410324 39.89422124 -6.07945563 42.28889762 -7.02082825 44.68518066 C-7.59983461 46.15897565 -8.18172883 47.63164088 -8.76713562 49.10290527 C-10.43731614 53.35301121 -11.81234482 57.58983804 -13 62 C-14.65 61.67 -16.3 61.34 -18 61 C-17.88211187 54.13138974 -17.75728707 47.26293041 -17.62768555 40.39453125 C-17.58442801 38.05894819 -17.54274658 35.72333538 -17.50268555 33.38769531 C-17.44476031 30.02660158 -17.38113014 26.66565634 -17.31640625 23.3046875 C-17.29969376 22.26384003 -17.28298126 21.22299255 -17.26576233 20.15060425 C-17.16786507 15.33769726 -16.99074079 10.73158058 -16 6 C-10.675665 3.67913603 -6.56157448 4.08542997 -1 5 C-0.67 3.35 -0.34 1.7 0 0 Z " fill="#252121" transform="translate(264,289)"/>
<path d="M0 0 C0.86625 0.37125 1.7325 0.7425 2.625 1.125 C6.02183139 2.3764642 8.50859735 1.76176058 12 1 C12.680625 0.649375 13.36125 0.29875 14.0625 -0.0625 C16.94676411 -1.45811167 18.80539007 -1.36165395 22 -1 C23.51635105 -0.34935745 25.01576895 0.34158778 26.5 1.0625 C30.50525781 2.95480043 32.64643698 3.29680601 37 2 C38.2375 1.54625 39.475 1.0925 40.75 0.625 C45.56850838 -0.67406249 48.45754363 1.52356651 52.59375 3.87890625 C56.20332046 5.56063794 58.2489251 5.11734146 62 4 C62.33 3.67 62.66 3.34 63 3 C68.40822561 2.41895097 72.58835227 2.52415634 77 6 C77.99 6.99 77.99 6.99 79 8 C81.17537684 8.28042984 81.17537684 8.28042984 83.5625 8.1875 C84.36816406 8.18105469 85.17382812 8.17460938 86.00390625 8.16796875 C87.99879885 8.21630912 87.99879885 8.21630912 89 7 C96.05882353 6.41176471 96.05882353 6.41176471 100 8.875 C102 11 102 11 102 13 C107.94 13.495 107.94 13.495 114 14 C114 15.32 114 16.64 114 18 C110.59502948 18.84591126 107.50710743 19.3077267 104 19 C101.37001673 17.38820775 99.31052032 15.62001983 97.10546875 13.46875 C95.0886532 11.72472224 95.0886532 11.72472224 92.54296875 12.23046875 C91.28419922 12.61138672 91.28419922 12.61138672 90 13 C80.57314322 14.77321904 80.57314322 14.77321904 76.0625 12.1875 C74.5465625 11.1046875 74.5465625 11.1046875 73 10 C70.32241529 7.7335208 70.32241529 7.7335208 68.0546875 8.27734375 C67.33539063 8.49519531 66.61609375 8.71304688 65.875 8.9375 C59.98532864 10.43878878 54.73498408 9.91166136 49 8 C49 7.34 49 6.68 49 6 C43.08799583 5.66355032 43.08799583 5.66355032 37.4375 7.0625 C33.86747441 8.43558677 30.62319501 7.90758534 27 7 C25.96875 6.46375 24.9375 5.9275 23.875 5.375 C20.32862867 3.67890936 18.74051331 3.96538994 15 5 C13.8553125 5.556875 13.8553125 5.556875 12.6875 6.125 C8.18176538 7.59198336 3.14459294 7.08228061 -1.09765625 4.94140625 C-4.00094803 3.50466432 -5.91967446 4.19911536 -9 5 C-9.9075 5.53625 -10.815 6.0725 -11.75 6.625 C-17.28205629 8.96548535 -22.80311808 7.54922048 -28.5 6.125 C-32.3887657 5.98611551 -33.60630837 6.6645489 -36.9375 8.5 C-42.00575541 11.2798613 -44.41041997 11.28285443 -50 10 C-51.33146256 9.79964659 -52.66482744 9.61142027 -54 9.4375 C-54.99 9.293125 -55.98 9.14875 -57 9 C-57 7.68 -57 6.36 -57 5 C-52.83284258 4.92558647 -48.92834002 4.9586259 -44.8125 5.625 C-41.03043774 5.99700612 -39.29839749 5.75227367 -36 4 C-36 3.34 -36 2.68 -36 2 C-32.82570417 0.41285209 -29.46453411 0.71453277 -26 1 C-24.96875 1.350625 -23.9375 1.70125 -22.875 2.0625 C-19.40353679 3.19449887 -17.49961415 2.96797838 -14 2 C-13.236875 1.46375 -12.47375 0.9275 -11.6875 0.375 C-7.69949119 -1.6653766 -4.28516923 -0.93394714 0 0 Z " fill="#B0AAA7" transform="translate(155,112)"/>
<path d="M0 0 C3.2318289 2.23289996 6.03384574 4.87465419 7.93359375 8.3359375 C8.08984375 11.05859375 8.08984375 11.05859375 7.93359375 13.3359375 C2.14870915 16.41213496 -3.73501445 19.09809816 -9.81640625 21.5234375 C-10.44168213 21.77303223 -11.06695801 22.02262695 -11.71118164 22.27978516 C-18.08795569 24.78987299 -23.1477062 26.6126855 -30.06640625 26.3359375 C-32.53354644 21.40165713 -31.9359999 14.00834724 -30.265625 8.875 C-26.95852894 2.94268336 -21.42107979 -0.38472338 -14.9921875 -2.2734375 C-9.31272005 -3.42545929 -4.99700119 -2.74688954 0 0 Z " fill="#0D090B" transform="translate(103.06640625,18.6640625)"/>
<path d="M0 0 C6.75 -0.125 6.75 -0.125 9 1 C11.16368213 1.29372567 13.33109167 1.56024653 15.5 1.8125 C21.83844423 2.6685167 27.23612809 4.26415296 33 7 C33 7.99 33 8.98 33 10 C34.5778125 9.9690625 34.5778125 9.9690625 36.1875 9.9375 C39.34462759 9.98925619 41.94626638 10.32139253 45 11 C45.99 11 46.98 11 48 11 C47.70096051 13.34247598 47.36887284 15.66804527 47 18 C46.81630859 19.18722656 46.81630859 19.18722656 46.62890625 20.3984375 C46.48324219 21.19507813 46.33757812 21.99171875 46.1875 22.8125 C45.99220703 23.93591797 45.99220703 23.93591797 45.79296875 25.08203125 C45 27 45 27 43.17578125 28.26171875 C41 29 41 29 37 29 C37 30.98 37 32.96 37 35 C36.67 35 36.34 35 36 35 C36 33.35 36 31.7 36 30 C35.071875 29.7525 34.14375 29.505 33.1875 29.25 C29.70544283 27.88448739 28.81176966 27.18164428 27 24 C26.92578125 21.421875 26.92578125 21.421875 27.3125 18.75 C27.43238281 17.85796875 27.55226562 16.9659375 27.67578125 16.046875 C27.78277344 15.37140625 27.88976562 14.6959375 28 14 C26.85724609 14.2165625 26.85724609 14.2165625 25.69140625 14.4375 C19.33980664 15.5793606 13.44829063 16.20470764 7 16 C4.10780249 15.87547948 4.10780249 15.87547948 1.8125 16.5625 C-1.99186184 17.15428962 -5.19724993 16.58008052 -9 16 C-6 14 -6 14 -2 14 C-2.66 12.02 -3.32 10.04 -4 8 C-3.34 7.34 -2.68 6.68 -2 6 C-2 5.34 -2 4.68 -2 4 C-1.01 3.34 -0.02 2.68 1 2 C0.67 1.34 0.34 0.68 0 0 Z " fill="#C1AB97" transform="translate(211,266)"/>
<path d="M0 0 C2.31 0.33 4.62 0.66 7 1 C7.02319011 9.51897428 7.04094909 18.03793534 7.05181217 26.5569334 C7.0570264 30.51282048 7.06409754 34.46868592 7.07543945 38.42456055 C7.08632021 42.2435763 7.09228784 46.06257127 7.09487724 49.88160133 C7.09672214 51.33721048 7.10032474 52.79281852 7.10573006 54.24841881 C7.11300936 56.29023047 7.11398804 58.33195671 7.11352539 60.3737793 C7.115746 61.53515915 7.11796661 62.696539 7.12025452 63.89311218 C7.00994925 66.74295179 6.78810057 69.25989333 6 72 C2.69005287 73.65497356 -0.99123 73.10084335 -4.625 73.0625 C-5.42679688 73.05798828 -6.22859375 73.05347656 -7.0546875 73.04882812 C-9.03649006 73.03703168 -11.01825433 73.01909605 -13 73 C-13.66 71.68 -14.32 70.36 -15 69 C-14.34 68.01 -13.68 67.02 -13 66 C-10.3984375 65.48828125 -10.3984375 65.48828125 -7.375 65.3125 C-6.37210938 65.24675781 -5.36921875 65.18101562 -4.3359375 65.11328125 C-3.17964844 65.05720703 -3.17964844 65.05720703 -2 65 C-1.98969254 64.21517242 -1.97938507 63.43034485 -1.96876526 62.62173462 C-1.87089223 55.23477672 -1.76839247 47.84790454 -1.66066074 40.46108437 C-1.60543556 36.66321358 -1.55201622 32.8653351 -1.50268555 29.06738281 C-1.45503599 25.40392633 -1.402693 21.74056454 -1.34705925 18.07722092 C-1.32663837 16.67777227 -1.30792483 15.27829765 -1.29092598 13.87880325 C-1.26687639 11.92255986 -1.23625878 9.96640051 -1.20532227 8.01025391 C-1.18977798 6.8955069 -1.1742337 5.78075989 -1.15821838 4.63223267 C-1 2 -1 2 0 0 Z " fill="#857E74" transform="translate(161,277)"/>
<path d="M0 0 C2.34529299 3.51793949 2.25283283 4.95712238 2.25878906 9.12036133 C2.26509338 10.38209671 2.27139771 11.64383209 2.27789307 12.94380188 C2.27431211 14.32321308 2.27020986 15.70262302 2.265625 17.08203125 C2.26697267 18.49826626 2.26891405 19.91450082 2.27142334 21.33073425 C2.2743727 24.30069376 2.27008502 27.27053299 2.26074219 30.24047852 C2.24937888 34.03673605 2.2558883 37.8327098 2.26788712 41.62895679 C2.27513755 44.55529389 2.27280268 47.4815645 2.26763153 50.40790367 C2.2663022 51.80686159 2.26791753 53.20582564 2.27259064 54.60477638 C2.27770449 56.56700134 2.26852039 58.52924758 2.25878906 60.49145508 C2.25640228 62.16332634 2.25640228 62.16332634 2.25396729 63.86897278 C1.98480998 67.18726961 1.17729251 69.89683472 0 73 C-2.79192205 73.05380578 -5.5828141 73.09357669 -8.375 73.125 C-9.56609375 73.15013672 -9.56609375 73.15013672 -10.78125 73.17578125 C-12.85492015 73.19335473 -14.92883241 73.10335168 -17 73 C-17.66 72.34 -18.32 71.68 -19 71 C-18.46428571 67.46428571 -18.46428571 67.46428571 -17 66 C-15.31816052 65.76712992 -13.6287584 65.58735834 -11.9375 65.4375 C-11.01839844 65.35371094 -10.09929687 65.26992188 -9.15234375 65.18359375 C-8.44207031 65.12300781 -7.73179687 65.06242187 -7 65 C-6.82473706 60.12526652 -6.66016772 55.25024668 -6.5 50.375 C-6.47532654 49.64135223 -6.45065308 48.90770447 -6.42523193 48.15182495 C-6.15024712 39.8313278 -5.95629514 31.52457156 -6.0390625 23.19921875 C-6.04496399 22.50713318 -6.05086548 21.81504761 -6.0569458 21.10198975 C-6.08792852 17.79096974 -6.13811798 14.48173793 -6.21289062 11.17138672 C-6.22771484 9.99205566 -6.24253906 8.81272461 -6.2578125 7.59765625 C-6.29092529 6.04316772 -6.29092529 6.04316772 -6.32470703 4.45727539 C-6.16397705 3.24092407 -6.16397705 3.24092407 -6 2 C-3 0 -3 0 0 0 Z " fill="#867E75" transform="translate(193,277)"/>
<path d="M0 0 C4.6086054 3.67477917 7.99909566 8.83792189 9.08203125 14.66015625 C9.64114108 21.2576522 8.4606794 25.94160291 5.08203125 31.66015625 C2.58203125 34.53515625 2.58203125 34.53515625 0.08203125 36.66015625 C-0.53671875 37.21703125 -1.15546875 37.77390625 -1.79296875 38.34765625 C-7.11080831 41.63220421 -11.99449182 41.84741345 -18 41.14453125 C-19.91796875 40.66015625 -19.91796875 40.66015625 -21.91796875 38.66015625 C-23.10326172 38.47839844 -23.10326172 38.47839844 -24.3125 38.29296875 C-29.1458265 37.11905737 -31.36772891 32.67891466 -33.91796875 28.66015625 C-36.60799914 22.49550326 -36.45424827 16.04074756 -34.234375 9.7109375 C-31.11650699 3.54448744 -25.74759675 -1.10509699 -19.48046875 -3.83984375 C-12.18372718 -4.86394783 -6.35568188 -3.81786145 0 0 Z M-23.91796875 1.66015625 C-23.91796875 2.32015625 -23.91796875 2.98015625 -23.91796875 3.66015625 C-24.53671875 3.94890625 -25.15546875 4.23765625 -25.79296875 4.53515625 C-28.22362156 5.82197244 -29.63236106 6.81248728 -30.52734375 9.46875 C-30.96328992 11.91440803 -31.12300646 14.23848975 -31.16796875 16.72265625 C-31.19375 17.57988281 -31.21953125 18.43710938 -31.24609375 19.3203125 C-30.85039515 22.14202036 -29.94921852 22.77515646 -27.91796875 24.66015625 C-28.23046875 27.34765625 -28.23046875 27.34765625 -28.91796875 29.66015625 C-27.26796875 29.33015625 -25.61796875 29.00015625 -23.91796875 28.66015625 C-23.58796875 29.65015625 -23.25796875 30.64015625 -22.91796875 31.66015625 C-22.25796875 31.66015625 -21.59796875 31.66015625 -20.91796875 31.66015625 C-20.91796875 32.32015625 -20.91796875 32.98015625 -20.91796875 33.66015625 C-16.29796875 33.66015625 -11.67796875 33.66015625 -6.91796875 33.66015625 C-6.91796875 33.00015625 -6.91796875 32.34015625 -6.91796875 31.66015625 C-6.17546875 31.45390625 -5.43296875 31.24765625 -4.66796875 31.03515625 C-1.09424986 29.2482968 0.14725621 27.09975632 2.08203125 23.66015625 C2.08203125 23.00015625 2.08203125 22.34015625 2.08203125 21.66015625 C2.74203125 21.66015625 3.40203125 21.66015625 4.08203125 21.66015625 C4.10901314 20.03524671 4.12841882 18.41020992 4.14453125 16.78515625 C4.15613281 15.88023437 4.16773438 14.9753125 4.1796875 14.04296875 C4.24452382 11.64329775 4.24452382 11.64329775 3.08203125 9.66015625 C2.42203125 9.66015625 1.76203125 9.66015625 1.08203125 9.66015625 C1.08203125 7.68015625 1.08203125 5.70015625 1.08203125 3.66015625 C0.09203125 3.99015625 -0.89796875 4.32015625 -1.91796875 4.66015625 C-2.24796875 3.34015625 -2.57796875 2.02015625 -2.91796875 0.66015625 C-9.63617878 -0.7924297 -17.79508708 -1.97620305 -23.91796875 1.66015625 Z " fill="#F1E7D7" transform="translate(232.91796875,138.33984375)"/>
<path d="M0 0 C-0.825 0.639375 -1.65 1.27875 -2.5 1.9375 C-5.83579155 6.02384465 -5.4971834 8.92872936 -5 14 C-5.78503906 13.57847656 -6.57007813 13.15695313 -7.37890625 12.72265625 C-15.3108716 8.55237113 -15.3108716 8.55237113 -24 7 C-23.6596875 8.0828125 -23.6596875 8.0828125 -23.3125 9.1875 C-23 12 -23 12 -24.125 14.75 C-26.38783272 17.46539927 -27.60870451 17.48852593 -31 18 C-31.26554687 16.90300781 -31.53109375 15.80601562 -31.8046875 14.67578125 C-32.16126815 13.22130753 -32.5180496 11.76688302 -32.875 10.3125 C-33.04902344 9.59126953 -33.22304688 8.87003906 -33.40234375 8.12695312 C-34.16399452 5.03803613 -34.94897942 2.12755146 -36.1328125 -0.83203125 C-37 -3 -37 -3 -37 -6 C-24.58209193 -11.09452639 -11.17347426 -6.25714558 0 0 Z " fill="#989594" transform="translate(325,178)"/>
<path d="M0 0 C2.625 0.1875 2.625 0.1875 5.625 2.1875 C6.3125 5.8125 6.3125 5.8125 6.625 9.1875 C7.285 9.1875 7.945 9.1875 8.625 9.1875 C9.09679687 10.59902344 9.09679687 10.59902344 9.578125 12.0390625 C10.00609375 13.28429687 10.4340625 14.52953125 10.875 15.8125 C11.29265625 17.04226562 11.7103125 18.27203125 12.140625 19.5390625 C13.49801016 23.22904954 13.49801016 23.22904954 15.7421875 26.34375 C18.15513557 29.98820269 18.5547792 32.34347666 18.41796875 36.63671875 C17.0407854 41.06677159 13.72074016 43.20004519 10.10546875 45.88671875 C9.28691406 46.31597656 8.46835937 46.74523437 7.625 47.1875 C3.93697956 45.95815985 2.90143027 44.24890622 0.625 41.1875 C1.14191406 40.83558594 1.65882813 40.48367188 2.19140625 40.12109375 C4.23685366 38.5880089 5.97420278 37.14272996 7.625 35.1875 C7.79903962 30.22737073 6.26872124 27.25476344 3.625 23.1875 C2.60970459 20.86078135 1.61011802 18.5271553 0.625 16.1875 C-0.179375 14.764375 -0.179375 14.764375 -1 13.3125 C-2.74287093 9.3514297 -3.33858529 5.51174681 -3.375 1.1875 C-2.375 0.1875 -2.375 0.1875 0 0 Z " fill="#857D73" transform="translate(259.375,229.8125)"/>
<path d="M0 0 C2.20449433 1.02351522 4.03843541 2.0309963 5.9375 3.5625 C8.29598047 5.20628942 10.17748429 5.60798393 13 6 C12.67 6.66 12.34 7.32 12 8 C11.8980875 9.41545142 11.81750044 10.83249071 11.75 12.25 C11.23341208 17.34208093 9.68111916 19.49009568 6 23 C3.46587628 24.85835739 1.71652108 25.04638746 -1.4375 25.5625 C-5.18570676 24.97067788 -5.65627051 24.84073519 -7.875 22.0625 C-10.40772442 17.98014813 -11.13604229 13.77119736 -11 9 C-10.67 8.34 -10.34 7.68 -10 7 C-12.64 6.67 -15.28 6.34 -18 6 C-18 5.67 -18 5.34 -18 5 C-17.20335937 4.97421875 -16.40671875 4.9484375 -15.5859375 4.921875 C-9.18240118 4.57910663 -4.92103622 4.23755897 0 0 Z " fill="#635F5B" transform="translate(182,186)"/>
<path d="M0 0 C0.73862274 0.0570813 1.47724548 0.1141626 2.23825073 0.17297363 C10.03197299 0.78550933 17.47029641 1.64865393 24.99047852 3.92480469 C28.09947231 4.86230802 31.24955135 5.45581001 34.4375 6.0625 C39.93281555 7.21718126 45.58965246 8.43737089 50.3125 11.625 C50.6425 12.615 50.9725 13.605 51.3125 14.625 C46.4465518 14.92912176 43.44165261 14.30037694 38.86425781 12.50952148 C33.90445962 10.79029561 28.77149789 9.69378766 23.66064453 8.51782227 C21.71060212 8.06783104 19.76347268 7.60527655 17.81640625 7.14257812 C-0.18328312 2.95724002 -18.1437345 1.50638301 -36.5625 0.9375 C-37.32974396 0.91343079 -38.09698792 0.88936157 -38.88748169 0.86456299 C-50.89036467 0.51092654 -62.59299 0.87671533 -74.52392578 2.36523438 C-77.69829684 2.74635949 -80.87522477 2.99943964 -84.0625 3.25 C-84.97773437 3.32476562 -85.89296875 3.39953125 -86.8359375 3.4765625 C-87.75246094 3.55003906 -87.75246094 3.55003906 -88.6875 3.625 C-88.6875 4.285 -88.6875 4.945 -88.6875 5.625 C-90.31074086 5.84662329 -91.936221 6.05189803 -93.5625 6.25 C-94.46742187 6.36601562 -95.37234375 6.48203125 -96.3046875 6.6015625 C-97.09101562 6.60929687 -97.87734375 6.61703125 -98.6875 6.625 C-99.3475 5.965 -100.0075 5.305 -100.6875 4.625 C-93.95946898 1.70897687 -87.57931296 0.74895912 -80.3125 0 C-79.15202148 -0.12407227 -77.99154297 -0.24814453 -76.79589844 -0.37597656 C-73.42785685 -0.72613337 -70.05858217 -1.05559023 -66.6875 -1.375 C-65.86926758 -1.45524414 -65.05103516 -1.53548828 -64.20800781 -1.61816406 C-42.91176833 -3.60300043 -21.26409245 -1.72593847 0 0 Z " fill="#C0B2A7" transform="translate(205.6875,253.375)"/>
<path d="M0 0 C2.97 0 5.94 0 9 0 C9.495 1.98 9.495 1.98 10 4 C-0.74799124 14.15088062 -21.18492682 23 -36 23 C-36.33 20.36 -36.66 17.72 -37 15 C-36.06542969 14.731875 -35.13085938 14.46375 -34.16796875 14.1875 C-25.21865997 11.54238979 -16.67226989 8.3345445 -8.12182617 4.59179688 C-7.35201416 4.25599609 -6.58220215 3.92019531 -5.7890625 3.57421875 C-4.76353271 3.11921997 -4.76353271 3.11921997 -3.71728516 2.6550293 C-2 2 -2 2 0 2 C0 1.34 0 0.68 0 0 Z " fill="#0F0B0C" transform="translate(114,36)"/>
<path d="M0 0 C0.99 0 1.98 0 3 0 C2.70096051 2.34247598 2.36887284 4.66804527 2 7 C1.87753906 7.79148437 1.75507813 8.58296875 1.62890625 9.3984375 C1.48324219 10.19507813 1.33757812 10.99171875 1.1875 11.8125 C1.05730469 12.56144531 0.92710937 13.31039063 0.79296875 14.08203125 C0 16 0 16 -1.82421875 17.26171875 C-4 18 -4 18 -8 18 C-8 19.98 -8 21.96 -8 24 C-8.33 24 -8.66 24 -9 24 C-9 22.35 -9 20.7 -9 19 C-9.928125 18.7525 -10.85625 18.505 -11.8125 18.25 C-15 17 -15 17 -16.9375 15.4375 C-18.6231142 11.57050272 -17.97073317 8.03113621 -17 4 C-15.61062804 1.35357722 -14.87940314 0.35176126 -12.125 -0.75 C-7.85409645 -1.25245924 -4.19373628 -0.88289185 0 0 Z " fill="#81786F" transform="translate(256,277)"/>
<path d="M0 0 C0.23460937 0.64453125 0.46921875 1.2890625 0.7109375 1.953125 C1.81161073 4.2077908 1.81161073 4.2077908 4.1640625 4.609375 C4.97617188 4.65578125 5.78828125 4.7021875 6.625 4.75 C7.85089844 4.83507813 7.85089844 4.83507813 9.1015625 4.921875 C9.72804687 4.94765625 10.35453125 4.9734375 11 5 C11 5.33 11 5.66 11 6 C8.36 6 5.72 6 3 6 C3 6.66 3 7.32 3 8 C-28.07197124 22.49306066 -28.07197124 22.49306066 -37 20 C-37.66 19.34 -38.32 18.68 -39 18 C-38.34 18 -37.68 18 -37 18 C-37 17.01 -37 16.02 -37 15 C-36.36578125 14.87625 -35.7315625 14.7525 -35.078125 14.625 C-23.5339553 12.07380228 -11.32571331 7.82299291 -1 2 C-0.67 1.34 -0.34 0.68 0 0 Z " fill="#9B9694" transform="translate(111,30)"/>
<path d="M0 0 C3.31951489 0.51227082 5.13629166 1.26407186 7.1484375 3.98046875 C8.24525036 7.36230839 8.39467095 9.75730545 7.8984375 13.29296875 C4.63415773 17.034948 3.19350782 18.11433836 -1.7265625 18.79296875 C-5.21342088 18.27639714 -6.68186266 17.80573397 -9.1015625 15.29296875 C-10.30347151 11.68724171 -10.42826565 9.08272525 -10.1015625 5.29296875 C-7.58972214 0.37394804 -5.1983568 -0.35750781 0 0 Z " fill="#151011" transform="translate(158.1015625,143.70703125)"/>
<path d="M0 0 C3.52348621 1.94916259 4.70157016 3.12336234 6 6.9375 C6 10.60292141 5.23178648 12.13056023 3 15 C-0.69744096 17.46496064 -3.71032516 17.66459751 -8 17 C-10.5 15.5625 -10.5 15.5625 -12 13 C-12.76004105 8.68518361 -12.73570183 5.25682396 -10.5 1.4375 C-7.00394903 -0.57272931 -3.87937852 -0.7543236 0 0 Z " fill="#120D0E" transform="translate(222,147)"/>
<path d="M0 0 C5.875 1.875 5.875 1.875 7 3 C8.49738124 3.0979057 9.99942892 3.12974864 11.5 3.125 C12.3146875 3.12757812 13.129375 3.13015625 13.96875 3.1328125 C15.99530377 3.2245178 15.99530377 3.2245178 17 2 C24.05882353 1.41176471 24.05882353 1.41176471 28 3.875 C30 6 30 6 30 8 C33.96 8.33 37.92 8.66 42 9 C42 10.32 42 11.64 42 13 C38.59502948 13.84591126 35.50710743 14.3077267 32 14 C29.37001673 12.38820775 27.31052032 10.62001983 25.10546875 8.46875 C23.0886532 6.72472224 23.0886532 6.72472224 20.54296875 7.23046875 C19.70378906 7.48441406 18.86460937 7.73835938 18 8 C8.59918759 9.76832002 8.59918759 9.76832002 3.9375 7.375 C1 5 1 5 0.0625 2.25 C0.041875 1.5075 0.02125 0.765 0 0 Z " fill="#9B9795" transform="translate(227,117)"/>
<path d="M0 0 C6.75 -0.125 6.75 -0.125 9 1 C10.70363822 1.22622081 12.41328701 1.40888473 14.125 1.5625 C15.03507812 1.64628906 15.94515625 1.73007812 16.8828125 1.81640625 C17.58148438 1.87699219 18.28015625 1.93757813 19 2 C19 2.33 19 2.66 19 3 C17.02 3 15.04 3 13 3 C13 4.98 13 6.96 13 9 C11 9 9 9 7 9 C7.99 10.485 7.99 10.485 9 12 C9 12.99 9 13.98 9 15 C7.33333333 15.33333333 5.66666667 15.66666667 4 16 C3.236875 16.20625 2.47375 16.4125 1.6875 16.625 C-2.04293065 17.14552521 -5.27932041 16.56756129 -9 16 C-6 14 -6 14 -2 14 C-2.66 12.02 -3.32 10.04 -4 8 C-3.34 7.34 -2.68 6.68 -2 6 C-2 5.34 -2 4.68 -2 4 C-1.01 3.34 -0.02 2.68 1 2 C0.67 1.34 0.34 0.68 0 0 Z " fill="#C1B0A3" transform="translate(211,266)"/>
<path d="M0 0 C2.12986513 3.27782633 2.15466023 5.59855227 1.75 9.4375 C1.61851562 10.82775391 1.61851562 10.82775391 1.484375 12.24609375 C0.99092913 15.05157226 0.15057055 17.40178535 -1 20 C-3.31 19.67 -5.62 19.34 -8 19 C-7.52013969 13.43109483 -6.70084819 8.32932432 -5 3 C-7.31 3.33 -9.62 3.66 -12 4 C-12.66 3.01 -13.32 2.02 -14 1 C-12 -2 -12 -2 -8.6875 -2.875 C-4.57885832 -3.01427599 -3.12823442 -2.59196566 0 0 Z " fill="#E7B73D" transform="translate(264,274)"/>
<path d="M0 0 C2.475 0.99 2.475 0.99 5 2 C4.67 3.32 4.34 4.64 4 6 C4.70769531 5.83371094 5.41539062 5.66742188 6.14453125 5.49609375 C9.99285541 4.82750665 13.68307889 5.02852094 17.57421875 5.16015625 C20.18387699 5.25544774 20.18387699 5.25544774 22 3 C24.02558903 3.24032412 26.05049137 3.48867583 28.0703125 3.7734375 C34.03485754 4.23469565 40.05250298 3.50933769 46 3 C46 5.31 46 7.62 46 10 C45.505 8.02 45.505 8.02 45 6 C44.15824219 6.20496094 43.31648438 6.40992188 42.44921875 6.62109375 C29.06697408 9.52544384 15.65425221 9.72877308 2 10 C1.855625 8.906875 1.71125 7.81375 1.5625 6.6875 C1.11711896 3.06877013 1.11711896 3.06877013 0 0 Z " fill="#DECAB6" transform="translate(193,277)"/>
<path d="M0 0 C6.09594045 -0.30062172 11.46696127 0.80675054 17.375 2.25 C18.26960938 2.45496094 19.16421875 2.65992188 20.0859375 2.87109375 C25.87574371 4.25963739 31.92155875 5.78624168 37 9 C37.495 10.485 37.495 10.485 38 12 C33.07513696 12.30780394 30.00681292 11.65128603 25.36328125 9.83081055 C20.85142474 8.24466925 16.167251 7.32618772 11.5 6.3125 C10.48679688 6.08755859 9.47359375 5.86261719 8.4296875 5.63085938 C5.95421942 5.08205277 3.47771291 4.53856376 1 4 C0.67 2.68 0.34 1.36 0 0 Z " fill="#ADA095" transform="translate(219,256)"/>
<path d="M0 0 C3.53571429 0.53571429 3.53571429 0.53571429 5 2 C5.04063832 3.66617115 5.042721 5.33388095 5 7 C5.66 7 6.32 7 7 7 C7.33 7.66 7.66 8.32 8 9 C11.02934491 9.65772428 11.02934491 9.65772428 14 10 C13.505 10.763125 13.01 11.52625 12.5 12.3125 C10.75631692 14.92363751 10.75631692 14.92363751 11 18 C9.741875 17.87625 8.48375 17.7525 7.1875 17.625 C6.47980469 17.55539063 5.77210938 17.48578125 5.04296875 17.4140625 C3 17 3 17 0 15 C-1.94173361 10.60555024 -2.36756129 6.77829677 -2 2 C-1.34 1.34 -0.68 0.68 0 0 Z " fill="#0F0A0B" transform="translate(156,173)"/>
<path d="M0 0 C1.98 0 3.96 0 6 0 C4.93861486 14.12575952 3.44268365 28.04413407 1 42 C0.67 42 0.34 42 0 42 C0.00523682 41.08710205 0.01047363 40.1742041 0.01586914 39.23364258 C0.03295631 35.83243167 0.0454722 32.43126669 0.05493164 29.0300293 C0.05994669 27.56062091 0.06676033 26.09121748 0.07543945 24.62182617 C0.08762928 22.50438205 0.09325669 20.38700417 0.09765625 18.26953125 C0.10289307 16.99698486 0.10812988 15.72443848 0.11352539 14.41333008 C0.01507655 11.45330147 -0.40282906 8.88335753 -1 6 C-0.5625 2.6875 -0.5625 2.6875 0 0 Z " fill="#0C0707" transform="translate(248,295)"/>
<path d="M0 0 C2.94956528 1.36944102 5.52468811 2.87830409 8 5 C8 5.66 8 6.32 8 7 C3.05 8.485 3.05 8.485 -2 10 C-1.67 10.66 -1.34 11.32 -1 12 C-2.98 12.33 -4.96 12.66 -7 13 C-7 12.01 -7 11.02 -7 10 C-7.99 10 -8.98 10 -10 10 C-9.62875 10.5775 -9.2575 11.155 -8.875 11.75 C-8.58625 12.4925 -8.2975 13.235 -8 14 C-8.9453125 16.140625 -8.9453125 16.140625 -10 18 C-10.19491452 16.54263913 -10.38069358 15.08405407 -10.5625 13.625 C-10.66691406 12.81289062 -10.77132812 12.00078125 -10.87890625 11.1640625 C-11 9 -11 9 -10 7 C-12.64 6.67 -15.28 6.34 -18 6 C-18 5.67 -18 5.34 -18 5 C-17.20335937 4.97421875 -16.40671875 4.9484375 -15.5859375 4.921875 C-9.18240118 4.57910663 -4.92103622 4.23755897 0 0 Z " fill="#6B6661" transform="translate(182,186)"/>
<path d="M0 0 C3 1 3 1 4.8125 3.8125 C7.29704939 7.4328434 9.2802926 8.80199108 13 11 C12.125 14.875 12.125 14.875 11 16 C7.67657654 16.64847287 5.7000271 16.46498151 2.859375 14.578125 C-3.33361223 9.3653228 -3.33361223 9.3653228 -4 5 C-3.01 4.34 -2.02 3.68 -1 3 C-0.67 2.01 -0.34 1.02 0 0 Z " fill="#DECEB9" transform="translate(191,169)"/>
<path d="M0 0 C2.00720923 0.28674418 4.0085944 0.61866701 6 1 C4.58365187 11.64703073 1.1920274 21.78280975 -2 32 C-2.33 32 -2.66 32 -3 32 C-2.85923111 28.52060949 -2.71144333 25.04154941 -2.5625 21.5625 C-2.52318359 20.58861328 -2.48386719 19.61472656 -2.44335938 18.61132812 C-1.7084517 1.7084517 -1.7084517 1.7084517 0 0 Z " fill="#070204" transform="translate(256,294)"/>
<path d="M0 0 C0.99 0 1.98 0 3 0 C1.86299135 7.73465096 -0.10711152 14.73969251 -3 22 C-3.99 22 -4.98 22 -6 22 C-6 23.32 -6 24.64 -6 26 C-6.99 26.33 -7.98 26.66 -9 27 C-7.56933303 18.8301386 -5.35862583 10.94605012 -3 3 C-2.34 3 -1.68 3 -1 3 C-0.67 2.01 -0.34 1.02 0 0 Z " fill="#161212" transform="translate(264,302)"/>
<path d="M0 0 C2.20318259 4.40636518 2.1746907 6.33754703 1.9765625 11.171875 C1.95153656 11.8542926 1.92651062 12.53671021 1.90072632 13.23980713 C1.81882947 15.41039983 1.72212647 17.58004073 1.625 19.75 C1.56672921 21.22522207 1.50942661 22.70048272 1.453125 24.17578125 C1.31329779 27.78436892 1.16018957 31.39225236 1 35 C1.99 35 2.98 35 4 35 C4.19456705 36.95764383 4.38044247 38.91615321 4.5625 40.875 C4.66691406 41.96554687 4.77132812 43.05609375 4.87890625 44.1796875 C5 47 5 47 4 49 C2.35 48.67 0.7 48.34 -1 48 C-0.67 32.16 -0.34 16.32 0 0 Z " fill="#2B2523" transform="translate(247,302)"/>
<path d="M0 0 C0.99 0 1.98 0 3 0 C3.33 1.32 3.66 2.64 4 4 C5.32 4 6.64 4 8 4 C6.35 8.95 4.7 13.9 3 19 C2 15 2 15 3 13 C-0.0745356 13.7763932 -0.0745356 13.7763932 -2 16 C-2 12.7 -2 9.4 -2 6 C-2.99 5.67 -3.98 5.34 -5 5 C-3.68 5 -2.36 5 -1 5 C-0.67 3.35 -0.34 1.7 0 0 Z " fill="#181314" transform="translate(264,289)"/>
<path d="M0 0 C5.62898199 0.49377035 10.01825162 1.26492246 15 4 C16.6875 6.4375 16.6875 6.4375 18 9 C19.0209375 9.99 19.0209375 9.99 20.0625 11 C23.42267217 14.46856482 24.1083887 17.60319631 24.125 22.3125 C24.08375 23.529375 24.0425 24.74625 24 26 C25.65 26.33 27.3 26.66 29 27 C29.33 28.65 29.66 30.3 30 32 C29.01 32.495 29.01 32.495 28 33 C27.9175 32.38125 27.835 31.7625 27.75 31.125 C27.5025 30.42375 27.255 29.7225 27 29 C26.36578125 28.76796875 25.7315625 28.5359375 25.078125 28.296875 C21.86131184 26.2893901 21.8385694 23.72635607 21 20.125 C19.82280984 15.09040994 18.85474517 12.45320921 15 9 C15 8.34 15 7.68 15 7 C13.948125 6.5978125 13.948125 6.5978125 12.875 6.1875 C9.83261204 4.93086149 6.9310067 3.49668427 4 2 C3.21625 1.608125 2.4325 1.21625 1.625 0.8125 C1.08875 0.544375 0.5525 0.27625 0 0 Z " fill="#E5C781" transform="translate(225,129)"/>
<path d="M0 0 C1.2684375 0.433125 1.2684375 0.433125 2.5625 0.875 C6.02361041 2.00772704 9.49372557 3.01824316 13 4 C13 4.99 13 5.98 13 7 C14.65 7 16.3 7 18 7 C18 7.33 18 7.66 18 8 C8.51026884 9.75665044 8.51026884 9.75665044 3.9375 7.375 C1 5 1 5 0.0625 2.25 C0.041875 1.5075 0.02125 0.765 0 0 Z " fill="#9E9997" transform="translate(227,117)"/>
<path d="M0 0 C0.99 0 1.98 0 3 0 C3.23889655 9.59567793 2.78831859 18.53149174 1 28 C0.67 28 0.34 28 0 28 C0 18.76 0 9.52 0 0 Z " fill="#050102" transform="translate(248,309)"/>
<path d="M0 0 C0.33 1.32 0.66 2.64 1 4 C-0.32 3.67 -1.64 3.34 -3 3 C-3 3.99 -3 4.98 -3 6 C-9.4 7.35384615 -9.4 7.35384615 -12.4375 5.5625 C-12.953125 5.046875 -13.46875 4.53125 -14 4 C-13.34 4 -12.68 4 -12 4 C-12 3.01 -12 2.02 -12 1 C-7.93631321 0.22596442 -4.13574827 -0.0984702 0 0 Z " fill="#A7A2A0" transform="translate(86,44)"/>
<path d="M0 0 C7.92 0 15.84 0 24 0 C24 0.66 24 1.32 24 2 C22.68 2.33 21.36 2.66 20 3 C20 3.66 20 4.32 20 5 C19.13375 5.185625 19.13375 5.185625 18.25 5.375 C15.97664233 6.00648824 14.0746471 6.88858191 12 8 C12.66 6.35 13.32 4.7 14 3 C13.07316406 2.95101562 12.14632812 2.90203125 11.19140625 2.8515625 C9.99386719 2.77679688 8.79632813 2.70203125 7.5625 2.625 C6.36753906 2.55539063 5.17257813 2.48578125 3.94140625 2.4140625 C2.97074219 2.27742187 2.00007812 2.14078125 1 2 C0.67 1.34 0.34 0.68 0 0 Z " fill="#E2C9A0" transform="translate(212,184)"/>
<path d="M0 0 C0.66 0.33 1.32 0.66 2 1 C0.86583107 4.4025068 -0.01364151 5.08446162 -2.8125 7.1875 C-3.49957031 7.71730469 -4.18664062 8.24710937 -4.89453125 8.79296875 C-7 10 -7 10 -11 10 C-11 8.68 -11 7.36 -11 6 C-9.21385682 4.96953278 -7.42089982 3.95086764 -5.625 2.9375 C-4.62726563 2.36902344 -3.62953125 1.80054688 -2.6015625 1.21484375 C-1.74304688 0.81394531 -0.88453125 0.41304688 0 0 Z " fill="#F1E8D4" transform="translate(266,262)"/>
<path d="M0 0 C2.62187494 1.04874998 3.79371361 1.64931313 5.25 4.125 C5.4975 4.74375 5.745 5.3625 6 6 C3.5595659 7.53656962 2.29255898 8.02089707 -0.625 7.8125 C-3 7 -3 7 -5 4 C-3.35 2.68 -1.7 1.36 0 0 Z " fill="#D3C6B9" transform="translate(182,186)"/>
<path d="M0 0 C0 0.66 0 1.32 0 2 C-0.66 2 -1.32 2 -2 2 C-1.67 3.32 -1.34 4.64 -1 6 C-1.66 5.67 -2.32 5.34 -3 5 C-3.99 6.32 -4.98 7.64 -6 9 C-8.475 8.01 -8.475 8.01 -11 7 C-10.34 6.01 -9.68 5.02 -9 4 C-9 3.34 -9 2.68 -9 2 C-5.62902617 0.50178941 -3.79557881 0 0 0 Z " fill="#C9B7A7" transform="translate(218,268)"/>
<path d="M0 0 C0 0.66 0 1.32 0 2 C-5.12919186 4.10428384 -9.5610835 4.21755666 -15 4 C-15.33 3.34 -15.66 2.68 -16 2 C-15.01 2 -14.02 2 -13 2 C-13 1.34 -13 0.68 -13 0 C-8.38926889 -1.29676812 -4.66159911 -0.71109139 0 0 Z " fill="#D9C9BA" transform="translate(249,117)"/>
<path d="M0 0 C2.60444348 -0.05394705 5.20776998 -0.09364469 7.8125 -0.125 C8.55048828 -0.14175781 9.28847656 -0.15851563 10.04882812 -0.17578125 C13.91246426 -0.21074628 15.70903668 -0.19397555 19 2 C22.12521833 2.16699232 22.12521833 2.16699232 25 2 C25 2.99 25 3.98 25 5 C16.55467195 4.24595285 8.31258777 2.62171958 0 1 C0 0.67 0 0.34 0 0 Z " fill="#F1E1CF" transform="translate(225,96)"/>
<path d="M0 0 C0.93423645 3.01031744 1.04449911 3.86650268 0 7 C-0.0677819 9.77482159 0.00209735 12.53384692 0.0625 15.30859375 C0.00545866 17.76493656 -0.39986023 19.64131113 -1 22 C-1.06624507 23.74886981 -1.08552595 25.50002748 -1.0625 27.25 C-1.05347656 28.14203125 -1.04445313 29.0340625 -1.03515625 29.953125 C-1.02355469 30.62859375 -1.01195313 31.3040625 -1 32 C-1.33 32 -1.66 32 -2 32 C-4.18972019 21.5988291 -3.35634558 10.06903675 0 0 Z " fill="#F1E9DC" transform="translate(70,180)"/>
<path d="M0 0 C0.33 0 0.66 0 1 0 C2.21644396 5.52929075 1.88547387 8.15652601 -1 13 C-1.515625 14.03125 -2.03125 15.0625 -2.5625 16.125 C-4.28125 19.5625 -4.28125 19.5625 -6 23 C-6.66 23 -7.32 23 -8 23 C-6.80508263 18.98073248 -5.22299403 15.28256394 -3.4375 11.5 C-1.65296014 7.652742 -0.3467404 4.27646496 0 0 Z " fill="#ECE3D7" transform="translate(98,121)"/>
<path d="M0 0 C2.5 1.3125 2.5 1.3125 5 3 C5 3.99 5 4.98 5 6 C3.33333333 6.33333333 1.66666667 6.66666667 0 7 C-1.3303125 7.3403125 -1.3303125 7.3403125 -2.6875 7.6875 C-3.8321875 7.8421875 -3.8321875 7.8421875 -5 8 C-5.66 7.34 -6.32 6.68 -7 6 C-3.375 3 -3.375 3 0 3 C0 2.01 0 1.02 0 0 Z " fill="#CBB8A7" transform="translate(215,275)"/>
<path d="M0 0 C1.2065625 0.0309375 1.2065625 0.0309375 2.4375 0.0625 C2.1075 2.3725 1.7775 4.6825 1.4375 7.0625 C-0.2125 6.7325 -1.8625 6.4025 -3.5625 6.0625 C-3.605221 4.39638095 -3.60313832 2.72867115 -3.5625 1.0625 C-2.5625 0.0625 -2.5625 0.0625 0 0 Z " fill="#E4BD5A" transform="translate(249.5625,343.9375)"/>
<path d="M0 0 C0.99 0.495 0.99 0.495 2 1 C2 1.66 2 2.32 2 3 C2.66 3 3.32 3 4 3 C4 5.64 4 8.28 4 11 C5.65 11.33 7.3 11.66 9 12 C9.33 13.65 9.66 15.3 10 17 C9.34 17.33 8.68 17.66 8 18 C7.87625 17.071875 7.87625 17.071875 7.75 16.125 C7.37875 15.073125 7.37875 15.073125 7 14 C6.360625 13.7525 5.72125 13.505 5.0625 13.25 C3 12 3 12 1.953125 9.1796875 C1.72109375 8.08914062 1.4890625 6.99859375 1.25 5.875 C1.00765625 4.77929688 0.7653125 3.68359375 0.515625 2.5546875 C0.34546875 1.71164063 0.1753125 0.86859375 0 0 Z " fill="#E6C472" transform="translate(245,144)"/>
<path d="M0 0 C1.65 0 3.3 0 5 0 C5 2.31 5 4.62 5 7 C3.35 6.67 1.7 6.34 0 6 C0 4.02 0 2.04 0 0 Z " fill="#6A6663" transform="translate(246,337)"/>
<path d="M0 0 C0.99 0 1.98 0 3 0 C2.4140625 6.15234375 2.4140625 6.15234375 2 8 C1.01 8.495 1.01 8.495 0 9 C-0.33 8.34 -0.66 7.68 -1 7 C-1.66 7.66 -2.32 8.32 -3 9 C-3 7.02 -3 5.04 -3 3 C-2.34 3 -1.68 3 -1 3 C-0.67 2.01 -0.34 1.02 0 0 Z " fill="#0A0607" transform="translate(264,302)"/>
<path d="M0 0 C1.65 0.33 3.3 0.66 5 1 C5.33 2.65 5.66 4.3 6 6 C5.67 5.34 5.34 4.68 5 4 C4.38511719 4.01160156 3.77023437 4.02320312 3.13671875 4.03515625 C2.32847656 4.04417969 1.52023437 4.05320312 0.6875 4.0625 C-0.51326172 4.07990234 -0.51326172 4.07990234 -1.73828125 4.09765625 C-4 4 -4 4 -7 3 C-7 2.34 -7 1.68 -7 1 C-5.02 1.66 -3.04 2.32 -1 3 C-0.67 2.01 -0.34 1.02 0 0 Z " fill="#D3C3B5" transform="translate(264,122)"/>
<path d="M0 0 C1.98 0 3.96 0 6 0 C6 0.99 6 1.98 6 3 C7.65 3 9.3 3 11 3 C11 3.33 11 3.66 11 4 C9.41870971 4.22331199 7.83478911 4.42804644 6.25 4.625 C4.92742187 4.79902344 4.92742187 4.79902344 3.578125 4.9765625 C0.77140122 5.00207817 -0.63384866 4.44843844 -3 3 C-1 2 -1 2 2 2 C1.34 1.34 0.68 0.68 0 0 Z " fill="#AAA39F" transform="translate(234,121)"/>
<path d="M0 0 C-0.99 0.33 -1.98 0.66 -3 1 C-2.01 1.66 -1.02 2.32 0 3 C-1.62324086 3.22162329 -3.248721 3.42689803 -4.875 3.625 C-6.23238281 3.79902344 -6.23238281 3.79902344 -7.6171875 3.9765625 C-8.40351562 3.98429687 -9.18984375 3.99203125 -10 4 C-10.66 3.34 -11.32 2.68 -12 2 C-10.75579353 1.4654744 -9.50429064 0.94791389 -8.25 0.4375 C-7.55390625 0.14746094 -6.8578125 -0.14257812 -6.140625 -0.44140625 C-3.69987216 -1.07831803 -2.3596345 -0.80248831 0 0 Z " fill="#CEBDAE" transform="translate(117,256)"/>
<path d="M0 0 C1.42892578 0.10054687 1.42892578 0.10054687 2.88671875 0.203125 C5.3125 0.75 5.3125 0.75 7.3125 3.75 C6.47460938 3.58628906 5.63671875 3.42257813 4.7734375 3.25390625 C1.10732693 2.72012717 -2.35989385 2.65256975 -6.0625 2.6875 C-7.30773437 2.69652344 -8.55296875 2.70554688 -9.8359375 2.71484375 C-10.77695313 2.72644531 -11.71796875 2.73804688 -12.6875 2.75 C-9.10830246 -0.82919754 -4.81583461 -0.39420201 0 0 Z " fill="#F0E9DE" transform="translate(222.6875,136.25)"/>
<path d="M0 0 C0.99 0 1.98 0 3 0 C3.33 1.32 3.66 2.64 4 4 C5.32 4 6.64 4 8 4 C7.34 5.32 6.68 6.64 6 8 C5.67 7.34 5.34 6.68 5 6 C3.68 6 2.36 6 1 6 C1 5.34 1 4.68 1 4 C0.34 4 -0.32 4 -1 4 C-0.67 2.68 -0.34 1.36 0 0 Z " fill="#403A38" transform="translate(264,289)"/>
<path d="M0 0 C-0.99 0.495 -0.99 0.495 -2 1 C-2.33 1.99 -2.66 2.98 -3 4 C-3.99 3.34 -4.98 2.68 -6 2 C-6 2.66 -6 3.32 -6 4 C-8.475 3.01 -8.475 3.01 -11 2 C-10.67 1.34 -10.34 0.68 -10 0 C-6.35526801 -0.89093449 -3.57257469 -1.23666047 0 0 Z " fill="#D5C5B7" transform="translate(269,131)"/>
<path d="M0 0 C0.66 0 1.32 0 2 0 C1.54803755 1.60597325 1.08817673 3.20972508 0.625 4.8125 C0.36976563 5.70582031 0.11453125 6.59914063 -0.1484375 7.51953125 C-1 10 -1 10 -3 13 C-3.33 10.69 -3.66 8.38 -4 6 C-2.68 5.34 -1.36 4.68 0 4 C0 2.68 0 1.36 0 0 Z " fill="#332F2D" transform="translate(258,324)"/>
<path d="M0 0 C0.928125 0.0825 1.85625 0.165 2.8125 0.25 C2.8125 0.58 2.8125 0.91 2.8125 1.25 C1.884375 1.45625 0.95625 1.6625 0 1.875 C-4.06465032 3.62837857 -4.35384817 5.34352437 -6.1875 9.25 C-8.875 11.125 -8.875 11.125 -11.1875 12.25 C-10.8575 11.26 -10.5275 10.27 -10.1875 9.25 C-9.5275 9.25 -8.8675 9.25 -8.1875 9.25 C-7.919375 8.5075 -7.65125 7.765 -7.375 7 C-4.50484317 0.35332103 -4.50484317 0.35332103 0 0 Z " fill="#ABA49F" transform="translate(287.1875,241.75)"/>
<path d="M0 0 C0.78375 0.474375 1.5675 0.94875 2.375 1.4375 C3.88948678 2.33898023 5.4235897 3.21179485 7 4 C7 4.66 7 5.32 7 6 C7.99 6.33 8.98 6.66 10 7 C7.69 7 5.38 7 3 7 C2.67 6.01 2.34 5.02 2 4 C1.34 4 0.68 4 0 4 C0 2.68 0 1.36 0 0 Z " fill="#CBC0B5" transform="translate(161,176)"/>
<path d="M0 0 C0.66 0.33 1.32 0.66 2 1 C1.525625 2.19625 1.05125 3.3925 0.5625 4.625 C-0.73482773 8.06414238 -1.54236951 11.33895604 -2 15 C-2.33 15 -2.66 15 -3 15 C-3 10.71 -3 6.42 -3 2 C-2.34 2 -1.68 2 -1 2 C-0.67 1.34 -0.34 0.68 0 0 Z " fill="#F0E5D8" transform="translate(143,141)"/>
<path d="M0 0 C2.31 0 4.62 0 7 0 C7 0.66 7 1.32 7 2 C3.86501708 3.85776765 1.62528568 4.20140476 -2 4 C-1.34 2.68 -0.68 1.36 0 0 Z " fill="#A7A19F" transform="translate(219,116)"/>
<path d="M0 0 C1.5 1.375 1.5 1.375 3 3 C3 3.66 3 4.32 3 5 C-0.63 5 -4.26 5 -8 5 C-8 4.67 -8 4.34 -8 4 C-6.35 4 -4.7 4 -3 4 C-3 3.34 -3 2.68 -3 2 C-2.01 1.34 -1.02 0.68 0 0 Z " fill="#EBDECF" transform="translate(141,278)"/>
<path d="M0 0 C0.66 0.33 1.32 0.66 2 1 C0.85981998 4.42054006 0.07541482 5.2426201 -3 7 C-5.25 6.6875 -5.25 6.6875 -7 6 C-6.360625 5.731875 -5.72125 5.46375 -5.0625 5.1875 C-2.66868314 4.11332248 -2.66868314 4.11332248 -2 1 C-1.34 0.67 -0.68 0.34 0 0 Z " fill="#F5F4EA" transform="translate(266,262)"/>
<path d="M0 0 C3.3 0 6.6 0 10 0 C6.89448334 3.10551666 5.10801767 3.81323934 1 5 C0.67 3.35 0.34 1.7 0 0 Z " fill="#C7BCB0" transform="translate(193,193)"/>
<path d="M0 0 C2.125 0.375 2.125 0.375 4 1 C4 1.99 4 2.98 4 4 C3.01 4 2.02 4 1 4 C0.34 5.65 -0.32 7.3 -1 9 C-1.33 9 -1.66 9 -2 9 C-2.125 5.625 -2.125 5.625 -2 2 C-1.34 1.34 -0.68 0.68 0 0 Z " fill="#4A4340" transform="translate(156,173)"/>
<path d="M0 0 C1.98 0 3.96 0 6 0 C6.99 2.31 7.98 4.62 9 7 C5.18315774 5.44499019 2.80804268 2.96404505 0 0 Z " fill="#EBE2D5" transform="translate(89,249)"/>
<path d="M0 0 C1.32 0.33 2.64 0.66 4 1 C3.34 3.31 2.68 5.62 2 8 C1.34 8 0.68 8 0 8 C0 5.36 0 2.72 0 0 Z " fill="#332F2E" transform="translate(251,336)"/>
<path d="M0 0 C-0.33 0.66 -0.66 1.32 -1 2 C-3.0625 2.625 -3.0625 2.625 -5 3 C-5 2.34 -5 1.68 -5 1 C-5.99 1 -6.98 1 -8 1 C-8 1.66 -8 2.32 -8 3 C-8.66 2.67 -9.32 2.34 -10 2 C-9.67 1.34 -9.34 0.68 -9 0 C-5.65506316 -0.99444068 -3.31044803 -1.10348268 0 0 Z " fill="#DCCBBA" transform="translate(244,126)"/>
<path d="M0 0 C2.475 0.99 2.475 0.99 5 2 C4.67 3.32 4.34 4.64 4 6 C4.99 6.66 5.98 7.32 7 8 C5.35 8 3.7 8 2 8 C1.34 5.36 0.68 2.72 0 0 Z " fill="#D0BEAF" transform="translate(193,277)"/>
<path d="M0 0 C0.66 0 1.32 0 2 0 C1.39301257 4.12751449 -0.03810791 7.3321148 -2 11 C-2.66 9.68 -3.32 8.36 -4 7 C-3.01 6.67 -2.02 6.34 -1 6 C-0.67 4.02 -0.34 2.04 0 0 Z " fill="#B8B0AB" transform="translate(337,234)"/>
<path d="M0 0 C0.66 0.33 1.32 0.66 2 1 C0.71937515 2.7074998 -0.61767557 4.37373596 -2 6 C-4 6 -4 6 -5.625 4.5 C-6.07875 4.005 -6.5325 3.51 -7 3 C-6.67 2.34 -6.34 1.68 -6 1 C-5.38125 1.20625 -4.7625 1.4125 -4.125 1.625 C-3.073125 1.810625 -3.073125 1.810625 -2 2 C-1.34 1.34 -0.68 0.68 0 0 Z " fill="#D3C1B2" transform="translate(278,248)"/>
<path d="M0 0 C1.32 0.33 2.64 0.66 4 1 C3.34 3.31 2.68 5.62 2 8 C-0.1519437 4.77208445 -0.20086443 3.71599191 0 0 Z " fill="#EAE0D3" transform="translate(69,212)"/>
<path d="M0 0 C2.97 0.495 2.97 0.495 6 1 C0.85714286 5.42857143 0.85714286 5.42857143 -3 6 C-2.01 4.02 -1.02 2.04 0 0 Z " fill="#D4C5B5" transform="translate(211,185)"/>
<path d="M0 0 C0.33 0 0.66 0 1 0 C1 1.65 1 3.3 1 5 C1.99 5 2.98 5 4 5 C4 5.66 4 6.32 4 7 C2.35 6.67 0.7 6.34 -1 6 C-1.042721 4.33388095 -1.04063832 2.66617115 -1 1 C-0.67 0.67 -0.34 0.34 0 0 Z " fill="#EFD79A" transform="translate(247,344)"/>
<path d="M0 0 C0.66 0.66 1.32 1.32 2 2 C-1.13498292 3.85776765 -3.37471432 4.20140476 -7 4 C-7 3.34 -7 2.68 -7 2 C-4.69 1.34 -2.38 0.68 0 0 Z " fill="#EADBCC" transform="translate(166,167)"/>
<path d="M0 0 C1.32 0 2.64 0 4 0 C4 0.66 4 1.32 4 2 C3.34 2 2.68 2 2 2 C2.33 3.32 2.66 4.64 3 6 C1.68 5.01 0.36 4.02 -1 3 C-0.67 2.01 -0.34 1.02 0 0 Z " fill="#DAC4AF" transform="translate(214,268)"/>
<path d="M0 0 C1.0326802 2.78823655 1.04509293 3.8677274 0.0625 6.75 C-0.288125 7.4925 -0.63875 8.235 -1 9 C-1.66 8.34 -2.32 7.68 -3 7 C-3 5.68 -3 4.36 -3 3 C-2.01 3 -1.02 3 0 3 C0 2.01 0 1.02 0 0 Z " fill="#ADA6A2" transform="translate(341,225)"/>
<path d="M0 0 C-5.75 4 -5.75 4 -8 4 C-8 3.34 -8 2.68 -8 2 C-7.34 2 -6.68 2 -6 2 C-6 1.34 -6 0.68 -6 0 C-3.50907189 -1.24546405 -2.58919267 -0.7767578 0 0 Z " fill="#1C1718" transform="translate(184,186)"/>
<path d="M0 0 C0 0.99 0 1.98 0 3 C-0.99 3.33 -1.98 3.66 -3 4 C-4.66710346 5.49985609 -4.66710346 5.49985609 -6 7 C-5.8125 4.625 -5.8125 4.625 -5 2 C-2.4375 0.6875 -2.4375 0.6875 0 0 Z " fill="#DDC6A8" transform="translate(253,162)"/>
<path d="M0 0 C0.33 0.99 0.66 1.98 1 3 C0.01 4.485 0.01 4.485 -1 6 C-1.38499891 7.65549531 -1.72793135 9.3222433 -2 11 C-2.33 11 -2.66 11 -3 11 C-3.36923077 4.6 -3.36923077 4.6 -1.5 1.5625 C-1.005 1.046875 -0.51 0.53125 0 0 Z " fill="#454241" transform="translate(151,145)"/>
<path d="M0 0 C-3.08888522 2.05925681 -3.70935927 2.2390374 -7.1875 2.125 C-9.0746875 2.063125 -9.0746875 2.063125 -11 2 C-6.80312837 -0.79791442 -4.79748656 -1.16695619 0 0 Z " fill="#DACEC1" transform="translate(227,120)"/>
<path d="M0 0 C-4.1795645 2.78637633 -6.14668677 1.79562512 -11 1 C-11 0.67 -11 0.34 -11 0 C-3.57142857 -1.28571429 -3.57142857 -1.28571429 0 0 Z " fill="#D9CCC0" transform="translate(117,117)"/>
<path d="M0 0 C0.66 0.33 1.32 0.66 2 1 C2.59355614 3.64860427 2.74209269 6.29197322 3 9 C0.9375 7.3125 0.9375 7.3125 -1 5 C-0.75 2.25 -0.75 2.25 0 0 Z " fill="#5F5B56" transform="translate(75,50)"/>
</svg>
