<?xml version="1.0" encoding="UTF-8"?>
<svg version="1.1" xmlns="http://www.w3.org/2000/svg" width="360" height="360">
<path d="M0 0 C5.06951076 3.06599154 8.41425817 7.94859314 10.95703125 13.18359375 C11.98916748 13.17924316 13.02130371 13.17489258 14.0847168 13.17041016 C44.60995534 13.08137774 75.33912034 13.75244313 105.58203125 18.12109375 C106.67837891 18.27876221 107.77472656 18.43643066 108.90429688 18.59887695 C118.57493947 20.09213794 128.14946684 21.90692432 135.95703125 28.18359375 C137.95703125 31.18359375 137.95703125 31.18359375 138.08203125 33.93359375 C136.63541586 38.11270487 134.39072352 39.53513927 131.02734375 42.265625 C124.25011674 48.5441504 121.91673784 57.55894547 121.51953125 66.49609375 C121.58794414 73.06373104 123.48298419 77.687155 126.95703125 83.18359375 C130.27705693 82.58048503 133.33897749 81.73509481 136.51953125 80.62109375 C148.22456466 77.11131268 162.1891275 78.82174419 172.95703125 84.55859375 C174.30802094 85.40607805 175.64364069 86.27893469 176.95703125 87.18359375 C178.50390625 88.23546875 178.50390625 88.23546875 180.08203125 89.30859375 C186.71686136 95.1856856 190.78099404 103.73052611 192.95703125 112.18359375 C193.14007813 112.76238281 193.323125 113.34117187 193.51171875 113.9375 C196.51650776 129.09323404 192.78123049 144.50139551 184.58203125 157.3359375 C177.22131233 167.75695531 167.44294609 174.5630931 154.95703125 177.18359375 C150.86536351 177.58699761 146.99474293 177.34871476 142.9375 176.703125 C137.13078481 175.64235871 137.13078481 175.64235871 131.859375 177.60546875 C128.85352536 180.95503021 128.85352536 180.95503021 127.95703125 185.18359375 C128.80265625 185.96734375 129.64828125 186.75109375 130.51953125 187.55859375 C132.95703125 190.18359375 132.95703125 190.18359375 132.95703125 192.37109375 C131.95703125 194.18359375 131.95703125 194.18359375 128.95703125 196.18359375 C126.4765625 196.59765625 126.4765625 196.59765625 123.76953125 196.80859375 C122.41794922 196.92074219 122.41794922 196.92074219 121.0390625 197.03515625 C120.35199219 197.08414063 119.66492188 197.133125 118.95703125 197.18359375 C119.18390625 198.07046875 119.41078125 198.95734375 119.64453125 199.87109375 C120.14293121 203.44237205 119.60193777 206.25602532 118.73046875 209.7421875 C117.38629126 215.31773102 116.15019461 220.90398743 114.984375 226.51953125 C114.81421371 227.3351503 114.64405243 228.15076935 114.46873474 228.99110413 C113.76389216 232.37168796 113.06142699 235.7527585 112.36108398 239.13427734 C111.84192638 241.63816849 111.31958573 244.14137981 110.796875 246.64453125 C110.6416185 247.39882416 110.486362 248.15311707 110.32640076 248.93026733 C109.38773386 253.41530613 108.26721131 257.79223162 106.95703125 262.18359375 C105.63703125 262.18359375 104.31703125 262.18359375 102.95703125 262.18359375 C101.60257684 259.47468494 101.70694899 257.16571071 101.546875 254.13671875 C101.03997133 246.40174429 100.02838775 238.7975935 98.85522461 231.13818359 C98.51374642 228.89560317 98.18726139 226.65113663 97.86132812 224.40625 C97.64542194 222.97252184 97.42865854 221.53892244 97.2109375 220.10546875 C96.92198608 218.18105957 96.92198608 218.18105957 96.62719727 216.21777344 C96.22156138 213.08948341 96.22156138 213.08948341 93.95703125 211.18359375 C93.29703125 211.51359375 92.63703125 211.84359375 91.95703125 212.18359375 C90.36968067 212.39332283 88.7754006 212.55180659 87.1796875 212.68359375 C86.19935547 212.76561035 85.21902344 212.84762695 84.20898438 212.93212891 C83.15646484 213.0151123 82.10394531 213.0980957 81.01953125 213.18359375 C79.41561523 213.31386963 79.41561523 213.31386963 77.77929688 213.44677734 C68.18004796 214.20678918 58.57610032 214.75255056 48.95703125 215.18359375 C49.02921875 216.0859375 49.10140625 216.98828125 49.17578125 217.91796875 C49.88376634 227.67354971 50.06710282 237.40298178 50.08203125 247.18359375 C50.08879883 249.07223145 50.08879883 249.07223145 50.09570312 250.99902344 C50.09376953 252.17368164 50.09183594 253.34833984 50.08984375 254.55859375 C50.08871582 255.61820312 50.08758789 256.6778125 50.08642578 257.76953125 C49.95703125 260.18359375 49.95703125 260.18359375 48.95703125 261.18359375 C46.13286743 261.31022466 43.34408332 261.36879923 40.51953125 261.37109375 C39.72998047 261.38333984 38.94042969 261.39558594 38.12695312 261.40820312 C36.0689569 261.41346654 34.01141116 261.3056566 31.95703125 261.18359375 C31.29703125 260.52359375 30.63703125 259.86359375 29.95703125 259.18359375 C30.28703125 257.53359375 30.61703125 255.88359375 30.95703125 254.18359375 C34.58703125 253.85359375 38.21703125 253.52359375 41.95703125 253.18359375 C41.83893904 248.09309793 41.71470212 243.0028037 41.5847168 237.91259766 C41.54135045 236.18021749 41.49967662 234.44779412 41.4597168 232.71533203 C41.40205531 230.22805748 41.33834927 227.74100082 41.2734375 225.25390625 C41.25672501 224.47677277 41.24001251 223.69963928 41.22279358 222.8989563 C41.19229696 218.91085159 41.19229696 218.91085159 39.95703125 215.18359375 C34.01703125 215.18359375 28.07703125 215.18359375 21.95703125 215.18359375 C22.12203125 217.78234375 22.28703125 220.38109375 22.45703125 223.05859375 C22.92002579 231.45074805 23.12786822 239.84200693 23.20703125 248.24609375 C23.23893555 249.96771729 23.23893555 249.96771729 23.27148438 251.72412109 C23.27599609 252.79484863 23.28050781 253.86557617 23.28515625 254.96875 C23.29450195 255.926604 23.30384766 256.88445801 23.31347656 257.87133789 C23.13703613 259.01590454 23.13703613 259.01590454 22.95703125 260.18359375 C19.14598048 262.72429426 16.27138432 262.33722631 11.89453125 262.05859375 C10.7952832 262.02378906 10.7952832 262.02378906 9.67382812 261.98828125 C7.546875 261.86328125 7.546875 261.86328125 3.95703125 261.18359375 C2.4609375 259.12890625 2.4609375 259.12890625 1.95703125 257.18359375 C3.95703125 254.18359375 3.95703125 254.18359375 6.33984375 253.671875 C7.69722656 253.58486328 7.69722656 253.58486328 9.08203125 253.49609375 C9.99210937 253.43035156 10.9021875 253.36460937 11.83984375 253.296875 C12.88785156 253.24080078 12.88785156 253.24080078 13.95703125 253.18359375 C14.1318952 234.1602151 14.1318952 234.1602151 12.95703125 215.18359375 C9.48661471 214.42165182 6.14302181 213.99523934 2.59765625 213.7890625 C-31.00208055 211.61929397 -31.00208055 211.61929397 -42.04296875 204.18359375 C-44.13919722 200.77722249 -44.09524573 198.09783299 -44.04296875 194.18359375 C-45.40228516 193.4565625 -45.40228516 193.4565625 -46.7890625 192.71484375 C-61.75193913 184.5592629 -72.67013228 174.45665446 -78.48046875 158.05859375 C-83.55996166 140.50071187 -84.01084111 123.24917459 -75.78515625 106.64453125 C-75.41648437 105.97679687 -75.0478125 105.3090625 -74.66796875 104.62109375 C-72.67553911 100.40633874 -73.06613036 98.69016185 -74.04296875 94.18359375 C-75.4411968 90.77874503 -75.4411968 90.77874503 -77.28125 87.40234375 C-77.60328903 86.78516479 -77.92532806 86.16798584 -78.25712585 85.53210449 C-79.28025322 83.57734581 -80.31766554 81.63059282 -81.35546875 79.68359375 C-82.04063953 78.37808974 -82.72489232 77.0721035 -83.40820312 75.765625 C-85.94057526 70.94176853 -88.4816418 66.13201607 -91.23120117 61.42773438 C-93.95361699 56.55299224 -93.95361699 56.55299224 -93.04296875 53.18359375 C-87.79094708 49.08595939 -81.72410677 46.62173759 -75.66796875 43.93359375 C-74.13462891 43.24523437 -74.13462891 43.24523437 -72.5703125 42.54296875 C-70.06331619 41.41833489 -67.55420955 40.29870956 -65.04296875 39.18359375 C-65.26098145 38.64452393 -65.47899414 38.1054541 -65.70361328 37.55004883 C-65.98317871 36.83743896 -66.26274414 36.1248291 -66.55078125 35.390625 C-66.83066895 34.68655518 -67.11055664 33.98248535 -67.39892578 33.25708008 C-68.33269995 30.25080865 -68.00760725 28.14641201 -67.04296875 25.18359375 C-64.45850033 21.55593989 -60.42998985 20.80715728 -56.35546875 19.62109375 C-55.33163086 19.30881836 -55.33163086 19.30881836 -54.28710938 18.99023438 C-40.65304685 14.88327881 -40.65304685 14.88327881 -35.04296875 15.05859375 C-34.27984375 15.07664062 -33.51671875 15.0946875 -32.73046875 15.11328125 C-32.17359375 15.13648437 -31.61671875 15.1596875 -31.04296875 15.18359375 C-30.81609375 14.15234375 -30.58921875 13.12109375 -30.35546875 12.05859375 C-28.83742937 6.9468285 -26.43100473 3.51119379 -21.7734375 0.921875 C-14.32866077 -2.33735905 -7.67308496 -3.16306658 0 0 Z M-70.10546875 50.93359375 C-71.65331055 51.59875 -71.65331055 51.59875 -73.23242188 52.27734375 C-74.21275391 52.715625 -75.19308594 53.15390625 -76.203125 53.60546875 C-77.10683838 54.0034668 -78.01055176 54.40146484 -78.94165039 54.81152344 C-81.15395696 55.99950331 -81.15395696 55.99950331 -81.96508789 58.078125 C-82.06388901 60.74916214 -81.39962105 62.10400631 -80.12890625 64.44921875 C-79.69707031 65.25746094 -79.26523438 66.06570312 -78.8203125 66.8984375 C-78.35753906 67.73503906 -77.89476563 68.57164062 -77.41796875 69.43359375 C-76.75861328 70.66529297 -76.75861328 70.66529297 -76.0859375 71.921875 C-73.26721834 77.13774536 -70.24900734 82.19719158 -67.04296875 87.18359375 C-63.99851781 86.50130495 -63.99851781 86.50130495 -62.796875 84.390625 C-57.49635326 73.73744523 -53.43892019 62.2326097 -55.04296875 50.18359375 C-55.9803219 47.91969689 -55.9803219 47.91969689 -57.04296875 46.18359375 C-61.53811845 46.18359375 -66.06269271 49.1289188 -70.10546875 50.93359375 Z M144.95703125 93.18359375 C143.99632691 96.06570677 143.85121242 97.88209419 143.89453125 100.87109375 C143.90355469 101.67933594 143.91257812 102.48757812 143.921875 103.3203125 C143.93347656 103.93519531 143.94507813 104.55007812 143.95703125 105.18359375 C142.96703125 105.51359375 141.97703125 105.84359375 140.95703125 106.18359375 C141.44940971 109.46611684 142.06605164 112.56288523 142.984375 115.7578125 C144.22667661 120.68063062 144.21768003 125.44379908 144.14453125 130.49609375 C144.13808594 131.41801514 144.13164062 132.33993652 144.125 133.28979492 C144.05339951 139.63371048 143.70965488 145.88037088 142.95703125 152.18359375 C145.92703125 152.51359375 148.89703125 152.84359375 151.95703125 153.18359375 C152.28703125 155.82359375 152.61703125 158.46359375 152.95703125 161.18359375 C155.38770477 162.06599861 156.50670014 162.37966237 158.921875 161.328125 C160.94534312 159.96178316 162.9637261 158.59368737 164.95703125 157.18359375 C165.82328125 156.60609375 166.68953125 156.02859375 167.58203125 155.43359375 C174.67391701 148.71496513 179.69935496 138.87110034 180.95703125 129.18359375 C181.10659427 119.22269659 178.13442821 110.04573533 171.95703125 102.18359375 C163.59645612 94.50090309 155.96818513 92.99116582 144.95703125 93.18359375 Z " fill="#E6D3C1" transform="translate(144.04296875,88.81640625)"/>
<path d="M0 0 C31.82849924 -0.41335713 64.10337484 0.38413648 95.625 4.9375 C96.72134766 5.09516846 97.81769531 5.25283691 98.94726562 5.4152832 C108.61790822 6.90854419 118.19243559 8.72333057 126 15 C128 18 128 18 128.125 20.75 C126.67912967 24.92695872 124.43942999 26.34942473 121.07421875 29.07421875 C116.4279008 33.38803184 114.02958686 38.82247882 113 45 C112.67 44.01 112.34 43.02 112 42 C111.34773437 42.37253906 110.69546875 42.74507812 110.0234375 43.12890625 C102.81609521 47.03022575 102.81609521 47.03022575 98.625 46.875 C97.75875 46.58625 96.8925 46.2975 96 46 C90.29354778 44.31372504 83.50684313 43.74657844 78.125 46.4375 C77.42375 46.953125 76.7225 47.46875 76 48 C71.95446969 49.42140254 69.11848839 48.60958516 65.046875 47.4921875 C60.63855217 46.43217094 57.20751566 46.35599165 53.1875 48.5 C48.76700646 50.58023226 44.80512532 50.25639997 40 50 C40 49.34 40 48.68 40 48 C30.11319967 47.58589692 30.11319967 47.58589692 21 51 C16.74341661 50.78356356 14.55991776 50.37327851 11 48 C8.81813053 47.6842006 8.81813053 47.6842006 6.5 47.75 C5.7265625 47.74484375 4.953125 47.7396875 4.15625 47.734375 C1.70486156 47.87261938 1.70486156 47.87261938 -1 50 C-4.67542444 50.40838049 -6.61889711 50.19460573 -9.9375 48.5 C-13.61105186 46.70070929 -15.95112223 46.6319202 -20 47 C-20.825 47.350625 -21.65 47.70125 -22.5 48.0625 C-25.99436928 49.37288848 -28.41410774 48.86327036 -32 48 C-32.495 47.484375 -32.99 46.96875 -33.5 46.4375 C-35.03336343 44.67229003 -35.03336343 44.67229003 -38.125 44.6875 C-41.27090175 44.94120175 -43.48114463 45.4240616 -46.4375 46.3125 C-49.23599012 47.00854695 -50.50521563 47.21496915 -53.17578125 46.0546875 C-54.54166961 45.15438444 -55.88559766 44.21970012 -57.203125 43.25 C-59.3964202 41.72422942 -61.35456728 41.24800932 -64 41 C-64 42.32 -64 43.64 -64 45 C-63.34 45 -62.68 45 -62 45 C-62.59861742 47.35171131 -63.26924352 49.6859378 -64 52 C-64.99 52.495 -64.99 52.495 -66 53 C-65.96519531 51.35451172 -65.96519531 51.35451172 -65.9296875 49.67578125 C-65.91092079 48.221361 -65.89272156 46.76693336 -65.875 45.3125 C-65.85824219 44.59126953 -65.84148437 43.87003906 -65.82421875 43.12695312 C-65.78608431 38.95123219 -66.1210081 35.7505862 -68 32 C-61.20244228 28.49594923 -56.23658564 27.65710144 -48.6640625 28.8359375 C-45.71467333 29.01757144 -44.42087537 28.64707959 -42 27 C-41.67 26.34 -41.34 25.68 -41 25 C-40.08959457 25.00222061 -39.17918915 25.00444122 -38.24119568 25.00672913 C14.50770706 25.22585005 14.50770706 25.22585005 67.25 24.5625 C68.58637009 24.5330278 68.58637009 24.5330278 69.94973755 24.50296021 C75.63467917 24.37314264 81.31716636 24.20117854 87 24 C87.89614014 23.97008972 88.79228027 23.94017944 89.71557617 23.90936279 C92.51396864 23.81254206 95.31160005 23.70301478 98.109375 23.58984375 C98.95131409 23.56112686 99.79325317 23.53240997 100.66070557 23.50282288 C106.59054864 23.24154922 112.21384648 22.31072895 118 21 C118 20.34 118 19.68 118 19 C112.93946268 17.03201327 107.85280656 16.2597658 102.51171875 15.46484375 C100 15 100 15 99 14 C87.61554907 11.97015818 76.01793782 11.27894749 64.5 10.4375 C62.81637757 10.31092773 61.13278364 10.18397591 59.44921875 10.05664062 C55.38001642 9.75045428 51.31027031 9.45271848 47.24002075 9.16079712 C45.80885987 9.05806301 44.3777615 8.95445186 42.94674683 8.84970093 C33.32200155 8.14734445 23.70699476 7.72802552 14.0625 7.4375 C12.68553931 7.39411965 11.30858612 7.3505007 9.93164062 7.30664062 C6.62115913 7.2020991 3.31062386 7.09991305 0 7 C0 4.69 0 2.38 0 0 Z " fill="#E6D5C4" transform="translate(154,102)"/>
<path d="M0 0 C4.22822152 -0.34546748 6.34855939 0.47379407 9.8125 2.875 C10.60269531 3.40867187 11.39289063 3.94234375 12.20703125 4.4921875 C13.09455078 5.23855469 13.09455078 5.23855469 14 6 C14 6.66 14 7.32 14 8 C14.68191406 8.22945313 15.36382812 8.45890625 16.06640625 8.6953125 C19.73134871 10.32526028 22.72195654 12.50055133 25.9375 14.875 C27.13344575 15.7483125 28.33005444 16.6207179 29.52734375 17.4921875 C30.10452148 17.91564453 30.68169922 18.33910156 31.27636719 18.77539062 C32.94649818 19.96198794 34.6537991 21.05646073 36.38671875 22.1484375 C39 24 39 24 39.875 26.75 C39.91625 27.4925 39.9575 28.235 40 29 C36.92307254 31.6815279 34.80265337 32.42087807 30.75 32.6875 C29.41195312 32.78611328 29.41195312 32.78611328 28.046875 32.88671875 C27.03367187 32.94279297 27.03367187 32.94279297 26 33 C26.3403125 34.3303125 26.3403125 34.3303125 26.6875 35.6875 C27.18589996 39.2587783 26.64490652 42.07243157 25.7734375 45.55859375 C24.42926001 51.13413727 23.19316336 56.72039368 22.02734375 62.3359375 C21.85718246 63.15155655 21.68702118 63.9671756 21.51170349 64.80751038 C20.80686091 68.18809421 20.10439574 71.56916475 19.40405273 74.95068359 C18.88489513 77.45457474 18.36255448 79.95778606 17.83984375 82.4609375 C17.68458725 83.21523041 17.52933075 83.96952332 17.36936951 84.74667358 C16.43070261 89.23171238 15.31018006 93.60863787 14 98 C12.68 98 11.36 98 10 98 C8.64554559 95.29109119 8.74991774 92.98211696 8.58984375 89.953125 C8.08294008 82.21815054 7.0713565 74.61399975 5.89819336 66.95458984 C5.55671517 64.71200942 5.23023014 62.46754288 4.90429688 60.22265625 C4.68839069 58.78892809 4.47162729 57.35532869 4.25390625 55.921875 C3.96495483 53.99746582 3.96495483 53.99746582 3.67016602 52.03417969 C3.26453013 48.90588966 3.26453013 48.90588966 1 47 C0.01 47.495 0.01 47.495 -1 48 C-2.58735058 48.20972908 -4.18163065 48.36821284 -5.77734375 48.5 C-6.75767578 48.5820166 -7.73800781 48.6640332 -8.74804688 48.74853516 C-10.32682617 48.87301025 -10.32682617 48.87301025 -11.9375 49 C-13.00677734 49.08685059 -14.07605469 49.17370117 -15.17773438 49.26318359 C-24.77698329 50.02319543 -34.38093093 50.56895681 -44 51 C-43.89171875 52.35351562 -43.89171875 52.35351562 -43.78125 53.734375 C-43.07326491 63.48995596 -42.88992843 73.21938803 -42.875 83 C-42.87048828 84.2590918 -42.86597656 85.51818359 -42.86132812 86.81542969 C-42.86326172 87.99008789 -42.86519531 89.16474609 -42.8671875 90.375 C-42.86831543 91.43460937 -42.86944336 92.49421875 -42.87060547 93.5859375 C-43 96 -43 96 -44 97 C-46.82416382 97.12663091 -49.61294793 97.18520548 -52.4375 97.1875 C-53.22705078 97.19974609 -54.01660156 97.21199219 -54.83007812 97.22460938 C-56.88807435 97.22987279 -58.94562009 97.12206285 -61 97 C-61.66 96.34 -62.32 95.68 -63 95 C-62.67 93.35 -62.34 91.7 -62 90 C-58.37 89.67 -54.74 89.34 -51 89 C-51.11809221 83.90950418 -51.24232913 78.81920995 -51.37231445 73.72900391 C-51.4156808 71.99662374 -51.45735463 70.26420037 -51.49731445 68.53173828 C-51.55497594 66.04446373 -51.61868198 63.55740707 -51.68359375 61.0703125 C-51.70030624 60.29317902 -51.71701874 59.51604553 -51.73423767 58.71536255 C-51.76473429 54.72725784 -51.76473429 54.72725784 -53 51 C-58.94 51 -64.88 51 -71 51 C-70.835 53.59875 -70.67 56.1975 -70.5 58.875 C-70.03700546 67.2671543 -69.82916303 75.65841318 -69.75 84.0625 C-69.7180957 85.78412354 -69.7180957 85.78412354 -69.68554688 87.54052734 C-69.68103516 88.61125488 -69.67652344 89.68198242 -69.671875 90.78515625 C-69.6625293 91.74301025 -69.65318359 92.70086426 -69.64355469 93.68774414 C-69.76118164 94.45078857 -69.87880859 95.21383301 -70 96 C-73.81105077 98.54070051 -76.68564693 98.15363256 -81.0625 97.875 C-81.79533203 97.85179687 -82.52816406 97.82859375 -83.28320312 97.8046875 C-85.41015625 97.6796875 -85.41015625 97.6796875 -89 97 C-90.49609375 94.9453125 -90.49609375 94.9453125 -91 93 C-89 90 -89 90 -86.6171875 89.48828125 C-85.71226562 89.43027344 -84.80734375 89.37226563 -83.875 89.3125 C-82.96492188 89.24675781 -82.05484375 89.18101562 -81.1171875 89.11328125 C-80.06917969 89.05720703 -80.06917969 89.05720703 -79 89 C-78.82513605 69.97662135 -78.82513605 69.97662135 -80 51 C-83.47041654 50.23805807 -86.81400944 49.81164559 -90.359375 49.60546875 C-123.9591118 47.43570022 -123.9591118 47.43570022 -135 40 C-136.72116872 37.20310082 -137.01514577 35.63612226 -136.9375 32.375 C-136.75785733 29.91307382 -136.75785733 29.91307382 -138.5 28.1875 C-138.995 27.795625 -139.49 27.40375 -140 27 C-138.68 27 -137.36 27 -136 27 C-135.34 27.66 -134.68 28.32 -134 29 C-131.71720769 29.39615832 -131.71720769 29.39615832 -129 29.5 C-123.03695105 29.89943869 -117.12928359 30.5234023 -111.19921875 31.25195312 C-97.95784237 32.80043821 -84.66015725 33.16119224 -71.34375 33.31640625 C-69.81961612 33.33705707 -68.29548691 33.35805511 -66.7713623 33.37937927 C-62.81947692 33.43376324 -58.86754738 33.4835301 -54.91558838 33.53222656 C-50.85905167 33.58306524 -46.80257664 33.63842083 -42.74609375 33.69335938 C-34.83078178 33.79991234 -26.91541716 33.90157179 -19 34 C-19.02964844 32.90429688 -19.05929688 31.80859375 -19.08984375 30.6796875 C-18.98740988 26.48435227 -17.97854338 23.97854338 -15 21 C-12.85546875 20.796875 -12.85546875 20.796875 -10.1875 20.75 C-9.31480469 20.72421875 -8.44210938 20.6984375 -7.54296875 20.671875 C-4.52998398 21.06064723 -3.17483069 21.91135142 -1 24 C-1 24.66 -1 25.32 -1 26 C3.29 25.67 7.58 25.34 12 25 C12 29.29 12 33.58 12 38 C13.32 38 14.64 38 16 38 C16.33 33.38 16.66 28.76 17 24 C18.65 23.67 20.3 23.34 22 23 C13.64327091 16.99102297 13.64327091 16.99102297 4.875 11.625 C0.1622276 8.96125908 0.1622276 8.96125908 -1 7 C-0.6875 3.3125 -0.6875 3.3125 0 0 Z " fill="#E8D6C6" transform="translate(237,253)"/>
<path d="M0 0 C0 0.66 0 1.32 0 2 C0.598125 2.12375 1.19625 2.2475 1.8125 2.375 C4 3 4 3 7 5 C7.495 6.485 7.495 6.485 8 8 C8.45375 8.4125 8.9075 8.825 9.375 9.25 C12.6180368 12.74250117 13.93141995 16.74269914 14.1875 21.4375 C14.125625 22.283125 14.06375 23.12875 14 24 C15.32 24 16.64 24 18 24 C18.495 27.465 18.495 27.465 19 31 C17.02 31 15.04 31 13 31 C12.896875 32.010625 12.79375 33.02125 12.6875 34.0625 C11.36211978 41.65331397 9.1122203 45.67568085 3.1640625 50.48828125 C-3.48903408 55.1358415 -10.01473529 55.64477293 -18 55 C-19.34185235 54.70281123 -20.67991744 54.38245383 -22 54 C-22.226875 54.928125 -22.45375 55.85625 -22.6875 56.8125 C-24.26984216 60.65533096 -25.30481777 61.25234793 -29 63 C-35.02733486 63.91554454 -41.14256964 64.19848969 -46.3125 60.625 C-47.199375 59.75875 -48.08625 58.8925 -49 58 C-49 57.34 -49 56.68 -49 56 C-49.60328125 56.42152344 -50.2065625 56.84304687 -50.828125 57.27734375 C-51.62734375 57.82519531 -52.4265625 58.37304688 -53.25 58.9375 C-54.03890625 59.48277344 -54.8278125 60.02804688 -55.640625 60.58984375 C-59.25449684 62.74979033 -62.33466116 63.15183785 -66.5 63.1875 C-67.2528125 63.20167969 -68.005625 63.21585937 -68.78125 63.23046875 C-72.26250921 62.86885908 -74.36087848 61.71013502 -76.6875 59.125 C-79.33312555 54.84160625 -79.09568362 50.97554837 -79 46 C-76.525 45.505 -76.525 45.505 -74 45 C-73.70867187 45.5775 -73.41734375 46.155 -73.1171875 46.75 C-71.87436344 49.00115302 -70.64117357 51.0185306 -69 53 C-65.0833491 53.99999598 -63.48046699 53.25494167 -59.9375 51.375 C-56.75134968 48.79896357 -54.4975084 46.23206969 -52 43 C-49.33289346 43.15240609 -47.5494129 43.49364919 -45.5546875 45.33203125 C-42 49.50625 -42 49.50625 -42 52 C-38.32589215 53.17571451 -34.83070817 53.07366746 -31 53 C-30.505 52.01 -30.505 52.01 -30 51 C-30.53109375 50.5875 -31.0621875 50.175 -31.609375 49.75 C-37.69318026 44.77637819 -41.43661497 39.78770298 -43 32 C-43.74064768 23.08374144 -42.98189952 14.32818924 -37.25 7.125 C-27.38551436 -3.20112413 -13.00162423 -3.92501864 0 0 Z " fill="#EEB720" transform="translate(227,163)"/>
<path d="M0 0 C4.59433484 2.78222668 8.26931297 7.1126264 9.9609375 12.1875 C10.08875536 14.86144964 10.00485621 17.50845857 9.9609375 20.1875 C10.70214844 20.17702637 11.44335938 20.16655273 12.20703125 20.15576172 C88.62165955 19.2321455 88.62165955 19.2321455 114.9609375 28.1875 C117.23901727 28.70126275 119.52105316 29.1747508 121.8125 29.625 C124.06153298 30.21383773 125.92275014 31.08079193 127.9609375 32.1875 C127.9609375 32.8475 127.9609375 33.5075 127.9609375 34.1875 C121.48051978 36.38951673 115.58879916 37.66605961 108.75390625 37.83984375 C107.86978561 37.87214584 106.98566498 37.90444794 106.07475281 37.93772888 C103.03704181 38.04032686 99.99956432 38.11717715 96.9609375 38.1875 C95.81449768 38.21467102 94.66805786 38.24184204 93.48687744 38.26983643 C85.08878636 38.45907691 76.69016383 38.59644013 68.29089355 38.71972656 C65.59707721 38.76014929 62.90332405 38.80414219 60.20956421 38.84814644 C20.91808917 39.48813072 20.91808917 39.48813072 5.8359375 38.6875 C4.86785156 38.63980469 3.89976562 38.59210938 2.90234375 38.54296875 C0.58831214 38.42841273 -1.72543985 38.30998974 -4.0390625 38.1875 C-4.3690625 37.5275 -4.6990625 36.8675 -5.0390625 36.1875 C-6.5240625 36.435 -6.5240625 36.435 -8.0390625 36.6875 C-14.98786775 37.58127749 -22.04788751 37.26385992 -29.0390625 37.1875 C-29.02278646 35.20182292 -29.00651042 33.21614583 -28.99023438 31.23046875 C-28.99518118 29.01670575 -28.99518118 29.01670575 -29.5390625 26.1875 C-30.71647794 19.12300734 -30.88491321 11.22422214 -27.1015625 5 C-20.18903102 -2.45194868 -9.08052225 -3.7327048 0 0 Z " fill="#A59E9A" transform="translate(144.0390625,88.8125)"/>
<path d="M0 0 C0.62132812 0.42796875 1.24265625 0.8559375 1.8828125 1.296875 C2.9140625 1.998125 3.9453125 2.699375 5.0078125 3.421875 C11.64264261 9.29896685 15.70677529 17.84380736 17.8828125 26.296875 C18.06585938 26.87566406 18.24890625 27.45445312 18.4375 28.05078125 C21.44228901 43.20651529 17.70701174 58.61467676 9.5078125 71.44921875 C2.14239706 81.87688572 -7.62948984 88.66485257 -20.1171875 91.296875 C-26.63931957 92.02031968 -32.77718664 90.77929691 -39.1171875 89.296875 C-40.45274346 85.29020712 -38.98792921 83.11303376 -37.3046875 79.484375 C-35.34092761 75.13238455 -33.54791975 70.85428065 -32.1171875 66.296875 C-25.72063578 65.93480603 -25.72063578 65.93480603 -23.2421875 67.421875 C-21.71287927 69.97072206 -21.44247809 72.36925973 -21.1171875 75.296875 C-13.62596552 74.41555477 -8.3827654 69.33766427 -3.80078125 63.66796875 C2.64222709 55.07088001 5.68310049 45.77049434 4.42578125 35.10546875 C2.72548044 26.31038761 -1.01424414 18.27539099 -8.4296875 13.046875 C-15.57708518 8.6001227 -21.8795156 7.99852873 -30.1171875 8.296875 C-30.06498047 9.21919922 -30.06498047 9.21919922 -30.01171875 10.16015625 C-29.98464844 10.96839844 -29.95757812 11.77664062 -29.9296875 12.609375 C-29.87748047 13.81013672 -29.87748047 13.81013672 -29.82421875 15.03515625 C-30.1171875 17.296875 -30.1171875 17.296875 -31.44140625 19.08984375 C-33.1171875 20.296875 -33.1171875 20.296875 -36.1171875 20.296875 C-36.1171875 19.636875 -36.1171875 18.976875 -36.1171875 18.296875 C-36.7771875 18.296875 -37.4371875 18.296875 -38.1171875 18.296875 C-38.5090625 17.28625 -38.9009375 16.275625 -39.3046875 15.234375 C-40.49107403 12.41883567 -41.88009274 10.1523995 -43.7421875 7.734375 C-46.04988817 4.67130084 -46.83322033 2.17775966 -47.1171875 -1.703125 C-45.53519119 -2.35222654 -43.95153026 -2.99727194 -42.3671875 -3.640625 C-41.48546875 -4.00027344 -40.60375 -4.35992187 -39.6953125 -4.73046875 C-27.23193527 -9.43256107 -11.16503697 -7.00389773 0 0 Z " fill="#969494" transform="translate(319.1171875,174.703125)"/>
<path d="M0 0 C31.82849924 -0.41335713 64.10337484 0.38413648 95.625 4.9375 C96.72134766 5.09516846 97.81769531 5.25283691 98.94726562 5.4152832 C108.61790822 6.90854419 118.19243559 8.72333057 126 15 C128 18 128 18 128 20.875 C126.7187516 24.87890126 124.51569205 26.8776528 121 29 C118.23361266 29.62968593 115.96446452 29.98544885 113.1796875 30.14453125 C112.4397757 30.20404465 111.69986389 30.26355804 110.93753052 30.32487488 C108.58438348 30.50841806 106.23036425 30.6603928 103.875 30.8125 C102.31755681 30.93229085 100.76026142 31.05401982 99.203125 31.17773438 C91.7018482 31.75063682 84.27755924 32.06642302 76.75146484 31.9777832 C74.02763158 31.99977689 71.38236084 32.19784239 68.671875 32.4609375 C58.89291962 33.35887532 49.06286814 33.42414905 39.25 33.625 C38.18775208 33.64745789 37.12550415 33.66991577 36.03106689 33.6930542 C19.11452004 34.0380303 2.29912059 33.94490739 -14.60400391 33.15283203 C-17.9790678 33.00094202 -21.35370775 32.88428198 -24.73046875 32.77734375 C-26.75783344 32.70632444 -28.78517874 32.63474831 -30.8125 32.5625 C-31.71500488 32.53559082 -32.61750977 32.50868164 -33.54736328 32.48095703 C-37.48220114 32.31852742 -39.657855 32.22809666 -43 30 C-41.93365479 27.53448486 -41.93365479 27.53448486 -40 25 C-36.918396 24.40545654 -36.918396 24.40545654 -33.06152344 24.44824219 C-32.00233468 24.44951819 -32.00233468 24.44951819 -30.92174816 24.45081997 C-28.56682635 24.45938185 -26.21388899 24.50332121 -23.859375 24.546875 C-22.19716423 24.55915978 -20.53493439 24.56906767 -18.87269592 24.57673645 C-15.33579641 24.59733695 -11.79948908 24.63280803 -8.2628479 24.6802063 C-2.75042966 24.75352578 2.76185689 24.79303786 8.2746582 24.82397461 C9.63790647 24.83173684 9.63790647 24.83173684 11.02869511 24.83965588 C12.85843601 24.85002839 14.6881775 24.86030011 16.51791954 24.87047005 C19.25316286 24.88671434 21.98836935 24.90606054 24.72358704 24.9261322 C38.88480383 25.0255845 53.02943647 24.90931047 67.1875 24.5625 C68.52693665 24.53234802 68.52693665 24.53234802 69.89343262 24.50158691 C75.59715088 24.37198732 81.2983868 24.20125673 87 24 C88.34581146 23.95513458 88.34581146 23.95513458 89.71881104 23.90936279 C92.51742926 23.81257414 95.31528304 23.70304949 98.11328125 23.58984375 C98.9549736 23.56112686 99.79666595 23.53240997 100.66386414 23.50282288 C106.59257409 23.24149717 112.21493517 22.31038452 118 21 C118 20.34 118 19.68 118 19 C112.93946268 17.03201327 107.85280656 16.2597658 102.51171875 15.46484375 C100 15 100 15 99 14 C87.61554907 11.97015818 76.01793782 11.27894749 64.5 10.4375 C62.81637757 10.31092773 61.13278364 10.18397591 59.44921875 10.05664062 C55.38001642 9.75045428 51.31027031 9.45271848 47.24002075 9.16079712 C45.80885987 9.05806301 44.3777615 8.95445186 42.94674683 8.84970093 C33.32200155 8.14734445 23.70699476 7.72802552 14.0625 7.4375 C12.68553931 7.39411965 11.30858612 7.3505007 9.93164062 7.30664062 C6.62115913 7.2020991 3.31062386 7.09991305 0 7 C0 4.69 0 2.38 0 0 Z " fill="#F0E3D2" transform="translate(154,102)"/>
<path d="M0 0 C4.22822152 -0.34546748 6.34855939 0.47379407 9.8125 2.875 C10.60269531 3.40867187 11.39289063 3.94234375 12.20703125 4.4921875 C13.09455078 5.23855469 13.09455078 5.23855469 14 6 C14 6.66 14 7.32 14 8 C14.68191406 8.22945313 15.36382812 8.45890625 16.06640625 8.6953125 C19.73134871 10.32526028 22.72195654 12.50055133 25.9375 14.875 C27.13344575 15.7483125 28.33005444 16.6207179 29.52734375 17.4921875 C30.10452148 17.91564453 30.68169922 18.33910156 31.27636719 18.77539062 C32.94649818 19.96198794 34.6537991 21.05646073 36.38671875 22.1484375 C39 24 39 24 39.875 26.75 C39.91625 27.4925 39.9575 28.235 40 29 C36.92307254 31.6815279 34.80265337 32.42087807 30.75 32.6875 C29.85796875 32.75324219 28.9659375 32.81898438 28.046875 32.88671875 C27.03367187 32.94279297 27.03367187 32.94279297 26 33 C26.226875 33.886875 26.45375 34.77375 26.6875 35.6875 C27.18589996 39.2587783 26.64490652 42.07243157 25.7734375 45.55859375 C24.42926001 51.13413727 23.19316336 56.72039368 22.02734375 62.3359375 C21.85718246 63.15155655 21.68702118 63.9671756 21.51170349 64.80751038 C20.80686091 68.18809421 20.10439574 71.56916475 19.40405273 74.95068359 C18.88489513 77.45457474 18.36255448 79.95778606 17.83984375 82.4609375 C17.68458725 83.21523041 17.52933075 83.96952332 17.36936951 84.74667358 C16.43070261 89.23171238 15.31018006 93.60863787 14 98 C12.68 98 11.36 98 10 98 C8.70352302 95.40704604 8.81355471 93.41006292 8.6875 90.5 C8.00810841 79.89272493 6.1444987 69.44550318 4.47119141 58.95849609 C3.87983453 55.24551025 3.30402687 51.53125589 2.75 47.8125 C2.60046875 46.82894531 2.4509375 45.84539062 2.296875 44.83203125 C1.95176984 41.53990963 1.9505698 38.30770414 2 35 C0.68 35 -0.64 35 -2 35 C-2.309375 35.639375 -2.61875 36.27875 -2.9375 36.9375 C-4 39 -4 39 -5 40 C-9.50964735 40.45860821 -12.71861752 40.68938419 -16.5 38 C-19.32430685 34.61083178 -19.72785175 33.18677688 -19.40625 28.93359375 C-18.73747802 25.75049633 -17.28967168 23.28967168 -15 21 C-12.85546875 20.796875 -12.85546875 20.796875 -10.1875 20.75 C-9.31480469 20.72421875 -8.44210938 20.6984375 -7.54296875 20.671875 C-4.52998398 21.06064723 -3.17483069 21.91135142 -1 24 C-1 24.66 -1 25.32 -1 26 C5.435 25.505 5.435 25.505 12 25 C12 29.29 12 33.58 12 38 C13.32 38 14.64 38 16 38 C16.33 33.38 16.66 28.76 17 24 C18.65 23.67 20.3 23.34 22 23 C13.64327091 16.99102297 13.64327091 16.99102297 4.875 11.625 C0.1622276 8.96125908 0.1622276 8.96125908 -1 7 C-0.6875 3.3125 -0.6875 3.3125 0 0 Z " fill="#857A6E" transform="translate(237,253)"/>
<path d="M0 0 C0.33 0 0.66 0 1 0 C0.67 4.29 0.34 8.58 0 13 C0.99 13.33 1.98 13.66 3 14 C2.01 14 1.02 14 0 14 C0.495 16.475 0.495 16.475 1 19 C2.65 19 4.3 19 6 19 C6 19.33 6 19.66 6 20 C4.35 20 2.7 20 1 20 C1 22.31 1 24.62 1 27 C10.24 26.34 19.48 25.68 29 25 C27.515 25.495 27.515 25.495 26 26 C26 26.66 26 27.32 26 28 C17.09 28 8.18 28 -1 28 C-1.495 29.485 -1.495 29.485 -2 31 C-5.26453457 33.29726507 -8.09840945 33.23409543 -12 33 C-12.886875 32.731875 -13.77375 32.46375 -14.6875 32.1875 C-18.36279914 31.9794642 -19.70726651 32.59698261 -22.9765625 34.15625 C-23.95165771 34.61475342 -24.92675293 35.07325684 -25.93139648 35.5456543 C-26.94403564 36.02558838 -27.9566748 36.50552246 -29 37 C-30.96058438 37.8955596 -32.92281225 38.78753052 -34.88671875 39.67578125 C-35.84384766 40.11083984 -36.80097656 40.54589844 -37.78710938 40.99414062 C-44.39355469 43.99707031 -44.39355469 43.99707031 -51 47 C-50.43887665 50.40520865 -49.63480339 53.04488212 -47.92578125 56.0390625 C-47.50820557 56.77930664 -47.09062988 57.51955078 -46.66040039 58.28222656 C-46.21559326 59.0553418 -45.77078613 59.82845703 -45.3125 60.625 C-44.40076888 62.23682489 -43.4893098 63.8488037 -42.578125 65.4609375 C-41.91393555 66.62834473 -41.91393555 66.62834473 -41.23632812 67.81933594 C-39.17371722 71.45741662 -37.16716643 75.12483945 -35.1875 78.80859375 C-34.18235209 80.66348842 -33.12766698 82.49140806 -32.0625 84.3125 C-30.75765805 87.61298258 -31.11243191 89.61110365 -32 93 C-34.475 93.495 -34.475 93.495 -37 94 C-41 88.25 -41 88.25 -41 86 C-41.66 86 -42.32 86 -43 86 C-43.46374023 85.09757568 -43.92748047 84.19515137 -44.40527344 83.26538086 C-46.1406628 79.88939877 -47.87813537 76.51449239 -49.61621094 73.13989258 C-50.36546994 71.68445212 -51.11417795 70.22872786 -51.86230469 68.77270508 C-52.9431813 66.6693192 -54.02609319 64.56699172 -55.109375 62.46484375 C-55.60337799 61.50190651 -55.60337799 61.50190651 -56.10736084 60.51951599 C-57.73470753 57.36624372 -59.41327489 54.26523214 -61.20410156 51.20141602 C-63.91197167 46.37429519 -63.91197167 46.37429519 -63 43 C-57.74797833 38.90236564 -51.68113802 36.43814384 -45.625 33.75 C-44.09166016 33.06164062 -44.09166016 33.06164062 -42.52734375 32.359375 C-40.02034744 31.23474114 -37.5112408 30.11511581 -35 29 C-35.2180127 28.46093018 -35.43602539 27.92186035 -35.66064453 27.36645508 C-35.94020996 26.65384521 -36.21977539 25.94123535 -36.5078125 25.20703125 C-36.7877002 24.50296143 -37.06758789 23.7988916 -37.35595703 23.07348633 C-38.2897312 20.0672149 -37.9646385 17.96281826 -37 15 C-34.41553158 11.37234614 -30.3870211 10.62356353 -26.3125 9.4375 C-25.28866211 9.12522461 -25.28866211 9.12522461 -24.24414062 8.80664062 C-10.6100781 4.69968506 -10.6100781 4.69968506 -5 4.875 C-4.236875 4.89304687 -3.47375 4.91109375 -2.6875 4.9296875 C-2.130625 4.95289062 -1.57375 4.97609375 -1 5 C-0.67 3.35 -0.34 1.7 0 0 Z " fill="#857C72" transform="translate(114,99)"/>
<path d="M0 0 C5.625 -0.25 5.625 -0.25 9 2 C8.875 4.3125 8.875 4.3125 8 7 C4.9375 8.8125 4.9375 8.8125 2 10 C3.50065654 9.8831456 5.0005103 9.75597952 6.5 9.625 C7.3353125 9.55539063 8.170625 9.48578125 9.03125 9.4140625 C12.07407157 8.98966896 14.97505749 8.26289993 17.94677734 7.49462891 C42.85168533 1.49494477 71.52495843 4.19694827 96 11 C96.99 11.66 97.98 12.32 99 13 C99 13.66 99 14.32 99 15 C90.00009649 15.79439589 81.05202558 16.19172556 72.01953125 16.31640625 C70.72665695 16.33718735 69.43378265 16.35796844 68.10173035 16.37937927 C65.3831992 16.4228959 62.664647 16.46385663 59.94604492 16.50268555 C56.51834355 16.55167874 53.09073638 16.60533823 49.66313171 16.66064644 C9.94489556 17.29998011 9.94489556 17.29998011 -5.125 16.5 C-6.09308594 16.45230469 -7.06117188 16.40460938 -8.05859375 16.35546875 C-10.37262536 16.24091273 -12.68637735 16.12248974 -15 16 C-15.33 15.34 -15.66 14.68 -16 14 C-17.485 14.2475 -17.485 14.2475 -19 14.5 C-25.94880525 15.39377749 -33.00882501 15.07635992 -40 15 C-40 12.69 -40 10.38 -40 8 C-35.4285256 7.30584573 -30.85699044 6.61209339 -26.28540039 5.91870117 C-24.73264956 5.68313255 -23.17991491 5.44745723 -21.62719727 5.21166992 C-19.38562272 4.871296 -17.1439888 4.53131548 -14.90234375 4.19140625 C-13.87378517 4.03509483 -13.87378517 4.03509483 -12.82444763 3.87562561 C-8.55254939 3.22833868 -4.27795523 2.60557752 0 2 C0 1.34 0 0.68 0 0 Z " fill="#F65C04" transform="translate(155,111)"/>
<path d="M0 0 C2.72586072 -0.42591574 4.46843907 -0.35013688 6.796875 1.18359375 C7.44140625 1.65925781 8.0859375 2.13492188 8.75 2.625 C11.14291893 4.2337986 12.36279194 5.03180557 15.26953125 4.88671875 C16.79917449 4.50365647 18.32072825 4.08672808 19.83203125 3.63671875 C23.02284962 2.69959552 25.70751068 2.62009739 29 3 C30.2375 4.0209375 30.2375 4.0209375 31.5 5.0625 C33.95173535 7.39782006 33.95173535 7.39782006 37.625 6.8125 C40.9635266 6.05960288 40.9635266 6.05960288 44 5 C49.3926472 4.59300776 52.25975125 5.57944744 57 8 C61.15685632 8.40753493 62.47089647 8.35273568 66 6 C70.22696221 5.39049421 73.87778418 5.31572206 77.5625 7.5625 C81.31799288 9.77727785 83.78010507 8.88481668 88 8 C88.99 7.34 89.98 6.68 91 6 C93.12109375 5.76953125 93.12109375 5.76953125 95.4375 5.8125 C96.19933594 5.81894531 96.96117187 5.82539063 97.74609375 5.83203125 C99.93937857 5.99548229 101.88870807 6.39883487 104 7 C104 7.66 104 8.32 104 9 C110.68535429 8.73243761 110.68535429 8.73243761 116.8125 6.375 C122.37983266 3.97340552 129.38964052 4.94616534 135.16796875 6.6328125 C138.46421661 7.29346772 141.09637532 5.42441965 144 4 C144.33 3.67 144.66 3.34 145 3 C151.16670478 2.54826524 156.15547829 3.00754942 162 5 C166.88989788 4.74263695 169.94069382 3.66754406 174 1 C174.66 1 175.32 1 176 1 C176 2.65 176 4.3 176 6 C164.94903198 12.11516017 164.94903198 12.11516017 157.625 10.46484375 C152.40350408 9.29156119 149.02499319 8.54878381 144 11 C143.01 11.66 142.02 12.32 141 13 C135.19741821 13.7572861 130.83375954 13.45268539 126 10 C123.30745009 9.29329272 123.30745009 9.29329272 121 9 C120.67 9.99 120.34 10.98 120 12 C114.28725331 14.17084374 108.92138292 14.99451334 103.0625 13 C97.95281942 11.33153287 93.76134782 11.15455305 88.875 13.5 C87.92625 13.995 86.9775 14.49 86 15 C81.98339573 15.59821766 79.83791283 15.05028878 76.5 12.9375 C73.77501115 11.2313676 73.1472283 10.99433737 69.75 11.125 C66.82755814 11.91540588 66.82755814 11.91540588 64 14 C59.58393118 14.51953751 56.80610005 14.07335032 53 11.9375 C49.04558585 9.74831166 46.43077416 9.82448849 42 11 C41.67 11.33 41.34 11.66 41 12 C35.24995724 12.38333618 32.93106527 11.95863916 28 9 C24.14892474 8.54335076 20.69989307 8.76670231 17 10 C10.79663417 10.88619512 7.11916335 8.7588505 1.94140625 5.703125 C0.98041016 4.86007813 0.98041016 4.86007813 0 4 C0 2.68 0 1.36 0 0 Z " fill="#B2ABA5" transform="translate(90,143)"/>
<path d="M0 0 C3.55680172 2.10504591 4.69468936 3.08406808 6 7 C6.22179785 8.89212737 6.40614015 10.78884472 6.5625 12.6875 C6.64628906 13.68136719 6.73007813 14.67523438 6.81640625 15.69921875 C6.87699219 16.45847656 6.93757813 17.21773437 7 18 C9.64 18.33 12.28 18.66 15 19 C13.64359718 23.19385088 11.88833018 25.38836615 8.5625 28.25 C7.78003906 28.93578125 6.99757812 29.6215625 6.19140625 30.328125 C2.40275759 33.21857353 -0.92958524 33.18788271 -5.5625 33.25 C-7.29693359 33.28867188 -7.29693359 33.28867188 -9.06640625 33.328125 C-10.03449219 33.21984375 -11.00257813 33.1115625 -12 33 C-12.66 32.01 -13.32 31.02 -14 30 C-14.78890625 29.85304687 -15.5778125 29.70609375 -16.390625 29.5546875 C-19.67869593 28.85572632 -20.63171292 27.68381581 -22.75 25.125 C-23.34296875 24.42632812 -23.9359375 23.72765625 -24.546875 23.0078125 C-27.20113632 19.34036541 -27.10967271 16.19956188 -27.0625 11.8125 C-27.05347656 10.72582031 -27.04445312 9.63914063 -27.03515625 8.51953125 C-27.02355469 7.68808594 -27.01195312 6.85664063 -27 6 C-26.01 5.67 -25.02 5.34 -24 5 C-24 9.95 -24 14.9 -24 20 C-22.68 19.34 -21.36 18.68 -20 18 C-19.11678349 15.33261564 -19.11678349 15.33261564 -18.6875 12.25 C-17.53455611 7.14761 -16.40380329 4.0198737 -12.09765625 0.9296875 C-8.08626062 -0.84817499 -4.25885076 -0.85753509 0 0 Z " fill="#EFE5D8" transform="translate(218,179)"/>
<path d="M0 0 C0.99 0 1.98 0 3 0 C3.33 1.65 3.66 3.3 4 5 C6.31 5.33 8.62 5.66 11 6 C11 4.68 11 3.36 11 2 C11.66 2 12.32 2 13 2 C13 3.32 13 4.64 13 6 C14.65 5.67 16.3 5.34 18 5 C18.20386764 11.65380337 17.51973318 17.54934861 16.1015625 24.0390625 C15.90654144 24.96415619 15.71152039 25.88924988 15.5105896 26.84237671 C15.09950084 28.78448879 14.68412422 30.72569777 14.26464844 32.66601562 C13.62568338 35.62183872 12.99918212 38.58008596 12.375 41.5390625 C11.97207362 43.43504887 11.56845138 45.33088752 11.1640625 47.2265625 C10.97752106 48.10277252 10.79097961 48.97898254 10.5987854 49.88174438 C9.56637632 54.64889056 8.39870786 59.32684675 7 64 C5.68 64 4.36 64 3 64 C1.70352302 61.40704604 1.81355471 59.41006292 1.6875 56.5 C1.00819431 45.89406598 -0.85547 35.44851378 -2.52880859 24.96289062 C-3.12278138 21.22794052 -3.6967774 17.4912176 -4.25 13.75 C-4.39953125 12.75484375 -4.5490625 11.7596875 -4.703125 10.734375 C-5.0213559 7.80330096 -5.05229602 4.94600921 -5 2 C-4.01 2 -3.02 2 -2 2 C-2 2.99 -2 3.98 -2 5 C-1.34 5 -0.68 5 0 5 C0 3.35 0 1.7 0 0 Z " fill="#15100F" transform="translate(244,287)"/>
<path d="M0 0 C3.53388136 2.04017893 5.98177163 4.48150012 7.89453125 8.09375 C8.63127086 11.44079222 8.8807587 14.67127062 8.89453125 18.09375 C3.77154477 20.00966364 -1.28463688 20.92184172 -6.66796875 21.71875 C-7.54678711 21.85063721 -8.42560547 21.98252441 -9.33105469 22.1184082 C-16.31125805 23.10618488 -23.05286474 23.44123231 -30.10546875 23.09375 C-30.36409963 8.35178994 -30.36409963 8.35178994 -25.81640625 3.44921875 C-18.29431313 -2.51006507 -8.7656922 -3.73449609 0 0 Z " fill="#0B0607" transform="translate(144.10546875,88.90625)"/>
<path d="M0 0 C6.14826469 0.12760549 11.76951753 2.11139178 16.43359375 6.1484375 C22.16406684 12.36737088 23.54531301 17.6193095 23.48046875 25.9453125 C23.32149276 28.18576479 22.93278494 30.15887067 22.3125 32.3125 C20.83343108 32.33939216 19.35422517 32.35884621 17.875 32.375 C17.05128906 32.38660156 16.22757813 32.39820313 15.37890625 32.41015625 C13.3125 32.3125 13.3125 32.3125 12.3125 31.3125 C12.10293117 29.52534356 11.94438384 27.73206231 11.8125 25.9375 C11.57579236 20.23962117 11.57579236 20.23962117 8.5546875 15.65625 C4.62991335 13.30412054 0.73404334 13.61399394 -3.6875 14.3125 C-8.00956421 16.5128236 -9.15421565 17.7532009 -10.71484375 22.31640625 C-11.48037737 25.30445685 -12.13583163 28.27832395 -12.6875 31.3125 C-13.326875 31.43625 -13.96625 31.56 -14.625 31.6875 C-15.305625 31.89375 -15.98625 32.1 -16.6875 32.3125 C-17.0175 32.9725 -17.3475 33.6325 -17.6875 34.3125 C-18.0175 33.9825 -18.3475 33.6525 -18.6875 33.3125 C-18.59663549 30.77708702 -18.4504055 28.27695216 -18.25 25.75 C-18.19779297 25.03908203 -18.14558594 24.32816406 -18.09179688 23.59570312 C-17.96175893 21.83428001 -17.82523103 20.07333827 -17.6875 18.3125 C-18.3475 18.6425 -19.0075 18.9725 -19.6875 19.3125 C-20.15501788 21.66849235 -20.15501788 21.66849235 -20.3125 24.375 C-20.38726562 25.29410156 -20.46203125 26.21320313 -20.5390625 27.16015625 C-20.58804688 27.87042969 -20.63703125 28.58070313 -20.6875 29.3125 C-21.0175 29.3125 -21.3475 29.3125 -21.6875 29.3125 C-22.00211385 22.21620975 -22.13322039 16.62965405 -18.6875 10.3125 C-18.0275 10.3125 -17.3675 10.3125 -16.6875 10.3125 C-16.48125 9.755625 -16.275 9.19875 -16.0625 8.625 C-13.76811134 4.76625543 -10.58281547 1.9608974 -6.3125 0.5 C-4.20710706 0.34961479 -2.10321803 0.17823882 0 0 Z " fill="#E8DAC8" transform="translate(211.6875,165.6875)"/>
<path d="M0 0 C2.66710654 0.15240609 4.4505871 0.49364919 6.4453125 2.33203125 C10 6.50625 10 6.50625 10 9 C13.78394186 10.21086139 17.06160323 10.62185212 21 10 C23.13479756 7.56099379 24.59129455 4.90829513 26 2 C29.875 2.875 29.875 2.875 31 4 C31.40902941 9.21512497 30.89554549 12.60675857 28 17 C22.43881483 21.11939642 16.66092696 20.89902082 10 20 C6.94522766 18.65888044 5.43162503 17.37507561 3 15 C3 14.34 3 13.68 3 13 C2.39671875 13.42152344 1.7934375 13.84304687 1.171875 14.27734375 C0.37265625 14.82519531 -0.4265625 15.37304688 -1.25 15.9375 C-2.03890625 16.48277344 -2.8278125 17.02804688 -3.640625 17.58984375 C-7.25449684 19.74979033 -10.33466116 20.15183785 -14.5 20.1875 C-15.2528125 20.20167969 -16.005625 20.21585938 -16.78125 20.23046875 C-20.26250921 19.86885908 -22.36087848 18.71013502 -24.6875 16.125 C-27.33312555 11.84160625 -27.09568362 7.97554837 -27 3 C-25.35 2.67 -23.7 2.34 -22 2 C-21.70867187 2.5775 -21.41734375 3.155 -21.1171875 3.75 C-19.87436344 6.00115302 -18.64117357 8.0185306 -17 10 C-13.0833491 10.99999598 -11.48046699 10.25494167 -7.9375 8.375 C-4.75134968 5.79896357 -2.4975084 3.23206969 0 0 Z " fill="#140D0D" transform="translate(175,206)"/>
<path d="M0 0 C0.87269531 -0.02578125 1.74539062 -0.0515625 2.64453125 -0.078125 C5.65751602 0.31064723 7.01266931 1.16135142 9.1875 3.25 C9.1875 3.91 9.1875 4.57 9.1875 5.25 C15.6225 4.755 15.6225 4.755 22.1875 4.25 C22.1875 8.54 22.1875 12.83 22.1875 17.25 C23.5075 17.25 24.8275 17.25 26.1875 17.25 C26.1875 15.6 26.1875 13.95 26.1875 12.25 C28.6625 12.745 28.6625 12.745 31.1875 13.25 C31.1875 14.9 31.1875 16.55 31.1875 18.25 C31.8475 18.25 32.5075 18.25 33.1875 18.25 C33.1875 17.26 33.1875 16.27 33.1875 15.25 C34.5075 15.58 35.8275 15.91 37.1875 16.25 C36.6925 18.725 36.6925 18.725 36.1875 21.25 C35.5275 20.59 34.8675 19.93 34.1875 19.25 C32.8675 19.25 31.5475 19.25 30.1875 19.25 C30.1875 17.93 30.1875 16.61 30.1875 15.25 C29.5275 15.25 28.8675 15.25 28.1875 15.25 C28.1875 16.57 28.1875 17.89 28.1875 19.25 C25.85455225 19.29241723 23.52047433 19.29092937 21.1875 19.25 C20.1875 18.25 20.1875 18.25 20.125 15.6875 C20.145625 14.883125 20.16625 14.07875 20.1875 13.25 C19.1975 13.25 18.2075 13.25 17.1875 13.25 C17.1875 14.9 17.1875 16.55 17.1875 18.25 C16.5275 18.25 15.8675 18.25 15.1875 18.25 C15.1875 17.26 15.1875 16.27 15.1875 15.25 C12.8775 14.92 10.5675 14.59 8.1875 14.25 C7.878125 14.889375 7.56875 15.52875 7.25 16.1875 C6.1875 18.25 6.1875 18.25 5.1875 19.25 C0.67785265 19.70860821 -2.53111752 19.93938419 -6.3125 17.25 C-9.13680685 13.86083178 -9.54035175 12.43677688 -9.21875 8.18359375 C-7.97429647 2.26047357 -5.68621752 0.09990426 0 0 Z " fill="#84796F" transform="translate(226.8125,273.75)"/>
<path d="M0 0 C2.64 0 5.28 0 8 0 C8.71865616 11.37016714 9.14244335 22.73190407 9.25 34.125 C9.27126953 35.26888184 9.29253906 36.41276367 9.31445312 37.59130859 C9.31896484 38.65687988 9.32347656 39.72245117 9.328125 40.8203125 C9.3374707 41.77180176 9.34681641 42.72329102 9.35644531 43.70361328 C9.18000488 44.84032471 9.18000488 44.84032471 9 46 C5.18894923 48.54070051 2.31435307 48.15363256 -2.0625 47.875 C-3.16174805 47.84019531 -3.16174805 47.84019531 -4.28320312 47.8046875 C-6.41015625 47.6796875 -6.41015625 47.6796875 -10 47 C-11.49609375 44.9453125 -11.49609375 44.9453125 -12 43 C-11.34 42.01 -10.68 41.02 -10 40 C-5.05 39.505 -5.05 39.505 0 39 C0 26.13 0 13.26 0 0 Z " fill="#877F77" transform="translate(158,303)"/>
<path d="M0 0 C7.62373793 0.56804322 15.21304515 1.32090218 22.80029297 2.25146484 C35.27514271 3.7128454 47.77044835 4.1346109 60.31737328 4.13809967 C64.10814986 4.14252525 67.89877163 4.17356745 71.68945312 4.19921875 C76.46693439 4.22965459 81.2441408 4.25229706 86.02172852 4.25048828 C89.93084144 4.24970153 93.83916509 4.27300787 97.74807167 4.3123703 C99.2259701 4.32280028 100.70395984 4.32437644 102.18187523 4.31671906 C104.23956061 4.30709553 106.29482827 4.32825974 108.35229492 4.35644531 C109.51871017 4.36009094 110.68512543 4.36373657 111.8868866 4.36749268 C115.88549544 5.17991068 117.40648478 6.93959471 120 10 C119.21625 10.144375 118.4325 10.28875 117.625 10.4375 C115.03578982 10.87798925 115.03578982 10.87798925 113 12 C112.01 11.34 111.02 10.68 110 10 C106.9829297 9.76864902 104.05130888 9.6504394 101.03125 9.62109375 C100.13187714 9.60450714 99.23250427 9.58792053 98.30587769 9.5708313 C96.37478532 9.53615765 94.44361181 9.50578976 92.51239014 9.47927856 C88.47463092 9.42327925 84.43739847 9.34509582 80.3999939 9.26811218 C78.39010583 9.23002541 76.38019725 9.19300591 74.37026978 9.15705872 C49.26262129 8.70748207 23.80446249 8.23930814 -1 4 C-0.67 2.68 -0.34 1.36 0 0 Z " fill="#CDBBAD" transform="translate(103,282)"/>
<path d="M0 0 C2.31 0 4.62 0 7 0 C7.81648895 11.02260076 8.1080946 22.00918485 8.125 33.0625 C8.12951172 34.31772461 8.13402344 35.57294922 8.13867188 36.86621094 C8.13673828 38.03571289 8.13480469 39.20521484 8.1328125 40.41015625 C8.13168457 41.46340088 8.13055664 42.51664551 8.12939453 43.60180664 C8 46 8 46 7 47 C4.17583618 47.12663091 1.38705207 47.18520548 -1.4375 47.1875 C-2.22705078 47.19974609 -3.01660156 47.21199219 -3.83007812 47.22460938 C-5.88807435 47.22987279 -7.94562009 47.12206285 -10 47 C-10.66 46.34 -11.32 45.68 -12 45 C-11.67 43.35 -11.34 41.7 -11 40 C-5.555 39.505 -5.555 39.505 0 39 C0 26.13 0 13.26 0 0 Z " fill="#857D76" transform="translate(186,303)"/>
<path d="M0 0 C0.99 0 1.98 0 3 0 C3.33 1.65 3.66 3.3 4 5 C6.31 5.33 8.62 5.66 11 6 C11 4.68 11 3.36 11 2 C11.66 2 12.32 2 13 2 C13.33 3.65 13.66 5.3 14 7 C12.68 7.33 11.36 7.66 10 8 C9.95101562 9.02996094 9.90203125 10.05992187 9.8515625 11.12109375 C9.45289615 18.93532419 8.91631882 26.72122599 8.0625 34.5 C7.95059326 35.60299438 7.95059326 35.60299438 7.83642578 36.72827148 C7.63088053 38.49558237 7.32481371 40.25067651 7 42 C6.01 42.495 6.01 42.495 5 43 C4.34 33.76 3.68 24.52 3 15 C3.165 17.990625 3.33 20.98125 3.5 24.0625 C3.95474373 32.71971049 4.11820191 41.33185961 4 50 C3.34 50 2.68 50 2 50 C0.55713994 45.28650648 -0.41788374 40.79421666 -1.03515625 35.88671875 C-1.16053017 34.90503471 -1.16053017 34.90503471 -1.28843689 33.90351868 C-1.55154613 31.83211735 -1.80699794 29.75985174 -2.0625 27.6875 C-2.23716055 26.31048722 -2.41228737 24.9335335 -2.58789062 23.55664062 C-3.49627004 16.38086243 -4.33678655 9.20290656 -5 2 C-4.01 2 -3.02 2 -2 2 C-2 2.99 -2 3.98 -2 5 C-1.34 5 -0.68 5 0 5 C0 3.35 0 1.7 0 0 Z " fill="#120C0C" transform="translate(244,287)"/>
<path d="M0 0 C5.625 -0.25 5.625 -0.25 9 2 C9.0625 4.25 9.0625 4.25 8 7 C1.26704409 11.87500099 -8.00571597 12.64079287 -16 14 C-17.299375 14.226875 -18.59875 14.45375 -19.9375 14.6875 C-22.64217913 14.94900123 -25.31865331 15.04364876 -28.03515625 15.0546875 C-29.13259155 15.05915894 -29.13259155 15.05915894 -30.25219727 15.0637207 C-33.50181019 15.06195595 -36.75058088 15.03549123 -40 15 C-40 12.69 -40 10.38 -40 8 C-35.4285256 7.30584573 -30.85699044 6.61209339 -26.28540039 5.91870117 C-24.73264956 5.68313255 -23.17991491 5.44745723 -21.62719727 5.21166992 C-19.38562272 4.871296 -17.1439888 4.53131548 -14.90234375 4.19140625 C-13.87378517 4.03509483 -13.87378517 4.03509483 -12.82444763 3.87562561 C-8.55254939 3.22833868 -4.27795523 2.60557752 0 2 C0 1.34 0 0.68 0 0 Z " fill="#0F0809" transform="translate(155,111)"/>
<path d="M0 0 C0.33 1.32 0.66 2.64 1 4 C2.2375 3.71125 3.475 3.4225 4.75 3.125 C24.53211299 -0.77021212 45.98670707 -1.61463988 66 1 C66.495 1.495 66.495 1.495 67 2 C68.56777051 2.0630269 70.13831981 2.05929978 71.70703125 2.02734375 C73.16798218 2.00667847 73.16798218 2.00667847 74.65844727 1.9855957 C75.69928467 1.96972412 76.74012207 1.95385254 77.8125 1.9375 C99.46291064 1.78288983 99.46291064 1.78288983 108 7 C108 7.66 108 8.32 108 9 C101.79485526 11.13619737 96.57315478 12.36517527 90 12 C90 11.34 90 10.68 90 10 C83.62482267 7.68920307 77.17703564 6.42072187 70.5 5.375 C69.71778076 5.25213623 68.93556152 5.12927246 68.12963867 5.00268555 C45.16030483 1.53782398 22.69673788 2.18317599 0.11547852 7.60742188 C-3.28730766 8.23889102 -6.54847015 8.12551018 -10 8 C-7 6 -7 6 -3.875 4.5625 C-0.7093822 3.26570231 -0.7093822 3.26570231 0 0 Z " fill="#A07D4A" transform="translate(164,114)"/>
<path d="M0 0 C0.763125 0.01804687 1.52625 0.03609375 2.3125 0.0546875 C2.869375 0.07789062 3.42625 0.10109375 4 0.125 C4 2.435 4 4.745 4 7.125 C3.40050537 7.23046143 2.80101074 7.33592285 2.18334961 7.44458008 C-0.5668972 7.93350695 -3.31462939 8.4353974 -6.0625 8.9375 C-7.00544922 9.10314453 -7.94839844 9.26878906 -8.91992188 9.43945312 C-14.32126969 10.43691457 -19.10535093 11.59465903 -24 14.125 C-24.33 14.785 -24.66 15.445 -25 16.125 C-22.69 16.785 -20.38 17.445 -18 18.125 C-20.02161554 21.15742331 -20.87018422 21.83310546 -24 23.375 C-25.051875 23.90867187 -25.051875 23.90867187 -26.125 24.453125 C-27.053125 24.78570312 -27.053125 24.78570312 -28 25.125 C-31.00416858 23.62291571 -31.37419381 21.32493581 -32.45703125 18.2578125 C-33.22807516 15.22910764 -32.96181134 13.07913484 -32 10.125 C-29.41553158 6.49734614 -25.3870211 5.74856353 -21.3125 4.5625 C-20.62994141 4.35431641 -19.94738281 4.14613281 -19.24414062 3.93164062 C-5.6100781 -0.17531494 -5.6100781 -0.17531494 0 0 Z " fill="#EFE5DA" transform="translate(109,103.875)"/>
<path d="M0 0 C3.52924902 2.05753789 5.40133724 4.3241494 7.015625 8.0625 C8.20471895 12.81887581 7.91662752 17.63954137 7.625 22.5 C5.95888095 22.542721 4.29117115 22.54063832 2.625 22.5 C0.94292448 20.81792448 1.46121409 18.55314773 1.375 16.25 C1.03185398 12.42566246 0.72004262 10.65636043 -1.3125 7.3125 C-5.67683363 4.72952704 -9.42321601 4.60411803 -14.375 5.5 C-17.76988422 7.55107588 -19.17823081 9.20484621 -21.375 12.5 C-21.82894552 14.77912938 -21.82894552 14.77912938 -22 17.1875 C-22.07476562 17.99574219 -22.14953125 18.80398437 -22.2265625 19.63671875 C-22.27554688 20.25160156 -22.32453125 20.86648437 -22.375 21.5 C-24.03114657 21.88218767 -25.69957024 22.21395102 -27.375 22.5 C-28.375 21.5 -28.375 21.5 -28.4296875 19.27734375 C-28.00843387 12.61970483 -27.06535916 7.45871304 -22.375 2.5 C-15.84273172 -2.62420156 -7.57054816 -3.15204979 0 0 Z " fill="#1D1513" transform="translate(156.375,173.5)"/>
<path d="M0 0 C3.48381806 2.06024559 5.35401431 4.3592963 6.953125 8.0625 C8.14221895 12.81887581 7.85412752 17.63954137 7.5625 22.5 C5.5825 22.5 3.6025 22.5 1.5625 22.5 C1.50191406 21.74074219 1.44132812 20.98148438 1.37890625 20.19921875 C1.25322266 18.70841797 1.25322266 18.70841797 1.125 17.1875 C1.04378906 16.20136719 0.96257812 15.21523437 0.87890625 14.19921875 C0.50467142 11.00667226 0.18346279 9.08508494 -2.1953125 6.84375 C-6.116948 4.49350155 -10.01924056 4.79503285 -14.4375 5.5 C-18.58790153 7.68839353 -19.85261891 8.91659567 -21.46484375 13.28125 C-22.22770274 16.00926186 -22.88303649 18.72281874 -23.4375 21.5 C-24.7575 21.5 -26.0775 21.5 -27.4375 21.5 C-28.29778391 8.61485884 -28.29778391 8.61485884 -25.375 4.9375 C-17.53821499 -1.56536415 -9.90619069 -4.13990059 0 0 Z " fill="#1C1614" transform="translate(222.4375,174.5)"/>
<path d="M0 0 C0 1.65 0 3.3 0 5 C-11.05096802 11.11516017 -11.05096802 11.11516017 -18.375 9.46484375 C-23.59649592 8.29156119 -26.97500681 7.54878381 -32 10 C-32.99 10.66 -33.98 11.32 -35 12 C-37.3046875 12.30078125 -37.3046875 12.30078125 -39.875 12.3125 C-40.71804687 12.32925781 -41.56109375 12.34601563 -42.4296875 12.36328125 C-45 12 -45 12 -47.42578125 10.4609375 C-50.7105563 8.59674043 -52.60344229 8.86415237 -56.3125 9.3125 C-57.38113281 9.43238281 -58.44976562 9.55226562 -59.55078125 9.67578125 C-60.35902344 9.78277344 -61.16726562 9.88976562 -62 10 C-61.34 9.67 -60.68 9.34 -60 9 C-60 8.34 -60 7.68 -60 7 C-59.01 6.67 -58.02 6.34 -57 6 C-56.67 5.34 -56.34 4.68 -56 4 C-53.9163691 4.14151828 -51.83310062 4.28837936 -49.75 4.4375 C-48.58984375 4.51871094 -47.4296875 4.59992188 -46.234375 4.68359375 C-43 5 -43 5 -40.80859375 5.62109375 C-37.53019915 6.30792804 -34.88859696 4.41704757 -32 3 C-31.67 2.67 -31.34 2.34 -31 2 C-24.83329522 1.54826524 -19.84452171 2.00754942 -14 4 C-8.78221178 3.72537957 -4.63659047 0 0 0 Z " fill="#B0A8A4" transform="translate(266,144)"/>
<path d="M0 0 C2 0 2 0 3.9375 1.8125 C4.9584375 2.8953125 4.9584375 2.8953125 6 4 C6.5775 4.5775 7.155 5.155 7.75 5.75 C8.1625 6.1625 8.575 6.575 9 7 C8.01 7.33 7.02 7.66 6 8 C6 8.66 6 9.32 6 10 C8.475 10.495 8.475 10.495 11 11 C10.73991338 14.72790821 10.15299098 16.78007546 8 19.875 C3.94151026 22.74976357 0.81765499 22.47231912 -4 22 C-4 21.34 -4 20.68 -4 20 C-4.639375 19.71125 -5.27875 19.4225 -5.9375 19.125 C-8 18 -8 18 -9 16 C-8.979375 15.05125 -8.95875 14.1025 -8.9375 13.125 C-8.99919206 10.04039681 -9.41229856 8.58001484 -11 6 C-10.45730469 5.81824219 -9.91460937 5.63648438 -9.35546875 5.44921875 C-8.28232422 5.07216797 -8.28232422 5.07216797 -7.1875 4.6875 C-6.47980469 4.44386719 -5.77210938 4.20023438 -5.04296875 3.94921875 C-2.85109073 2.93081271 -1.67201868 1.71034576 0 0 Z " fill="#DECEC1" transform="translate(176,219)"/>
<path d="M0 0 C-1.32 0.99 -2.64 1.98 -4 3 C-2.68 3.33 -1.36 3.66 0 4 C-2.8447933 5.89652887 -3.98572418 6.34905051 -7.2109375 6.8515625 C-8.03819336 6.98071045 -8.86544922 7.1098584 -9.71777344 7.24291992 C-10.5946582 7.36900635 -11.47154297 7.49509277 -12.375 7.625 C-13.71353027 7.82283081 -13.71353027 7.82283081 -15.07910156 8.0246582 C-22.10730864 9.00417499 -28.90156446 9.34974044 -36 9 C-36.33 7.35 -36.66 5.7 -37 4 C-36.21238281 3.87882812 -35.42476563 3.75765625 -34.61328125 3.6328125 C-32.97939453 3.38144531 -32.97939453 3.38144531 -31.3125 3.125 C-30.12527344 2.94453125 -28.93804687 2.7640625 -27.71484375 2.578125 C-25.35009098 2.2101088 -22.98768899 1.82639394 -20.62890625 1.421875 C-13.67807191 0.25366755 -7.04639542 -0.25417859 0 0 Z " fill="#A8A39F" transform="translate(151,109)"/>
<path d="M0 0 C3.21818586 1.72183193 6.1751245 3.68757357 9 6 C9 6.33 9 6.66 9 7 C7.02 7 5.04 7 3 7 C3.01160156 7.59167969 3.02320313 8.18335938 3.03515625 8.79296875 C3.08322386 13.00231785 3.06006883 16.8922333 2 21 C0.68 21 -0.64 21 -2 21 C-2 16.71 -2 12.42 -2 8 C-5.3 8.33 -8.6 8.66 -12 9 C-11.52 3.6 -11.52 3.6 -9.375 1.125 C-5.87454139 -0.53311197 -3.85967224 -0.56945984 0 0 Z " fill="#EAB316" transform="translate(251,270)"/>
<path d="M0 0 C0.66 0 1.32 0 2 0 C2.33 1.65 2.66 3.3 3 5 C1.68 5.33 0.36 5.66 -1 6 C-1.04898438 7.02996094 -1.09796875 8.05992187 -1.1484375 9.12109375 C-1.54710385 16.93532419 -2.08368118 24.72122599 -2.9375 32.5 C-3.01210449 33.23532959 -3.08670898 33.97065918 -3.16357422 34.72827148 C-3.36911947 36.49558237 -3.67518629 38.25067651 -4 40 C-4.99 40.495 -4.99 40.495 -6 41 C-6.05534912 40.01604248 -6.11069824 39.03208496 -6.16772461 38.01831055 C-6.37419378 34.36718674 -6.58606156 30.71639276 -6.79956055 27.06567383 C-6.89120373 25.4856805 -6.98138329 23.90560158 -7.07006836 22.32543945 C-7.19780797 20.05395796 -7.33081073 17.7828365 -7.46484375 15.51171875 C-7.50343002 14.80536789 -7.5420163 14.09901703 -7.58177185 13.3712616 C-7.76345323 10.36888353 -8.04327539 7.87017384 -9 5 C-8.34 4.34 -7.68 3.68 -7 3 C-3.375 3.375 -3.375 3.375 0 4 C0 2.68 0 1.36 0 0 Z " fill="#0B0506" transform="translate(255,289)"/>
<path d="M0 0 C2.88955888 2.88955888 2.46079884 5.96480001 2.6328125 9.8515625 C2.67437469 10.62559418 2.71593689 11.39962585 2.75875854 12.19711304 C2.88965449 14.67271021 3.00747099 17.1487357 3.125 19.625 C3.21137985 21.30212783 3.29860875 22.97921217 3.38671875 24.65625 C3.60100623 28.77039308 3.80356483 32.88496746 4 37 C5.32 37.66 6.64 38.32 8 39 C7.54775239 44.91492272 6.8417395 50.35199888 5 56 C3.68 56 2.36 56 1 56 C-0.38226016 53.23547967 -0.09525387 50.9538637 -0.0625 47.875 C-0.05347656 46.77929688 -0.04445312 45.68359375 -0.03515625 44.5546875 C-0.02355469 43.71164062 -0.01195312 42.86859375 0 42 C0.66 42 1.32 42 2 42 C1.93941406 40.97640381 1.87882813 39.95280762 1.81640625 38.89819336 C1.5907114 35.07588424 1.3677162 31.25342146 1.14550781 27.4309082 C1.04923147 25.78112592 0.95223737 24.13138536 0.85449219 22.48168945 C0.71357421 20.1011822 0.57529625 17.7205335 0.4375 15.33984375 C0.39375244 14.61039047 0.35000488 13.88093719 0.30493164 13.12937927 C0.05417458 8.74444179 -0.04031822 4.39216656 0 0 Z " fill="#2E2623" transform="translate(246,295)"/>
<path d="M0 0 C0.33 1.32 0.66 2.64 1 4 C2.2375 3.71125 3.475 3.4225 4.75 3.125 C17.07743236 0.69765748 29.64037411 -0.1762862 42.1875 -0.1875 C43.45944214 -0.1887085 43.45944214 -0.1887085 44.75708008 -0.18994141 C59.94498221 -0.05501779 59.94498221 -0.05501779 63 3 C61.97865967 2.98428955 60.95731934 2.9685791 59.9050293 2.95239258 C32.10341893 2.4660582 32.10341893 2.4660582 4.68579102 6.54345703 C3.89873779 6.72505371 3.11168457 6.90665039 2.30078125 7.09375 C1.23210815 7.34801758 1.23210815 7.34801758 0.1418457 7.60742188 C-3.27179663 8.23310715 -6.53846015 8.12587418 -10 8 C-7 6 -7 6 -3.875 4.5625 C-0.7093822 3.26570231 -0.7093822 3.26570231 0 0 Z " fill="#B2955B" transform="translate(164,114)"/>
<path d="M0 0 C1.32 0 2.64 0 4 0 C4.66 4.62 5.32 9.24 6 14 C5.34 13.34 4.68 12.68 4 12 C1.00640882 11.79427824 1.00640882 11.79427824 -2.375 11.9375 C-7.05901285 12.05909401 -10.77761494 12.11119253 -15 10 C-15 8.68 -15 7.36 -15 6 C-12.19018796 4.12679197 -10.20858081 3.9442773 -6.9375 4.125 C-5.638125 4.08375 -4.33875 4.0425 -3 4 C-1.22590192 2.07977297 -1.22590192 2.07977297 0 0 Z " fill="#D9C5B2" transform="translate(235,288)"/>
<path d="M0 0 C2.375 0.25 2.375 0.25 5 1 C6.3125 3.0625 6.3125 3.0625 7 5 C8.65 5 10.3 5 12 5 C12.66 3.68 13.32 2.36 14 1 C15.98 1 17.96 1 20 1 C19.73991338 4.72790821 19.15299098 6.78007546 17 9.875 C12.94151026 12.74976357 9.81765499 12.47231912 5 12 C5 11.34 5 10.68 5 10 C4.360625 9.71125 3.72125 9.4225 3.0625 9.125 C1 8 1 8 0 6 C-0.039992 4.00039988 -0.04346799 1.99952758 0 0 Z " fill="#8E8277" transform="translate(167,229)"/>
<path d="M0 0 C-0.64066406 -0.03480469 -1.28132813 -0.06960937 -1.94140625 -0.10546875 C-7.78994089 -0.28850784 -11.88580043 0.06205556 -17 3 C-17.33 3.99 -17.66 4.98 -18 6 C-17.34 6 -16.68 6 -16 6 C-17.23534702 9.70604107 -19.19735224 11.33748463 -22 14 C-23.87824891 15.87824891 -23.39102397 19.03935276 -23.5625 21.5625 C-23.68818359 23.35880859 -23.68818359 23.35880859 -23.81640625 25.19140625 C-23.87699219 26.11824219 -23.93757812 27.04507813 -24 28 C-22.68 28.33 -21.36 28.66 -20 29 C-20.639375 29.12375 -21.27875 29.2475 -21.9375 29.375 C-22.618125 29.58125 -23.29875 29.7875 -24 30 C-24.33 30.66 -24.66 31.32 -25 32 C-25.33 31.67 -25.66 31.34 -26 31 C-25.90913549 28.46458702 -25.7629055 25.96445216 -25.5625 23.4375 C-25.51029297 22.72658203 -25.45808594 22.01566406 -25.40429688 21.28320312 C-25.27425893 19.52178001 -25.13773103 17.76083827 -25 16 C-25.66 16.33 -26.32 16.66 -27 17 C-27.46751788 19.35599235 -27.46751788 19.35599235 -27.625 22.0625 C-27.69976562 22.98160156 -27.77453125 23.90070313 -27.8515625 24.84765625 C-27.90054688 25.55792969 -27.94953125 26.26820313 -28 27 C-28.33 27 -28.66 27 -29 27 C-29.31461385 19.90370975 -29.44572039 14.31715405 -26 8 C-25.34 8 -24.68 8 -24 8 C-23.79375 7.443125 -23.5875 6.88625 -23.375 6.3125 C-21.08061134 2.45375543 -17.89531547 -0.3516026 -13.625 -1.8125 C-3.77419355 -2.51612903 -3.77419355 -2.51612903 0 0 Z " fill="#EBD7B3" transform="translate(219,168)"/>
<path d="M0 0 C2.13586678 3.20380017 2.23132175 4.01939967 2.125 7.6875 C2.10695312 8.49574219 2.08890625 9.30398437 2.0703125 10.13671875 C2.03550781 11.05904297 2.03550781 11.05904297 2 12 C2.55461914 11.98952637 3.10923828 11.97905273 3.68066406 11.96826172 C6.20372959 11.92657996 8.72672253 11.90063562 11.25 11.875 C12.55904297 11.84986328 12.55904297 11.84986328 13.89453125 11.82421875 C14.73886719 11.81777344 15.58320313 11.81132813 16.453125 11.8046875 C17.22817383 11.79421387 18.00322266 11.78374023 18.80175781 11.77294922 C21.25883539 12.02673444 22.87311542 12.77555848 25 14 C24.4375 16.375 24.4375 16.375 23 19 C19.09906441 20.58927005 16.02216538 21.60886615 12 20 C11.505 17.525 11.505 17.525 11 15 C8.36 14.34 5.72 13.68 3 13 C3 13.66 3 14.32 3 15 C0.08517222 15.80967438 -1.46113217 16.21845993 -4.3125 15.0625 C-4.869375 14.711875 -5.42625 14.36125 -6 14 C-5.01 13.34 -4.02 12.68 -3 12 C-3.66 11.34 -4.32 10.68 -5 10 C-3.02 9.67 -1.04 9.34 1 9 C0.67 6.03 0.34 3.06 0 0 Z " fill="#948F8B" transform="translate(152,98)"/>
<path d="M0 0 C6.01408939 0.08779693 11.08255949 2.04133712 16.5625 4.375 C16.2325 3.055 15.9025 1.735 15.5625 0.375 C18.52425123 0.98777612 19.94308783 1.62872522 22.5625 3.375 C22.8925 4.365 23.2225 5.355 23.5625 6.375 C24.01625 6.7875 24.47 7.2 24.9375 7.625 C28.1805368 11.11750117 29.49391995 15.11769914 29.75 19.8125 C29.688125 20.658125 29.62625 21.50375 29.5625 22.375 C30.8825 22.705 32.2025 23.035 33.5625 23.375 C31.9125 23.375 30.2625 23.375 28.5625 23.375 C27.9025 20.075 27.2425 16.775 26.5625 13.375 C25.5725 13.375 24.5825 13.375 23.5625 13.375 C23.5625 15.355 23.5625 17.335 23.5625 19.375 C21.76029048 16.67168571 20.20464878 13.94512082 18.66015625 11.09375 C15.32153074 5.86600899 10.38360997 3.97779877 4.5625 2.375 C0.86438803 2.07225784 -2.73810242 2.12180929 -6.4375 2.375 C-4.01874153 -0.04375847 -3.32616956 0.05321871 0 0 Z " fill="#EDBB31" transform="translate(211.4375,164.625)"/>
<path d="M0 0 C0 1.65 0 3.3 0 5 C-8.78601656 9.86182734 -13.78669193 10.65516013 -23.53515625 8.4375 C-26.07448993 7.98677833 -28.42660842 7.92660559 -31 8 C-29.9375 5.5 -29.9375 5.5 -28 3 C-24.21386577 2.59434276 -21.60923962 2.79692013 -18 4 C-12.15618943 4.49523818 -8.74725187 3.79125207 -3.6640625 0.875 C-2 0 -2 0 0 0 Z " fill="#989494" transform="translate(266,144)"/>
<path d="M0 0 C0.96429932 -0.00394775 1.92859863 -0.00789551 2.92211914 -0.01196289 C3.96360107 -0.00285889 5.00508301 0.00624512 6.078125 0.015625 C7.67805298 0.02251343 7.67805298 0.02251343 9.31030273 0.02954102 C22.38443381 0.17511979 35.40095867 1.31865694 48.328125 3.265625 C48.328125 3.595625 48.328125 3.925625 48.328125 4.265625 C41.0170286 5.17142455 33.69590071 5.67831754 26.328125 5.265625 C25.833125 4.770625 25.833125 4.770625 25.328125 4.265625 C22.9569276 4.0347098 20.6077288 3.86249185 18.23046875 3.73046875 C17.16718102 3.66600304 17.16718102 3.66600304 16.08241272 3.60023499 C13.81038618 3.4634959 11.53803935 3.33324427 9.265625 3.203125 C7.72849025 3.11175402 6.19138042 3.01996266 4.65429688 2.92773438 C0.87917859 2.70214585 -2.89623942 2.4823762 -6.671875 2.265625 C-4.18499658 -0.22125342 -3.42907656 0.0090477 0 0 Z " fill="#97908A" transform="translate(204.671875,111.734375)"/>
<path d="M0 0 C0.66 0 1.32 0 2 0 C2.0272415 1.41655793 2.04650467 2.83327045 2.0625 4.25 C2.07410156 5.03890625 2.08570313 5.8278125 2.09765625 6.640625 C2 9 2 9 1.53125 10.84375 C0.76404307 13.95770752 0.64469865 17.05322076 0.4375 20.25 C0.31181641 22.14492188 0.31181641 22.14492188 0.18359375 24.078125 C0.12300781 25.04234375 0.06242188 26.0065625 0 27 C0.99 27 1.98 27 3 27 C2.74322411 28.75211782 2.46897047 30.50167936 2.1875 32.25 C2.03667969 33.22453125 1.88585937 34.1990625 1.73046875 35.203125 C0.96781736 38.12322338 -0.03774101 39.74205815 -2 42 C-2 40.68 -2 39.36 -2 38 C-2.99 37.67 -3.98 37.34 -5 37 C-4.87447754 36.2874707 -4.74895508 35.57494141 -4.61962891 34.84082031 C-3.29980708 27.16570186 -2.26997669 19.4851557 -1.375 11.75 C-1.17390625 10.04263672 -1.17390625 10.04263672 -0.96875 8.30078125 C-0.64326333 5.53414454 -0.3203825 2.7672316 0 0 Z " fill="#2E2724" transform="translate(254,295)"/>
<path d="M0 0 C0 3.6148488 -1.17946725 4.86412056 -3.51171875 7.51171875 C-9.08236518 13.08236518 -14.98436357 15.09627865 -22.6875 15.1875 C-25.84732955 15.16564779 -27.98056021 15.00647993 -31 14 C-31 12.35 -31 10.7 -31 9 C-30.11957031 8.96261719 -29.23914063 8.92523438 -28.33203125 8.88671875 C-26.58986328 8.78810547 -26.58986328 8.78810547 -24.8125 8.6875 C-23.08966797 8.60048828 -23.08966797 8.60048828 -21.33203125 8.51171875 C-17.839827 7.97540133 -15.94115339 6.86499425 -13 5 C-12.34 5.33 -11.68 5.66 -11 6 C-13.54456151 8.96865509 -16.48994665 10.3619751 -20 12 C-13.66378311 11.6665149 -9.63875673 10.44136283 -5 6 C-3.21037181 3.38142305 -3.21037181 3.38142305 -2 1 C-1.34 0.67 -0.68 0.34 0 0 Z " fill="#EBB620" transform="translate(237,203)"/>
<path d="M0 0 C12.66970387 0.59453303 12.66970387 0.59453303 18 4 C18 4.66 18 5.32 18 6 C11.79485526 8.13619737 6.57315478 9.36517527 0 9 C0.66 8.34 1.32 7.68 2 7 C2 6.01 2 5.02 2 4 C1.01 3.67 0.02 3.34 -1 3 C-0.67 2.01 -0.34 1.02 0 0 Z " fill="#8C8278" transform="translate(254,117)"/>
<path d="M0 0 C0.33 0.99 0.66 1.98 1 3 C1.66 3.33 2.32 3.66 3 4 C2.34 5.32 1.68 6.64 1 8 C0.34 8 -0.32 8 -1 8 C-1 8.66 -1 9.32 -1 10 C-1.99 10 -2.98 10 -4 10 C-4 9.34 -4 8.68 -4 8 C-11.33763707 6.82597807 -18.58165418 6.90622877 -26 7 C-23.54593984 4.54593984 -22.4528512 4.61618785 -19.0625 4.3125 C-18.18722656 4.22613281 -17.31195313 4.13976562 -16.41015625 4.05078125 C-14 4 -14 4 -11 5 C-10.67 4.01 -10.34 3.02 -10 2 C-6.7 1.34 -3.4 0.68 0 0 Z " fill="#E2CBAB" transform="translate(231,155)"/>
<path d="M0 0 C0.33 0.66 0.66 1.32 1 2 C-2.00583118 4.00388745 -2.89795392 4.26410735 -6.3125 4.5 C-10.13370052 4.8360665 -13.36399644 5.75843781 -17 7 C-17.66 6.67 -18.32 6.34 -19 6 C-18.9375 4.1875 -18.9375 4.1875 -18 2 C-12.23320939 -1.63558539 -6.57706803 -1.51340839 0 0 Z " fill="#F0E6D9" transform="translate(220,168)"/>
<path d="M0 0 C0.763125 0.33 1.52625 0.66 2.3125 1 C-0.69781744 1.93423645 -1.55400268 2.04449911 -4.6875 1 C-8.14519191 0.41657647 -8.14519191 0.41657647 -11.6875 1 C-14.05977618 3.84968468 -14.05977618 3.84968468 -15.6875 7 C-18.21225462 8.26237731 -19.99950466 8.09856404 -22.8125 8.0625 C-23.72257813 8.05347656 -24.63265625 8.04445312 -25.5703125 8.03515625 C-26.26898438 8.02355469 -26.96765625 8.01195312 -27.6875 8 C-28.0175 7.01 -28.3475 6.02 -28.6875 5 C-21.9375 4 -21.9375 4 -19.6875 4 C-19.6875 3.34 -19.6875 2.68 -19.6875 2 C-14.34721884 -2.78783828 -6.45931857 -1.75167961 0 0 Z " fill="#A6A09D" transform="translate(249.6875,147)"/>
<path d="M0 0 C0.7425 0.78375 1.485 1.5675 2.25 2.375 C4.54433318 4.56504531 6.12158858 5.82731386 9 7 C8.79375 7.78375 8.5875 8.5675 8.375 9.375 C8.25125 10.24125 8.1275 11.1075 8 12 C8.66 12.66 9.32 13.32 10 14 C8.02 14.99 8.02 14.99 6 16 C6 15.34 6 14.68 6 14 C3.20127563 16.52788007 1.54226981 18.20411134 1 22 C-0.32 22 -1.64 22 -3 22 C-2.34 19.03 -1.68 16.06 -1 13 C0.98 13 2.96 13 5 13 C4.67 10.69 4.34 8.38 4 6 C2.68 6 1.36 6 0 6 C0 4.02 0 2.04 0 0 Z M3 3 C5 4 5 4 5 4 Z " fill="#E1C69F" transform="translate(241,181)"/>
<path d="M0 0 C-0.8125 3.4375 -0.8125 3.4375 -2 7 C-2.99 7.33 -3.98 7.66 -5 8 C-5 8.66 -5 9.32 -5 10 C-8.181798 8.93940067 -11.0173094 7.52448631 -14 6 C-13.375 4.125 -13.375 4.125 -12 2 C-7.92086433 0.14584742 -4.4471735 -0.21177017 0 0 Z " fill="#9D958F" transform="translate(98,114)"/>
<path d="M0 0 C0.33 0.99 0.66 1.98 1 3 C-2.37454158 9.07417485 -6.47481248 12.53221187 -13 15 C-15.50913279 15.35779224 -17.45709432 15.27052188 -20 15 C-17.65515074 13.0571249 -15.38390422 11.22394413 -12.75 9.6875 C-8.28484051 6.94751577 -3.7159677 3.7159677 0 0 Z " fill="#F0B30B" transform="translate(235,201)"/>
<path d="M0 0 C-1.32 0.99 -2.64 1.98 -4 3 C-2.68 3.33 -1.36 3.66 0 4 C-3.16240582 6.10827055 -4.50657469 6.33817465 -8.1875 6.625 C-9.08855469 6.69976562 -9.98960937 6.77453125 -10.91796875 6.8515625 C-11.60503906 6.90054688 -12.29210937 6.94953125 -13 7 C-12.67 5.68 -12.34 4.36 -12 3 C-12.66 2.67 -13.32 2.34 -14 2 C-14.33 2.99 -14.66 3.98 -15 5 C-19.455 4.01 -19.455 4.01 -24 3 C-24 2.67 -24 2.34 -24 2 C-15.92437827 0.56205146 -8.2056037 -0.29599372 0 0 Z " fill="#9B9592" transform="translate(151,109)"/>
<path d="M0 0 C0 4.29 0 8.58 0 13 C1.32 13 2.64 13 4 13 C4 11.35 4 9.7 4 8 C5.65 8.33 7.3 8.66 9 9 C9 10.65 9 12.3 9 14 C9.66 14 10.32 14 11 14 C11 13.01 11 12.02 11 11 C12.32 11.33 13.64 11.66 15 12 C14.67 13.65 14.34 15.3 14 17 C13.34 16.34 12.68 15.68 12 15 C10.68 15 9.36 15 8 15 C8 13.68 8 12.36 8 11 C7.34 11 6.68 11 6 11 C6 12.32 6 13.64 6 15 C3.69 15 1.38 15 -1 15 C-1 10.38 -1 5.76 -1 1 C-2.98 1.99 -2.98 1.99 -5 3 C-5.99 2.34 -6.98 1.68 -8 1 C-5 0 -5 0 0 0 Z " fill="#BD9A48" transform="translate(249,278)"/>
<path d="M0 0 C7.36894815 -0.05058145 14.73785178 -0.08568333 22.10693359 -0.10986328 C24.61541415 -0.11994011 27.12388292 -0.13360179 29.63232422 -0.15087891 C33.23147488 -0.17505337 36.83047067 -0.18646612 40.4296875 -0.1953125 C41.55680145 -0.20563507 42.68391541 -0.21595764 43.84518433 -0.22659302 C44.88611237 -0.22674408 45.92704041 -0.22689514 46.99951172 -0.22705078 C47.91884491 -0.231492 48.8381781 -0.23593323 49.78536987 -0.24050903 C52 0 52 0 54 2 C53.21625 2.144375 52.4325 2.28875 51.625 2.4375 C49.03578982 2.87798925 49.03578982 2.87798925 47 4 C46.01 3.34 45.02 2.68 44 2 C41.92263083 1.6742279 41.92263083 1.6742279 39.62036133 1.68115234 C38.73967484 1.66128265 37.85898834 1.64141296 36.95161438 1.62094116 C36.00465195 1.60938995 35.05768951 1.59783875 34.08203125 1.5859375 C33.10965012 1.56657135 32.13726898 1.5472052 31.13542175 1.5272522 C28.02787056 1.4674445 24.92028235 1.4210661 21.8125 1.375 C19.706364 1.33682133 17.60024363 1.29776967 15.49414062 1.2578125 C10.32955395 1.16174189 5.16489418 1.07771509 0 1 C0 0.67 0 0.34 0 0 Z " fill="#D3C1B0" transform="translate(169,290)"/>
<path d="M0 0 C8.24669604 -0.63436123 8.24669604 -0.63436123 11.375 2 C11.91125 2.66 12.4475 3.32 13 4 C13.99 4 14.98 4 16 4 C16 4.66 16 5.32 16 6 C17.32 6.33 18.64 6.66 20 7 C20 7.99 20 8.98 20 10 C18.68 9.67 17.36 9.34 16 9 C16 8.34 16 7.68 16 7 C15.2575 6.731875 14.515 6.46375 13.75 6.1875 C11 5 11 5 9 3.4375 C6.67537209 1.76667369 4.80890941 1.39012631 2 1 C1.73067479 5.65052872 1.73067479 5.65052872 3 10 C1.35 10 -0.3 10 -2 10 C-1.67 8.35 -1.34 6.7 -1 5 C-1.66 4.67 -2.32 4.34 -3 4 C-2.34 4 -1.68 4 -1 4 C-0.67 2.68 -0.34 1.36 0 0 Z " fill="#CEBDAE" transform="translate(235,252)"/>
<path d="M0 0 C2.3125 0.1875 2.3125 0.1875 5 1 C6.6875 3.3125 6.6875 3.3125 8 6 C8.391875 6.763125 8.78375 7.52625 9.1875 8.3125 C9.455625 8.869375 9.72375 9.42625 10 10 C7.8125 10.8125 7.8125 10.8125 5 11 C2.1875 8.9375 2.1875 8.9375 0 6 C-0.3125 2.6875 -0.3125 2.6875 0 0 Z " fill="#87796C" transform="translate(167,229)"/>
<path d="M0 0 C0.33 0.99 0.66 1.98 1 3 C0.67 3.33 0.34 3.66 0 4 C-0.23481693 6.18292774 -0.41363323 8.37203174 -0.5625 10.5625 C-0.68818359 12.35880859 -0.68818359 12.35880859 -0.81640625 14.19140625 C-0.87699219 15.11824219 -0.93757812 16.04507813 -1 17 C0.32 17.33 1.64 17.66 3 18 C2.360625 18.12375 1.72125 18.2475 1.0625 18.375 C0.381875 18.58125 -0.29875 18.7875 -1 19 C-1.33 19.66 -1.66 20.32 -2 21 C-2.33 20.67 -2.66 20.34 -3 20 C-2.90913549 17.46458702 -2.7629055 14.96445216 -2.5625 12.4375 C-2.51029297 11.72658203 -2.45808594 11.01566406 -2.40429688 10.28320312 C-2.27425893 8.52178001 -2.13773103 6.76083827 -2 5 C-2.99 5.495 -2.99 5.495 -4 6 C-4.46751788 8.35599235 -4.46751788 8.35599235 -4.625 11.0625 C-4.69976562 11.98160156 -4.77453125 12.90070313 -4.8515625 13.84765625 C-4.90054688 14.55792969 -4.94953125 15.26820313 -5 16 C-5.33 16 -5.66 16 -6 16 C-6.10807131 14.06372231 -6.1856225 12.12572244 -6.25 10.1875 C-6.29640625 9.10855469 -6.3428125 8.02960938 -6.390625 6.91796875 C-6 4 -6 4 -4.109375 2.17578125 C-2.75554432 1.421146 -1.38631364 0.69315682 0 0 Z " fill="#EFE0CA" transform="translate(196,179)"/>
<path d="M0 0 C0 3.6148488 -1.17946725 4.86412056 -3.51171875 7.51171875 C-9.98939152 13.98939152 -16.73807532 15.21708479 -25.51171875 15.265625 C-28 15 -28 15 -31 13 C-30.38253906 13.02320313 -29.76507813 13.04640625 -29.12890625 13.0703125 C-19.96111142 13.26566886 -11.89709983 12.59640883 -5 6 C-3.21037181 3.38142305 -3.21037181 3.38142305 -2 1 C-1.34 0.67 -0.68 0.34 0 0 Z " fill="#EBC053" transform="translate(237,203)"/>
<path d="M0 0 C3.22147968 1.71573242 6.17524704 3.68767388 9 6 C9 6.33 9 6.66 9 7 C7.02 7 5.04 7 3 7 C2.34 5.68 1.68 4.36 1 3 C-0.918125 2.9690625 -0.918125 2.9690625 -2.875 2.9375 C-3.59429687 2.92589844 -4.31359375 2.91429687 -5.0546875 2.90234375 C-7.08185404 2.87350758 -7.08185404 2.87350758 -9 4 C-9 5.65 -9 7.3 -9 9 C-9.99 8.67 -10.98 8.34 -12 8 C-9.99937397 0.92086175 -7.44652488 -0.96084192 0 0 Z " fill="#DCBB71" transform="translate(251,270)"/>
<path d="M0 0 C0.33 0.66 0.66 1.32 1 2 C-0.32 1.67 -1.64 1.34 -3 1 C-2.67 2.32 -2.34 3.64 -2 5 C-7.76081841 6.2982126 -13.08739655 7.25706972 -19 7 C-19 6.67 -19 6.34 -19 6 C-13.555 5.01 -13.555 5.01 -8 4 C-9.65 3.67 -11.3 3.34 -13 3 C-8.48332093 -0.01111938 -5.3360009 -0.10067926 0 0 Z " fill="#B8AFA8" transform="translate(119,146)"/>
<path d="M0 0 C0.66 0 1.32 0 2 0 C2.33 3.3 2.66 6.6 3 10 C3.66 10 4.32 10 5 10 C5.33 11.65 5.66 13.3 6 15 C4.68 15.33 3.36 15.66 2 16 C-0.27141454 10.60539047 -0.20413361 5.73842251 0 0 Z " fill="#EFB30B" transform="translate(186,187)"/>
<path d="M0 0 C0.66 0.66 1.32 1.32 2 2 C2.66 1.67 3.32 1.34 4 1 C4 2.65 4 4.3 4 6 C2.25 6.75 2.25 6.75 0 7 C-0.5775 6.38125 -1.155 5.7625 -1.75 5.125 C-5.00616054 2.04973727 -7.59365181 2.29375655 -12 2 C-8.07925671 -0.61382886 -4.55488983 -0.29386386 0 0 Z " fill="#CDBCAA" transform="translate(236,272)"/>
<path d="M0 0 C0.84536154 2.40061002 1.10986373 3.65444024 0.328125 6.11328125 C-0.02765625 6.83902344 -0.3834375 7.56476563 -0.75 8.3125 C-1.12125 9.09109375 -1.4925 9.8696875 -1.875 10.671875 C-2.431875 11.82429687 -2.431875 11.82429687 -3 13 C-3.59151021 14.35061498 -4.17584994 15.70441427 -4.75 17.0625 C-5.36875 18.5165625 -5.36875 18.5165625 -6 20 C-7.25 18.4375 -7.25 18.4375 -8 16 C-7.05509128 14.24051479 -6.09669598 12.48395109 -5.015625 10.8046875 C-3.61660527 8.31873706 -3.4443833 5.79326644 -3 3 C-1.4375 1.125 -1.4375 1.125 0 0 Z " fill="#D0C0B1" transform="translate(285,243)"/>
<path d="M0 0 C2.12438339 -0.08078641 4.2496323 -0.13909141 6.375 -0.1875 C7.55835938 -0.22230469 8.74171875 -0.25710938 9.9609375 -0.29296875 C11.46527344 -0.14794922 11.46527344 -0.14794922 13 0 C13.66 0.99 14.32 1.98 15 3 C10.05 3 5.1 3 0 3 C0 2.01 0 1.02 0 0 Z " fill="#ADA59E" transform="translate(205,287)"/>
<path d="M0 0 C0 0.33 0 0.66 0 1 C-3.3 1.33 -6.6 1.66 -10 2 C-10.33 2.99 -10.66 3.98 -11 5 C-11.66 5 -12.32 5 -13 5 C-13 5.99 -13 6.98 -13 8 C-13.66 8 -14.32 8 -15 8 C-15 6.35 -15 4.7 -15 3 C-16.32 3.33 -17.64 3.66 -19 4 C-19 3.34 -19 2.68 -19 2 C-12.53991163 0.04978464 -6.7281627 -0.22262303 0 0 Z " fill="#C5BAAE" transform="translate(273,284)"/>
<path d="M0 0 C2.02045442 0.60183749 4.02111039 1.27306096 6 2 C6.33 2.66 6.66 3.32 7 4 C6.01 4.33 5.02 4.66 4 5 C3.01 4.34 2.02 3.68 1 3 C1 3.99 1 4.98 1 6 C2.32 6.33 3.64 6.66 5 7 C4.67 7.66 4.34 8.32 4 9 C3.195625 8.525625 2.39125 8.05125 1.5625 7.5625 C-2.66939929 5.70640382 -6.43172078 5.29440022 -11 5 C-11 4.67 -11 4.34 -11 4 C-10.37351563 3.96261719 -9.74703125 3.92523438 -9.1015625 3.88671875 C-8.28429687 3.82097656 -7.46703125 3.75523437 -6.625 3.6875 C-5.81289062 3.62949219 -5.00078125 3.57148438 -4.1640625 3.51171875 C-1.62078662 3.17009472 -1.62078662 3.17009472 0 0 Z " fill="#DED0BD" transform="translate(220,168)"/>
<path d="M0 0 C2.97 0.495 2.97 0.495 6 1 C6 2.98 6 4.96 6 7 C4.35 7.33 2.7 7.66 1 8 C-0.35439668 5.29120665 -0.06501451 2.99066732 0 0 Z " fill="#E9C674" transform="translate(246,343)"/>
<path d="M0 0 C0.33 0 0.66 0 1 0 C1.02685938 2.14576637 1.04633088 4.29162645 1.0625 6.4375 C1.07410156 7.63246094 1.08570312 8.82742187 1.09765625 10.05859375 C1 13 1 13 0 14 C-0.07313567 16.53049402 -0.09247527 19.03304837 -0.0625 21.5625 C-0.05798828 22.27341797 -0.05347656 22.98433594 -0.04882812 23.71679688 C-0.03700864 25.47790013 -0.01907263 27.23896036 0 29 C-0.33 29 -0.66 29 -1 29 C-2.83955608 19.43430841 -3.04070694 9.31216501 0 0 Z " fill="#F0E7DD" transform="translate(64,206)"/>
<path d="M0 0 C1.65 0 3.3 0 5 0 C6.4606285 2.64738916 7 3.89448334 7 7 C5.00045254 7.04254356 2.99958364 7.04080783 1 7 C0 6 0 6 -0.0625 2.9375 C-0.041875 1.968125 -0.02125 0.99875 0 0 Z " fill="#6A5A47" transform="translate(246,337)"/>
<path d="M0 0 C1.2065625 1.2375 1.2065625 1.2375 2.4375 2.5 C4.52263018 5.11638731 4.52263018 5.11638731 6 5 C5.25 11.75 5.25 11.75 3 14 C3 12.02 3 10.04 3 8 C2.01 8 1.02 8 0 8 C0 5.36 0 2.72 0 0 Z " fill="#352D29" transform="translate(248,329)"/>
<path d="M0 0 C2.01696222 3.02544334 2.25811096 3.61067382 2.1875 7 C2.17783203 8.0209375 2.17783203 8.0209375 2.16796875 9.0625 C2 11 2 11 1 14 C-0.98 14.33 -2.96 14.66 -5 15 C-5.33 14.34 -5.66 13.68 -6 13 C-5.01 12.67 -4.02 12.34 -3 12 C-3.66 11.34 -4.32 10.68 -5 10 C-3.02 9.67 -1.04 9.34 1 9 C0.67 6.03 0.34 3.06 0 0 Z " fill="#8D8681" transform="translate(152,98)"/>
<path d="M0 0 C0.99 0.66 1.98 1.32 3 2 C2.525625 2.680625 2.05125 3.36125 1.5625 4.0625 C-0.2225636 7.41841956 -0.63153086 10.24161481 -1 14 C-5.29 14 -9.58 14 -14 14 C-14 13.67 -14 13.34 -14 13 C-8.555 12.505 -8.555 12.505 -3 12 C-2.87625 10.39125 -2.7525 8.7825 -2.625 7.125 C-2.25 2.25 -2.25 2.25 0 0 Z " fill="#D3C1B0" transform="translate(219,273)"/>
<path d="M0 0 C2.97 0.495 2.97 0.495 6 1 C6 1.99 6 2.98 6 4 C6.495 4.495 6.99 4.99 7.5 5.5 C7.995 5.995 8.49 6.49 9 7 C9 7.99 9 8.98 9 10 C9.66 10 10.32 10 11 10 C11 11.98 11 13.96 11 16 C9.85343936 13.78877592 8.88490779 11.670069 8.0625 9.3125 C7.5365625 8.1678125 7.5365625 8.1678125 7 7 C6.01 6.67 5.02 6.34 4 6 C4 5.01 4 4.02 4 3 C2.68 2.34 1.36 1.68 0 1 C0 0.67 0 0.34 0 0 Z " fill="#E5CAA2" transform="translate(230,165)"/>
<path d="M0 0 C2.25 -0.25 2.25 -0.25 5 0 C7.3125 2 7.3125 2 9 4 C8.01 4 7.02 4 6 4 C6.33 4.99 6.66 5.98 7 7 C2.25 5.125 2.25 5.125 0 4 C0 2.68 0 1.36 0 0 Z " fill="#B6ADA7" transform="translate(90,143)"/>
<path d="M0 0 C0.99773437 0.02320312 1.99546875 0.04640625 3.0234375 0.0703125 C4.52777344 0.09738281 4.52777344 0.09738281 6.0625 0.125 C6.83335937 0.14820312 7.60421875 0.17140625 8.3984375 0.1953125 C7.4084375 0.8553125 6.4184375 1.5153125 5.3984375 2.1953125 C5.0684375 3.1853125 4.7384375 4.1753125 4.3984375 5.1953125 C1.4284375 4.2053125 -1.5415625 3.2153125 -4.6015625 2.1953125 C-2.6015625 0.1953125 -2.6015625 0.1953125 0 0 Z " fill="#8A7D6E" transform="translate(245.6015625,115.8046875)"/>
<path d="M0 0 C1.32 0 2.64 0 4 0 C4.66 4.62 5.32 9.24 6 14 C5.34 13.34 4.68 12.68 4 12 C1.41645782 11.83312552 1.41645782 11.83312552 -1 12 C-1 11.34 -1 10.68 -1 10 C-0.2884375 9.38125 -0.2884375 9.38125 0.4375 8.75 C2.58739668 6.34211572 2.65045398 4.14591416 3 1 C2.01 1.33 1.02 1.66 0 2 C0 1.34 0 0.68 0 0 Z " fill="#B6A89C" transform="translate(235,288)"/>
<path d="M0 0 C6.875 2.75 6.875 2.75 8 5 C6.72125 5.309375 5.4425 5.61875 4.125 5.9375 C1.89898325 6.47605244 0.05260001 6.9737 -2 8 C-1.125 1.125 -1.125 1.125 0 0 Z " fill="#D8C2A7" transform="translate(242,265)"/>
<path d="M0 0 C0.99 0.66 1.98 1.32 3 2 C3.99 1.67 4.98 1.34 6 1 C6.33 3.31 6.66 5.62 7 8 C5.51719804 7.21516341 4.0388502 6.42190666 2.5625 5.625 C1.73878906 5.18414062 0.91507812 4.74328125 0.06640625 4.2890625 C-2 3 -2 3 -3 1 C-2.01 0.67 -1.02 0.34 0 0 Z " fill="#CEBDAE" transform="translate(263,265)"/>
<path d="M0 0 C0.66 0 1.32 0 2 0 C1.79987141 3.60231467 1.18548287 4.81927311 -1.4375 7.375 C-6.24698705 9.56880111 -9.90612835 8.92615848 -15 8 C-15 7.67 -15 7.34 -15 7 C-14.40832031 6.95101562 -13.81664062 6.90203125 -13.20703125 6.8515625 C-6.84658869 6.34322463 -6.84658869 6.34322463 -1 4 C-0.11306697 1.95894361 -0.11306697 1.95894361 0 0 Z " fill="#C2B7AE" transform="translate(204,219)"/>
<path d="M0 0 C0.99 0.33 1.98 0.66 3 1 C2.2628641 2.29905098 1.50969444 3.58901122 0.75 4.875 C0.12351563 5.95394531 0.12351563 5.95394531 -0.515625 7.0546875 C-2.15928076 9.20874162 -3.51567335 9.99140585 -6 11 C-5.34 8.69 -4.68 6.38 -4 4 C-3.34 4 -2.68 4 -2 4 C-1.34 2.68 -0.68 1.36 0 0 Z " fill="#F0DCBA" transform="translate(197,172)"/>
<path d="M0 0 C2.8125 0.1875 2.8125 0.1875 6 1 C7.9375 3.375 7.9375 3.375 9 6 C8.67 6.99 8.34 7.98 8 9 C7.67 8.34 7.34 7.68 7 7 C6.01 6.67 5.02 6.34 4 6 C3.67 5.34 3.34 4.68 3 4 C2.01 3.67 1.02 3.34 0 3 C0 2.01 0 1.02 0 0 Z " fill="#F1E7DB" transform="translate(221,171)"/>
<path d="M0 0 C3.3 0 6.6 0 10 0 C9.67 1.32 9.34 2.64 9 4 C6.36 3.67 3.72 3.34 1 3 C0.67 2.01 0.34 1.02 0 0 Z " fill="#AFA8A2" transform="translate(144,152)"/>
<path d="M0 0 C0.12375 0.639375 0.2475 1.27875 0.375 1.9375 C0.58125 2.618125 0.7875 3.29875 1 4 C1.66 4.33 2.32 4.66 3 5 C3 5.66 3 6.32 3 7 C-1.40914783 8.10228696 -5.48382401 8.07654536 -10 8 C-7 6 -7 6 -3.875 4.5625 C-0.7093822 3.26570231 -0.7093822 3.26570231 0 0 Z " fill="#937545" transform="translate(164,114)"/>
<path d="M0 0 C0.99 0.33 1.98 0.66 3 1 C3 1.66 3 2.32 3 3 C3.66 3.33 4.32 3.66 5 4 C5.625 6.0625 5.625 6.0625 6 8 C3.625 7.6875 3.625 7.6875 1 7 C-1 4 -1 4 -0.625 1.8125 C-0.41875 1.214375 -0.2125 0.61625 0 0 Z " fill="#8F7756" transform="translate(251,117)"/>
<path d="M0 0 C0.99 0 1.98 0 3 0 C3 1.65 3 3.3 3 5 C3.66 5 4.32 5 5 5 C5 4.01 5 3.02 5 2 C6.32 2.33 7.64 2.66 9 3 C8.67 4.65 8.34 6.3 8 8 C7.34 7.34 6.68 6.68 6 6 C4.68 6 3.36 6 2 6 C2 4.68 2 3.36 2 2 C1.34 2 0.68 2 0 2 C0 1.34 0 0.68 0 0 Z " fill="#574D45" transform="translate(255,287)"/>
<path d="M0 0 C0.66 0 1.32 0 2 0 C1.88570603 1.77155654 1.75816963 3.54226229 1.625 5.3125 C1.52058594 6.79169922 1.52058594 6.79169922 1.4140625 8.30078125 C1 11 1 11 -1 14 C-1.02705729 12.22925083 -1.04642195 10.45838289 -1.0625 8.6875 C-1.07410156 7.70136719 -1.08570313 6.71523438 -1.09765625 5.69921875 C-1 3 -1 3 0 0 Z " fill="#090404" transform="translate(253,323)"/>
<path d="M0 0 C2.52017426 2.52017426 2.29730377 3.51499849 2.3125 7 C2.32925781 7.886875 2.34601563 8.77375 2.36328125 9.6875 C2.24339844 10.450625 2.12351563 11.21375 2 12 C1.01 12.66 0.02 13.32 -1 14 C-0.67 9.38 -0.34 4.76 0 0 Z " fill="#ECBD3E" transform="translate(235,184)"/>
<path d="M0 0 C0.66 0 1.32 0 2 0 C2 0.66 2 1.32 2 2 C1.34 2 0.68 2 0 2 C0 1.34 0 0.68 0 0 Z M-5 1 C-0.27110961 1.1212536 0.41067672 2.41067672 4 6 C-1.94 5.01 -1.94 5.01 -8 4 C-7.01 3.01 -6.02 2.02 -5 1 Z " fill="#BDB2A9" transform="translate(192,150)"/>
<path d="M0 0 C-0.8125 3.4375 -0.8125 3.4375 -2 7 C-2.99 7.33 -3.98 7.66 -5 8 C-5.33 8.66 -5.66 9.32 -6 10 C-5.49396008 7.83125748 -5.00016187 6.00032373 -4 4 C-4.66 4 -5.32 4 -6 4 C-5.67 3.01 -5.34 2.02 -5 1 C-2 0 -2 0 0 0 Z " fill="#97918C" transform="translate(98,114)"/>
<path d="M0 0 C-0.9590625 1.1446875 -0.9590625 1.1446875 -1.9375 2.3125 C-4.14232781 4.88246713 -4.14232781 4.88246713 -5 8 C-6.4606285 5.35261084 -7 4.10551666 -7 1 C-3.375 -1.125 -3.375 -1.125 0 0 Z " fill="#A09B99" transform="translate(279,172)"/>
<path d="M0 0 C-3.96 1.98 -3.96 1.98 -8 4 C-8 4.66 -8 5.32 -8 6 C-9.32 5.67 -10.64 5.34 -12 5 C-11.375 3.125 -11.375 3.125 -10 1 C-5.92559158 -0.86005602 -4.43680282 -1.1092007 0 0 Z " fill="#BAAFA6" transform="translate(96,115)"/>
<path d="M0 0 C0.33 0 0.66 0 1 0 C1 2.97 1 5.94 1 9 C2.32 9.33 3.64 9.66 5 10 C4.360625 10.12375 3.72125 10.2475 3.0625 10.375 C2.381875 10.58125 1.70125 10.7875 1 11 C0.67 11.66 0.34 12.32 0 13 C-0.33 12.67 -0.66 12.34 -1 12 C-0.90997602 9.97591245 -0.75358962 7.95455713 -0.5625 5.9375 C-0.46066406 4.83277344 -0.35882813 3.72804687 -0.25390625 2.58984375 C-0.17011719 1.73519531 -0.08632812 0.88054687 0 0 Z " fill="#AFA498" transform="translate(194,187)"/>
<path d="M0 0 C3.875 0.875 3.875 0.875 5 2 C5.04092937 4.33297433 5.04241723 6.66705225 5 9 C4.67 9 4.34 9 4 9 C4 7.35 4 5.7 4 4 C3.34 4 2.68 4 2 4 C2 3.34 2 2.68 2 2 C1.34 2 0.68 2 0 2 C0 2.99 0 3.98 0 5 C-0.66 5 -1.32 5 -2 5 C-1.34 3.35 -0.68 1.7 0 0 Z " fill="#3D3229" transform="translate(201,208)"/>
<path d="M0 0 C4.875 4.625 4.875 4.625 6 8 C4.35 8.66 2.7 9.32 1 10 C0.34 8.68 -0.32 7.36 -1 6 C-0.01 6.33 0.98 6.66 2 7 C1.34 4.69 0.68 2.38 0 0 Z " fill="#E6D3B7" transform="translate(227,172)"/>
<path d="M0 0 C1.98 0 3.96 0 6 0 C4.68 0.99 3.36 1.98 2 3 C3.32 3.33 4.64 3.66 6 4 C5 5 5 5 1.4375 5.0625 C0.303125 5.041875 -0.83125 5.02125 -2 5 C-1.34 3.35 -0.68 1.7 0 0 Z " fill="#ACA5A0" transform="translate(145,109)"/>
<path d="M0 0 C4.29 0.33 8.58 0.66 13 1 C13 1.33 13 1.66 13 2 C7.06 2.495 7.06 2.495 1 3 C0.67 2.01 0.34 1.02 0 0 Z " fill="#9F968F" transform="translate(240,114)"/>
<path d="M0 0 C0.33 0 0.66 0 1 0 C1 1.98 1 3.96 1 6 C-0.32 6 -1.64 6 -3 6 C-3.66 6.66 -4.32 7.32 -5 8 C-5 6.02 -5 4.04 -5 2 C-4.01 2 -3.02 2 -2 2 C-2 2.99 -2 3.98 -2 5 C-1.34 5 -0.68 5 0 5 C0 3.35 0 1.7 0 0 Z " fill="#3C3026" transform="translate(244,287)"/>
<path d="M0 0 C0.66 0.33 1.32 0.66 2 1 C2 1.66 2 2.32 2 3 C4.97 3 7.94 3 11 3 C9 5 9 5 6.1875 5.375 C2.33694545 4.92199358 0.78198242 3.6183364 -2 1 C-1.34 0.67 -0.68 0.34 0 0 Z " fill="#C2B6AC" transform="translate(167,153)"/>
<path d="M0 0 C0.66 0.66 1.32 1.32 2 2 C4.20250992 2.46006346 4.20250992 2.46006346 6.625 2.625 C7.44226563 2.69976562 8.25953125 2.77453125 9.1015625 2.8515625 C9.72804688 2.90054688 10.35453125 2.94953125 11 3 C11 3.33 11 3.66 11 4 C6.71 4 2.42 4 -2 4 C-1.34 2.68 -0.68 1.36 0 0 Z " fill="#97918E" transform="translate(117,114)"/>
<path d="M0 0 C0.99 0.33 1.98 0.66 3 1 C0.42215154 3.64752004 -1.91648098 5.94432065 -5 8 C-3.8141763 4.62496331 -2.72426311 2.35277269 0 0 Z " fill="#352E2A" transform="translate(120,91)"/>
<path d="M0 0 C1.65 0 3.3 0 5 0 C5 0.99 5 1.98 5 3 C4.34 3 3.68 3 3 3 C3 3.99 3 4.98 3 6 C2.34 6 1.68 6 1 6 C0.67 4.02 0.34 2.04 0 0 Z " fill="#F0E8DF" transform="translate(257,286)"/>
<path d="M0 0 C2.31 1.65 4.62 3.3 7 5 C6.67 5.66 6.34 6.32 6 7 C4.125 6.875 4.125 6.875 2 6 C0.75 2.9375 0.75 2.9375 0 0 Z " fill="#E9D2B1" transform="translate(191,209)"/>
<path d="M0 0 C1.32 0.33 2.64 0.66 4 1 C3.01 1 2.02 1 1 1 C1 3.64 1 6.28 1 9 C0.01 9 -0.98 9 -2 9 C-1.34 6.03 -0.68 3.06 0 0 Z " fill="#E9C578" transform="translate(240,194)"/>
<path d="M0 0 C2.64 0 5.28 0 8 0 C8.33 0.66 8.66 1.32 9 2 C4.545 2.495 4.545 2.495 0 3 C0 2.01 0 1.02 0 0 Z " fill="#A7A2A0" transform="translate(157,150)"/>
<path d="M0 0 C2.475 0.495 2.475 0.495 5 1 C5.33 2.32 5.66 3.64 6 5 C4.35 4.67 2.7 4.34 1 4 C0.67 2.68 0.34 1.36 0 0 Z " fill="#ABA5A1" transform="translate(116,147)"/>
<path d="M0 0 C0.99 0 1.98 0 3 0 C3 1.98 3 3.96 3 6 C2.01 6 1.02 6 0 6 C0 4.02 0 2.04 0 0 Z " fill="#50443A" transform="translate(246,337)"/>
<path d="M0 0 C0 2.64 0 5.28 0 8 C-0.33 8 -0.66 8 -1 8 C-1 5.69 -1 3.38 -1 1 C-2.98 1.99 -2.98 1.99 -5 3 C-5.99 2.34 -6.98 1.68 -8 1 C-5.07175348 0.02391783 -3.04386724 -0.08226668 0 0 Z " fill="#A07E40" transform="translate(249,278)"/>
<path d="M0 0 C2.97 0.495 2.97 0.495 6 1 C3.60490662 3.89932357 1.68754757 4.50168276 -2 5 C-1.34 3.35 -0.68 1.7 0 0 Z " fill="#D0C0B1" transform="translate(256,144)"/>
<path d="M0 0 C0 2.31 0 4.62 0 7 C-0.66 7 -1.32 7 -2 7 C-2.33 5.02 -2.66 3.04 -3 1 C-1 0 -1 0 0 0 Z " fill="#040001" transform="translate(246,310)"/>
<path d="M0 0 C0.99 0 1.98 0 3 0 C2.67 1.65 2.34 3.3 2 5 C1.01 5 0.02 5 -1 5 C-0.67 3.35 -0.34 1.7 0 0 Z " fill="#050002" transform="translate(150,209)"/>
<path d="M0 0 C4.875 4.75 4.875 4.75 6 7 C3.03 6.505 3.03 6.505 0 6 C0 4.02 0 2.04 0 0 Z M3 3 C5 4 5 4 5 4 Z " fill="#E3C8A3" transform="translate(241,181)"/>
<path d="M0 0 C0.66 0.33 1.32 0.66 2 1 C0.38405168 3.04119788 -1.2856382 5.04072937 -3 7 C-3.66 7 -4.32 7 -5 7 C-3.70700306 4.11562221 -2.34058637 2.12780579 0 0 Z " fill="#CDC3B9" transform="translate(206,180)"/>
<path d="M0 0 C0.598125 0.350625 1.19625 0.70125 1.8125 1.0625 C-3.9375 3.0625 -3.9375 3.0625 -6.1875 3.0625 C-5.8575 2.0725 -5.5275 1.0825 -5.1875 0.0625 C-2.1875 -0.9375 -2.1875 -0.9375 0 0 Z " fill="#E3D7CC" transform="translate(139.1875,152.9375)"/>
</svg>
