<?xml version="1.0" encoding="UTF-8"?>
<svg version="1.1" xmlns="http://www.w3.org/2000/svg" width="360" height="360">
<path d="M0 0 C2.375 0.25 2.375 0.25 3.375 1.25 C4.91552882 14.80665362 -3.82632162 29.0699744 -10.4765625 40.40625 C-16.25508043 50.59396882 -15.84986365 60.95408217 -12.89453125 72.03515625 C-12.11483184 74.80681414 -11.28096829 77.55968338 -10.4375 80.3125 C-9.99468584 81.80771877 -9.55264694 83.30316732 -9.11132812 84.79882812 C-5.55800586 96.70422143 -1.63425916 108.49150639 2.375 120.25 C2.65967133 121.08540314 2.94434265 121.92080627 3.23764038 122.78152466 C4.04786126 125.14828946 4.86569459 127.51223555 5.6875 129.875 C5.92982864 130.57962875 6.17215729 131.28425751 6.42182922 132.01023865 C7.49789083 135.07029998 8.5634209 137.53263135 10.375 140.25 C11.98727389 137.25429109 13.58828538 134.25269783 15.1875 131.25 C15.86522461 129.99123047 15.86522461 129.99123047 16.55664062 128.70703125 C20.52505639 121.23366434 24.23844529 113.85294692 24.375 105.25 C21.74138042 97.87586517 15.71015158 94.45522993 9.375 90.25 C9.71422517 87.79061751 10.15324207 86.48931132 11.85546875 84.65234375 C45.92323289 65.69059596 104.54298648 72.0296046 141.375 78.25 C143.29812462 78.55371779 145.22129852 78.85712377 147.14453125 79.16015625 C166.46309355 82.33411882 185.76471017 86.85887867 204.375 92.9375 C205.22263916 93.21053955 206.07027832 93.4835791 206.94360352 93.76489258 C211.3670404 95.27614613 215.13547099 96.72962472 218.375 100.25 C218.93359375 102.8125 218.93359375 102.8125 218.375 105.25 C216.72265625 106.875 216.72265625 106.875 214.4375 108.25 C213.62152344 108.75273438 212.80554688 109.25546875 211.96484375 109.7734375 C208.78879608 111.58421581 205.58337317 113.32748883 202.3203125 114.9765625 C199.01444845 117.14064218 197.61045217 119.54364348 196.375 123.25 C195.87684586 128.9580162 197.19056501 132.76716853 199.875 137.6875 C200.60573665 139.08709974 201.33619689 140.48684383 202.06640625 141.88671875 C202.63512451 142.95865479 202.63512451 142.95865479 203.21533203 144.05224609 C205.12835172 147.67772045 206.9710403 151.33781394 208.8125 155 C209.15410156 155.66700928 209.49570312 156.33401855 209.84765625 157.02124023 C211.37912572 160.05032809 212.77284125 162.89148075 213.375 166.25 C214.02984375 166.21519531 214.6846875 166.18039063 215.359375 166.14453125 C230.16594192 165.70535342 242.75177788 170.53981822 254.046875 180.0234375 C262.97406325 188.56118465 266.38008481 197.93629679 266.8125 210.125 C266.36908213 227.76531943 257.56025219 241.31599012 245.375 253.25 C236.98857417 261.09302891 224.6650071 264.57215325 213.375 264.25 C209.32654491 263.77806581 205.35939575 263.10480831 201.375 262.25 C201.08753906 263.02859375 200.80007813 263.8071875 200.50390625 264.609375 C199.375 267.25 199.375 267.25 197.3125 269.5 C194.6255314 273.31376189 194.68750475 276.70223352 194.375 281.25 C194.06795146 282.92170873 193.74937149 284.5920691 193.375 286.25 C194.035 286.58 194.695 286.91 195.375 287.25 C195.045 289.23 194.715 291.21 194.375 293.25 C195.365 292.59 196.355 291.93 197.375 291.25 C198.365 291.25 199.355 291.25 200.375 291.25 C198.75983362 295.5081659 196.79536743 299.56140512 194.75 303.625 C194.39736084 304.32906982 194.04472168 305.03313965 193.68139648 305.75854492 C191.0351012 311.0129367 188.27422252 316.19776317 185.45556641 321.36132812 C183.50647006 324.97930844 181.7132346 328.63750885 180.01171875 332.37890625 C179.6139624 333.24926514 179.21620605 334.11962402 178.80639648 335.01635742 C178.03117164 336.72813207 177.26849705 338.44565765 176.51977539 340.16918945 C175.99178345 341.33454224 175.99178345 341.33454224 175.453125 342.5234375 C175.14793945 343.21872559 174.84275391 343.91401367 174.52832031 344.63037109 C173.375 346.25 173.375 346.25 171.30761719 347.04541016 C170.66985352 347.1129248 170.03208984 347.18043945 169.375 347.25 C169.045 346.92 168.715 346.59 168.375 346.25 C168.57922128 337.35950152 170.10739149 328.47349663 171.375 319.6875 C172.5930158 311.21875969 173.7079909 302.7817924 174.375 294.25 C173.59769531 294.1159375 172.82039062 293.981875 172.01953125 293.84375 C168.52042754 293.05813144 167.38812786 292.23241164 165.375 289.25 C164.8908354 285.47082631 164.64693684 281.70612632 166.375 278.25 C165.61316406 278.45496094 164.85132813 278.65992188 164.06640625 278.87109375 C163.03386719 279.14050781 162.00132812 279.40992188 160.9375 279.6875 C159.42349609 280.08775391 159.42349609 280.08775391 157.87890625 280.49609375 C149.11724693 282.38126683 140.24505336 282.52282124 131.3125 282.8125 C130.06533203 282.85568359 128.81816406 282.89886719 127.53320312 282.94335938 C124.48055909 283.04862296 121.42784477 283.15075941 118.375 283.25 C117.49929288 286.26316515 117.25768116 288.92622505 117.27734375 292.05932617 C117.28064697 293.01099167 117.2839502 293.96265717 117.28735352 294.94316101 C117.29980103 296.47756584 117.29980103 296.47756584 117.3125 298.04296875 C117.31628662 299.1035701 117.32007324 300.16417145 117.32397461 301.25691223 C117.34029265 305.78989404 117.36831219 310.32278533 117.39550781 314.85571289 C117.41368818 318.1681272 117.42572682 321.48052643 117.4375 324.79296875 C117.44994751 326.31219185 117.44994751 326.31219185 117.46264648 327.86210632 C117.48272827 333.74352837 117.22095201 339.42483659 116.375 345.25 C114.27368615 347.35131385 109.83353678 346.43514741 106.9375 346.4375 C106.14794922 346.44974609 105.35839844 346.46199219 104.54492188 346.47460938 C102.48692565 346.47987279 100.42937991 346.37206285 98.375 346.25 C97.715 345.59 97.055 344.93 96.375 344.25 C96.91071429 340.71428571 96.91071429 340.71428571 98.375 339.25 C100.05683948 339.01712992 101.7462416 338.83735834 103.4375 338.6875 C104.81615234 338.56181641 104.81615234 338.56181641 106.22265625 338.43359375 C106.93292969 338.37300781 107.64320313 338.31242187 108.375 338.25 C108.48636684 319.55236431 108.43035599 300.92603192 107.375 282.25 C101.435 281.92 95.495 281.59 89.375 281.25 C89.375 302.37 89.375 323.49 89.375 345.25 C86.06505287 346.90497356 82.38377 346.35084335 78.75 346.3125 C77.54730469 346.30573242 77.54730469 346.30573242 76.3203125 346.29882812 C74.33850994 346.28703168 72.35674567 346.26909605 70.375 346.25 C69.715 344.93 69.055 343.61 68.375 342.25 C70.375 339.25 70.375 339.25 72.21484375 338.703125 C72.90707031 338.63609375 73.59929687 338.5690625 74.3125 338.5 C75.00214844 338.42265625 75.69179687 338.3453125 76.40234375 338.265625 C78.375 338.25 78.375 338.25 81.375 339.25 C81.375 319.45 81.375 299.65 81.375 279.25 C77.085 278.92 72.795 278.59 68.375 278.25 C65.23832939 277.71636514 62.21077772 277.15932546 59.125 276.4375 C58.35559082 276.26081787 57.58618164 276.08413574 56.79345703 275.90209961 C51.33166826 274.59546544 46.29597573 273.00533972 41.375 270.25 C40.64796875 269.86972656 39.9209375 269.48945313 39.171875 269.09765625 C34.61364791 266.53160395 31.97250466 264.44189015 30.375 259.25 C30.1621203 256.2300787 30.19376899 253.27051687 30.375 250.25 C29.65699219 249.9921875 28.93898438 249.734375 28.19921875 249.46875 C13.147514 242.97340853 1.76826365 229.05781227 -4.4375 214.25 C-10.43381357 196.15001643 -9.02488652 175.52951499 -0.80859375 158.45703125 C0.375 156.25 0.375 156.25 2.375 153.25 C2.17158321 146.07345575 -0.45284035 139.98871547 -3.0625 133.375 C-7.17088925 122.6453015 -10.68315778 111.84625355 -13.875 100.8125 C-14.08555023 100.08894318 -14.29610046 99.36538635 -14.51303101 98.61990356 C-16.53088058 91.68020359 -18.50618494 84.73161097 -20.375 77.75 C-20.6337793 76.81341553 -20.89255859 75.87683105 -21.15917969 74.91186523 C-21.61817725 73.24510295 -22.05812434 71.57290768 -22.47363281 69.89477539 C-23.53984792 66.06354931 -24.17697826 64.52066772 -27.64453125 62.42578125 C-28.62808594 62.03777344 -29.61164062 61.64976563 -30.625 61.25 C-34.625 56.53205128 -34.625 56.53205128 -34.625 52.75 C-32.83607653 48.27769133 -30.20689545 44.4737059 -26.625 41.25 C-27.50671875 41.06630859 -27.50671875 41.06630859 -28.40625 40.87890625 C-32.77273041 39.6412243 -36.28322103 37.08076547 -38.96484375 33.421875 C-42.31254955 27.36979477 -42.1117192 22.59619451 -41.125 15.8125 C-38.74347267 10.15637259 -34.73565341 4.82263559 -29.16796875 2.0078125 C-23.69749034 0.37759313 -17.95672382 0.36623751 -12.75 2.8125 C-9.8562034 4.43875696 -9.8562034 4.43875696 -7.375 4.125 C-5.52928141 3.33173106 -5.52928141 3.33173106 -4.1875 1.6875 C-2.625 0.25 -2.625 0.25 0 0 Z M227.375 181.25 C227.00375 182.4875 226.6325 183.725 226.25 185 C224.98101962 188.52630126 224.74991709 189.05504311 221.25 190.875 C218.11460911 192.93728057 218.11460911 192.93728057 217.90625 196.0390625 C217.79776798 198.44193928 217.70934646 200.84577239 217.63671875 203.25 C217.20959034 212.80257348 214.01836825 222.54877834 210.20703125 231.234375 C209.38636959 233.22245676 208.8424436 235.15358626 208.375 237.25 C209.035 237.559375 209.695 237.86875 210.375 238.1875 C212.81676498 240.70557014 212.64642406 241.53107372 212.625 244.9375 C212.56076167 246.3759798 212.48336453 247.81416999 212.375 249.25 C222.45702267 250.01090737 230.68563504 246.5453119 238.375 240.10546875 C246.2645659 232.78604726 251.35854431 225.14513445 252.375 214.25 C252.375 204.17312284 250.25954254 196.49835994 243.3359375 189.078125 C238.60120582 184.66407236 233.9515242 181.74323932 227.375 181.25 Z " fill="#E6D4C0" transform="translate(77.625,3.75)"/>
<path d="M0 0 C0.7730246 0.10732452 1.54604919 0.21464905 2.34249878 0.32522583 C15.46316279 2.17988905 15.46316279 2.17988905 20.875 4.5 C23.05444881 4.9952056 25.24316181 5.4506115 27.4375 5.875 C34.12026279 7.25107048 40.46247228 9.18632242 46.875 11.5 C46.215 12.82 45.555 14.14 44.875 15.5 C44.215 15.5 43.555 15.5 42.875 15.5 C42.875 18.47 42.875 21.44 42.875 24.5 C42.215 24.5 41.555 24.5 40.875 24.5 C40.545 25.82 40.215 27.14 39.875 28.5 C45.10971686 29.25612577 49.64754141 29.7063366 54.875 28.5 C55.5625 30.3125 55.5625 30.3125 55.875 32.5 C54.5625 34.25 54.5625 34.25 52.875 35.5 C52.215 35.5 51.555 35.5 50.875 35.5 C51.060625 36.428125 51.24625 37.35625 51.4375 38.3125 C51.875 41.5 51.875 41.5 50.875 44.5 C53.185 44.83 55.495 45.16 57.875 45.5 C58.205 44.18 58.535 42.86 58.875 41.5 C59.865 41.5 60.855 41.5 61.875 41.5 C61.545 43.48 61.215 45.46 60.875 47.5 C61.865 46.84 62.855 46.18 63.875 45.5 C64.865 45.5 65.855 45.5 66.875 45.5 C65.25983362 49.7581659 63.29536743 53.81140512 61.25 57.875 C60.89736084 58.57906982 60.54472168 59.28313965 60.18139648 60.00854492 C57.5351012 65.2629367 54.77422252 70.44776317 51.95556641 75.61132812 C50.00647006 79.22930844 48.2132346 82.88750885 46.51171875 86.62890625 C46.1139624 87.49926514 45.71620605 88.36962402 45.30639648 89.26635742 C44.53117164 90.97813207 43.76849705 92.69565765 43.01977539 94.41918945 C42.49178345 95.58454224 42.49178345 95.58454224 41.953125 96.7734375 C41.64793945 97.46872559 41.34275391 98.16401367 41.02832031 98.88037109 C39.875 100.5 39.875 100.5 37.80761719 101.29541016 C37.16985352 101.3629248 36.53208984 101.43043945 35.875 101.5 C35.545 101.17 35.215 100.84 34.875 100.5 C35.07922128 91.60950152 36.60739149 82.72349663 37.875 73.9375 C39.0930158 65.46875969 40.2079909 57.0317924 40.875 48.5 C39.70904297 48.29890625 39.70904297 48.29890625 38.51953125 48.09375 C35.02042754 47.30813144 33.88812786 46.48241164 31.875 43.5 C31.3908354 39.72082631 31.14693684 35.95612632 32.875 32.5 C32.11316406 32.70496094 31.35132813 32.90992188 30.56640625 33.12109375 C29.53386719 33.39050781 28.50132812 33.65992188 27.4375 33.9375 C26.42816406 34.20433594 25.41882813 34.47117187 24.37890625 34.74609375 C15.61724693 36.63126683 6.74505336 36.77282124 -2.1875 37.0625 C-3.43466797 37.10568359 -4.68183594 37.14886719 -5.96679688 37.19335938 C-9.01944091 37.29862296 -12.07215523 37.40075941 -15.125 37.5 C-16.00070712 40.51316515 -16.24231884 43.17622505 -16.22265625 46.30932617 C-16.21935303 47.26099167 -16.2160498 48.21265717 -16.21264648 49.19316101 C-16.20019897 50.72756584 -16.20019897 50.72756584 -16.1875 52.29296875 C-16.18371338 53.3535701 -16.17992676 54.41417145 -16.17602539 55.50691223 C-16.15970735 60.03989404 -16.13168781 64.57278533 -16.10449219 69.10571289 C-16.08631182 72.4181272 -16.07427318 75.73052643 -16.0625 79.04296875 C-16.05005249 80.56219185 -16.05005249 80.56219185 -16.03735352 82.11210632 C-16.01727173 87.99352837 -16.27904799 93.67483659 -17.125 99.5 C-19.22631385 101.60131385 -23.66646322 100.68514741 -26.5625 100.6875 C-27.35205078 100.69974609 -28.14160156 100.71199219 -28.95507812 100.72460938 C-31.01307435 100.72987279 -33.07062009 100.62206285 -35.125 100.5 C-35.785 99.84 -36.445 99.18 -37.125 98.5 C-36.58928571 94.96428571 -36.58928571 94.96428571 -35.125 93.5 C-33.44316052 93.26712992 -31.7537584 93.08735834 -30.0625 92.9375 C-29.14339844 92.85371094 -28.22429687 92.76992188 -27.27734375 92.68359375 C-26.56707031 92.62300781 -25.85679687 92.56242187 -25.125 92.5 C-25.01363316 73.80236431 -25.06964401 55.17603192 -26.125 36.5 C-32.065 36.17 -38.005 35.84 -44.125 35.5 C-44.125 56.62 -44.125 77.74 -44.125 99.5 C-47.43494713 101.15497356 -51.11623 100.60084335 -54.75 100.5625 C-55.55179688 100.55798828 -56.35359375 100.55347656 -57.1796875 100.54882812 C-59.16149006 100.53703168 -61.14325433 100.51909605 -63.125 100.5 C-63.785 99.18 -64.445 97.86 -65.125 96.5 C-63.125 93.5 -63.125 93.5 -61.28515625 92.953125 C-60.59292969 92.88609375 -59.90070313 92.8190625 -59.1875 92.75 C-58.15302734 92.63398438 -58.15302734 92.63398438 -57.09765625 92.515625 C-55.125 92.5 -55.125 92.5 -52.125 93.5 C-52.125 73.7 -52.125 53.9 -52.125 33.5 C-56.415 33.17 -60.705 32.84 -65.125 32.5 C-68.26167061 31.96636514 -71.28922228 31.40932546 -74.375 30.6875 C-75.52911377 30.42247681 -75.52911377 30.42247681 -76.70654297 30.15209961 C-82.16833174 28.84546544 -87.20402427 27.25533972 -92.125 24.5 C-92.85203125 24.11972656 -93.5790625 23.73945313 -94.328125 23.34765625 C-98.88512042 20.78229732 -101.47023816 18.67113074 -103.125 13.5 C-103.25 9.9375 -103.25 9.9375 -103.125 6.5 C-103.42819971 4.82758892 -103.75628912 3.15919896 -104.125 1.5 C-70.16283451 -7.64536744 -34.45364273 -4.79985723 0 0 Z " fill="#DECAB7" transform="translate(211.125,249.5)"/>
<path d="M0 0 C1.92312462 0.30371779 3.84629852 0.60712377 5.76953125 0.91015625 C25.08809355 4.08411882 44.38971017 8.60887867 63 14.6875 C63.84763916 14.96053955 64.69527832 15.2335791 65.56860352 15.51489258 C69.9920404 17.02614613 73.76047099 18.47962472 77 22 C77.55859375 24.5625 77.55859375 24.5625 77 27 C75.34765625 28.625 75.34765625 28.625 73.0625 30 C72.24652344 30.50273438 71.43054688 31.00546875 70.58984375 31.5234375 C67.41379608 33.33421581 64.20837317 35.07748883 60.9453125 36.7265625 C57.73758783 38.82639833 56.10226845 41.84659733 54 45 C48.2418084 44.1774012 44.83430733 43.17423775 40.375 39.375 C37.33218656 36.82432856 36.3656016 36.0495731 32.3125 35.5 C30.1751589 35.82261752 28.04656186 36.21403713 25.9375 36.6875 C21.25837946 37.18527878 18.3108967 34.90754387 14.5625 32.3125 C10.67922534 30.32350566 7.10896274 30.59443024 2.8671875 31.41015625 C-3.05281213 32.47245584 -5.76280756 31.33563855 -10.7890625 28.15234375 C-14.34893326 26.29693408 -17.0538622 26.58461707 -21 27 C-21.66 27.33 -22.32 27.66 -23 28 C-27.99739301 28.43836781 -30.97828934 28.19848345 -35.4375 25.875 C-39.80437965 23.71430434 -42.5422618 23.99892182 -47.15234375 25.32421875 C-49.05672503 25.98137492 -49.05672503 25.98137492 -51 27 C-56.41176471 27.47058824 -56.41176471 27.47058824 -58.875 25.5 C-62.06238207 23.25008325 -65.27586708 23.43485921 -69 24 C-69.99 24.495 -70.98 24.99 -72 25.5 C-75.9982102 27.4991051 -78.56243472 27.29583769 -83 27 C-83.66 26.67 -84.32 26.34 -85 26 C-88.79988636 25.44814928 -92.51979698 25.09218318 -95.87890625 27.15234375 C-96.47574219 27.61769531 -97.07257813 28.08304688 -97.6875 28.5625 C-103.19472781 32.55552057 -109.63132595 30.90342146 -116 30 C-116.14953125 29.45472656 -116.2990625 28.90945312 -116.453125 28.34765625 C-119.27046069 20.26853186 -125.12749604 16.57086348 -132 12 C-131.66077483 9.54061751 -131.22175793 8.23931132 -129.51953125 6.40234375 C-95.45176711 -12.55940404 -36.83201352 -6.2203954 0 0 Z " fill="#E8D7C5" transform="translate(219,82)"/>
<path d="M0 0 C8.355482 5.70578635 14.33503999 14.13908369 16.5625 24.0234375 C18.74186216 38.85088362 15.48381068 52.62341199 7 65 C-2.22514221 76.67568474 -12.10276364 84.66573211 -27.0859375 87.60546875 C-34.2924136 88.40934076 -40.93914302 87.51482925 -48 86 C-48.29648437 86.77472656 -48.59296875 87.54945313 -48.8984375 88.34765625 C-50.2155045 91.51889204 -51.11082449 93.09922664 -54 95 C-56.88493841 94.7181382 -59.21881003 93.92706332 -62 93 C-60.125 88.125 -60.125 88.125 -59 87 C-58.71468607 82.86122925 -58.71468607 82.86122925 -60 79 C-61.35729199 76.28541602 -61.13587738 73.98930243 -61 71 C-61.66 71 -62.32 71 -63 71 C-66.63352827 57.82846004 -66.63352827 57.82846004 -66 52 C-65.34 51.34 -64.68 50.68 -64 50 C-62.68 50 -61.36 50 -60 50 C-58 53 -58 53 -58 57 C-57.34 57 -56.68 57 -56 57 C-55.79503906 57.69867188 -55.59007812 58.39734375 -55.37890625 59.1171875 C-55.10949219 60.02726562 -54.84007812 60.93734375 -54.5625 61.875 C-54.29566406 62.77992188 -54.02882813 63.68484375 -53.75390625 64.6171875 C-53.07386174 66.98275381 -53.07386174 66.98275381 -52 69 C-50.515 68.505 -50.515 68.505 -49 68 C-48.67 67.34 -48.34 66.68 -48 66 C-47.34 66 -46.68 66 -46 66 C-45.34 64.35 -44.68 62.7 -44 61 C-39.5046729 60.63551402 -39.5046729 60.63551402 -37.3125 62.21875 C-36 64 -36 64 -35.92578125 66.26171875 C-36.05339844 67.06222656 -36.18101562 67.86273438 -36.3125 68.6875 C-36.43238281 69.49574219 -36.55226563 70.30398437 -36.67578125 71.13671875 C-36.78277344 71.75160156 -36.88976562 72.36648437 -37 73 C-24.30550645 71.53860641 -14.74031589 67.54248637 -6 58 C0.70945581 49.22167559 2.82018162 40.50515849 1.46875 29.6015625 C0.00703862 21.48906432 -3.38185584 15.56730896 -9.95703125 10.48828125 C-13.89795642 7.85848606 -17.18363902 6.36122707 -22 6 C-22.433125 7.670625 -22.433125 7.670625 -22.875 9.375 C-24 13 -24 13 -26 15 C-28.625 15.125 -28.625 15.125 -31 15 C-31.48062124 12.31275296 -31.95953496 9.62521967 -32.4375 6.9375 C-32.57220703 6.18533203 -32.70691406 5.43316406 -32.84570312 4.65820312 C-33.6521177 0.11474542 -34.37461944 -4.42804307 -35 -9 C-22.96964717 -12.70164702 -9.98721912 -6.17750484 0 0 Z " fill="#979494" transform="translate(327,180)"/>
<path d="M0 0 C13.80448197 2.31893472 13.80448197 2.31893472 17.625 6.984375 C23.12479024 14.86388217 24.57429691 20.55421851 23 30 C22.02615693 35.06398397 19.99835778 37.50025735 16.0546875 40.609375 C9.83856153 44.81648687 4.49486904 46.6461094 -3 46 C-3.99 45.67 -4.98 45.34 -6 45 C-6.17015625 45.60328125 -6.3403125 46.2065625 -6.515625 46.828125 C-8.99164927 54.99373695 -8.99164927 54.99373695 -13 58 C-16.01490557 59.00496852 -18.04181692 59.10335303 -21.1875 59.0625 C-22.08855469 59.05347656 -22.98960937 59.04445312 -23.91796875 59.03515625 C-24.60503906 59.02355469 -25.29210937 59.01195312 -26 59 C-25.91298828 59.85271484 -25.91298828 59.85271484 -25.82421875 60.72265625 C-25.50388399 66.20495677 -26.20796438 69.26417097 -29.61328125 73.58984375 C-32.38169799 76.40505063 -33.98004351 76.99809938 -37.9375 77.375 C-40.95930245 77.29183113 -41.826111 77.12355271 -44.375 75.3125 C-47.40419925 71.00171646 -48.25127633 67.42796784 -48.125 62.1875 C-48.10695312 61.21167969 -48.08890625 60.23585937 -48.0703125 59.23046875 C-48.04710937 58.49441406 -48.02390625 57.75835937 -48 57 C-49.546875 57.0928125 -49.546875 57.0928125 -51.125 57.1875 C-55.98971021 56.9521108 -59.26865583 55.82504045 -62.66015625 52.25 C-64.35865312 49.39771372 -64.30511819 47.54330928 -64.1875 44.25 C-64.16042969 43.26515625 -64.13335937 42.2803125 -64.10546875 41.265625 C-64.07066406 40.51796875 -64.03585938 39.7703125 -64 39 C-62.02 38.505 -62.02 38.505 -60 38 C-57.96022723 41.24509304 -56.33488128 44.40608886 -55 48 C-48.13640124 47.4509121 -44.13356645 45.47044536 -39.625 40.25 C-39.08875 39.5075 -38.5525 38.765 -38 38 C-35.875 38 -35.875 38 -33 39 C-31.29865907 40.93527531 -29.86566927 42.95139522 -28.4296875 45.08984375 C-26.97078745 47.26051401 -26.97078745 47.26051401 -24 49 C-21.71351152 49.24107326 -21.71351152 49.24107326 -19.3125 49.125 C-18.50425781 49.10695312 -17.69601563 49.08890625 -16.86328125 49.0703125 C-16.24839844 49.04710937 -15.63351563 49.02390625 -15 49 C-13.53219091 45.82647392 -13.53219091 45.82647392 -13 42 C-14.96543397 39.22497407 -14.96543397 39.22497407 -16.62109375 37.59375 C-20.35501068 33.27806131 -21.90443125 26.54298747 -22 21 C-19.91376728 13.14885202 -16.40145816 8.73595548 -10.125 3.6875 C-6.47115967 1.71442622 -4.09241531 1.67260678 0 2 C0 1.34 0 0.68 0 0 Z " fill="#F5F4F0" transform="translate(222,124)"/>
<path d="M0 0 C0.7730246 0.10732452 1.54604919 0.21464905 2.34249878 0.32522583 C15.46316279 2.17988905 15.46316279 2.17988905 20.875 4.5 C23.05444881 4.9952056 25.24316181 5.4506115 27.4375 5.875 C34.12026279 7.25107048 40.46247228 9.18632242 46.875 11.5 C46.215 12.82 45.555 14.14 44.875 15.5 C44.215 15.5 43.555 15.5 42.875 15.5 C42.875 18.47 42.875 21.44 42.875 24.5 C42.215 24.5 41.555 24.5 40.875 24.5 C40.545 25.82 40.215 27.14 39.875 28.5 C45.10971686 29.25612577 49.64754141 29.7063366 54.875 28.5 C55.5625 30.3125 55.5625 30.3125 55.875 32.5 C54.5625 34.25 54.5625 34.25 52.875 35.5 C52.215 35.5 51.555 35.5 50.875 35.5 C51.060625 36.428125 51.24625 37.35625 51.4375 38.3125 C51.875 41.5 51.875 41.5 50.875 44.5 C53.185 44.83 55.495 45.16 57.875 45.5 C58.205 44.18 58.535 42.86 58.875 41.5 C59.865 41.5 60.855 41.5 61.875 41.5 C61.545 43.48 61.215 45.46 60.875 47.5 C61.865 46.84 62.855 46.18 63.875 45.5 C64.865 45.5 65.855 45.5 66.875 45.5 C65.25983362 49.7581659 63.29536743 53.81140512 61.25 57.875 C60.89736084 58.57906982 60.54472168 59.28313965 60.18139648 60.00854492 C57.5351012 65.2629367 54.77422252 70.44776317 51.95556641 75.61132812 C50.00647006 79.22930844 48.2132346 82.88750885 46.51171875 86.62890625 C46.1139624 87.49926514 45.71620605 88.36962402 45.30639648 89.26635742 C44.53117164 90.97813207 43.76849705 92.69565765 43.01977539 94.41918945 C42.49178345 95.58454224 42.49178345 95.58454224 41.953125 96.7734375 C41.64793945 97.46872559 41.34275391 98.16401367 41.02832031 98.88037109 C39.875 100.5 39.875 100.5 37.80761719 101.29541016 C37.16985352 101.3629248 36.53208984 101.43043945 35.875 101.5 C35.545 101.17 35.215 100.84 34.875 100.5 C35.07922128 91.60950152 36.60739149 82.72349663 37.875 73.9375 C39.0930158 65.46875969 40.2079909 57.0317924 40.875 48.5 C39.70904297 48.29890625 39.70904297 48.29890625 38.51953125 48.09375 C35.02042754 47.30813144 33.88812786 46.48241164 31.875 43.5 C31.3908354 39.72082631 31.14693684 35.95612632 32.875 32.5 C31.5446875 32.995 31.5446875 32.995 30.1875 33.5 C24.56190677 35.15048396 18.67654186 34.65703422 12.875 34.5 C12.875 34.17 12.875 33.84 12.875 33.5 C1.985 33.005 1.985 33.005 -9.125 32.5 C-9.455 31.51 -9.785 30.52 -10.125 29.5 C-7.815 29.5 -5.505 29.5 -3.125 29.5 C-3.62 26.53 -3.62 26.53 -4.125 23.5 C-3.465 23.5 -2.805 23.5 -2.125 23.5 C-2.62 22.015 -2.62 22.015 -3.125 20.5 C-2.135 19.84 -1.145 19.18 -0.125 18.5 C-0.62 17.015 -0.62 17.015 -1.125 15.5 C-0.465 15.5 0.195 15.5 0.875 15.5 C0.875 14.18 0.875 12.86 0.875 11.5 C2.855 11.5 4.835 11.5 6.875 11.5 C7.535 9.85 8.195 8.2 8.875 6.5 C-21.75068917 -2.63259625 -57.66984067 -3.13870488 -89.125 1.5 C-91.790423 1.84413147 -94.45751221 2.17210283 -97.125 2.5 C-97.125 3.16 -97.125 3.82 -97.125 4.5 C-99.105 4.5 -101.085 4.5 -103.125 4.5 C-103.455 3.51 -103.785 2.52 -104.125 1.5 C-70.16283451 -7.64536744 -34.45364273 -4.79985723 0 0 Z " fill="#DCC7B2" transform="translate(211.125,249.5)"/>
<path d="M0 0 C2.375 0.25 2.375 0.25 3.375 1.25 C4.91552882 14.80665362 -3.82632162 29.0699744 -10.4765625 40.40625 C-16.25507639 50.59396169 -15.84987373 60.95408754 -12.89453125 72.03515625 C-12.11478908 74.80679712 -11.28082117 77.55964362 -10.4375 80.3125 C-9.99320316 81.813573 -9.54970026 83.31488119 -9.10693359 84.81640625 C-4.66367023 99.71154347 0.3675909 114.42148061 5.4921875 129.09375 C5.74295547 129.81183334 5.99372345 130.52991669 6.25209045 131.26976013 C7.98509081 136.20447532 9.80420741 141.10176961 11.71533203 145.97070312 C12.45991613 148.54340378 12.63353116 150.5853981 12.375 153.25 C11.715 153.91 11.055 154.57 10.375 155.25 C7.9375 155.1875 7.9375 155.1875 5.375 154.25 C2.91019544 150.72539685 1.48372665 147.1064671 0.10546875 143.05078125 C-0.30550049 141.85042236 -0.71646973 140.65006348 -1.13989258 139.41333008 C-1.572694 138.12980959 -2.00522439 136.84619767 -2.4375 135.5625 C-2.88592203 134.24295015 -3.33473639 132.92353355 -3.78393555 131.60424805 C-4.6693235 129.00034646 -5.55108891 126.3952625 -6.4296875 123.7890625 C-7.42373569 120.84590021 -8.42712221 117.90632988 -9.4375 114.96875 C-11.88021375 107.82348572 -14.1263478 100.65749994 -16.125 93.375 C-16.32593262 92.64764648 -16.52686523 91.92029297 -16.73388672 91.17089844 C-17.6145499 87.97192623 -18.48850446 84.7721737 -19.32763672 81.56201172 C-20.051101 78.80588829 -20.80474388 76.05936595 -21.5625 73.3125 C-21.7790625 72.45350098 -21.995625 71.59450195 -22.21875 70.70947266 C-23.61512651 65.62088231 -23.61512651 65.62088231 -27.6640625 62.36328125 C-28.64117187 61.99589844 -29.61828125 61.62851563 -30.625 61.25 C-34.625 56.53205128 -34.625 56.53205128 -34.625 52.75 C-32.83607653 48.27769133 -30.20689545 44.4737059 -26.625 41.25 C-27.50671875 41.06630859 -27.50671875 41.06630859 -28.40625 40.87890625 C-32.77273041 39.6412243 -36.28322103 37.08076547 -38.96484375 33.421875 C-42.31254955 27.36979477 -42.1117192 22.59619451 -41.125 15.8125 C-38.74347267 10.15637259 -34.73565341 4.82263559 -29.16796875 2.0078125 C-23.69749034 0.37759313 -17.95672382 0.36623751 -12.75 2.8125 C-9.8562034 4.43875696 -9.8562034 4.43875696 -7.375 4.125 C-5.52928141 3.33173106 -5.52928141 3.33173106 -4.1875 1.6875 C-2.625 0.25 -2.625 0.25 0 0 Z " fill="#837C73" transform="translate(77.625,3.75)"/>
<path d="M0 0 C1.92312462 0.30371779 3.84629852 0.60712377 5.76953125 0.91015625 C25.08809355 4.08411882 44.38971017 8.60887867 63 14.6875 C63.84763916 14.96053955 64.69527832 15.2335791 65.56860352 15.51489258 C70.04470461 17.0441387 73.56056186 18.61483307 77 22 C77.6875 24.5 77.6875 24.5 77 27 C74 29.3125 74 29.3125 71 31 C70.67 30.01 70.34 29.02 70 28 C67.9094079 27.52019198 65.81467273 27.05454445 63.70703125 26.65625 C60.74129974 25.93728479 58.16309838 24.86247804 55.375 23.625 C49.05360233 20.89984626 42.61454267 19.10283541 35.94335938 17.47949219 C34.08685974 17.02143122 32.23843367 16.53101156 30.390625 16.0390625 C20.68944494 13.56427167 10.88393591 11.91971072 1 10.375 C0.00397263 10.21851486 0.00397263 10.21851486 -1.01217651 10.05886841 C-5.66946877 9.33212989 -10.33175326 8.65158162 -15 8 C-15.68075592 7.90323975 -16.36151184 7.80647949 -17.06289673 7.70678711 C-28.13460528 6.16115058 -39.01497698 5.66897772 -50.1875 5.75 C-50.9962558 5.75409882 -51.8050116 5.75819763 -52.63827515 5.76242065 C-71.69186811 5.87512499 -89.61761881 7.4767926 -108.25 11.5 C-108.97120026 11.6553421 -109.69240051 11.8106842 -110.43545532 11.97073364 C-112.48554437 12.41788762 -114.53225011 12.87773128 -116.578125 13.34375 C-117.76825195 13.61380859 -118.95837891 13.88386719 -120.18457031 14.16210938 C-123.10563651 14.78828103 -123.10563651 14.78828103 -125 17 C-127.31 15.35 -129.62 13.7 -132 12 C-131 8 -131 8 -129.51953125 6.40234375 C-95.45176711 -12.55940404 -36.83201352 -6.2203954 0 0 Z " fill="#F0E6D9" transform="translate(219,82)"/>
<path d="M0 0 C0.68835938 0.00188324 1.37671875 0.00376648 2.0859375 0.00570679 C12.02835382 0.03761423 21.91317043 0.10968415 31.8125 1.125 C32.70936523 1.21652344 33.60623047 1.30804688 34.53027344 1.40234375 C37.58560822 1.72532204 40.63644362 2.07643253 43.6875 2.4375 C44.63947266 2.54296143 45.59144531 2.64842285 46.57226562 2.75708008 C53.1428767 3.59447714 58.78583005 5.38850852 64.8125 8.125 C64.1525 9.775 63.4925 11.425 62.8125 13.125 C61.04115133 13.00752836 59.27043821 12.88047702 57.5 12.75 C56.02080078 12.64558594 56.02080078 12.64558594 54.51171875 12.5390625 C51.53559447 12.20593771 48.71310111 11.73319305 45.78125 11.15625 C39.09774859 9.90334287 32.40290493 9.44577057 25.625 9 C24.38685547 8.91363281 23.14871094 8.82726562 21.87304688 8.73828125 C18.85319471 8.52840735 15.83307905 8.32408871 12.8125 8.125 C12.4825 8.785 12.1525 9.445 11.8125 10.125 C11.8125 9.465 11.8125 8.805 11.8125 8.125 C7.04345576 8.24342644 2.27461233 8.36768687 -2.49414062 8.49731445 C-4.11584357 8.54057931 -5.73758958 8.58226028 -7.359375 8.62231445 C-9.69284027 8.68022214 -12.02609043 8.74385698 -14.359375 8.80859375 C-15.08243835 8.82530624 -15.80550171 8.84201874 -16.55047607 8.85923767 C-19.88640556 8.95702649 -22.99304016 9.1095665 -26.1875 10.125 C-26.5175 12.435 -26.8475 14.745 -27.1875 17.125 C-26.32125 16.8775 -26.32125 16.8775 -25.4375 16.625 C-23.1875 16.125 -23.1875 16.125 -19.1875 16.125 C-19.1875 17.115 -19.1875 18.105 -19.1875 19.125 C-17.8675 19.785 -16.5475 20.445 -15.1875 21.125 C-15.8475 21.125 -16.5075 21.125 -17.1875 21.125 C-17.5175 22.115 -17.8475 23.105 -18.1875 24.125 C-19.75 25.8125 -19.75 25.8125 -21.1875 27.125 C-19.5375 27.125 -17.8875 27.125 -16.1875 27.125 C-16.5175 28.445 -16.8475 29.765 -17.1875 31.125 C-16.5275 31.455 -15.8675 31.785 -15.1875 32.125 C-25.70242519 31.3161596 -36.13629609 28.16980342 -44.1875 21.125 C-47.69805435 16.33788043 -47.52983792 11.83063194 -47.1875 6.125 C-45.2075 6.125 -43.2275 6.125 -41.1875 6.125 C-41.1875 5.465 -41.1875 4.805 -41.1875 4.125 C-38.91810504 3.63804481 -36.64732362 3.16044248 -34.375 2.6875 C-33.11042969 2.42066406 -31.84585938 2.15382812 -30.54296875 1.87890625 C-20.42684228 -0.0020702 -10.25864208 -0.04251758 0 0 Z " fill="#E7D6C5" transform="translate(155.1875,247.875)"/>
<path d="M0 0 C1.8125 0 1.8125 0 4 1 C6.00227186 3.70815753 8 6.5467335 8 10 C14.86359876 9.4509121 18.86643355 7.47044536 23.375 2.25 C23.91125 1.5075 24.4475 0.765 25 0 C27.125 0 27.125 0 30 1 C31.70134093 2.93527531 33.13433073 4.95139522 34.5703125 7.08984375 C36.02921255 9.26051401 36.02921255 9.26051401 39 11 C41.28648848 11.24107326 41.28648848 11.24107326 43.6875 11.125 C44.49574219 11.10695312 45.30398437 11.08890625 46.13671875 11.0703125 C46.75160156 11.04710937 47.36648437 11.02390625 48 11 C48.66 9.02 49.32 7.04 50 5 C51.65614657 4.61781233 53.32457024 4.28604898 55 4 C56 5 56 5 56.25 8.1875 C55.97592856 12.3670895 55.35244487 14.54974753 53 18 C47.97169921 21.67924448 42.9633079 21.31820022 37 21 C37.05800781 21.56847656 37.11601562 22.13695312 37.17578125 22.72265625 C37.49611601 28.20495677 36.79203562 31.26417097 33.38671875 35.58984375 C30.61830201 38.40505063 29.01995649 38.99809938 25.0625 39.375 C22.04069755 39.29183113 21.173889 39.12355271 18.625 37.3125 C15.59580075 33.00171646 14.74872367 29.42796784 14.875 24.1875 C14.89304688 23.21167969 14.91109375 22.23585937 14.9296875 21.23046875 C14.95289063 20.49441406 14.97609375 19.75835937 15 19 C13.453125 19.0928125 13.453125 19.0928125 11.875 19.1875 C7.01197629 18.9521924 3.72712803 17.82896341 0.34375 14.24609375 C-1.34740516 11.41930824 -1.33733478 9.58318755 -1.25 6.3125 C-1.23453125 5.33925781 -1.2190625 4.36601562 -1.203125 3.36328125 C-1 1 -1 1 0 0 Z " fill="#100B0C" transform="translate(159,162)"/>
<path d="M0 0 C4.61480573 5.85396653 5.58251819 10.66027078 5 18 C6.32 18 7.64 18 9 18 C9 19.65 9 21.3 9 23 C7.35 23 5.7 23 4 23 C3.82984375 23.67546875 3.6596875 24.3509375 3.484375 25.046875 C2.10210061 30.13482116 1.13174576 33.51383952 -3 37 C-3.391875 37.825 -3.78375 38.65 -4.1875 39.5 C-7.04130929 43.43628867 -10.33285308 44.83005125 -15 46 C-28.34242838 47.10504775 -28.34242838 47.10504775 -33 44 C-32.67 42.02 -32.34 40.04 -32 38 C-31.505 38.165 -31.01 38.33 -30.5 38.5 C-21.57664616 40.28467077 -15.63033096 37.75260614 -8 33 C-3.50378344 29.16703323 -2.60880618 25.72831272 -2 20 C-1.74030618 11.61766045 -5.48495135 5.77257298 -10 -1 C-12.54974153 -2.01703173 -15.00955554 -2.88887259 -17.625 -3.6875 C-18.33140625 -3.91244141 -19.0378125 -4.13738281 -19.765625 -4.36914062 C-21.50742245 -4.92227901 -23.25334303 -5.46240363 -25 -6 C-25 -5.34 -25 -4.68 -25 -4 C-25.59167969 -3.90203125 -26.18335938 -3.8040625 -26.79296875 -3.703125 C-31.93365713 -2.73033568 -35.04086273 -1.5992157 -39 2 C-39.66 2 -40.32 2 -41 2 C-41.67561748 3.6630584 -42.33933281 5.33094605 -43 7 C-43.28746094 7.56976563 -43.57492188 8.13953125 -43.87109375 8.7265625 C-46.65557241 14.7410364 -45.96956148 19.76624232 -44 26 C-42.18621008 29.34752558 -42.18621008 29.34752558 -40 32 C-38.0625 34.5 -38.0625 34.5 -37 37 C-38.3125 40.3125 -38.3125 40.3125 -40 43 C-41.5 41.625 -41.5 41.625 -43 40 C-43 39.34 -43 38.68 -43 38 C-43.99 38 -44.98 38 -46 38 C-51.64085888 31.70634143 -53.4782458 23.6125672 -53.25 15.3671875 C-52.47428334 8.02212042 -50.63449896 2.93018659 -45 -2 C-44.525625 -2.86625 -44.05125 -3.7325 -43.5625 -4.625 C-41.40349219 -7.90669187 -39.70836379 -8.67558436 -36 -10 C-21.70556662 -12.51725871 -10.65213649 -10.10386476 0 0 Z " fill="#EBB931" transform="translate(247,130)"/>
<path d="M0 0 C6.20533979 6.20533979 6.83187004 10.48614194 6.90625 19.1328125 C6.28928972 22.89808479 5.39165632 24.11250776 2.375 26.375 C1.715 26.375 1.055 26.375 0.375 26.375 C0.375 27.035 0.375 27.695 0.375 28.375 C-3.1244737 31.771548 -5.74214739 33.18351558 -10.625 33.375 C-15.92780092 32.69649201 -19.76827786 31.23172214 -23.625 27.375 C-23.955 26.385 -24.285 25.395 -24.625 24.375 C-25.285 24.045 -25.945 23.715 -26.625 23.375 C-28.69689667 17.15931 -28.37818733 10.07704337 -25.703125 4.0703125 C-20.52302916 -4.07520053 -7.82763176 -3.50893838 0 0 Z " fill="#F3F1EC" transform="translate(170.625,125.625)"/>
<path d="M0 0 C1.36161311 0.96113866 2.69855198 1.95884159 4 3 C7.839037 3.52350505 10.4978471 2.88781904 14 1.4375 C17.74149344 -0.06336524 20.05348069 -0.20111457 24 1 C24.94875 1.515625 25.8975 2.03125 26.875 2.5625 C30.94387231 4.43418126 33.5509075 4.29660617 38 4 C38.66 3.67 39.32 3.34 40 3 C45.14103725 2.45883818 47.73959939 2.61047578 52 5.5625 C56.41590736 8.33492184 60.05607355 8.06348145 65.0625 7.5 C69.90183571 6.95677508 73.52736083 6.57047042 77.75 9.375 C78.30171875 9.83648437 78.8534375 10.29796875 79.421875 10.7734375 C81.27538347 12.21403567 82.69456508 12.63354254 85 13 C86.67004829 12.68404492 88.33637583 12.34820041 90 12 C93.69472869 11.4315802 96.00792011 11.30590748 99.1328125 13.4921875 C100.64129539 14.75889264 102.14513827 16.0311419 103.64453125 17.30859375 C107.28040859 19.91943104 110.6117571 20.37310816 115 21 C115 22.65 115 24.3 115 26 C108.68650484 26.50507961 105.10110774 26.15206444 100 22 C99.43023437 21.46632813 98.86046875 20.93265625 98.2734375 20.3828125 C95.11167629 18.45967939 92.61480249 18.69890838 88.9375 18.6875 C82.33234125 18.51541527 77.84147794 16.88037605 72.3671875 13.1796875 C69.38448977 11.69326058 68.15168528 12.11080979 65 13 C59.3254829 13.65764271 55.31523225 13.51861728 50.4375 10.375 C47.29708111 8.38685464 47.29708111 8.38685464 43.68359375 8.11328125 C42.1545599 8.49359931 40.63402838 8.91004877 39.125 9.36328125 C35.93486052 10.31915025 33.3000572 10.36667302 30 10 C28.29232529 8.95642101 26.58492769 7.91169379 24.90234375 6.828125 C21.347941 5.28082852 17.67271925 6.12483065 14 7 C13.34 7.33 12.68 7.66 12 8 C7.8408346 8.33273323 4.74354018 8.03735182 0.9375 6.4375 C-2.76489652 4.92938096 -5.08995204 4.78354063 -9 6 C-9.763125 6.53625 -10.52625 7.0725 -11.3125 7.625 C-15.78300942 9.91223738 -20.34616773 8.59846125 -25.11328125 7.5234375 C-29.05418755 6.72818791 -29.05418755 6.72818791 -32.703125 8.05078125 C-33.25484375 8.50839844 -33.8065625 8.96601562 -34.375 9.4375 C-38.6687465 12.96834849 -42.67056676 12.51388003 -48 12 C-50.68463275 11.73110302 -53.32955121 11.39562204 -56 11 C-55.67 9.68 -55.34 8.36 -55 7 C-51.7705243 5.96301239 -49.55897761 6.13878758 -46.25 6.75 C-41.14725785 7.37009897 -39.04338771 6.1108207 -35.01953125 3.15234375 C-31.53903364 1.16637316 -27.88206041 1.43621529 -24 2 C-23.34 2.33 -22.68 2.66 -22 3 C-16.28032246 3.39747139 -16.28032246 3.39747139 -11 1.5 C-6.92599581 -0.5370021 -4.53276656 -0.43865483 0 0 Z " fill="#B0ABA7" transform="translate(158,105)"/>
<path d="M0 0 C0.99 0 1.98 0 3 0 C2.67 1.98 2.34 3.96 2 6 C2.99 5.34 3.98 4.68 5 4 C5.99 4 6.98 4 8 4 C6.38483362 8.2581659 4.42036743 12.31140512 2.375 16.375 C2.02236084 17.07906982 1.66972168 17.78313965 1.30639648 18.50854492 C-1.3398988 23.7629367 -4.10077748 28.94776317 -6.91943359 34.11132812 C-8.86852994 37.72930844 -10.6617654 41.38750885 -12.36328125 45.12890625 C-12.7610376 45.99926514 -13.15879395 46.86962402 -13.56860352 47.76635742 C-14.34382836 49.47813207 -15.10650295 51.19565765 -15.85522461 52.91918945 C-16.20721924 53.69609131 -16.55921387 54.47299316 -16.921875 55.2734375 C-17.37965332 56.31636963 -17.37965332 56.31636963 -17.84667969 57.38037109 C-19 59 -19 59 -21.06738281 59.79541016 C-21.70514648 59.8629248 -22.34291016 59.93043945 -23 60 C-23.33 59.67 -23.66 59.34 -24 59 C-23.84597852 49.47898079 -22.13245321 39.87620113 -20.84326172 30.45141602 C-20.49645798 27.91155963 -20.15615563 25.37088676 -19.81640625 22.83007812 C-19.59673744 21.20828137 -19.37669914 19.58653462 -19.15625 17.96484375 C-19.00464417 16.83054176 -19.00464417 16.83054176 -18.84997559 15.67332458 C-18.43395217 12.65713321 -17.9654339 9.8963017 -17 7 C-15.03384339 5.9349985 -13.03273074 4.93166826 -11 4 C-10.67 3.67 -10.34 3.34 -10 3 C-8.47480724 3.08937803 -6.95318071 3.24537146 -5.4375 3.4375 C-4.61121094 3.53933594 -3.78492188 3.64117187 -2.93359375 3.74609375 C-2.29550781 3.82988281 -1.65742188 3.91367187 -1 4 C-0.67 2.68 -0.34 1.36 0 0 Z " fill="#221C1A" transform="translate(270,291)"/>
<path d="M0 0 C1.25490234 -0.00773438 1.25490234 -0.00773438 2.53515625 -0.015625 C5.24714896 0.28423761 6.76933917 0.56955463 8.9375 2.25 C10.71947664 7.00672798 9.50872138 10.17191643 7.53613281 14.57055664 C7.17358398 15.33102295 6.81103516 16.09148926 6.4375 16.875 C6.07237305 17.66318115 5.70724609 18.4513623 5.33105469 19.26342773 C-3.19179887 37.37356916 -3.19179887 37.37356916 -7.046875 39.1796875 C-10.29313718 39.2929292 -11.89115865 37.83513563 -14.37890625 35.8984375 C-18.2622645 32.09617026 -20.25864349 27.61632122 -20.4375 22.1875 C-19.59985906 13.39227015 -16.6761616 8.10100513 -10.0625 2.25 C-6.63124462 0.50148488 -3.83247773 -0.02369383 0 0 Z " fill="#0C0709" transform="translate(56.0625,4.75)"/>
<path d="M0 0 C1.65 0 3.3 0 5 0 C5 25.74 5 51.48 5 78 C1.69005287 79.65497356 -1.99123 79.10084335 -5.625 79.0625 C-6.42679688 79.05798828 -7.22859375 79.05347656 -8.0546875 79.04882812 C-10.03649006 79.03703168 -12.01825433 79.01909605 -14 79 C-14.66 77.68 -15.32 76.36 -16 75 C-14 72 -14 72 -12.16015625 71.453125 C-11.46792969 71.38609375 -10.77570313 71.3190625 -10.0625 71.25 C-9.02802734 71.13398438 -9.02802734 71.13398438 -7.97265625 71.015625 C-6 71 -6 71 -3 72 C-3.00222061 71.35901367 -3.00444122 70.71802734 -3.00672913 70.05761719 C-3.02907639 63.30762293 -3.04402762 56.55763941 -3.05493164 49.80761719 C-3.05992028 47.29784721 -3.06671358 44.78808008 -3.07543945 42.27832031 C-3.18541722 9.80253278 -3.18541722 9.80253278 -2 2 C-1.34 1.34 -0.68 0.68 0 0 Z " fill="#847C74" transform="translate(162,271)"/>
<path d="M0 0 C1.32 0 2.64 0 4 0 C5.76030829 3.52061658 5.40485651 7.61762349 5.5625 11.5 C5.6042334 12.51650635 5.6459668 13.5330127 5.68896484 14.58032227 C6.08098938 25.69701805 6.11048761 36.81501494 6.125 47.9375 C6.1275882 48.86127441 6.13017639 49.78504883 6.13284302 50.73681641 C6.13875875 53.41703035 6.13708671 56.09712857 6.1328125 58.77734375 C6.13578087 59.97163246 6.13578087 59.97163246 6.1388092 61.19004822 C6.07886473 75.92113527 6.07886473 75.92113527 4 78 C1.17583618 78.12663091 -1.61294793 78.18520548 -4.4375 78.1875 C-5.22705078 78.19974609 -6.01660156 78.21199219 -6.83007812 78.22460938 C-8.88807435 78.22987279 -10.94562009 78.12206285 -13 78 C-13.66 77.34 -14.32 76.68 -15 76 C-14.46428571 72.46428571 -14.46428571 72.46428571 -13 71 C-11.31816052 70.76712992 -9.6287584 70.58735834 -7.9375 70.4375 C-7.01839844 70.35371094 -6.09929687 70.26992188 -5.15234375 70.18359375 C-4.44207031 70.12300781 -3.73179687 70.06242187 -3 70 C-3.00523682 69.36126953 -3.01047363 68.72253906 -3.01586914 68.06445312 C-3.11977568 53.07034474 -3.00227131 38.08380301 -2.68161011 23.09301758 C-2.64383753 21.2794453 -2.60943974 19.46579961 -2.57839966 17.65209961 C-2.53335021 15.08806189 -2.47548058 12.52462873 -2.4140625 9.9609375 C-2.40250626 9.18507294 -2.39095001 8.40920837 -2.37904358 7.60983276 C-2.22874997 2.22874997 -2.22874997 2.22874997 0 0 Z " fill="#847C73" transform="translate(189,272)"/>
<path d="M0 0 C13.80448197 2.31893472 13.80448197 2.31893472 17.625 6.984375 C23.12479024 14.86388217 24.57429691 20.55421851 23 30 C22.02615693 35.06398397 19.99835778 37.50025735 16.0546875 40.609375 C9.92171743 44.76020645 4.41795153 46.86542768 -3 46 C-5.6875 44.5625 -5.6875 44.5625 -8 43 C-8.825 42.896875 -9.65 42.79375 -10.5 42.6875 C-14.24688042 41.65710789 -16.0129325 39.16560409 -18 36 C-20.64484634 30.60101615 -22.92740084 24.49010022 -21.33984375 18.515625 C-18.52809953 10.82032504 -14.27970447 5.93104041 -7 2 C-3.125 1.75 -3.125 1.75 0 2 C0 1.34 0 0.68 0 0 Z M-6.1484375 5.078125 C-7.06496094 5.53445312 -7.06496094 5.53445312 -8 6 C-8.66 5.67 -9.32 5.34 -10 5 C-10.33 5.99 -10.66 6.98 -11 8 C-11.474375 8.45375 -11.94875 8.9075 -12.4375 9.375 C-16.41643595 13.51309339 -16.48218216 18.76561712 -16.38671875 24.20703125 C-15.66113813 29.44733572 -13.02470379 33.20307539 -9.125 36.6640625 C-4.85897334 39.34601308 0.32733067 39.44230795 5.21875 38.6328125 C11.79033614 36.58551066 15.26087376 32.06086218 18.5625 26.25 C19.4000154 20.02845705 17.48835353 13.46005646 13.6875 8.4375 C8.89177756 4.08789127 4.36330209 3.77798808 -1.8515625 3.734375 C-4.07512811 3.88733483 -4.07512811 3.88733483 -6.1484375 5.078125 Z " fill="#F0E6D8" transform="translate(222,124)"/>
<path d="M0 0 C2.14650858 3.21976287 3.00164552 6.20249744 4 9.875 C6.38413098 18.3117382 9.19144223 26.59421778 12.0625 34.875 C12.48595703 36.09815918 12.90941406 37.32131836 13.34570312 38.58154297 C15.56594711 44.9625796 17.8379088 51.30927602 20.29858398 57.60205078 C21.06698767 60.22901248 21.27105491 62.27797767 21 65 C20.01 65.99 20.01 65.99 19 67 C16.5625 66.9375 16.5625 66.9375 14 66 C11.53519544 62.47539685 10.10872665 58.8564671 8.73046875 54.80078125 C8.31925781 53.59953613 7.90804687 52.39829102 7.484375 51.16064453 C7.05188262 49.87799735 6.61959472 48.5952812 6.1875 47.3125 C5.74131437 46.00099331 5.29469744 44.68963328 4.84765625 43.37841797 C3.55750743 39.58815423 2.27819767 35.79431042 1 32 C0.66436035 31.00822754 0.3287207 30.01645508 -0.01708984 28.99462891 C-0.84789575 26.53913591 -1.67546654 24.08260554 -2.5 21.625 C-2.73050049 20.93833252 -2.96100098 20.25166504 -3.19848633 19.54418945 C-7 8.09937512 -7 8.09937512 -7 3 C-5.5459375 2.814375 -5.5459375 2.814375 -4.0625 2.625 C-2.5465625 2.315625 -2.5465625 2.315625 -1 2 C-0.67 1.34 -0.34 0.68 0 0 Z " fill="#867E76" transform="translate(69,92)"/>
<path d="M0 0 C11.6634181 -0.81848548 23.27198408 2.56738242 33 9 C33.25 11.3125 33.25 11.3125 33 14 C24.7671163 22.2328837 5.22791413 20.04846001 -5.625 20.0625 C-7.08340158 20.04717145 -8.54180436 20.02890696 -10 20 C-10.33 19.01 -10.66 18.02 -11 17 C-8.69 17 -6.38 17 -4 17 C-4.33 15.02 -4.66 13.04 -5 11 C-4.34 11 -3.68 11 -3 11 C-3.33 10.01 -3.66 9.02 -4 8 C-3.01 7.34 -2.02 6.68 -1 6 C-1.33 5.01 -1.66 4.02 -2 3 C-1.34 3 -0.68 3 0 3 C0 2.01 0 1.02 0 0 Z " fill="#C8B09C" transform="translate(212,262)"/>
<path d="M0 0 C1.11375 1.175625 1.11375 1.175625 2.25 2.375 C5.14826662 5.14152723 7.169531 6.02011258 11 7 C10.01 7.495 10.01 7.495 9 8 C9.05800781 8.56847656 9.11601562 9.13695312 9.17578125 9.72265625 C9.49611601 15.20495677 8.79203562 18.26417097 5.38671875 22.58984375 C2.61830201 25.40505063 1.01995649 25.99809938 -2.9375 26.375 C-5.95930245 26.29183113 -6.826111 26.12355271 -9.375 24.3125 C-12.40419925 20.00171646 -13.25127633 16.42796784 -13.125 11.1875 C-13.10695312 10.21167969 -13.08890625 9.23585937 -13.0703125 8.23046875 C-13.04710937 7.49441406 -13.02390625 6.75835937 -13 6 C-15.31 6 -17.62 6 -20 6 C-20 5.67 -20 5.34 -20 5 C-19.20335937 4.97421875 -18.40671875 4.9484375 -17.5859375 4.921875 C-11.3185476 4.58639428 -5.05674883 0 0 0 Z " fill="#67605B" transform="translate(187,175)"/>
<path d="M0 0 C0.7730246 0.10732452 1.54604919 0.21464905 2.34249878 0.32522583 C15.46316279 2.17988905 15.46316279 2.17988905 20.875 4.5 C23.05444881 4.9952056 25.24316181 5.4506115 27.4375 5.875 C34.12026279 7.25107048 40.46247228 9.18632242 46.875 11.5 C46.545 12.49 46.215 13.48 45.875 14.5 C39.49805555 13.82874269 33.76330487 12.38764231 27.62109375 10.5 C20.37545072 8.31005358 13.36040473 6.83589206 5.8359375 5.9921875 C2.875 5.5 2.875 5.5 0.99365234 4.52026367 C-1.38784333 3.37342449 -3.36683238 3.02244964 -5.984375 2.68359375 C-6.92603516 2.55960205 -7.86769531 2.43561035 -8.83789062 2.30786133 C-9.84013672 2.18564209 -10.84238281 2.06342285 -11.875 1.9375 C-12.91849609 1.80819092 -13.96199219 1.67888184 -15.03710938 1.5456543 C-39.43789709 -1.39531048 -64.76252727 -2.09274356 -89.125 1.5 C-91.790423 1.84413147 -94.45751221 2.17210283 -97.125 2.5 C-97.125 3.16 -97.125 3.82 -97.125 4.5 C-99.105 4.5 -101.085 4.5 -103.125 4.5 C-103.455 3.51 -103.785 2.52 -104.125 1.5 C-70.16283451 -7.64536744 -34.45364273 -4.79985723 0 0 Z " fill="#C7B7A8" transform="translate(211.125,249.5)"/>
<path d="M0 0 C1.2065625 0.0309375 1.2065625 0.0309375 2.4375 0.0625 C2.4375 0.7225 2.4375 1.3825 2.4375 2.0625 C4.0875 2.0625 5.7375 2.0625 7.4375 2.0625 C7.1075 3.0525 6.7775 4.0425 6.4375 5.0625 C5.7775 5.0625 5.1175 5.0625 4.4375 5.0625 C4.04949219 6.27808594 3.66148437 7.49367188 3.26171875 8.74609375 C1.18517844 14.97571467 -1.28846165 21.03962773 -3.75 27.125 C-4.21341797 28.27677734 -4.67683594 29.42855469 -5.15429688 30.61523438 C-6.2879972 33.43195374 -7.42411501 36.24767147 -8.5625 39.0625 C-9.2225 39.0625 -9.8825 39.0625 -10.5625 39.0625 C-10.5625 40.3825 -10.5625 41.7025 -10.5625 43.0625 C-11.5525 43.0625 -12.5425 43.0625 -13.5625 43.0625 C-14.00406693 34.54189368 -13.239091 26.37708483 -12.125 17.9375 C-11.99053467 16.917771 -11.85606934 15.89804199 -11.7175293 14.84741211 C-10.70678148 7.49534443 -10.70678148 7.49534443 -9.5625 4.0625 C-7.59634339 2.9974985 -5.59523074 1.99416826 -3.5625 1.0625 C-2.5625 0.0625 -2.5625 0.0625 0 0 Z " fill="#0C0808" transform="translate(262.5625,293.9375)"/>
<path d="M0 0 C2.4375 0.1875 2.4375 0.1875 3.4375 1.1875 C5.22233585 16.8940555 -6.47427345 34.44241574 -14.5625 47.1875 C-19.3125 45.3125 -19.3125 45.3125 -21.5625 44.1875 C-20.92876775 41.11527625 -19.88919118 38.76682474 -18.3125 36.0625 C-12.55494171 25.92455154 -7.08113933 15.57972472 -5.0546875 4 C-4.22157015 0.93201228 -3.10863949 0.22746143 0 0 Z " fill="#0E0A0B" transform="translate(77.5625,3.8125)"/>
<path d="M0 0 C1.32 0 2.64 0 4 0 C6 3 6 3 6 7 C6.66 7 7.32 7 8 7 C9.64382116 11.46180029 10.61198251 15.86950827 11.4375 20.53515625 C11.93693053 23.03823057 11.93693053 23.03823057 13.00390625 25.43359375 C14.82915094 30.13628302 15.26268421 34.98134898 15 40 C13.0625 43.375 13.0625 43.375 10 45 C7.03492528 44.77570468 4.84714379 44.01339016 2 43 C3.875 38.125 3.875 38.125 5 37 C5.28531393 32.86122925 5.28531393 32.86122925 4 29 C2.64270801 26.28541602 2.86412262 23.98930243 3 21 C2.34 21 1.68 21 1 21 C-2.63352827 7.82846004 -2.63352827 7.82846004 -2 2 C-1.34 1.34 -0.68 0.68 0 0 Z " fill="#847C72" transform="translate(263,230)"/>
<path d="M0 0 C0.66 0.33 1.32 0.66 2 1 C1.75 2.875 1.75 2.875 1 5 C-1.0625 6.25 -1.0625 6.25 -3 7 C-2.814375 7.928125 -2.62875 8.85625 -2.4375 9.8125 C-2 13 -2 13 -3 16 C-8.25714286 20 -8.25714286 20 -12 20 C-12.33 20.99 -12.66 21.98 -13 23 C-13 22.01 -13 21.02 -13 20 C-13.7425 19.9175 -14.485 19.835 -15.25 19.75 C-18.74780317 18.79605368 -19.96194385 18.01934244 -22 15 C-22.69054398 11.84238437 -22.69660983 9.1572155 -22 6 C-19.34603175 2.1751634 -19.34603175 2.1751634 -16 1 C-12.30912299 0.71962726 -8.74373271 0.75029089 -5.046875 0.921875 C-2.08179505 1.236728 -2.08179505 1.236728 0 0 Z " fill="#817870" transform="translate(265,278)"/>
<path d="M0 0 C0.33 0.66 0.66 1.32 1 2 C1.99 2 2.98 2 4 2 C4.33 2.33 4.66 2.66 5 3 C5.556875 2.62875 6.11375 2.2575 6.6875 1.875 C9 1 9 1 11.625 1.875 C12.40875 2.24625 13.1925 2.6175 14 3 C14.66 3 15.32 3 16 3 C17 6 17 6 16.5 9.4375 C16.02566749 12.81711912 16.21826142 13.88156987 17 17 C17.08059997 18.9517327 17.10762243 20.90600418 17.09765625 22.859375 C17.09443359 23.97441406 17.09121094 25.08945312 17.08789062 26.23828125 C17.07951172 27.39714844 17.07113281 28.55601562 17.0625 29.75 C17.05798828 30.92433594 17.05347656 32.09867187 17.04882812 33.30859375 C17.03705094 36.20578072 17.02060326 39.10286454 17 42 C16.67 42 16.34 42 16 42 C15.505 30.615 15.505 30.615 15 19 C9.39 18.67 3.78 18.34 -2 18 C-2.226875 15.40125 -2.45375 12.8025 -2.6875 10.125 C-2.76701904 9.30789551 -2.84653809 8.49079102 -2.9284668 7.64892578 C-3.06857059 5.77101862 -3.03781415 3.88274652 -3 2 C-2.01 1.34 -1.02 0.68 0 0 Z " fill="#E3D3C2" transform="translate(170,267)"/>
<path d="M0 0 C0.94875 0.185625 1.8975 0.37125 2.875 0.5625 C5.89868793 1.28686632 5.89868793 1.28686632 8 0 C8.49126412 4.91264118 7.34325556 7.68687963 5.0703125 11.8671875 C3.98440273 14.0310807 3.26406591 16.1231389 2.5625 18.4375 C0.99778431 23.36001098 -1.37040257 27.57572183 -4 32 C-4.40347656 32.76183594 -4.80695312 33.52367187 -5.22265625 34.30859375 C-8.25272398 39.77440724 -8.25272398 39.77440724 -12.3125 41 C-13.199375 41 -14.08625 41 -15 41 C-14.67 40.01 -14.34 39.02 -14 38 C-14.99 37.67 -15.98 37.34 -17 37 C-16.42121094 36.49597656 -15.84242187 35.99195313 -15.24609375 35.47265625 C-12.44462786 32.38860772 -10.84858422 29.17371449 -9.0625 25.4375 C-8.71767578 24.72803223 -8.37285156 24.01856445 -8.01757812 23.28759766 C-7.32680281 21.86053333 -6.64004115 20.43151846 -5.95751953 19.00048828 C-5.11066589 17.23120762 -4.24245125 15.47218585 -3.37109375 13.71484375 C-2.69240234 12.30912109 -2.69240234 12.30912109 -2 10.875 C-1.608125 10.06804688 -1.21625 9.26109375 -0.8125 8.4296875 C0.16013294 5.52114092 0.14128502 3.04645833 0 0 Z " fill="#9B9795" transform="translate(65,7)"/>
<path d="M0 0 C3.23613354 1.74253345 3.82395315 2.47185944 5 6 C5.03954234 8.33299825 5.04401732 10.66708189 5 13 C4.34 13 3.68 13 3 13 C2.79375 13.639375 2.5875 14.27875 2.375 14.9375 C1 17 1 17 -1.8125 17.875 C-5.29142417 18.0114284 -7.0163854 17.77404111 -10 16 C-12.17229597 13.30335673 -12.93080083 11.41519499 -13.5 8 C-13 5 -13 5 -11 2.125 C-6.87076758 -0.79987296 -4.98906907 -0.63353258 0 0 Z " fill="#100B0C" transform="translate(226,137)"/>
<path d="M0 0 C2.81009519 1.00875212 3.66697708 1.33395417 5 4 C5.49786109 8.22773846 5.67393745 11.79863324 3.5625 15.5625 C-0.2633942 17.70873333 -3.72983877 18.02640573 -8 17 C-11.15847997 13.84152003 -11.89264241 11.77834256 -12.5 7.375 C-12 4 -12 4 -10.5 1.5625 C-6.9769181 -0.63942619 -4.05070111 -0.56560098 0 0 Z " fill="#100B0C" transform="translate(164,133)"/>
<path d="M0 0 C0.90492188 0.30744141 0.90492188 0.30744141 1.828125 0.62109375 C3.02695313 1.02521484 3.02695313 1.02521484 4.25 1.4375 C5.03890625 1.70433594 5.8278125 1.97117187 6.640625 2.24609375 C11.05246033 3.65583583 13.4453221 3.95330468 18 3 C21.69472869 2.4315802 24.00792011 2.30590748 27.1328125 4.4921875 C28.64129539 5.75889264 30.14513827 7.0311419 31.64453125 8.30859375 C35.28040859 10.91943104 38.6117571 11.37310816 43 12 C43 13.65 43 15.3 43 17 C36.68650484 17.50507961 33.10110774 17.15206444 28 13 C27.4328125 12.46632813 26.865625 11.93265625 26.28125 11.3828125 C23.08713679 9.44665483 20.52174881 9.69884327 16.8125 9.6875 C10.62401838 9.49958303 6.45727485 8.24676867 1.44140625 4.5703125 C0 3 0 3 0 0 Z " fill="#A19D9A" transform="translate(230,114)"/>
<path d="M0 0 C0.33 0.66 0.66 1.32 1 2 C2.99883869 2.34022786 4.99890722 2.67329097 7 3 C9 5 9 5 9.046875 6.8828125 C7.42180095 19.1563981 7.42180095 19.1563981 5 24 C2.69 23.67 0.38 23.34 -2 23 C-2.22893297 19.96663814 -2.36475845 17.02534949 -2 14 C0 11.9375 0 11.9375 2 11 C1.67 10.01 1.34 9.02 1 8 C-0.670625 8.2784375 -0.670625 8.2784375 -2.375 8.5625 C-6 9 -6 9 -8 8 C-3.375 2.25 -3.375 2.25 0 0 Z " fill="#EAB732" transform="translate(264,271)"/>
<path d="M0 0 C0.99 0 1.98 0 3 0 C4.44430855 2.88861709 4.37688506 4.79647701 4 8 C1.670963 10.7948444 -0.83935508 12.87297843 -3.6875 15.125 C-6.19153669 16.96561073 -6.19153669 16.96561073 -8 20 C-9.98 19.67 -11.96 19.34 -14 19 C-13.67 17.68 -13.34 16.36 -13 15 C-12.34 15 -11.68 15 -11 15 C-11 12.03 -11 9.06 -11 6 C-10.28972656 5.65066406 -9.57945312 5.30132812 -8.84765625 4.94140625 C-7.92855469 4.48636719 -7.00945312 4.03132813 -6.0625 3.5625 C-5.14597656 3.11003906 -4.22945313 2.65757812 -3.28515625 2.19140625 C-1.09471096 1.19474606 -1.09471096 1.19474606 0 0 Z " fill="#F7F5F1" transform="translate(265,259)"/>
<path d="M0 0 C2.97 0.33 5.94 0.66 9 1 C8.67 1.99 8.34 2.98 8 4 C7.34 4 6.68 4 6 4 C5.60167969 5.24652344 5.20335937 6.49304688 4.79296875 7.77734375 C2.89184256 13.48072233 0.61576004 19.01190045 -1.6875 24.5625 C-2.10322266 25.57119141 -2.51894531 26.57988281 -2.94726562 27.61914062 C-3.96215979 30.0805506 -4.97978253 32.54079283 -6 35 C-6.33 35 -6.66 35 -7 35 C-6.40732947 28.84722445 -5.4591508 22.95504006 -4.0625 16.9375 C-3.89298828 16.18662109 -3.72347656 15.43574219 -3.54882812 14.66210938 C-2.43384553 9.75703387 -1.2343026 4.87632551 0 0 Z " fill="#080405" transform="translate(261,295)"/>
<path d="M0 0 C1.216875 -0.04125 2.43375 -0.0825 3.6875 -0.125 C4.71423828 -0.15980469 4.71423828 -0.15980469 5.76171875 -0.1953125 C8.46695768 0.04074674 10.4883888 0.97454927 13 2 C15.17944881 2.4952056 17.36816181 2.9506115 19.5625 3.375 C26.24526279 4.75107048 32.58747228 6.68632242 39 9 C38.67 9.99 38.34 10.98 38 12 C32.75553655 11.44795122 28.07390738 10.51022083 23 9 C15.04766656 6.65731029 7.17278937 4.43117971 -1 3 C-0.67 2.01 -0.34 1.02 0 0 Z " fill="#AFA196" transform="translate(219,252)"/>
<path d="M0 0 C0.33 0.99 0.66 1.98 1 3 C1.99 2.67 2.98 2.34 4 2 C2.39369175 6.24292532 0.4231838 10.27025107 -1.625 14.3125 C-1.94984375 14.95767578 -2.2746875 15.60285156 -2.609375 16.26757812 C-3.40441956 17.84597541 -4.20195634 19.42311694 -5 21 C-6.32 20.67 -7.64 20.34 -9 20 C-8.85786703 18.10388566 -8.71113093 16.20811606 -8.5625 14.3125 C-8.48128906 13.25675781 -8.40007812 12.20101563 -8.31640625 11.11328125 C-8.03548319 8.34913703 -7.59843148 5.71054259 -7 3 C-6.67 4.32 -6.34 5.64 -6 7 C-5.01 7 -4.02 7 -3 7 C-3 5.68 -3 4.36 -3 3 C-2.34 3 -1.68 3 -1 3 C-0.67 2.01 -0.34 1.02 0 0 Z " fill="#2E2724" transform="translate(255,330)"/>
<path d="M0 0 C0.66 0 1.32 0 2 0 C2.12375 0.969375 2.2475 1.93875 2.375 2.9375 C2.58125 3.948125 2.7875 4.95875 3 6 C3.66 6.33 4.32 6.66 5 7 C5.99 7.66 6.98 8.32 8 9 C8.1875 11.625 8.1875 11.625 8 14 C8.66 14.33 9.32 14.66 10 15 C8.04315057 17.39170486 7.1930908 17.96713348 4.0625 18.5 C0.81668084 19.68507633 0.81668084 19.68507633 -0.13671875 22.53515625 C-0.78806676 24.53039224 -1.3923971 26.5416827 -1.9453125 28.56640625 C-3 31 -3 31 -5.1171875 31.83984375 C-5.73851562 31.89269531 -6.35984375 31.94554687 -7 32 C-7 32.66 -7 33.32 -7 34 C-7.99 33.67 -8.98 33.34 -10 33 C-9.21654285 31.82780457 -8.42297164 30.66236332 -7.625 29.5 C-7.18414062 28.8503125 -6.74328125 28.200625 -6.2890625 27.53125 C-5.86367187 27.0259375 -5.43828125 26.520625 -5 26 C-4.34 26 -3.68 26 -3 26 C-2.87625 25.0925 -2.7525 24.185 -2.625 23.25 C-2.07890323 20.41029677 -1.42736197 18.47409409 0 16 C1.65 16 3.3 16 5 16 C5 14.35 5 12.7 5 11 C3.68 11 2.36 11 1 11 C0.67 7.37 0.34 3.74 0 0 Z " fill="#E4C37B" transform="translate(251,137)"/>
<path d="M0 0 C0.66 0.33 1.32 0.66 2 1 C2.50920111 6.5666901 0.91880607 9.95684392 -1.6875 14.6875 C-2.02716797 15.35072266 -2.36683594 16.01394531 -2.71679688 16.69726562 C-4.89042801 20.73168752 -6.71046811 22.99421188 -11 25 C-11.1875 22.1875 -11.1875 22.1875 -11 19 C-10.55269531 18.57332031 -10.10539063 18.14664062 -9.64453125 17.70703125 C-7.30932744 15.2830786 -6.60983379 12.65875771 -5.5 9.5 C-3.02816901 2.46478873 -3.02816901 2.46478873 0 0 Z " fill="#151011" transform="translate(266,309)"/>
<path d="M0 0 C0.66 0.66 1.32 1.32 2 2 C1.01 2.33 0.02 2.66 -1 3 C-1.495 2.505 -1.495 2.505 -2 2 C-3.94968608 2.18451168 -5.89200538 2.44763499 -7.828125 2.7421875 C-9.02050781 2.92136719 -10.21289062 3.10054688 -11.44140625 3.28515625 C-12.69824219 3.47980469 -13.95507812 3.67445312 -15.25 3.875 C-16.49136719 4.06191406 -17.73273438 4.24882813 -19.01171875 4.44140625 C-24.03012539 5.20308046 -29.02928511 5.96683933 -34 7 C-34 7.66 -34 8.32 -34 9 C-35.32 9.33 -36.64 9.66 -38 10 C-38 9.34 -38 8.68 -38 8 C-41.00384054 8.6954344 -41.00384054 8.6954344 -44 10 C-44.95417268 12.18096612 -45 13.64182234 -45 16 C-46.32 15.34 -47.64 14.68 -49 14 C-48.63569303 11.35877448 -48.27297133 10.24212991 -46.24755859 8.44555664 C-43.87249274 6.91799148 -42.03406723 6.2958655 -39.2890625 5.68359375 C-38.38043457 5.47758545 -37.47180664 5.27157715 -36.53564453 5.05932617 C-35.57513184 4.85412354 -34.61461914 4.6489209 -33.625 4.4375 C-32.14749268 4.1132605 -32.14749268 4.1132605 -30.64013672 3.7824707 C-9.61672261 -0.73974789 -9.61672261 -0.73974789 0 0 Z " fill="#F2EBE4" transform="translate(136,80)"/>
<path d="M0 0 C0.78375 0.04125 1.5675 0.0825 2.375 0.125 C1.055 0.455 -0.265 0.785 -1.625 1.125 C-1.73457031 1.82882812 -1.84414063 2.53265625 -1.95703125 3.2578125 C-2.87362495 8.96603017 -3.92534534 14.60742623 -5.1875 20.25 C-6.29099384 25.25176606 -7.05886222 30.12625663 -7.4140625 35.234375 C-7.625 37.125 -7.625 37.125 -8.625 39.125 C-9.285 39.125 -9.945 39.125 -10.625 39.125 C-10.625 40.445 -10.625 41.765 -10.625 43.125 C-11.285 43.125 -11.945 43.125 -12.625 43.125 C-12.44324219 42.3721875 -12.26148438 41.619375 -12.07421875 40.84375 C-10.26773158 33.21018371 -8.74070546 25.57400591 -7.37109375 17.8515625 C-6.625 14.125 -6.625 14.125 -5.53515625 10.32421875 C-4.49673351 7.22850164 -4.49673351 7.22850164 -4.625 4.3125 C-4.625 0.82736344 -3.33520723 0.15881939 0 0 Z " fill="#29221E" transform="translate(262.625,293.875)"/>
<path d="M0 0 C0.9416954 0.00141495 1.88339081 0.0028299 2.85362244 0.00428772 C5.82823007 0.00983503 8.8027593 0.02237738 11.77734375 0.03515625 C13.80794161 0.04017807 15.83854067 0.04473978 17.86914062 0.04882812 C22.81773803 0.05978713 27.76627765 0.07701473 32.71484375 0.09765625 C32.71484375 0.42765625 32.71484375 0.75765625 32.71484375 1.09765625 C28.05395086 2.01985044 23.56472829 2.21624586 18.83203125 2.16015625 C18.0953421 2.15636963 17.35865295 2.15258301 16.59963989 2.14868164 C14.26297944 2.13654266 11.92644706 2.11791163 9.58984375 2.09765625 C6.5039095 2.07102604 3.41803733 2.05105979 0.33203125 2.03515625 C-0.72433029 2.02270874 -0.72433029 2.02270874 -1.80203247 2.01000977 C-5.13583043 1.99335068 -8.0850924 2.15460356 -11.28515625 3.09765625 C-13.9928102 2.94448604 -16.59774358 2.50076815 -19.28515625 2.09765625 C-19.28515625 1.76765625 -19.28515625 1.43765625 -19.28515625 1.09765625 C-12.81214968 0.26881314 -6.52145075 -0.03764487 0 0 Z " fill="#F2ECE6" transform="translate(155.28515625,77.90234375)"/>
<path d="M0 0 C0.33 0 0.66 0 1 0 C1.33 1.98 1.66 3.96 2 6 C2.33 6 2.66 6 3 6 C3.54249536 14.00180661 1.60838688 20.46595398 -1 28 C-1.33 28 -1.66 28 -2 28 C-2.29032827 18.43529656 -1.46051903 9.42817197 0 0 Z " fill="#161110" transform="translate(251,309)"/>
<path d="M0 0 C2.97 0.33 5.94 0.66 9 1 C4.15162143 5.26069632 -0.6911819 8.13198207 -7.25 8.3125 C-11 8 -11 8 -14 6 C-7.375 4 -7.375 4 -4 4 C-1.84971696 3.05021103 -1.84971696 3.05021103 0 2 C0 1.34 0 0.68 0 0 Z " fill="#F0E3D1" transform="translate(230,162)"/>
<path d="M0 0 C16.66666667 3.66666667 16.66666667 3.66666667 22 9 C22.125 11.625 22.125 11.625 22 14 C21.67 13.34 21.34 12.68 21 12 C20.01 12 19.02 12 18 12 C18 11.01 18 10.02 18 9 C11.89365599 5.47765926 11.89365599 5.47765926 5 5 C4.67 4.34 4.34 3.68 4 3 C1.97536745 2.34786708 1.97536745 2.34786708 0 2 C0 1.34 0 0.68 0 0 Z " fill="#F3EDE5" transform="translate(274,95)"/>
<path d="M0 0 C0.66 0 1.32 0 2 0 C2.12375 0.969375 2.2475 1.93875 2.375 2.9375 C2.684375 4.4534375 2.684375 4.4534375 3 6 C3.66 6.33 4.32 6.66 5 7 C5.99 7.66 6.98 8.32 8 9 C8.1875 11.625 8.1875 11.625 8 14 C8.66 14.33 9.32 14.66 10 15 C9.01 15.99 8.02 16.98 7 18 C6.01 17.67 5.02 17.34 4 17 C4.66 17 5.32 17 6 17 C6.33 14.69 6.66 12.38 7 10 C5.02 10 3.04 10 1 10 C0.67 6.7 0.34 3.4 0 0 Z " fill="#E1C69E" transform="translate(251,137)"/>
<path d="M0 0 C0.66 0 1.32 0 2 0 C1.54842977 4.85437999 0.40802387 7.49174013 -3 11 C-3.99 11.33 -4.98 11.66 -6 12 C-6.3125 9.25 -6.3125 9.25 -6 6 C-3.5625 3.75 -3.5625 3.75 -1 2 C-0.67 1.34 -0.34 0.68 0 0 Z " fill="#1C1717" transform="translate(261,322)"/>
<path d="M0 0 C3 3.46153846 3 3.46153846 3 6 C0.36 6.33 -2.28 6.66 -5 7 C-5.66 5.68 -6.32 4.36 -7 3 C-2.25 0 -2.25 0 0 0 Z " fill="#D2C5B8" transform="translate(187,175)"/>
<path d="M0 0 C0.70125 0.61875 1.4025 1.2375 2.125 1.875 C1.43535156 1.730625 0.74570313 1.58625 0.03515625 1.4375 C-6.0630192 0.23292213 -11.66263445 -0.32868412 -17.875 -0.125 C-16.875 -2.125 -16.875 -2.125 -13.1875 -3.375 C-7.74240454 -4.60014648 -4.46008502 -3.29658458 0 0 Z " fill="#E0C48E" transform="translate(234.875,120.125)"/>
<path d="M0 0 C-2.64738916 1.4606285 -3.89448334 2 -7 2 C-7.24492187 2.56203125 -7.48984375 3.1240625 -7.7421875 3.703125 C-9.22926539 6.41865854 -11.04062782 8.46391438 -13.125 10.75 C-14.21167969 11.94882813 -14.21167969 11.94882813 -15.3203125 13.171875 C-15.87460938 13.77515625 -16.42890625 14.3784375 -17 15 C-17.33 14.01 -17.66 13.02 -18 12 C-17.236875 11.278125 -16.47375 10.55625 -15.6875 9.8125 C-12.966808 7.20803277 -12.966808 7.20803277 -11.5625 4.375 C-8.83475868 0.22883319 -4.78710131 -2.02531209 0 0 Z " fill="#E9BE4E" transform="translate(215,121)"/>
<path d="M0 0 C0 2.97 0 5.94 0 9 C0.66 9.33 1.32 9.66 2 10 C2.33 8.02 2.66 6.04 3 4 C3.99 5.485 3.99 5.485 5 7 C4.34 8.32 3.68 9.64 3 11 C0.69 10.67 -1.62 10.34 -4 10 C-4 7.03 -4 4.06 -4 1 C-2 0 -2 0 0 0 Z " fill="#E1C58A" transform="translate(266,284)"/>
<path d="M0 0 C1.65 0 3.3 0 5 0 C5 0.66 5 1.32 5 2 C12.59 2.33 20.18 2.66 28 3 C28 3.33 28 3.66 28 4 C18.76 4.33 9.52 4.66 0 5 C0 3.35 0 1.7 0 0 Z " fill="#E4D4C5" transform="translate(195,282)"/>
<path d="M0 0 C0.33 0 0.66 0 1 0 C1 1.98 1 3.96 1 6 C2.32 6.33 3.64 6.66 5 7 C4.34 8.98 3.68 10.96 3 13 C1.68 12.67 0.36 12.34 -1 12 C-0.67 8.04 -0.34 4.08 0 0 Z " fill="#DEC077" transform="translate(247,338)"/>
<path d="M0 0 C0.33 1.32 0.66 2.64 1 4 C1.99 4 2.98 4 4 4 C4 5.98 4 7.96 4 10 C4.66 10.33 5.32 10.66 6 11 C3 12 3 12 0 11 C0 7.37 0 3.74 0 0 Z " fill="#544B46" transform="translate(248,333)"/>
<path d="M0 0 C1.4800841 0.11362262 2.95910074 0.24122908 4.4375 0.375 C5.26121094 0.44460937 6.08492187 0.51421875 6.93359375 0.5859375 C7.95646484 0.79089844 7.95646484 0.79089844 9 1 C9.33 1.66 9.66 2.32 10 3 C10.99 3.33 11.98 3.66 13 4 C12.67 5.32 12.34 6.64 12 8 C9 7 9 7 7.6875 5.0625 C5.46904326 2.35105287 3.32530806 1.88674882 0 1 C0 0.67 0 0.34 0 0 Z " fill="#F0E6DA" transform="translate(227,128)"/>
<path d="M0 0 C0.78375 0.04125 1.5675 0.0825 2.375 0.125 C1.055 0.455 -0.265 0.785 -1.625 1.125 C-1.74617188 1.95644531 -1.86734375 2.78789062 -1.9921875 3.64453125 C-2.15976562 4.73121094 -2.32734375 5.81789063 -2.5 6.9375 C-2.66242188 8.01644531 -2.82484375 9.09539062 -2.9921875 10.20703125 C-3.625 13.125 -3.625 13.125 -5.625 16.125 C-5.51128503 13.83274565 -5.38369036 11.54117612 -5.25 9.25 C-5.18039062 7.97382813 -5.11078125 6.69765625 -5.0390625 5.3828125 C-4.53750918 1.43662883 -4.09557501 0.19502738 0 0 Z " fill="#332C27" transform="translate(262.625,293.875)"/>
<path d="M0 0 C0.99 0.66 1.98 1.32 3 2 C2.75 4.375 2.75 4.375 2 7 C-0.0625 8.3125 -0.0625 8.3125 -2 9 C-1.79375 8.4225 -1.5875 7.845 -1.375 7.25 C-0.91338739 4.48032433 -1.57055055 3.35438733 -3 1 C-2.01 0.67 -1.02 0.34 0 0 Z " fill="#787168" transform="translate(260,287)"/>
<path d="M0 0 C4.9430602 0.49430602 8.74976194 1.36890025 13 4 C13.33 4.99 13.66 5.98 14 7 C13.01 6.67 12.02 6.34 11 6 C11 5.34 11 4.68 11 4 C9.88625 4.020625 8.7725 4.04125 7.625 4.0625 C4 4 4 4 2 3 C2 2.34 2 1.68 2 1 C1.34 0.67 0.68 0.34 0 0 Z " fill="#EEDDBF" transform="translate(225,125)"/>
<path d="M0 0 C0.99 0 1.98 0 3 0 C2.67 1.98 2.34 3.96 2 6 C2.99 5.67 3.98 5.34 5 5 C5 5.66 5 6.32 5 7 C0 6 0 6 -5 5 C-3.68 4.67 -2.36 4.34 -1 4 C-0.67 2.68 -0.34 1.36 0 0 Z " fill="#352F2C" transform="translate(270,291)"/>
<path d="M0 0 C2.64 0.33 5.28 0.66 8 1 C8.33 2.98 8.66 4.96 9 7 C7.4972763 6.02501855 5.99788037 5.04490611 4.5 4.0625 C3.6646875 3.51722656 2.829375 2.97195312 1.96875 2.41015625 C1.3190625 1.94480469 0.669375 1.47945313 0 1 C0 0.67 0 0.34 0 0 Z " fill="#DDC086" transform="translate(237,122)"/>
<path d="M0 0 C-0.33 0.33 -0.66 0.66 -1 1 C-0.34 1.66 0.32 2.32 1 3 C-0.98 3 -2.96 3 -5 3 C-5.33 2.01 -5.66 1.02 -6 0 C-3 -1 -3 -1 0 0 Z " fill="#D2BFAE" transform="translate(113,251)"/>
<path d="M0 0 C0.99 0.33 1.98 0.66 3 1 C4.1577506 4.47325181 4.06866652 7.36067448 4 11 C3.67 11 3.34 11 3 11 C0.85714286 3.57142857 0.85714286 3.57142857 0 0 Z " fill="#2C2726" transform="translate(227,139)"/>
<path d="M0 0 C0.33 0.99 0.66 1.98 1 3 C-0.65 4.32 -2.3 5.64 -4 7 C-4 4 -4 4 -2 1.8125 C-1.34 1.214375 -0.68 0.61625 0 0 Z " fill="#D4C8BC" transform="translate(181,163)"/>
<path d="M0 0 C2.0625 0.4375 2.0625 0.4375 4 1 C3.01 1.66 2.02 2.32 1 3 C0.67 3.99 0.34 4.98 0 6 C-0.99 6.33 -1.98 6.66 -3 7 C-1.125 1.125 -1.125 1.125 0 0 Z " fill="#E5C47B" transform="translate(251,154)"/>
<path d="M0 0 C0.99 0.33 1.98 0.66 3 1 C-1.75 5.875 -1.75 5.875 -4 7 C-3.6875 4.625 -3.6875 4.625 -3 2 C-2.01 1.34 -1.02 0.68 0 0 Z " fill="#EEE4D7" transform="translate(149,126)"/>
</svg>
